G04 #@! TF.GenerationSoftware,KiCad,Pcbnew,(5.1.5)-3*
G04 #@! TF.CreationDate,2020-06-04T17:15:33+02:00*
G04 #@! TF.ProjectId,SYS_StepAtten,5359535f-5374-4657-9041-7474656e2e6b,v1.0*
G04 #@! TF.SameCoordinates,Original*
G04 #@! TF.FileFunction,Copper,L2,Bot*
G04 #@! TF.FilePolarity,Positive*
%FSLAX46Y46*%
G04 Gerber Fmt 4.6, Leading zero omitted, Abs format (unit mm)*
G04 Created by KiCad (PCBNEW (5.1.5)-3) date 2020-06-04 17:15:33*
%MOMM*%
%LPD*%
G04 APERTURE LIST*
%ADD10C,0.100000*%
%ADD11C,0.150000*%
%ADD12C,0.300000*%
%ADD13C,0.400000*%
%ADD14C,0.050000*%
%ADD15O,1.700000X1.700000*%
%ADD16R,1.700000X1.700000*%
%ADD17C,6.000000*%
%ADD18C,3.000000*%
%ADD19C,2.032000*%
%ADD20C,3.048000*%
%ADD21R,3.500000X3.500000*%
%ADD22C,1.440000*%
%ADD23C,1.800000*%
%ADD24C,4.600000*%
%ADD25R,1.905000X2.000000*%
%ADD26O,1.905000X2.000000*%
%ADD27C,0.800000*%
%ADD28C,0.800000*%
%ADD29C,0.250000*%
%ADD30C,0.600000*%
%ADD31C,0.254000*%
G04 APERTURE END LIST*
D10*
D11*
X177002200Y-166007200D02*
X177002200Y-198007200D01*
X285002200Y-198007200D01*
X285002200Y-166007200D01*
X177002200Y-166007200D01*
D10*
D11*
X10000000Y-10000000D02*
X10000000Y-200007200D01*
X287002200Y-200007200D01*
X287002200Y-10000000D01*
X10000000Y-10000000D01*
D10*
D11*
X12000000Y-12000000D02*
X12000000Y-198007200D01*
X285002200Y-198007200D01*
X285002200Y-12000000D01*
X12000000Y-12000000D01*
D10*
D11*
X60000000Y-12000000D02*
X60000000Y-10000000D01*
D10*
D11*
X110000000Y-12000000D02*
X110000000Y-10000000D01*
D10*
D11*
X160000000Y-12000000D02*
X160000000Y-10000000D01*
D10*
D11*
X210000000Y-12000000D02*
X210000000Y-10000000D01*
D10*
D11*
X260000000Y-12000000D02*
X260000000Y-10000000D01*
D10*
D11*
X36065476Y-11588095D02*
X35322619Y-11588095D01*
X35694047Y-11588095D02*
X35694047Y-10288095D01*
X35570238Y-10473809D01*
X35446428Y-10597619D01*
X35322619Y-10659523D01*
D10*
D11*
X85322619Y-10411904D02*
X85384523Y-10350000D01*
X85508333Y-10288095D01*
X85817857Y-10288095D01*
X85941666Y-10350000D01*
X86003571Y-10411904D01*
X86065476Y-10535714D01*
X86065476Y-10659523D01*
X86003571Y-10845238D01*
X85260714Y-11588095D01*
X86065476Y-11588095D01*
D10*
D11*
X135260714Y-10288095D02*
X136065476Y-10288095D01*
X135632142Y-10783333D01*
X135817857Y-10783333D01*
X135941666Y-10845238D01*
X136003571Y-10907142D01*
X136065476Y-11030952D01*
X136065476Y-11340476D01*
X136003571Y-11464285D01*
X135941666Y-11526190D01*
X135817857Y-11588095D01*
X135446428Y-11588095D01*
X135322619Y-11526190D01*
X135260714Y-11464285D01*
D10*
D11*
X185941666Y-10721428D02*
X185941666Y-11588095D01*
X185632142Y-10226190D02*
X185322619Y-11154761D01*
X186127380Y-11154761D01*
D10*
D11*
X236003571Y-10288095D02*
X235384523Y-10288095D01*
X235322619Y-10907142D01*
X235384523Y-10845238D01*
X235508333Y-10783333D01*
X235817857Y-10783333D01*
X235941666Y-10845238D01*
X236003571Y-10907142D01*
X236065476Y-11030952D01*
X236065476Y-11340476D01*
X236003571Y-11464285D01*
X235941666Y-11526190D01*
X235817857Y-11588095D01*
X235508333Y-11588095D01*
X235384523Y-11526190D01*
X235322619Y-11464285D01*
D10*
D11*
X285941666Y-10288095D02*
X285694047Y-10288095D01*
X285570238Y-10350000D01*
X285508333Y-10411904D01*
X285384523Y-10597619D01*
X285322619Y-10845238D01*
X285322619Y-11340476D01*
X285384523Y-11464285D01*
X285446428Y-11526190D01*
X285570238Y-11588095D01*
X285817857Y-11588095D01*
X285941666Y-11526190D01*
X286003571Y-11464285D01*
X286065476Y-11340476D01*
X286065476Y-11030952D01*
X286003571Y-10907142D01*
X285941666Y-10845238D01*
X285817857Y-10783333D01*
X285570238Y-10783333D01*
X285446428Y-10845238D01*
X285384523Y-10907142D01*
X285322619Y-11030952D01*
D10*
D11*
X60000000Y-198007200D02*
X60000000Y-200007200D01*
D10*
D11*
X110000000Y-198007200D02*
X110000000Y-200007200D01*
D10*
D11*
X160000000Y-198007200D02*
X160000000Y-200007200D01*
D10*
D11*
X210000000Y-198007200D02*
X210000000Y-200007200D01*
D10*
D11*
X260000000Y-198007200D02*
X260000000Y-200007200D01*
D10*
D11*
X36065476Y-199595295D02*
X35322619Y-199595295D01*
X35694047Y-199595295D02*
X35694047Y-198295295D01*
X35570238Y-198481009D01*
X35446428Y-198604819D01*
X35322619Y-198666723D01*
D10*
D11*
X85322619Y-198419104D02*
X85384523Y-198357200D01*
X85508333Y-198295295D01*
X85817857Y-198295295D01*
X85941666Y-198357200D01*
X86003571Y-198419104D01*
X86065476Y-198542914D01*
X86065476Y-198666723D01*
X86003571Y-198852438D01*
X85260714Y-199595295D01*
X86065476Y-199595295D01*
D10*
D11*
X135260714Y-198295295D02*
X136065476Y-198295295D01*
X135632142Y-198790533D01*
X135817857Y-198790533D01*
X135941666Y-198852438D01*
X136003571Y-198914342D01*
X136065476Y-199038152D01*
X136065476Y-199347676D01*
X136003571Y-199471485D01*
X135941666Y-199533390D01*
X135817857Y-199595295D01*
X135446428Y-199595295D01*
X135322619Y-199533390D01*
X135260714Y-199471485D01*
D10*
D11*
X185941666Y-198728628D02*
X185941666Y-199595295D01*
X185632142Y-198233390D02*
X185322619Y-199161961D01*
X186127380Y-199161961D01*
D10*
D11*
X236003571Y-198295295D02*
X235384523Y-198295295D01*
X235322619Y-198914342D01*
X235384523Y-198852438D01*
X235508333Y-198790533D01*
X235817857Y-198790533D01*
X235941666Y-198852438D01*
X236003571Y-198914342D01*
X236065476Y-199038152D01*
X236065476Y-199347676D01*
X236003571Y-199471485D01*
X235941666Y-199533390D01*
X235817857Y-199595295D01*
X235508333Y-199595295D01*
X235384523Y-199533390D01*
X235322619Y-199471485D01*
D10*
D11*
X285941666Y-198295295D02*
X285694047Y-198295295D01*
X285570238Y-198357200D01*
X285508333Y-198419104D01*
X285384523Y-198604819D01*
X285322619Y-198852438D01*
X285322619Y-199347676D01*
X285384523Y-199471485D01*
X285446428Y-199533390D01*
X285570238Y-199595295D01*
X285817857Y-199595295D01*
X285941666Y-199533390D01*
X286003571Y-199471485D01*
X286065476Y-199347676D01*
X286065476Y-199038152D01*
X286003571Y-198914342D01*
X285941666Y-198852438D01*
X285817857Y-198790533D01*
X285570238Y-198790533D01*
X285446428Y-198852438D01*
X285384523Y-198914342D01*
X285322619Y-199038152D01*
D10*
D11*
X10000000Y-60000000D02*
X12000000Y-60000000D01*
D10*
D11*
X10000000Y-110000000D02*
X12000000Y-110000000D01*
D10*
D11*
X10000000Y-160000000D02*
X12000000Y-160000000D01*
D10*
D11*
X10690476Y-35216666D02*
X11309523Y-35216666D01*
X10566666Y-35588095D02*
X11000000Y-34288095D01*
X11433333Y-35588095D01*
D10*
D11*
X11092857Y-84907142D02*
X11278571Y-84969047D01*
X11340476Y-85030952D01*
X11402380Y-85154761D01*
X11402380Y-85340476D01*
X11340476Y-85464285D01*
X11278571Y-85526190D01*
X11154761Y-85588095D01*
X10659523Y-85588095D01*
X10659523Y-84288095D01*
X11092857Y-84288095D01*
X11216666Y-84350000D01*
X11278571Y-84411904D01*
X11340476Y-84535714D01*
X11340476Y-84659523D01*
X11278571Y-84783333D01*
X11216666Y-84845238D01*
X11092857Y-84907142D01*
X10659523Y-84907142D01*
D10*
D11*
X11402380Y-135464285D02*
X11340476Y-135526190D01*
X11154761Y-135588095D01*
X11030952Y-135588095D01*
X10845238Y-135526190D01*
X10721428Y-135402380D01*
X10659523Y-135278571D01*
X10597619Y-135030952D01*
X10597619Y-134845238D01*
X10659523Y-134597619D01*
X10721428Y-134473809D01*
X10845238Y-134350000D01*
X11030952Y-134288095D01*
X11154761Y-134288095D01*
X11340476Y-134350000D01*
X11402380Y-134411904D01*
D10*
D11*
X10659523Y-185588095D02*
X10659523Y-184288095D01*
X10969047Y-184288095D01*
X11154761Y-184350000D01*
X11278571Y-184473809D01*
X11340476Y-184597619D01*
X11402380Y-184845238D01*
X11402380Y-185030952D01*
X11340476Y-185278571D01*
X11278571Y-185402380D01*
X11154761Y-185526190D01*
X10969047Y-185588095D01*
X10659523Y-185588095D01*
D10*
D11*
X287002200Y-60000000D02*
X285002200Y-60000000D01*
D10*
D11*
X287002200Y-110000000D02*
X285002200Y-110000000D01*
D10*
D11*
X287002200Y-160000000D02*
X285002200Y-160000000D01*
D10*
D11*
X285692676Y-35216666D02*
X286311723Y-35216666D01*
X285568866Y-35588095D02*
X286002200Y-34288095D01*
X286435533Y-35588095D01*
D10*
D11*
X286095057Y-84907142D02*
X286280771Y-84969047D01*
X286342676Y-85030952D01*
X286404580Y-85154761D01*
X286404580Y-85340476D01*
X286342676Y-85464285D01*
X286280771Y-85526190D01*
X286156961Y-85588095D01*
X285661723Y-85588095D01*
X285661723Y-84288095D01*
X286095057Y-84288095D01*
X286218866Y-84350000D01*
X286280771Y-84411904D01*
X286342676Y-84535714D01*
X286342676Y-84659523D01*
X286280771Y-84783333D01*
X286218866Y-84845238D01*
X286095057Y-84907142D01*
X285661723Y-84907142D01*
D10*
D11*
X286404580Y-135464285D02*
X286342676Y-135526190D01*
X286156961Y-135588095D01*
X286033152Y-135588095D01*
X285847438Y-135526190D01*
X285723628Y-135402380D01*
X285661723Y-135278571D01*
X285599819Y-135030952D01*
X285599819Y-134845238D01*
X285661723Y-134597619D01*
X285723628Y-134473809D01*
X285847438Y-134350000D01*
X286033152Y-134288095D01*
X286156961Y-134288095D01*
X286342676Y-134350000D01*
X286404580Y-134411904D01*
D10*
D11*
X285661723Y-185588095D02*
X285661723Y-184288095D01*
X285971247Y-184288095D01*
X286156961Y-184350000D01*
X286280771Y-184473809D01*
X286342676Y-184597619D01*
X286404580Y-184845238D01*
X286404580Y-185030952D01*
X286342676Y-185278571D01*
X286280771Y-185402380D01*
X286156961Y-185526190D01*
X285971247Y-185588095D01*
X285661723Y-185588095D01*
D10*
D11*
X200434342Y-193785771D02*
X200434342Y-192285771D01*
X200791485Y-192285771D01*
X201005771Y-192357200D01*
X201148628Y-192500057D01*
X201220057Y-192642914D01*
X201291485Y-192928628D01*
X201291485Y-193142914D01*
X201220057Y-193428628D01*
X201148628Y-193571485D01*
X201005771Y-193714342D01*
X200791485Y-193785771D01*
X200434342Y-193785771D01*
X202577200Y-193785771D02*
X202577200Y-193000057D01*
X202505771Y-192857200D01*
X202362914Y-192785771D01*
X202077200Y-192785771D01*
X201934342Y-192857200D01*
X202577200Y-193714342D02*
X202434342Y-193785771D01*
X202077200Y-193785771D01*
X201934342Y-193714342D01*
X201862914Y-193571485D01*
X201862914Y-193428628D01*
X201934342Y-193285771D01*
X202077200Y-193214342D01*
X202434342Y-193214342D01*
X202577200Y-193142914D01*
X203077200Y-192785771D02*
X203648628Y-192785771D01*
X203291485Y-192285771D02*
X203291485Y-193571485D01*
X203362914Y-193714342D01*
X203505771Y-193785771D01*
X203648628Y-193785771D01*
X204720057Y-193714342D02*
X204577200Y-193785771D01*
X204291485Y-193785771D01*
X204148628Y-193714342D01*
X204077200Y-193571485D01*
X204077200Y-193000057D01*
X204148628Y-192857200D01*
X204291485Y-192785771D01*
X204577200Y-192785771D01*
X204720057Y-192857200D01*
X204791485Y-193000057D01*
X204791485Y-193142914D01*
X204077200Y-193285771D01*
X205434342Y-193642914D02*
X205505771Y-193714342D01*
X205434342Y-193785771D01*
X205362914Y-193714342D01*
X205434342Y-193642914D01*
X205434342Y-193785771D01*
X205434342Y-192857200D02*
X205505771Y-192928628D01*
X205434342Y-193000057D01*
X205362914Y-192928628D01*
X205434342Y-192857200D01*
X205434342Y-193000057D01*
X207220057Y-192428628D02*
X207291485Y-192357200D01*
X207434342Y-192285771D01*
X207791485Y-192285771D01*
X207934342Y-192357200D01*
X208005771Y-192428628D01*
X208077200Y-192571485D01*
X208077200Y-192714342D01*
X208005771Y-192928628D01*
X207148628Y-193785771D01*
X208077200Y-193785771D01*
X209005771Y-192285771D02*
X209148628Y-192285771D01*
X209291485Y-192357200D01*
X209362914Y-192428628D01*
X209434342Y-192571485D01*
X209505771Y-192857200D01*
X209505771Y-193214342D01*
X209434342Y-193500057D01*
X209362914Y-193642914D01*
X209291485Y-193714342D01*
X209148628Y-193785771D01*
X209005771Y-193785771D01*
X208862914Y-193714342D01*
X208791485Y-193642914D01*
X208720057Y-193500057D01*
X208648628Y-193214342D01*
X208648628Y-192857200D01*
X208720057Y-192571485D01*
X208791485Y-192428628D01*
X208862914Y-192357200D01*
X209005771Y-192285771D01*
X210077200Y-192428628D02*
X210148628Y-192357200D01*
X210291485Y-192285771D01*
X210648628Y-192285771D01*
X210791485Y-192357200D01*
X210862914Y-192428628D01*
X210934342Y-192571485D01*
X210934342Y-192714342D01*
X210862914Y-192928628D01*
X210005771Y-193785771D01*
X210934342Y-193785771D01*
X211862914Y-192285771D02*
X212005771Y-192285771D01*
X212148628Y-192357200D01*
X212220057Y-192428628D01*
X212291485Y-192571485D01*
X212362914Y-192857200D01*
X212362914Y-193214342D01*
X212291485Y-193500057D01*
X212220057Y-193642914D01*
X212148628Y-193714342D01*
X212005771Y-193785771D01*
X211862914Y-193785771D01*
X211720057Y-193714342D01*
X211648628Y-193642914D01*
X211577200Y-193500057D01*
X211505771Y-193214342D01*
X211505771Y-192857200D01*
X211577200Y-192571485D01*
X211648628Y-192428628D01*
X211720057Y-192357200D01*
X211862914Y-192285771D01*
X213005771Y-193214342D02*
X214148628Y-193214342D01*
X215148628Y-192285771D02*
X215291485Y-192285771D01*
X215434342Y-192357200D01*
X215505771Y-192428628D01*
X215577200Y-192571485D01*
X215648628Y-192857200D01*
X215648628Y-193214342D01*
X215577200Y-193500057D01*
X215505771Y-193642914D01*
X215434342Y-193714342D01*
X215291485Y-193785771D01*
X215148628Y-193785771D01*
X215005771Y-193714342D01*
X214934342Y-193642914D01*
X214862914Y-193500057D01*
X214791485Y-193214342D01*
X214791485Y-192857200D01*
X214862914Y-192571485D01*
X214934342Y-192428628D01*
X215005771Y-192357200D01*
X215148628Y-192285771D01*
X216934342Y-192285771D02*
X216648628Y-192285771D01*
X216505771Y-192357200D01*
X216434342Y-192428628D01*
X216291485Y-192642914D01*
X216220057Y-192928628D01*
X216220057Y-193500057D01*
X216291485Y-193642914D01*
X216362914Y-193714342D01*
X216505771Y-193785771D01*
X216791485Y-193785771D01*
X216934342Y-193714342D01*
X217005771Y-193642914D01*
X217077200Y-193500057D01*
X217077200Y-193142914D01*
X217005771Y-193000057D01*
X216934342Y-192928628D01*
X216791485Y-192857200D01*
X216505771Y-192857200D01*
X216362914Y-192928628D01*
X216291485Y-193000057D01*
X216220057Y-193142914D01*
X217720057Y-193214342D02*
X218862914Y-193214342D01*
X219862914Y-192285771D02*
X220005771Y-192285771D01*
X220148628Y-192357200D01*
X220220057Y-192428628D01*
X220291485Y-192571485D01*
X220362914Y-192857200D01*
X220362914Y-193214342D01*
X220291485Y-193500057D01*
X220220057Y-193642914D01*
X220148628Y-193714342D01*
X220005771Y-193785771D01*
X219862914Y-193785771D01*
X219720057Y-193714342D01*
X219648628Y-193642914D01*
X219577200Y-193500057D01*
X219505771Y-193214342D01*
X219505771Y-192857200D01*
X219577200Y-192571485D01*
X219648628Y-192428628D01*
X219720057Y-192357200D01*
X219862914Y-192285771D01*
X221648628Y-192785771D02*
X221648628Y-193785771D01*
X221291485Y-192214342D02*
X220934342Y-193285771D01*
X221862914Y-193285771D01*
D10*
D11*
X177002200Y-194507200D02*
X285002200Y-194507200D01*
D10*
D11*
X178434342Y-196585771D02*
X178434342Y-195085771D01*
X179291485Y-196585771D02*
X178648628Y-195728628D01*
X179291485Y-195085771D02*
X178434342Y-195942914D01*
X179934342Y-196585771D02*
X179934342Y-195585771D01*
X179934342Y-195085771D02*
X179862914Y-195157200D01*
X179934342Y-195228628D01*
X180005771Y-195157200D01*
X179934342Y-195085771D01*
X179934342Y-195228628D01*
X181505771Y-196442914D02*
X181434342Y-196514342D01*
X181220057Y-196585771D01*
X181077200Y-196585771D01*
X180862914Y-196514342D01*
X180720057Y-196371485D01*
X180648628Y-196228628D01*
X180577200Y-195942914D01*
X180577200Y-195728628D01*
X180648628Y-195442914D01*
X180720057Y-195300057D01*
X180862914Y-195157200D01*
X181077200Y-195085771D01*
X181220057Y-195085771D01*
X181434342Y-195157200D01*
X181505771Y-195228628D01*
X182791485Y-196585771D02*
X182791485Y-195800057D01*
X182720057Y-195657200D01*
X182577200Y-195585771D01*
X182291485Y-195585771D01*
X182148628Y-195657200D01*
X182791485Y-196514342D02*
X182648628Y-196585771D01*
X182291485Y-196585771D01*
X182148628Y-196514342D01*
X182077200Y-196371485D01*
X182077200Y-196228628D01*
X182148628Y-196085771D01*
X182291485Y-196014342D01*
X182648628Y-196014342D01*
X182791485Y-195942914D01*
X184148628Y-196585771D02*
X184148628Y-195085771D01*
X184148628Y-196514342D02*
X184005771Y-196585771D01*
X183720057Y-196585771D01*
X183577200Y-196514342D01*
X183505771Y-196442914D01*
X183434342Y-196300057D01*
X183434342Y-195871485D01*
X183505771Y-195728628D01*
X183577200Y-195657200D01*
X183720057Y-195585771D01*
X184005771Y-195585771D01*
X184148628Y-195657200D01*
X186005771Y-195800057D02*
X186505771Y-195800057D01*
X186720057Y-196585771D02*
X186005771Y-196585771D01*
X186005771Y-195085771D01*
X186720057Y-195085771D01*
X187362914Y-196442914D02*
X187434342Y-196514342D01*
X187362914Y-196585771D01*
X187291485Y-196514342D01*
X187362914Y-196442914D01*
X187362914Y-196585771D01*
X188077200Y-196585771D02*
X188077200Y-195085771D01*
X188434342Y-195085771D01*
X188648628Y-195157200D01*
X188791485Y-195300057D01*
X188862914Y-195442914D01*
X188934342Y-195728628D01*
X188934342Y-195942914D01*
X188862914Y-196228628D01*
X188791485Y-196371485D01*
X188648628Y-196514342D01*
X188434342Y-196585771D01*
X188077200Y-196585771D01*
X189577200Y-196442914D02*
X189648628Y-196514342D01*
X189577200Y-196585771D01*
X189505771Y-196514342D01*
X189577200Y-196442914D01*
X189577200Y-196585771D01*
X190220057Y-196157200D02*
X190934342Y-196157200D01*
X190077200Y-196585771D02*
X190577200Y-195085771D01*
X191077200Y-196585771D01*
X191577200Y-196442914D02*
X191648628Y-196514342D01*
X191577200Y-196585771D01*
X191505771Y-196514342D01*
X191577200Y-196442914D01*
X191577200Y-196585771D01*
X194577200Y-196585771D02*
X194577200Y-195085771D01*
X194720057Y-196014342D02*
X195148628Y-196585771D01*
X195148628Y-195585771D02*
X194577200Y-196157200D01*
X195791485Y-196585771D02*
X195791485Y-195585771D01*
X195791485Y-195085771D02*
X195720057Y-195157200D01*
X195791485Y-195228628D01*
X195862914Y-195157200D01*
X195791485Y-195085771D01*
X195791485Y-195228628D01*
X197148628Y-196514342D02*
X197005771Y-196585771D01*
X196720057Y-196585771D01*
X196577200Y-196514342D01*
X196505771Y-196442914D01*
X196434342Y-196300057D01*
X196434342Y-195871485D01*
X196505771Y-195728628D01*
X196577200Y-195657200D01*
X196720057Y-195585771D01*
X197005771Y-195585771D01*
X197148628Y-195657200D01*
X198434342Y-196585771D02*
X198434342Y-195800057D01*
X198362914Y-195657200D01*
X198220057Y-195585771D01*
X197934342Y-195585771D01*
X197791485Y-195657200D01*
X198434342Y-196514342D02*
X198291485Y-196585771D01*
X197934342Y-196585771D01*
X197791485Y-196514342D01*
X197720057Y-196371485D01*
X197720057Y-196228628D01*
X197791485Y-196085771D01*
X197934342Y-196014342D01*
X198291485Y-196014342D01*
X198434342Y-195942914D01*
X199791485Y-196585771D02*
X199791485Y-195085771D01*
X199791485Y-196514342D02*
X199648628Y-196585771D01*
X199362914Y-196585771D01*
X199220057Y-196514342D01*
X199148628Y-196442914D01*
X199077200Y-196300057D01*
X199077200Y-195871485D01*
X199148628Y-195728628D01*
X199220057Y-195657200D01*
X199362914Y-195585771D01*
X199648628Y-195585771D01*
X199791485Y-195657200D01*
X202077200Y-197157200D02*
X202005771Y-197085771D01*
X201862914Y-196871485D01*
X201791485Y-196728628D01*
X201720057Y-196514342D01*
X201648628Y-196157200D01*
X201648628Y-195871485D01*
X201720057Y-195514342D01*
X201791485Y-195300057D01*
X201862914Y-195157200D01*
X202005771Y-194942914D01*
X202077200Y-194871485D01*
X203362914Y-195085771D02*
X202648628Y-195085771D01*
X202577200Y-195800057D01*
X202648628Y-195728628D01*
X202791485Y-195657200D01*
X203148628Y-195657200D01*
X203291485Y-195728628D01*
X203362914Y-195800057D01*
X203434342Y-195942914D01*
X203434342Y-196300057D01*
X203362914Y-196442914D01*
X203291485Y-196514342D01*
X203148628Y-196585771D01*
X202791485Y-196585771D01*
X202648628Y-196514342D01*
X202577200Y-196442914D01*
X204077200Y-196442914D02*
X204148628Y-196514342D01*
X204077200Y-196585771D01*
X204005771Y-196514342D01*
X204077200Y-196442914D01*
X204077200Y-196585771D01*
X205577200Y-196585771D02*
X204720057Y-196585771D01*
X205148628Y-196585771D02*
X205148628Y-195085771D01*
X205005771Y-195300057D01*
X204862914Y-195442914D01*
X204720057Y-195514342D01*
X206220057Y-196442914D02*
X206291485Y-196514342D01*
X206220057Y-196585771D01*
X206148628Y-196514342D01*
X206220057Y-196442914D01*
X206220057Y-196585771D01*
X207648628Y-195085771D02*
X206934342Y-195085771D01*
X206862914Y-195800057D01*
X206934342Y-195728628D01*
X207077200Y-195657200D01*
X207434342Y-195657200D01*
X207577200Y-195728628D01*
X207648628Y-195800057D01*
X207720057Y-195942914D01*
X207720057Y-196300057D01*
X207648628Y-196442914D01*
X207577200Y-196514342D01*
X207434342Y-196585771D01*
X207077200Y-196585771D01*
X206934342Y-196514342D01*
X206862914Y-196442914D01*
X208220057Y-197157200D02*
X208291485Y-197085771D01*
X208434342Y-196871485D01*
X208505771Y-196728628D01*
X208577200Y-196514342D01*
X208648628Y-196157200D01*
X208648628Y-195871485D01*
X208577200Y-195514342D01*
X208505771Y-195300057D01*
X208434342Y-195157200D01*
X208291485Y-194942914D01*
X208220057Y-194871485D01*
X209362914Y-196014342D02*
X210505771Y-196014342D01*
X211077200Y-195085771D02*
X212005771Y-195085771D01*
X211505771Y-195657200D01*
X211720057Y-195657200D01*
X211862914Y-195728628D01*
X211934342Y-195800057D01*
X212005771Y-195942914D01*
X212005771Y-196300057D01*
X211934342Y-196442914D01*
X211862914Y-196514342D01*
X211720057Y-196585771D01*
X211291485Y-196585771D01*
X211148628Y-196514342D01*
X211077200Y-196442914D01*
D10*
D11*
X177002200Y-191507200D02*
X285002200Y-191507200D01*
D10*
D12*
X264411485Y-193785771D02*
X263911485Y-193071485D01*
X263554342Y-193785771D02*
X263554342Y-192285771D01*
X264125771Y-192285771D01*
X264268628Y-192357200D01*
X264340057Y-192428628D01*
X264411485Y-192571485D01*
X264411485Y-192785771D01*
X264340057Y-192928628D01*
X264268628Y-193000057D01*
X264125771Y-193071485D01*
X263554342Y-193071485D01*
X265625771Y-193714342D02*
X265482914Y-193785771D01*
X265197200Y-193785771D01*
X265054342Y-193714342D01*
X264982914Y-193571485D01*
X264982914Y-193000057D01*
X265054342Y-192857200D01*
X265197200Y-192785771D01*
X265482914Y-192785771D01*
X265625771Y-192857200D01*
X265697200Y-193000057D01*
X265697200Y-193142914D01*
X264982914Y-193285771D01*
X266197200Y-192785771D02*
X266554342Y-193785771D01*
X266911485Y-192785771D01*
X267482914Y-193642914D02*
X267554342Y-193714342D01*
X267482914Y-193785771D01*
X267411485Y-193714342D01*
X267482914Y-193642914D01*
X267482914Y-193785771D01*
X267482914Y-192857200D02*
X267554342Y-192928628D01*
X267482914Y-193000057D01*
X267411485Y-192928628D01*
X267482914Y-192857200D01*
X267482914Y-193000057D01*
X269197200Y-192785771D02*
X269554342Y-193785771D01*
X269911485Y-192785771D01*
X271268628Y-193785771D02*
X270411485Y-193785771D01*
X270840057Y-193785771D02*
X270840057Y-192285771D01*
X270697200Y-192500057D01*
X270554342Y-192642914D01*
X270411485Y-192714342D01*
X271911485Y-193642914D02*
X271982914Y-193714342D01*
X271911485Y-193785771D01*
X271840057Y-193714342D01*
X271911485Y-193642914D01*
X271911485Y-193785771D01*
X272911485Y-192285771D02*
X273054342Y-192285771D01*
X273197200Y-192357200D01*
X273268628Y-192428628D01*
X273340057Y-192571485D01*
X273411485Y-192857200D01*
X273411485Y-193214342D01*
X273340057Y-193500057D01*
X273268628Y-193642914D01*
X273197200Y-193714342D01*
X273054342Y-193785771D01*
X272911485Y-193785771D01*
X272768628Y-193714342D01*
X272697200Y-193642914D01*
X272625771Y-193500057D01*
X272554342Y-193214342D01*
X272554342Y-192857200D01*
X272625771Y-192571485D01*
X272697200Y-192428628D01*
X272768628Y-192357200D01*
X272911485Y-192285771D01*
D10*
D11*
X178362914Y-193714342D02*
X178577200Y-193785771D01*
X178934342Y-193785771D01*
X179077200Y-193714342D01*
X179148628Y-193642914D01*
X179220057Y-193500057D01*
X179220057Y-193357200D01*
X179148628Y-193214342D01*
X179077200Y-193142914D01*
X178934342Y-193071485D01*
X178648628Y-193000057D01*
X178505771Y-192928628D01*
X178434342Y-192857200D01*
X178362914Y-192714342D01*
X178362914Y-192571485D01*
X178434342Y-192428628D01*
X178505771Y-192357200D01*
X178648628Y-192285771D01*
X179005771Y-192285771D01*
X179220057Y-192357200D01*
X179862914Y-193785771D02*
X179862914Y-192785771D01*
X179862914Y-192285771D02*
X179791485Y-192357200D01*
X179862914Y-192428628D01*
X179934342Y-192357200D01*
X179862914Y-192285771D01*
X179862914Y-192428628D01*
X180434342Y-192785771D02*
X181220057Y-192785771D01*
X180434342Y-193785771D01*
X181220057Y-193785771D01*
X182362914Y-193714342D02*
X182220057Y-193785771D01*
X181934342Y-193785771D01*
X181791485Y-193714342D01*
X181720057Y-193571485D01*
X181720057Y-193000057D01*
X181791485Y-192857200D01*
X181934342Y-192785771D01*
X182220057Y-192785771D01*
X182362914Y-192857200D01*
X182434342Y-193000057D01*
X182434342Y-193142914D01*
X181720057Y-193285771D01*
X183077200Y-193642914D02*
X183148628Y-193714342D01*
X183077200Y-193785771D01*
X183005771Y-193714342D01*
X183077200Y-193642914D01*
X183077200Y-193785771D01*
X183077200Y-192857200D02*
X183148628Y-192928628D01*
X183077200Y-193000057D01*
X183005771Y-192928628D01*
X183077200Y-192857200D01*
X183077200Y-193000057D01*
X184862914Y-193357200D02*
X185577200Y-193357200D01*
X184720057Y-193785771D02*
X185220057Y-192285771D01*
X185720057Y-193785771D01*
X186862914Y-192785771D02*
X186862914Y-193785771D01*
X186505771Y-192214342D02*
X186148628Y-193285771D01*
X187077200Y-193285771D01*
D10*
D11*
X263434342Y-196585771D02*
X263434342Y-195085771D01*
X264791485Y-196585771D02*
X264791485Y-195085771D01*
X264791485Y-196514342D02*
X264648628Y-196585771D01*
X264362914Y-196585771D01*
X264220057Y-196514342D01*
X264148628Y-196442914D01*
X264077200Y-196300057D01*
X264077200Y-195871485D01*
X264148628Y-195728628D01*
X264220057Y-195657200D01*
X264362914Y-195585771D01*
X264648628Y-195585771D01*
X264791485Y-195657200D01*
X265505771Y-196442914D02*
X265577200Y-196514342D01*
X265505771Y-196585771D01*
X265434342Y-196514342D01*
X265505771Y-196442914D01*
X265505771Y-196585771D01*
X265505771Y-195657200D02*
X265577200Y-195728628D01*
X265505771Y-195800057D01*
X265434342Y-195728628D01*
X265505771Y-195657200D01*
X265505771Y-195800057D01*
X268148628Y-196585771D02*
X267291485Y-196585771D01*
X267720057Y-196585771D02*
X267720057Y-195085771D01*
X267577200Y-195300057D01*
X267434342Y-195442914D01*
X267291485Y-195514342D01*
X269862914Y-195014342D02*
X268577200Y-196942914D01*
X271148628Y-196585771D02*
X270291485Y-196585771D01*
X270720057Y-196585771D02*
X270720057Y-195085771D01*
X270577200Y-195300057D01*
X270434342Y-195442914D01*
X270291485Y-195514342D01*
D10*
D11*
X177002200Y-187507200D02*
X285002200Y-187507200D01*
D10*
D13*
X178714580Y-188211961D02*
X179857438Y-188211961D01*
X179036009Y-190211961D02*
X179286009Y-188211961D01*
X180274104Y-190211961D02*
X180440771Y-188878628D01*
X180524104Y-188211961D02*
X180416961Y-188307200D01*
X180500295Y-188402438D01*
X180607438Y-188307200D01*
X180524104Y-188211961D01*
X180500295Y-188402438D01*
X181107438Y-188878628D02*
X181869342Y-188878628D01*
X181476485Y-188211961D02*
X181262200Y-189926247D01*
X181333628Y-190116723D01*
X181512200Y-190211961D01*
X181702676Y-190211961D01*
X182655057Y-190211961D02*
X182476485Y-190116723D01*
X182405057Y-189926247D01*
X182619342Y-188211961D01*
X184190771Y-190116723D02*
X183988390Y-190211961D01*
X183607438Y-190211961D01*
X183428866Y-190116723D01*
X183357438Y-189926247D01*
X183452676Y-189164342D01*
X183571723Y-188973866D01*
X183774104Y-188878628D01*
X184155057Y-188878628D01*
X184333628Y-188973866D01*
X184405057Y-189164342D01*
X184381247Y-189354819D01*
X183405057Y-189545295D01*
X185155057Y-190021485D02*
X185238390Y-190116723D01*
X185131247Y-190211961D01*
X185047914Y-190116723D01*
X185155057Y-190021485D01*
X185131247Y-190211961D01*
X185286009Y-188973866D02*
X185369342Y-189069104D01*
X185262200Y-189164342D01*
X185178866Y-189069104D01*
X185286009Y-188973866D01*
X185262200Y-189164342D01*
X187524104Y-190116723D02*
X187797914Y-190211961D01*
X188274104Y-190211961D01*
X188476485Y-190116723D01*
X188583628Y-190021485D01*
X188702676Y-189831009D01*
X188726485Y-189640533D01*
X188655057Y-189450057D01*
X188571723Y-189354819D01*
X188393152Y-189259580D01*
X188024104Y-189164342D01*
X187845533Y-189069104D01*
X187762200Y-188973866D01*
X187690771Y-188783390D01*
X187714580Y-188592914D01*
X187833628Y-188402438D01*
X187940771Y-188307200D01*
X188143152Y-188211961D01*
X188619342Y-188211961D01*
X188893152Y-188307200D01*
X190012200Y-189259580D02*
X189893152Y-190211961D01*
X189476485Y-188211961D02*
X190012200Y-189259580D01*
X190809819Y-188211961D01*
X191143152Y-190116723D02*
X191416961Y-190211961D01*
X191893152Y-190211961D01*
X192095533Y-190116723D01*
X192202676Y-190021485D01*
X192321723Y-189831009D01*
X192345533Y-189640533D01*
X192274104Y-189450057D01*
X192190771Y-189354819D01*
X192012200Y-189259580D01*
X191643152Y-189164342D01*
X191464580Y-189069104D01*
X191381247Y-188973866D01*
X191309819Y-188783390D01*
X191333628Y-188592914D01*
X191452676Y-188402438D01*
X191559819Y-188307200D01*
X191762200Y-188211961D01*
X192238390Y-188211961D01*
X192512200Y-188307200D01*
X194750295Y-189450057D02*
X196274104Y-189450057D01*
X198571723Y-190116723D02*
X198845533Y-190211961D01*
X199321723Y-190211961D01*
X199524104Y-190116723D01*
X199631247Y-190021485D01*
X199750295Y-189831009D01*
X199774104Y-189640533D01*
X199702676Y-189450057D01*
X199619342Y-189354819D01*
X199440771Y-189259580D01*
X199071723Y-189164342D01*
X198893152Y-189069104D01*
X198809819Y-188973866D01*
X198738390Y-188783390D01*
X198762200Y-188592914D01*
X198881247Y-188402438D01*
X198988390Y-188307200D01*
X199190771Y-188211961D01*
X199666961Y-188211961D01*
X199940771Y-188307200D01*
X200440771Y-188878628D02*
X201202676Y-188878628D01*
X200809819Y-188211961D02*
X200595533Y-189926247D01*
X200666961Y-190116723D01*
X200845533Y-190211961D01*
X201036009Y-190211961D01*
X202476485Y-190116723D02*
X202274104Y-190211961D01*
X201893152Y-190211961D01*
X201714580Y-190116723D01*
X201643152Y-189926247D01*
X201738390Y-189164342D01*
X201857438Y-188973866D01*
X202059819Y-188878628D01*
X202440771Y-188878628D01*
X202619342Y-188973866D01*
X202690771Y-189164342D01*
X202666961Y-189354819D01*
X201690771Y-189545295D01*
X203583628Y-188878628D02*
X203333628Y-190878628D01*
X203571723Y-188973866D02*
X203774104Y-188878628D01*
X204155057Y-188878628D01*
X204333628Y-188973866D01*
X204416961Y-189069104D01*
X204488390Y-189259580D01*
X204416961Y-189831009D01*
X204297914Y-190021485D01*
X204190771Y-190116723D01*
X203988390Y-190211961D01*
X203607438Y-190211961D01*
X203428866Y-190116723D01*
X206726485Y-189640533D02*
X207678866Y-189640533D01*
X206464580Y-190211961D02*
X207381247Y-188211961D01*
X207797914Y-190211961D01*
X208345533Y-188878628D02*
X209107438Y-188878628D01*
X208714580Y-188211961D02*
X208500295Y-189926247D01*
X208571723Y-190116723D01*
X208750295Y-190211961D01*
X208940771Y-190211961D01*
X209488390Y-188878628D02*
X210250295Y-188878628D01*
X209857438Y-188211961D02*
X209643152Y-189926247D01*
X209714580Y-190116723D01*
X209893152Y-190211961D01*
X210083628Y-190211961D01*
X211524104Y-190116723D02*
X211321723Y-190211961D01*
X210940771Y-190211961D01*
X210762200Y-190116723D01*
X210690771Y-189926247D01*
X210786009Y-189164342D01*
X210905057Y-188973866D01*
X211107438Y-188878628D01*
X211488390Y-188878628D01*
X211666961Y-188973866D01*
X211738390Y-189164342D01*
X211714580Y-189354819D01*
X210738390Y-189545295D01*
X212631247Y-188878628D02*
X212464580Y-190211961D01*
X212607438Y-189069104D02*
X212714580Y-188973866D01*
X212916961Y-188878628D01*
X213202676Y-188878628D01*
X213381247Y-188973866D01*
X213452676Y-189164342D01*
X213321723Y-190211961D01*
X215297914Y-188878628D02*
X215131247Y-190211961D01*
X214440771Y-188878628D02*
X214309819Y-189926247D01*
X214381247Y-190116723D01*
X214559819Y-190211961D01*
X214845533Y-190211961D01*
X215047914Y-190116723D01*
X215155057Y-190021485D01*
X216940771Y-190211961D02*
X217071723Y-189164342D01*
X217000295Y-188973866D01*
X216821723Y-188878628D01*
X216440771Y-188878628D01*
X216238390Y-188973866D01*
X216952676Y-190116723D02*
X216750295Y-190211961D01*
X216274104Y-190211961D01*
X216095533Y-190116723D01*
X216024104Y-189926247D01*
X216047914Y-189735771D01*
X216166961Y-189545295D01*
X216369342Y-189450057D01*
X216845533Y-189450057D01*
X217047914Y-189354819D01*
X217774104Y-188878628D02*
X218536009Y-188878628D01*
X218143152Y-188211961D02*
X217928866Y-189926247D01*
X218000295Y-190116723D01*
X218178866Y-190211961D01*
X218369342Y-190211961D01*
X219321723Y-190211961D02*
X219143152Y-190116723D01*
X219059819Y-190021485D01*
X218988390Y-189831009D01*
X219059819Y-189259580D01*
X219178866Y-189069104D01*
X219286009Y-188973866D01*
X219488390Y-188878628D01*
X219774104Y-188878628D01*
X219952676Y-188973866D01*
X220036009Y-189069104D01*
X220107438Y-189259580D01*
X220036009Y-189831009D01*
X219916961Y-190021485D01*
X219809819Y-190116723D01*
X219607438Y-190211961D01*
X219321723Y-190211961D01*
X220845533Y-190211961D02*
X221012199Y-188878628D01*
X220964580Y-189259580D02*
X221083628Y-189069104D01*
X221190771Y-188973866D01*
X221393152Y-188878628D01*
X221583628Y-188878628D01*
D10*
D11*
X178934342Y-185600057D02*
X178434342Y-185600057D01*
X178434342Y-186385771D02*
X178434342Y-184885771D01*
X179148628Y-184885771D01*
X179720057Y-186385771D02*
X179720057Y-185385771D01*
X179720057Y-184885771D02*
X179648628Y-184957200D01*
X179720057Y-185028628D01*
X179791485Y-184957200D01*
X179720057Y-184885771D01*
X179720057Y-185028628D01*
X180648628Y-186385771D02*
X180505771Y-186314342D01*
X180434342Y-186171485D01*
X180434342Y-184885771D01*
X181791485Y-186314342D02*
X181648628Y-186385771D01*
X181362914Y-186385771D01*
X181220057Y-186314342D01*
X181148628Y-186171485D01*
X181148628Y-185600057D01*
X181220057Y-185457200D01*
X181362914Y-185385771D01*
X181648628Y-185385771D01*
X181791485Y-185457200D01*
X181862914Y-185600057D01*
X181862914Y-185742914D01*
X181148628Y-185885771D01*
X182505771Y-186242914D02*
X182577200Y-186314342D01*
X182505771Y-186385771D01*
X182434342Y-186314342D01*
X182505771Y-186242914D01*
X182505771Y-186385771D01*
X182505771Y-185457200D02*
X182577200Y-185528628D01*
X182505771Y-185600057D01*
X182434342Y-185528628D01*
X182505771Y-185457200D01*
X182505771Y-185600057D01*
X184291485Y-186314342D02*
X184505771Y-186385771D01*
X184862914Y-186385771D01*
X185005771Y-186314342D01*
X185077200Y-186242914D01*
X185148628Y-186100057D01*
X185148628Y-185957200D01*
X185077200Y-185814342D01*
X185005771Y-185742914D01*
X184862914Y-185671485D01*
X184577200Y-185600057D01*
X184434342Y-185528628D01*
X184362914Y-185457200D01*
X184291485Y-185314342D01*
X184291485Y-185171485D01*
X184362914Y-185028628D01*
X184434342Y-184957200D01*
X184577200Y-184885771D01*
X184934342Y-184885771D01*
X185148628Y-184957200D01*
X186077200Y-185671485D02*
X186077200Y-186385771D01*
X185577200Y-184885771D02*
X186077200Y-185671485D01*
X186577200Y-184885771D01*
X187005771Y-186314342D02*
X187220057Y-186385771D01*
X187577200Y-186385771D01*
X187720057Y-186314342D01*
X187791485Y-186242914D01*
X187862914Y-186100057D01*
X187862914Y-185957200D01*
X187791485Y-185814342D01*
X187720057Y-185742914D01*
X187577200Y-185671485D01*
X187291485Y-185600057D01*
X187148628Y-185528628D01*
X187077200Y-185457200D01*
X187005771Y-185314342D01*
X187005771Y-185171485D01*
X187077200Y-185028628D01*
X187148628Y-184957200D01*
X187291485Y-184885771D01*
X187648628Y-184885771D01*
X187862914Y-184957200D01*
X188148628Y-186528628D02*
X189291485Y-186528628D01*
X189577200Y-186314342D02*
X189791485Y-186385771D01*
X190148628Y-186385771D01*
X190291485Y-186314342D01*
X190362914Y-186242914D01*
X190434342Y-186100057D01*
X190434342Y-185957200D01*
X190362914Y-185814342D01*
X190291485Y-185742914D01*
X190148628Y-185671485D01*
X189862914Y-185600057D01*
X189720057Y-185528628D01*
X189648628Y-185457200D01*
X189577200Y-185314342D01*
X189577200Y-185171485D01*
X189648628Y-185028628D01*
X189720057Y-184957200D01*
X189862914Y-184885771D01*
X190220057Y-184885771D01*
X190434342Y-184957200D01*
X190862914Y-185385771D02*
X191434342Y-185385771D01*
X191077200Y-184885771D02*
X191077200Y-186171485D01*
X191148628Y-186314342D01*
X191291485Y-186385771D01*
X191434342Y-186385771D01*
X192505771Y-186314342D02*
X192362914Y-186385771D01*
X192077200Y-186385771D01*
X191934342Y-186314342D01*
X191862914Y-186171485D01*
X191862914Y-185600057D01*
X191934342Y-185457200D01*
X192077200Y-185385771D01*
X192362914Y-185385771D01*
X192505771Y-185457200D01*
X192577200Y-185600057D01*
X192577200Y-185742914D01*
X191862914Y-185885771D01*
X193220057Y-185385771D02*
X193220057Y-186885771D01*
X193220057Y-185457200D02*
X193362914Y-185385771D01*
X193648628Y-185385771D01*
X193791485Y-185457200D01*
X193862914Y-185528628D01*
X193934342Y-185671485D01*
X193934342Y-186100057D01*
X193862914Y-186242914D01*
X193791485Y-186314342D01*
X193648628Y-186385771D01*
X193362914Y-186385771D01*
X193220057Y-186314342D01*
X194505771Y-185957200D02*
X195220057Y-185957200D01*
X194362914Y-186385771D02*
X194862914Y-184885771D01*
X195362914Y-186385771D01*
X195648628Y-185385771D02*
X196220057Y-185385771D01*
X195862914Y-184885771D02*
X195862914Y-186171485D01*
X195934342Y-186314342D01*
X196077200Y-186385771D01*
X196220057Y-186385771D01*
X196505771Y-185385771D02*
X197077200Y-185385771D01*
X196720057Y-184885771D02*
X196720057Y-186171485D01*
X196791485Y-186314342D01*
X196934342Y-186385771D01*
X197077200Y-186385771D01*
X198148628Y-186314342D02*
X198005771Y-186385771D01*
X197720057Y-186385771D01*
X197577200Y-186314342D01*
X197505771Y-186171485D01*
X197505771Y-185600057D01*
X197577200Y-185457200D01*
X197720057Y-185385771D01*
X198005771Y-185385771D01*
X198148628Y-185457200D01*
X198220057Y-185600057D01*
X198220057Y-185742914D01*
X197505771Y-185885771D01*
X198862914Y-185385771D02*
X198862914Y-186385771D01*
X198862914Y-185528628D02*
X198934342Y-185457200D01*
X199077200Y-185385771D01*
X199291485Y-185385771D01*
X199434342Y-185457200D01*
X199505771Y-185600057D01*
X199505771Y-186385771D01*
X200220057Y-186242914D02*
X200291485Y-186314342D01*
X200220057Y-186385771D01*
X200148628Y-186314342D01*
X200220057Y-186242914D01*
X200220057Y-186385771D01*
X200934342Y-186385771D02*
X200934342Y-184885771D01*
X201077200Y-185814342D02*
X201505771Y-186385771D01*
X201505771Y-185385771D02*
X200934342Y-185957200D01*
X202148628Y-186385771D02*
X202148628Y-185385771D01*
X202148628Y-184885771D02*
X202077200Y-184957200D01*
X202148628Y-185028628D01*
X202220057Y-184957200D01*
X202148628Y-184885771D01*
X202148628Y-185028628D01*
X203505771Y-186314342D02*
X203362914Y-186385771D01*
X203077200Y-186385771D01*
X202934342Y-186314342D01*
X202862914Y-186242914D01*
X202791485Y-186100057D01*
X202791485Y-185671485D01*
X202862914Y-185528628D01*
X202934342Y-185457200D01*
X203077200Y-185385771D01*
X203362914Y-185385771D01*
X203505771Y-185457200D01*
X204791485Y-186385771D02*
X204791485Y-185600057D01*
X204720057Y-185457200D01*
X204577200Y-185385771D01*
X204291485Y-185385771D01*
X204148628Y-185457200D01*
X204791485Y-186314342D02*
X204648628Y-186385771D01*
X204291485Y-186385771D01*
X204148628Y-186314342D01*
X204077200Y-186171485D01*
X204077200Y-186028628D01*
X204148628Y-185885771D01*
X204291485Y-185814342D01*
X204648628Y-185814342D01*
X204791485Y-185742914D01*
X206148628Y-186385771D02*
X206148628Y-184885771D01*
X206148628Y-186314342D02*
X206005771Y-186385771D01*
X205720057Y-186385771D01*
X205577200Y-186314342D01*
X205505771Y-186242914D01*
X205434342Y-186100057D01*
X205434342Y-185671485D01*
X205505771Y-185528628D01*
X205577200Y-185457200D01*
X205720057Y-185385771D01*
X206005771Y-185385771D01*
X206148628Y-185457200D01*
X206505771Y-186528628D02*
X207648628Y-186528628D01*
X208005771Y-185385771D02*
X208005771Y-186885771D01*
X208005771Y-185457200D02*
X208148628Y-185385771D01*
X208434342Y-185385771D01*
X208577200Y-185457200D01*
X208648628Y-185528628D01*
X208720057Y-185671485D01*
X208720057Y-186100057D01*
X208648628Y-186242914D01*
X208577200Y-186314342D01*
X208434342Y-186385771D01*
X208148628Y-186385771D01*
X208005771Y-186314342D01*
X210005771Y-186314342D02*
X209862914Y-186385771D01*
X209577200Y-186385771D01*
X209434342Y-186314342D01*
X209362914Y-186242914D01*
X209291485Y-186100057D01*
X209291485Y-185671485D01*
X209362914Y-185528628D01*
X209434342Y-185457200D01*
X209577200Y-185385771D01*
X209862914Y-185385771D01*
X210005771Y-185457200D01*
X210648628Y-186385771D02*
X210648628Y-184885771D01*
X210648628Y-185457200D02*
X210791485Y-185385771D01*
X211077200Y-185385771D01*
X211220057Y-185457200D01*
X211291485Y-185528628D01*
X211362914Y-185671485D01*
X211362914Y-186100057D01*
X211291485Y-186242914D01*
X211220057Y-186314342D01*
X211077200Y-186385771D01*
X210791485Y-186385771D01*
X210648628Y-186314342D01*
D10*
D11*
X177002200Y-181507200D02*
X285002200Y-181507200D01*
D10*
D11*
X178362914Y-183614342D02*
X178577200Y-183685771D01*
X178934342Y-183685771D01*
X179077200Y-183614342D01*
X179148628Y-183542914D01*
X179220057Y-183400057D01*
X179220057Y-183257200D01*
X179148628Y-183114342D01*
X179077200Y-183042914D01*
X178934342Y-182971485D01*
X178648628Y-182900057D01*
X178505771Y-182828628D01*
X178434342Y-182757200D01*
X178362914Y-182614342D01*
X178362914Y-182471485D01*
X178434342Y-182328628D01*
X178505771Y-182257200D01*
X178648628Y-182185771D01*
X179005771Y-182185771D01*
X179220057Y-182257200D01*
X179862914Y-183685771D02*
X179862914Y-182185771D01*
X180505771Y-183685771D02*
X180505771Y-182900057D01*
X180434342Y-182757200D01*
X180291485Y-182685771D01*
X180077200Y-182685771D01*
X179934342Y-182757200D01*
X179862914Y-182828628D01*
X181791485Y-183614342D02*
X181648628Y-183685771D01*
X181362914Y-183685771D01*
X181220057Y-183614342D01*
X181148628Y-183471485D01*
X181148628Y-182900057D01*
X181220057Y-182757200D01*
X181362914Y-182685771D01*
X181648628Y-182685771D01*
X181791485Y-182757200D01*
X181862914Y-182900057D01*
X181862914Y-183042914D01*
X181148628Y-183185771D01*
X183077200Y-183614342D02*
X182934342Y-183685771D01*
X182648628Y-183685771D01*
X182505771Y-183614342D01*
X182434342Y-183471485D01*
X182434342Y-182900057D01*
X182505771Y-182757200D01*
X182648628Y-182685771D01*
X182934342Y-182685771D01*
X183077200Y-182757200D01*
X183148628Y-182900057D01*
X183148628Y-183042914D01*
X182434342Y-183185771D01*
X183577200Y-182685771D02*
X184148628Y-182685771D01*
X183791485Y-182185771D02*
X183791485Y-183471485D01*
X183862914Y-183614342D01*
X184005771Y-183685771D01*
X184148628Y-183685771D01*
X184648628Y-183542914D02*
X184720057Y-183614342D01*
X184648628Y-183685771D01*
X184577200Y-183614342D01*
X184648628Y-183542914D01*
X184648628Y-183685771D01*
X184648628Y-182757200D02*
X184720057Y-182828628D01*
X184648628Y-182900057D01*
X184577200Y-182828628D01*
X184648628Y-182757200D01*
X184648628Y-182900057D01*
D10*
D12*
X178554342Y-180685771D02*
X178554342Y-179185771D01*
X179125771Y-179185771D01*
X179268628Y-179257200D01*
X179340057Y-179328628D01*
X179411485Y-179471485D01*
X179411485Y-179685771D01*
X179340057Y-179828628D01*
X179268628Y-179900057D01*
X179125771Y-179971485D01*
X178554342Y-179971485D01*
X180054342Y-180685771D02*
X180054342Y-179185771D01*
X180697200Y-180685771D02*
X180697200Y-179900057D01*
X180625771Y-179757200D01*
X180482914Y-179685771D01*
X180268628Y-179685771D01*
X180125771Y-179757200D01*
X180054342Y-179828628D01*
X181411485Y-180685771D02*
X181411485Y-179685771D01*
X181411485Y-179185771D02*
X181340057Y-179257200D01*
X181411485Y-179328628D01*
X181482914Y-179257200D01*
X181411485Y-179185771D01*
X181411485Y-179328628D01*
X182340057Y-180685771D02*
X182197200Y-180614342D01*
X182125771Y-180471485D01*
X182125771Y-179185771D01*
X182911485Y-180685771D02*
X182911485Y-179685771D01*
X182911485Y-179185771D02*
X182840057Y-179257200D01*
X182911485Y-179328628D01*
X182982914Y-179257200D01*
X182911485Y-179185771D01*
X182911485Y-179328628D01*
X183625771Y-179685771D02*
X183625771Y-181185771D01*
X183625771Y-179757200D02*
X183768628Y-179685771D01*
X184054342Y-179685771D01*
X184197200Y-179757200D01*
X184268628Y-179828628D01*
X184340057Y-179971485D01*
X184340057Y-180400057D01*
X184268628Y-180542914D01*
X184197200Y-180614342D01*
X184054342Y-180685771D01*
X183768628Y-180685771D01*
X183625771Y-180614342D01*
X184982914Y-179685771D02*
X184982914Y-181185771D01*
X184982914Y-179757200D02*
X185125771Y-179685771D01*
X185411485Y-179685771D01*
X185554342Y-179757200D01*
X185625771Y-179828628D01*
X185697200Y-179971485D01*
X185697200Y-180400057D01*
X185625771Y-180542914D01*
X185554342Y-180614342D01*
X185411485Y-180685771D01*
X185125771Y-180685771D01*
X184982914Y-180614342D01*
X187411485Y-180614342D02*
X187625771Y-180685771D01*
X187982914Y-180685771D01*
X188125771Y-180614342D01*
X188197200Y-180542914D01*
X188268628Y-180400057D01*
X188268628Y-180257200D01*
X188197200Y-180114342D01*
X188125771Y-180042914D01*
X187982914Y-179971485D01*
X187697200Y-179900057D01*
X187554342Y-179828628D01*
X187482914Y-179757200D01*
X187411485Y-179614342D01*
X187411485Y-179471485D01*
X187482914Y-179328628D01*
X187554342Y-179257200D01*
X187697200Y-179185771D01*
X188054342Y-179185771D01*
X188268628Y-179257200D01*
X189554342Y-180614342D02*
X189411485Y-180685771D01*
X189125771Y-180685771D01*
X188982914Y-180614342D01*
X188911485Y-180542914D01*
X188840057Y-180400057D01*
X188840057Y-179971485D01*
X188911485Y-179828628D01*
X188982914Y-179757200D01*
X189125771Y-179685771D01*
X189411485Y-179685771D01*
X189554342Y-179757200D01*
X190197200Y-180685771D02*
X190197200Y-179185771D01*
X190840057Y-180685771D02*
X190840057Y-179900057D01*
X190768628Y-179757200D01*
X190625771Y-179685771D01*
X190411485Y-179685771D01*
X190268628Y-179757200D01*
X190197200Y-179828628D01*
X191554342Y-180685771D02*
X191554342Y-179685771D01*
X191554342Y-179185771D02*
X191482914Y-179257200D01*
X191554342Y-179328628D01*
X191625771Y-179257200D01*
X191554342Y-179185771D01*
X191554342Y-179328628D01*
X192482914Y-180685771D02*
X192340057Y-180614342D01*
X192268628Y-180471485D01*
X192268628Y-179185771D01*
X193054342Y-180685771D02*
X193054342Y-179185771D01*
X193197200Y-180114342D02*
X193625771Y-180685771D01*
X193625771Y-179685771D02*
X193054342Y-180257200D01*
D10*
D11*
X178434342Y-177685771D02*
X178434342Y-176185771D01*
X179077200Y-177685771D02*
X179077200Y-176900057D01*
X179005771Y-176757200D01*
X178862914Y-176685771D01*
X178648628Y-176685771D01*
X178505771Y-176757200D01*
X178434342Y-176828628D01*
X179577200Y-176685771D02*
X180148628Y-176685771D01*
X179791485Y-176185771D02*
X179791485Y-177471485D01*
X179862914Y-177614342D01*
X180005771Y-177685771D01*
X180148628Y-177685771D01*
X180434342Y-176685771D02*
X181005771Y-176685771D01*
X180648628Y-176185771D02*
X180648628Y-177471485D01*
X180720057Y-177614342D01*
X180862914Y-177685771D01*
X181005771Y-177685771D01*
X181505771Y-176685771D02*
X181505771Y-178185771D01*
X181505771Y-176757200D02*
X181648628Y-176685771D01*
X181934342Y-176685771D01*
X182077200Y-176757200D01*
X182148628Y-176828628D01*
X182220057Y-176971485D01*
X182220057Y-177400057D01*
X182148628Y-177542914D01*
X182077200Y-177614342D01*
X181934342Y-177685771D01*
X181648628Y-177685771D01*
X181505771Y-177614342D01*
X182791485Y-177614342D02*
X182934342Y-177685771D01*
X183220057Y-177685771D01*
X183362914Y-177614342D01*
X183434342Y-177471485D01*
X183434342Y-177400057D01*
X183362914Y-177257200D01*
X183220057Y-177185771D01*
X183005771Y-177185771D01*
X182862914Y-177114342D01*
X182791485Y-176971485D01*
X182791485Y-176900057D01*
X182862914Y-176757200D01*
X183005771Y-176685771D01*
X183220057Y-176685771D01*
X183362914Y-176757200D01*
X184077200Y-177542914D02*
X184148628Y-177614342D01*
X184077200Y-177685771D01*
X184005771Y-177614342D01*
X184077200Y-177542914D01*
X184077200Y-177685771D01*
X184077200Y-176757200D02*
X184148628Y-176828628D01*
X184077200Y-176900057D01*
X184005771Y-176828628D01*
X184077200Y-176757200D01*
X184077200Y-176900057D01*
X185862914Y-176114342D02*
X184577200Y-178042914D01*
X187434342Y-176114342D02*
X186148628Y-178042914D01*
X188577200Y-176685771D02*
X188577200Y-177900057D01*
X188505771Y-178042914D01*
X188434342Y-178114342D01*
X188291485Y-178185771D01*
X188077200Y-178185771D01*
X187934342Y-178114342D01*
X188577200Y-177614342D02*
X188434342Y-177685771D01*
X188148628Y-177685771D01*
X188005771Y-177614342D01*
X187934342Y-177542914D01*
X187862914Y-177400057D01*
X187862914Y-176971485D01*
X187934342Y-176828628D01*
X188005771Y-176757200D01*
X188148628Y-176685771D01*
X188434342Y-176685771D01*
X188577200Y-176757200D01*
X189291485Y-177685771D02*
X189291485Y-176685771D01*
X189291485Y-176185771D02*
X189220057Y-176257200D01*
X189291485Y-176328628D01*
X189362914Y-176257200D01*
X189291485Y-176185771D01*
X189291485Y-176328628D01*
X189791485Y-176685771D02*
X190362914Y-176685771D01*
X190005771Y-176185771D02*
X190005771Y-177471485D01*
X190077200Y-177614342D01*
X190220057Y-177685771D01*
X190362914Y-177685771D01*
X190862914Y-177685771D02*
X190862914Y-176185771D01*
X191505771Y-177685771D02*
X191505771Y-176900057D01*
X191434342Y-176757200D01*
X191291485Y-176685771D01*
X191077200Y-176685771D01*
X190934342Y-176757200D01*
X190862914Y-176828628D01*
X192862914Y-176685771D02*
X192862914Y-177685771D01*
X192220057Y-176685771D02*
X192220057Y-177471485D01*
X192291485Y-177614342D01*
X192434342Y-177685771D01*
X192648628Y-177685771D01*
X192791485Y-177614342D01*
X192862914Y-177542914D01*
X193577200Y-177685771D02*
X193577200Y-176185771D01*
X193577200Y-176757200D02*
X193720057Y-176685771D01*
X194005771Y-176685771D01*
X194148628Y-176757200D01*
X194220057Y-176828628D01*
X194291485Y-176971485D01*
X194291485Y-177400057D01*
X194220057Y-177542914D01*
X194148628Y-177614342D01*
X194005771Y-177685771D01*
X193720057Y-177685771D01*
X193577200Y-177614342D01*
X194934342Y-177542914D02*
X195005771Y-177614342D01*
X194934342Y-177685771D01*
X194862914Y-177614342D01*
X194934342Y-177542914D01*
X194934342Y-177685771D01*
X196291485Y-177614342D02*
X196148628Y-177685771D01*
X195862914Y-177685771D01*
X195720057Y-177614342D01*
X195648628Y-177542914D01*
X195577200Y-177400057D01*
X195577200Y-176971485D01*
X195648628Y-176828628D01*
X195720057Y-176757200D01*
X195862914Y-176685771D01*
X196148628Y-176685771D01*
X196291485Y-176757200D01*
X197148628Y-177685771D02*
X197005771Y-177614342D01*
X196934342Y-177542914D01*
X196862914Y-177400057D01*
X196862914Y-176971485D01*
X196934342Y-176828628D01*
X197005771Y-176757200D01*
X197148628Y-176685771D01*
X197362914Y-176685771D01*
X197505771Y-176757200D01*
X197577200Y-176828628D01*
X197648628Y-176971485D01*
X197648628Y-177400057D01*
X197577200Y-177542914D01*
X197505771Y-177614342D01*
X197362914Y-177685771D01*
X197148628Y-177685771D01*
X198291485Y-177685771D02*
X198291485Y-176685771D01*
X198291485Y-176828628D02*
X198362914Y-176757200D01*
X198505771Y-176685771D01*
X198720057Y-176685771D01*
X198862914Y-176757200D01*
X198934342Y-176900057D01*
X198934342Y-177685771D01*
X198934342Y-176900057D02*
X199005771Y-176757200D01*
X199148628Y-176685771D01*
X199362914Y-176685771D01*
X199505771Y-176757200D01*
X199577200Y-176900057D01*
X199577200Y-177685771D01*
X201362914Y-176114342D02*
X200077200Y-178042914D01*
X201648628Y-176185771D02*
X202505771Y-176185771D01*
X202077200Y-177685771D02*
X202077200Y-176185771D01*
X203005771Y-177685771D02*
X203005771Y-176185771D01*
X203648628Y-177685771D02*
X203648628Y-176900057D01*
X203577200Y-176757200D01*
X203434342Y-176685771D01*
X203220057Y-176685771D01*
X203077200Y-176757200D01*
X203005771Y-176828628D01*
X204934342Y-177614342D02*
X204791485Y-177685771D01*
X204505771Y-177685771D01*
X204362914Y-177614342D01*
X204291485Y-177471485D01*
X204291485Y-176900057D01*
X204362914Y-176757200D01*
X204505771Y-176685771D01*
X204791485Y-176685771D01*
X204934342Y-176757200D01*
X205005771Y-176900057D01*
X205005771Y-177042914D01*
X204291485Y-177185771D01*
X205577200Y-177614342D02*
X205791485Y-177685771D01*
X206148628Y-177685771D01*
X206291485Y-177614342D01*
X206362914Y-177542914D01*
X206434342Y-177400057D01*
X206434342Y-177257200D01*
X206362914Y-177114342D01*
X206291485Y-177042914D01*
X206148628Y-176971485D01*
X205862914Y-176900057D01*
X205720057Y-176828628D01*
X205648628Y-176757200D01*
X205577200Y-176614342D01*
X205577200Y-176471485D01*
X205648628Y-176328628D01*
X205720057Y-176257200D01*
X205862914Y-176185771D01*
X206220057Y-176185771D01*
X206434342Y-176257200D01*
X207720057Y-177614342D02*
X207577200Y-177685771D01*
X207291485Y-177685771D01*
X207148628Y-177614342D01*
X207077200Y-177542914D01*
X207005771Y-177400057D01*
X207005771Y-176971485D01*
X207077200Y-176828628D01*
X207148628Y-176757200D01*
X207291485Y-176685771D01*
X207577200Y-176685771D01*
X207720057Y-176757200D01*
X208362914Y-177685771D02*
X208362914Y-176185771D01*
X209005771Y-177685771D02*
X209005771Y-176900057D01*
X208934342Y-176757200D01*
X208791485Y-176685771D01*
X208577200Y-176685771D01*
X208434342Y-176757200D01*
X208362914Y-176828628D01*
X209720057Y-177685771D02*
X209720057Y-176685771D01*
X209720057Y-176185771D02*
X209648628Y-176257200D01*
X209720057Y-176328628D01*
X209791485Y-176257200D01*
X209720057Y-176185771D01*
X209720057Y-176328628D01*
X210648628Y-177685771D02*
X210505771Y-177614342D01*
X210434342Y-177471485D01*
X210434342Y-176185771D01*
X211220057Y-177685771D02*
X211220057Y-176185771D01*
X211362914Y-177114342D02*
X211791485Y-177685771D01*
X211791485Y-176685771D02*
X211220057Y-177257200D01*
X213505771Y-176114342D02*
X212220057Y-178042914D01*
X213934342Y-177614342D02*
X214148628Y-177685771D01*
X214505771Y-177685771D01*
X214648628Y-177614342D01*
X214720057Y-177542914D01*
X214791485Y-177400057D01*
X214791485Y-177257200D01*
X214720057Y-177114342D01*
X214648628Y-177042914D01*
X214505771Y-176971485D01*
X214220057Y-176900057D01*
X214077200Y-176828628D01*
X214005771Y-176757200D01*
X213934342Y-176614342D01*
X213934342Y-176471485D01*
X214005771Y-176328628D01*
X214077200Y-176257200D01*
X214220057Y-176185771D01*
X214577200Y-176185771D01*
X214791485Y-176257200D01*
X215720057Y-176971485D02*
X215720057Y-177685771D01*
X215220057Y-176185771D02*
X215720057Y-176971485D01*
X216220057Y-176185771D01*
X216648628Y-177614342D02*
X216862914Y-177685771D01*
X217220057Y-177685771D01*
X217362914Y-177614342D01*
X217434342Y-177542914D01*
X217505771Y-177400057D01*
X217505771Y-177257200D01*
X217434342Y-177114342D01*
X217362914Y-177042914D01*
X217220057Y-176971485D01*
X216934342Y-176900057D01*
X216791485Y-176828628D01*
X216720057Y-176757200D01*
X216648628Y-176614342D01*
X216648628Y-176471485D01*
X216720057Y-176328628D01*
X216791485Y-176257200D01*
X216934342Y-176185771D01*
X217291485Y-176185771D01*
X217505771Y-176257200D01*
X217791485Y-177828628D02*
X218934342Y-177828628D01*
X219220057Y-177614342D02*
X219434342Y-177685771D01*
X219791485Y-177685771D01*
X219934342Y-177614342D01*
X220005771Y-177542914D01*
X220077200Y-177400057D01*
X220077200Y-177257200D01*
X220005771Y-177114342D01*
X219934342Y-177042914D01*
X219791485Y-176971485D01*
X219505771Y-176900057D01*
X219362914Y-176828628D01*
X219291485Y-176757200D01*
X219220057Y-176614342D01*
X219220057Y-176471485D01*
X219291485Y-176328628D01*
X219362914Y-176257200D01*
X219505771Y-176185771D01*
X219862914Y-176185771D01*
X220077200Y-176257200D01*
X220505771Y-176685771D02*
X221077200Y-176685771D01*
X220720057Y-176185771D02*
X220720057Y-177471485D01*
X220791485Y-177614342D01*
X220934342Y-177685771D01*
X221077200Y-177685771D01*
X222148628Y-177614342D02*
X222005771Y-177685771D01*
X221720057Y-177685771D01*
X221577200Y-177614342D01*
X221505771Y-177471485D01*
X221505771Y-176900057D01*
X221577200Y-176757200D01*
X221720057Y-176685771D01*
X222005771Y-176685771D01*
X222148628Y-176757200D01*
X222220057Y-176900057D01*
X222220057Y-177042914D01*
X221505771Y-177185771D01*
X222862914Y-176685771D02*
X222862914Y-178185771D01*
X222862914Y-176757200D02*
X223005771Y-176685771D01*
X223291485Y-176685771D01*
X223434342Y-176757200D01*
X223505771Y-176828628D01*
X223577200Y-176971485D01*
X223577200Y-177400057D01*
X223505771Y-177542914D01*
X223434342Y-177614342D01*
X223291485Y-177685771D01*
X223005771Y-177685771D01*
X222862914Y-177614342D01*
X224148628Y-177257200D02*
X224862914Y-177257200D01*
X224005771Y-177685771D02*
X224505771Y-176185771D01*
X225005771Y-177685771D01*
X225291485Y-176685771D02*
X225862914Y-176685771D01*
X225505771Y-176185771D02*
X225505771Y-177471485D01*
X225577200Y-177614342D01*
X225720057Y-177685771D01*
X225862914Y-177685771D01*
X226148628Y-176685771D02*
X226720057Y-176685771D01*
X226362914Y-176185771D02*
X226362914Y-177471485D01*
X226434342Y-177614342D01*
X226577200Y-177685771D01*
X226720057Y-177685771D01*
X227791485Y-177614342D02*
X227648628Y-177685771D01*
X227362914Y-177685771D01*
X227220057Y-177614342D01*
X227148628Y-177471485D01*
X227148628Y-176900057D01*
X227220057Y-176757200D01*
X227362914Y-176685771D01*
X227648628Y-176685771D01*
X227791485Y-176757200D01*
X227862914Y-176900057D01*
X227862914Y-177042914D01*
X227148628Y-177185771D01*
X228505771Y-176685771D02*
X228505771Y-177685771D01*
X228505771Y-176828628D02*
X228577200Y-176757200D01*
X228720057Y-176685771D01*
X228934342Y-176685771D01*
X229077200Y-176757200D01*
X229148628Y-176900057D01*
X229148628Y-177685771D01*
D10*
D11*
X178862914Y-169185771D02*
X178505771Y-169185771D01*
X178505771Y-167042914D01*
X178862914Y-167042914D01*
X179434342Y-168685771D02*
X179434342Y-167185771D01*
X180291485Y-168685771D01*
X180291485Y-167185771D01*
X181220057Y-168685771D02*
X181077200Y-168614342D01*
X181005771Y-168542914D01*
X180934342Y-168400057D01*
X180934342Y-167971485D01*
X181005771Y-167828628D01*
X181077200Y-167757200D01*
X181220057Y-167685771D01*
X181434342Y-167685771D01*
X181577200Y-167757200D01*
X181648628Y-167828628D01*
X181720057Y-167971485D01*
X181720057Y-168400057D01*
X181648628Y-168542914D01*
X181577200Y-168614342D01*
X181434342Y-168685771D01*
X181220057Y-168685771D01*
X183434342Y-168257200D02*
X184148628Y-168257200D01*
X183291485Y-168685771D02*
X183791485Y-167185771D01*
X184291485Y-168685771D01*
X184720057Y-168614342D02*
X184862914Y-168685771D01*
X185148628Y-168685771D01*
X185291485Y-168614342D01*
X185362914Y-168471485D01*
X185362914Y-168400057D01*
X185291485Y-168257200D01*
X185148628Y-168185771D01*
X184934342Y-168185771D01*
X184791485Y-168114342D01*
X184720057Y-167971485D01*
X184720057Y-167900057D01*
X184791485Y-167757200D01*
X184934342Y-167685771D01*
X185148628Y-167685771D01*
X185291485Y-167757200D01*
X185934342Y-168614342D02*
X186077200Y-168685771D01*
X186362914Y-168685771D01*
X186505771Y-168614342D01*
X186577200Y-168471485D01*
X186577200Y-168400057D01*
X186505771Y-168257200D01*
X186362914Y-168185771D01*
X186148628Y-168185771D01*
X186005771Y-168114342D01*
X185934342Y-167971485D01*
X185934342Y-167900057D01*
X186005771Y-167757200D01*
X186148628Y-167685771D01*
X186362914Y-167685771D01*
X186505771Y-167757200D01*
X187434342Y-168685771D02*
X187291485Y-168614342D01*
X187220057Y-168542914D01*
X187148628Y-168400057D01*
X187148628Y-167971485D01*
X187220057Y-167828628D01*
X187291485Y-167757200D01*
X187434342Y-167685771D01*
X187648628Y-167685771D01*
X187791485Y-167757200D01*
X187862914Y-167828628D01*
X187934342Y-167971485D01*
X187934342Y-168400057D01*
X187862914Y-168542914D01*
X187791485Y-168614342D01*
X187648628Y-168685771D01*
X187434342Y-168685771D01*
X189220057Y-168614342D02*
X189077200Y-168685771D01*
X188791485Y-168685771D01*
X188648628Y-168614342D01*
X188577200Y-168542914D01*
X188505771Y-168400057D01*
X188505771Y-167971485D01*
X188577200Y-167828628D01*
X188648628Y-167757200D01*
X188791485Y-167685771D01*
X189077200Y-167685771D01*
X189220057Y-167757200D01*
X189862914Y-168685771D02*
X189862914Y-167685771D01*
X189862914Y-167185771D02*
X189791485Y-167257200D01*
X189862914Y-167328628D01*
X189934342Y-167257200D01*
X189862914Y-167185771D01*
X189862914Y-167328628D01*
X191220057Y-168685771D02*
X191220057Y-167900057D01*
X191148628Y-167757200D01*
X191005771Y-167685771D01*
X190720057Y-167685771D01*
X190577200Y-167757200D01*
X191220057Y-168614342D02*
X191077200Y-168685771D01*
X190720057Y-168685771D01*
X190577200Y-168614342D01*
X190505771Y-168471485D01*
X190505771Y-168328628D01*
X190577200Y-168185771D01*
X190720057Y-168114342D01*
X191077200Y-168114342D01*
X191220057Y-168042914D01*
X191720057Y-167685771D02*
X192291485Y-167685771D01*
X191934342Y-167185771D02*
X191934342Y-168471485D01*
X192005771Y-168614342D01*
X192148628Y-168685771D01*
X192291485Y-168685771D01*
X192791485Y-168685771D02*
X192791485Y-167685771D01*
X192791485Y-167185771D02*
X192720057Y-167257200D01*
X192791485Y-167328628D01*
X192862914Y-167257200D01*
X192791485Y-167185771D01*
X192791485Y-167328628D01*
X193720057Y-168685771D02*
X193577200Y-168614342D01*
X193505771Y-168542914D01*
X193434342Y-168400057D01*
X193434342Y-167971485D01*
X193505771Y-167828628D01*
X193577200Y-167757200D01*
X193720057Y-167685771D01*
X193934342Y-167685771D01*
X194077200Y-167757200D01*
X194148628Y-167828628D01*
X194220057Y-167971485D01*
X194220057Y-168400057D01*
X194148628Y-168542914D01*
X194077200Y-168614342D01*
X193934342Y-168685771D01*
X193720057Y-168685771D01*
X194862914Y-167685771D02*
X194862914Y-168685771D01*
X194862914Y-167828628D02*
X194934342Y-167757200D01*
X195077200Y-167685771D01*
X195291485Y-167685771D01*
X195434342Y-167757200D01*
X195505771Y-167900057D01*
X195505771Y-168685771D01*
X197220057Y-167685771D02*
X197505771Y-168685771D01*
X197791485Y-167971485D01*
X198077200Y-168685771D01*
X198362914Y-167685771D01*
X198934342Y-168685771D02*
X198934342Y-167685771D01*
X198934342Y-167185771D02*
X198862914Y-167257200D01*
X198934342Y-167328628D01*
X199005771Y-167257200D01*
X198934342Y-167185771D01*
X198934342Y-167328628D01*
X199434342Y-167685771D02*
X200005771Y-167685771D01*
X199648628Y-167185771D02*
X199648628Y-168471485D01*
X199720057Y-168614342D01*
X199862914Y-168685771D01*
X200005771Y-168685771D01*
X200505771Y-168685771D02*
X200505771Y-167185771D01*
X201148628Y-168685771D02*
X201148628Y-167900057D01*
X201077200Y-167757200D01*
X200934342Y-167685771D01*
X200720057Y-167685771D01*
X200577200Y-167757200D01*
X200505771Y-167828628D01*
X202934342Y-168614342D02*
X203148628Y-168685771D01*
X203505771Y-168685771D01*
X203648628Y-168614342D01*
X203720057Y-168542914D01*
X203791485Y-168400057D01*
X203791485Y-168257200D01*
X203720057Y-168114342D01*
X203648628Y-168042914D01*
X203505771Y-167971485D01*
X203220057Y-167900057D01*
X203077200Y-167828628D01*
X203005771Y-167757200D01*
X202934342Y-167614342D01*
X202934342Y-167471485D01*
X203005771Y-167328628D01*
X203077200Y-167257200D01*
X203220057Y-167185771D01*
X203577200Y-167185771D01*
X203791485Y-167257200D01*
X205077200Y-168614342D02*
X204934342Y-168685771D01*
X204648628Y-168685771D01*
X204505771Y-168614342D01*
X204434342Y-168542914D01*
X204362914Y-168400057D01*
X204362914Y-167971485D01*
X204434342Y-167828628D01*
X204505771Y-167757200D01*
X204648628Y-167685771D01*
X204934342Y-167685771D01*
X205077200Y-167757200D01*
X205720057Y-168685771D02*
X205720057Y-167185771D01*
X206362914Y-168685771D02*
X206362914Y-167900057D01*
X206291485Y-167757200D01*
X206148628Y-167685771D01*
X205934342Y-167685771D01*
X205791485Y-167757200D01*
X205720057Y-167828628D01*
X207077200Y-168685771D02*
X207077200Y-167685771D01*
X207077200Y-167185771D02*
X207005771Y-167257200D01*
X207077200Y-167328628D01*
X207148628Y-167257200D01*
X207077200Y-167185771D01*
X207077200Y-167328628D01*
X207791485Y-168685771D02*
X207791485Y-167685771D01*
X207791485Y-167185771D02*
X207720057Y-167257200D01*
X207791485Y-167328628D01*
X207862914Y-167257200D01*
X207791485Y-167185771D01*
X207791485Y-167328628D01*
X208291485Y-167685771D02*
X208862914Y-167685771D01*
X208505771Y-167185771D02*
X208505771Y-168471485D01*
X208577200Y-168614342D01*
X208720057Y-168685771D01*
X208862914Y-168685771D01*
X210434342Y-168257200D02*
X211148628Y-168257200D01*
X210291485Y-168685771D02*
X210791485Y-167185771D01*
X211291485Y-168685771D01*
X212434342Y-167685771D02*
X212434342Y-168685771D01*
X211791485Y-167685771D02*
X211791485Y-168471485D01*
X211862914Y-168614342D01*
X212005771Y-168685771D01*
X212220057Y-168685771D01*
X212362914Y-168614342D01*
X212434342Y-168542914D01*
X213791485Y-168685771D02*
X213791485Y-167185771D01*
X213791485Y-168614342D02*
X213648628Y-168685771D01*
X213362914Y-168685771D01*
X213220057Y-168614342D01*
X213148628Y-168542914D01*
X213077200Y-168400057D01*
X213077200Y-167971485D01*
X213148628Y-167828628D01*
X213220057Y-167757200D01*
X213362914Y-167685771D01*
X213648628Y-167685771D01*
X213791485Y-167757200D01*
X214505771Y-168685771D02*
X214505771Y-167685771D01*
X214505771Y-167185771D02*
X214434342Y-167257200D01*
X214505771Y-167328628D01*
X214577200Y-167257200D01*
X214505771Y-167185771D01*
X214505771Y-167328628D01*
X215434342Y-168685771D02*
X215291485Y-168614342D01*
X215220057Y-168542914D01*
X215148628Y-168400057D01*
X215148628Y-167971485D01*
X215220057Y-167828628D01*
X215291485Y-167757200D01*
X215434342Y-167685771D01*
X215648628Y-167685771D01*
X215791485Y-167757200D01*
X215862914Y-167828628D01*
X215934342Y-167971485D01*
X215934342Y-168400057D01*
X215862914Y-168542914D01*
X215791485Y-168614342D01*
X215648628Y-168685771D01*
X215434342Y-168685771D01*
X216434342Y-169185771D02*
X216791485Y-169185771D01*
X216791485Y-167042914D01*
X216434342Y-167042914D01*
D10*
D11*
X197002200Y-191507200D02*
X197002200Y-194507200D01*
D10*
D11*
X261002200Y-191507200D02*
X261002200Y-198007200D01*
D14*
X200000000Y-147500000D02*
X200000000Y-63500000D01*
X200000000Y-63500000D02*
X78000000Y-63500000D01*
X78000000Y-63500000D02*
X78000000Y-147500000D01*
X78000000Y-147500000D02*
X200000000Y-147500000D01*
D15*
X143510000Y-82550000D03*
X140970000Y-82550000D03*
X143510000Y-80010000D03*
X140970000Y-80010000D03*
X143510000Y-77470000D03*
D16*
X140970000Y-77470000D03*
D15*
X134620000Y-92075000D03*
D16*
X134620000Y-86995000D03*
D15*
X134620000Y-89535000D03*
X125730000Y-92075000D03*
D16*
X125730000Y-86995000D03*
D15*
X125730000Y-89535000D03*
D17*
X175500000Y-129500000D03*
D18*
X104775000Y-90105000D03*
X88900000Y-90105000D03*
D19*
X87000000Y-72500000D03*
X101000000Y-72500000D03*
D20*
X91013210Y-67724790D03*
X105013210Y-67724790D03*
X187513210Y-67724790D03*
X173513210Y-67724790D03*
D19*
X183500000Y-72500000D03*
X169500000Y-72500000D03*
X138000000Y-72500000D03*
X152000000Y-72500000D03*
D20*
X142013210Y-67724790D03*
X156013210Y-67724790D03*
D21*
X118110000Y-78105000D03*
G04 #@! TA.AperFunction,ComponentPad*
D10*
G36*
X119183513Y-70608611D02*
G01*
X119256318Y-70619411D01*
X119327714Y-70637295D01*
X119397013Y-70662090D01*
X119463548Y-70693559D01*
X119526678Y-70731398D01*
X119585795Y-70775242D01*
X119640330Y-70824670D01*
X119689758Y-70879205D01*
X119733602Y-70938322D01*
X119771441Y-71001452D01*
X119802910Y-71067987D01*
X119827705Y-71137286D01*
X119845589Y-71208682D01*
X119856389Y-71281487D01*
X119860000Y-71355000D01*
X119860000Y-72855000D01*
X119856389Y-72928513D01*
X119845589Y-73001318D01*
X119827705Y-73072714D01*
X119802910Y-73142013D01*
X119771441Y-73208548D01*
X119733602Y-73271678D01*
X119689758Y-73330795D01*
X119640330Y-73385330D01*
X119585795Y-73434758D01*
X119526678Y-73478602D01*
X119463548Y-73516441D01*
X119397013Y-73547910D01*
X119327714Y-73572705D01*
X119256318Y-73590589D01*
X119183513Y-73601389D01*
X119110000Y-73605000D01*
X117110000Y-73605000D01*
X117036487Y-73601389D01*
X116963682Y-73590589D01*
X116892286Y-73572705D01*
X116822987Y-73547910D01*
X116756452Y-73516441D01*
X116693322Y-73478602D01*
X116634205Y-73434758D01*
X116579670Y-73385330D01*
X116530242Y-73330795D01*
X116486398Y-73271678D01*
X116448559Y-73208548D01*
X116417090Y-73142013D01*
X116392295Y-73072714D01*
X116374411Y-73001318D01*
X116363611Y-72928513D01*
X116360000Y-72855000D01*
X116360000Y-71355000D01*
X116363611Y-71281487D01*
X116374411Y-71208682D01*
X116392295Y-71137286D01*
X116417090Y-71067987D01*
X116448559Y-71001452D01*
X116486398Y-70938322D01*
X116530242Y-70879205D01*
X116579670Y-70824670D01*
X116634205Y-70775242D01*
X116693322Y-70731398D01*
X116756452Y-70693559D01*
X116822987Y-70662090D01*
X116892286Y-70637295D01*
X116963682Y-70619411D01*
X117036487Y-70608611D01*
X117110000Y-70605000D01*
X119110000Y-70605000D01*
X119183513Y-70608611D01*
G37*
G04 #@! TD.AperFunction*
G04 #@! TA.AperFunction,ComponentPad*
G36*
X114370765Y-73359213D02*
G01*
X114455704Y-73371813D01*
X114538999Y-73392677D01*
X114619848Y-73421605D01*
X114697472Y-73458319D01*
X114771124Y-73502464D01*
X114840094Y-73553616D01*
X114903718Y-73611282D01*
X114961384Y-73674906D01*
X115012536Y-73743876D01*
X115056681Y-73817528D01*
X115093395Y-73895152D01*
X115122323Y-73976001D01*
X115143187Y-74059296D01*
X115155787Y-74144235D01*
X115160000Y-74230000D01*
X115160000Y-75980000D01*
X115155787Y-76065765D01*
X115143187Y-76150704D01*
X115122323Y-76233999D01*
X115093395Y-76314848D01*
X115056681Y-76392472D01*
X115012536Y-76466124D01*
X114961384Y-76535094D01*
X114903718Y-76598718D01*
X114840094Y-76656384D01*
X114771124Y-76707536D01*
X114697472Y-76751681D01*
X114619848Y-76788395D01*
X114538999Y-76817323D01*
X114455704Y-76838187D01*
X114370765Y-76850787D01*
X114285000Y-76855000D01*
X112535000Y-76855000D01*
X112449235Y-76850787D01*
X112364296Y-76838187D01*
X112281001Y-76817323D01*
X112200152Y-76788395D01*
X112122528Y-76751681D01*
X112048876Y-76707536D01*
X111979906Y-76656384D01*
X111916282Y-76598718D01*
X111858616Y-76535094D01*
X111807464Y-76466124D01*
X111763319Y-76392472D01*
X111726605Y-76314848D01*
X111697677Y-76233999D01*
X111676813Y-76150704D01*
X111664213Y-76065765D01*
X111660000Y-75980000D01*
X111660000Y-74230000D01*
X111664213Y-74144235D01*
X111676813Y-74059296D01*
X111697677Y-73976001D01*
X111726605Y-73895152D01*
X111763319Y-73817528D01*
X111807464Y-73743876D01*
X111858616Y-73674906D01*
X111916282Y-73611282D01*
X111979906Y-73553616D01*
X112048876Y-73502464D01*
X112122528Y-73458319D01*
X112200152Y-73421605D01*
X112281001Y-73392677D01*
X112364296Y-73371813D01*
X112449235Y-73359213D01*
X112535000Y-73355000D01*
X114285000Y-73355000D01*
X114370765Y-73359213D01*
G37*
G04 #@! TD.AperFunction*
D16*
X127000000Y-76200000D03*
D15*
X127000000Y-73660000D03*
X129540000Y-76200000D03*
X129540000Y-73660000D03*
D16*
X196215000Y-140335000D03*
D15*
X193675000Y-140335000D03*
X196215000Y-137795000D03*
X193675000Y-137795000D03*
X196215000Y-135255000D03*
X193675000Y-135255000D03*
X82550000Y-81280000D03*
X80010000Y-81280000D03*
X82550000Y-78740000D03*
X80010000Y-78740000D03*
X82550000Y-76200000D03*
D16*
X80010000Y-76200000D03*
D22*
X92710000Y-77470000D03*
X90170000Y-77470000D03*
X87630000Y-77470000D03*
X97790000Y-77470000D03*
X100330000Y-77470000D03*
X102870000Y-77470000D03*
D23*
X162500000Y-137500000D03*
X160000000Y-137500000D03*
X157500000Y-137500000D03*
D24*
X165000000Y-134200000D03*
X155000000Y-134200000D03*
D18*
X183000000Y-119500000D03*
X183000000Y-123500000D03*
X183000000Y-127500000D03*
X189000000Y-127500000D03*
X189000000Y-123500000D03*
X189000000Y-119500000D03*
D16*
X109220000Y-75565000D03*
D15*
X109220000Y-78105000D03*
D25*
X102235000Y-95885000D03*
D26*
X104775000Y-95885000D03*
X107315000Y-95885000D03*
X91440000Y-95885000D03*
X88900000Y-95885000D03*
D25*
X86360000Y-95885000D03*
D27*
X109855000Y-97155000D03*
X121920000Y-92710000D03*
X154305000Y-109220000D03*
X153035000Y-109220000D03*
X151765000Y-109220000D03*
X109855000Y-95885000D03*
X110807500Y-94932500D03*
X116840000Y-94615000D03*
X118110000Y-94615000D03*
X116840000Y-93345000D03*
X121920000Y-91440000D03*
X121920000Y-90170000D03*
X169545000Y-116840000D03*
X168961764Y-113437510D03*
X195580000Y-123825000D03*
X185737500Y-123825000D03*
X176212500Y-116205000D03*
X175792835Y-134805456D03*
X154940000Y-129540000D03*
X158750000Y-128270000D03*
X150812500Y-128270000D03*
X150812500Y-115252500D03*
X154622500Y-113030000D03*
X189547500Y-136525000D03*
X155892500Y-141605000D03*
X155892500Y-143510000D03*
X162242500Y-128905000D03*
X163512500Y-127000000D03*
X156845000Y-116522500D03*
X162242500Y-112712500D03*
X164604340Y-113039408D03*
X130810000Y-92710000D03*
X136525000Y-98425000D03*
X137477500Y-100330000D03*
X178435000Y-136207500D03*
X164782500Y-137795000D03*
X166052500Y-123507500D03*
X166052500Y-118745000D03*
X160020000Y-112395000D03*
X151447500Y-122237500D03*
X151130000Y-141922500D03*
X133985000Y-121920000D03*
X160655000Y-80010000D03*
X160655000Y-91440000D03*
X177165000Y-91440000D03*
X177800000Y-76200000D03*
X192405000Y-92075000D03*
X192405000Y-77470000D03*
X112395000Y-99060000D03*
X112395000Y-97790000D03*
X112395000Y-99060000D03*
X180340000Y-90170000D03*
X164465000Y-110490000D03*
X180340000Y-110490000D03*
X190500000Y-110490000D03*
X155575000Y-110490000D03*
X156845000Y-110490000D03*
X158115000Y-110490000D03*
X132715000Y-114300000D03*
X113347500Y-96837500D03*
X189230000Y-130492500D03*
X182562500Y-138112500D03*
X170497500Y-140017500D03*
X193357500Y-125730000D03*
X97155000Y-138430000D03*
X95885000Y-130810000D03*
X98425000Y-121920000D03*
X97155000Y-114300000D03*
X114935000Y-114300000D03*
X116205000Y-121920000D03*
X113665000Y-130810000D03*
X114935000Y-138430000D03*
X131445000Y-130810000D03*
X132715000Y-138430000D03*
X150495000Y-138430000D03*
X146685000Y-132715000D03*
X83185000Y-120015000D03*
X97155000Y-100965000D03*
X88900000Y-100965000D03*
X161995000Y-122485000D03*
X157840592Y-122327510D03*
X162560000Y-78105000D03*
X162560000Y-87630000D03*
X159385000Y-90170000D03*
X158750000Y-106770010D03*
X179070000Y-78105000D03*
X179070000Y-87630000D03*
X175260000Y-106680000D03*
X195580000Y-78105000D03*
X195580000Y-87630000D03*
X191770000Y-106680000D03*
X193675000Y-90170000D03*
X179070000Y-93980000D03*
X179070000Y-103505000D03*
X162560000Y-93980000D03*
X162560000Y-103505000D03*
X195580000Y-93980000D03*
X195580000Y-103505000D03*
X96520000Y-106045000D03*
X95250000Y-140335000D03*
X110490000Y-106045000D03*
X113160000Y-139830000D03*
X123190000Y-106045000D03*
X130810000Y-140335000D03*
X146685000Y-106045000D03*
X147971230Y-139604979D03*
X136525000Y-106045000D03*
X135255000Y-112395000D03*
X113665000Y-106045000D03*
X116840000Y-112395000D03*
X98930000Y-112900000D03*
X98555009Y-105972886D03*
X79375000Y-120015000D03*
X83185000Y-109855000D03*
X83185000Y-105410000D03*
X81915000Y-85725000D03*
X145415000Y-136525000D03*
X147320000Y-116205000D03*
X188595000Y-85090000D03*
X190500000Y-83820000D03*
X198120000Y-90170000D03*
X83185000Y-144145000D03*
X92075000Y-132080000D03*
X92075000Y-134620000D03*
X109855000Y-132080000D03*
X109855000Y-134620000D03*
X127635000Y-132080000D03*
X127635000Y-134620000D03*
X137795000Y-120650000D03*
X137795000Y-118110000D03*
X120015000Y-120650000D03*
X120015000Y-118110000D03*
X102235000Y-120650000D03*
X102235000Y-118110000D03*
X188595000Y-80645000D03*
X190500000Y-81915000D03*
X199375000Y-90170000D03*
X81280000Y-134620000D03*
X174625000Y-85725000D03*
X174625000Y-91440000D03*
X177165000Y-74930000D03*
X173355000Y-103505000D03*
X139700000Y-85725000D03*
X140335000Y-93345000D03*
X169545000Y-99695000D03*
X169545000Y-101600000D03*
X169545000Y-95885000D03*
X169545000Y-97790000D03*
X141605000Y-92710000D03*
X142240000Y-85725000D03*
X169545000Y-85090000D03*
X164845245Y-65812510D03*
X146050000Y-66683522D03*
X149225000Y-66675000D03*
X156210000Y-71755000D03*
X137795000Y-90805000D03*
X129540000Y-85725000D03*
X136894990Y-88898596D03*
X160972500Y-112712500D03*
X164101509Y-112175010D03*
X151035021Y-125730000D03*
X191452500Y-137160000D03*
X186055000Y-80645000D03*
X186055000Y-85090000D03*
X186055000Y-83185000D03*
X172085000Y-101600000D03*
X173990000Y-100330000D03*
X172085000Y-95885000D03*
X173990000Y-97155000D03*
X188595000Y-100965000D03*
X191135000Y-99695000D03*
X188595000Y-96520000D03*
X191135000Y-97790000D03*
X142875000Y-137160000D03*
X142875000Y-132715000D03*
X145240302Y-120650000D03*
X145415000Y-117475000D03*
X89535000Y-83185000D03*
X93345000Y-83185000D03*
X161290000Y-106045000D03*
X163195000Y-106045000D03*
X163390160Y-124337660D03*
X175260000Y-113665000D03*
X164790028Y-123597510D03*
X92075000Y-102870000D03*
X162877500Y-120967500D03*
X104775000Y-104140000D03*
X158750000Y-120650000D03*
X121970002Y-106045000D03*
X158436783Y-119199988D03*
X141287500Y-106045000D03*
X150945010Y-106812510D03*
X137160000Y-102235000D03*
X133032500Y-105410000D03*
X114935000Y-106045000D03*
X162539990Y-118745000D03*
X99745002Y-104775000D03*
X163195000Y-119697500D03*
X88900000Y-106045000D03*
X165417500Y-127317500D03*
X166922500Y-121685000D03*
X170635023Y-128097542D03*
X169862500Y-123190000D03*
X169910013Y-127000000D03*
D28*
X111125000Y-94615000D02*
X116840000Y-94615000D01*
X116840000Y-94615000D02*
X117475000Y-94615000D01*
X121920000Y-92075000D02*
X121920000Y-91440000D01*
X154305000Y-109220000D02*
X153035000Y-109220000D01*
X153035000Y-109220000D02*
X151765000Y-109220000D01*
X109855000Y-97155000D02*
X109855000Y-95885000D01*
X109855000Y-95885000D02*
X111125000Y-94615000D01*
X116840000Y-94615000D02*
X118110000Y-94615000D01*
X116840000Y-93345000D02*
X116840000Y-94615000D01*
X121920000Y-92710000D02*
X121920000Y-91440000D01*
X121920000Y-91440000D02*
X121920000Y-90170000D01*
X149860000Y-107315000D02*
X149860000Y-105410000D01*
X149860000Y-105410000D02*
X147817479Y-103367479D01*
X132577479Y-103367479D02*
X122319999Y-93109999D01*
X122319999Y-93109999D02*
X121920000Y-92710000D01*
X147817479Y-103367479D02*
X132577479Y-103367479D01*
X151765000Y-109220000D02*
X149860000Y-107315000D01*
D29*
X168961764Y-116256764D02*
X168961764Y-113437510D01*
X169545000Y-116840000D02*
X168961764Y-116256764D01*
X193325000Y-123825000D02*
X189000000Y-119500000D01*
X195580000Y-123825000D02*
X193325000Y-123825000D01*
X185737500Y-122762500D02*
X189000000Y-119500000D01*
X185737500Y-123825000D02*
X185737500Y-122762500D01*
X185705000Y-116205000D02*
X189000000Y-119500000D01*
X176212500Y-116205000D02*
X185705000Y-116205000D01*
X185737500Y-127635000D02*
X185737500Y-124390685D01*
X185737500Y-124390685D02*
X185737500Y-123825000D01*
X178567044Y-134805456D02*
X185737500Y-127635000D01*
X175792835Y-134805456D02*
X178567044Y-134805456D01*
X154940000Y-129540000D02*
X156210000Y-128270000D01*
X156210000Y-128270000D02*
X158750000Y-128270000D01*
X152400000Y-115252500D02*
X154622500Y-113030000D01*
X150812500Y-115252500D02*
X152400000Y-115252500D01*
X151212499Y-115652499D02*
X150812500Y-115252500D01*
X153670000Y-121285000D02*
X153670000Y-118110000D01*
X150812500Y-128270000D02*
X150310011Y-127767511D01*
X153670000Y-118110000D02*
X151212499Y-115652499D01*
X150310011Y-127767511D02*
X150310011Y-124644989D01*
X150310011Y-124644989D02*
X153670000Y-121285000D01*
D30*
X116522500Y-90805000D02*
X116840000Y-91122500D01*
X113030000Y-90805000D02*
X116522500Y-90805000D01*
X108585000Y-86360000D02*
X113030000Y-90805000D01*
X87630000Y-86360000D02*
X108585000Y-86360000D01*
X78659999Y-80090001D02*
X78659999Y-85009999D01*
X80010000Y-78740000D02*
X78659999Y-80090001D01*
X81280000Y-87630000D02*
X86360000Y-87630000D01*
X116840000Y-91122500D02*
X116840000Y-93345000D01*
X78659999Y-85009999D02*
X81280000Y-87630000D01*
X86360000Y-87630000D02*
X87630000Y-86360000D01*
D29*
X193675000Y-135255000D02*
X190817500Y-135255000D01*
X190817500Y-135255000D02*
X189547500Y-136525000D01*
X175792835Y-134805456D02*
X170312044Y-134805456D01*
X155892500Y-141605000D02*
X155892500Y-143510000D01*
X162242500Y-128905000D02*
X162242500Y-128270000D01*
X162242500Y-128270000D02*
X163512500Y-127000000D01*
X127000000Y-73660000D02*
X127000000Y-67310000D01*
X127000000Y-67310000D02*
X130175000Y-64135000D01*
X130175000Y-64135000D02*
X160653589Y-64135000D01*
X160653589Y-64135000D02*
X165100000Y-64135000D01*
X165101411Y-64135000D02*
X165100000Y-64135000D01*
X156845000Y-116522500D02*
X156845000Y-115887500D01*
X156845000Y-115887500D02*
X158115000Y-114617500D01*
X158115000Y-114617500D02*
X160655000Y-114617500D01*
X160655000Y-114617500D02*
X162242500Y-113030000D01*
X162242500Y-113030000D02*
X162242500Y-112712500D01*
X198570011Y-83053900D02*
X197167500Y-84456410D01*
X197167500Y-111126410D02*
X197166090Y-111126410D01*
X197167500Y-84456410D02*
X197167500Y-111126410D01*
X165100000Y-64135000D02*
X196851411Y-64135000D01*
X164931248Y-112712500D02*
X164604340Y-113039408D01*
X197166090Y-111126410D02*
X195580000Y-112712500D01*
X198570011Y-65853600D02*
X198570011Y-83053900D01*
X196851411Y-64135000D02*
X198570011Y-65853600D01*
X195580000Y-112712500D02*
X164931248Y-112712500D01*
X133985000Y-95885000D02*
X136525000Y-98425000D01*
X130810000Y-92710000D02*
X130810000Y-93980000D01*
X132715000Y-95885000D02*
X133985000Y-95885000D01*
X130810000Y-93980000D02*
X132715000Y-95885000D01*
D30*
X151765000Y-105092500D02*
X151765000Y-106362500D01*
X151765000Y-106362500D02*
X153035000Y-107632500D01*
X153035000Y-107632500D02*
X157480000Y-107632500D01*
X147002500Y-100330000D02*
X151765000Y-105092500D01*
X137477500Y-100330000D02*
X147002500Y-100330000D01*
X157480000Y-107632500D02*
X160020000Y-110172500D01*
D28*
X160020000Y-110172500D02*
X160020000Y-112395000D01*
D29*
X162500000Y-137500000D02*
X162500000Y-138172500D01*
X189000000Y-127500000D02*
X187007500Y-129492500D01*
X187007500Y-129492500D02*
X187007500Y-135572500D01*
X191770000Y-140335000D02*
X193675000Y-140335000D01*
X187007500Y-135572500D02*
X191770000Y-140335000D01*
X185150000Y-129492500D02*
X187007500Y-129492500D01*
X178435000Y-136207500D02*
X185150000Y-129492500D01*
X166052500Y-123507500D02*
X166052500Y-121602500D01*
X166052500Y-121602500D02*
X166052500Y-118745000D01*
X151447500Y-122803185D02*
X149860000Y-124390685D01*
X151447500Y-122237500D02*
X151447500Y-122803185D01*
X149860000Y-124390685D02*
X149860000Y-128905000D01*
X149860000Y-128905000D02*
X151447500Y-130492500D01*
X151447500Y-130492500D02*
X151447500Y-141605000D01*
X151447500Y-141605000D02*
X151130000Y-141922500D01*
X178435000Y-136207500D02*
X178435000Y-136773185D01*
X178435000Y-136773185D02*
X177413185Y-137795000D01*
X177413185Y-137795000D02*
X164782500Y-137795000D01*
D30*
X160655000Y-80010000D02*
X160655000Y-91440000D01*
X160655000Y-91440000D02*
X163195000Y-91440000D01*
X163195000Y-91440000D02*
X164465000Y-92710000D01*
X164465000Y-92710000D02*
X164465000Y-108585000D01*
X177165000Y-91440000D02*
X177165000Y-76835000D01*
X177165000Y-76835000D02*
X177800000Y-76200000D01*
X192405000Y-92075000D02*
X192405000Y-77470000D01*
D28*
X112395000Y-99060000D02*
X112395000Y-98425000D01*
D30*
X192405000Y-92075000D02*
X192405000Y-100330000D01*
X192405000Y-100330000D02*
X190500000Y-102235000D01*
X190500000Y-102235000D02*
X190500000Y-109855000D01*
X180340000Y-90170000D02*
X180340000Y-97790000D01*
X180340000Y-97790000D02*
X180340000Y-109855000D01*
X164465000Y-108585000D02*
X164465000Y-109855000D01*
X164465000Y-109855000D02*
X164465000Y-110490000D01*
X180340000Y-109855000D02*
X180340000Y-110490000D01*
X190500000Y-109855000D02*
X190500000Y-110490000D01*
D28*
X112395000Y-97790000D02*
X113665000Y-96520000D01*
X155575000Y-110490000D02*
X156845000Y-110490000D01*
X156845000Y-110490000D02*
X158115000Y-110490000D01*
X155575000Y-110490000D02*
X158115000Y-110490000D01*
X133985000Y-121920000D02*
X133350000Y-121920000D01*
X133350000Y-121920000D02*
X132715000Y-121285000D01*
X132715000Y-114300000D02*
X132715000Y-121285000D01*
X132715000Y-114300000D02*
X132715000Y-106680000D01*
X132715000Y-106680000D02*
X131445000Y-105410000D01*
X113665000Y-96520000D02*
X122555000Y-96520000D01*
X127635000Y-101600000D02*
X122555000Y-96520000D01*
X130810000Y-104775000D02*
X127635000Y-101600000D01*
X131445000Y-105410000D02*
X130810000Y-104775000D01*
X112395000Y-99060000D02*
X112395000Y-97790000D01*
X146912490Y-104367490D02*
X131217510Y-104367490D01*
X148494979Y-108143436D02*
X148494980Y-105949980D01*
X155575000Y-110490000D02*
X150841543Y-110490000D01*
X150841543Y-110490000D02*
X148494979Y-108143436D01*
X148494980Y-105949980D02*
X146912490Y-104367490D01*
X131217510Y-104367490D02*
X130810000Y-104775000D01*
D29*
X182562500Y-138112500D02*
X181927500Y-138747500D01*
X181927500Y-138747500D02*
X177800000Y-138747500D01*
X177800000Y-138747500D02*
X171767500Y-138747500D01*
X171767500Y-138747500D02*
X170497500Y-140017500D01*
X189230000Y-130492500D02*
X192405000Y-130492500D01*
X192405000Y-130492500D02*
X193357500Y-129540000D01*
X193357500Y-129540000D02*
X193357500Y-125730000D01*
D30*
X98425000Y-121920000D02*
X97790000Y-121920000D01*
X97790000Y-121920000D02*
X97155000Y-121285000D01*
X114935000Y-114300000D02*
X114935000Y-121285000D01*
X114935000Y-121285000D02*
X115570000Y-121920000D01*
X115570000Y-121920000D02*
X116205000Y-121920000D01*
X114935000Y-131445000D02*
X114935000Y-138430000D01*
X131445000Y-130810000D02*
X132080000Y-130810000D01*
X132080000Y-130810000D02*
X132715000Y-131445000D01*
X132715000Y-131445000D02*
X132715000Y-138430000D01*
X97155000Y-130175000D02*
X97155000Y-120650000D01*
X97155000Y-121285000D02*
X97155000Y-120650000D01*
X97155000Y-120650000D02*
X97155000Y-114300000D01*
X97155000Y-111125000D02*
X97155000Y-107950000D01*
X97155000Y-107950000D02*
X97155000Y-107632500D01*
X114935000Y-131445000D02*
X114935000Y-121285000D01*
X150495000Y-135890000D02*
X150495000Y-136525000D01*
X150495000Y-136525000D02*
X150495000Y-138430000D01*
X132715000Y-131445000D02*
X132715000Y-124460000D01*
D28*
X83185000Y-120015000D02*
X83185000Y-116205000D01*
X83185000Y-116205000D02*
X84455000Y-114935000D01*
X84455000Y-114935000D02*
X84455000Y-102235000D01*
X84455000Y-102235000D02*
X85090000Y-101600000D01*
X88265000Y-101600000D02*
X85090000Y-101600000D01*
X88265000Y-101600000D02*
X88900000Y-100965000D01*
X114935000Y-120650000D02*
X114935000Y-138430000D01*
X114935000Y-114300000D02*
X114935000Y-120650000D01*
X114300000Y-130810000D02*
X114935000Y-131445000D01*
X113665000Y-130810000D02*
X114300000Y-130810000D01*
X97790000Y-99060000D02*
X92815000Y-99060000D01*
X100965000Y-102235000D02*
X97790000Y-99060000D01*
X114935000Y-114300000D02*
X113665000Y-114300000D01*
X92815000Y-99060000D02*
X91440000Y-97685000D01*
X113665000Y-114300000D02*
X112395000Y-113030000D01*
X91440000Y-97685000D02*
X91440000Y-95885000D01*
X112395000Y-113030000D02*
X112395000Y-103505000D01*
X112395000Y-103505000D02*
X111125000Y-102235000D01*
X111125000Y-102235000D02*
X100965000Y-102235000D01*
X150495000Y-138430000D02*
X150495000Y-135255000D01*
X150495000Y-135890000D02*
X149860000Y-135255000D01*
X149860000Y-135255000D02*
X147955000Y-135255000D01*
X147955000Y-135255000D02*
X146685000Y-133985000D01*
X146685000Y-133985000D02*
X146685000Y-132715000D01*
X97155000Y-138430000D02*
X97155000Y-131445000D01*
X96520000Y-130810000D02*
X97155000Y-131445000D01*
X96520000Y-130810000D02*
X97155000Y-130175000D01*
X95885000Y-130810000D02*
X96520000Y-130810000D01*
X97155000Y-123190000D02*
X97155000Y-113665000D01*
X97155000Y-130175000D02*
X97155000Y-123190000D01*
D30*
X97155000Y-114300000D02*
X97155000Y-113665000D01*
X97155000Y-113665000D02*
X97155000Y-111125000D01*
D28*
X97155000Y-114300000D02*
X97155000Y-107632500D01*
X97554999Y-101364999D02*
X97155000Y-100965000D01*
X97554999Y-107232501D02*
X97554999Y-101364999D01*
X97155000Y-107632500D02*
X97554999Y-107232501D01*
X111125000Y-102235000D02*
X113030000Y-102235000D01*
X129540000Y-121285000D02*
X132715000Y-124460000D01*
X128270000Y-104775000D02*
X129540000Y-106045000D01*
X113030000Y-102235000D02*
X115570000Y-104775000D01*
X129540000Y-106045000D02*
X129540000Y-121285000D01*
X115570000Y-104775000D02*
X128270000Y-104775000D01*
X131445000Y-130810000D02*
X132715000Y-130810000D01*
X132715000Y-124460000D02*
X132715000Y-130810000D01*
X132715000Y-130810000D02*
X132715000Y-138430000D01*
X148885696Y-140604989D02*
X150495000Y-138995685D01*
X150495000Y-138995685D02*
X150495000Y-138430000D01*
X134889989Y-140604989D02*
X148885696Y-140604989D01*
X132715000Y-138430000D02*
X134889989Y-140604989D01*
D29*
X161995000Y-122485000D02*
X157998082Y-122485000D01*
X157998082Y-122485000D02*
X157840592Y-122327510D01*
D30*
X162560000Y-78105000D02*
X162560000Y-87630000D01*
X159385000Y-90170000D02*
X159385000Y-106135010D01*
X159385000Y-106135010D02*
X158750000Y-106770010D01*
X179070000Y-78105000D02*
X179070000Y-87630000D01*
X175260000Y-94677002D02*
X179070000Y-90867002D01*
X179070000Y-88195685D02*
X179070000Y-87630000D01*
X175260000Y-106680000D02*
X175260000Y-94677002D01*
X179070000Y-90867002D02*
X179070000Y-88195685D01*
X195580000Y-78105000D02*
X195580000Y-87630000D01*
X191770000Y-106680000D02*
X191770000Y-103505000D01*
X191770000Y-103505000D02*
X193675000Y-101600000D01*
X193675000Y-101600000D02*
X193675000Y-90170000D01*
X179070000Y-93980000D02*
X179070000Y-103505000D01*
X162560000Y-93980000D02*
X162560000Y-103505000D01*
X195580000Y-93980000D02*
X195580000Y-103505000D01*
D28*
X96520000Y-106045000D02*
X95885000Y-106680000D01*
X95885000Y-106680000D02*
X95885000Y-109220000D01*
D30*
X95885000Y-116840000D02*
X95885000Y-128905000D01*
D28*
X95885000Y-116205000D02*
X95885000Y-128905000D01*
X95885000Y-109220000D02*
X95885000Y-116205000D01*
X95885000Y-116205000D02*
X95885000Y-116840000D01*
X95885000Y-128905000D02*
X94615000Y-130175000D01*
X94615000Y-139700000D02*
X95250000Y-140335000D01*
X94615000Y-130175000D02*
X94615000Y-139700000D01*
X113160000Y-133480000D02*
X113160000Y-139830000D01*
X110490000Y-106045000D02*
X110490000Y-130810000D01*
X110490000Y-130810000D02*
X113160000Y-133480000D01*
X123190000Y-106045000D02*
X123190000Y-132715000D01*
X130410001Y-139935001D02*
X130810000Y-140335000D01*
X123190000Y-132715000D02*
X130410001Y-139935001D01*
D30*
X146685000Y-106045000D02*
X140970000Y-111760000D01*
X140970000Y-137160000D02*
X143414979Y-139604979D01*
X140970000Y-111760000D02*
X140970000Y-137160000D01*
X143414979Y-139604979D02*
X147405545Y-139604979D01*
X147405545Y-139604979D02*
X147971230Y-139604979D01*
X136525000Y-106045000D02*
X135890000Y-106680000D01*
X135890000Y-106680000D02*
X135890000Y-111760000D01*
X135890000Y-111760000D02*
X135255000Y-112395000D01*
X113665000Y-106045000D02*
X113665000Y-111125000D01*
X113665000Y-111125000D02*
X114935000Y-112395000D01*
X114935000Y-112395000D02*
X116840000Y-112395000D01*
X98930000Y-106347877D02*
X98555009Y-105972886D01*
X98930000Y-112900000D02*
X98930000Y-106347877D01*
D28*
X83185000Y-105410000D02*
X83185000Y-109855000D01*
X83185000Y-111760000D02*
X82550000Y-112395000D01*
X83185000Y-109855000D02*
X83185000Y-111760000D01*
D30*
X81915000Y-112395000D02*
X82550000Y-112395000D01*
D28*
X82550000Y-112395000D02*
X81280000Y-112395000D01*
X81915000Y-112395000D02*
X81280000Y-112395000D01*
X81280000Y-112395000D02*
X80645000Y-112395000D01*
X80645000Y-112395000D02*
X79375000Y-113665000D01*
X79375000Y-113665000D02*
X79375000Y-120015000D01*
D30*
X81915000Y-85725000D02*
X84455000Y-83185000D01*
X84455000Y-78105000D02*
X82550000Y-76200000D01*
X84455000Y-83185000D02*
X84455000Y-78105000D01*
X145415000Y-136525000D02*
X145415000Y-122555000D01*
X145415000Y-122555000D02*
X147320000Y-120650000D01*
X147320000Y-120650000D02*
X147320000Y-116205000D01*
X188595000Y-85090000D02*
X189230000Y-85090000D01*
X189230000Y-85090000D02*
X190500000Y-83820000D01*
X198120000Y-104775000D02*
X198120000Y-90170000D01*
X198120000Y-144780000D02*
X198120000Y-104775000D01*
X83185000Y-144145000D02*
X85090000Y-146050000D01*
X196850000Y-146050000D02*
X198120000Y-144780000D01*
X85090000Y-146050000D02*
X196850000Y-146050000D01*
X92075000Y-132080000D02*
X92075000Y-134620000D01*
X109855000Y-132080000D02*
X109855000Y-134620000D01*
X127635000Y-132080000D02*
X127635000Y-134620000D01*
X137795000Y-120650000D02*
X137795000Y-118110000D01*
X120015000Y-120650000D02*
X120015000Y-118110000D01*
X102235000Y-120650000D02*
X102235000Y-118110000D01*
X189230000Y-80645000D02*
X190500000Y-81915000D01*
X188595000Y-80645000D02*
X189230000Y-80645000D01*
X80645000Y-134620000D02*
X81280000Y-134620000D01*
X79375000Y-135890000D02*
X80645000Y-134620000D01*
X199375000Y-144795000D02*
X197195010Y-146974990D01*
X199375000Y-90170000D02*
X199375000Y-144795000D01*
X197195010Y-146974990D02*
X81569990Y-146974990D01*
X81569990Y-146974990D02*
X79375000Y-144780000D01*
X79375000Y-144780000D02*
X79375000Y-135890000D01*
X174625000Y-68836580D02*
X173513210Y-67724790D01*
X174625000Y-85725000D02*
X174625000Y-68836580D01*
X174625000Y-91440000D02*
X174625000Y-90805000D01*
X174625000Y-90805000D02*
X175895000Y-89535000D01*
X175895000Y-89535000D02*
X175895000Y-76200000D01*
X175895000Y-76200000D02*
X177165000Y-74930000D01*
X173355000Y-103505000D02*
X171450000Y-103505000D01*
X171450000Y-103505000D02*
X170815000Y-102870000D01*
X170815000Y-73815000D02*
X169500000Y-72500000D01*
X170815000Y-102870000D02*
X170815000Y-73815000D01*
X140335000Y-86360000D02*
X139700000Y-85725000D01*
X140335000Y-93345000D02*
X140335000Y-86360000D01*
X169545000Y-101600000D02*
X169545000Y-99695000D01*
X169545000Y-95885000D02*
X169545000Y-97790000D01*
X141605000Y-92710000D02*
X141605000Y-86360000D01*
X141605000Y-86360000D02*
X142240000Y-85725000D01*
X169545000Y-85090000D02*
X164845245Y-80390245D01*
X164845245Y-80390245D02*
X164845245Y-65812510D01*
X146050000Y-66683522D02*
X149216478Y-66683522D01*
X149216478Y-66683522D02*
X149225000Y-66675000D01*
X156210000Y-67921580D02*
X156013210Y-67724790D01*
X156210000Y-71755000D02*
X156210000Y-67921580D01*
X137795000Y-86438612D02*
X135811388Y-84455000D01*
X137795000Y-90805000D02*
X137795000Y-86438612D01*
X135811388Y-84455000D02*
X132080000Y-84455000D01*
X132080000Y-84455000D02*
X130810000Y-85725000D01*
X130810000Y-85725000D02*
X129540000Y-85725000D01*
X132021387Y-85644999D02*
X135870001Y-85644999D01*
X136894990Y-86669988D02*
X136894990Y-88332911D01*
X136894990Y-88332911D02*
X136894990Y-88898596D01*
X135870001Y-85644999D02*
X136894990Y-86669988D01*
X125730000Y-86995000D02*
X130671386Y-86995000D01*
X130671386Y-86995000D02*
X132021387Y-85644999D01*
D29*
X129540000Y-65722500D02*
X130492500Y-64770000D01*
X196532500Y-84455000D02*
X196532500Y-111123590D01*
X130492500Y-64770000D02*
X196850000Y-64770000D01*
X198120000Y-82867500D02*
X196532500Y-84455000D01*
X198120000Y-66040000D02*
X198120000Y-82867500D01*
X196850000Y-64770000D02*
X198120000Y-66040000D01*
X129540000Y-73660000D02*
X129540000Y-65722500D01*
X196532500Y-111123590D02*
X195578590Y-112077500D01*
X195578590Y-112077500D02*
X170497500Y-112077500D01*
X170497500Y-112077500D02*
X170498910Y-112077500D01*
X170497500Y-112077500D02*
X170399990Y-112175010D01*
X164667194Y-112175010D02*
X164101509Y-112175010D01*
X170399990Y-112175010D02*
X164667194Y-112175010D01*
X156025009Y-120174327D02*
X151035021Y-125164315D01*
X159702500Y-113982500D02*
X157480000Y-113982500D01*
X157480000Y-113982500D02*
X156025009Y-115437491D01*
X160972500Y-112712500D02*
X159702500Y-113982500D01*
X151035021Y-125164315D02*
X151035021Y-125730000D01*
X156025009Y-115437491D02*
X156025009Y-120174327D01*
X191992501Y-136619999D02*
X191452500Y-137160000D01*
X196215000Y-137795000D02*
X195039999Y-136619999D01*
X195039999Y-136619999D02*
X191992501Y-136619999D01*
D30*
X186055000Y-82550000D02*
X186055000Y-83185000D01*
X186055000Y-83185000D02*
X186055000Y-85090000D01*
X186055000Y-80645000D02*
X186055000Y-82550000D01*
X172085000Y-101600000D02*
X172720000Y-101600000D01*
X172720000Y-101600000D02*
X173990000Y-100330000D01*
X172720000Y-95885000D02*
X173990000Y-97155000D01*
X172085000Y-95885000D02*
X172720000Y-95885000D01*
X188595000Y-100965000D02*
X189865000Y-100965000D01*
X189865000Y-100965000D02*
X191135000Y-99695000D01*
X188595000Y-96520000D02*
X189865000Y-96520000D01*
X189865000Y-96520000D02*
X191135000Y-97790000D01*
X142875000Y-137160000D02*
X142875000Y-132715000D01*
X145240302Y-120650000D02*
X145240302Y-117649698D01*
X145240302Y-117649698D02*
X145415000Y-117475000D01*
X89535000Y-83185000D02*
X93345000Y-83185000D01*
D29*
X161290000Y-106045000D02*
X163195000Y-106045000D01*
X163195000Y-106045000D02*
X163195000Y-112339528D01*
X163920002Y-123807818D02*
X163790159Y-123937661D01*
X163790159Y-123937661D02*
X163390160Y-124337660D01*
X163594999Y-119024495D02*
X163920002Y-119349498D01*
X163195000Y-112339528D02*
X163594999Y-112739527D01*
X163594999Y-112739527D02*
X163594999Y-119024495D01*
X163920002Y-119349498D02*
X163920002Y-123807818D01*
X164782500Y-121602500D02*
X164782500Y-117792500D01*
X164782500Y-121602500D02*
X164782500Y-121285000D01*
X164782500Y-117792500D02*
X165100000Y-117475000D01*
X165100000Y-117475000D02*
X168275000Y-117475000D01*
X168275000Y-117475000D02*
X168910000Y-118110000D01*
X168910000Y-118110000D02*
X170815000Y-118110000D01*
X170815000Y-118110000D02*
X175260000Y-113665000D01*
X164790028Y-121610028D02*
X164790028Y-123031825D01*
X164782500Y-121602500D02*
X164790028Y-121610028D01*
X164790028Y-123031825D02*
X164790028Y-123597510D01*
X154753599Y-139567491D02*
X159835009Y-139567491D01*
X92075000Y-102870000D02*
X90170000Y-104775000D01*
X90989990Y-144964990D02*
X152848600Y-144964990D01*
X90170000Y-104775000D02*
X90170000Y-144145000D01*
X90170000Y-144145000D02*
X90989990Y-144964990D01*
X152848600Y-144964990D02*
X154172489Y-143641101D01*
X162877500Y-121533185D02*
X162877500Y-120967500D01*
X161225001Y-124524999D02*
X162877500Y-122872500D01*
X161225001Y-138177499D02*
X161225001Y-129725501D01*
X159835009Y-139567491D02*
X161225001Y-138177499D01*
X154172489Y-140148600D02*
X154753599Y-139567491D01*
X154172489Y-143641101D02*
X154172489Y-140148600D01*
X162877500Y-122872500D02*
X162877500Y-121533185D01*
X161225001Y-124524999D02*
X161290000Y-124460000D01*
X161225001Y-138177499D02*
X161225001Y-124524999D01*
X161225001Y-128084499D02*
X161290000Y-124460000D01*
X153272468Y-139775799D02*
X154380799Y-138667469D01*
X154380799Y-138667469D02*
X154417532Y-138667469D01*
X153272467Y-143268300D02*
X153272468Y-139775799D01*
X154417532Y-138667469D02*
X157625001Y-135460001D01*
X153087480Y-125365661D02*
X157803141Y-120650000D01*
X157625001Y-135460001D02*
X157625001Y-132939999D01*
X157803141Y-120650000D02*
X158184315Y-120650000D01*
X157625001Y-132939999D02*
X155760024Y-131075022D01*
X153087480Y-130547802D02*
X153087480Y-125365661D01*
X105541101Y-143960011D02*
X152580756Y-143960011D01*
X153614700Y-131075022D02*
X153087480Y-130547802D01*
X158184315Y-120650000D02*
X158750000Y-120650000D01*
X155760024Y-131075022D02*
X153614700Y-131075022D01*
X104775000Y-104140000D02*
X104775000Y-143193910D01*
X152580756Y-143960011D02*
X153272467Y-143268300D01*
X104775000Y-143193910D02*
X105541101Y-143960011D01*
X152082500Y-142557500D02*
X152082500Y-135803913D01*
X118745000Y-116840000D02*
X118745000Y-142241410D01*
X121970002Y-106045000D02*
X121970002Y-113614998D01*
X151924988Y-135646401D02*
X151924988Y-125255334D01*
X151632491Y-143007509D02*
X152082500Y-142557500D01*
X118745000Y-142241410D02*
X119511099Y-143007509D01*
X151924988Y-125255334D02*
X157980334Y-119199988D01*
X121970002Y-113614998D02*
X118745000Y-116840000D01*
X157980334Y-119199988D02*
X158436783Y-119199988D01*
X152082500Y-135803913D02*
X151924988Y-135646401D01*
X119511099Y-143007509D02*
X151632491Y-143007509D01*
X150945010Y-106812510D02*
X150945010Y-105225010D01*
X150945010Y-105225010D02*
X147955000Y-102235000D01*
X147955000Y-102235000D02*
X137160000Y-102235000D01*
X133032500Y-105410000D02*
X134620000Y-105410000D01*
X134620000Y-105410000D02*
X134937500Y-105092500D01*
X140335000Y-105092500D02*
X141287500Y-106045000D01*
X134937500Y-105092500D02*
X140335000Y-105092500D01*
X119324699Y-143457520D02*
X152134980Y-143457520D01*
X161359992Y-119924998D02*
X162139991Y-119144999D01*
X152717500Y-142875000D02*
X152717500Y-135802502D01*
X117475000Y-141607821D02*
X119324699Y-143457520D01*
X119380000Y-114300000D02*
X117475000Y-116205000D01*
X117475000Y-116205000D02*
X117475000Y-141607821D01*
X152374999Y-135460001D02*
X152374999Y-125441732D01*
X162139991Y-119144999D02*
X162539990Y-118745000D01*
X119380000Y-110490000D02*
X119380000Y-114300000D01*
X152374999Y-125441732D02*
X157891733Y-119924998D01*
X157891733Y-119924998D02*
X161359992Y-119924998D01*
X114935000Y-106045000D02*
X119380000Y-110490000D01*
X152134980Y-143457520D02*
X152717500Y-142875000D01*
X152717500Y-135802502D02*
X152374999Y-135460001D01*
X99745002Y-139115002D02*
X105144979Y-144514979D01*
X162629315Y-119697500D02*
X163195000Y-119697500D01*
X153537491Y-130361402D02*
X153537491Y-125552061D01*
X153722478Y-143454700D02*
X153722478Y-139962200D01*
X153537491Y-125552061D02*
X157487052Y-121602500D01*
X153722478Y-139962200D02*
X154567199Y-139117480D01*
X158750000Y-133153004D02*
X156222007Y-130625011D01*
X99745002Y-104775000D02*
X99745002Y-139115002D01*
X105144979Y-144514979D02*
X152662199Y-144514979D01*
X156222007Y-130625011D02*
X153801100Y-130625011D01*
X160724315Y-121602500D02*
X162629315Y-119697500D01*
X152662199Y-144514979D02*
X153722478Y-143454700D01*
X157487052Y-121602500D02*
X160724315Y-121602500D01*
X153801100Y-130625011D02*
X153537491Y-130361402D01*
X158750000Y-138063002D02*
X158750000Y-133153004D01*
X157695522Y-139117480D02*
X158750000Y-138063002D01*
X154567199Y-139117480D02*
X157695522Y-139117480D01*
X88900000Y-114300000D02*
X88900000Y-106045000D01*
X88900000Y-144145000D02*
X88900000Y-114300000D01*
X153035000Y-145415000D02*
X90170000Y-145415000D01*
X163725001Y-138088001D02*
X162563011Y-139249991D01*
X90170000Y-145415000D02*
X88900000Y-144145000D01*
X161925000Y-135010002D02*
X163725001Y-136810003D01*
X163725001Y-136810003D02*
X163725001Y-138088001D01*
X162563011Y-139249991D02*
X162373599Y-139249991D01*
X154940000Y-140017500D02*
X154622500Y-140335000D01*
X161606090Y-140017500D02*
X154940000Y-140017500D01*
X162373599Y-139249991D02*
X161606090Y-140017500D01*
X161925000Y-130810000D02*
X161925000Y-135010002D01*
X165417500Y-127317500D02*
X161925000Y-130810000D01*
X154622500Y-140335000D02*
X154622500Y-143827500D01*
X154622500Y-143827500D02*
X153035000Y-145415000D01*
X166922500Y-121685000D02*
X166922500Y-125315717D01*
X170069338Y-128097542D02*
X170635023Y-128097542D01*
X166922500Y-125315717D02*
X169704325Y-128097542D01*
X169704325Y-128097542D02*
X170069338Y-128097542D01*
X169862500Y-126952487D02*
X169910013Y-127000000D01*
X169862500Y-123190000D02*
X169862500Y-126952487D01*
D31*
G36*
X197185000Y-134124893D02*
G01*
X197161632Y-134101525D01*
X196918411Y-133939010D01*
X196648158Y-133827068D01*
X196361260Y-133770000D01*
X196068740Y-133770000D01*
X195781842Y-133827068D01*
X195511589Y-133939010D01*
X195268368Y-134101525D01*
X195061525Y-134308368D01*
X194945000Y-134482760D01*
X194828475Y-134308368D01*
X194621632Y-134101525D01*
X194378411Y-133939010D01*
X194108158Y-133827068D01*
X193821260Y-133770000D01*
X193528740Y-133770000D01*
X193241842Y-133827068D01*
X192971589Y-133939010D01*
X192728368Y-134101525D01*
X192521525Y-134308368D01*
X192396822Y-134495000D01*
X190854822Y-134495000D01*
X190817499Y-134491324D01*
X190780176Y-134495000D01*
X190780167Y-134495000D01*
X190668514Y-134505997D01*
X190525253Y-134549454D01*
X190393224Y-134620026D01*
X190277499Y-134714999D01*
X190253701Y-134743997D01*
X189507699Y-135490000D01*
X189445561Y-135490000D01*
X189245602Y-135529774D01*
X189057244Y-135607795D01*
X188887726Y-135721063D01*
X188743563Y-135865226D01*
X188630295Y-136034744D01*
X188552274Y-136223102D01*
X188512500Y-136423061D01*
X188512500Y-136626939D01*
X188552274Y-136826898D01*
X188630295Y-137015256D01*
X188743563Y-137184774D01*
X188887726Y-137328937D01*
X189057244Y-137442205D01*
X189245602Y-137520226D01*
X189445561Y-137560000D01*
X189649439Y-137560000D01*
X189849398Y-137520226D01*
X190037756Y-137442205D01*
X190207274Y-137328937D01*
X190351437Y-137184774D01*
X190417500Y-137085903D01*
X190417500Y-137261939D01*
X190457274Y-137461898D01*
X190535295Y-137650256D01*
X190648563Y-137819774D01*
X190792726Y-137963937D01*
X190962244Y-138077205D01*
X191150602Y-138155226D01*
X191350561Y-138195000D01*
X191554439Y-138195000D01*
X191754398Y-138155226D01*
X191942756Y-138077205D01*
X192112274Y-137963937D01*
X192190000Y-137886211D01*
X192190000Y-137941260D01*
X192247068Y-138228158D01*
X192359010Y-138498411D01*
X192521525Y-138741632D01*
X192728368Y-138948475D01*
X192910534Y-139070195D01*
X192793645Y-139139822D01*
X192577412Y-139334731D01*
X192403359Y-139568080D01*
X192278175Y-139830901D01*
X192233524Y-139978110D01*
X192354845Y-140208000D01*
X193548000Y-140208000D01*
X193548000Y-140188000D01*
X193802000Y-140188000D01*
X193802000Y-140208000D01*
X196088000Y-140208000D01*
X196088000Y-140188000D01*
X196342000Y-140188000D01*
X196342000Y-140208000D01*
X196362000Y-140208000D01*
X196362000Y-140462000D01*
X196342000Y-140462000D01*
X196342000Y-141661250D01*
X196500750Y-141820000D01*
X197065000Y-141823072D01*
X197185000Y-141811253D01*
X197185000Y-144392710D01*
X196462711Y-145115000D01*
X154409802Y-145115000D01*
X155133503Y-144391299D01*
X155162501Y-144367501D01*
X155206460Y-144313937D01*
X155218300Y-144299511D01*
X155232726Y-144313937D01*
X155402244Y-144427205D01*
X155590602Y-144505226D01*
X155790561Y-144545000D01*
X155994439Y-144545000D01*
X156194398Y-144505226D01*
X156382756Y-144427205D01*
X156552274Y-144313937D01*
X156696437Y-144169774D01*
X156809705Y-144000256D01*
X156887726Y-143811898D01*
X156927500Y-143611939D01*
X156927500Y-143408061D01*
X156887726Y-143208102D01*
X156809705Y-143019744D01*
X156696437Y-142850226D01*
X156652500Y-142806289D01*
X156652500Y-142308711D01*
X156696437Y-142264774D01*
X156809705Y-142095256D01*
X156887726Y-141906898D01*
X156927500Y-141706939D01*
X156927500Y-141503061D01*
X156887726Y-141303102D01*
X156809705Y-141114744D01*
X156696437Y-140945226D01*
X156552274Y-140801063D01*
X156517009Y-140777500D01*
X161568768Y-140777500D01*
X161606090Y-140781176D01*
X161643412Y-140777500D01*
X161643423Y-140777500D01*
X161755076Y-140766503D01*
X161898337Y-140723046D01*
X162030366Y-140652474D01*
X162146091Y-140557501D01*
X162169893Y-140528498D01*
X162698021Y-140000371D01*
X162711997Y-139998994D01*
X162855258Y-139955537D01*
X162930046Y-139915561D01*
X169462500Y-139915561D01*
X169462500Y-140119439D01*
X169502274Y-140319398D01*
X169580295Y-140507756D01*
X169693563Y-140677274D01*
X169837726Y-140821437D01*
X170007244Y-140934705D01*
X170195602Y-141012726D01*
X170395561Y-141052500D01*
X170599439Y-141052500D01*
X170799398Y-141012726D01*
X170987756Y-140934705D01*
X171157274Y-140821437D01*
X171286821Y-140691890D01*
X192233524Y-140691890D01*
X192278175Y-140839099D01*
X192403359Y-141101920D01*
X192577412Y-141335269D01*
X192793645Y-141530178D01*
X193043748Y-141679157D01*
X193318109Y-141776481D01*
X193548000Y-141655814D01*
X193548000Y-140462000D01*
X193802000Y-140462000D01*
X193802000Y-141655814D01*
X194031891Y-141776481D01*
X194306252Y-141679157D01*
X194556355Y-141530178D01*
X194752502Y-141353374D01*
X194775498Y-141429180D01*
X194834463Y-141539494D01*
X194913815Y-141636185D01*
X195010506Y-141715537D01*
X195120820Y-141774502D01*
X195240518Y-141810812D01*
X195365000Y-141823072D01*
X195929250Y-141820000D01*
X196088000Y-141661250D01*
X196088000Y-140462000D01*
X193802000Y-140462000D01*
X193548000Y-140462000D01*
X192354845Y-140462000D01*
X192233524Y-140691890D01*
X171286821Y-140691890D01*
X171301437Y-140677274D01*
X171414705Y-140507756D01*
X171492726Y-140319398D01*
X171532500Y-140119439D01*
X171532500Y-140057301D01*
X172082302Y-139507500D01*
X181890178Y-139507500D01*
X181927500Y-139511176D01*
X181964822Y-139507500D01*
X181964833Y-139507500D01*
X182076486Y-139496503D01*
X182219747Y-139453046D01*
X182351776Y-139382474D01*
X182467501Y-139287501D01*
X182491303Y-139258498D01*
X182602301Y-139147500D01*
X182664439Y-139147500D01*
X182864398Y-139107726D01*
X183052756Y-139029705D01*
X183222274Y-138916437D01*
X183366437Y-138772274D01*
X183479705Y-138602756D01*
X183557726Y-138414398D01*
X183597500Y-138214439D01*
X183597500Y-138010561D01*
X183557726Y-137810602D01*
X183479705Y-137622244D01*
X183366437Y-137452726D01*
X183222274Y-137308563D01*
X183052756Y-137195295D01*
X182864398Y-137117274D01*
X182664439Y-137077500D01*
X182460561Y-137077500D01*
X182260602Y-137117274D01*
X182072244Y-137195295D01*
X181902726Y-137308563D01*
X181758563Y-137452726D01*
X181645295Y-137622244D01*
X181567274Y-137810602D01*
X181532087Y-137987500D01*
X171804822Y-137987500D01*
X171767499Y-137983824D01*
X171730176Y-137987500D01*
X171730167Y-137987500D01*
X171618514Y-137998497D01*
X171475253Y-138041954D01*
X171343224Y-138112526D01*
X171227499Y-138207499D01*
X171203701Y-138236497D01*
X170457699Y-138982500D01*
X170395561Y-138982500D01*
X170195602Y-139022274D01*
X170007244Y-139100295D01*
X169837726Y-139213563D01*
X169693563Y-139357726D01*
X169580295Y-139527244D01*
X169502274Y-139715602D01*
X169462500Y-139915561D01*
X162930046Y-139915561D01*
X162987287Y-139884965D01*
X163103012Y-139789992D01*
X163126815Y-139760988D01*
X164236004Y-138651800D01*
X164265002Y-138628002D01*
X164309316Y-138574005D01*
X164359975Y-138512278D01*
X164430547Y-138380248D01*
X164438130Y-138355249D01*
X164474004Y-138236987D01*
X164485001Y-138125334D01*
X164485001Y-138125324D01*
X164488677Y-138088002D01*
X164485001Y-138050679D01*
X164485001Y-137090060D01*
X164710928Y-137135000D01*
X165289072Y-137135000D01*
X165856108Y-137022209D01*
X166390244Y-136800963D01*
X166870953Y-136479763D01*
X167279763Y-136070953D01*
X167600963Y-135590244D01*
X167822209Y-135056108D01*
X167872067Y-134805456D01*
X169548367Y-134805456D01*
X169563041Y-134954442D01*
X169606498Y-135097703D01*
X169677070Y-135229732D01*
X169772043Y-135345457D01*
X169887768Y-135440430D01*
X170019797Y-135511002D01*
X170163058Y-135554459D01*
X170274711Y-135565456D01*
X175089124Y-135565456D01*
X175133061Y-135609393D01*
X175302579Y-135722661D01*
X175490937Y-135800682D01*
X175690896Y-135840456D01*
X175894774Y-135840456D01*
X176094733Y-135800682D01*
X176283091Y-135722661D01*
X176452609Y-135609393D01*
X176496546Y-135565456D01*
X178529722Y-135565456D01*
X178567044Y-135569132D01*
X178604366Y-135565456D01*
X178604377Y-135565456D01*
X178716030Y-135554459D01*
X178859291Y-135511002D01*
X178991320Y-135440430D01*
X179107045Y-135345457D01*
X179130848Y-135316453D01*
X185455648Y-128991653D01*
X187687952Y-128991653D01*
X187843962Y-129307214D01*
X188218745Y-129498020D01*
X188623551Y-129612044D01*
X188678321Y-129616336D01*
X188570226Y-129688563D01*
X188426063Y-129832726D01*
X188312795Y-130002244D01*
X188234774Y-130190602D01*
X188195000Y-130390561D01*
X188195000Y-130594439D01*
X188234774Y-130794398D01*
X188312795Y-130982756D01*
X188426063Y-131152274D01*
X188570226Y-131296437D01*
X188739744Y-131409705D01*
X188928102Y-131487726D01*
X189128061Y-131527500D01*
X189331939Y-131527500D01*
X189531898Y-131487726D01*
X189720256Y-131409705D01*
X189889774Y-131296437D01*
X189933711Y-131252500D01*
X192367678Y-131252500D01*
X192405000Y-131256176D01*
X192442322Y-131252500D01*
X192442333Y-131252500D01*
X192553986Y-131241503D01*
X192697247Y-131198046D01*
X192829276Y-131127474D01*
X192945001Y-131032501D01*
X192968803Y-131003498D01*
X193868509Y-130103794D01*
X193897501Y-130080001D01*
X193921295Y-130051008D01*
X193921299Y-130051004D01*
X193992473Y-129964277D01*
X193992474Y-129964276D01*
X194063046Y-129832247D01*
X194106503Y-129688986D01*
X194117500Y-129577333D01*
X194117500Y-129577324D01*
X194121176Y-129540001D01*
X194117500Y-129502678D01*
X194117500Y-126433711D01*
X194161437Y-126389774D01*
X194274705Y-126220256D01*
X194352726Y-126031898D01*
X194392500Y-125831939D01*
X194392500Y-125628061D01*
X194352726Y-125428102D01*
X194274705Y-125239744D01*
X194161437Y-125070226D01*
X194017274Y-124926063D01*
X193847756Y-124812795D01*
X193659398Y-124734774D01*
X193459439Y-124695000D01*
X193255561Y-124695000D01*
X193055602Y-124734774D01*
X192867244Y-124812795D01*
X192697726Y-124926063D01*
X192553563Y-125070226D01*
X192440295Y-125239744D01*
X192362274Y-125428102D01*
X192322500Y-125628061D01*
X192322500Y-125831939D01*
X192362274Y-126031898D01*
X192440295Y-126220256D01*
X192553563Y-126389774D01*
X192597501Y-126433712D01*
X192597500Y-129225197D01*
X192090199Y-129732500D01*
X189933711Y-129732500D01*
X189889774Y-129688563D01*
X189720256Y-129575295D01*
X189633074Y-129539183D01*
X189860383Y-129465243D01*
X190156038Y-129307214D01*
X190312048Y-128991653D01*
X189000000Y-127679605D01*
X187687952Y-128991653D01*
X185455648Y-128991653D01*
X186248504Y-128198798D01*
X186277501Y-128175001D01*
X186309957Y-128135453D01*
X186372474Y-128059277D01*
X186443046Y-127927247D01*
X186472999Y-127828503D01*
X186486503Y-127783986D01*
X186497500Y-127672333D01*
X186497500Y-127672324D01*
X186501176Y-127635001D01*
X186497500Y-127597678D01*
X186497500Y-127542824D01*
X186855098Y-127542824D01*
X186904666Y-127960451D01*
X187034757Y-128360383D01*
X187192786Y-128656038D01*
X187508347Y-128812048D01*
X188820395Y-127500000D01*
X189179605Y-127500000D01*
X190491653Y-128812048D01*
X190807214Y-128656038D01*
X190998020Y-128281255D01*
X191112044Y-127876449D01*
X191144902Y-127457176D01*
X191095334Y-127039549D01*
X190965243Y-126639617D01*
X190807214Y-126343962D01*
X190491653Y-126187952D01*
X189179605Y-127500000D01*
X188820395Y-127500000D01*
X187508347Y-126187952D01*
X187192786Y-126343962D01*
X187001980Y-126718745D01*
X186887956Y-127123551D01*
X186855098Y-127542824D01*
X186497500Y-127542824D01*
X186497500Y-124528711D01*
X186541437Y-124484774D01*
X186654705Y-124315256D01*
X186732726Y-124126898D01*
X186772500Y-123926939D01*
X186772500Y-123723061D01*
X186732726Y-123523102D01*
X186654705Y-123334744D01*
X186541437Y-123165226D01*
X186497500Y-123121289D01*
X186497500Y-123077301D01*
X187152055Y-122422746D01*
X187107988Y-122488698D01*
X186947047Y-122877244D01*
X186865000Y-123289721D01*
X186865000Y-123710279D01*
X186947047Y-124122756D01*
X187107988Y-124511302D01*
X187341637Y-124860983D01*
X187639017Y-125158363D01*
X187988698Y-125392012D01*
X188248113Y-125499465D01*
X188139617Y-125534757D01*
X187843962Y-125692786D01*
X187687952Y-126008347D01*
X189000000Y-127320395D01*
X190312048Y-126008347D01*
X190156038Y-125692786D01*
X189781255Y-125501980D01*
X189760161Y-125496038D01*
X190011302Y-125392012D01*
X190360983Y-125158363D01*
X190658363Y-124860983D01*
X190892012Y-124511302D01*
X191052953Y-124122756D01*
X191135000Y-123710279D01*
X191135000Y-123289721D01*
X191052953Y-122877244D01*
X190892012Y-122488698D01*
X190847944Y-122422746D01*
X192761201Y-124336003D01*
X192784999Y-124365001D01*
X192900724Y-124459974D01*
X193032753Y-124530546D01*
X193176014Y-124574003D01*
X193287667Y-124585000D01*
X193287675Y-124585000D01*
X193325000Y-124588676D01*
X193362325Y-124585000D01*
X194876289Y-124585000D01*
X194920226Y-124628937D01*
X195089744Y-124742205D01*
X195278102Y-124820226D01*
X195478061Y-124860000D01*
X195681939Y-124860000D01*
X195881898Y-124820226D01*
X196070256Y-124742205D01*
X196239774Y-124628937D01*
X196383937Y-124484774D01*
X196497205Y-124315256D01*
X196575226Y-124126898D01*
X196615000Y-123926939D01*
X196615000Y-123723061D01*
X196575226Y-123523102D01*
X196497205Y-123334744D01*
X196383937Y-123165226D01*
X196239774Y-123021063D01*
X196070256Y-122907795D01*
X195881898Y-122829774D01*
X195681939Y-122790000D01*
X195478061Y-122790000D01*
X195278102Y-122829774D01*
X195089744Y-122907795D01*
X194920226Y-123021063D01*
X194876289Y-123065000D01*
X193639802Y-123065000D01*
X190948860Y-120374059D01*
X191052953Y-120122756D01*
X191135000Y-119710279D01*
X191135000Y-119289721D01*
X191052953Y-118877244D01*
X190892012Y-118488698D01*
X190658363Y-118139017D01*
X190360983Y-117841637D01*
X190011302Y-117607988D01*
X189622756Y-117447047D01*
X189210279Y-117365000D01*
X188789721Y-117365000D01*
X188377244Y-117447047D01*
X188125941Y-117551140D01*
X186268804Y-115694003D01*
X186245001Y-115664999D01*
X186129276Y-115570026D01*
X185997247Y-115499454D01*
X185853986Y-115455997D01*
X185742333Y-115445000D01*
X185742322Y-115445000D01*
X185705000Y-115441324D01*
X185667678Y-115445000D01*
X176916211Y-115445000D01*
X176872274Y-115401063D01*
X176702756Y-115287795D01*
X176514398Y-115209774D01*
X176314439Y-115170000D01*
X176110561Y-115170000D01*
X175910602Y-115209774D01*
X175722244Y-115287795D01*
X175552726Y-115401063D01*
X175408563Y-115545226D01*
X175295295Y-115714744D01*
X175217274Y-115903102D01*
X175177500Y-116103061D01*
X175177500Y-116306939D01*
X175217274Y-116506898D01*
X175295295Y-116695256D01*
X175408563Y-116864774D01*
X175552726Y-117008937D01*
X175722244Y-117122205D01*
X175910602Y-117200226D01*
X176110561Y-117240000D01*
X176314439Y-117240000D01*
X176514398Y-117200226D01*
X176702756Y-117122205D01*
X176872274Y-117008937D01*
X176916211Y-116965000D01*
X185390199Y-116965000D01*
X187051140Y-118625941D01*
X186947047Y-118877244D01*
X186865000Y-119289721D01*
X186865000Y-119710279D01*
X186947047Y-120122756D01*
X187051140Y-120374059D01*
X185226498Y-122198701D01*
X185197500Y-122222499D01*
X185173702Y-122251497D01*
X185173701Y-122251498D01*
X185102526Y-122338224D01*
X185031954Y-122470254D01*
X185006240Y-122555026D01*
X184988498Y-122613514D01*
X184981927Y-122680226D01*
X184979895Y-122700865D01*
X184892012Y-122488698D01*
X184658363Y-122139017D01*
X184360983Y-121841637D01*
X184011302Y-121607988D01*
X183750596Y-121500000D01*
X184011302Y-121392012D01*
X184360983Y-121158363D01*
X184658363Y-120860983D01*
X184892012Y-120511302D01*
X185052953Y-120122756D01*
X185135000Y-119710279D01*
X185135000Y-119289721D01*
X185052953Y-118877244D01*
X184892012Y-118488698D01*
X184658363Y-118139017D01*
X184360983Y-117841637D01*
X184011302Y-117607988D01*
X183622756Y-117447047D01*
X183210279Y-117365000D01*
X182789721Y-117365000D01*
X182377244Y-117447047D01*
X181988698Y-117607988D01*
X181639017Y-117841637D01*
X181341637Y-118139017D01*
X181107988Y-118488698D01*
X180947047Y-118877244D01*
X180865000Y-119289721D01*
X180865000Y-119710279D01*
X180947047Y-120122756D01*
X181107988Y-120511302D01*
X181341637Y-120860983D01*
X181639017Y-121158363D01*
X181988698Y-121392012D01*
X182249404Y-121500000D01*
X181988698Y-121607988D01*
X181639017Y-121841637D01*
X181341637Y-122139017D01*
X181107988Y-122488698D01*
X180947047Y-122877244D01*
X180865000Y-123289721D01*
X180865000Y-123710279D01*
X180947047Y-124122756D01*
X181107988Y-124511302D01*
X181341637Y-124860983D01*
X181639017Y-125158363D01*
X181988698Y-125392012D01*
X182249404Y-125500000D01*
X181988698Y-125607988D01*
X181639017Y-125841637D01*
X181341637Y-126139017D01*
X181107988Y-126488698D01*
X180947047Y-126877244D01*
X180865000Y-127289721D01*
X180865000Y-127710279D01*
X180947047Y-128122756D01*
X181107988Y-128511302D01*
X181341637Y-128860983D01*
X181639017Y-129158363D01*
X181988698Y-129392012D01*
X182377244Y-129552953D01*
X182683773Y-129613926D01*
X178252243Y-134045456D01*
X176496546Y-134045456D01*
X176452609Y-134001519D01*
X176283091Y-133888251D01*
X176094733Y-133810230D01*
X175894774Y-133770456D01*
X175690896Y-133770456D01*
X175490937Y-133810230D01*
X175302579Y-133888251D01*
X175133061Y-134001519D01*
X175089124Y-134045456D01*
X170274711Y-134045456D01*
X170163058Y-134056453D01*
X170019797Y-134099910D01*
X169887768Y-134170482D01*
X169772043Y-134265455D01*
X169677070Y-134381180D01*
X169606498Y-134513209D01*
X169563041Y-134656470D01*
X169548367Y-134805456D01*
X167872067Y-134805456D01*
X167935000Y-134489072D01*
X167935000Y-133910928D01*
X167822209Y-133343892D01*
X167600963Y-132809756D01*
X167279763Y-132329047D01*
X166870953Y-131920237D01*
X166390244Y-131599037D01*
X165856108Y-131377791D01*
X165289072Y-131265000D01*
X164710928Y-131265000D01*
X164143892Y-131377791D01*
X163609756Y-131599037D01*
X163129047Y-131920237D01*
X162720237Y-132329047D01*
X162685000Y-132381783D01*
X162685000Y-131124801D01*
X164667817Y-129141984D01*
X171865000Y-129141984D01*
X171865000Y-129858016D01*
X172004691Y-130560290D01*
X172278705Y-131221818D01*
X172676511Y-131817177D01*
X173182823Y-132323489D01*
X173778182Y-132721295D01*
X174439710Y-132995309D01*
X175141984Y-133135000D01*
X175858016Y-133135000D01*
X176560290Y-132995309D01*
X177221818Y-132721295D01*
X177817177Y-132323489D01*
X178323489Y-131817177D01*
X178721295Y-131221818D01*
X178995309Y-130560290D01*
X179135000Y-129858016D01*
X179135000Y-129141984D01*
X178995309Y-128439710D01*
X178721295Y-127778182D01*
X178323489Y-127182823D01*
X177817177Y-126676511D01*
X177221818Y-126278705D01*
X176560290Y-126004691D01*
X175858016Y-125865000D01*
X175141984Y-125865000D01*
X174439710Y-126004691D01*
X173778182Y-126278705D01*
X173182823Y-126676511D01*
X172676511Y-127182823D01*
X172278705Y-127778182D01*
X172004691Y-128439710D01*
X171865000Y-129141984D01*
X164667817Y-129141984D01*
X165457302Y-128352500D01*
X165519439Y-128352500D01*
X165719398Y-128312726D01*
X165907756Y-128234705D01*
X166077274Y-128121437D01*
X166221437Y-127977274D01*
X166334705Y-127807756D01*
X166412726Y-127619398D01*
X166452500Y-127419439D01*
X166452500Y-127215561D01*
X166412726Y-127015602D01*
X166334705Y-126827244D01*
X166221437Y-126657726D01*
X166077274Y-126513563D01*
X165907756Y-126400295D01*
X165719398Y-126322274D01*
X165519439Y-126282500D01*
X165315561Y-126282500D01*
X165115602Y-126322274D01*
X164927244Y-126400295D01*
X164757726Y-126513563D01*
X164613563Y-126657726D01*
X164525816Y-126789049D01*
X164507726Y-126698102D01*
X164429705Y-126509744D01*
X164316437Y-126340226D01*
X164172274Y-126196063D01*
X164002756Y-126082795D01*
X163814398Y-126004774D01*
X163614439Y-125965000D01*
X163410561Y-125965000D01*
X163210602Y-126004774D01*
X163022244Y-126082795D01*
X162852726Y-126196063D01*
X162708563Y-126340226D01*
X162595295Y-126509744D01*
X162517274Y-126698102D01*
X162477500Y-126898061D01*
X162477500Y-126960198D01*
X161996662Y-127441037D01*
X162044376Y-124780426D01*
X162360144Y-124464657D01*
X162394934Y-124639558D01*
X162472955Y-124827916D01*
X162586223Y-124997434D01*
X162730386Y-125141597D01*
X162899904Y-125254865D01*
X163088262Y-125332886D01*
X163288221Y-125372660D01*
X163492099Y-125372660D01*
X163692058Y-125332886D01*
X163880416Y-125254865D01*
X164049934Y-125141597D01*
X164194097Y-124997434D01*
X164307365Y-124827916D01*
X164385386Y-124639558D01*
X164401811Y-124556981D01*
X164488130Y-124592736D01*
X164688089Y-124632510D01*
X164891967Y-124632510D01*
X165091926Y-124592736D01*
X165280284Y-124514715D01*
X165449802Y-124401447D01*
X165593965Y-124257284D01*
X165707233Y-124087766D01*
X165785254Y-123899408D01*
X165825028Y-123699449D01*
X165825028Y-123495571D01*
X165785254Y-123295612D01*
X165707233Y-123107254D01*
X165593965Y-122937736D01*
X165550028Y-122893799D01*
X165550028Y-121647350D01*
X165553704Y-121610027D01*
X165551049Y-121583061D01*
X165887500Y-121583061D01*
X165887500Y-121786939D01*
X165927274Y-121986898D01*
X166005295Y-122175256D01*
X166118563Y-122344774D01*
X166162500Y-122388711D01*
X166162501Y-125278385D01*
X166158824Y-125315717D01*
X166162501Y-125353050D01*
X166167559Y-125404399D01*
X166173498Y-125464702D01*
X166216954Y-125607963D01*
X166287526Y-125739993D01*
X166332945Y-125795335D01*
X166382500Y-125855718D01*
X166411498Y-125879516D01*
X169140526Y-128608545D01*
X169164324Y-128637543D01*
X169280049Y-128732516D01*
X169412078Y-128803088D01*
X169555339Y-128846545D01*
X169666992Y-128857542D01*
X169667000Y-128857542D01*
X169704325Y-128861218D01*
X169741650Y-128857542D01*
X169931312Y-128857542D01*
X169975249Y-128901479D01*
X170144767Y-129014747D01*
X170333125Y-129092768D01*
X170533084Y-129132542D01*
X170736962Y-129132542D01*
X170936921Y-129092768D01*
X171125279Y-129014747D01*
X171294797Y-128901479D01*
X171438960Y-128757316D01*
X171552228Y-128587798D01*
X171630249Y-128399440D01*
X171670023Y-128199481D01*
X171670023Y-127995603D01*
X171630249Y-127795644D01*
X171552228Y-127607286D01*
X171438960Y-127437768D01*
X171294797Y-127293605D01*
X171125279Y-127180337D01*
X170944328Y-127105384D01*
X170945013Y-127101939D01*
X170945013Y-126898061D01*
X170905239Y-126698102D01*
X170827218Y-126509744D01*
X170713950Y-126340226D01*
X170622500Y-126248776D01*
X170622500Y-123893711D01*
X170666437Y-123849774D01*
X170779705Y-123680256D01*
X170857726Y-123491898D01*
X170897500Y-123291939D01*
X170897500Y-123088061D01*
X170857726Y-122888102D01*
X170779705Y-122699744D01*
X170666437Y-122530226D01*
X170522274Y-122386063D01*
X170352756Y-122272795D01*
X170164398Y-122194774D01*
X169964439Y-122155000D01*
X169760561Y-122155000D01*
X169560602Y-122194774D01*
X169372244Y-122272795D01*
X169202726Y-122386063D01*
X169058563Y-122530226D01*
X168945295Y-122699744D01*
X168867274Y-122888102D01*
X168827500Y-123088061D01*
X168827500Y-123291939D01*
X168867274Y-123491898D01*
X168945295Y-123680256D01*
X169058563Y-123849774D01*
X169102500Y-123893711D01*
X169102501Y-126345577D01*
X169072324Y-126390739D01*
X167682500Y-125000916D01*
X167682500Y-122388711D01*
X167726437Y-122344774D01*
X167839705Y-122175256D01*
X167917726Y-121986898D01*
X167957500Y-121786939D01*
X167957500Y-121583061D01*
X167917726Y-121383102D01*
X167839705Y-121194744D01*
X167726437Y-121025226D01*
X167582274Y-120881063D01*
X167412756Y-120767795D01*
X167224398Y-120689774D01*
X167024439Y-120650000D01*
X166820561Y-120650000D01*
X166620602Y-120689774D01*
X166432244Y-120767795D01*
X166262726Y-120881063D01*
X166118563Y-121025226D01*
X166005295Y-121194744D01*
X165927274Y-121383102D01*
X165887500Y-121583061D01*
X165551049Y-121583061D01*
X165550028Y-121572705D01*
X165550028Y-121572695D01*
X165542500Y-121496263D01*
X165542500Y-118235000D01*
X167960199Y-118235000D01*
X168346200Y-118621002D01*
X168369999Y-118650001D01*
X168398997Y-118673799D01*
X168485724Y-118744974D01*
X168617753Y-118815546D01*
X168761014Y-118859003D01*
X168910000Y-118873677D01*
X168947333Y-118870000D01*
X170777678Y-118870000D01*
X170815000Y-118873676D01*
X170852322Y-118870000D01*
X170852333Y-118870000D01*
X170963986Y-118859003D01*
X171107247Y-118815546D01*
X171239276Y-118744974D01*
X171355001Y-118650001D01*
X171378804Y-118620997D01*
X175299802Y-114700000D01*
X175361939Y-114700000D01*
X175561898Y-114660226D01*
X175750256Y-114582205D01*
X175919774Y-114468937D01*
X176063937Y-114324774D01*
X176177205Y-114155256D01*
X176255226Y-113966898D01*
X176295000Y-113766939D01*
X176295000Y-113563061D01*
X176276986Y-113472500D01*
X195542678Y-113472500D01*
X195580000Y-113476176D01*
X195617322Y-113472500D01*
X195617333Y-113472500D01*
X195728986Y-113461503D01*
X195872247Y-113418046D01*
X196004276Y-113347474D01*
X196120001Y-113252501D01*
X196143804Y-113223497D01*
X197185001Y-112182301D01*
X197185000Y-134124893D01*
G37*
X197185000Y-134124893D02*
X197161632Y-134101525D01*
X196918411Y-133939010D01*
X196648158Y-133827068D01*
X196361260Y-133770000D01*
X196068740Y-133770000D01*
X195781842Y-133827068D01*
X195511589Y-133939010D01*
X195268368Y-134101525D01*
X195061525Y-134308368D01*
X194945000Y-134482760D01*
X194828475Y-134308368D01*
X194621632Y-134101525D01*
X194378411Y-133939010D01*
X194108158Y-133827068D01*
X193821260Y-133770000D01*
X193528740Y-133770000D01*
X193241842Y-133827068D01*
X192971589Y-133939010D01*
X192728368Y-134101525D01*
X192521525Y-134308368D01*
X192396822Y-134495000D01*
X190854822Y-134495000D01*
X190817499Y-134491324D01*
X190780176Y-134495000D01*
X190780167Y-134495000D01*
X190668514Y-134505997D01*
X190525253Y-134549454D01*
X190393224Y-134620026D01*
X190277499Y-134714999D01*
X190253701Y-134743997D01*
X189507699Y-135490000D01*
X189445561Y-135490000D01*
X189245602Y-135529774D01*
X189057244Y-135607795D01*
X188887726Y-135721063D01*
X188743563Y-135865226D01*
X188630295Y-136034744D01*
X188552274Y-136223102D01*
X188512500Y-136423061D01*
X188512500Y-136626939D01*
X188552274Y-136826898D01*
X188630295Y-137015256D01*
X188743563Y-137184774D01*
X188887726Y-137328937D01*
X189057244Y-137442205D01*
X189245602Y-137520226D01*
X189445561Y-137560000D01*
X189649439Y-137560000D01*
X189849398Y-137520226D01*
X190037756Y-137442205D01*
X190207274Y-137328937D01*
X190351437Y-137184774D01*
X190417500Y-137085903D01*
X190417500Y-137261939D01*
X190457274Y-137461898D01*
X190535295Y-137650256D01*
X190648563Y-137819774D01*
X190792726Y-137963937D01*
X190962244Y-138077205D01*
X191150602Y-138155226D01*
X191350561Y-138195000D01*
X191554439Y-138195000D01*
X191754398Y-138155226D01*
X191942756Y-138077205D01*
X192112274Y-137963937D01*
X192190000Y-137886211D01*
X192190000Y-137941260D01*
X192247068Y-138228158D01*
X192359010Y-138498411D01*
X192521525Y-138741632D01*
X192728368Y-138948475D01*
X192910534Y-139070195D01*
X192793645Y-139139822D01*
X192577412Y-139334731D01*
X192403359Y-139568080D01*
X192278175Y-139830901D01*
X192233524Y-139978110D01*
X192354845Y-140208000D01*
X193548000Y-140208000D01*
X193548000Y-140188000D01*
X193802000Y-140188000D01*
X193802000Y-140208000D01*
X196088000Y-140208000D01*
X196088000Y-140188000D01*
X196342000Y-140188000D01*
X196342000Y-140208000D01*
X196362000Y-140208000D01*
X196362000Y-140462000D01*
X196342000Y-140462000D01*
X196342000Y-141661250D01*
X196500750Y-141820000D01*
X197065000Y-141823072D01*
X197185000Y-141811253D01*
X197185000Y-144392710D01*
X196462711Y-145115000D01*
X154409802Y-145115000D01*
X155133503Y-144391299D01*
X155162501Y-144367501D01*
X155206460Y-144313937D01*
X155218300Y-144299511D01*
X155232726Y-144313937D01*
X155402244Y-144427205D01*
X155590602Y-144505226D01*
X155790561Y-144545000D01*
X155994439Y-144545000D01*
X156194398Y-144505226D01*
X156382756Y-144427205D01*
X156552274Y-144313937D01*
X156696437Y-144169774D01*
X156809705Y-144000256D01*
X156887726Y-143811898D01*
X156927500Y-143611939D01*
X156927500Y-143408061D01*
X156887726Y-143208102D01*
X156809705Y-143019744D01*
X156696437Y-142850226D01*
X156652500Y-142806289D01*
X156652500Y-142308711D01*
X156696437Y-142264774D01*
X156809705Y-142095256D01*
X156887726Y-141906898D01*
X156927500Y-141706939D01*
X156927500Y-141503061D01*
X156887726Y-141303102D01*
X156809705Y-141114744D01*
X156696437Y-140945226D01*
X156552274Y-140801063D01*
X156517009Y-140777500D01*
X161568768Y-140777500D01*
X161606090Y-140781176D01*
X161643412Y-140777500D01*
X161643423Y-140777500D01*
X161755076Y-140766503D01*
X161898337Y-140723046D01*
X162030366Y-140652474D01*
X162146091Y-140557501D01*
X162169893Y-140528498D01*
X162698021Y-140000371D01*
X162711997Y-139998994D01*
X162855258Y-139955537D01*
X162930046Y-139915561D01*
X169462500Y-139915561D01*
X169462500Y-140119439D01*
X169502274Y-140319398D01*
X169580295Y-140507756D01*
X169693563Y-140677274D01*
X169837726Y-140821437D01*
X170007244Y-140934705D01*
X170195602Y-141012726D01*
X170395561Y-141052500D01*
X170599439Y-141052500D01*
X170799398Y-141012726D01*
X170987756Y-140934705D01*
X171157274Y-140821437D01*
X171286821Y-140691890D01*
X192233524Y-140691890D01*
X192278175Y-140839099D01*
X192403359Y-141101920D01*
X192577412Y-141335269D01*
X192793645Y-141530178D01*
X193043748Y-141679157D01*
X193318109Y-141776481D01*
X193548000Y-141655814D01*
X193548000Y-140462000D01*
X193802000Y-140462000D01*
X193802000Y-141655814D01*
X194031891Y-141776481D01*
X194306252Y-141679157D01*
X194556355Y-141530178D01*
X194752502Y-141353374D01*
X194775498Y-141429180D01*
X194834463Y-141539494D01*
X194913815Y-141636185D01*
X195010506Y-141715537D01*
X195120820Y-141774502D01*
X195240518Y-141810812D01*
X195365000Y-141823072D01*
X195929250Y-141820000D01*
X196088000Y-141661250D01*
X196088000Y-140462000D01*
X193802000Y-140462000D01*
X193548000Y-140462000D01*
X192354845Y-140462000D01*
X192233524Y-140691890D01*
X171286821Y-140691890D01*
X171301437Y-140677274D01*
X171414705Y-140507756D01*
X171492726Y-140319398D01*
X171532500Y-140119439D01*
X171532500Y-140057301D01*
X172082302Y-139507500D01*
X181890178Y-139507500D01*
X181927500Y-139511176D01*
X181964822Y-139507500D01*
X181964833Y-139507500D01*
X182076486Y-139496503D01*
X182219747Y-139453046D01*
X182351776Y-139382474D01*
X182467501Y-139287501D01*
X182491303Y-139258498D01*
X182602301Y-139147500D01*
X182664439Y-139147500D01*
X182864398Y-139107726D01*
X183052756Y-139029705D01*
X183222274Y-138916437D01*
X183366437Y-138772274D01*
X183479705Y-138602756D01*
X183557726Y-138414398D01*
X183597500Y-138214439D01*
X183597500Y-138010561D01*
X183557726Y-137810602D01*
X183479705Y-137622244D01*
X183366437Y-137452726D01*
X183222274Y-137308563D01*
X183052756Y-137195295D01*
X182864398Y-137117274D01*
X182664439Y-137077500D01*
X182460561Y-137077500D01*
X182260602Y-137117274D01*
X182072244Y-137195295D01*
X181902726Y-137308563D01*
X181758563Y-137452726D01*
X181645295Y-137622244D01*
X181567274Y-137810602D01*
X181532087Y-137987500D01*
X171804822Y-137987500D01*
X171767499Y-137983824D01*
X171730176Y-137987500D01*
X171730167Y-137987500D01*
X171618514Y-137998497D01*
X171475253Y-138041954D01*
X171343224Y-138112526D01*
X171227499Y-138207499D01*
X171203701Y-138236497D01*
X170457699Y-138982500D01*
X170395561Y-138982500D01*
X170195602Y-139022274D01*
X170007244Y-139100295D01*
X169837726Y-139213563D01*
X169693563Y-139357726D01*
X169580295Y-139527244D01*
X169502274Y-139715602D01*
X169462500Y-139915561D01*
X162930046Y-139915561D01*
X162987287Y-139884965D01*
X163103012Y-139789992D01*
X163126815Y-139760988D01*
X164236004Y-138651800D01*
X164265002Y-138628002D01*
X164309316Y-138574005D01*
X164359975Y-138512278D01*
X164430547Y-138380248D01*
X164438130Y-138355249D01*
X164474004Y-138236987D01*
X164485001Y-138125334D01*
X164485001Y-138125324D01*
X164488677Y-138088002D01*
X164485001Y-138050679D01*
X164485001Y-137090060D01*
X164710928Y-137135000D01*
X165289072Y-137135000D01*
X165856108Y-137022209D01*
X166390244Y-136800963D01*
X166870953Y-136479763D01*
X167279763Y-136070953D01*
X167600963Y-135590244D01*
X167822209Y-135056108D01*
X167872067Y-134805456D01*
X169548367Y-134805456D01*
X169563041Y-134954442D01*
X169606498Y-135097703D01*
X169677070Y-135229732D01*
X169772043Y-135345457D01*
X169887768Y-135440430D01*
X170019797Y-135511002D01*
X170163058Y-135554459D01*
X170274711Y-135565456D01*
X175089124Y-135565456D01*
X175133061Y-135609393D01*
X175302579Y-135722661D01*
X175490937Y-135800682D01*
X175690896Y-135840456D01*
X175894774Y-135840456D01*
X176094733Y-135800682D01*
X176283091Y-135722661D01*
X176452609Y-135609393D01*
X176496546Y-135565456D01*
X178529722Y-135565456D01*
X178567044Y-135569132D01*
X178604366Y-135565456D01*
X178604377Y-135565456D01*
X178716030Y-135554459D01*
X178859291Y-135511002D01*
X178991320Y-135440430D01*
X179107045Y-135345457D01*
X179130848Y-135316453D01*
X185455648Y-128991653D01*
X187687952Y-128991653D01*
X187843962Y-129307214D01*
X188218745Y-129498020D01*
X188623551Y-129612044D01*
X188678321Y-129616336D01*
X188570226Y-129688563D01*
X188426063Y-129832726D01*
X188312795Y-130002244D01*
X188234774Y-130190602D01*
X188195000Y-130390561D01*
X188195000Y-130594439D01*
X188234774Y-130794398D01*
X188312795Y-130982756D01*
X188426063Y-131152274D01*
X188570226Y-131296437D01*
X188739744Y-131409705D01*
X188928102Y-131487726D01*
X189128061Y-131527500D01*
X189331939Y-131527500D01*
X189531898Y-131487726D01*
X189720256Y-131409705D01*
X189889774Y-131296437D01*
X189933711Y-131252500D01*
X192367678Y-131252500D01*
X192405000Y-131256176D01*
X192442322Y-131252500D01*
X192442333Y-131252500D01*
X192553986Y-131241503D01*
X192697247Y-131198046D01*
X192829276Y-131127474D01*
X192945001Y-131032501D01*
X192968803Y-131003498D01*
X193868509Y-130103794D01*
X193897501Y-130080001D01*
X193921295Y-130051008D01*
X193921299Y-130051004D01*
X193992473Y-129964277D01*
X193992474Y-129964276D01*
X194063046Y-129832247D01*
X194106503Y-129688986D01*
X194117500Y-129577333D01*
X194117500Y-129577324D01*
X194121176Y-129540001D01*
X194117500Y-129502678D01*
X194117500Y-126433711D01*
X194161437Y-126389774D01*
X194274705Y-126220256D01*
X194352726Y-126031898D01*
X194392500Y-125831939D01*
X194392500Y-125628061D01*
X194352726Y-125428102D01*
X194274705Y-125239744D01*
X194161437Y-125070226D01*
X194017274Y-124926063D01*
X193847756Y-124812795D01*
X193659398Y-124734774D01*
X193459439Y-124695000D01*
X193255561Y-124695000D01*
X193055602Y-124734774D01*
X192867244Y-124812795D01*
X192697726Y-124926063D01*
X192553563Y-125070226D01*
X192440295Y-125239744D01*
X192362274Y-125428102D01*
X192322500Y-125628061D01*
X192322500Y-125831939D01*
X192362274Y-126031898D01*
X192440295Y-126220256D01*
X192553563Y-126389774D01*
X192597501Y-126433712D01*
X192597500Y-129225197D01*
X192090199Y-129732500D01*
X189933711Y-129732500D01*
X189889774Y-129688563D01*
X189720256Y-129575295D01*
X189633074Y-129539183D01*
X189860383Y-129465243D01*
X190156038Y-129307214D01*
X190312048Y-128991653D01*
X189000000Y-127679605D01*
X187687952Y-128991653D01*
X185455648Y-128991653D01*
X186248504Y-128198798D01*
X186277501Y-128175001D01*
X186309957Y-128135453D01*
X186372474Y-128059277D01*
X186443046Y-127927247D01*
X186472999Y-127828503D01*
X186486503Y-127783986D01*
X186497500Y-127672333D01*
X186497500Y-127672324D01*
X186501176Y-127635001D01*
X186497500Y-127597678D01*
X186497500Y-127542824D01*
X186855098Y-127542824D01*
X186904666Y-127960451D01*
X187034757Y-128360383D01*
X187192786Y-128656038D01*
X187508347Y-128812048D01*
X188820395Y-127500000D01*
X189179605Y-127500000D01*
X190491653Y-128812048D01*
X190807214Y-128656038D01*
X190998020Y-128281255D01*
X191112044Y-127876449D01*
X191144902Y-127457176D01*
X191095334Y-127039549D01*
X190965243Y-126639617D01*
X190807214Y-126343962D01*
X190491653Y-126187952D01*
X189179605Y-127500000D01*
X188820395Y-127500000D01*
X187508347Y-126187952D01*
X187192786Y-126343962D01*
X187001980Y-126718745D01*
X186887956Y-127123551D01*
X186855098Y-127542824D01*
X186497500Y-127542824D01*
X186497500Y-124528711D01*
X186541437Y-124484774D01*
X186654705Y-124315256D01*
X186732726Y-124126898D01*
X186772500Y-123926939D01*
X186772500Y-123723061D01*
X186732726Y-123523102D01*
X186654705Y-123334744D01*
X186541437Y-123165226D01*
X186497500Y-123121289D01*
X186497500Y-123077301D01*
X187152055Y-122422746D01*
X187107988Y-122488698D01*
X186947047Y-122877244D01*
X186865000Y-123289721D01*
X186865000Y-123710279D01*
X186947047Y-124122756D01*
X187107988Y-124511302D01*
X187341637Y-124860983D01*
X187639017Y-125158363D01*
X187988698Y-125392012D01*
X188248113Y-125499465D01*
X188139617Y-125534757D01*
X187843962Y-125692786D01*
X187687952Y-126008347D01*
X189000000Y-127320395D01*
X190312048Y-126008347D01*
X190156038Y-125692786D01*
X189781255Y-125501980D01*
X189760161Y-125496038D01*
X190011302Y-125392012D01*
X190360983Y-125158363D01*
X190658363Y-124860983D01*
X190892012Y-124511302D01*
X191052953Y-124122756D01*
X191135000Y-123710279D01*
X191135000Y-123289721D01*
X191052953Y-122877244D01*
X190892012Y-122488698D01*
X190847944Y-122422746D01*
X192761201Y-124336003D01*
X192784999Y-124365001D01*
X192900724Y-124459974D01*
X193032753Y-124530546D01*
X193176014Y-124574003D01*
X193287667Y-124585000D01*
X193287675Y-124585000D01*
X193325000Y-124588676D01*
X193362325Y-124585000D01*
X194876289Y-124585000D01*
X194920226Y-124628937D01*
X195089744Y-124742205D01*
X195278102Y-124820226D01*
X195478061Y-124860000D01*
X195681939Y-124860000D01*
X195881898Y-124820226D01*
X196070256Y-124742205D01*
X196239774Y-124628937D01*
X196383937Y-124484774D01*
X196497205Y-124315256D01*
X196575226Y-124126898D01*
X196615000Y-123926939D01*
X196615000Y-123723061D01*
X196575226Y-123523102D01*
X196497205Y-123334744D01*
X196383937Y-123165226D01*
X196239774Y-123021063D01*
X196070256Y-122907795D01*
X195881898Y-122829774D01*
X195681939Y-122790000D01*
X195478061Y-122790000D01*
X195278102Y-122829774D01*
X195089744Y-122907795D01*
X194920226Y-123021063D01*
X194876289Y-123065000D01*
X193639802Y-123065000D01*
X190948860Y-120374059D01*
X191052953Y-120122756D01*
X191135000Y-119710279D01*
X191135000Y-119289721D01*
X191052953Y-118877244D01*
X190892012Y-118488698D01*
X190658363Y-118139017D01*
X190360983Y-117841637D01*
X190011302Y-117607988D01*
X189622756Y-117447047D01*
X189210279Y-117365000D01*
X188789721Y-117365000D01*
X188377244Y-117447047D01*
X188125941Y-117551140D01*
X186268804Y-115694003D01*
X186245001Y-115664999D01*
X186129276Y-115570026D01*
X185997247Y-115499454D01*
X185853986Y-115455997D01*
X185742333Y-115445000D01*
X185742322Y-115445000D01*
X185705000Y-115441324D01*
X185667678Y-115445000D01*
X176916211Y-115445000D01*
X176872274Y-115401063D01*
X176702756Y-115287795D01*
X176514398Y-115209774D01*
X176314439Y-115170000D01*
X176110561Y-115170000D01*
X175910602Y-115209774D01*
X175722244Y-115287795D01*
X175552726Y-115401063D01*
X175408563Y-115545226D01*
X175295295Y-115714744D01*
X175217274Y-115903102D01*
X175177500Y-116103061D01*
X175177500Y-116306939D01*
X175217274Y-116506898D01*
X175295295Y-116695256D01*
X175408563Y-116864774D01*
X175552726Y-117008937D01*
X175722244Y-117122205D01*
X175910602Y-117200226D01*
X176110561Y-117240000D01*
X176314439Y-117240000D01*
X176514398Y-117200226D01*
X176702756Y-117122205D01*
X176872274Y-117008937D01*
X176916211Y-116965000D01*
X185390199Y-116965000D01*
X187051140Y-118625941D01*
X186947047Y-118877244D01*
X186865000Y-119289721D01*
X186865000Y-119710279D01*
X186947047Y-120122756D01*
X187051140Y-120374059D01*
X185226498Y-122198701D01*
X185197500Y-122222499D01*
X185173702Y-122251497D01*
X185173701Y-122251498D01*
X185102526Y-122338224D01*
X185031954Y-122470254D01*
X185006240Y-122555026D01*
X184988498Y-122613514D01*
X184981927Y-122680226D01*
X184979895Y-122700865D01*
X184892012Y-122488698D01*
X184658363Y-122139017D01*
X184360983Y-121841637D01*
X184011302Y-121607988D01*
X183750596Y-121500000D01*
X184011302Y-121392012D01*
X184360983Y-121158363D01*
X184658363Y-120860983D01*
X184892012Y-120511302D01*
X185052953Y-120122756D01*
X185135000Y-119710279D01*
X185135000Y-119289721D01*
X185052953Y-118877244D01*
X184892012Y-118488698D01*
X184658363Y-118139017D01*
X184360983Y-117841637D01*
X184011302Y-117607988D01*
X183622756Y-117447047D01*
X183210279Y-117365000D01*
X182789721Y-117365000D01*
X182377244Y-117447047D01*
X181988698Y-117607988D01*
X181639017Y-117841637D01*
X181341637Y-118139017D01*
X181107988Y-118488698D01*
X180947047Y-118877244D01*
X180865000Y-119289721D01*
X180865000Y-119710279D01*
X180947047Y-120122756D01*
X181107988Y-120511302D01*
X181341637Y-120860983D01*
X181639017Y-121158363D01*
X181988698Y-121392012D01*
X182249404Y-121500000D01*
X181988698Y-121607988D01*
X181639017Y-121841637D01*
X181341637Y-122139017D01*
X181107988Y-122488698D01*
X180947047Y-122877244D01*
X180865000Y-123289721D01*
X180865000Y-123710279D01*
X180947047Y-124122756D01*
X181107988Y-124511302D01*
X181341637Y-124860983D01*
X181639017Y-125158363D01*
X181988698Y-125392012D01*
X182249404Y-125500000D01*
X181988698Y-125607988D01*
X181639017Y-125841637D01*
X181341637Y-126139017D01*
X181107988Y-126488698D01*
X180947047Y-126877244D01*
X180865000Y-127289721D01*
X180865000Y-127710279D01*
X180947047Y-128122756D01*
X181107988Y-128511302D01*
X181341637Y-128860983D01*
X181639017Y-129158363D01*
X181988698Y-129392012D01*
X182377244Y-129552953D01*
X182683773Y-129613926D01*
X178252243Y-134045456D01*
X176496546Y-134045456D01*
X176452609Y-134001519D01*
X176283091Y-133888251D01*
X176094733Y-133810230D01*
X175894774Y-133770456D01*
X175690896Y-133770456D01*
X175490937Y-133810230D01*
X175302579Y-133888251D01*
X175133061Y-134001519D01*
X175089124Y-134045456D01*
X170274711Y-134045456D01*
X170163058Y-134056453D01*
X170019797Y-134099910D01*
X169887768Y-134170482D01*
X169772043Y-134265455D01*
X169677070Y-134381180D01*
X169606498Y-134513209D01*
X169563041Y-134656470D01*
X169548367Y-134805456D01*
X167872067Y-134805456D01*
X167935000Y-134489072D01*
X167935000Y-133910928D01*
X167822209Y-133343892D01*
X167600963Y-132809756D01*
X167279763Y-132329047D01*
X166870953Y-131920237D01*
X166390244Y-131599037D01*
X165856108Y-131377791D01*
X165289072Y-131265000D01*
X164710928Y-131265000D01*
X164143892Y-131377791D01*
X163609756Y-131599037D01*
X163129047Y-131920237D01*
X162720237Y-132329047D01*
X162685000Y-132381783D01*
X162685000Y-131124801D01*
X164667817Y-129141984D01*
X171865000Y-129141984D01*
X171865000Y-129858016D01*
X172004691Y-130560290D01*
X172278705Y-131221818D01*
X172676511Y-131817177D01*
X173182823Y-132323489D01*
X173778182Y-132721295D01*
X174439710Y-132995309D01*
X175141984Y-133135000D01*
X175858016Y-133135000D01*
X176560290Y-132995309D01*
X177221818Y-132721295D01*
X177817177Y-132323489D01*
X178323489Y-131817177D01*
X178721295Y-131221818D01*
X178995309Y-130560290D01*
X179135000Y-129858016D01*
X179135000Y-129141984D01*
X178995309Y-128439710D01*
X178721295Y-127778182D01*
X178323489Y-127182823D01*
X177817177Y-126676511D01*
X177221818Y-126278705D01*
X176560290Y-126004691D01*
X175858016Y-125865000D01*
X175141984Y-125865000D01*
X174439710Y-126004691D01*
X173778182Y-126278705D01*
X173182823Y-126676511D01*
X172676511Y-127182823D01*
X172278705Y-127778182D01*
X172004691Y-128439710D01*
X171865000Y-129141984D01*
X164667817Y-129141984D01*
X165457302Y-128352500D01*
X165519439Y-128352500D01*
X165719398Y-128312726D01*
X165907756Y-128234705D01*
X166077274Y-128121437D01*
X166221437Y-127977274D01*
X166334705Y-127807756D01*
X166412726Y-127619398D01*
X166452500Y-127419439D01*
X166452500Y-127215561D01*
X166412726Y-127015602D01*
X166334705Y-126827244D01*
X166221437Y-126657726D01*
X166077274Y-126513563D01*
X165907756Y-126400295D01*
X165719398Y-126322274D01*
X165519439Y-126282500D01*
X165315561Y-126282500D01*
X165115602Y-126322274D01*
X164927244Y-126400295D01*
X164757726Y-126513563D01*
X164613563Y-126657726D01*
X164525816Y-126789049D01*
X164507726Y-126698102D01*
X164429705Y-126509744D01*
X164316437Y-126340226D01*
X164172274Y-126196063D01*
X164002756Y-126082795D01*
X163814398Y-126004774D01*
X163614439Y-125965000D01*
X163410561Y-125965000D01*
X163210602Y-126004774D01*
X163022244Y-126082795D01*
X162852726Y-126196063D01*
X162708563Y-126340226D01*
X162595295Y-126509744D01*
X162517274Y-126698102D01*
X162477500Y-126898061D01*
X162477500Y-126960198D01*
X161996662Y-127441037D01*
X162044376Y-124780426D01*
X162360144Y-124464657D01*
X162394934Y-124639558D01*
X162472955Y-124827916D01*
X162586223Y-124997434D01*
X162730386Y-125141597D01*
X162899904Y-125254865D01*
X163088262Y-125332886D01*
X163288221Y-125372660D01*
X163492099Y-125372660D01*
X163692058Y-125332886D01*
X163880416Y-125254865D01*
X164049934Y-125141597D01*
X164194097Y-124997434D01*
X164307365Y-124827916D01*
X164385386Y-124639558D01*
X164401811Y-124556981D01*
X164488130Y-124592736D01*
X164688089Y-124632510D01*
X164891967Y-124632510D01*
X165091926Y-124592736D01*
X165280284Y-124514715D01*
X165449802Y-124401447D01*
X165593965Y-124257284D01*
X165707233Y-124087766D01*
X165785254Y-123899408D01*
X165825028Y-123699449D01*
X165825028Y-123495571D01*
X165785254Y-123295612D01*
X165707233Y-123107254D01*
X165593965Y-122937736D01*
X165550028Y-122893799D01*
X165550028Y-121647350D01*
X165553704Y-121610027D01*
X165551049Y-121583061D01*
X165887500Y-121583061D01*
X165887500Y-121786939D01*
X165927274Y-121986898D01*
X166005295Y-122175256D01*
X166118563Y-122344774D01*
X166162500Y-122388711D01*
X166162501Y-125278385D01*
X166158824Y-125315717D01*
X166162501Y-125353050D01*
X166167559Y-125404399D01*
X166173498Y-125464702D01*
X166216954Y-125607963D01*
X166287526Y-125739993D01*
X166332945Y-125795335D01*
X166382500Y-125855718D01*
X166411498Y-125879516D01*
X169140526Y-128608545D01*
X169164324Y-128637543D01*
X169280049Y-128732516D01*
X169412078Y-128803088D01*
X169555339Y-128846545D01*
X169666992Y-128857542D01*
X169667000Y-128857542D01*
X169704325Y-128861218D01*
X169741650Y-128857542D01*
X169931312Y-128857542D01*
X169975249Y-128901479D01*
X170144767Y-129014747D01*
X170333125Y-129092768D01*
X170533084Y-129132542D01*
X170736962Y-129132542D01*
X170936921Y-129092768D01*
X171125279Y-129014747D01*
X171294797Y-128901479D01*
X171438960Y-128757316D01*
X171552228Y-128587798D01*
X171630249Y-128399440D01*
X171670023Y-128199481D01*
X171670023Y-127995603D01*
X171630249Y-127795644D01*
X171552228Y-127607286D01*
X171438960Y-127437768D01*
X171294797Y-127293605D01*
X171125279Y-127180337D01*
X170944328Y-127105384D01*
X170945013Y-127101939D01*
X170945013Y-126898061D01*
X170905239Y-126698102D01*
X170827218Y-126509744D01*
X170713950Y-126340226D01*
X170622500Y-126248776D01*
X170622500Y-123893711D01*
X170666437Y-123849774D01*
X170779705Y-123680256D01*
X170857726Y-123491898D01*
X170897500Y-123291939D01*
X170897500Y-123088061D01*
X170857726Y-122888102D01*
X170779705Y-122699744D01*
X170666437Y-122530226D01*
X170522274Y-122386063D01*
X170352756Y-122272795D01*
X170164398Y-122194774D01*
X169964439Y-122155000D01*
X169760561Y-122155000D01*
X169560602Y-122194774D01*
X169372244Y-122272795D01*
X169202726Y-122386063D01*
X169058563Y-122530226D01*
X168945295Y-122699744D01*
X168867274Y-122888102D01*
X168827500Y-123088061D01*
X168827500Y-123291939D01*
X168867274Y-123491898D01*
X168945295Y-123680256D01*
X169058563Y-123849774D01*
X169102500Y-123893711D01*
X169102501Y-126345577D01*
X169072324Y-126390739D01*
X167682500Y-125000916D01*
X167682500Y-122388711D01*
X167726437Y-122344774D01*
X167839705Y-122175256D01*
X167917726Y-121986898D01*
X167957500Y-121786939D01*
X167957500Y-121583061D01*
X167917726Y-121383102D01*
X167839705Y-121194744D01*
X167726437Y-121025226D01*
X167582274Y-120881063D01*
X167412756Y-120767795D01*
X167224398Y-120689774D01*
X167024439Y-120650000D01*
X166820561Y-120650000D01*
X166620602Y-120689774D01*
X166432244Y-120767795D01*
X166262726Y-120881063D01*
X166118563Y-121025226D01*
X166005295Y-121194744D01*
X165927274Y-121383102D01*
X165887500Y-121583061D01*
X165551049Y-121583061D01*
X165550028Y-121572705D01*
X165550028Y-121572695D01*
X165542500Y-121496263D01*
X165542500Y-118235000D01*
X167960199Y-118235000D01*
X168346200Y-118621002D01*
X168369999Y-118650001D01*
X168398997Y-118673799D01*
X168485724Y-118744974D01*
X168617753Y-118815546D01*
X168761014Y-118859003D01*
X168910000Y-118873677D01*
X168947333Y-118870000D01*
X170777678Y-118870000D01*
X170815000Y-118873676D01*
X170852322Y-118870000D01*
X170852333Y-118870000D01*
X170963986Y-118859003D01*
X171107247Y-118815546D01*
X171239276Y-118744974D01*
X171355001Y-118650001D01*
X171378804Y-118620997D01*
X175299802Y-114700000D01*
X175361939Y-114700000D01*
X175561898Y-114660226D01*
X175750256Y-114582205D01*
X175919774Y-114468937D01*
X176063937Y-114324774D01*
X176177205Y-114155256D01*
X176255226Y-113966898D01*
X176295000Y-113766939D01*
X176295000Y-113563061D01*
X176276986Y-113472500D01*
X195542678Y-113472500D01*
X195580000Y-113476176D01*
X195617322Y-113472500D01*
X195617333Y-113472500D01*
X195728986Y-113461503D01*
X195872247Y-113418046D01*
X196004276Y-113347474D01*
X196120001Y-113252501D01*
X196143804Y-113223497D01*
X197185001Y-112182301D01*
X197185000Y-134124893D01*
G36*
X162693748Y-137485858D02*
G01*
X162679605Y-137500000D01*
X162693748Y-137514143D01*
X162514143Y-137693748D01*
X162500000Y-137679605D01*
X162485858Y-137693748D01*
X162306253Y-137514143D01*
X162320395Y-137500000D01*
X162306253Y-137485858D01*
X162485858Y-137306253D01*
X162500000Y-137320395D01*
X162514143Y-137306253D01*
X162693748Y-137485858D01*
G37*
X162693748Y-137485858D02*
X162679605Y-137500000D01*
X162693748Y-137514143D01*
X162514143Y-137693748D01*
X162500000Y-137679605D01*
X162485858Y-137693748D01*
X162306253Y-137514143D01*
X162320395Y-137500000D01*
X162306253Y-137485858D01*
X162485858Y-137306253D01*
X162500000Y-137320395D01*
X162514143Y-137306253D01*
X162693748Y-137485858D01*
G36*
X160312726Y-111908563D02*
G01*
X160168563Y-112052726D01*
X160055295Y-112222244D01*
X159977274Y-112410602D01*
X159937500Y-112610561D01*
X159937500Y-112672698D01*
X159387699Y-113222500D01*
X157517322Y-113222500D01*
X157479999Y-113218824D01*
X157442677Y-113222500D01*
X157442667Y-113222500D01*
X157331014Y-113233497D01*
X157189912Y-113276299D01*
X157187753Y-113276954D01*
X157055723Y-113347526D01*
X156972083Y-113416168D01*
X156939999Y-113442499D01*
X156916201Y-113471497D01*
X155514012Y-114873687D01*
X155485008Y-114897490D01*
X155444415Y-114946953D01*
X155390035Y-115013215D01*
X155349687Y-115088700D01*
X155319463Y-115145245D01*
X155276006Y-115288506D01*
X155265009Y-115400159D01*
X155265009Y-115400169D01*
X155261333Y-115437491D01*
X155265009Y-115474814D01*
X155265010Y-119859524D01*
X154430000Y-120694534D01*
X154430000Y-118147322D01*
X154433676Y-118109999D01*
X154430000Y-118072676D01*
X154430000Y-118072667D01*
X154419003Y-117961014D01*
X154375546Y-117817753D01*
X154304974Y-117685724D01*
X154210001Y-117569999D01*
X154181003Y-117546201D01*
X152615982Y-115981180D01*
X152692247Y-115958046D01*
X152824276Y-115887474D01*
X152940001Y-115792501D01*
X152963804Y-115763497D01*
X154662302Y-114065000D01*
X154724439Y-114065000D01*
X154924398Y-114025226D01*
X155112756Y-113947205D01*
X155282274Y-113833937D01*
X155426437Y-113689774D01*
X155539705Y-113520256D01*
X155617726Y-113331898D01*
X155657500Y-113131939D01*
X155657500Y-112928061D01*
X155617726Y-112728102D01*
X155539705Y-112539744D01*
X155426437Y-112370226D01*
X155282274Y-112226063D01*
X155112756Y-112112795D01*
X154924398Y-112034774D01*
X154724439Y-111995000D01*
X154520561Y-111995000D01*
X154320602Y-112034774D01*
X154132244Y-112112795D01*
X153962726Y-112226063D01*
X153818563Y-112370226D01*
X153705295Y-112539744D01*
X153627274Y-112728102D01*
X153587500Y-112928061D01*
X153587500Y-112990198D01*
X152085199Y-114492500D01*
X151892000Y-114492500D01*
X151892000Y-111887000D01*
X160344997Y-111887000D01*
X160312726Y-111908563D01*
G37*
X160312726Y-111908563D02*
X160168563Y-112052726D01*
X160055295Y-112222244D01*
X159977274Y-112410602D01*
X159937500Y-112610561D01*
X159937500Y-112672698D01*
X159387699Y-113222500D01*
X157517322Y-113222500D01*
X157479999Y-113218824D01*
X157442677Y-113222500D01*
X157442667Y-113222500D01*
X157331014Y-113233497D01*
X157189912Y-113276299D01*
X157187753Y-113276954D01*
X157055723Y-113347526D01*
X156972083Y-113416168D01*
X156939999Y-113442499D01*
X156916201Y-113471497D01*
X155514012Y-114873687D01*
X155485008Y-114897490D01*
X155444415Y-114946953D01*
X155390035Y-115013215D01*
X155349687Y-115088700D01*
X155319463Y-115145245D01*
X155276006Y-115288506D01*
X155265009Y-115400159D01*
X155265009Y-115400169D01*
X155261333Y-115437491D01*
X155265009Y-115474814D01*
X155265010Y-119859524D01*
X154430000Y-120694534D01*
X154430000Y-118147322D01*
X154433676Y-118109999D01*
X154430000Y-118072676D01*
X154430000Y-118072667D01*
X154419003Y-117961014D01*
X154375546Y-117817753D01*
X154304974Y-117685724D01*
X154210001Y-117569999D01*
X154181003Y-117546201D01*
X152615982Y-115981180D01*
X152692247Y-115958046D01*
X152824276Y-115887474D01*
X152940001Y-115792501D01*
X152963804Y-115763497D01*
X154662302Y-114065000D01*
X154724439Y-114065000D01*
X154924398Y-114025226D01*
X155112756Y-113947205D01*
X155282274Y-113833937D01*
X155426437Y-113689774D01*
X155539705Y-113520256D01*
X155617726Y-113331898D01*
X155657500Y-113131939D01*
X155657500Y-112928061D01*
X155617726Y-112728102D01*
X155539705Y-112539744D01*
X155426437Y-112370226D01*
X155282274Y-112226063D01*
X155112756Y-112112795D01*
X154924398Y-112034774D01*
X154724439Y-111995000D01*
X154520561Y-111995000D01*
X154320602Y-112034774D01*
X154132244Y-112112795D01*
X153962726Y-112226063D01*
X153818563Y-112370226D01*
X153705295Y-112539744D01*
X153627274Y-112728102D01*
X153587500Y-112928061D01*
X153587500Y-112990198D01*
X152085199Y-114492500D01*
X151892000Y-114492500D01*
X151892000Y-111887000D01*
X160344997Y-111887000D01*
X160312726Y-111908563D01*
M02*
