G04 #@! TF.GenerationSoftware,KiCad,Pcbnew,(5.1.5)-3*
G04 #@! TF.CreationDate,2020-06-04T18:22:51+02:00*
G04 #@! TF.ProjectId,SYS_StepAtten,5359535f-5374-4657-9041-7474656e2e6b,v1.0*
G04 #@! TF.SameCoordinates,Original*
G04 #@! TF.FileFunction,Copper,L2,Bot*
G04 #@! TF.FilePolarity,Positive*
%FSLAX46Y46*%
G04 Gerber Fmt 4.6, Leading zero omitted, Abs format (unit mm)*
G04 Created by KiCad (PCBNEW (5.1.5)-3) date 2020-06-04 18:22:51*
%MOMM*%
%LPD*%
G04 APERTURE LIST*
%ADD10C,0.100000*%
%ADD11C,0.150000*%
%ADD12C,0.300000*%
%ADD13C,0.400000*%
%ADD14C,0.050000*%
%ADD15O,1.700000X1.700000*%
%ADD16R,1.700000X1.700000*%
%ADD17C,6.000000*%
%ADD18C,3.000000*%
%ADD19C,2.032000*%
%ADD20C,3.048000*%
%ADD21R,3.500000X3.500000*%
%ADD22C,1.440000*%
%ADD23C,1.800000*%
%ADD24C,4.600000*%
%ADD25R,1.905000X2.000000*%
%ADD26O,1.905000X2.000000*%
%ADD27C,0.800000*%
%ADD28C,0.800000*%
%ADD29C,0.250000*%
%ADD30C,0.600000*%
%ADD31C,0.254000*%
G04 APERTURE END LIST*
D10*
D11*
X177002200Y-166007200D02*
X177002200Y-198007200D01*
X285002200Y-198007200D01*
X285002200Y-166007200D01*
X177002200Y-166007200D01*
D10*
D11*
X10000000Y-10000000D02*
X10000000Y-200007200D01*
X287002200Y-200007200D01*
X287002200Y-10000000D01*
X10000000Y-10000000D01*
D10*
D11*
X12000000Y-12000000D02*
X12000000Y-198007200D01*
X285002200Y-198007200D01*
X285002200Y-12000000D01*
X12000000Y-12000000D01*
D10*
D11*
X60000000Y-12000000D02*
X60000000Y-10000000D01*
D10*
D11*
X110000000Y-12000000D02*
X110000000Y-10000000D01*
D10*
D11*
X160000000Y-12000000D02*
X160000000Y-10000000D01*
D10*
D11*
X210000000Y-12000000D02*
X210000000Y-10000000D01*
D10*
D11*
X260000000Y-12000000D02*
X260000000Y-10000000D01*
D10*
D11*
X36065476Y-11588095D02*
X35322619Y-11588095D01*
X35694047Y-11588095D02*
X35694047Y-10288095D01*
X35570238Y-10473809D01*
X35446428Y-10597619D01*
X35322619Y-10659523D01*
D10*
D11*
X85322619Y-10411904D02*
X85384523Y-10350000D01*
X85508333Y-10288095D01*
X85817857Y-10288095D01*
X85941666Y-10350000D01*
X86003571Y-10411904D01*
X86065476Y-10535714D01*
X86065476Y-10659523D01*
X86003571Y-10845238D01*
X85260714Y-11588095D01*
X86065476Y-11588095D01*
D10*
D11*
X135260714Y-10288095D02*
X136065476Y-10288095D01*
X135632142Y-10783333D01*
X135817857Y-10783333D01*
X135941666Y-10845238D01*
X136003571Y-10907142D01*
X136065476Y-11030952D01*
X136065476Y-11340476D01*
X136003571Y-11464285D01*
X135941666Y-11526190D01*
X135817857Y-11588095D01*
X135446428Y-11588095D01*
X135322619Y-11526190D01*
X135260714Y-11464285D01*
D10*
D11*
X185941666Y-10721428D02*
X185941666Y-11588095D01*
X185632142Y-10226190D02*
X185322619Y-11154761D01*
X186127380Y-11154761D01*
D10*
D11*
X236003571Y-10288095D02*
X235384523Y-10288095D01*
X235322619Y-10907142D01*
X235384523Y-10845238D01*
X235508333Y-10783333D01*
X235817857Y-10783333D01*
X235941666Y-10845238D01*
X236003571Y-10907142D01*
X236065476Y-11030952D01*
X236065476Y-11340476D01*
X236003571Y-11464285D01*
X235941666Y-11526190D01*
X235817857Y-11588095D01*
X235508333Y-11588095D01*
X235384523Y-11526190D01*
X235322619Y-11464285D01*
D10*
D11*
X285941666Y-10288095D02*
X285694047Y-10288095D01*
X285570238Y-10350000D01*
X285508333Y-10411904D01*
X285384523Y-10597619D01*
X285322619Y-10845238D01*
X285322619Y-11340476D01*
X285384523Y-11464285D01*
X285446428Y-11526190D01*
X285570238Y-11588095D01*
X285817857Y-11588095D01*
X285941666Y-11526190D01*
X286003571Y-11464285D01*
X286065476Y-11340476D01*
X286065476Y-11030952D01*
X286003571Y-10907142D01*
X285941666Y-10845238D01*
X285817857Y-10783333D01*
X285570238Y-10783333D01*
X285446428Y-10845238D01*
X285384523Y-10907142D01*
X285322619Y-11030952D01*
D10*
D11*
X60000000Y-198007200D02*
X60000000Y-200007200D01*
D10*
D11*
X110000000Y-198007200D02*
X110000000Y-200007200D01*
D10*
D11*
X160000000Y-198007200D02*
X160000000Y-200007200D01*
D10*
D11*
X210000000Y-198007200D02*
X210000000Y-200007200D01*
D10*
D11*
X260000000Y-198007200D02*
X260000000Y-200007200D01*
D10*
D11*
X36065476Y-199595295D02*
X35322619Y-199595295D01*
X35694047Y-199595295D02*
X35694047Y-198295295D01*
X35570238Y-198481009D01*
X35446428Y-198604819D01*
X35322619Y-198666723D01*
D10*
D11*
X85322619Y-198419104D02*
X85384523Y-198357200D01*
X85508333Y-198295295D01*
X85817857Y-198295295D01*
X85941666Y-198357200D01*
X86003571Y-198419104D01*
X86065476Y-198542914D01*
X86065476Y-198666723D01*
X86003571Y-198852438D01*
X85260714Y-199595295D01*
X86065476Y-199595295D01*
D10*
D11*
X135260714Y-198295295D02*
X136065476Y-198295295D01*
X135632142Y-198790533D01*
X135817857Y-198790533D01*
X135941666Y-198852438D01*
X136003571Y-198914342D01*
X136065476Y-199038152D01*
X136065476Y-199347676D01*
X136003571Y-199471485D01*
X135941666Y-199533390D01*
X135817857Y-199595295D01*
X135446428Y-199595295D01*
X135322619Y-199533390D01*
X135260714Y-199471485D01*
D10*
D11*
X185941666Y-198728628D02*
X185941666Y-199595295D01*
X185632142Y-198233390D02*
X185322619Y-199161961D01*
X186127380Y-199161961D01*
D10*
D11*
X236003571Y-198295295D02*
X235384523Y-198295295D01*
X235322619Y-198914342D01*
X235384523Y-198852438D01*
X235508333Y-198790533D01*
X235817857Y-198790533D01*
X235941666Y-198852438D01*
X236003571Y-198914342D01*
X236065476Y-199038152D01*
X236065476Y-199347676D01*
X236003571Y-199471485D01*
X235941666Y-199533390D01*
X235817857Y-199595295D01*
X235508333Y-199595295D01*
X235384523Y-199533390D01*
X235322619Y-199471485D01*
D10*
D11*
X285941666Y-198295295D02*
X285694047Y-198295295D01*
X285570238Y-198357200D01*
X285508333Y-198419104D01*
X285384523Y-198604819D01*
X285322619Y-198852438D01*
X285322619Y-199347676D01*
X285384523Y-199471485D01*
X285446428Y-199533390D01*
X285570238Y-199595295D01*
X285817857Y-199595295D01*
X285941666Y-199533390D01*
X286003571Y-199471485D01*
X286065476Y-199347676D01*
X286065476Y-199038152D01*
X286003571Y-198914342D01*
X285941666Y-198852438D01*
X285817857Y-198790533D01*
X285570238Y-198790533D01*
X285446428Y-198852438D01*
X285384523Y-198914342D01*
X285322619Y-199038152D01*
D10*
D11*
X10000000Y-60000000D02*
X12000000Y-60000000D01*
D10*
D11*
X10000000Y-110000000D02*
X12000000Y-110000000D01*
D10*
D11*
X10000000Y-160000000D02*
X12000000Y-160000000D01*
D10*
D11*
X10690476Y-35216666D02*
X11309523Y-35216666D01*
X10566666Y-35588095D02*
X11000000Y-34288095D01*
X11433333Y-35588095D01*
D10*
D11*
X11092857Y-84907142D02*
X11278571Y-84969047D01*
X11340476Y-85030952D01*
X11402380Y-85154761D01*
X11402380Y-85340476D01*
X11340476Y-85464285D01*
X11278571Y-85526190D01*
X11154761Y-85588095D01*
X10659523Y-85588095D01*
X10659523Y-84288095D01*
X11092857Y-84288095D01*
X11216666Y-84350000D01*
X11278571Y-84411904D01*
X11340476Y-84535714D01*
X11340476Y-84659523D01*
X11278571Y-84783333D01*
X11216666Y-84845238D01*
X11092857Y-84907142D01*
X10659523Y-84907142D01*
D10*
D11*
X11402380Y-135464285D02*
X11340476Y-135526190D01*
X11154761Y-135588095D01*
X11030952Y-135588095D01*
X10845238Y-135526190D01*
X10721428Y-135402380D01*
X10659523Y-135278571D01*
X10597619Y-135030952D01*
X10597619Y-134845238D01*
X10659523Y-134597619D01*
X10721428Y-134473809D01*
X10845238Y-134350000D01*
X11030952Y-134288095D01*
X11154761Y-134288095D01*
X11340476Y-134350000D01*
X11402380Y-134411904D01*
D10*
D11*
X10659523Y-185588095D02*
X10659523Y-184288095D01*
X10969047Y-184288095D01*
X11154761Y-184350000D01*
X11278571Y-184473809D01*
X11340476Y-184597619D01*
X11402380Y-184845238D01*
X11402380Y-185030952D01*
X11340476Y-185278571D01*
X11278571Y-185402380D01*
X11154761Y-185526190D01*
X10969047Y-185588095D01*
X10659523Y-185588095D01*
D10*
D11*
X287002200Y-60000000D02*
X285002200Y-60000000D01*
D10*
D11*
X287002200Y-110000000D02*
X285002200Y-110000000D01*
D10*
D11*
X287002200Y-160000000D02*
X285002200Y-160000000D01*
D10*
D11*
X285692676Y-35216666D02*
X286311723Y-35216666D01*
X285568866Y-35588095D02*
X286002200Y-34288095D01*
X286435533Y-35588095D01*
D10*
D11*
X286095057Y-84907142D02*
X286280771Y-84969047D01*
X286342676Y-85030952D01*
X286404580Y-85154761D01*
X286404580Y-85340476D01*
X286342676Y-85464285D01*
X286280771Y-85526190D01*
X286156961Y-85588095D01*
X285661723Y-85588095D01*
X285661723Y-84288095D01*
X286095057Y-84288095D01*
X286218866Y-84350000D01*
X286280771Y-84411904D01*
X286342676Y-84535714D01*
X286342676Y-84659523D01*
X286280771Y-84783333D01*
X286218866Y-84845238D01*
X286095057Y-84907142D01*
X285661723Y-84907142D01*
D10*
D11*
X286404580Y-135464285D02*
X286342676Y-135526190D01*
X286156961Y-135588095D01*
X286033152Y-135588095D01*
X285847438Y-135526190D01*
X285723628Y-135402380D01*
X285661723Y-135278571D01*
X285599819Y-135030952D01*
X285599819Y-134845238D01*
X285661723Y-134597619D01*
X285723628Y-134473809D01*
X285847438Y-134350000D01*
X286033152Y-134288095D01*
X286156961Y-134288095D01*
X286342676Y-134350000D01*
X286404580Y-134411904D01*
D10*
D11*
X285661723Y-185588095D02*
X285661723Y-184288095D01*
X285971247Y-184288095D01*
X286156961Y-184350000D01*
X286280771Y-184473809D01*
X286342676Y-184597619D01*
X286404580Y-184845238D01*
X286404580Y-185030952D01*
X286342676Y-185278571D01*
X286280771Y-185402380D01*
X286156961Y-185526190D01*
X285971247Y-185588095D01*
X285661723Y-185588095D01*
D10*
D11*
X200434342Y-193785771D02*
X200434342Y-192285771D01*
X200791485Y-192285771D01*
X201005771Y-192357200D01*
X201148628Y-192500057D01*
X201220057Y-192642914D01*
X201291485Y-192928628D01*
X201291485Y-193142914D01*
X201220057Y-193428628D01*
X201148628Y-193571485D01*
X201005771Y-193714342D01*
X200791485Y-193785771D01*
X200434342Y-193785771D01*
X202577200Y-193785771D02*
X202577200Y-193000057D01*
X202505771Y-192857200D01*
X202362914Y-192785771D01*
X202077200Y-192785771D01*
X201934342Y-192857200D01*
X202577200Y-193714342D02*
X202434342Y-193785771D01*
X202077200Y-193785771D01*
X201934342Y-193714342D01*
X201862914Y-193571485D01*
X201862914Y-193428628D01*
X201934342Y-193285771D01*
X202077200Y-193214342D01*
X202434342Y-193214342D01*
X202577200Y-193142914D01*
X203077200Y-192785771D02*
X203648628Y-192785771D01*
X203291485Y-192285771D02*
X203291485Y-193571485D01*
X203362914Y-193714342D01*
X203505771Y-193785771D01*
X203648628Y-193785771D01*
X204720057Y-193714342D02*
X204577200Y-193785771D01*
X204291485Y-193785771D01*
X204148628Y-193714342D01*
X204077200Y-193571485D01*
X204077200Y-193000057D01*
X204148628Y-192857200D01*
X204291485Y-192785771D01*
X204577200Y-192785771D01*
X204720057Y-192857200D01*
X204791485Y-193000057D01*
X204791485Y-193142914D01*
X204077200Y-193285771D01*
X205434342Y-193642914D02*
X205505771Y-193714342D01*
X205434342Y-193785771D01*
X205362914Y-193714342D01*
X205434342Y-193642914D01*
X205434342Y-193785771D01*
X205434342Y-192857200D02*
X205505771Y-192928628D01*
X205434342Y-193000057D01*
X205362914Y-192928628D01*
X205434342Y-192857200D01*
X205434342Y-193000057D01*
X207220057Y-192428628D02*
X207291485Y-192357200D01*
X207434342Y-192285771D01*
X207791485Y-192285771D01*
X207934342Y-192357200D01*
X208005771Y-192428628D01*
X208077200Y-192571485D01*
X208077200Y-192714342D01*
X208005771Y-192928628D01*
X207148628Y-193785771D01*
X208077200Y-193785771D01*
X209005771Y-192285771D02*
X209148628Y-192285771D01*
X209291485Y-192357200D01*
X209362914Y-192428628D01*
X209434342Y-192571485D01*
X209505771Y-192857200D01*
X209505771Y-193214342D01*
X209434342Y-193500057D01*
X209362914Y-193642914D01*
X209291485Y-193714342D01*
X209148628Y-193785771D01*
X209005771Y-193785771D01*
X208862914Y-193714342D01*
X208791485Y-193642914D01*
X208720057Y-193500057D01*
X208648628Y-193214342D01*
X208648628Y-192857200D01*
X208720057Y-192571485D01*
X208791485Y-192428628D01*
X208862914Y-192357200D01*
X209005771Y-192285771D01*
X210077200Y-192428628D02*
X210148628Y-192357200D01*
X210291485Y-192285771D01*
X210648628Y-192285771D01*
X210791485Y-192357200D01*
X210862914Y-192428628D01*
X210934342Y-192571485D01*
X210934342Y-192714342D01*
X210862914Y-192928628D01*
X210005771Y-193785771D01*
X210934342Y-193785771D01*
X211862914Y-192285771D02*
X212005771Y-192285771D01*
X212148628Y-192357200D01*
X212220057Y-192428628D01*
X212291485Y-192571485D01*
X212362914Y-192857200D01*
X212362914Y-193214342D01*
X212291485Y-193500057D01*
X212220057Y-193642914D01*
X212148628Y-193714342D01*
X212005771Y-193785771D01*
X211862914Y-193785771D01*
X211720057Y-193714342D01*
X211648628Y-193642914D01*
X211577200Y-193500057D01*
X211505771Y-193214342D01*
X211505771Y-192857200D01*
X211577200Y-192571485D01*
X211648628Y-192428628D01*
X211720057Y-192357200D01*
X211862914Y-192285771D01*
X213005771Y-193214342D02*
X214148628Y-193214342D01*
X215148628Y-192285771D02*
X215291485Y-192285771D01*
X215434342Y-192357200D01*
X215505771Y-192428628D01*
X215577200Y-192571485D01*
X215648628Y-192857200D01*
X215648628Y-193214342D01*
X215577200Y-193500057D01*
X215505771Y-193642914D01*
X215434342Y-193714342D01*
X215291485Y-193785771D01*
X215148628Y-193785771D01*
X215005771Y-193714342D01*
X214934342Y-193642914D01*
X214862914Y-193500057D01*
X214791485Y-193214342D01*
X214791485Y-192857200D01*
X214862914Y-192571485D01*
X214934342Y-192428628D01*
X215005771Y-192357200D01*
X215148628Y-192285771D01*
X216934342Y-192285771D02*
X216648628Y-192285771D01*
X216505771Y-192357200D01*
X216434342Y-192428628D01*
X216291485Y-192642914D01*
X216220057Y-192928628D01*
X216220057Y-193500057D01*
X216291485Y-193642914D01*
X216362914Y-193714342D01*
X216505771Y-193785771D01*
X216791485Y-193785771D01*
X216934342Y-193714342D01*
X217005771Y-193642914D01*
X217077200Y-193500057D01*
X217077200Y-193142914D01*
X217005771Y-193000057D01*
X216934342Y-192928628D01*
X216791485Y-192857200D01*
X216505771Y-192857200D01*
X216362914Y-192928628D01*
X216291485Y-193000057D01*
X216220057Y-193142914D01*
X217720057Y-193214342D02*
X218862914Y-193214342D01*
X219862914Y-192285771D02*
X220005771Y-192285771D01*
X220148628Y-192357200D01*
X220220057Y-192428628D01*
X220291485Y-192571485D01*
X220362914Y-192857200D01*
X220362914Y-193214342D01*
X220291485Y-193500057D01*
X220220057Y-193642914D01*
X220148628Y-193714342D01*
X220005771Y-193785771D01*
X219862914Y-193785771D01*
X219720057Y-193714342D01*
X219648628Y-193642914D01*
X219577200Y-193500057D01*
X219505771Y-193214342D01*
X219505771Y-192857200D01*
X219577200Y-192571485D01*
X219648628Y-192428628D01*
X219720057Y-192357200D01*
X219862914Y-192285771D01*
X221648628Y-192785771D02*
X221648628Y-193785771D01*
X221291485Y-192214342D02*
X220934342Y-193285771D01*
X221862914Y-193285771D01*
D10*
D11*
X177002200Y-194507200D02*
X285002200Y-194507200D01*
D10*
D11*
X178434342Y-196585771D02*
X178434342Y-195085771D01*
X179291485Y-196585771D02*
X178648628Y-195728628D01*
X179291485Y-195085771D02*
X178434342Y-195942914D01*
X179934342Y-196585771D02*
X179934342Y-195585771D01*
X179934342Y-195085771D02*
X179862914Y-195157200D01*
X179934342Y-195228628D01*
X180005771Y-195157200D01*
X179934342Y-195085771D01*
X179934342Y-195228628D01*
X181505771Y-196442914D02*
X181434342Y-196514342D01*
X181220057Y-196585771D01*
X181077200Y-196585771D01*
X180862914Y-196514342D01*
X180720057Y-196371485D01*
X180648628Y-196228628D01*
X180577200Y-195942914D01*
X180577200Y-195728628D01*
X180648628Y-195442914D01*
X180720057Y-195300057D01*
X180862914Y-195157200D01*
X181077200Y-195085771D01*
X181220057Y-195085771D01*
X181434342Y-195157200D01*
X181505771Y-195228628D01*
X182791485Y-196585771D02*
X182791485Y-195800057D01*
X182720057Y-195657200D01*
X182577200Y-195585771D01*
X182291485Y-195585771D01*
X182148628Y-195657200D01*
X182791485Y-196514342D02*
X182648628Y-196585771D01*
X182291485Y-196585771D01*
X182148628Y-196514342D01*
X182077200Y-196371485D01*
X182077200Y-196228628D01*
X182148628Y-196085771D01*
X182291485Y-196014342D01*
X182648628Y-196014342D01*
X182791485Y-195942914D01*
X184148628Y-196585771D02*
X184148628Y-195085771D01*
X184148628Y-196514342D02*
X184005771Y-196585771D01*
X183720057Y-196585771D01*
X183577200Y-196514342D01*
X183505771Y-196442914D01*
X183434342Y-196300057D01*
X183434342Y-195871485D01*
X183505771Y-195728628D01*
X183577200Y-195657200D01*
X183720057Y-195585771D01*
X184005771Y-195585771D01*
X184148628Y-195657200D01*
X186005771Y-195800057D02*
X186505771Y-195800057D01*
X186720057Y-196585771D02*
X186005771Y-196585771D01*
X186005771Y-195085771D01*
X186720057Y-195085771D01*
X187362914Y-196442914D02*
X187434342Y-196514342D01*
X187362914Y-196585771D01*
X187291485Y-196514342D01*
X187362914Y-196442914D01*
X187362914Y-196585771D01*
X188077200Y-196585771D02*
X188077200Y-195085771D01*
X188434342Y-195085771D01*
X188648628Y-195157200D01*
X188791485Y-195300057D01*
X188862914Y-195442914D01*
X188934342Y-195728628D01*
X188934342Y-195942914D01*
X188862914Y-196228628D01*
X188791485Y-196371485D01*
X188648628Y-196514342D01*
X188434342Y-196585771D01*
X188077200Y-196585771D01*
X189577200Y-196442914D02*
X189648628Y-196514342D01*
X189577200Y-196585771D01*
X189505771Y-196514342D01*
X189577200Y-196442914D01*
X189577200Y-196585771D01*
X190220057Y-196157200D02*
X190934342Y-196157200D01*
X190077200Y-196585771D02*
X190577200Y-195085771D01*
X191077200Y-196585771D01*
X191577200Y-196442914D02*
X191648628Y-196514342D01*
X191577200Y-196585771D01*
X191505771Y-196514342D01*
X191577200Y-196442914D01*
X191577200Y-196585771D01*
X194577200Y-196585771D02*
X194577200Y-195085771D01*
X194720057Y-196014342D02*
X195148628Y-196585771D01*
X195148628Y-195585771D02*
X194577200Y-196157200D01*
X195791485Y-196585771D02*
X195791485Y-195585771D01*
X195791485Y-195085771D02*
X195720057Y-195157200D01*
X195791485Y-195228628D01*
X195862914Y-195157200D01*
X195791485Y-195085771D01*
X195791485Y-195228628D01*
X197148628Y-196514342D02*
X197005771Y-196585771D01*
X196720057Y-196585771D01*
X196577200Y-196514342D01*
X196505771Y-196442914D01*
X196434342Y-196300057D01*
X196434342Y-195871485D01*
X196505771Y-195728628D01*
X196577200Y-195657200D01*
X196720057Y-195585771D01*
X197005771Y-195585771D01*
X197148628Y-195657200D01*
X198434342Y-196585771D02*
X198434342Y-195800057D01*
X198362914Y-195657200D01*
X198220057Y-195585771D01*
X197934342Y-195585771D01*
X197791485Y-195657200D01*
X198434342Y-196514342D02*
X198291485Y-196585771D01*
X197934342Y-196585771D01*
X197791485Y-196514342D01*
X197720057Y-196371485D01*
X197720057Y-196228628D01*
X197791485Y-196085771D01*
X197934342Y-196014342D01*
X198291485Y-196014342D01*
X198434342Y-195942914D01*
X199791485Y-196585771D02*
X199791485Y-195085771D01*
X199791485Y-196514342D02*
X199648628Y-196585771D01*
X199362914Y-196585771D01*
X199220057Y-196514342D01*
X199148628Y-196442914D01*
X199077200Y-196300057D01*
X199077200Y-195871485D01*
X199148628Y-195728628D01*
X199220057Y-195657200D01*
X199362914Y-195585771D01*
X199648628Y-195585771D01*
X199791485Y-195657200D01*
X202077200Y-197157200D02*
X202005771Y-197085771D01*
X201862914Y-196871485D01*
X201791485Y-196728628D01*
X201720057Y-196514342D01*
X201648628Y-196157200D01*
X201648628Y-195871485D01*
X201720057Y-195514342D01*
X201791485Y-195300057D01*
X201862914Y-195157200D01*
X202005771Y-194942914D01*
X202077200Y-194871485D01*
X203362914Y-195085771D02*
X202648628Y-195085771D01*
X202577200Y-195800057D01*
X202648628Y-195728628D01*
X202791485Y-195657200D01*
X203148628Y-195657200D01*
X203291485Y-195728628D01*
X203362914Y-195800057D01*
X203434342Y-195942914D01*
X203434342Y-196300057D01*
X203362914Y-196442914D01*
X203291485Y-196514342D01*
X203148628Y-196585771D01*
X202791485Y-196585771D01*
X202648628Y-196514342D01*
X202577200Y-196442914D01*
X204077200Y-196442914D02*
X204148628Y-196514342D01*
X204077200Y-196585771D01*
X204005771Y-196514342D01*
X204077200Y-196442914D01*
X204077200Y-196585771D01*
X205577200Y-196585771D02*
X204720057Y-196585771D01*
X205148628Y-196585771D02*
X205148628Y-195085771D01*
X205005771Y-195300057D01*
X204862914Y-195442914D01*
X204720057Y-195514342D01*
X206220057Y-196442914D02*
X206291485Y-196514342D01*
X206220057Y-196585771D01*
X206148628Y-196514342D01*
X206220057Y-196442914D01*
X206220057Y-196585771D01*
X207648628Y-195085771D02*
X206934342Y-195085771D01*
X206862914Y-195800057D01*
X206934342Y-195728628D01*
X207077200Y-195657200D01*
X207434342Y-195657200D01*
X207577200Y-195728628D01*
X207648628Y-195800057D01*
X207720057Y-195942914D01*
X207720057Y-196300057D01*
X207648628Y-196442914D01*
X207577200Y-196514342D01*
X207434342Y-196585771D01*
X207077200Y-196585771D01*
X206934342Y-196514342D01*
X206862914Y-196442914D01*
X208220057Y-197157200D02*
X208291485Y-197085771D01*
X208434342Y-196871485D01*
X208505771Y-196728628D01*
X208577200Y-196514342D01*
X208648628Y-196157200D01*
X208648628Y-195871485D01*
X208577200Y-195514342D01*
X208505771Y-195300057D01*
X208434342Y-195157200D01*
X208291485Y-194942914D01*
X208220057Y-194871485D01*
X209362914Y-196014342D02*
X210505771Y-196014342D01*
X211077200Y-195085771D02*
X212005771Y-195085771D01*
X211505771Y-195657200D01*
X211720057Y-195657200D01*
X211862914Y-195728628D01*
X211934342Y-195800057D01*
X212005771Y-195942914D01*
X212005771Y-196300057D01*
X211934342Y-196442914D01*
X211862914Y-196514342D01*
X211720057Y-196585771D01*
X211291485Y-196585771D01*
X211148628Y-196514342D01*
X211077200Y-196442914D01*
D10*
D11*
X177002200Y-191507200D02*
X285002200Y-191507200D01*
D10*
D12*
X264411485Y-193785771D02*
X263911485Y-193071485D01*
X263554342Y-193785771D02*
X263554342Y-192285771D01*
X264125771Y-192285771D01*
X264268628Y-192357200D01*
X264340057Y-192428628D01*
X264411485Y-192571485D01*
X264411485Y-192785771D01*
X264340057Y-192928628D01*
X264268628Y-193000057D01*
X264125771Y-193071485D01*
X263554342Y-193071485D01*
X265625771Y-193714342D02*
X265482914Y-193785771D01*
X265197200Y-193785771D01*
X265054342Y-193714342D01*
X264982914Y-193571485D01*
X264982914Y-193000057D01*
X265054342Y-192857200D01*
X265197200Y-192785771D01*
X265482914Y-192785771D01*
X265625771Y-192857200D01*
X265697200Y-193000057D01*
X265697200Y-193142914D01*
X264982914Y-193285771D01*
X266197200Y-192785771D02*
X266554342Y-193785771D01*
X266911485Y-192785771D01*
X267482914Y-193642914D02*
X267554342Y-193714342D01*
X267482914Y-193785771D01*
X267411485Y-193714342D01*
X267482914Y-193642914D01*
X267482914Y-193785771D01*
X267482914Y-192857200D02*
X267554342Y-192928628D01*
X267482914Y-193000057D01*
X267411485Y-192928628D01*
X267482914Y-192857200D01*
X267482914Y-193000057D01*
X269197200Y-192785771D02*
X269554342Y-193785771D01*
X269911485Y-192785771D01*
X271268628Y-193785771D02*
X270411485Y-193785771D01*
X270840057Y-193785771D02*
X270840057Y-192285771D01*
X270697200Y-192500057D01*
X270554342Y-192642914D01*
X270411485Y-192714342D01*
X271911485Y-193642914D02*
X271982914Y-193714342D01*
X271911485Y-193785771D01*
X271840057Y-193714342D01*
X271911485Y-193642914D01*
X271911485Y-193785771D01*
X272911485Y-192285771D02*
X273054342Y-192285771D01*
X273197200Y-192357200D01*
X273268628Y-192428628D01*
X273340057Y-192571485D01*
X273411485Y-192857200D01*
X273411485Y-193214342D01*
X273340057Y-193500057D01*
X273268628Y-193642914D01*
X273197200Y-193714342D01*
X273054342Y-193785771D01*
X272911485Y-193785771D01*
X272768628Y-193714342D01*
X272697200Y-193642914D01*
X272625771Y-193500057D01*
X272554342Y-193214342D01*
X272554342Y-192857200D01*
X272625771Y-192571485D01*
X272697200Y-192428628D01*
X272768628Y-192357200D01*
X272911485Y-192285771D01*
D10*
D11*
X178362914Y-193714342D02*
X178577200Y-193785771D01*
X178934342Y-193785771D01*
X179077200Y-193714342D01*
X179148628Y-193642914D01*
X179220057Y-193500057D01*
X179220057Y-193357200D01*
X179148628Y-193214342D01*
X179077200Y-193142914D01*
X178934342Y-193071485D01*
X178648628Y-193000057D01*
X178505771Y-192928628D01*
X178434342Y-192857200D01*
X178362914Y-192714342D01*
X178362914Y-192571485D01*
X178434342Y-192428628D01*
X178505771Y-192357200D01*
X178648628Y-192285771D01*
X179005771Y-192285771D01*
X179220057Y-192357200D01*
X179862914Y-193785771D02*
X179862914Y-192785771D01*
X179862914Y-192285771D02*
X179791485Y-192357200D01*
X179862914Y-192428628D01*
X179934342Y-192357200D01*
X179862914Y-192285771D01*
X179862914Y-192428628D01*
X180434342Y-192785771D02*
X181220057Y-192785771D01*
X180434342Y-193785771D01*
X181220057Y-193785771D01*
X182362914Y-193714342D02*
X182220057Y-193785771D01*
X181934342Y-193785771D01*
X181791485Y-193714342D01*
X181720057Y-193571485D01*
X181720057Y-193000057D01*
X181791485Y-192857200D01*
X181934342Y-192785771D01*
X182220057Y-192785771D01*
X182362914Y-192857200D01*
X182434342Y-193000057D01*
X182434342Y-193142914D01*
X181720057Y-193285771D01*
X183077200Y-193642914D02*
X183148628Y-193714342D01*
X183077200Y-193785771D01*
X183005771Y-193714342D01*
X183077200Y-193642914D01*
X183077200Y-193785771D01*
X183077200Y-192857200D02*
X183148628Y-192928628D01*
X183077200Y-193000057D01*
X183005771Y-192928628D01*
X183077200Y-192857200D01*
X183077200Y-193000057D01*
X184862914Y-193357200D02*
X185577200Y-193357200D01*
X184720057Y-193785771D02*
X185220057Y-192285771D01*
X185720057Y-193785771D01*
X186862914Y-192785771D02*
X186862914Y-193785771D01*
X186505771Y-192214342D02*
X186148628Y-193285771D01*
X187077200Y-193285771D01*
D10*
D11*
X263434342Y-196585771D02*
X263434342Y-195085771D01*
X264791485Y-196585771D02*
X264791485Y-195085771D01*
X264791485Y-196514342D02*
X264648628Y-196585771D01*
X264362914Y-196585771D01*
X264220057Y-196514342D01*
X264148628Y-196442914D01*
X264077200Y-196300057D01*
X264077200Y-195871485D01*
X264148628Y-195728628D01*
X264220057Y-195657200D01*
X264362914Y-195585771D01*
X264648628Y-195585771D01*
X264791485Y-195657200D01*
X265505771Y-196442914D02*
X265577200Y-196514342D01*
X265505771Y-196585771D01*
X265434342Y-196514342D01*
X265505771Y-196442914D01*
X265505771Y-196585771D01*
X265505771Y-195657200D02*
X265577200Y-195728628D01*
X265505771Y-195800057D01*
X265434342Y-195728628D01*
X265505771Y-195657200D01*
X265505771Y-195800057D01*
X268148628Y-196585771D02*
X267291485Y-196585771D01*
X267720057Y-196585771D02*
X267720057Y-195085771D01*
X267577200Y-195300057D01*
X267434342Y-195442914D01*
X267291485Y-195514342D01*
X269862914Y-195014342D02*
X268577200Y-196942914D01*
X271148628Y-196585771D02*
X270291485Y-196585771D01*
X270720057Y-196585771D02*
X270720057Y-195085771D01*
X270577200Y-195300057D01*
X270434342Y-195442914D01*
X270291485Y-195514342D01*
D10*
D11*
X177002200Y-187507200D02*
X285002200Y-187507200D01*
D10*
D13*
X178714580Y-188211961D02*
X179857438Y-188211961D01*
X179036009Y-190211961D02*
X179286009Y-188211961D01*
X180274104Y-190211961D02*
X180440771Y-188878628D01*
X180524104Y-188211961D02*
X180416961Y-188307200D01*
X180500295Y-188402438D01*
X180607438Y-188307200D01*
X180524104Y-188211961D01*
X180500295Y-188402438D01*
X181107438Y-188878628D02*
X181869342Y-188878628D01*
X181476485Y-188211961D02*
X181262200Y-189926247D01*
X181333628Y-190116723D01*
X181512200Y-190211961D01*
X181702676Y-190211961D01*
X182655057Y-190211961D02*
X182476485Y-190116723D01*
X182405057Y-189926247D01*
X182619342Y-188211961D01*
X184190771Y-190116723D02*
X183988390Y-190211961D01*
X183607438Y-190211961D01*
X183428866Y-190116723D01*
X183357438Y-189926247D01*
X183452676Y-189164342D01*
X183571723Y-188973866D01*
X183774104Y-188878628D01*
X184155057Y-188878628D01*
X184333628Y-188973866D01*
X184405057Y-189164342D01*
X184381247Y-189354819D01*
X183405057Y-189545295D01*
X185155057Y-190021485D02*
X185238390Y-190116723D01*
X185131247Y-190211961D01*
X185047914Y-190116723D01*
X185155057Y-190021485D01*
X185131247Y-190211961D01*
X185286009Y-188973866D02*
X185369342Y-189069104D01*
X185262200Y-189164342D01*
X185178866Y-189069104D01*
X185286009Y-188973866D01*
X185262200Y-189164342D01*
X187524104Y-190116723D02*
X187797914Y-190211961D01*
X188274104Y-190211961D01*
X188476485Y-190116723D01*
X188583628Y-190021485D01*
X188702676Y-189831009D01*
X188726485Y-189640533D01*
X188655057Y-189450057D01*
X188571723Y-189354819D01*
X188393152Y-189259580D01*
X188024104Y-189164342D01*
X187845533Y-189069104D01*
X187762200Y-188973866D01*
X187690771Y-188783390D01*
X187714580Y-188592914D01*
X187833628Y-188402438D01*
X187940771Y-188307200D01*
X188143152Y-188211961D01*
X188619342Y-188211961D01*
X188893152Y-188307200D01*
X190012200Y-189259580D02*
X189893152Y-190211961D01*
X189476485Y-188211961D02*
X190012200Y-189259580D01*
X190809819Y-188211961D01*
X191143152Y-190116723D02*
X191416961Y-190211961D01*
X191893152Y-190211961D01*
X192095533Y-190116723D01*
X192202676Y-190021485D01*
X192321723Y-189831009D01*
X192345533Y-189640533D01*
X192274104Y-189450057D01*
X192190771Y-189354819D01*
X192012200Y-189259580D01*
X191643152Y-189164342D01*
X191464580Y-189069104D01*
X191381247Y-188973866D01*
X191309819Y-188783390D01*
X191333628Y-188592914D01*
X191452676Y-188402438D01*
X191559819Y-188307200D01*
X191762200Y-188211961D01*
X192238390Y-188211961D01*
X192512200Y-188307200D01*
X194750295Y-189450057D02*
X196274104Y-189450057D01*
X198571723Y-190116723D02*
X198845533Y-190211961D01*
X199321723Y-190211961D01*
X199524104Y-190116723D01*
X199631247Y-190021485D01*
X199750295Y-189831009D01*
X199774104Y-189640533D01*
X199702676Y-189450057D01*
X199619342Y-189354819D01*
X199440771Y-189259580D01*
X199071723Y-189164342D01*
X198893152Y-189069104D01*
X198809819Y-188973866D01*
X198738390Y-188783390D01*
X198762200Y-188592914D01*
X198881247Y-188402438D01*
X198988390Y-188307200D01*
X199190771Y-188211961D01*
X199666961Y-188211961D01*
X199940771Y-188307200D01*
X200440771Y-188878628D02*
X201202676Y-188878628D01*
X200809819Y-188211961D02*
X200595533Y-189926247D01*
X200666961Y-190116723D01*
X200845533Y-190211961D01*
X201036009Y-190211961D01*
X202476485Y-190116723D02*
X202274104Y-190211961D01*
X201893152Y-190211961D01*
X201714580Y-190116723D01*
X201643152Y-189926247D01*
X201738390Y-189164342D01*
X201857438Y-188973866D01*
X202059819Y-188878628D01*
X202440771Y-188878628D01*
X202619342Y-188973866D01*
X202690771Y-189164342D01*
X202666961Y-189354819D01*
X201690771Y-189545295D01*
X203583628Y-188878628D02*
X203333628Y-190878628D01*
X203571723Y-188973866D02*
X203774104Y-188878628D01*
X204155057Y-188878628D01*
X204333628Y-188973866D01*
X204416961Y-189069104D01*
X204488390Y-189259580D01*
X204416961Y-189831009D01*
X204297914Y-190021485D01*
X204190771Y-190116723D01*
X203988390Y-190211961D01*
X203607438Y-190211961D01*
X203428866Y-190116723D01*
X206726485Y-189640533D02*
X207678866Y-189640533D01*
X206464580Y-190211961D02*
X207381247Y-188211961D01*
X207797914Y-190211961D01*
X208345533Y-188878628D02*
X209107438Y-188878628D01*
X208714580Y-188211961D02*
X208500295Y-189926247D01*
X208571723Y-190116723D01*
X208750295Y-190211961D01*
X208940771Y-190211961D01*
X209488390Y-188878628D02*
X210250295Y-188878628D01*
X209857438Y-188211961D02*
X209643152Y-189926247D01*
X209714580Y-190116723D01*
X209893152Y-190211961D01*
X210083628Y-190211961D01*
X211524104Y-190116723D02*
X211321723Y-190211961D01*
X210940771Y-190211961D01*
X210762200Y-190116723D01*
X210690771Y-189926247D01*
X210786009Y-189164342D01*
X210905057Y-188973866D01*
X211107438Y-188878628D01*
X211488390Y-188878628D01*
X211666961Y-188973866D01*
X211738390Y-189164342D01*
X211714580Y-189354819D01*
X210738390Y-189545295D01*
X212631247Y-188878628D02*
X212464580Y-190211961D01*
X212607438Y-189069104D02*
X212714580Y-188973866D01*
X212916961Y-188878628D01*
X213202676Y-188878628D01*
X213381247Y-188973866D01*
X213452676Y-189164342D01*
X213321723Y-190211961D01*
X215297914Y-188878628D02*
X215131247Y-190211961D01*
X214440771Y-188878628D02*
X214309819Y-189926247D01*
X214381247Y-190116723D01*
X214559819Y-190211961D01*
X214845533Y-190211961D01*
X215047914Y-190116723D01*
X215155057Y-190021485D01*
X216940771Y-190211961D02*
X217071723Y-189164342D01*
X217000295Y-188973866D01*
X216821723Y-188878628D01*
X216440771Y-188878628D01*
X216238390Y-188973866D01*
X216952676Y-190116723D02*
X216750295Y-190211961D01*
X216274104Y-190211961D01*
X216095533Y-190116723D01*
X216024104Y-189926247D01*
X216047914Y-189735771D01*
X216166961Y-189545295D01*
X216369342Y-189450057D01*
X216845533Y-189450057D01*
X217047914Y-189354819D01*
X217774104Y-188878628D02*
X218536009Y-188878628D01*
X218143152Y-188211961D02*
X217928866Y-189926247D01*
X218000295Y-190116723D01*
X218178866Y-190211961D01*
X218369342Y-190211961D01*
X219321723Y-190211961D02*
X219143152Y-190116723D01*
X219059819Y-190021485D01*
X218988390Y-189831009D01*
X219059819Y-189259580D01*
X219178866Y-189069104D01*
X219286009Y-188973866D01*
X219488390Y-188878628D01*
X219774104Y-188878628D01*
X219952676Y-188973866D01*
X220036009Y-189069104D01*
X220107438Y-189259580D01*
X220036009Y-189831009D01*
X219916961Y-190021485D01*
X219809819Y-190116723D01*
X219607438Y-190211961D01*
X219321723Y-190211961D01*
X220845533Y-190211961D02*
X221012199Y-188878628D01*
X220964580Y-189259580D02*
X221083628Y-189069104D01*
X221190771Y-188973866D01*
X221393152Y-188878628D01*
X221583628Y-188878628D01*
D10*
D11*
X178934342Y-185600057D02*
X178434342Y-185600057D01*
X178434342Y-186385771D02*
X178434342Y-184885771D01*
X179148628Y-184885771D01*
X179720057Y-186385771D02*
X179720057Y-185385771D01*
X179720057Y-184885771D02*
X179648628Y-184957200D01*
X179720057Y-185028628D01*
X179791485Y-184957200D01*
X179720057Y-184885771D01*
X179720057Y-185028628D01*
X180648628Y-186385771D02*
X180505771Y-186314342D01*
X180434342Y-186171485D01*
X180434342Y-184885771D01*
X181791485Y-186314342D02*
X181648628Y-186385771D01*
X181362914Y-186385771D01*
X181220057Y-186314342D01*
X181148628Y-186171485D01*
X181148628Y-185600057D01*
X181220057Y-185457200D01*
X181362914Y-185385771D01*
X181648628Y-185385771D01*
X181791485Y-185457200D01*
X181862914Y-185600057D01*
X181862914Y-185742914D01*
X181148628Y-185885771D01*
X182505771Y-186242914D02*
X182577200Y-186314342D01*
X182505771Y-186385771D01*
X182434342Y-186314342D01*
X182505771Y-186242914D01*
X182505771Y-186385771D01*
X182505771Y-185457200D02*
X182577200Y-185528628D01*
X182505771Y-185600057D01*
X182434342Y-185528628D01*
X182505771Y-185457200D01*
X182505771Y-185600057D01*
X184291485Y-186314342D02*
X184505771Y-186385771D01*
X184862914Y-186385771D01*
X185005771Y-186314342D01*
X185077200Y-186242914D01*
X185148628Y-186100057D01*
X185148628Y-185957200D01*
X185077200Y-185814342D01*
X185005771Y-185742914D01*
X184862914Y-185671485D01*
X184577200Y-185600057D01*
X184434342Y-185528628D01*
X184362914Y-185457200D01*
X184291485Y-185314342D01*
X184291485Y-185171485D01*
X184362914Y-185028628D01*
X184434342Y-184957200D01*
X184577200Y-184885771D01*
X184934342Y-184885771D01*
X185148628Y-184957200D01*
X186077200Y-185671485D02*
X186077200Y-186385771D01*
X185577200Y-184885771D02*
X186077200Y-185671485D01*
X186577200Y-184885771D01*
X187005771Y-186314342D02*
X187220057Y-186385771D01*
X187577200Y-186385771D01*
X187720057Y-186314342D01*
X187791485Y-186242914D01*
X187862914Y-186100057D01*
X187862914Y-185957200D01*
X187791485Y-185814342D01*
X187720057Y-185742914D01*
X187577200Y-185671485D01*
X187291485Y-185600057D01*
X187148628Y-185528628D01*
X187077200Y-185457200D01*
X187005771Y-185314342D01*
X187005771Y-185171485D01*
X187077200Y-185028628D01*
X187148628Y-184957200D01*
X187291485Y-184885771D01*
X187648628Y-184885771D01*
X187862914Y-184957200D01*
X188148628Y-186528628D02*
X189291485Y-186528628D01*
X189577200Y-186314342D02*
X189791485Y-186385771D01*
X190148628Y-186385771D01*
X190291485Y-186314342D01*
X190362914Y-186242914D01*
X190434342Y-186100057D01*
X190434342Y-185957200D01*
X190362914Y-185814342D01*
X190291485Y-185742914D01*
X190148628Y-185671485D01*
X189862914Y-185600057D01*
X189720057Y-185528628D01*
X189648628Y-185457200D01*
X189577200Y-185314342D01*
X189577200Y-185171485D01*
X189648628Y-185028628D01*
X189720057Y-184957200D01*
X189862914Y-184885771D01*
X190220057Y-184885771D01*
X190434342Y-184957200D01*
X190862914Y-185385771D02*
X191434342Y-185385771D01*
X191077200Y-184885771D02*
X191077200Y-186171485D01*
X191148628Y-186314342D01*
X191291485Y-186385771D01*
X191434342Y-186385771D01*
X192505771Y-186314342D02*
X192362914Y-186385771D01*
X192077200Y-186385771D01*
X191934342Y-186314342D01*
X191862914Y-186171485D01*
X191862914Y-185600057D01*
X191934342Y-185457200D01*
X192077200Y-185385771D01*
X192362914Y-185385771D01*
X192505771Y-185457200D01*
X192577200Y-185600057D01*
X192577200Y-185742914D01*
X191862914Y-185885771D01*
X193220057Y-185385771D02*
X193220057Y-186885771D01*
X193220057Y-185457200D02*
X193362914Y-185385771D01*
X193648628Y-185385771D01*
X193791485Y-185457200D01*
X193862914Y-185528628D01*
X193934342Y-185671485D01*
X193934342Y-186100057D01*
X193862914Y-186242914D01*
X193791485Y-186314342D01*
X193648628Y-186385771D01*
X193362914Y-186385771D01*
X193220057Y-186314342D01*
X194505771Y-185957200D02*
X195220057Y-185957200D01*
X194362914Y-186385771D02*
X194862914Y-184885771D01*
X195362914Y-186385771D01*
X195648628Y-185385771D02*
X196220057Y-185385771D01*
X195862914Y-184885771D02*
X195862914Y-186171485D01*
X195934342Y-186314342D01*
X196077200Y-186385771D01*
X196220057Y-186385771D01*
X196505771Y-185385771D02*
X197077200Y-185385771D01*
X196720057Y-184885771D02*
X196720057Y-186171485D01*
X196791485Y-186314342D01*
X196934342Y-186385771D01*
X197077200Y-186385771D01*
X198148628Y-186314342D02*
X198005771Y-186385771D01*
X197720057Y-186385771D01*
X197577200Y-186314342D01*
X197505771Y-186171485D01*
X197505771Y-185600057D01*
X197577200Y-185457200D01*
X197720057Y-185385771D01*
X198005771Y-185385771D01*
X198148628Y-185457200D01*
X198220057Y-185600057D01*
X198220057Y-185742914D01*
X197505771Y-185885771D01*
X198862914Y-185385771D02*
X198862914Y-186385771D01*
X198862914Y-185528628D02*
X198934342Y-185457200D01*
X199077200Y-185385771D01*
X199291485Y-185385771D01*
X199434342Y-185457200D01*
X199505771Y-185600057D01*
X199505771Y-186385771D01*
X200220057Y-186242914D02*
X200291485Y-186314342D01*
X200220057Y-186385771D01*
X200148628Y-186314342D01*
X200220057Y-186242914D01*
X200220057Y-186385771D01*
X200934342Y-186385771D02*
X200934342Y-184885771D01*
X201077200Y-185814342D02*
X201505771Y-186385771D01*
X201505771Y-185385771D02*
X200934342Y-185957200D01*
X202148628Y-186385771D02*
X202148628Y-185385771D01*
X202148628Y-184885771D02*
X202077200Y-184957200D01*
X202148628Y-185028628D01*
X202220057Y-184957200D01*
X202148628Y-184885771D01*
X202148628Y-185028628D01*
X203505771Y-186314342D02*
X203362914Y-186385771D01*
X203077200Y-186385771D01*
X202934342Y-186314342D01*
X202862914Y-186242914D01*
X202791485Y-186100057D01*
X202791485Y-185671485D01*
X202862914Y-185528628D01*
X202934342Y-185457200D01*
X203077200Y-185385771D01*
X203362914Y-185385771D01*
X203505771Y-185457200D01*
X204791485Y-186385771D02*
X204791485Y-185600057D01*
X204720057Y-185457200D01*
X204577200Y-185385771D01*
X204291485Y-185385771D01*
X204148628Y-185457200D01*
X204791485Y-186314342D02*
X204648628Y-186385771D01*
X204291485Y-186385771D01*
X204148628Y-186314342D01*
X204077200Y-186171485D01*
X204077200Y-186028628D01*
X204148628Y-185885771D01*
X204291485Y-185814342D01*
X204648628Y-185814342D01*
X204791485Y-185742914D01*
X206148628Y-186385771D02*
X206148628Y-184885771D01*
X206148628Y-186314342D02*
X206005771Y-186385771D01*
X205720057Y-186385771D01*
X205577200Y-186314342D01*
X205505771Y-186242914D01*
X205434342Y-186100057D01*
X205434342Y-185671485D01*
X205505771Y-185528628D01*
X205577200Y-185457200D01*
X205720057Y-185385771D01*
X206005771Y-185385771D01*
X206148628Y-185457200D01*
X206505771Y-186528628D02*
X207648628Y-186528628D01*
X208005771Y-185385771D02*
X208005771Y-186885771D01*
X208005771Y-185457200D02*
X208148628Y-185385771D01*
X208434342Y-185385771D01*
X208577200Y-185457200D01*
X208648628Y-185528628D01*
X208720057Y-185671485D01*
X208720057Y-186100057D01*
X208648628Y-186242914D01*
X208577200Y-186314342D01*
X208434342Y-186385771D01*
X208148628Y-186385771D01*
X208005771Y-186314342D01*
X210005771Y-186314342D02*
X209862914Y-186385771D01*
X209577200Y-186385771D01*
X209434342Y-186314342D01*
X209362914Y-186242914D01*
X209291485Y-186100057D01*
X209291485Y-185671485D01*
X209362914Y-185528628D01*
X209434342Y-185457200D01*
X209577200Y-185385771D01*
X209862914Y-185385771D01*
X210005771Y-185457200D01*
X210648628Y-186385771D02*
X210648628Y-184885771D01*
X210648628Y-185457200D02*
X210791485Y-185385771D01*
X211077200Y-185385771D01*
X211220057Y-185457200D01*
X211291485Y-185528628D01*
X211362914Y-185671485D01*
X211362914Y-186100057D01*
X211291485Y-186242914D01*
X211220057Y-186314342D01*
X211077200Y-186385771D01*
X210791485Y-186385771D01*
X210648628Y-186314342D01*
D10*
D11*
X177002200Y-181507200D02*
X285002200Y-181507200D01*
D10*
D11*
X178362914Y-183614342D02*
X178577200Y-183685771D01*
X178934342Y-183685771D01*
X179077200Y-183614342D01*
X179148628Y-183542914D01*
X179220057Y-183400057D01*
X179220057Y-183257200D01*
X179148628Y-183114342D01*
X179077200Y-183042914D01*
X178934342Y-182971485D01*
X178648628Y-182900057D01*
X178505771Y-182828628D01*
X178434342Y-182757200D01*
X178362914Y-182614342D01*
X178362914Y-182471485D01*
X178434342Y-182328628D01*
X178505771Y-182257200D01*
X178648628Y-182185771D01*
X179005771Y-182185771D01*
X179220057Y-182257200D01*
X179862914Y-183685771D02*
X179862914Y-182185771D01*
X180505771Y-183685771D02*
X180505771Y-182900057D01*
X180434342Y-182757200D01*
X180291485Y-182685771D01*
X180077200Y-182685771D01*
X179934342Y-182757200D01*
X179862914Y-182828628D01*
X181791485Y-183614342D02*
X181648628Y-183685771D01*
X181362914Y-183685771D01*
X181220057Y-183614342D01*
X181148628Y-183471485D01*
X181148628Y-182900057D01*
X181220057Y-182757200D01*
X181362914Y-182685771D01*
X181648628Y-182685771D01*
X181791485Y-182757200D01*
X181862914Y-182900057D01*
X181862914Y-183042914D01*
X181148628Y-183185771D01*
X183077200Y-183614342D02*
X182934342Y-183685771D01*
X182648628Y-183685771D01*
X182505771Y-183614342D01*
X182434342Y-183471485D01*
X182434342Y-182900057D01*
X182505771Y-182757200D01*
X182648628Y-182685771D01*
X182934342Y-182685771D01*
X183077200Y-182757200D01*
X183148628Y-182900057D01*
X183148628Y-183042914D01*
X182434342Y-183185771D01*
X183577200Y-182685771D02*
X184148628Y-182685771D01*
X183791485Y-182185771D02*
X183791485Y-183471485D01*
X183862914Y-183614342D01*
X184005771Y-183685771D01*
X184148628Y-183685771D01*
X184648628Y-183542914D02*
X184720057Y-183614342D01*
X184648628Y-183685771D01*
X184577200Y-183614342D01*
X184648628Y-183542914D01*
X184648628Y-183685771D01*
X184648628Y-182757200D02*
X184720057Y-182828628D01*
X184648628Y-182900057D01*
X184577200Y-182828628D01*
X184648628Y-182757200D01*
X184648628Y-182900057D01*
D10*
D12*
X178554342Y-180685771D02*
X178554342Y-179185771D01*
X179125771Y-179185771D01*
X179268628Y-179257200D01*
X179340057Y-179328628D01*
X179411485Y-179471485D01*
X179411485Y-179685771D01*
X179340057Y-179828628D01*
X179268628Y-179900057D01*
X179125771Y-179971485D01*
X178554342Y-179971485D01*
X180054342Y-180685771D02*
X180054342Y-179185771D01*
X180697200Y-180685771D02*
X180697200Y-179900057D01*
X180625771Y-179757200D01*
X180482914Y-179685771D01*
X180268628Y-179685771D01*
X180125771Y-179757200D01*
X180054342Y-179828628D01*
X181411485Y-180685771D02*
X181411485Y-179685771D01*
X181411485Y-179185771D02*
X181340057Y-179257200D01*
X181411485Y-179328628D01*
X181482914Y-179257200D01*
X181411485Y-179185771D01*
X181411485Y-179328628D01*
X182340057Y-180685771D02*
X182197200Y-180614342D01*
X182125771Y-180471485D01*
X182125771Y-179185771D01*
X182911485Y-180685771D02*
X182911485Y-179685771D01*
X182911485Y-179185771D02*
X182840057Y-179257200D01*
X182911485Y-179328628D01*
X182982914Y-179257200D01*
X182911485Y-179185771D01*
X182911485Y-179328628D01*
X183625771Y-179685771D02*
X183625771Y-181185771D01*
X183625771Y-179757200D02*
X183768628Y-179685771D01*
X184054342Y-179685771D01*
X184197200Y-179757200D01*
X184268628Y-179828628D01*
X184340057Y-179971485D01*
X184340057Y-180400057D01*
X184268628Y-180542914D01*
X184197200Y-180614342D01*
X184054342Y-180685771D01*
X183768628Y-180685771D01*
X183625771Y-180614342D01*
X184982914Y-179685771D02*
X184982914Y-181185771D01*
X184982914Y-179757200D02*
X185125771Y-179685771D01*
X185411485Y-179685771D01*
X185554342Y-179757200D01*
X185625771Y-179828628D01*
X185697200Y-179971485D01*
X185697200Y-180400057D01*
X185625771Y-180542914D01*
X185554342Y-180614342D01*
X185411485Y-180685771D01*
X185125771Y-180685771D01*
X184982914Y-180614342D01*
X187411485Y-180614342D02*
X187625771Y-180685771D01*
X187982914Y-180685771D01*
X188125771Y-180614342D01*
X188197200Y-180542914D01*
X188268628Y-180400057D01*
X188268628Y-180257200D01*
X188197200Y-180114342D01*
X188125771Y-180042914D01*
X187982914Y-179971485D01*
X187697200Y-179900057D01*
X187554342Y-179828628D01*
X187482914Y-179757200D01*
X187411485Y-179614342D01*
X187411485Y-179471485D01*
X187482914Y-179328628D01*
X187554342Y-179257200D01*
X187697200Y-179185771D01*
X188054342Y-179185771D01*
X188268628Y-179257200D01*
X189554342Y-180614342D02*
X189411485Y-180685771D01*
X189125771Y-180685771D01*
X188982914Y-180614342D01*
X188911485Y-180542914D01*
X188840057Y-180400057D01*
X188840057Y-179971485D01*
X188911485Y-179828628D01*
X188982914Y-179757200D01*
X189125771Y-179685771D01*
X189411485Y-179685771D01*
X189554342Y-179757200D01*
X190197200Y-180685771D02*
X190197200Y-179185771D01*
X190840057Y-180685771D02*
X190840057Y-179900057D01*
X190768628Y-179757200D01*
X190625771Y-179685771D01*
X190411485Y-179685771D01*
X190268628Y-179757200D01*
X190197200Y-179828628D01*
X191554342Y-180685771D02*
X191554342Y-179685771D01*
X191554342Y-179185771D02*
X191482914Y-179257200D01*
X191554342Y-179328628D01*
X191625771Y-179257200D01*
X191554342Y-179185771D01*
X191554342Y-179328628D01*
X192482914Y-180685771D02*
X192340057Y-180614342D01*
X192268628Y-180471485D01*
X192268628Y-179185771D01*
X193054342Y-180685771D02*
X193054342Y-179185771D01*
X193197200Y-180114342D02*
X193625771Y-180685771D01*
X193625771Y-179685771D02*
X193054342Y-180257200D01*
D10*
D11*
X178434342Y-177685771D02*
X178434342Y-176185771D01*
X179077200Y-177685771D02*
X179077200Y-176900057D01*
X179005771Y-176757200D01*
X178862914Y-176685771D01*
X178648628Y-176685771D01*
X178505771Y-176757200D01*
X178434342Y-176828628D01*
X179577200Y-176685771D02*
X180148628Y-176685771D01*
X179791485Y-176185771D02*
X179791485Y-177471485D01*
X179862914Y-177614342D01*
X180005771Y-177685771D01*
X180148628Y-177685771D01*
X180434342Y-176685771D02*
X181005771Y-176685771D01*
X180648628Y-176185771D02*
X180648628Y-177471485D01*
X180720057Y-177614342D01*
X180862914Y-177685771D01*
X181005771Y-177685771D01*
X181505771Y-176685771D02*
X181505771Y-178185771D01*
X181505771Y-176757200D02*
X181648628Y-176685771D01*
X181934342Y-176685771D01*
X182077200Y-176757200D01*
X182148628Y-176828628D01*
X182220057Y-176971485D01*
X182220057Y-177400057D01*
X182148628Y-177542914D01*
X182077200Y-177614342D01*
X181934342Y-177685771D01*
X181648628Y-177685771D01*
X181505771Y-177614342D01*
X182791485Y-177614342D02*
X182934342Y-177685771D01*
X183220057Y-177685771D01*
X183362914Y-177614342D01*
X183434342Y-177471485D01*
X183434342Y-177400057D01*
X183362914Y-177257200D01*
X183220057Y-177185771D01*
X183005771Y-177185771D01*
X182862914Y-177114342D01*
X182791485Y-176971485D01*
X182791485Y-176900057D01*
X182862914Y-176757200D01*
X183005771Y-176685771D01*
X183220057Y-176685771D01*
X183362914Y-176757200D01*
X184077200Y-177542914D02*
X184148628Y-177614342D01*
X184077200Y-177685771D01*
X184005771Y-177614342D01*
X184077200Y-177542914D01*
X184077200Y-177685771D01*
X184077200Y-176757200D02*
X184148628Y-176828628D01*
X184077200Y-176900057D01*
X184005771Y-176828628D01*
X184077200Y-176757200D01*
X184077200Y-176900057D01*
X185862914Y-176114342D02*
X184577200Y-178042914D01*
X187434342Y-176114342D02*
X186148628Y-178042914D01*
X188577200Y-176685771D02*
X188577200Y-177900057D01*
X188505771Y-178042914D01*
X188434342Y-178114342D01*
X188291485Y-178185771D01*
X188077200Y-178185771D01*
X187934342Y-178114342D01*
X188577200Y-177614342D02*
X188434342Y-177685771D01*
X188148628Y-177685771D01*
X188005771Y-177614342D01*
X187934342Y-177542914D01*
X187862914Y-177400057D01*
X187862914Y-176971485D01*
X187934342Y-176828628D01*
X188005771Y-176757200D01*
X188148628Y-176685771D01*
X188434342Y-176685771D01*
X188577200Y-176757200D01*
X189291485Y-177685771D02*
X189291485Y-176685771D01*
X189291485Y-176185771D02*
X189220057Y-176257200D01*
X189291485Y-176328628D01*
X189362914Y-176257200D01*
X189291485Y-176185771D01*
X189291485Y-176328628D01*
X189791485Y-176685771D02*
X190362914Y-176685771D01*
X190005771Y-176185771D02*
X190005771Y-177471485D01*
X190077200Y-177614342D01*
X190220057Y-177685771D01*
X190362914Y-177685771D01*
X190862914Y-177685771D02*
X190862914Y-176185771D01*
X191505771Y-177685771D02*
X191505771Y-176900057D01*
X191434342Y-176757200D01*
X191291485Y-176685771D01*
X191077200Y-176685771D01*
X190934342Y-176757200D01*
X190862914Y-176828628D01*
X192862914Y-176685771D02*
X192862914Y-177685771D01*
X192220057Y-176685771D02*
X192220057Y-177471485D01*
X192291485Y-177614342D01*
X192434342Y-177685771D01*
X192648628Y-177685771D01*
X192791485Y-177614342D01*
X192862914Y-177542914D01*
X193577200Y-177685771D02*
X193577200Y-176185771D01*
X193577200Y-176757200D02*
X193720057Y-176685771D01*
X194005771Y-176685771D01*
X194148628Y-176757200D01*
X194220057Y-176828628D01*
X194291485Y-176971485D01*
X194291485Y-177400057D01*
X194220057Y-177542914D01*
X194148628Y-177614342D01*
X194005771Y-177685771D01*
X193720057Y-177685771D01*
X193577200Y-177614342D01*
X194934342Y-177542914D02*
X195005771Y-177614342D01*
X194934342Y-177685771D01*
X194862914Y-177614342D01*
X194934342Y-177542914D01*
X194934342Y-177685771D01*
X196291485Y-177614342D02*
X196148628Y-177685771D01*
X195862914Y-177685771D01*
X195720057Y-177614342D01*
X195648628Y-177542914D01*
X195577200Y-177400057D01*
X195577200Y-176971485D01*
X195648628Y-176828628D01*
X195720057Y-176757200D01*
X195862914Y-176685771D01*
X196148628Y-176685771D01*
X196291485Y-176757200D01*
X197148628Y-177685771D02*
X197005771Y-177614342D01*
X196934342Y-177542914D01*
X196862914Y-177400057D01*
X196862914Y-176971485D01*
X196934342Y-176828628D01*
X197005771Y-176757200D01*
X197148628Y-176685771D01*
X197362914Y-176685771D01*
X197505771Y-176757200D01*
X197577200Y-176828628D01*
X197648628Y-176971485D01*
X197648628Y-177400057D01*
X197577200Y-177542914D01*
X197505771Y-177614342D01*
X197362914Y-177685771D01*
X197148628Y-177685771D01*
X198291485Y-177685771D02*
X198291485Y-176685771D01*
X198291485Y-176828628D02*
X198362914Y-176757200D01*
X198505771Y-176685771D01*
X198720057Y-176685771D01*
X198862914Y-176757200D01*
X198934342Y-176900057D01*
X198934342Y-177685771D01*
X198934342Y-176900057D02*
X199005771Y-176757200D01*
X199148628Y-176685771D01*
X199362914Y-176685771D01*
X199505771Y-176757200D01*
X199577200Y-176900057D01*
X199577200Y-177685771D01*
X201362914Y-176114342D02*
X200077200Y-178042914D01*
X201648628Y-176185771D02*
X202505771Y-176185771D01*
X202077200Y-177685771D02*
X202077200Y-176185771D01*
X203005771Y-177685771D02*
X203005771Y-176185771D01*
X203648628Y-177685771D02*
X203648628Y-176900057D01*
X203577200Y-176757200D01*
X203434342Y-176685771D01*
X203220057Y-176685771D01*
X203077200Y-176757200D01*
X203005771Y-176828628D01*
X204934342Y-177614342D02*
X204791485Y-177685771D01*
X204505771Y-177685771D01*
X204362914Y-177614342D01*
X204291485Y-177471485D01*
X204291485Y-176900057D01*
X204362914Y-176757200D01*
X204505771Y-176685771D01*
X204791485Y-176685771D01*
X204934342Y-176757200D01*
X205005771Y-176900057D01*
X205005771Y-177042914D01*
X204291485Y-177185771D01*
X205577200Y-177614342D02*
X205791485Y-177685771D01*
X206148628Y-177685771D01*
X206291485Y-177614342D01*
X206362914Y-177542914D01*
X206434342Y-177400057D01*
X206434342Y-177257200D01*
X206362914Y-177114342D01*
X206291485Y-177042914D01*
X206148628Y-176971485D01*
X205862914Y-176900057D01*
X205720057Y-176828628D01*
X205648628Y-176757200D01*
X205577200Y-176614342D01*
X205577200Y-176471485D01*
X205648628Y-176328628D01*
X205720057Y-176257200D01*
X205862914Y-176185771D01*
X206220057Y-176185771D01*
X206434342Y-176257200D01*
X207720057Y-177614342D02*
X207577200Y-177685771D01*
X207291485Y-177685771D01*
X207148628Y-177614342D01*
X207077200Y-177542914D01*
X207005771Y-177400057D01*
X207005771Y-176971485D01*
X207077200Y-176828628D01*
X207148628Y-176757200D01*
X207291485Y-176685771D01*
X207577200Y-176685771D01*
X207720057Y-176757200D01*
X208362914Y-177685771D02*
X208362914Y-176185771D01*
X209005771Y-177685771D02*
X209005771Y-176900057D01*
X208934342Y-176757200D01*
X208791485Y-176685771D01*
X208577200Y-176685771D01*
X208434342Y-176757200D01*
X208362914Y-176828628D01*
X209720057Y-177685771D02*
X209720057Y-176685771D01*
X209720057Y-176185771D02*
X209648628Y-176257200D01*
X209720057Y-176328628D01*
X209791485Y-176257200D01*
X209720057Y-176185771D01*
X209720057Y-176328628D01*
X210648628Y-177685771D02*
X210505771Y-177614342D01*
X210434342Y-177471485D01*
X210434342Y-176185771D01*
X211220057Y-177685771D02*
X211220057Y-176185771D01*
X211362914Y-177114342D02*
X211791485Y-177685771D01*
X211791485Y-176685771D02*
X211220057Y-177257200D01*
X213505771Y-176114342D02*
X212220057Y-178042914D01*
X213934342Y-177614342D02*
X214148628Y-177685771D01*
X214505771Y-177685771D01*
X214648628Y-177614342D01*
X214720057Y-177542914D01*
X214791485Y-177400057D01*
X214791485Y-177257200D01*
X214720057Y-177114342D01*
X214648628Y-177042914D01*
X214505771Y-176971485D01*
X214220057Y-176900057D01*
X214077200Y-176828628D01*
X214005771Y-176757200D01*
X213934342Y-176614342D01*
X213934342Y-176471485D01*
X214005771Y-176328628D01*
X214077200Y-176257200D01*
X214220057Y-176185771D01*
X214577200Y-176185771D01*
X214791485Y-176257200D01*
X215720057Y-176971485D02*
X215720057Y-177685771D01*
X215220057Y-176185771D02*
X215720057Y-176971485D01*
X216220057Y-176185771D01*
X216648628Y-177614342D02*
X216862914Y-177685771D01*
X217220057Y-177685771D01*
X217362914Y-177614342D01*
X217434342Y-177542914D01*
X217505771Y-177400057D01*
X217505771Y-177257200D01*
X217434342Y-177114342D01*
X217362914Y-177042914D01*
X217220057Y-176971485D01*
X216934342Y-176900057D01*
X216791485Y-176828628D01*
X216720057Y-176757200D01*
X216648628Y-176614342D01*
X216648628Y-176471485D01*
X216720057Y-176328628D01*
X216791485Y-176257200D01*
X216934342Y-176185771D01*
X217291485Y-176185771D01*
X217505771Y-176257200D01*
X217791485Y-177828628D02*
X218934342Y-177828628D01*
X219220057Y-177614342D02*
X219434342Y-177685771D01*
X219791485Y-177685771D01*
X219934342Y-177614342D01*
X220005771Y-177542914D01*
X220077200Y-177400057D01*
X220077200Y-177257200D01*
X220005771Y-177114342D01*
X219934342Y-177042914D01*
X219791485Y-176971485D01*
X219505771Y-176900057D01*
X219362914Y-176828628D01*
X219291485Y-176757200D01*
X219220057Y-176614342D01*
X219220057Y-176471485D01*
X219291485Y-176328628D01*
X219362914Y-176257200D01*
X219505771Y-176185771D01*
X219862914Y-176185771D01*
X220077200Y-176257200D01*
X220505771Y-176685771D02*
X221077200Y-176685771D01*
X220720057Y-176185771D02*
X220720057Y-177471485D01*
X220791485Y-177614342D01*
X220934342Y-177685771D01*
X221077200Y-177685771D01*
X222148628Y-177614342D02*
X222005771Y-177685771D01*
X221720057Y-177685771D01*
X221577200Y-177614342D01*
X221505771Y-177471485D01*
X221505771Y-176900057D01*
X221577200Y-176757200D01*
X221720057Y-176685771D01*
X222005771Y-176685771D01*
X222148628Y-176757200D01*
X222220057Y-176900057D01*
X222220057Y-177042914D01*
X221505771Y-177185771D01*
X222862914Y-176685771D02*
X222862914Y-178185771D01*
X222862914Y-176757200D02*
X223005771Y-176685771D01*
X223291485Y-176685771D01*
X223434342Y-176757200D01*
X223505771Y-176828628D01*
X223577200Y-176971485D01*
X223577200Y-177400057D01*
X223505771Y-177542914D01*
X223434342Y-177614342D01*
X223291485Y-177685771D01*
X223005771Y-177685771D01*
X222862914Y-177614342D01*
X224148628Y-177257200D02*
X224862914Y-177257200D01*
X224005771Y-177685771D02*
X224505771Y-176185771D01*
X225005771Y-177685771D01*
X225291485Y-176685771D02*
X225862914Y-176685771D01*
X225505771Y-176185771D02*
X225505771Y-177471485D01*
X225577200Y-177614342D01*
X225720057Y-177685771D01*
X225862914Y-177685771D01*
X226148628Y-176685771D02*
X226720057Y-176685771D01*
X226362914Y-176185771D02*
X226362914Y-177471485D01*
X226434342Y-177614342D01*
X226577200Y-177685771D01*
X226720057Y-177685771D01*
X227791485Y-177614342D02*
X227648628Y-177685771D01*
X227362914Y-177685771D01*
X227220057Y-177614342D01*
X227148628Y-177471485D01*
X227148628Y-176900057D01*
X227220057Y-176757200D01*
X227362914Y-176685771D01*
X227648628Y-176685771D01*
X227791485Y-176757200D01*
X227862914Y-176900057D01*
X227862914Y-177042914D01*
X227148628Y-177185771D01*
X228505771Y-176685771D02*
X228505771Y-177685771D01*
X228505771Y-176828628D02*
X228577200Y-176757200D01*
X228720057Y-176685771D01*
X228934342Y-176685771D01*
X229077200Y-176757200D01*
X229148628Y-176900057D01*
X229148628Y-177685771D01*
D10*
D11*
X178862914Y-169185771D02*
X178505771Y-169185771D01*
X178505771Y-167042914D01*
X178862914Y-167042914D01*
X179434342Y-168685771D02*
X179434342Y-167185771D01*
X180291485Y-168685771D01*
X180291485Y-167185771D01*
X181220057Y-168685771D02*
X181077200Y-168614342D01*
X181005771Y-168542914D01*
X180934342Y-168400057D01*
X180934342Y-167971485D01*
X181005771Y-167828628D01*
X181077200Y-167757200D01*
X181220057Y-167685771D01*
X181434342Y-167685771D01*
X181577200Y-167757200D01*
X181648628Y-167828628D01*
X181720057Y-167971485D01*
X181720057Y-168400057D01*
X181648628Y-168542914D01*
X181577200Y-168614342D01*
X181434342Y-168685771D01*
X181220057Y-168685771D01*
X183434342Y-168257200D02*
X184148628Y-168257200D01*
X183291485Y-168685771D02*
X183791485Y-167185771D01*
X184291485Y-168685771D01*
X184720057Y-168614342D02*
X184862914Y-168685771D01*
X185148628Y-168685771D01*
X185291485Y-168614342D01*
X185362914Y-168471485D01*
X185362914Y-168400057D01*
X185291485Y-168257200D01*
X185148628Y-168185771D01*
X184934342Y-168185771D01*
X184791485Y-168114342D01*
X184720057Y-167971485D01*
X184720057Y-167900057D01*
X184791485Y-167757200D01*
X184934342Y-167685771D01*
X185148628Y-167685771D01*
X185291485Y-167757200D01*
X185934342Y-168614342D02*
X186077200Y-168685771D01*
X186362914Y-168685771D01*
X186505771Y-168614342D01*
X186577200Y-168471485D01*
X186577200Y-168400057D01*
X186505771Y-168257200D01*
X186362914Y-168185771D01*
X186148628Y-168185771D01*
X186005771Y-168114342D01*
X185934342Y-167971485D01*
X185934342Y-167900057D01*
X186005771Y-167757200D01*
X186148628Y-167685771D01*
X186362914Y-167685771D01*
X186505771Y-167757200D01*
X187434342Y-168685771D02*
X187291485Y-168614342D01*
X187220057Y-168542914D01*
X187148628Y-168400057D01*
X187148628Y-167971485D01*
X187220057Y-167828628D01*
X187291485Y-167757200D01*
X187434342Y-167685771D01*
X187648628Y-167685771D01*
X187791485Y-167757200D01*
X187862914Y-167828628D01*
X187934342Y-167971485D01*
X187934342Y-168400057D01*
X187862914Y-168542914D01*
X187791485Y-168614342D01*
X187648628Y-168685771D01*
X187434342Y-168685771D01*
X189220057Y-168614342D02*
X189077200Y-168685771D01*
X188791485Y-168685771D01*
X188648628Y-168614342D01*
X188577200Y-168542914D01*
X188505771Y-168400057D01*
X188505771Y-167971485D01*
X188577200Y-167828628D01*
X188648628Y-167757200D01*
X188791485Y-167685771D01*
X189077200Y-167685771D01*
X189220057Y-167757200D01*
X189862914Y-168685771D02*
X189862914Y-167685771D01*
X189862914Y-167185771D02*
X189791485Y-167257200D01*
X189862914Y-167328628D01*
X189934342Y-167257200D01*
X189862914Y-167185771D01*
X189862914Y-167328628D01*
X191220057Y-168685771D02*
X191220057Y-167900057D01*
X191148628Y-167757200D01*
X191005771Y-167685771D01*
X190720057Y-167685771D01*
X190577200Y-167757200D01*
X191220057Y-168614342D02*
X191077200Y-168685771D01*
X190720057Y-168685771D01*
X190577200Y-168614342D01*
X190505771Y-168471485D01*
X190505771Y-168328628D01*
X190577200Y-168185771D01*
X190720057Y-168114342D01*
X191077200Y-168114342D01*
X191220057Y-168042914D01*
X191720057Y-167685771D02*
X192291485Y-167685771D01*
X191934342Y-167185771D02*
X191934342Y-168471485D01*
X192005771Y-168614342D01*
X192148628Y-168685771D01*
X192291485Y-168685771D01*
X192791485Y-168685771D02*
X192791485Y-167685771D01*
X192791485Y-167185771D02*
X192720057Y-167257200D01*
X192791485Y-167328628D01*
X192862914Y-167257200D01*
X192791485Y-167185771D01*
X192791485Y-167328628D01*
X193720057Y-168685771D02*
X193577200Y-168614342D01*
X193505771Y-168542914D01*
X193434342Y-168400057D01*
X193434342Y-167971485D01*
X193505771Y-167828628D01*
X193577200Y-167757200D01*
X193720057Y-167685771D01*
X193934342Y-167685771D01*
X194077200Y-167757200D01*
X194148628Y-167828628D01*
X194220057Y-167971485D01*
X194220057Y-168400057D01*
X194148628Y-168542914D01*
X194077200Y-168614342D01*
X193934342Y-168685771D01*
X193720057Y-168685771D01*
X194862914Y-167685771D02*
X194862914Y-168685771D01*
X194862914Y-167828628D02*
X194934342Y-167757200D01*
X195077200Y-167685771D01*
X195291485Y-167685771D01*
X195434342Y-167757200D01*
X195505771Y-167900057D01*
X195505771Y-168685771D01*
X197220057Y-167685771D02*
X197505771Y-168685771D01*
X197791485Y-167971485D01*
X198077200Y-168685771D01*
X198362914Y-167685771D01*
X198934342Y-168685771D02*
X198934342Y-167685771D01*
X198934342Y-167185771D02*
X198862914Y-167257200D01*
X198934342Y-167328628D01*
X199005771Y-167257200D01*
X198934342Y-167185771D01*
X198934342Y-167328628D01*
X199434342Y-167685771D02*
X200005771Y-167685771D01*
X199648628Y-167185771D02*
X199648628Y-168471485D01*
X199720057Y-168614342D01*
X199862914Y-168685771D01*
X200005771Y-168685771D01*
X200505771Y-168685771D02*
X200505771Y-167185771D01*
X201148628Y-168685771D02*
X201148628Y-167900057D01*
X201077200Y-167757200D01*
X200934342Y-167685771D01*
X200720057Y-167685771D01*
X200577200Y-167757200D01*
X200505771Y-167828628D01*
X202934342Y-168614342D02*
X203148628Y-168685771D01*
X203505771Y-168685771D01*
X203648628Y-168614342D01*
X203720057Y-168542914D01*
X203791485Y-168400057D01*
X203791485Y-168257200D01*
X203720057Y-168114342D01*
X203648628Y-168042914D01*
X203505771Y-167971485D01*
X203220057Y-167900057D01*
X203077200Y-167828628D01*
X203005771Y-167757200D01*
X202934342Y-167614342D01*
X202934342Y-167471485D01*
X203005771Y-167328628D01*
X203077200Y-167257200D01*
X203220057Y-167185771D01*
X203577200Y-167185771D01*
X203791485Y-167257200D01*
X205077200Y-168614342D02*
X204934342Y-168685771D01*
X204648628Y-168685771D01*
X204505771Y-168614342D01*
X204434342Y-168542914D01*
X204362914Y-168400057D01*
X204362914Y-167971485D01*
X204434342Y-167828628D01*
X204505771Y-167757200D01*
X204648628Y-167685771D01*
X204934342Y-167685771D01*
X205077200Y-167757200D01*
X205720057Y-168685771D02*
X205720057Y-167185771D01*
X206362914Y-168685771D02*
X206362914Y-167900057D01*
X206291485Y-167757200D01*
X206148628Y-167685771D01*
X205934342Y-167685771D01*
X205791485Y-167757200D01*
X205720057Y-167828628D01*
X207077200Y-168685771D02*
X207077200Y-167685771D01*
X207077200Y-167185771D02*
X207005771Y-167257200D01*
X207077200Y-167328628D01*
X207148628Y-167257200D01*
X207077200Y-167185771D01*
X207077200Y-167328628D01*
X207791485Y-168685771D02*
X207791485Y-167685771D01*
X207791485Y-167185771D02*
X207720057Y-167257200D01*
X207791485Y-167328628D01*
X207862914Y-167257200D01*
X207791485Y-167185771D01*
X207791485Y-167328628D01*
X208291485Y-167685771D02*
X208862914Y-167685771D01*
X208505771Y-167185771D02*
X208505771Y-168471485D01*
X208577200Y-168614342D01*
X208720057Y-168685771D01*
X208862914Y-168685771D01*
X210434342Y-168257200D02*
X211148628Y-168257200D01*
X210291485Y-168685771D02*
X210791485Y-167185771D01*
X211291485Y-168685771D01*
X212434342Y-167685771D02*
X212434342Y-168685771D01*
X211791485Y-167685771D02*
X211791485Y-168471485D01*
X211862914Y-168614342D01*
X212005771Y-168685771D01*
X212220057Y-168685771D01*
X212362914Y-168614342D01*
X212434342Y-168542914D01*
X213791485Y-168685771D02*
X213791485Y-167185771D01*
X213791485Y-168614342D02*
X213648628Y-168685771D01*
X213362914Y-168685771D01*
X213220057Y-168614342D01*
X213148628Y-168542914D01*
X213077200Y-168400057D01*
X213077200Y-167971485D01*
X213148628Y-167828628D01*
X213220057Y-167757200D01*
X213362914Y-167685771D01*
X213648628Y-167685771D01*
X213791485Y-167757200D01*
X214505771Y-168685771D02*
X214505771Y-167685771D01*
X214505771Y-167185771D02*
X214434342Y-167257200D01*
X214505771Y-167328628D01*
X214577200Y-167257200D01*
X214505771Y-167185771D01*
X214505771Y-167328628D01*
X215434342Y-168685771D02*
X215291485Y-168614342D01*
X215220057Y-168542914D01*
X215148628Y-168400057D01*
X215148628Y-167971485D01*
X215220057Y-167828628D01*
X215291485Y-167757200D01*
X215434342Y-167685771D01*
X215648628Y-167685771D01*
X215791485Y-167757200D01*
X215862914Y-167828628D01*
X215934342Y-167971485D01*
X215934342Y-168400057D01*
X215862914Y-168542914D01*
X215791485Y-168614342D01*
X215648628Y-168685771D01*
X215434342Y-168685771D01*
X216434342Y-169185771D02*
X216791485Y-169185771D01*
X216791485Y-167042914D01*
X216434342Y-167042914D01*
D10*
D11*
X197002200Y-191507200D02*
X197002200Y-194507200D01*
D10*
D11*
X261002200Y-191507200D02*
X261002200Y-198007200D01*
D14*
X200000000Y-147500000D02*
X200000000Y-63500000D01*
X200000000Y-63500000D02*
X78000000Y-63500000D01*
X78000000Y-63500000D02*
X78000000Y-147500000D01*
X78000000Y-147500000D02*
X200000000Y-147500000D01*
D15*
X143510000Y-82550000D03*
X140970000Y-82550000D03*
X143510000Y-80010000D03*
X140970000Y-80010000D03*
X143510000Y-77470000D03*
D16*
X140970000Y-77470000D03*
D15*
X134620000Y-92075000D03*
D16*
X134620000Y-86995000D03*
D15*
X134620000Y-89535000D03*
X125730000Y-92075000D03*
D16*
X125730000Y-86995000D03*
D15*
X125730000Y-89535000D03*
D17*
X175500000Y-129500000D03*
D18*
X104775000Y-90105000D03*
X88900000Y-90105000D03*
D19*
X87000000Y-72500000D03*
X101000000Y-72500000D03*
D20*
X91013210Y-67724790D03*
X105013210Y-67724790D03*
X187513210Y-67724790D03*
X173513210Y-67724790D03*
D19*
X183500000Y-72500000D03*
X169500000Y-72500000D03*
X138000000Y-72500000D03*
X152000000Y-72500000D03*
D20*
X142013210Y-67724790D03*
X156013210Y-67724790D03*
D21*
X118110000Y-78105000D03*
G04 #@! TA.AperFunction,ComponentPad*
D10*
G36*
X119183513Y-70608611D02*
G01*
X119256318Y-70619411D01*
X119327714Y-70637295D01*
X119397013Y-70662090D01*
X119463548Y-70693559D01*
X119526678Y-70731398D01*
X119585795Y-70775242D01*
X119640330Y-70824670D01*
X119689758Y-70879205D01*
X119733602Y-70938322D01*
X119771441Y-71001452D01*
X119802910Y-71067987D01*
X119827705Y-71137286D01*
X119845589Y-71208682D01*
X119856389Y-71281487D01*
X119860000Y-71355000D01*
X119860000Y-72855000D01*
X119856389Y-72928513D01*
X119845589Y-73001318D01*
X119827705Y-73072714D01*
X119802910Y-73142013D01*
X119771441Y-73208548D01*
X119733602Y-73271678D01*
X119689758Y-73330795D01*
X119640330Y-73385330D01*
X119585795Y-73434758D01*
X119526678Y-73478602D01*
X119463548Y-73516441D01*
X119397013Y-73547910D01*
X119327714Y-73572705D01*
X119256318Y-73590589D01*
X119183513Y-73601389D01*
X119110000Y-73605000D01*
X117110000Y-73605000D01*
X117036487Y-73601389D01*
X116963682Y-73590589D01*
X116892286Y-73572705D01*
X116822987Y-73547910D01*
X116756452Y-73516441D01*
X116693322Y-73478602D01*
X116634205Y-73434758D01*
X116579670Y-73385330D01*
X116530242Y-73330795D01*
X116486398Y-73271678D01*
X116448559Y-73208548D01*
X116417090Y-73142013D01*
X116392295Y-73072714D01*
X116374411Y-73001318D01*
X116363611Y-72928513D01*
X116360000Y-72855000D01*
X116360000Y-71355000D01*
X116363611Y-71281487D01*
X116374411Y-71208682D01*
X116392295Y-71137286D01*
X116417090Y-71067987D01*
X116448559Y-71001452D01*
X116486398Y-70938322D01*
X116530242Y-70879205D01*
X116579670Y-70824670D01*
X116634205Y-70775242D01*
X116693322Y-70731398D01*
X116756452Y-70693559D01*
X116822987Y-70662090D01*
X116892286Y-70637295D01*
X116963682Y-70619411D01*
X117036487Y-70608611D01*
X117110000Y-70605000D01*
X119110000Y-70605000D01*
X119183513Y-70608611D01*
G37*
G04 #@! TD.AperFunction*
G04 #@! TA.AperFunction,ComponentPad*
G36*
X114370765Y-73359213D02*
G01*
X114455704Y-73371813D01*
X114538999Y-73392677D01*
X114619848Y-73421605D01*
X114697472Y-73458319D01*
X114771124Y-73502464D01*
X114840094Y-73553616D01*
X114903718Y-73611282D01*
X114961384Y-73674906D01*
X115012536Y-73743876D01*
X115056681Y-73817528D01*
X115093395Y-73895152D01*
X115122323Y-73976001D01*
X115143187Y-74059296D01*
X115155787Y-74144235D01*
X115160000Y-74230000D01*
X115160000Y-75980000D01*
X115155787Y-76065765D01*
X115143187Y-76150704D01*
X115122323Y-76233999D01*
X115093395Y-76314848D01*
X115056681Y-76392472D01*
X115012536Y-76466124D01*
X114961384Y-76535094D01*
X114903718Y-76598718D01*
X114840094Y-76656384D01*
X114771124Y-76707536D01*
X114697472Y-76751681D01*
X114619848Y-76788395D01*
X114538999Y-76817323D01*
X114455704Y-76838187D01*
X114370765Y-76850787D01*
X114285000Y-76855000D01*
X112535000Y-76855000D01*
X112449235Y-76850787D01*
X112364296Y-76838187D01*
X112281001Y-76817323D01*
X112200152Y-76788395D01*
X112122528Y-76751681D01*
X112048876Y-76707536D01*
X111979906Y-76656384D01*
X111916282Y-76598718D01*
X111858616Y-76535094D01*
X111807464Y-76466124D01*
X111763319Y-76392472D01*
X111726605Y-76314848D01*
X111697677Y-76233999D01*
X111676813Y-76150704D01*
X111664213Y-76065765D01*
X111660000Y-75980000D01*
X111660000Y-74230000D01*
X111664213Y-74144235D01*
X111676813Y-74059296D01*
X111697677Y-73976001D01*
X111726605Y-73895152D01*
X111763319Y-73817528D01*
X111807464Y-73743876D01*
X111858616Y-73674906D01*
X111916282Y-73611282D01*
X111979906Y-73553616D01*
X112048876Y-73502464D01*
X112122528Y-73458319D01*
X112200152Y-73421605D01*
X112281001Y-73392677D01*
X112364296Y-73371813D01*
X112449235Y-73359213D01*
X112535000Y-73355000D01*
X114285000Y-73355000D01*
X114370765Y-73359213D01*
G37*
G04 #@! TD.AperFunction*
D16*
X127000000Y-76200000D03*
D15*
X127000000Y-73660000D03*
X129540000Y-76200000D03*
X129540000Y-73660000D03*
D16*
X196215000Y-140335000D03*
D15*
X193675000Y-140335000D03*
X196215000Y-137795000D03*
X193675000Y-137795000D03*
X196215000Y-135255000D03*
X193675000Y-135255000D03*
X82550000Y-81280000D03*
X80010000Y-81280000D03*
X82550000Y-78740000D03*
X80010000Y-78740000D03*
X82550000Y-76200000D03*
D16*
X80010000Y-76200000D03*
D22*
X92710000Y-77470000D03*
X90170000Y-77470000D03*
X87630000Y-77470000D03*
X97790000Y-77470000D03*
X100330000Y-77470000D03*
X102870000Y-77470000D03*
D23*
X162500000Y-137500000D03*
X160000000Y-137500000D03*
X157500000Y-137500000D03*
D24*
X165000000Y-134200000D03*
X155000000Y-134200000D03*
D18*
X183000000Y-119500000D03*
X183000000Y-123500000D03*
X183000000Y-127500000D03*
X189000000Y-127500000D03*
X189000000Y-123500000D03*
X189000000Y-119500000D03*
D16*
X109220000Y-75565000D03*
D15*
X109220000Y-78105000D03*
D25*
X102235000Y-95885000D03*
D26*
X104775000Y-95885000D03*
X107315000Y-95885000D03*
X91440000Y-95885000D03*
X88900000Y-95885000D03*
D25*
X86360000Y-95885000D03*
D27*
X109855000Y-97155000D03*
X121920000Y-92710000D03*
X154305000Y-109220000D03*
X153035000Y-109220000D03*
X151765000Y-109220000D03*
X109855000Y-95885000D03*
X110807500Y-94932500D03*
X116840000Y-94615000D03*
X118110000Y-94615000D03*
X116840000Y-93345000D03*
X121920000Y-91440000D03*
X121920000Y-90170000D03*
X169545000Y-116840000D03*
X168961764Y-113437510D03*
X195580000Y-123825000D03*
X185737500Y-123825000D03*
X176212500Y-116205000D03*
X175792835Y-134805456D03*
X154940000Y-129540000D03*
X158750000Y-128270000D03*
X150812500Y-128270000D03*
X150812500Y-115252500D03*
X154622500Y-113030000D03*
X189547500Y-136525000D03*
X155892500Y-141605000D03*
X155892500Y-143510000D03*
X162242500Y-128905000D03*
X163512500Y-127000000D03*
X162242500Y-112712500D03*
X164604340Y-113039408D03*
X157162500Y-117475000D03*
X130810000Y-92710000D03*
X136525000Y-98425000D03*
X137477500Y-100330000D03*
X178435000Y-136207500D03*
X164782500Y-137795000D03*
X166052500Y-123507500D03*
X166052500Y-118745000D03*
X160020000Y-112395000D03*
X151447500Y-122237500D03*
X151130000Y-141922500D03*
X133985000Y-121920000D03*
X160655000Y-80010000D03*
X160655000Y-91440000D03*
X177165000Y-91440000D03*
X177800000Y-76200000D03*
X192405000Y-92075000D03*
X192405000Y-77470000D03*
X112395000Y-99060000D03*
X112395000Y-97790000D03*
X112395000Y-99060000D03*
X180340000Y-90170000D03*
X164465000Y-110490000D03*
X180340000Y-110490000D03*
X155575000Y-110490000D03*
X156845000Y-110490000D03*
X158115000Y-110490000D03*
X132715000Y-114300000D03*
X113347500Y-96837500D03*
X187960000Y-110490000D03*
X189230000Y-130492500D03*
X182562500Y-138112500D03*
X170497500Y-140017500D03*
X193357500Y-125730000D03*
X97155000Y-138430000D03*
X95885000Y-130810000D03*
X98425000Y-121920000D03*
X97155000Y-114300000D03*
X114935000Y-114300000D03*
X116205000Y-121920000D03*
X113665000Y-130810000D03*
X114935000Y-138430000D03*
X131445000Y-130810000D03*
X132715000Y-138430000D03*
X150495000Y-138430000D03*
X146685000Y-132715000D03*
X83185000Y-120015000D03*
X97155000Y-100965000D03*
X88900000Y-100965000D03*
X161995000Y-122485000D03*
X157840592Y-122327510D03*
X162560000Y-78105000D03*
X162560000Y-87630000D03*
X159385000Y-90170000D03*
X158750000Y-106770010D03*
X188277500Y-144780000D03*
X183832500Y-144145000D03*
X179070000Y-78105000D03*
X179070000Y-87630000D03*
X175260000Y-106680000D03*
X195580000Y-78105000D03*
X195580000Y-87630000D03*
X191770000Y-106680000D03*
X193675000Y-90170000D03*
X179070000Y-93980000D03*
X179070000Y-103505000D03*
X162560000Y-93980000D03*
X162560000Y-103505000D03*
X195580000Y-93980000D03*
X195580000Y-103505000D03*
X96520000Y-106045000D03*
X95250000Y-140335000D03*
X110490000Y-106045000D03*
X113160000Y-139830000D03*
X123190000Y-106045000D03*
X130810000Y-140335000D03*
X146685000Y-106045000D03*
X147971230Y-139604979D03*
X136525000Y-106045000D03*
X135255000Y-112395000D03*
X113665000Y-106045000D03*
X116840000Y-112395000D03*
X98930000Y-112900000D03*
X98555009Y-105972886D03*
X79375000Y-120015000D03*
X83185000Y-109855000D03*
X83185000Y-105410000D03*
X81915000Y-85725000D03*
X145415000Y-136525000D03*
X147320000Y-116205000D03*
X188595000Y-85090000D03*
X190500000Y-83820000D03*
X198120000Y-90170000D03*
X82867500Y-144780000D03*
X92075000Y-132080000D03*
X92075000Y-134620000D03*
X109855000Y-132080000D03*
X109855000Y-134620000D03*
X127635000Y-132080000D03*
X127635000Y-134620000D03*
X137795000Y-120650000D03*
X137795000Y-118110000D03*
X120015000Y-120650000D03*
X120015000Y-118110000D03*
X102235000Y-120650000D03*
X102235000Y-118110000D03*
X188595000Y-80645000D03*
X190500000Y-81915000D03*
X199375000Y-90170000D03*
X81280000Y-134620000D03*
X174625000Y-85725000D03*
X174625000Y-91440000D03*
X177165000Y-74930000D03*
X173355000Y-103505000D03*
X139700000Y-85725000D03*
X140335000Y-93345000D03*
X169545000Y-99695000D03*
X169545000Y-101600000D03*
X169545000Y-95885000D03*
X169545000Y-97790000D03*
X141605000Y-92710000D03*
X142240000Y-85725000D03*
X169545000Y-85090000D03*
X164845245Y-65812510D03*
X156210000Y-71755000D03*
X145097500Y-66040000D03*
X137795000Y-90805000D03*
X129540000Y-85725000D03*
X136894990Y-88898596D03*
X160972500Y-112712500D03*
X164101509Y-112175010D03*
X151035021Y-125730000D03*
X191452500Y-137160000D03*
X186055000Y-80645000D03*
X186055000Y-85090000D03*
X186055000Y-83185000D03*
X172085000Y-101600000D03*
X173990000Y-100330000D03*
X172085000Y-95885000D03*
X173990000Y-97155000D03*
X188595000Y-100965000D03*
X191135000Y-99695000D03*
X188595000Y-96520000D03*
X191135000Y-97790000D03*
X142875000Y-137160000D03*
X142875000Y-132715000D03*
X145240302Y-120650000D03*
X145415000Y-117475000D03*
X89535000Y-83185000D03*
X93345000Y-83185000D03*
X161290000Y-106045000D03*
X163195000Y-106045000D03*
X163390160Y-124337660D03*
X175260000Y-113665000D03*
X164790028Y-123597510D03*
X92075000Y-102870000D03*
X162877500Y-120967500D03*
X104775000Y-104140000D03*
X158750000Y-120650000D03*
X121970002Y-106045000D03*
X158436783Y-119199988D03*
X141287500Y-106045000D03*
X150945010Y-106812510D03*
X137160000Y-102235000D03*
X133032500Y-105410000D03*
X114935000Y-106045000D03*
X162539990Y-118745000D03*
X99745002Y-104775000D03*
X163195000Y-119697500D03*
X88900000Y-106045000D03*
X165417500Y-127317500D03*
X166922500Y-121685000D03*
X170635023Y-128097542D03*
X169862500Y-123190000D03*
X169910013Y-127000000D03*
D28*
X111125000Y-94615000D02*
X116840000Y-94615000D01*
X116840000Y-94615000D02*
X117475000Y-94615000D01*
X121920000Y-92075000D02*
X121920000Y-91440000D01*
X154305000Y-109220000D02*
X153035000Y-109220000D01*
X153035000Y-109220000D02*
X151765000Y-109220000D01*
X109855000Y-97155000D02*
X109855000Y-95885000D01*
X109855000Y-95885000D02*
X111125000Y-94615000D01*
X116840000Y-94615000D02*
X118110000Y-94615000D01*
X116840000Y-93345000D02*
X116840000Y-94615000D01*
X121920000Y-92710000D02*
X121920000Y-91440000D01*
X121920000Y-91440000D02*
X121920000Y-90170000D01*
X149860000Y-107315000D02*
X149860000Y-105410000D01*
X149860000Y-105410000D02*
X147817479Y-103367479D01*
X132577479Y-103367479D02*
X122319999Y-93109999D01*
X122319999Y-93109999D02*
X121920000Y-92710000D01*
X147817479Y-103367479D02*
X132577479Y-103367479D01*
X151765000Y-109220000D02*
X149860000Y-107315000D01*
D29*
X168961764Y-116256764D02*
X168961764Y-113437510D01*
X169545000Y-116840000D02*
X168961764Y-116256764D01*
X193325000Y-123825000D02*
X189000000Y-119500000D01*
X195580000Y-123825000D02*
X193325000Y-123825000D01*
X185737500Y-122762500D02*
X189000000Y-119500000D01*
X185737500Y-123825000D02*
X185737500Y-122762500D01*
X185705000Y-116205000D02*
X189000000Y-119500000D01*
X176212500Y-116205000D02*
X185705000Y-116205000D01*
X185737500Y-127635000D02*
X185737500Y-124390685D01*
X185737500Y-124390685D02*
X185737500Y-123825000D01*
X178567044Y-134805456D02*
X185737500Y-127635000D01*
X175792835Y-134805456D02*
X178567044Y-134805456D01*
X154940000Y-129540000D02*
X156210000Y-128270000D01*
X156210000Y-128270000D02*
X158750000Y-128270000D01*
X152400000Y-115252500D02*
X154622500Y-113030000D01*
X150812500Y-115252500D02*
X152400000Y-115252500D01*
X151212499Y-115652499D02*
X150812500Y-115252500D01*
X153670000Y-121285000D02*
X153670000Y-118110000D01*
X150812500Y-128270000D02*
X150310011Y-127767511D01*
X153670000Y-118110000D02*
X151212499Y-115652499D01*
X150310011Y-127767511D02*
X150310011Y-124644989D01*
X150310011Y-124644989D02*
X153670000Y-121285000D01*
D30*
X116522500Y-90805000D02*
X116840000Y-91122500D01*
X113030000Y-90805000D02*
X116522500Y-90805000D01*
X108585000Y-86360000D02*
X113030000Y-90805000D01*
X87630000Y-86360000D02*
X108585000Y-86360000D01*
X78659999Y-80090001D02*
X78659999Y-85009999D01*
X80010000Y-78740000D02*
X78659999Y-80090001D01*
X81280000Y-87630000D02*
X86360000Y-87630000D01*
X116840000Y-91122500D02*
X116840000Y-93345000D01*
X78659999Y-85009999D02*
X81280000Y-87630000D01*
X86360000Y-87630000D02*
X87630000Y-86360000D01*
D29*
X193675000Y-135255000D02*
X190817500Y-135255000D01*
X190817500Y-135255000D02*
X189547500Y-136525000D01*
X175792835Y-134805456D02*
X170312044Y-134805456D01*
X155892500Y-141605000D02*
X155892500Y-143510000D01*
X162242500Y-128905000D02*
X162242500Y-128270000D01*
X162242500Y-128270000D02*
X163512500Y-127000000D01*
X127000000Y-73660000D02*
X127000000Y-67310000D01*
X127000000Y-67310000D02*
X130175000Y-64135000D01*
X130175000Y-64135000D02*
X160653589Y-64135000D01*
X160653589Y-64135000D02*
X165100000Y-64135000D01*
X165101411Y-64135000D02*
X165100000Y-64135000D01*
X198570011Y-83053900D02*
X197167500Y-84456410D01*
X197167500Y-111126410D02*
X197166090Y-111126410D01*
X197167500Y-84456410D02*
X197167500Y-111126410D01*
X165100000Y-64135000D02*
X196851411Y-64135000D01*
X164931248Y-112712500D02*
X164604340Y-113039408D01*
X197166090Y-111126410D02*
X195580000Y-112712500D01*
X198570011Y-65853600D02*
X198570011Y-83053900D01*
X196851411Y-64135000D02*
X198570011Y-65853600D01*
X195580000Y-112712500D02*
X164931248Y-112712500D01*
X162242500Y-113030000D02*
X162242500Y-112712500D01*
X158115000Y-114617500D02*
X160655000Y-114617500D01*
X157162500Y-117475000D02*
X157162500Y-115570000D01*
X160655000Y-114617500D02*
X162242500Y-113030000D01*
X157162500Y-115570000D02*
X158115000Y-114617500D01*
X133985000Y-95885000D02*
X136525000Y-98425000D01*
X130810000Y-92710000D02*
X130810000Y-93980000D01*
X132715000Y-95885000D02*
X133985000Y-95885000D01*
X130810000Y-93980000D02*
X132715000Y-95885000D01*
D30*
X151765000Y-105092500D02*
X151765000Y-106362500D01*
X151765000Y-106362500D02*
X153035000Y-107632500D01*
X153035000Y-107632500D02*
X157480000Y-107632500D01*
X147002500Y-100330000D02*
X151765000Y-105092500D01*
X137477500Y-100330000D02*
X147002500Y-100330000D01*
X157480000Y-107632500D02*
X160020000Y-110172500D01*
D28*
X160020000Y-110172500D02*
X160020000Y-112395000D01*
D29*
X162500000Y-137500000D02*
X162500000Y-138172500D01*
X189000000Y-127500000D02*
X187007500Y-129492500D01*
X187007500Y-129492500D02*
X187007500Y-135572500D01*
X191770000Y-140335000D02*
X193675000Y-140335000D01*
X187007500Y-135572500D02*
X191770000Y-140335000D01*
X185150000Y-129492500D02*
X187007500Y-129492500D01*
X178435000Y-136207500D02*
X185150000Y-129492500D01*
X166052500Y-123507500D02*
X166052500Y-121602500D01*
X166052500Y-121602500D02*
X166052500Y-118745000D01*
X151447500Y-122803185D02*
X149860000Y-124390685D01*
X151447500Y-122237500D02*
X151447500Y-122803185D01*
X149860000Y-124390685D02*
X149860000Y-128905000D01*
X149860000Y-128905000D02*
X151447500Y-130492500D01*
X151447500Y-130492500D02*
X151447500Y-141605000D01*
X151447500Y-141605000D02*
X151130000Y-141922500D01*
X178435000Y-136207500D02*
X178435000Y-136773185D01*
X178435000Y-136773185D02*
X177413185Y-137795000D01*
X177413185Y-137795000D02*
X164782500Y-137795000D01*
D30*
X160655000Y-80010000D02*
X160655000Y-91440000D01*
X160655000Y-91440000D02*
X163195000Y-91440000D01*
X163195000Y-91440000D02*
X164465000Y-92710000D01*
X164465000Y-92710000D02*
X164465000Y-108585000D01*
X177165000Y-91440000D02*
X177165000Y-76835000D01*
X177165000Y-76835000D02*
X177800000Y-76200000D01*
X192405000Y-92075000D02*
X192405000Y-77470000D01*
D28*
X112395000Y-99060000D02*
X112395000Y-98425000D01*
D30*
X192405000Y-92075000D02*
X192405000Y-100330000D01*
X192405000Y-100330000D02*
X190500000Y-102235000D01*
X180340000Y-90170000D02*
X180340000Y-97790000D01*
X180340000Y-97790000D02*
X180340000Y-109855000D01*
X164465000Y-108585000D02*
X164465000Y-109855000D01*
X164465000Y-109855000D02*
X164465000Y-110490000D01*
X180340000Y-109855000D02*
X180340000Y-110490000D01*
D28*
X112395000Y-97790000D02*
X113665000Y-96520000D01*
X155575000Y-110490000D02*
X156845000Y-110490000D01*
X156845000Y-110490000D02*
X158115000Y-110490000D01*
X155575000Y-110490000D02*
X158115000Y-110490000D01*
X133985000Y-121920000D02*
X133350000Y-121920000D01*
X133350000Y-121920000D02*
X132715000Y-121285000D01*
X132715000Y-114300000D02*
X132715000Y-121285000D01*
X132715000Y-114300000D02*
X132715000Y-106680000D01*
X132715000Y-106680000D02*
X131445000Y-105410000D01*
X113665000Y-96520000D02*
X122555000Y-96520000D01*
X127635000Y-101600000D02*
X122555000Y-96520000D01*
X130810000Y-104775000D02*
X127635000Y-101600000D01*
X131445000Y-105410000D02*
X130810000Y-104775000D01*
X112395000Y-99060000D02*
X112395000Y-97790000D01*
X146912490Y-104367490D02*
X131217510Y-104367490D01*
X148494979Y-108143436D02*
X148494980Y-105949980D01*
X155575000Y-110490000D02*
X150841543Y-110490000D01*
X150841543Y-110490000D02*
X148494979Y-108143436D01*
X148494980Y-105949980D02*
X146912490Y-104367490D01*
X131217510Y-104367490D02*
X130810000Y-104775000D01*
D30*
X190500000Y-102235000D02*
X190500000Y-107315000D01*
X187960000Y-109855000D02*
X187960000Y-110490000D01*
X190500000Y-107315000D02*
X187960000Y-109855000D01*
D29*
X182562500Y-138112500D02*
X181927500Y-138747500D01*
X181927500Y-138747500D02*
X177800000Y-138747500D01*
X177800000Y-138747500D02*
X171767500Y-138747500D01*
X171767500Y-138747500D02*
X170497500Y-140017500D01*
X189230000Y-130492500D02*
X192405000Y-130492500D01*
X192405000Y-130492500D02*
X193357500Y-129540000D01*
X193357500Y-129540000D02*
X193357500Y-125730000D01*
D30*
X98425000Y-121920000D02*
X97790000Y-121920000D01*
X97790000Y-121920000D02*
X97155000Y-121285000D01*
X114935000Y-114300000D02*
X114935000Y-121285000D01*
X114935000Y-121285000D02*
X115570000Y-121920000D01*
X115570000Y-121920000D02*
X116205000Y-121920000D01*
X114935000Y-131445000D02*
X114935000Y-138430000D01*
X131445000Y-130810000D02*
X132080000Y-130810000D01*
X132080000Y-130810000D02*
X132715000Y-131445000D01*
X132715000Y-131445000D02*
X132715000Y-138430000D01*
X97155000Y-130175000D02*
X97155000Y-120650000D01*
X97155000Y-121285000D02*
X97155000Y-120650000D01*
X97155000Y-120650000D02*
X97155000Y-114300000D01*
X97155000Y-111125000D02*
X97155000Y-107950000D01*
X97155000Y-107950000D02*
X97155000Y-107632500D01*
X114935000Y-131445000D02*
X114935000Y-121285000D01*
X150495000Y-135890000D02*
X150495000Y-136525000D01*
X150495000Y-136525000D02*
X150495000Y-138430000D01*
X132715000Y-131445000D02*
X132715000Y-124460000D01*
D28*
X83185000Y-120015000D02*
X83185000Y-116205000D01*
X83185000Y-116205000D02*
X84455000Y-114935000D01*
X84455000Y-114935000D02*
X84455000Y-102235000D01*
X84455000Y-102235000D02*
X85090000Y-101600000D01*
X88265000Y-101600000D02*
X85090000Y-101600000D01*
X88265000Y-101600000D02*
X88900000Y-100965000D01*
X114935000Y-120650000D02*
X114935000Y-138430000D01*
X114935000Y-114300000D02*
X114935000Y-120650000D01*
X114300000Y-130810000D02*
X114935000Y-131445000D01*
X113665000Y-130810000D02*
X114300000Y-130810000D01*
X97790000Y-99060000D02*
X92815000Y-99060000D01*
X100965000Y-102235000D02*
X97790000Y-99060000D01*
X114935000Y-114300000D02*
X113665000Y-114300000D01*
X92815000Y-99060000D02*
X91440000Y-97685000D01*
X113665000Y-114300000D02*
X112395000Y-113030000D01*
X91440000Y-97685000D02*
X91440000Y-95885000D01*
X112395000Y-113030000D02*
X112395000Y-103505000D01*
X112395000Y-103505000D02*
X111125000Y-102235000D01*
X111125000Y-102235000D02*
X100965000Y-102235000D01*
X150495000Y-138430000D02*
X150495000Y-135255000D01*
X150495000Y-135890000D02*
X149860000Y-135255000D01*
X149860000Y-135255000D02*
X147955000Y-135255000D01*
X147955000Y-135255000D02*
X146685000Y-133985000D01*
X146685000Y-133985000D02*
X146685000Y-132715000D01*
X97155000Y-138430000D02*
X97155000Y-131445000D01*
X96520000Y-130810000D02*
X97155000Y-131445000D01*
X96520000Y-130810000D02*
X97155000Y-130175000D01*
X95885000Y-130810000D02*
X96520000Y-130810000D01*
X97155000Y-123190000D02*
X97155000Y-113665000D01*
X97155000Y-130175000D02*
X97155000Y-123190000D01*
D30*
X97155000Y-114300000D02*
X97155000Y-113665000D01*
X97155000Y-113665000D02*
X97155000Y-111125000D01*
D28*
X97155000Y-114300000D02*
X97155000Y-107632500D01*
X97554999Y-101364999D02*
X97155000Y-100965000D01*
X97554999Y-107232501D02*
X97554999Y-101364999D01*
X97155000Y-107632500D02*
X97554999Y-107232501D01*
X111125000Y-102235000D02*
X113030000Y-102235000D01*
X129540000Y-121285000D02*
X132715000Y-124460000D01*
X128270000Y-104775000D02*
X129540000Y-106045000D01*
X113030000Y-102235000D02*
X115570000Y-104775000D01*
X129540000Y-106045000D02*
X129540000Y-121285000D01*
X115570000Y-104775000D02*
X128270000Y-104775000D01*
X131445000Y-130810000D02*
X132715000Y-130810000D01*
X132715000Y-124460000D02*
X132715000Y-130810000D01*
X132715000Y-130810000D02*
X132715000Y-138430000D01*
X148885696Y-140604989D02*
X150495000Y-138995685D01*
X150495000Y-138995685D02*
X150495000Y-138430000D01*
X134889989Y-140604989D02*
X148885696Y-140604989D01*
X132715000Y-138430000D02*
X134889989Y-140604989D01*
D29*
X161995000Y-122485000D02*
X157998082Y-122485000D01*
X157998082Y-122485000D02*
X157840592Y-122327510D01*
D30*
X162560000Y-78105000D02*
X162560000Y-87630000D01*
X159385000Y-90170000D02*
X159385000Y-106135010D01*
X159385000Y-106135010D02*
X158750000Y-106770010D01*
D29*
X183832500Y-144145000D02*
X184467500Y-144780000D01*
X184467500Y-144780000D02*
X188277500Y-144780000D01*
D30*
X179070000Y-78105000D02*
X179070000Y-87630000D01*
X175260000Y-94677002D02*
X179070000Y-90867002D01*
X179070000Y-88195685D02*
X179070000Y-87630000D01*
X175260000Y-106680000D02*
X175260000Y-94677002D01*
X179070000Y-90867002D02*
X179070000Y-88195685D01*
X195580000Y-78105000D02*
X195580000Y-87630000D01*
X191770000Y-106680000D02*
X191770000Y-103505000D01*
X191770000Y-103505000D02*
X193675000Y-101600000D01*
X193675000Y-101600000D02*
X193675000Y-90170000D01*
X179070000Y-93980000D02*
X179070000Y-103505000D01*
X162560000Y-93980000D02*
X162560000Y-103505000D01*
X195580000Y-93980000D02*
X195580000Y-103505000D01*
D28*
X96520000Y-106045000D02*
X95885000Y-106680000D01*
X95885000Y-106680000D02*
X95885000Y-109220000D01*
D30*
X95885000Y-116840000D02*
X95885000Y-128905000D01*
D28*
X95885000Y-116205000D02*
X95885000Y-128905000D01*
X95885000Y-109220000D02*
X95885000Y-116205000D01*
X95885000Y-116205000D02*
X95885000Y-116840000D01*
X95885000Y-128905000D02*
X94615000Y-130175000D01*
X94615000Y-139700000D02*
X95250000Y-140335000D01*
X94615000Y-130175000D02*
X94615000Y-139700000D01*
X113160000Y-133480000D02*
X113160000Y-139830000D01*
X110490000Y-106045000D02*
X110490000Y-130810000D01*
X110490000Y-130810000D02*
X113160000Y-133480000D01*
X123190000Y-106045000D02*
X123190000Y-132715000D01*
X130410001Y-139935001D02*
X130810000Y-140335000D01*
X123190000Y-132715000D02*
X130410001Y-139935001D01*
D30*
X146685000Y-106045000D02*
X140970000Y-111760000D01*
X140970000Y-137160000D02*
X143414979Y-139604979D01*
X140970000Y-111760000D02*
X140970000Y-137160000D01*
X143414979Y-139604979D02*
X147405545Y-139604979D01*
X147405545Y-139604979D02*
X147971230Y-139604979D01*
X136525000Y-106045000D02*
X135890000Y-106680000D01*
X135890000Y-106680000D02*
X135890000Y-111760000D01*
X135890000Y-111760000D02*
X135255000Y-112395000D01*
X113665000Y-106045000D02*
X113665000Y-111125000D01*
X113665000Y-111125000D02*
X114935000Y-112395000D01*
X114935000Y-112395000D02*
X116840000Y-112395000D01*
X98930000Y-106347877D02*
X98555009Y-105972886D01*
X98930000Y-112900000D02*
X98930000Y-106347877D01*
D28*
X83185000Y-105410000D02*
X83185000Y-109855000D01*
X83185000Y-111760000D02*
X82550000Y-112395000D01*
X83185000Y-109855000D02*
X83185000Y-111760000D01*
D30*
X81915000Y-112395000D02*
X82550000Y-112395000D01*
D28*
X82550000Y-112395000D02*
X81280000Y-112395000D01*
X81915000Y-112395000D02*
X81280000Y-112395000D01*
X81280000Y-112395000D02*
X80645000Y-112395000D01*
X80645000Y-112395000D02*
X79375000Y-113665000D01*
X79375000Y-113665000D02*
X79375000Y-120015000D01*
D30*
X81915000Y-85725000D02*
X84455000Y-83185000D01*
X84455000Y-78105000D02*
X82550000Y-76200000D01*
X84455000Y-83185000D02*
X84455000Y-78105000D01*
X145415000Y-136525000D02*
X145415000Y-122555000D01*
X145415000Y-122555000D02*
X147320000Y-120650000D01*
X147320000Y-120650000D02*
X147320000Y-116205000D01*
X188595000Y-85090000D02*
X189230000Y-85090000D01*
X189230000Y-85090000D02*
X190500000Y-83820000D01*
X198120000Y-104775000D02*
X198120000Y-90170000D01*
X198120000Y-144780000D02*
X198120000Y-104775000D01*
X196850000Y-146050000D02*
X198120000Y-144780000D01*
X85090000Y-146050000D02*
X196850000Y-146050000D01*
X85090000Y-146050000D02*
X84137500Y-146050000D01*
X84137500Y-146050000D02*
X82867500Y-144780000D01*
X92075000Y-132080000D02*
X92075000Y-134620000D01*
X109855000Y-132080000D02*
X109855000Y-134620000D01*
X127635000Y-132080000D02*
X127635000Y-134620000D01*
X137795000Y-120650000D02*
X137795000Y-118110000D01*
X120015000Y-120650000D02*
X120015000Y-118110000D01*
X102235000Y-120650000D02*
X102235000Y-118110000D01*
X189230000Y-80645000D02*
X190500000Y-81915000D01*
X188595000Y-80645000D02*
X189230000Y-80645000D01*
X80645000Y-134620000D02*
X81280000Y-134620000D01*
X79375000Y-135890000D02*
X80645000Y-134620000D01*
X199375000Y-144795000D02*
X197195010Y-146974990D01*
X199375000Y-90170000D02*
X199375000Y-144795000D01*
X197195010Y-146974990D02*
X81569990Y-146974990D01*
X81569990Y-146974990D02*
X79375000Y-144780000D01*
X79375000Y-144780000D02*
X79375000Y-135890000D01*
X174625000Y-68836580D02*
X173513210Y-67724790D01*
X174625000Y-85725000D02*
X174625000Y-68836580D01*
X174625000Y-91440000D02*
X174625000Y-90805000D01*
X174625000Y-90805000D02*
X175895000Y-89535000D01*
X175895000Y-89535000D02*
X175895000Y-76200000D01*
X175895000Y-76200000D02*
X177165000Y-74930000D01*
X173355000Y-103505000D02*
X171450000Y-103505000D01*
X171450000Y-103505000D02*
X170815000Y-102870000D01*
X170815000Y-73815000D02*
X169500000Y-72500000D01*
X170815000Y-102870000D02*
X170815000Y-73815000D01*
X140335000Y-86360000D02*
X139700000Y-85725000D01*
X140335000Y-93345000D02*
X140335000Y-86360000D01*
X169545000Y-101600000D02*
X169545000Y-99695000D01*
X169545000Y-95885000D02*
X169545000Y-97790000D01*
X141605000Y-92710000D02*
X141605000Y-86360000D01*
X141605000Y-86360000D02*
X142240000Y-85725000D01*
X169545000Y-85090000D02*
X164845245Y-80390245D01*
X164845245Y-80390245D02*
X164845245Y-65812510D01*
X156210000Y-67921580D02*
X156013210Y-67724790D01*
X156210000Y-71755000D02*
X156210000Y-67921580D01*
X154328420Y-66040000D02*
X156013210Y-67724790D01*
X145097500Y-66040000D02*
X154328420Y-66040000D01*
X137795000Y-86438612D02*
X135811388Y-84455000D01*
X137795000Y-90805000D02*
X137795000Y-86438612D01*
X135811388Y-84455000D02*
X132080000Y-84455000D01*
X132080000Y-84455000D02*
X130810000Y-85725000D01*
X130810000Y-85725000D02*
X129540000Y-85725000D01*
X132021387Y-85644999D02*
X135870001Y-85644999D01*
X136894990Y-86669988D02*
X136894990Y-88332911D01*
X136894990Y-88332911D02*
X136894990Y-88898596D01*
X135870001Y-85644999D02*
X136894990Y-86669988D01*
X125730000Y-86995000D02*
X130671386Y-86995000D01*
X130671386Y-86995000D02*
X132021387Y-85644999D01*
D29*
X129540000Y-65722500D02*
X130492500Y-64770000D01*
X196532500Y-84455000D02*
X196532500Y-111123590D01*
X130492500Y-64770000D02*
X196850000Y-64770000D01*
X198120000Y-82867500D02*
X196532500Y-84455000D01*
X198120000Y-66040000D02*
X198120000Y-82867500D01*
X196850000Y-64770000D02*
X198120000Y-66040000D01*
X129540000Y-73660000D02*
X129540000Y-65722500D01*
X196532500Y-111123590D02*
X195578590Y-112077500D01*
X195578590Y-112077500D02*
X170497500Y-112077500D01*
X170497500Y-112077500D02*
X170498910Y-112077500D01*
X170497500Y-112077500D02*
X170399990Y-112175010D01*
X164667194Y-112175010D02*
X164101509Y-112175010D01*
X170399990Y-112175010D02*
X164667194Y-112175010D01*
X156025009Y-120174327D02*
X151035021Y-125164315D01*
X159702500Y-113982500D02*
X157480000Y-113982500D01*
X157480000Y-113982500D02*
X156025009Y-115437491D01*
X160972500Y-112712500D02*
X159702500Y-113982500D01*
X151035021Y-125164315D02*
X151035021Y-125730000D01*
X156025009Y-115437491D02*
X156025009Y-120174327D01*
X191992501Y-136619999D02*
X191452500Y-137160000D01*
X196215000Y-137795000D02*
X195039999Y-136619999D01*
X195039999Y-136619999D02*
X191992501Y-136619999D01*
D30*
X186055000Y-82550000D02*
X186055000Y-83185000D01*
X186055000Y-83185000D02*
X186055000Y-85090000D01*
X186055000Y-80645000D02*
X186055000Y-82550000D01*
X172085000Y-101600000D02*
X172720000Y-101600000D01*
X172720000Y-101600000D02*
X173990000Y-100330000D01*
X172720000Y-95885000D02*
X173990000Y-97155000D01*
X172085000Y-95885000D02*
X172720000Y-95885000D01*
X188595000Y-100965000D02*
X189865000Y-100965000D01*
X189865000Y-100965000D02*
X191135000Y-99695000D01*
X188595000Y-96520000D02*
X189865000Y-96520000D01*
X189865000Y-96520000D02*
X191135000Y-97790000D01*
X142875000Y-137160000D02*
X142875000Y-132715000D01*
X145240302Y-120650000D02*
X145240302Y-117649698D01*
X145240302Y-117649698D02*
X145415000Y-117475000D01*
X89535000Y-83185000D02*
X93345000Y-83185000D01*
D29*
X161290000Y-106045000D02*
X163195000Y-106045000D01*
X163195000Y-106045000D02*
X163195000Y-112339528D01*
X163920002Y-123807818D02*
X163790159Y-123937661D01*
X163790159Y-123937661D02*
X163390160Y-124337660D01*
X163594999Y-119024495D02*
X163920002Y-119349498D01*
X163195000Y-112339528D02*
X163594999Y-112739527D01*
X163594999Y-112739527D02*
X163594999Y-119024495D01*
X163920002Y-119349498D02*
X163920002Y-123807818D01*
X164782500Y-121602500D02*
X164782500Y-117792500D01*
X164782500Y-121602500D02*
X164782500Y-121285000D01*
X164782500Y-117792500D02*
X165100000Y-117475000D01*
X165100000Y-117475000D02*
X168275000Y-117475000D01*
X168275000Y-117475000D02*
X168910000Y-118110000D01*
X168910000Y-118110000D02*
X170815000Y-118110000D01*
X170815000Y-118110000D02*
X175260000Y-113665000D01*
X164790028Y-121610028D02*
X164790028Y-123031825D01*
X164782500Y-121602500D02*
X164790028Y-121610028D01*
X164790028Y-123031825D02*
X164790028Y-123597510D01*
X154753599Y-139567491D02*
X159835009Y-139567491D01*
X92075000Y-102870000D02*
X90170000Y-104775000D01*
X90989990Y-144964990D02*
X152848600Y-144964990D01*
X90170000Y-104775000D02*
X90170000Y-144145000D01*
X90170000Y-144145000D02*
X90989990Y-144964990D01*
X152848600Y-144964990D02*
X154172489Y-143641101D01*
X162877500Y-121533185D02*
X162877500Y-120967500D01*
X161225001Y-124524999D02*
X162877500Y-122872500D01*
X161225001Y-138177499D02*
X161225001Y-129725501D01*
X159835009Y-139567491D02*
X161225001Y-138177499D01*
X154172489Y-140148600D02*
X154753599Y-139567491D01*
X154172489Y-143641101D02*
X154172489Y-140148600D01*
X162877500Y-122872500D02*
X162877500Y-121533185D01*
X161225001Y-124524999D02*
X161290000Y-124460000D01*
X161225001Y-138177499D02*
X161225001Y-124524999D01*
X161225001Y-128084499D02*
X161290000Y-124460000D01*
X153272468Y-139775799D02*
X154380799Y-138667469D01*
X154380799Y-138667469D02*
X154417532Y-138667469D01*
X153272467Y-143268300D02*
X153272468Y-139775799D01*
X154417532Y-138667469D02*
X157625001Y-135460001D01*
X153087480Y-125365661D02*
X157803141Y-120650000D01*
X157625001Y-135460001D02*
X157625001Y-132939999D01*
X157803141Y-120650000D02*
X158184315Y-120650000D01*
X157625001Y-132939999D02*
X155760024Y-131075022D01*
X153087480Y-130547802D02*
X153087480Y-125365661D01*
X105541101Y-143960011D02*
X152580756Y-143960011D01*
X153614700Y-131075022D02*
X153087480Y-130547802D01*
X158184315Y-120650000D02*
X158750000Y-120650000D01*
X155760024Y-131075022D02*
X153614700Y-131075022D01*
X104775000Y-104140000D02*
X104775000Y-143193910D01*
X152580756Y-143960011D02*
X153272467Y-143268300D01*
X104775000Y-143193910D02*
X105541101Y-143960011D01*
X152082500Y-142557500D02*
X152082500Y-135803913D01*
X118745000Y-116840000D02*
X118745000Y-142241410D01*
X121970002Y-106045000D02*
X121970002Y-113614998D01*
X151924988Y-135646401D02*
X151924988Y-125255334D01*
X151632491Y-143007509D02*
X152082500Y-142557500D01*
X118745000Y-142241410D02*
X119511099Y-143007509D01*
X151924988Y-125255334D02*
X157980334Y-119199988D01*
X121970002Y-113614998D02*
X118745000Y-116840000D01*
X157980334Y-119199988D02*
X158436783Y-119199988D01*
X152082500Y-135803913D02*
X151924988Y-135646401D01*
X119511099Y-143007509D02*
X151632491Y-143007509D01*
X150945010Y-106812510D02*
X150945010Y-105225010D01*
X150945010Y-105225010D02*
X147955000Y-102235000D01*
X147955000Y-102235000D02*
X137160000Y-102235000D01*
X133032500Y-105410000D02*
X134620000Y-105410000D01*
X134620000Y-105410000D02*
X134937500Y-105092500D01*
X140335000Y-105092500D02*
X141287500Y-106045000D01*
X134937500Y-105092500D02*
X140335000Y-105092500D01*
X119324699Y-143457520D02*
X152134980Y-143457520D01*
X161359992Y-119924998D02*
X162139991Y-119144999D01*
X152717500Y-142875000D02*
X152717500Y-135802502D01*
X117475000Y-141607821D02*
X119324699Y-143457520D01*
X119380000Y-114300000D02*
X117475000Y-116205000D01*
X117475000Y-116205000D02*
X117475000Y-141607821D01*
X152374999Y-135460001D02*
X152374999Y-125441732D01*
X162139991Y-119144999D02*
X162539990Y-118745000D01*
X119380000Y-110490000D02*
X119380000Y-114300000D01*
X152374999Y-125441732D02*
X157891733Y-119924998D01*
X157891733Y-119924998D02*
X161359992Y-119924998D01*
X114935000Y-106045000D02*
X119380000Y-110490000D01*
X152134980Y-143457520D02*
X152717500Y-142875000D01*
X152717500Y-135802502D02*
X152374999Y-135460001D01*
X99745002Y-139115002D02*
X105144979Y-144514979D01*
X162629315Y-119697500D02*
X163195000Y-119697500D01*
X153537491Y-130361402D02*
X153537491Y-125552061D01*
X153722478Y-143454700D02*
X153722478Y-139962200D01*
X153537491Y-125552061D02*
X157487052Y-121602500D01*
X153722478Y-139962200D02*
X154567199Y-139117480D01*
X158750000Y-133153004D02*
X156222007Y-130625011D01*
X99745002Y-104775000D02*
X99745002Y-139115002D01*
X105144979Y-144514979D02*
X152662199Y-144514979D01*
X156222007Y-130625011D02*
X153801100Y-130625011D01*
X160724315Y-121602500D02*
X162629315Y-119697500D01*
X152662199Y-144514979D02*
X153722478Y-143454700D01*
X157487052Y-121602500D02*
X160724315Y-121602500D01*
X153801100Y-130625011D02*
X153537491Y-130361402D01*
X158750000Y-138063002D02*
X158750000Y-133153004D01*
X157695522Y-139117480D02*
X158750000Y-138063002D01*
X154567199Y-139117480D02*
X157695522Y-139117480D01*
X88900000Y-114300000D02*
X88900000Y-106045000D01*
X88900000Y-144145000D02*
X88900000Y-114300000D01*
X153035000Y-145415000D02*
X90170000Y-145415000D01*
X163725001Y-138088001D02*
X162563011Y-139249991D01*
X90170000Y-145415000D02*
X88900000Y-144145000D01*
X161925000Y-135010002D02*
X163725001Y-136810003D01*
X163725001Y-136810003D02*
X163725001Y-138088001D01*
X162563011Y-139249991D02*
X162373599Y-139249991D01*
X154940000Y-140017500D02*
X154622500Y-140335000D01*
X161606090Y-140017500D02*
X154940000Y-140017500D01*
X162373599Y-139249991D02*
X161606090Y-140017500D01*
X161925000Y-130810000D02*
X161925000Y-135010002D01*
X165417500Y-127317500D02*
X161925000Y-130810000D01*
X154622500Y-140335000D02*
X154622500Y-143827500D01*
X154622500Y-143827500D02*
X153035000Y-145415000D01*
X166922500Y-121685000D02*
X166922500Y-125315717D01*
X170069338Y-128097542D02*
X170635023Y-128097542D01*
X166922500Y-125315717D02*
X169704325Y-128097542D01*
X169704325Y-128097542D02*
X170069338Y-128097542D01*
X169862500Y-126952487D02*
X169910013Y-127000000D01*
X169862500Y-123190000D02*
X169862500Y-126952487D01*
D31*
G36*
X197439000Y-135098567D02*
G01*
X197398693Y-134895931D01*
X197305898Y-134671903D01*
X197171180Y-134470283D01*
X196999717Y-134298820D01*
X196798097Y-134164102D01*
X196574069Y-134071307D01*
X196336243Y-134024000D01*
X196093757Y-134024000D01*
X195855931Y-134071307D01*
X195631903Y-134164102D01*
X195430283Y-134298820D01*
X195258820Y-134470283D01*
X195124102Y-134671903D01*
X195031307Y-134895931D01*
X194984000Y-135133757D01*
X194984000Y-135376243D01*
X195031307Y-135614069D01*
X195124102Y-135838097D01*
X195258820Y-136039717D01*
X195430283Y-136211180D01*
X195631903Y-136345898D01*
X195855931Y-136438693D01*
X196093757Y-136486000D01*
X196336243Y-136486000D01*
X196574069Y-136438693D01*
X196798097Y-136345898D01*
X196999717Y-136211180D01*
X197171180Y-136039717D01*
X197305898Y-135838097D01*
X197398693Y-135614069D01*
X197439000Y-135411433D01*
X197439000Y-137638567D01*
X197398693Y-137435931D01*
X197305898Y-137211903D01*
X197171180Y-137010283D01*
X196999717Y-136838820D01*
X196798097Y-136704102D01*
X196574069Y-136611307D01*
X196336243Y-136564000D01*
X196093757Y-136564000D01*
X195855931Y-136611307D01*
X195778833Y-136643242D01*
X195415375Y-136279784D01*
X195399526Y-136260472D01*
X195322478Y-136197240D01*
X195234574Y-136150254D01*
X195139192Y-136121321D01*
X195064853Y-136113999D01*
X195064845Y-136113999D01*
X195039999Y-136111552D01*
X195015153Y-136113999D01*
X194556898Y-136113999D01*
X194631180Y-136039717D01*
X194765898Y-135838097D01*
X194858693Y-135614069D01*
X194906000Y-135376243D01*
X194906000Y-135133757D01*
X194858693Y-134895931D01*
X194765898Y-134671903D01*
X194631180Y-134470283D01*
X194459717Y-134298820D01*
X194258097Y-134164102D01*
X194034069Y-134071307D01*
X193796243Y-134024000D01*
X193553757Y-134024000D01*
X193315931Y-134071307D01*
X193091903Y-134164102D01*
X192890283Y-134298820D01*
X192718820Y-134470283D01*
X192584102Y-134671903D01*
X192552168Y-134749000D01*
X190842345Y-134749000D01*
X190817499Y-134746553D01*
X190792653Y-134749000D01*
X190792646Y-134749000D01*
X190728194Y-134755348D01*
X190718306Y-134756322D01*
X190622925Y-134785255D01*
X190535021Y-134832241D01*
X190457973Y-134895473D01*
X190442128Y-134914780D01*
X189612909Y-135744000D01*
X189470578Y-135744000D01*
X189319691Y-135774013D01*
X189177558Y-135832887D01*
X189049641Y-135918358D01*
X188940858Y-136027141D01*
X188855387Y-136155058D01*
X188796513Y-136297191D01*
X188766500Y-136448078D01*
X188766500Y-136601922D01*
X188796513Y-136752809D01*
X188855387Y-136894942D01*
X188940858Y-137022859D01*
X189049641Y-137131642D01*
X189177558Y-137217113D01*
X189319691Y-137275987D01*
X189470578Y-137306000D01*
X189624422Y-137306000D01*
X189775309Y-137275987D01*
X189917442Y-137217113D01*
X190045359Y-137131642D01*
X190154142Y-137022859D01*
X190239613Y-136894942D01*
X190298487Y-136752809D01*
X190328500Y-136601922D01*
X190328500Y-136459591D01*
X191027092Y-135761000D01*
X192552168Y-135761000D01*
X192584102Y-135838097D01*
X192718820Y-136039717D01*
X192793102Y-136113999D01*
X192017355Y-136113999D01*
X191992501Y-136111551D01*
X191967647Y-136113999D01*
X191893308Y-136121321D01*
X191797926Y-136150254D01*
X191710022Y-136197240D01*
X191632974Y-136260472D01*
X191617129Y-136279779D01*
X191517908Y-136379000D01*
X191375578Y-136379000D01*
X191224691Y-136409013D01*
X191082558Y-136467887D01*
X190954641Y-136553358D01*
X190845858Y-136662141D01*
X190760387Y-136790058D01*
X190701513Y-136932191D01*
X190671500Y-137083078D01*
X190671500Y-137236922D01*
X190701513Y-137387809D01*
X190760387Y-137529942D01*
X190845858Y-137657859D01*
X190954641Y-137766642D01*
X191082558Y-137852113D01*
X191224691Y-137910987D01*
X191375578Y-137941000D01*
X191529422Y-137941000D01*
X191680309Y-137910987D01*
X191822442Y-137852113D01*
X191950359Y-137766642D01*
X192059142Y-137657859D01*
X192144613Y-137529942D01*
X192203487Y-137387809D01*
X192233500Y-137236922D01*
X192233500Y-137125999D01*
X192641501Y-137125999D01*
X192584102Y-137211903D01*
X192491307Y-137435931D01*
X192444000Y-137673757D01*
X192444000Y-137916243D01*
X192491307Y-138154069D01*
X192584102Y-138378097D01*
X192718820Y-138579717D01*
X192890283Y-138751180D01*
X193091903Y-138885898D01*
X193206168Y-138933228D01*
X193043748Y-138990843D01*
X192793645Y-139139822D01*
X192577412Y-139334731D01*
X192403359Y-139568080D01*
X192278175Y-139830901D01*
X192233524Y-139978110D01*
X192354845Y-140208000D01*
X193548000Y-140208000D01*
X193548000Y-140188000D01*
X193802000Y-140188000D01*
X193802000Y-140208000D01*
X196088000Y-140208000D01*
X196088000Y-140188000D01*
X196342000Y-140188000D01*
X196342000Y-140208000D01*
X196362000Y-140208000D01*
X196362000Y-140462000D01*
X196342000Y-140462000D01*
X196342000Y-141661250D01*
X196500750Y-141820000D01*
X197065000Y-141823072D01*
X197189482Y-141810812D01*
X197309180Y-141774502D01*
X197419494Y-141715537D01*
X197439000Y-141699529D01*
X197439000Y-144497920D01*
X196567922Y-145369000D01*
X188793001Y-145369000D01*
X188884142Y-145277859D01*
X188969613Y-145149942D01*
X189028487Y-145007809D01*
X189058500Y-144856922D01*
X189058500Y-144703078D01*
X189028487Y-144552191D01*
X188969613Y-144410058D01*
X188884142Y-144282141D01*
X188775359Y-144173358D01*
X188647442Y-144087887D01*
X188505309Y-144029013D01*
X188354422Y-143999000D01*
X188200578Y-143999000D01*
X188049691Y-144029013D01*
X187907558Y-144087887D01*
X187779641Y-144173358D01*
X187678999Y-144274000D01*
X184677092Y-144274000D01*
X184613500Y-144210408D01*
X184613500Y-144068078D01*
X184583487Y-143917191D01*
X184524613Y-143775058D01*
X184439142Y-143647141D01*
X184330359Y-143538358D01*
X184202442Y-143452887D01*
X184060309Y-143394013D01*
X183909422Y-143364000D01*
X183755578Y-143364000D01*
X183604691Y-143394013D01*
X183462558Y-143452887D01*
X183334641Y-143538358D01*
X183225858Y-143647141D01*
X183140387Y-143775058D01*
X183081513Y-143917191D01*
X183051500Y-144068078D01*
X183051500Y-144221922D01*
X183081513Y-144372809D01*
X183140387Y-144514942D01*
X183225858Y-144642859D01*
X183334641Y-144751642D01*
X183462558Y-144837113D01*
X183604691Y-144895987D01*
X183755578Y-144926000D01*
X183897908Y-144926000D01*
X184092128Y-145120220D01*
X184107973Y-145139527D01*
X184185021Y-145202759D01*
X184250739Y-145237886D01*
X184272925Y-145249745D01*
X184368307Y-145278678D01*
X184467500Y-145288448D01*
X184492354Y-145286000D01*
X187678999Y-145286000D01*
X187761999Y-145369000D01*
X153796591Y-145369000D01*
X154962720Y-144202872D01*
X154982027Y-144187027D01*
X155045259Y-144109979D01*
X155092245Y-144022075D01*
X155121178Y-143926693D01*
X155128500Y-143852354D01*
X155128500Y-143852347D01*
X155130947Y-143827501D01*
X155128500Y-143802655D01*
X155128500Y-143672388D01*
X155141513Y-143737809D01*
X155200387Y-143879942D01*
X155285858Y-144007859D01*
X155394641Y-144116642D01*
X155522558Y-144202113D01*
X155664691Y-144260987D01*
X155815578Y-144291000D01*
X155969422Y-144291000D01*
X156120309Y-144260987D01*
X156262442Y-144202113D01*
X156390359Y-144116642D01*
X156499142Y-144007859D01*
X156584613Y-143879942D01*
X156643487Y-143737809D01*
X156673500Y-143586922D01*
X156673500Y-143433078D01*
X156643487Y-143282191D01*
X156584613Y-143140058D01*
X156499142Y-143012141D01*
X156398500Y-142911499D01*
X156398500Y-142203501D01*
X156499142Y-142102859D01*
X156584613Y-141974942D01*
X156643487Y-141832809D01*
X156673500Y-141681922D01*
X156673500Y-141528078D01*
X156643487Y-141377191D01*
X156584613Y-141235058D01*
X156499142Y-141107141D01*
X156390359Y-140998358D01*
X156262442Y-140912887D01*
X156120309Y-140854013D01*
X155969422Y-140824000D01*
X155815578Y-140824000D01*
X155664691Y-140854013D01*
X155522558Y-140912887D01*
X155394641Y-140998358D01*
X155285858Y-141107141D01*
X155200387Y-141235058D01*
X155141513Y-141377191D01*
X155128500Y-141442612D01*
X155128500Y-140544591D01*
X155149591Y-140523500D01*
X161581244Y-140523500D01*
X161606090Y-140525947D01*
X161630936Y-140523500D01*
X161630944Y-140523500D01*
X161705283Y-140516178D01*
X161800665Y-140487245D01*
X161888569Y-140440259D01*
X161965617Y-140377027D01*
X161981466Y-140357715D01*
X162398603Y-139940578D01*
X169716500Y-139940578D01*
X169716500Y-140094422D01*
X169746513Y-140245309D01*
X169805387Y-140387442D01*
X169890858Y-140515359D01*
X169999641Y-140624142D01*
X170127558Y-140709613D01*
X170269691Y-140768487D01*
X170420578Y-140798500D01*
X170574422Y-140798500D01*
X170725309Y-140768487D01*
X170867442Y-140709613D01*
X170893966Y-140691890D01*
X192233524Y-140691890D01*
X192278175Y-140839099D01*
X192403359Y-141101920D01*
X192577412Y-141335269D01*
X192793645Y-141530178D01*
X193043748Y-141679157D01*
X193318109Y-141776481D01*
X193548000Y-141655814D01*
X193548000Y-140462000D01*
X193802000Y-140462000D01*
X193802000Y-141655814D01*
X194031891Y-141776481D01*
X194306252Y-141679157D01*
X194556355Y-141530178D01*
X194752502Y-141353374D01*
X194775498Y-141429180D01*
X194834463Y-141539494D01*
X194913815Y-141636185D01*
X195010506Y-141715537D01*
X195120820Y-141774502D01*
X195240518Y-141810812D01*
X195365000Y-141823072D01*
X195929250Y-141820000D01*
X196088000Y-141661250D01*
X196088000Y-140462000D01*
X193802000Y-140462000D01*
X193548000Y-140462000D01*
X192354845Y-140462000D01*
X192233524Y-140691890D01*
X170893966Y-140691890D01*
X170995359Y-140624142D01*
X171104142Y-140515359D01*
X171189613Y-140387442D01*
X171248487Y-140245309D01*
X171278500Y-140094422D01*
X171278500Y-139952091D01*
X171977092Y-139253500D01*
X181902654Y-139253500D01*
X181927500Y-139255947D01*
X181952346Y-139253500D01*
X181952354Y-139253500D01*
X182026693Y-139246178D01*
X182122075Y-139217245D01*
X182209979Y-139170259D01*
X182287027Y-139107027D01*
X182302876Y-139087715D01*
X182497091Y-138893500D01*
X182639422Y-138893500D01*
X182790309Y-138863487D01*
X182932442Y-138804613D01*
X183060359Y-138719142D01*
X183169142Y-138610359D01*
X183254613Y-138482442D01*
X183313487Y-138340309D01*
X183343500Y-138189422D01*
X183343500Y-138035578D01*
X183313487Y-137884691D01*
X183254613Y-137742558D01*
X183169142Y-137614641D01*
X183060359Y-137505858D01*
X182932442Y-137420387D01*
X182790309Y-137361513D01*
X182639422Y-137331500D01*
X182485578Y-137331500D01*
X182334691Y-137361513D01*
X182192558Y-137420387D01*
X182064641Y-137505858D01*
X181955858Y-137614641D01*
X181870387Y-137742558D01*
X181811513Y-137884691D01*
X181781500Y-138035578D01*
X181781500Y-138177909D01*
X181717909Y-138241500D01*
X171792345Y-138241500D01*
X171767499Y-138239053D01*
X171742653Y-138241500D01*
X171742646Y-138241500D01*
X171678194Y-138247848D01*
X171668306Y-138248822D01*
X171576433Y-138276691D01*
X171572925Y-138277755D01*
X171485021Y-138324741D01*
X171407973Y-138387973D01*
X171392129Y-138407279D01*
X170562909Y-139236500D01*
X170420578Y-139236500D01*
X170269691Y-139266513D01*
X170127558Y-139325387D01*
X169999641Y-139410858D01*
X169890858Y-139519641D01*
X169805387Y-139647558D01*
X169746513Y-139789691D01*
X169716500Y-139940578D01*
X162398603Y-139940578D01*
X162582681Y-139756501D01*
X162587857Y-139755991D01*
X162587865Y-139755991D01*
X162662204Y-139748669D01*
X162757586Y-139719736D01*
X162845490Y-139672750D01*
X162922538Y-139609518D01*
X162938387Y-139590206D01*
X164065221Y-138463373D01*
X164084528Y-138447528D01*
X164147760Y-138370480D01*
X164194746Y-138282576D01*
X164223679Y-138187194D01*
X164231001Y-138112855D01*
X164231001Y-138112848D01*
X164233448Y-138088002D01*
X164231001Y-138063156D01*
X164231001Y-136834857D01*
X164233449Y-136810003D01*
X164230540Y-136780468D01*
X164735945Y-136881000D01*
X165264055Y-136881000D01*
X165782019Y-136777970D01*
X166269930Y-136575871D01*
X166709038Y-136282469D01*
X167082469Y-135909038D01*
X167375871Y-135469930D01*
X167577970Y-134982019D01*
X167613090Y-134805456D01*
X169803596Y-134805456D01*
X169813366Y-134904649D01*
X169842299Y-135000031D01*
X169889285Y-135087935D01*
X169952517Y-135164983D01*
X170029565Y-135228215D01*
X170117469Y-135275201D01*
X170212851Y-135304134D01*
X170287190Y-135311456D01*
X175194334Y-135311456D01*
X175294976Y-135412098D01*
X175422893Y-135497569D01*
X175565026Y-135556443D01*
X175715913Y-135586456D01*
X175869757Y-135586456D01*
X176020644Y-135556443D01*
X176162777Y-135497569D01*
X176290694Y-135412098D01*
X176391336Y-135311456D01*
X178542198Y-135311456D01*
X178567044Y-135313903D01*
X178591890Y-135311456D01*
X178591898Y-135311456D01*
X178666237Y-135304134D01*
X178761619Y-135275201D01*
X178849523Y-135228215D01*
X178926571Y-135164983D01*
X178942420Y-135145671D01*
X183672513Y-130415578D01*
X188449000Y-130415578D01*
X188449000Y-130569422D01*
X188479013Y-130720309D01*
X188537887Y-130862442D01*
X188623358Y-130990359D01*
X188732141Y-131099142D01*
X188860058Y-131184613D01*
X189002191Y-131243487D01*
X189153078Y-131273500D01*
X189306922Y-131273500D01*
X189457809Y-131243487D01*
X189599942Y-131184613D01*
X189727859Y-131099142D01*
X189828501Y-130998500D01*
X192380154Y-130998500D01*
X192405000Y-131000947D01*
X192429846Y-130998500D01*
X192429854Y-130998500D01*
X192504193Y-130991178D01*
X192599575Y-130962245D01*
X192687479Y-130915259D01*
X192764527Y-130852027D01*
X192780376Y-130832715D01*
X193697722Y-129915370D01*
X193717027Y-129899527D01*
X193780259Y-129822479D01*
X193827245Y-129734575D01*
X193856178Y-129639193D01*
X193863500Y-129564854D01*
X193863500Y-129564847D01*
X193865947Y-129540001D01*
X193863500Y-129515155D01*
X193863500Y-126328501D01*
X193964142Y-126227859D01*
X194049613Y-126099942D01*
X194108487Y-125957809D01*
X194138500Y-125806922D01*
X194138500Y-125653078D01*
X194108487Y-125502191D01*
X194049613Y-125360058D01*
X193964142Y-125232141D01*
X193855359Y-125123358D01*
X193727442Y-125037887D01*
X193585309Y-124979013D01*
X193434422Y-124949000D01*
X193280578Y-124949000D01*
X193129691Y-124979013D01*
X192987558Y-125037887D01*
X192859641Y-125123358D01*
X192750858Y-125232141D01*
X192665387Y-125360058D01*
X192606513Y-125502191D01*
X192576500Y-125653078D01*
X192576500Y-125806922D01*
X192606513Y-125957809D01*
X192665387Y-126099942D01*
X192750858Y-126227859D01*
X192851501Y-126328502D01*
X192851500Y-129330408D01*
X192195409Y-129986500D01*
X189828501Y-129986500D01*
X189727859Y-129885858D01*
X189599942Y-129800387D01*
X189457809Y-129741513D01*
X189306922Y-129711500D01*
X189153078Y-129711500D01*
X189002191Y-129741513D01*
X188860058Y-129800387D01*
X188732141Y-129885858D01*
X188623358Y-129994641D01*
X188537887Y-130122558D01*
X188479013Y-130264691D01*
X188449000Y-130415578D01*
X183672513Y-130415578D01*
X185096438Y-128991653D01*
X187687952Y-128991653D01*
X187843962Y-129307214D01*
X188218745Y-129498020D01*
X188623551Y-129612044D01*
X189042824Y-129644902D01*
X189460451Y-129595334D01*
X189860383Y-129465243D01*
X190156038Y-129307214D01*
X190312048Y-128991653D01*
X189000000Y-127679605D01*
X187687952Y-128991653D01*
X185096438Y-128991653D01*
X186077720Y-128010372D01*
X186097027Y-127994527D01*
X186160259Y-127917479D01*
X186207245Y-127829575D01*
X186224667Y-127772141D01*
X186236178Y-127734194D01*
X186237152Y-127724306D01*
X186243500Y-127659854D01*
X186243500Y-127659847D01*
X186245947Y-127635001D01*
X186243500Y-127610155D01*
X186243500Y-127542824D01*
X186855098Y-127542824D01*
X186904666Y-127960451D01*
X187034757Y-128360383D01*
X187192786Y-128656038D01*
X187508347Y-128812048D01*
X188820395Y-127500000D01*
X189179605Y-127500000D01*
X190491653Y-128812048D01*
X190807214Y-128656038D01*
X190998020Y-128281255D01*
X191112044Y-127876449D01*
X191144902Y-127457176D01*
X191095334Y-127039549D01*
X190965243Y-126639617D01*
X190807214Y-126343962D01*
X190491653Y-126187952D01*
X189179605Y-127500000D01*
X188820395Y-127500000D01*
X187508347Y-126187952D01*
X187192786Y-126343962D01*
X187001980Y-126718745D01*
X186887956Y-127123551D01*
X186855098Y-127542824D01*
X186243500Y-127542824D01*
X186243500Y-124423501D01*
X186344142Y-124322859D01*
X186429613Y-124194942D01*
X186488487Y-124052809D01*
X186518500Y-123901922D01*
X186518500Y-123748078D01*
X186488487Y-123597191D01*
X186429613Y-123455058D01*
X186344142Y-123327141D01*
X186331739Y-123314738D01*
X187119000Y-123314738D01*
X187119000Y-123685262D01*
X187191286Y-124048667D01*
X187333080Y-124390987D01*
X187538932Y-124699067D01*
X187800933Y-124961068D01*
X188109013Y-125166920D01*
X188451333Y-125308714D01*
X188786413Y-125375366D01*
X188539549Y-125404666D01*
X188139617Y-125534757D01*
X187843962Y-125692786D01*
X187687952Y-126008347D01*
X189000000Y-127320395D01*
X190312048Y-126008347D01*
X190156038Y-125692786D01*
X189781255Y-125501980D01*
X189376449Y-125387956D01*
X189214211Y-125375242D01*
X189548667Y-125308714D01*
X189890987Y-125166920D01*
X190199067Y-124961068D01*
X190461068Y-124699067D01*
X190666920Y-124390987D01*
X190808714Y-124048667D01*
X190881000Y-123685262D01*
X190881000Y-123314738D01*
X190808714Y-122951333D01*
X190666920Y-122609013D01*
X190461068Y-122300933D01*
X190199067Y-122038932D01*
X189890987Y-121833080D01*
X189548667Y-121691286D01*
X189185262Y-121619000D01*
X188814738Y-121619000D01*
X188451333Y-121691286D01*
X188109013Y-121833080D01*
X187800933Y-122038932D01*
X187538932Y-122300933D01*
X187333080Y-122609013D01*
X187191286Y-122951333D01*
X187119000Y-123314738D01*
X186331739Y-123314738D01*
X186243500Y-123226499D01*
X186243500Y-122972091D01*
X188072841Y-121142751D01*
X188109013Y-121166920D01*
X188451333Y-121308714D01*
X188814738Y-121381000D01*
X189185262Y-121381000D01*
X189548667Y-121308714D01*
X189890987Y-121166920D01*
X189927159Y-121142751D01*
X192949628Y-124165220D01*
X192965473Y-124184527D01*
X193042521Y-124247759D01*
X193124339Y-124291492D01*
X193130425Y-124294745D01*
X193225807Y-124323678D01*
X193325000Y-124333448D01*
X193349854Y-124331000D01*
X194981499Y-124331000D01*
X195082141Y-124431642D01*
X195210058Y-124517113D01*
X195352191Y-124575987D01*
X195503078Y-124606000D01*
X195656922Y-124606000D01*
X195807809Y-124575987D01*
X195949942Y-124517113D01*
X196077859Y-124431642D01*
X196186642Y-124322859D01*
X196272113Y-124194942D01*
X196330987Y-124052809D01*
X196361000Y-123901922D01*
X196361000Y-123748078D01*
X196330987Y-123597191D01*
X196272113Y-123455058D01*
X196186642Y-123327141D01*
X196077859Y-123218358D01*
X195949942Y-123132887D01*
X195807809Y-123074013D01*
X195656922Y-123044000D01*
X195503078Y-123044000D01*
X195352191Y-123074013D01*
X195210058Y-123132887D01*
X195082141Y-123218358D01*
X194981499Y-123319000D01*
X193534592Y-123319000D01*
X190642751Y-120427159D01*
X190666920Y-120390987D01*
X190808714Y-120048667D01*
X190881000Y-119685262D01*
X190881000Y-119314738D01*
X190808714Y-118951333D01*
X190666920Y-118609013D01*
X190461068Y-118300933D01*
X190199067Y-118038932D01*
X189890987Y-117833080D01*
X189548667Y-117691286D01*
X189185262Y-117619000D01*
X188814738Y-117619000D01*
X188451333Y-117691286D01*
X188109013Y-117833080D01*
X188072841Y-117857249D01*
X186080376Y-115864785D01*
X186064527Y-115845473D01*
X185987479Y-115782241D01*
X185899575Y-115735255D01*
X185804193Y-115706322D01*
X185729854Y-115699000D01*
X185729846Y-115699000D01*
X185705000Y-115696553D01*
X185680154Y-115699000D01*
X176811001Y-115699000D01*
X176710359Y-115598358D01*
X176582442Y-115512887D01*
X176440309Y-115454013D01*
X176289422Y-115424000D01*
X176135578Y-115424000D01*
X175984691Y-115454013D01*
X175842558Y-115512887D01*
X175714641Y-115598358D01*
X175605858Y-115707141D01*
X175520387Y-115835058D01*
X175461513Y-115977191D01*
X175431500Y-116128078D01*
X175431500Y-116281922D01*
X175461513Y-116432809D01*
X175520387Y-116574942D01*
X175605858Y-116702859D01*
X175714641Y-116811642D01*
X175842558Y-116897113D01*
X175984691Y-116955987D01*
X176135578Y-116986000D01*
X176289422Y-116986000D01*
X176440309Y-116955987D01*
X176582442Y-116897113D01*
X176710359Y-116811642D01*
X176811001Y-116711000D01*
X185495409Y-116711000D01*
X187357249Y-118572841D01*
X187333080Y-118609013D01*
X187191286Y-118951333D01*
X187119000Y-119314738D01*
X187119000Y-119685262D01*
X187191286Y-120048667D01*
X187333080Y-120390987D01*
X187357249Y-120427159D01*
X185397281Y-122387128D01*
X185377974Y-122402973D01*
X185314742Y-122480021D01*
X185297128Y-122512974D01*
X185267755Y-122567926D01*
X185238822Y-122663308D01*
X185229053Y-122762500D01*
X185231501Y-122787356D01*
X185231501Y-123226498D01*
X185130858Y-123327141D01*
X185045387Y-123455058D01*
X184986513Y-123597191D01*
X184956500Y-123748078D01*
X184956500Y-123901922D01*
X184986513Y-124052809D01*
X185045387Y-124194942D01*
X185130858Y-124322859D01*
X185231501Y-124423502D01*
X185231500Y-127425408D01*
X184858492Y-127798416D01*
X184881000Y-127685262D01*
X184881000Y-127314738D01*
X184808714Y-126951333D01*
X184666920Y-126609013D01*
X184461068Y-126300933D01*
X184199067Y-126038932D01*
X183890987Y-125833080D01*
X183548667Y-125691286D01*
X183185262Y-125619000D01*
X182814738Y-125619000D01*
X182451333Y-125691286D01*
X182109013Y-125833080D01*
X181800933Y-126038932D01*
X181538932Y-126300933D01*
X181333080Y-126609013D01*
X181191286Y-126951333D01*
X181119000Y-127314738D01*
X181119000Y-127685262D01*
X181191286Y-128048667D01*
X181333080Y-128390987D01*
X181538932Y-128699067D01*
X181800933Y-128961068D01*
X182109013Y-129166920D01*
X182451333Y-129308714D01*
X182814738Y-129381000D01*
X183185262Y-129381000D01*
X183298416Y-129358492D01*
X178357453Y-134299456D01*
X176391336Y-134299456D01*
X176290694Y-134198814D01*
X176162777Y-134113343D01*
X176020644Y-134054469D01*
X175869757Y-134024456D01*
X175715913Y-134024456D01*
X175565026Y-134054469D01*
X175422893Y-134113343D01*
X175294976Y-134198814D01*
X175194334Y-134299456D01*
X170287190Y-134299456D01*
X170212851Y-134306778D01*
X170117469Y-134335711D01*
X170029565Y-134382697D01*
X169952517Y-134445929D01*
X169889285Y-134522977D01*
X169842299Y-134610881D01*
X169813366Y-134706263D01*
X169803596Y-134805456D01*
X167613090Y-134805456D01*
X167681000Y-134464055D01*
X167681000Y-133935945D01*
X167577970Y-133417981D01*
X167375871Y-132930070D01*
X167082469Y-132490962D01*
X166709038Y-132117531D01*
X166269930Y-131824129D01*
X165782019Y-131622030D01*
X165264055Y-131519000D01*
X164735945Y-131519000D01*
X164217981Y-131622030D01*
X163730070Y-131824129D01*
X163290962Y-132117531D01*
X162917531Y-132490962D01*
X162624129Y-132930070D01*
X162431000Y-133396325D01*
X162431000Y-131019591D01*
X164283590Y-129167001D01*
X172119000Y-129167001D01*
X172119000Y-129832999D01*
X172248930Y-130486201D01*
X172503797Y-131101504D01*
X172873806Y-131655262D01*
X173344738Y-132126194D01*
X173898496Y-132496203D01*
X174513799Y-132751070D01*
X175167001Y-132881000D01*
X175832999Y-132881000D01*
X176486201Y-132751070D01*
X177101504Y-132496203D01*
X177655262Y-132126194D01*
X178126194Y-131655262D01*
X178496203Y-131101504D01*
X178751070Y-130486201D01*
X178881000Y-129832999D01*
X178881000Y-129167001D01*
X178751070Y-128513799D01*
X178496203Y-127898496D01*
X178126194Y-127344738D01*
X177655262Y-126873806D01*
X177101504Y-126503797D01*
X176486201Y-126248930D01*
X175832999Y-126119000D01*
X175167001Y-126119000D01*
X174513799Y-126248930D01*
X173898496Y-126503797D01*
X173344738Y-126873806D01*
X172873806Y-127344738D01*
X172503797Y-127898496D01*
X172248930Y-128513799D01*
X172119000Y-129167001D01*
X164283590Y-129167001D01*
X165352092Y-128098500D01*
X165494422Y-128098500D01*
X165645309Y-128068487D01*
X165787442Y-128009613D01*
X165915359Y-127924142D01*
X166024142Y-127815359D01*
X166109613Y-127687442D01*
X166168487Y-127545309D01*
X166198500Y-127394422D01*
X166198500Y-127240578D01*
X166168487Y-127089691D01*
X166109613Y-126947558D01*
X166024142Y-126819641D01*
X165915359Y-126710858D01*
X165787442Y-126625387D01*
X165645309Y-126566513D01*
X165494422Y-126536500D01*
X165340578Y-126536500D01*
X165189691Y-126566513D01*
X165047558Y-126625387D01*
X164919641Y-126710858D01*
X164810858Y-126819641D01*
X164725387Y-126947558D01*
X164666513Y-127089691D01*
X164636500Y-127240578D01*
X164636500Y-127382908D01*
X163020027Y-128999381D01*
X163023500Y-128981922D01*
X163023500Y-128828078D01*
X162993487Y-128677191D01*
X162934613Y-128535058D01*
X162849142Y-128407141D01*
X162835046Y-128393045D01*
X163447092Y-127781000D01*
X163589422Y-127781000D01*
X163740309Y-127750987D01*
X163882442Y-127692113D01*
X164010359Y-127606642D01*
X164119142Y-127497859D01*
X164204613Y-127369942D01*
X164263487Y-127227809D01*
X164293500Y-127076922D01*
X164293500Y-126923078D01*
X164263487Y-126772191D01*
X164204613Y-126630058D01*
X164119142Y-126502141D01*
X164010359Y-126393358D01*
X163882442Y-126307887D01*
X163740309Y-126249013D01*
X163589422Y-126219000D01*
X163435578Y-126219000D01*
X163284691Y-126249013D01*
X163142558Y-126307887D01*
X163014641Y-126393358D01*
X162905858Y-126502141D01*
X162820387Y-126630058D01*
X162761513Y-126772191D01*
X162731500Y-126923078D01*
X162731500Y-127065408D01*
X161902280Y-127894629D01*
X161882974Y-127910473D01*
X161819742Y-127987521D01*
X161802050Y-128020620D01*
X161772755Y-128075426D01*
X161743822Y-128170808D01*
X161734053Y-128270000D01*
X161736501Y-128294856D01*
X161736501Y-128306498D01*
X161731001Y-128311998D01*
X161731001Y-128089034D01*
X161792255Y-124673336D01*
X163217720Y-123247872D01*
X163237027Y-123232027D01*
X163300259Y-123154979D01*
X163347245Y-123067075D01*
X163370321Y-122991000D01*
X163376178Y-122971694D01*
X163378183Y-122951333D01*
X163383500Y-122897354D01*
X163383500Y-122897347D01*
X163385947Y-122872501D01*
X163383500Y-122847655D01*
X163383500Y-121566001D01*
X163414002Y-121535499D01*
X163414003Y-123556660D01*
X163313238Y-123556660D01*
X163162351Y-123586673D01*
X163020218Y-123645547D01*
X162892301Y-123731018D01*
X162783518Y-123839801D01*
X162698047Y-123967718D01*
X162639173Y-124109851D01*
X162609160Y-124260738D01*
X162609160Y-124414582D01*
X162639173Y-124565469D01*
X162698047Y-124707602D01*
X162783518Y-124835519D01*
X162892301Y-124944302D01*
X163020218Y-125029773D01*
X163162351Y-125088647D01*
X163313238Y-125118660D01*
X163467082Y-125118660D01*
X163617969Y-125088647D01*
X163760102Y-125029773D01*
X163888019Y-124944302D01*
X163996802Y-124835519D01*
X164082273Y-124707602D01*
X164141147Y-124565469D01*
X164171160Y-124414582D01*
X164171160Y-124272251D01*
X164260217Y-124183194D01*
X164266255Y-124178238D01*
X164292169Y-124204152D01*
X164420086Y-124289623D01*
X164562219Y-124348497D01*
X164713106Y-124378510D01*
X164866950Y-124378510D01*
X165017837Y-124348497D01*
X165159970Y-124289623D01*
X165287887Y-124204152D01*
X165396670Y-124095369D01*
X165482141Y-123967452D01*
X165541015Y-123825319D01*
X165571028Y-123674432D01*
X165571028Y-123520588D01*
X165541015Y-123369701D01*
X165482141Y-123227568D01*
X165396670Y-123099651D01*
X165296028Y-122999009D01*
X165296028Y-121634873D01*
X165298475Y-121610027D01*
X165298284Y-121608078D01*
X166141500Y-121608078D01*
X166141500Y-121761922D01*
X166171513Y-121912809D01*
X166230387Y-122054942D01*
X166315858Y-122182859D01*
X166416500Y-122283501D01*
X166416501Y-125290861D01*
X166414053Y-125315717D01*
X166423822Y-125414909D01*
X166452755Y-125510291D01*
X166461797Y-125527207D01*
X166499742Y-125598196D01*
X166562974Y-125675244D01*
X166582281Y-125691089D01*
X169328953Y-128437762D01*
X169344798Y-128457069D01*
X169421846Y-128520301D01*
X169491734Y-128557657D01*
X169509750Y-128567287D01*
X169605132Y-128596220D01*
X169704325Y-128605990D01*
X169729179Y-128603542D01*
X170036522Y-128603542D01*
X170137164Y-128704184D01*
X170265081Y-128789655D01*
X170407214Y-128848529D01*
X170558101Y-128878542D01*
X170711945Y-128878542D01*
X170862832Y-128848529D01*
X171004965Y-128789655D01*
X171132882Y-128704184D01*
X171241665Y-128595401D01*
X171327136Y-128467484D01*
X171386010Y-128325351D01*
X171416023Y-128174464D01*
X171416023Y-128020620D01*
X171386010Y-127869733D01*
X171327136Y-127727600D01*
X171241665Y-127599683D01*
X171132882Y-127490900D01*
X171004965Y-127405429D01*
X170862832Y-127346555D01*
X170711945Y-127316542D01*
X170624245Y-127316542D01*
X170661000Y-127227809D01*
X170691013Y-127076922D01*
X170691013Y-126923078D01*
X170661000Y-126772191D01*
X170602126Y-126630058D01*
X170516655Y-126502141D01*
X170407872Y-126393358D01*
X170368500Y-126367051D01*
X170368500Y-123788501D01*
X170469142Y-123687859D01*
X170554613Y-123559942D01*
X170613487Y-123417809D01*
X170633988Y-123314738D01*
X181119000Y-123314738D01*
X181119000Y-123685262D01*
X181191286Y-124048667D01*
X181333080Y-124390987D01*
X181538932Y-124699067D01*
X181800933Y-124961068D01*
X182109013Y-125166920D01*
X182451333Y-125308714D01*
X182814738Y-125381000D01*
X183185262Y-125381000D01*
X183548667Y-125308714D01*
X183890987Y-125166920D01*
X184199067Y-124961068D01*
X184461068Y-124699067D01*
X184666920Y-124390987D01*
X184808714Y-124048667D01*
X184881000Y-123685262D01*
X184881000Y-123314738D01*
X184808714Y-122951333D01*
X184666920Y-122609013D01*
X184461068Y-122300933D01*
X184199067Y-122038932D01*
X183890987Y-121833080D01*
X183548667Y-121691286D01*
X183185262Y-121619000D01*
X182814738Y-121619000D01*
X182451333Y-121691286D01*
X182109013Y-121833080D01*
X181800933Y-122038932D01*
X181538932Y-122300933D01*
X181333080Y-122609013D01*
X181191286Y-122951333D01*
X181119000Y-123314738D01*
X170633988Y-123314738D01*
X170643500Y-123266922D01*
X170643500Y-123113078D01*
X170613487Y-122962191D01*
X170554613Y-122820058D01*
X170469142Y-122692141D01*
X170360359Y-122583358D01*
X170232442Y-122497887D01*
X170090309Y-122439013D01*
X169939422Y-122409000D01*
X169785578Y-122409000D01*
X169634691Y-122439013D01*
X169492558Y-122497887D01*
X169364641Y-122583358D01*
X169255858Y-122692141D01*
X169170387Y-122820058D01*
X169111513Y-122962191D01*
X169081500Y-123113078D01*
X169081500Y-123266922D01*
X169111513Y-123417809D01*
X169170387Y-123559942D01*
X169255858Y-123687859D01*
X169356500Y-123788501D01*
X169356501Y-126449011D01*
X169303371Y-126502141D01*
X169217900Y-126630058D01*
X169159026Y-126772191D01*
X169148331Y-126825957D01*
X167428500Y-125106126D01*
X167428500Y-122283501D01*
X167529142Y-122182859D01*
X167614613Y-122054942D01*
X167673487Y-121912809D01*
X167703500Y-121761922D01*
X167703500Y-121608078D01*
X167673487Y-121457191D01*
X167614613Y-121315058D01*
X167529142Y-121187141D01*
X167420359Y-121078358D01*
X167292442Y-120992887D01*
X167150309Y-120934013D01*
X166999422Y-120904000D01*
X166845578Y-120904000D01*
X166694691Y-120934013D01*
X166552558Y-120992887D01*
X166424641Y-121078358D01*
X166315858Y-121187141D01*
X166230387Y-121315058D01*
X166171513Y-121457191D01*
X166141500Y-121608078D01*
X165298284Y-121608078D01*
X165296028Y-121585181D01*
X165296028Y-121585174D01*
X165288706Y-121510835D01*
X165288500Y-121510156D01*
X165288500Y-119314738D01*
X181119000Y-119314738D01*
X181119000Y-119685262D01*
X181191286Y-120048667D01*
X181333080Y-120390987D01*
X181538932Y-120699067D01*
X181800933Y-120961068D01*
X182109013Y-121166920D01*
X182451333Y-121308714D01*
X182814738Y-121381000D01*
X183185262Y-121381000D01*
X183548667Y-121308714D01*
X183890987Y-121166920D01*
X184199067Y-120961068D01*
X184461068Y-120699067D01*
X184666920Y-120390987D01*
X184808714Y-120048667D01*
X184881000Y-119685262D01*
X184881000Y-119314738D01*
X184808714Y-118951333D01*
X184666920Y-118609013D01*
X184461068Y-118300933D01*
X184199067Y-118038932D01*
X183890987Y-117833080D01*
X183548667Y-117691286D01*
X183185262Y-117619000D01*
X182814738Y-117619000D01*
X182451333Y-117691286D01*
X182109013Y-117833080D01*
X181800933Y-118038932D01*
X181538932Y-118300933D01*
X181333080Y-118609013D01*
X181191286Y-118951333D01*
X181119000Y-119314738D01*
X165288500Y-119314738D01*
X165288500Y-118002091D01*
X165309591Y-117981000D01*
X168065409Y-117981000D01*
X168534628Y-118450220D01*
X168550473Y-118469527D01*
X168627521Y-118532759D01*
X168715425Y-118579745D01*
X168810807Y-118608678D01*
X168910000Y-118618448D01*
X168934854Y-118616000D01*
X170790154Y-118616000D01*
X170815000Y-118618447D01*
X170839846Y-118616000D01*
X170839854Y-118616000D01*
X170914193Y-118608678D01*
X171009575Y-118579745D01*
X171097479Y-118532759D01*
X171174527Y-118469527D01*
X171190376Y-118450215D01*
X175194592Y-114446000D01*
X175336922Y-114446000D01*
X175487809Y-114415987D01*
X175629942Y-114357113D01*
X175757859Y-114271642D01*
X175866642Y-114162859D01*
X175952113Y-114034942D01*
X176010987Y-113892809D01*
X176041000Y-113741922D01*
X176041000Y-113588078D01*
X176010987Y-113437191D01*
X175952113Y-113295058D01*
X175900959Y-113218500D01*
X195555154Y-113218500D01*
X195580000Y-113220947D01*
X195604846Y-113218500D01*
X195604854Y-113218500D01*
X195679193Y-113211178D01*
X195774575Y-113182245D01*
X195862479Y-113135259D01*
X195939527Y-113072027D01*
X195955376Y-113052715D01*
X197121092Y-111887000D01*
X197439001Y-111887000D01*
X197439000Y-135098567D01*
G37*
X197439000Y-135098567D02*
X197398693Y-134895931D01*
X197305898Y-134671903D01*
X197171180Y-134470283D01*
X196999717Y-134298820D01*
X196798097Y-134164102D01*
X196574069Y-134071307D01*
X196336243Y-134024000D01*
X196093757Y-134024000D01*
X195855931Y-134071307D01*
X195631903Y-134164102D01*
X195430283Y-134298820D01*
X195258820Y-134470283D01*
X195124102Y-134671903D01*
X195031307Y-134895931D01*
X194984000Y-135133757D01*
X194984000Y-135376243D01*
X195031307Y-135614069D01*
X195124102Y-135838097D01*
X195258820Y-136039717D01*
X195430283Y-136211180D01*
X195631903Y-136345898D01*
X195855931Y-136438693D01*
X196093757Y-136486000D01*
X196336243Y-136486000D01*
X196574069Y-136438693D01*
X196798097Y-136345898D01*
X196999717Y-136211180D01*
X197171180Y-136039717D01*
X197305898Y-135838097D01*
X197398693Y-135614069D01*
X197439000Y-135411433D01*
X197439000Y-137638567D01*
X197398693Y-137435931D01*
X197305898Y-137211903D01*
X197171180Y-137010283D01*
X196999717Y-136838820D01*
X196798097Y-136704102D01*
X196574069Y-136611307D01*
X196336243Y-136564000D01*
X196093757Y-136564000D01*
X195855931Y-136611307D01*
X195778833Y-136643242D01*
X195415375Y-136279784D01*
X195399526Y-136260472D01*
X195322478Y-136197240D01*
X195234574Y-136150254D01*
X195139192Y-136121321D01*
X195064853Y-136113999D01*
X195064845Y-136113999D01*
X195039999Y-136111552D01*
X195015153Y-136113999D01*
X194556898Y-136113999D01*
X194631180Y-136039717D01*
X194765898Y-135838097D01*
X194858693Y-135614069D01*
X194906000Y-135376243D01*
X194906000Y-135133757D01*
X194858693Y-134895931D01*
X194765898Y-134671903D01*
X194631180Y-134470283D01*
X194459717Y-134298820D01*
X194258097Y-134164102D01*
X194034069Y-134071307D01*
X193796243Y-134024000D01*
X193553757Y-134024000D01*
X193315931Y-134071307D01*
X193091903Y-134164102D01*
X192890283Y-134298820D01*
X192718820Y-134470283D01*
X192584102Y-134671903D01*
X192552168Y-134749000D01*
X190842345Y-134749000D01*
X190817499Y-134746553D01*
X190792653Y-134749000D01*
X190792646Y-134749000D01*
X190728194Y-134755348D01*
X190718306Y-134756322D01*
X190622925Y-134785255D01*
X190535021Y-134832241D01*
X190457973Y-134895473D01*
X190442128Y-134914780D01*
X189612909Y-135744000D01*
X189470578Y-135744000D01*
X189319691Y-135774013D01*
X189177558Y-135832887D01*
X189049641Y-135918358D01*
X188940858Y-136027141D01*
X188855387Y-136155058D01*
X188796513Y-136297191D01*
X188766500Y-136448078D01*
X188766500Y-136601922D01*
X188796513Y-136752809D01*
X188855387Y-136894942D01*
X188940858Y-137022859D01*
X189049641Y-137131642D01*
X189177558Y-137217113D01*
X189319691Y-137275987D01*
X189470578Y-137306000D01*
X189624422Y-137306000D01*
X189775309Y-137275987D01*
X189917442Y-137217113D01*
X190045359Y-137131642D01*
X190154142Y-137022859D01*
X190239613Y-136894942D01*
X190298487Y-136752809D01*
X190328500Y-136601922D01*
X190328500Y-136459591D01*
X191027092Y-135761000D01*
X192552168Y-135761000D01*
X192584102Y-135838097D01*
X192718820Y-136039717D01*
X192793102Y-136113999D01*
X192017355Y-136113999D01*
X191992501Y-136111551D01*
X191967647Y-136113999D01*
X191893308Y-136121321D01*
X191797926Y-136150254D01*
X191710022Y-136197240D01*
X191632974Y-136260472D01*
X191617129Y-136279779D01*
X191517908Y-136379000D01*
X191375578Y-136379000D01*
X191224691Y-136409013D01*
X191082558Y-136467887D01*
X190954641Y-136553358D01*
X190845858Y-136662141D01*
X190760387Y-136790058D01*
X190701513Y-136932191D01*
X190671500Y-137083078D01*
X190671500Y-137236922D01*
X190701513Y-137387809D01*
X190760387Y-137529942D01*
X190845858Y-137657859D01*
X190954641Y-137766642D01*
X191082558Y-137852113D01*
X191224691Y-137910987D01*
X191375578Y-137941000D01*
X191529422Y-137941000D01*
X191680309Y-137910987D01*
X191822442Y-137852113D01*
X191950359Y-137766642D01*
X192059142Y-137657859D01*
X192144613Y-137529942D01*
X192203487Y-137387809D01*
X192233500Y-137236922D01*
X192233500Y-137125999D01*
X192641501Y-137125999D01*
X192584102Y-137211903D01*
X192491307Y-137435931D01*
X192444000Y-137673757D01*
X192444000Y-137916243D01*
X192491307Y-138154069D01*
X192584102Y-138378097D01*
X192718820Y-138579717D01*
X192890283Y-138751180D01*
X193091903Y-138885898D01*
X193206168Y-138933228D01*
X193043748Y-138990843D01*
X192793645Y-139139822D01*
X192577412Y-139334731D01*
X192403359Y-139568080D01*
X192278175Y-139830901D01*
X192233524Y-139978110D01*
X192354845Y-140208000D01*
X193548000Y-140208000D01*
X193548000Y-140188000D01*
X193802000Y-140188000D01*
X193802000Y-140208000D01*
X196088000Y-140208000D01*
X196088000Y-140188000D01*
X196342000Y-140188000D01*
X196342000Y-140208000D01*
X196362000Y-140208000D01*
X196362000Y-140462000D01*
X196342000Y-140462000D01*
X196342000Y-141661250D01*
X196500750Y-141820000D01*
X197065000Y-141823072D01*
X197189482Y-141810812D01*
X197309180Y-141774502D01*
X197419494Y-141715537D01*
X197439000Y-141699529D01*
X197439000Y-144497920D01*
X196567922Y-145369000D01*
X188793001Y-145369000D01*
X188884142Y-145277859D01*
X188969613Y-145149942D01*
X189028487Y-145007809D01*
X189058500Y-144856922D01*
X189058500Y-144703078D01*
X189028487Y-144552191D01*
X188969613Y-144410058D01*
X188884142Y-144282141D01*
X188775359Y-144173358D01*
X188647442Y-144087887D01*
X188505309Y-144029013D01*
X188354422Y-143999000D01*
X188200578Y-143999000D01*
X188049691Y-144029013D01*
X187907558Y-144087887D01*
X187779641Y-144173358D01*
X187678999Y-144274000D01*
X184677092Y-144274000D01*
X184613500Y-144210408D01*
X184613500Y-144068078D01*
X184583487Y-143917191D01*
X184524613Y-143775058D01*
X184439142Y-143647141D01*
X184330359Y-143538358D01*
X184202442Y-143452887D01*
X184060309Y-143394013D01*
X183909422Y-143364000D01*
X183755578Y-143364000D01*
X183604691Y-143394013D01*
X183462558Y-143452887D01*
X183334641Y-143538358D01*
X183225858Y-143647141D01*
X183140387Y-143775058D01*
X183081513Y-143917191D01*
X183051500Y-144068078D01*
X183051500Y-144221922D01*
X183081513Y-144372809D01*
X183140387Y-144514942D01*
X183225858Y-144642859D01*
X183334641Y-144751642D01*
X183462558Y-144837113D01*
X183604691Y-144895987D01*
X183755578Y-144926000D01*
X183897908Y-144926000D01*
X184092128Y-145120220D01*
X184107973Y-145139527D01*
X184185021Y-145202759D01*
X184250739Y-145237886D01*
X184272925Y-145249745D01*
X184368307Y-145278678D01*
X184467500Y-145288448D01*
X184492354Y-145286000D01*
X187678999Y-145286000D01*
X187761999Y-145369000D01*
X153796591Y-145369000D01*
X154962720Y-144202872D01*
X154982027Y-144187027D01*
X155045259Y-144109979D01*
X155092245Y-144022075D01*
X155121178Y-143926693D01*
X155128500Y-143852354D01*
X155128500Y-143852347D01*
X155130947Y-143827501D01*
X155128500Y-143802655D01*
X155128500Y-143672388D01*
X155141513Y-143737809D01*
X155200387Y-143879942D01*
X155285858Y-144007859D01*
X155394641Y-144116642D01*
X155522558Y-144202113D01*
X155664691Y-144260987D01*
X155815578Y-144291000D01*
X155969422Y-144291000D01*
X156120309Y-144260987D01*
X156262442Y-144202113D01*
X156390359Y-144116642D01*
X156499142Y-144007859D01*
X156584613Y-143879942D01*
X156643487Y-143737809D01*
X156673500Y-143586922D01*
X156673500Y-143433078D01*
X156643487Y-143282191D01*
X156584613Y-143140058D01*
X156499142Y-143012141D01*
X156398500Y-142911499D01*
X156398500Y-142203501D01*
X156499142Y-142102859D01*
X156584613Y-141974942D01*
X156643487Y-141832809D01*
X156673500Y-141681922D01*
X156673500Y-141528078D01*
X156643487Y-141377191D01*
X156584613Y-141235058D01*
X156499142Y-141107141D01*
X156390359Y-140998358D01*
X156262442Y-140912887D01*
X156120309Y-140854013D01*
X155969422Y-140824000D01*
X155815578Y-140824000D01*
X155664691Y-140854013D01*
X155522558Y-140912887D01*
X155394641Y-140998358D01*
X155285858Y-141107141D01*
X155200387Y-141235058D01*
X155141513Y-141377191D01*
X155128500Y-141442612D01*
X155128500Y-140544591D01*
X155149591Y-140523500D01*
X161581244Y-140523500D01*
X161606090Y-140525947D01*
X161630936Y-140523500D01*
X161630944Y-140523500D01*
X161705283Y-140516178D01*
X161800665Y-140487245D01*
X161888569Y-140440259D01*
X161965617Y-140377027D01*
X161981466Y-140357715D01*
X162398603Y-139940578D01*
X169716500Y-139940578D01*
X169716500Y-140094422D01*
X169746513Y-140245309D01*
X169805387Y-140387442D01*
X169890858Y-140515359D01*
X169999641Y-140624142D01*
X170127558Y-140709613D01*
X170269691Y-140768487D01*
X170420578Y-140798500D01*
X170574422Y-140798500D01*
X170725309Y-140768487D01*
X170867442Y-140709613D01*
X170893966Y-140691890D01*
X192233524Y-140691890D01*
X192278175Y-140839099D01*
X192403359Y-141101920D01*
X192577412Y-141335269D01*
X192793645Y-141530178D01*
X193043748Y-141679157D01*
X193318109Y-141776481D01*
X193548000Y-141655814D01*
X193548000Y-140462000D01*
X193802000Y-140462000D01*
X193802000Y-141655814D01*
X194031891Y-141776481D01*
X194306252Y-141679157D01*
X194556355Y-141530178D01*
X194752502Y-141353374D01*
X194775498Y-141429180D01*
X194834463Y-141539494D01*
X194913815Y-141636185D01*
X195010506Y-141715537D01*
X195120820Y-141774502D01*
X195240518Y-141810812D01*
X195365000Y-141823072D01*
X195929250Y-141820000D01*
X196088000Y-141661250D01*
X196088000Y-140462000D01*
X193802000Y-140462000D01*
X193548000Y-140462000D01*
X192354845Y-140462000D01*
X192233524Y-140691890D01*
X170893966Y-140691890D01*
X170995359Y-140624142D01*
X171104142Y-140515359D01*
X171189613Y-140387442D01*
X171248487Y-140245309D01*
X171278500Y-140094422D01*
X171278500Y-139952091D01*
X171977092Y-139253500D01*
X181902654Y-139253500D01*
X181927500Y-139255947D01*
X181952346Y-139253500D01*
X181952354Y-139253500D01*
X182026693Y-139246178D01*
X182122075Y-139217245D01*
X182209979Y-139170259D01*
X182287027Y-139107027D01*
X182302876Y-139087715D01*
X182497091Y-138893500D01*
X182639422Y-138893500D01*
X182790309Y-138863487D01*
X182932442Y-138804613D01*
X183060359Y-138719142D01*
X183169142Y-138610359D01*
X183254613Y-138482442D01*
X183313487Y-138340309D01*
X183343500Y-138189422D01*
X183343500Y-138035578D01*
X183313487Y-137884691D01*
X183254613Y-137742558D01*
X183169142Y-137614641D01*
X183060359Y-137505858D01*
X182932442Y-137420387D01*
X182790309Y-137361513D01*
X182639422Y-137331500D01*
X182485578Y-137331500D01*
X182334691Y-137361513D01*
X182192558Y-137420387D01*
X182064641Y-137505858D01*
X181955858Y-137614641D01*
X181870387Y-137742558D01*
X181811513Y-137884691D01*
X181781500Y-138035578D01*
X181781500Y-138177909D01*
X181717909Y-138241500D01*
X171792345Y-138241500D01*
X171767499Y-138239053D01*
X171742653Y-138241500D01*
X171742646Y-138241500D01*
X171678194Y-138247848D01*
X171668306Y-138248822D01*
X171576433Y-138276691D01*
X171572925Y-138277755D01*
X171485021Y-138324741D01*
X171407973Y-138387973D01*
X171392129Y-138407279D01*
X170562909Y-139236500D01*
X170420578Y-139236500D01*
X170269691Y-139266513D01*
X170127558Y-139325387D01*
X169999641Y-139410858D01*
X169890858Y-139519641D01*
X169805387Y-139647558D01*
X169746513Y-139789691D01*
X169716500Y-139940578D01*
X162398603Y-139940578D01*
X162582681Y-139756501D01*
X162587857Y-139755991D01*
X162587865Y-139755991D01*
X162662204Y-139748669D01*
X162757586Y-139719736D01*
X162845490Y-139672750D01*
X162922538Y-139609518D01*
X162938387Y-139590206D01*
X164065221Y-138463373D01*
X164084528Y-138447528D01*
X164147760Y-138370480D01*
X164194746Y-138282576D01*
X164223679Y-138187194D01*
X164231001Y-138112855D01*
X164231001Y-138112848D01*
X164233448Y-138088002D01*
X164231001Y-138063156D01*
X164231001Y-136834857D01*
X164233449Y-136810003D01*
X164230540Y-136780468D01*
X164735945Y-136881000D01*
X165264055Y-136881000D01*
X165782019Y-136777970D01*
X166269930Y-136575871D01*
X166709038Y-136282469D01*
X167082469Y-135909038D01*
X167375871Y-135469930D01*
X167577970Y-134982019D01*
X167613090Y-134805456D01*
X169803596Y-134805456D01*
X169813366Y-134904649D01*
X169842299Y-135000031D01*
X169889285Y-135087935D01*
X169952517Y-135164983D01*
X170029565Y-135228215D01*
X170117469Y-135275201D01*
X170212851Y-135304134D01*
X170287190Y-135311456D01*
X175194334Y-135311456D01*
X175294976Y-135412098D01*
X175422893Y-135497569D01*
X175565026Y-135556443D01*
X175715913Y-135586456D01*
X175869757Y-135586456D01*
X176020644Y-135556443D01*
X176162777Y-135497569D01*
X176290694Y-135412098D01*
X176391336Y-135311456D01*
X178542198Y-135311456D01*
X178567044Y-135313903D01*
X178591890Y-135311456D01*
X178591898Y-135311456D01*
X178666237Y-135304134D01*
X178761619Y-135275201D01*
X178849523Y-135228215D01*
X178926571Y-135164983D01*
X178942420Y-135145671D01*
X183672513Y-130415578D01*
X188449000Y-130415578D01*
X188449000Y-130569422D01*
X188479013Y-130720309D01*
X188537887Y-130862442D01*
X188623358Y-130990359D01*
X188732141Y-131099142D01*
X188860058Y-131184613D01*
X189002191Y-131243487D01*
X189153078Y-131273500D01*
X189306922Y-131273500D01*
X189457809Y-131243487D01*
X189599942Y-131184613D01*
X189727859Y-131099142D01*
X189828501Y-130998500D01*
X192380154Y-130998500D01*
X192405000Y-131000947D01*
X192429846Y-130998500D01*
X192429854Y-130998500D01*
X192504193Y-130991178D01*
X192599575Y-130962245D01*
X192687479Y-130915259D01*
X192764527Y-130852027D01*
X192780376Y-130832715D01*
X193697722Y-129915370D01*
X193717027Y-129899527D01*
X193780259Y-129822479D01*
X193827245Y-129734575D01*
X193856178Y-129639193D01*
X193863500Y-129564854D01*
X193863500Y-129564847D01*
X193865947Y-129540001D01*
X193863500Y-129515155D01*
X193863500Y-126328501D01*
X193964142Y-126227859D01*
X194049613Y-126099942D01*
X194108487Y-125957809D01*
X194138500Y-125806922D01*
X194138500Y-125653078D01*
X194108487Y-125502191D01*
X194049613Y-125360058D01*
X193964142Y-125232141D01*
X193855359Y-125123358D01*
X193727442Y-125037887D01*
X193585309Y-124979013D01*
X193434422Y-124949000D01*
X193280578Y-124949000D01*
X193129691Y-124979013D01*
X192987558Y-125037887D01*
X192859641Y-125123358D01*
X192750858Y-125232141D01*
X192665387Y-125360058D01*
X192606513Y-125502191D01*
X192576500Y-125653078D01*
X192576500Y-125806922D01*
X192606513Y-125957809D01*
X192665387Y-126099942D01*
X192750858Y-126227859D01*
X192851501Y-126328502D01*
X192851500Y-129330408D01*
X192195409Y-129986500D01*
X189828501Y-129986500D01*
X189727859Y-129885858D01*
X189599942Y-129800387D01*
X189457809Y-129741513D01*
X189306922Y-129711500D01*
X189153078Y-129711500D01*
X189002191Y-129741513D01*
X188860058Y-129800387D01*
X188732141Y-129885858D01*
X188623358Y-129994641D01*
X188537887Y-130122558D01*
X188479013Y-130264691D01*
X188449000Y-130415578D01*
X183672513Y-130415578D01*
X185096438Y-128991653D01*
X187687952Y-128991653D01*
X187843962Y-129307214D01*
X188218745Y-129498020D01*
X188623551Y-129612044D01*
X189042824Y-129644902D01*
X189460451Y-129595334D01*
X189860383Y-129465243D01*
X190156038Y-129307214D01*
X190312048Y-128991653D01*
X189000000Y-127679605D01*
X187687952Y-128991653D01*
X185096438Y-128991653D01*
X186077720Y-128010372D01*
X186097027Y-127994527D01*
X186160259Y-127917479D01*
X186207245Y-127829575D01*
X186224667Y-127772141D01*
X186236178Y-127734194D01*
X186237152Y-127724306D01*
X186243500Y-127659854D01*
X186243500Y-127659847D01*
X186245947Y-127635001D01*
X186243500Y-127610155D01*
X186243500Y-127542824D01*
X186855098Y-127542824D01*
X186904666Y-127960451D01*
X187034757Y-128360383D01*
X187192786Y-128656038D01*
X187508347Y-128812048D01*
X188820395Y-127500000D01*
X189179605Y-127500000D01*
X190491653Y-128812048D01*
X190807214Y-128656038D01*
X190998020Y-128281255D01*
X191112044Y-127876449D01*
X191144902Y-127457176D01*
X191095334Y-127039549D01*
X190965243Y-126639617D01*
X190807214Y-126343962D01*
X190491653Y-126187952D01*
X189179605Y-127500000D01*
X188820395Y-127500000D01*
X187508347Y-126187952D01*
X187192786Y-126343962D01*
X187001980Y-126718745D01*
X186887956Y-127123551D01*
X186855098Y-127542824D01*
X186243500Y-127542824D01*
X186243500Y-124423501D01*
X186344142Y-124322859D01*
X186429613Y-124194942D01*
X186488487Y-124052809D01*
X186518500Y-123901922D01*
X186518500Y-123748078D01*
X186488487Y-123597191D01*
X186429613Y-123455058D01*
X186344142Y-123327141D01*
X186331739Y-123314738D01*
X187119000Y-123314738D01*
X187119000Y-123685262D01*
X187191286Y-124048667D01*
X187333080Y-124390987D01*
X187538932Y-124699067D01*
X187800933Y-124961068D01*
X188109013Y-125166920D01*
X188451333Y-125308714D01*
X188786413Y-125375366D01*
X188539549Y-125404666D01*
X188139617Y-125534757D01*
X187843962Y-125692786D01*
X187687952Y-126008347D01*
X189000000Y-127320395D01*
X190312048Y-126008347D01*
X190156038Y-125692786D01*
X189781255Y-125501980D01*
X189376449Y-125387956D01*
X189214211Y-125375242D01*
X189548667Y-125308714D01*
X189890987Y-125166920D01*
X190199067Y-124961068D01*
X190461068Y-124699067D01*
X190666920Y-124390987D01*
X190808714Y-124048667D01*
X190881000Y-123685262D01*
X190881000Y-123314738D01*
X190808714Y-122951333D01*
X190666920Y-122609013D01*
X190461068Y-122300933D01*
X190199067Y-122038932D01*
X189890987Y-121833080D01*
X189548667Y-121691286D01*
X189185262Y-121619000D01*
X188814738Y-121619000D01*
X188451333Y-121691286D01*
X188109013Y-121833080D01*
X187800933Y-122038932D01*
X187538932Y-122300933D01*
X187333080Y-122609013D01*
X187191286Y-122951333D01*
X187119000Y-123314738D01*
X186331739Y-123314738D01*
X186243500Y-123226499D01*
X186243500Y-122972091D01*
X188072841Y-121142751D01*
X188109013Y-121166920D01*
X188451333Y-121308714D01*
X188814738Y-121381000D01*
X189185262Y-121381000D01*
X189548667Y-121308714D01*
X189890987Y-121166920D01*
X189927159Y-121142751D01*
X192949628Y-124165220D01*
X192965473Y-124184527D01*
X193042521Y-124247759D01*
X193124339Y-124291492D01*
X193130425Y-124294745D01*
X193225807Y-124323678D01*
X193325000Y-124333448D01*
X193349854Y-124331000D01*
X194981499Y-124331000D01*
X195082141Y-124431642D01*
X195210058Y-124517113D01*
X195352191Y-124575987D01*
X195503078Y-124606000D01*
X195656922Y-124606000D01*
X195807809Y-124575987D01*
X195949942Y-124517113D01*
X196077859Y-124431642D01*
X196186642Y-124322859D01*
X196272113Y-124194942D01*
X196330987Y-124052809D01*
X196361000Y-123901922D01*
X196361000Y-123748078D01*
X196330987Y-123597191D01*
X196272113Y-123455058D01*
X196186642Y-123327141D01*
X196077859Y-123218358D01*
X195949942Y-123132887D01*
X195807809Y-123074013D01*
X195656922Y-123044000D01*
X195503078Y-123044000D01*
X195352191Y-123074013D01*
X195210058Y-123132887D01*
X195082141Y-123218358D01*
X194981499Y-123319000D01*
X193534592Y-123319000D01*
X190642751Y-120427159D01*
X190666920Y-120390987D01*
X190808714Y-120048667D01*
X190881000Y-119685262D01*
X190881000Y-119314738D01*
X190808714Y-118951333D01*
X190666920Y-118609013D01*
X190461068Y-118300933D01*
X190199067Y-118038932D01*
X189890987Y-117833080D01*
X189548667Y-117691286D01*
X189185262Y-117619000D01*
X188814738Y-117619000D01*
X188451333Y-117691286D01*
X188109013Y-117833080D01*
X188072841Y-117857249D01*
X186080376Y-115864785D01*
X186064527Y-115845473D01*
X185987479Y-115782241D01*
X185899575Y-115735255D01*
X185804193Y-115706322D01*
X185729854Y-115699000D01*
X185729846Y-115699000D01*
X185705000Y-115696553D01*
X185680154Y-115699000D01*
X176811001Y-115699000D01*
X176710359Y-115598358D01*
X176582442Y-115512887D01*
X176440309Y-115454013D01*
X176289422Y-115424000D01*
X176135578Y-115424000D01*
X175984691Y-115454013D01*
X175842558Y-115512887D01*
X175714641Y-115598358D01*
X175605858Y-115707141D01*
X175520387Y-115835058D01*
X175461513Y-115977191D01*
X175431500Y-116128078D01*
X175431500Y-116281922D01*
X175461513Y-116432809D01*
X175520387Y-116574942D01*
X175605858Y-116702859D01*
X175714641Y-116811642D01*
X175842558Y-116897113D01*
X175984691Y-116955987D01*
X176135578Y-116986000D01*
X176289422Y-116986000D01*
X176440309Y-116955987D01*
X176582442Y-116897113D01*
X176710359Y-116811642D01*
X176811001Y-116711000D01*
X185495409Y-116711000D01*
X187357249Y-118572841D01*
X187333080Y-118609013D01*
X187191286Y-118951333D01*
X187119000Y-119314738D01*
X187119000Y-119685262D01*
X187191286Y-120048667D01*
X187333080Y-120390987D01*
X187357249Y-120427159D01*
X185397281Y-122387128D01*
X185377974Y-122402973D01*
X185314742Y-122480021D01*
X185297128Y-122512974D01*
X185267755Y-122567926D01*
X185238822Y-122663308D01*
X185229053Y-122762500D01*
X185231501Y-122787356D01*
X185231501Y-123226498D01*
X185130858Y-123327141D01*
X185045387Y-123455058D01*
X184986513Y-123597191D01*
X184956500Y-123748078D01*
X184956500Y-123901922D01*
X184986513Y-124052809D01*
X185045387Y-124194942D01*
X185130858Y-124322859D01*
X185231501Y-124423502D01*
X185231500Y-127425408D01*
X184858492Y-127798416D01*
X184881000Y-127685262D01*
X184881000Y-127314738D01*
X184808714Y-126951333D01*
X184666920Y-126609013D01*
X184461068Y-126300933D01*
X184199067Y-126038932D01*
X183890987Y-125833080D01*
X183548667Y-125691286D01*
X183185262Y-125619000D01*
X182814738Y-125619000D01*
X182451333Y-125691286D01*
X182109013Y-125833080D01*
X181800933Y-126038932D01*
X181538932Y-126300933D01*
X181333080Y-126609013D01*
X181191286Y-126951333D01*
X181119000Y-127314738D01*
X181119000Y-127685262D01*
X181191286Y-128048667D01*
X181333080Y-128390987D01*
X181538932Y-128699067D01*
X181800933Y-128961068D01*
X182109013Y-129166920D01*
X182451333Y-129308714D01*
X182814738Y-129381000D01*
X183185262Y-129381000D01*
X183298416Y-129358492D01*
X178357453Y-134299456D01*
X176391336Y-134299456D01*
X176290694Y-134198814D01*
X176162777Y-134113343D01*
X176020644Y-134054469D01*
X175869757Y-134024456D01*
X175715913Y-134024456D01*
X175565026Y-134054469D01*
X175422893Y-134113343D01*
X175294976Y-134198814D01*
X175194334Y-134299456D01*
X170287190Y-134299456D01*
X170212851Y-134306778D01*
X170117469Y-134335711D01*
X170029565Y-134382697D01*
X169952517Y-134445929D01*
X169889285Y-134522977D01*
X169842299Y-134610881D01*
X169813366Y-134706263D01*
X169803596Y-134805456D01*
X167613090Y-134805456D01*
X167681000Y-134464055D01*
X167681000Y-133935945D01*
X167577970Y-133417981D01*
X167375871Y-132930070D01*
X167082469Y-132490962D01*
X166709038Y-132117531D01*
X166269930Y-131824129D01*
X165782019Y-131622030D01*
X165264055Y-131519000D01*
X164735945Y-131519000D01*
X164217981Y-131622030D01*
X163730070Y-131824129D01*
X163290962Y-132117531D01*
X162917531Y-132490962D01*
X162624129Y-132930070D01*
X162431000Y-133396325D01*
X162431000Y-131019591D01*
X164283590Y-129167001D01*
X172119000Y-129167001D01*
X172119000Y-129832999D01*
X172248930Y-130486201D01*
X172503797Y-131101504D01*
X172873806Y-131655262D01*
X173344738Y-132126194D01*
X173898496Y-132496203D01*
X174513799Y-132751070D01*
X175167001Y-132881000D01*
X175832999Y-132881000D01*
X176486201Y-132751070D01*
X177101504Y-132496203D01*
X177655262Y-132126194D01*
X178126194Y-131655262D01*
X178496203Y-131101504D01*
X178751070Y-130486201D01*
X178881000Y-129832999D01*
X178881000Y-129167001D01*
X178751070Y-128513799D01*
X178496203Y-127898496D01*
X178126194Y-127344738D01*
X177655262Y-126873806D01*
X177101504Y-126503797D01*
X176486201Y-126248930D01*
X175832999Y-126119000D01*
X175167001Y-126119000D01*
X174513799Y-126248930D01*
X173898496Y-126503797D01*
X173344738Y-126873806D01*
X172873806Y-127344738D01*
X172503797Y-127898496D01*
X172248930Y-128513799D01*
X172119000Y-129167001D01*
X164283590Y-129167001D01*
X165352092Y-128098500D01*
X165494422Y-128098500D01*
X165645309Y-128068487D01*
X165787442Y-128009613D01*
X165915359Y-127924142D01*
X166024142Y-127815359D01*
X166109613Y-127687442D01*
X166168487Y-127545309D01*
X166198500Y-127394422D01*
X166198500Y-127240578D01*
X166168487Y-127089691D01*
X166109613Y-126947558D01*
X166024142Y-126819641D01*
X165915359Y-126710858D01*
X165787442Y-126625387D01*
X165645309Y-126566513D01*
X165494422Y-126536500D01*
X165340578Y-126536500D01*
X165189691Y-126566513D01*
X165047558Y-126625387D01*
X164919641Y-126710858D01*
X164810858Y-126819641D01*
X164725387Y-126947558D01*
X164666513Y-127089691D01*
X164636500Y-127240578D01*
X164636500Y-127382908D01*
X163020027Y-128999381D01*
X163023500Y-128981922D01*
X163023500Y-128828078D01*
X162993487Y-128677191D01*
X162934613Y-128535058D01*
X162849142Y-128407141D01*
X162835046Y-128393045D01*
X163447092Y-127781000D01*
X163589422Y-127781000D01*
X163740309Y-127750987D01*
X163882442Y-127692113D01*
X164010359Y-127606642D01*
X164119142Y-127497859D01*
X164204613Y-127369942D01*
X164263487Y-127227809D01*
X164293500Y-127076922D01*
X164293500Y-126923078D01*
X164263487Y-126772191D01*
X164204613Y-126630058D01*
X164119142Y-126502141D01*
X164010359Y-126393358D01*
X163882442Y-126307887D01*
X163740309Y-126249013D01*
X163589422Y-126219000D01*
X163435578Y-126219000D01*
X163284691Y-126249013D01*
X163142558Y-126307887D01*
X163014641Y-126393358D01*
X162905858Y-126502141D01*
X162820387Y-126630058D01*
X162761513Y-126772191D01*
X162731500Y-126923078D01*
X162731500Y-127065408D01*
X161902280Y-127894629D01*
X161882974Y-127910473D01*
X161819742Y-127987521D01*
X161802050Y-128020620D01*
X161772755Y-128075426D01*
X161743822Y-128170808D01*
X161734053Y-128270000D01*
X161736501Y-128294856D01*
X161736501Y-128306498D01*
X161731001Y-128311998D01*
X161731001Y-128089034D01*
X161792255Y-124673336D01*
X163217720Y-123247872D01*
X163237027Y-123232027D01*
X163300259Y-123154979D01*
X163347245Y-123067075D01*
X163370321Y-122991000D01*
X163376178Y-122971694D01*
X163378183Y-122951333D01*
X163383500Y-122897354D01*
X163383500Y-122897347D01*
X163385947Y-122872501D01*
X163383500Y-122847655D01*
X163383500Y-121566001D01*
X163414002Y-121535499D01*
X163414003Y-123556660D01*
X163313238Y-123556660D01*
X163162351Y-123586673D01*
X163020218Y-123645547D01*
X162892301Y-123731018D01*
X162783518Y-123839801D01*
X162698047Y-123967718D01*
X162639173Y-124109851D01*
X162609160Y-124260738D01*
X162609160Y-124414582D01*
X162639173Y-124565469D01*
X162698047Y-124707602D01*
X162783518Y-124835519D01*
X162892301Y-124944302D01*
X163020218Y-125029773D01*
X163162351Y-125088647D01*
X163313238Y-125118660D01*
X163467082Y-125118660D01*
X163617969Y-125088647D01*
X163760102Y-125029773D01*
X163888019Y-124944302D01*
X163996802Y-124835519D01*
X164082273Y-124707602D01*
X164141147Y-124565469D01*
X164171160Y-124414582D01*
X164171160Y-124272251D01*
X164260217Y-124183194D01*
X164266255Y-124178238D01*
X164292169Y-124204152D01*
X164420086Y-124289623D01*
X164562219Y-124348497D01*
X164713106Y-124378510D01*
X164866950Y-124378510D01*
X165017837Y-124348497D01*
X165159970Y-124289623D01*
X165287887Y-124204152D01*
X165396670Y-124095369D01*
X165482141Y-123967452D01*
X165541015Y-123825319D01*
X165571028Y-123674432D01*
X165571028Y-123520588D01*
X165541015Y-123369701D01*
X165482141Y-123227568D01*
X165396670Y-123099651D01*
X165296028Y-122999009D01*
X165296028Y-121634873D01*
X165298475Y-121610027D01*
X165298284Y-121608078D01*
X166141500Y-121608078D01*
X166141500Y-121761922D01*
X166171513Y-121912809D01*
X166230387Y-122054942D01*
X166315858Y-122182859D01*
X166416500Y-122283501D01*
X166416501Y-125290861D01*
X166414053Y-125315717D01*
X166423822Y-125414909D01*
X166452755Y-125510291D01*
X166461797Y-125527207D01*
X166499742Y-125598196D01*
X166562974Y-125675244D01*
X166582281Y-125691089D01*
X169328953Y-128437762D01*
X169344798Y-128457069D01*
X169421846Y-128520301D01*
X169491734Y-128557657D01*
X169509750Y-128567287D01*
X169605132Y-128596220D01*
X169704325Y-128605990D01*
X169729179Y-128603542D01*
X170036522Y-128603542D01*
X170137164Y-128704184D01*
X170265081Y-128789655D01*
X170407214Y-128848529D01*
X170558101Y-128878542D01*
X170711945Y-128878542D01*
X170862832Y-128848529D01*
X171004965Y-128789655D01*
X171132882Y-128704184D01*
X171241665Y-128595401D01*
X171327136Y-128467484D01*
X171386010Y-128325351D01*
X171416023Y-128174464D01*
X171416023Y-128020620D01*
X171386010Y-127869733D01*
X171327136Y-127727600D01*
X171241665Y-127599683D01*
X171132882Y-127490900D01*
X171004965Y-127405429D01*
X170862832Y-127346555D01*
X170711945Y-127316542D01*
X170624245Y-127316542D01*
X170661000Y-127227809D01*
X170691013Y-127076922D01*
X170691013Y-126923078D01*
X170661000Y-126772191D01*
X170602126Y-126630058D01*
X170516655Y-126502141D01*
X170407872Y-126393358D01*
X170368500Y-126367051D01*
X170368500Y-123788501D01*
X170469142Y-123687859D01*
X170554613Y-123559942D01*
X170613487Y-123417809D01*
X170633988Y-123314738D01*
X181119000Y-123314738D01*
X181119000Y-123685262D01*
X181191286Y-124048667D01*
X181333080Y-124390987D01*
X181538932Y-124699067D01*
X181800933Y-124961068D01*
X182109013Y-125166920D01*
X182451333Y-125308714D01*
X182814738Y-125381000D01*
X183185262Y-125381000D01*
X183548667Y-125308714D01*
X183890987Y-125166920D01*
X184199067Y-124961068D01*
X184461068Y-124699067D01*
X184666920Y-124390987D01*
X184808714Y-124048667D01*
X184881000Y-123685262D01*
X184881000Y-123314738D01*
X184808714Y-122951333D01*
X184666920Y-122609013D01*
X184461068Y-122300933D01*
X184199067Y-122038932D01*
X183890987Y-121833080D01*
X183548667Y-121691286D01*
X183185262Y-121619000D01*
X182814738Y-121619000D01*
X182451333Y-121691286D01*
X182109013Y-121833080D01*
X181800933Y-122038932D01*
X181538932Y-122300933D01*
X181333080Y-122609013D01*
X181191286Y-122951333D01*
X181119000Y-123314738D01*
X170633988Y-123314738D01*
X170643500Y-123266922D01*
X170643500Y-123113078D01*
X170613487Y-122962191D01*
X170554613Y-122820058D01*
X170469142Y-122692141D01*
X170360359Y-122583358D01*
X170232442Y-122497887D01*
X170090309Y-122439013D01*
X169939422Y-122409000D01*
X169785578Y-122409000D01*
X169634691Y-122439013D01*
X169492558Y-122497887D01*
X169364641Y-122583358D01*
X169255858Y-122692141D01*
X169170387Y-122820058D01*
X169111513Y-122962191D01*
X169081500Y-123113078D01*
X169081500Y-123266922D01*
X169111513Y-123417809D01*
X169170387Y-123559942D01*
X169255858Y-123687859D01*
X169356500Y-123788501D01*
X169356501Y-126449011D01*
X169303371Y-126502141D01*
X169217900Y-126630058D01*
X169159026Y-126772191D01*
X169148331Y-126825957D01*
X167428500Y-125106126D01*
X167428500Y-122283501D01*
X167529142Y-122182859D01*
X167614613Y-122054942D01*
X167673487Y-121912809D01*
X167703500Y-121761922D01*
X167703500Y-121608078D01*
X167673487Y-121457191D01*
X167614613Y-121315058D01*
X167529142Y-121187141D01*
X167420359Y-121078358D01*
X167292442Y-120992887D01*
X167150309Y-120934013D01*
X166999422Y-120904000D01*
X166845578Y-120904000D01*
X166694691Y-120934013D01*
X166552558Y-120992887D01*
X166424641Y-121078358D01*
X166315858Y-121187141D01*
X166230387Y-121315058D01*
X166171513Y-121457191D01*
X166141500Y-121608078D01*
X165298284Y-121608078D01*
X165296028Y-121585181D01*
X165296028Y-121585174D01*
X165288706Y-121510835D01*
X165288500Y-121510156D01*
X165288500Y-119314738D01*
X181119000Y-119314738D01*
X181119000Y-119685262D01*
X181191286Y-120048667D01*
X181333080Y-120390987D01*
X181538932Y-120699067D01*
X181800933Y-120961068D01*
X182109013Y-121166920D01*
X182451333Y-121308714D01*
X182814738Y-121381000D01*
X183185262Y-121381000D01*
X183548667Y-121308714D01*
X183890987Y-121166920D01*
X184199067Y-120961068D01*
X184461068Y-120699067D01*
X184666920Y-120390987D01*
X184808714Y-120048667D01*
X184881000Y-119685262D01*
X184881000Y-119314738D01*
X184808714Y-118951333D01*
X184666920Y-118609013D01*
X184461068Y-118300933D01*
X184199067Y-118038932D01*
X183890987Y-117833080D01*
X183548667Y-117691286D01*
X183185262Y-117619000D01*
X182814738Y-117619000D01*
X182451333Y-117691286D01*
X182109013Y-117833080D01*
X181800933Y-118038932D01*
X181538932Y-118300933D01*
X181333080Y-118609013D01*
X181191286Y-118951333D01*
X181119000Y-119314738D01*
X165288500Y-119314738D01*
X165288500Y-118002091D01*
X165309591Y-117981000D01*
X168065409Y-117981000D01*
X168534628Y-118450220D01*
X168550473Y-118469527D01*
X168627521Y-118532759D01*
X168715425Y-118579745D01*
X168810807Y-118608678D01*
X168910000Y-118618448D01*
X168934854Y-118616000D01*
X170790154Y-118616000D01*
X170815000Y-118618447D01*
X170839846Y-118616000D01*
X170839854Y-118616000D01*
X170914193Y-118608678D01*
X171009575Y-118579745D01*
X171097479Y-118532759D01*
X171174527Y-118469527D01*
X171190376Y-118450215D01*
X175194592Y-114446000D01*
X175336922Y-114446000D01*
X175487809Y-114415987D01*
X175629942Y-114357113D01*
X175757859Y-114271642D01*
X175866642Y-114162859D01*
X175952113Y-114034942D01*
X176010987Y-113892809D01*
X176041000Y-113741922D01*
X176041000Y-113588078D01*
X176010987Y-113437191D01*
X175952113Y-113295058D01*
X175900959Y-113218500D01*
X195555154Y-113218500D01*
X195580000Y-113220947D01*
X195604846Y-113218500D01*
X195604854Y-113218500D01*
X195679193Y-113211178D01*
X195774575Y-113182245D01*
X195862479Y-113135259D01*
X195939527Y-113072027D01*
X195955376Y-113052715D01*
X197121092Y-111887000D01*
X197439001Y-111887000D01*
X197439000Y-135098567D01*
G36*
X162693748Y-137485858D02*
G01*
X162679605Y-137500000D01*
X162693748Y-137514143D01*
X162514143Y-137693748D01*
X162500000Y-137679605D01*
X162485858Y-137693748D01*
X162306253Y-137514143D01*
X162320395Y-137500000D01*
X162306253Y-137485858D01*
X162485858Y-137306253D01*
X162500000Y-137320395D01*
X162514143Y-137306253D01*
X162693748Y-137485858D01*
G37*
X162693748Y-137485858D02*
X162679605Y-137500000D01*
X162693748Y-137514143D01*
X162514143Y-137693748D01*
X162500000Y-137679605D01*
X162485858Y-137693748D01*
X162306253Y-137514143D01*
X162320395Y-137500000D01*
X162306253Y-137485858D01*
X162485858Y-137306253D01*
X162500000Y-137320395D01*
X162514143Y-137306253D01*
X162693748Y-137485858D01*
G36*
X162689001Y-112071542D02*
G01*
X162612442Y-112020387D01*
X162470309Y-111961513D01*
X162319422Y-111931500D01*
X162165578Y-111931500D01*
X162014691Y-111961513D01*
X161872558Y-112020387D01*
X161744641Y-112105858D01*
X161635858Y-112214641D01*
X161607500Y-112257082D01*
X161579142Y-112214641D01*
X161470359Y-112105858D01*
X161342442Y-112020387D01*
X161200309Y-111961513D01*
X161049422Y-111931500D01*
X160895578Y-111931500D01*
X160744691Y-111961513D01*
X160602558Y-112020387D01*
X160474641Y-112105858D01*
X160365858Y-112214641D01*
X160280387Y-112342558D01*
X160221513Y-112484691D01*
X160191500Y-112635578D01*
X160191500Y-112777908D01*
X159492909Y-113476500D01*
X157504845Y-113476500D01*
X157479999Y-113474053D01*
X157455153Y-113476500D01*
X157455146Y-113476500D01*
X157380807Y-113483822D01*
X157285425Y-113512755D01*
X157197521Y-113559741D01*
X157120473Y-113622973D01*
X157104629Y-113642279D01*
X155684794Y-115062115D01*
X155665482Y-115077964D01*
X155602250Y-115155012D01*
X155555264Y-115242917D01*
X155526331Y-115338299D01*
X155519009Y-115412638D01*
X155519009Y-115412645D01*
X155516562Y-115437491D01*
X155519009Y-115462337D01*
X155519010Y-119964734D01*
X154176230Y-121307515D01*
X154178447Y-121285001D01*
X154176000Y-121260155D01*
X154176000Y-118134845D01*
X154178447Y-118109999D01*
X154176000Y-118085153D01*
X154176000Y-118085146D01*
X154168678Y-118010807D01*
X154159637Y-117981000D01*
X154139745Y-117915425D01*
X154127059Y-117891692D01*
X154092759Y-117827521D01*
X154029527Y-117750473D01*
X154010220Y-117734628D01*
X152034091Y-115758500D01*
X152375154Y-115758500D01*
X152400000Y-115760947D01*
X152424846Y-115758500D01*
X152424854Y-115758500D01*
X152499193Y-115751178D01*
X152594575Y-115722245D01*
X152682479Y-115675259D01*
X152759527Y-115612027D01*
X152775376Y-115592715D01*
X154557092Y-113811000D01*
X154699422Y-113811000D01*
X154850309Y-113780987D01*
X154992442Y-113722113D01*
X155120359Y-113636642D01*
X155229142Y-113527859D01*
X155314613Y-113399942D01*
X155373487Y-113257809D01*
X155403500Y-113106922D01*
X155403500Y-112953078D01*
X155373487Y-112802191D01*
X155314613Y-112660058D01*
X155229142Y-112532141D01*
X155120359Y-112423358D01*
X154992442Y-112337887D01*
X154850309Y-112279013D01*
X154699422Y-112249000D01*
X154545578Y-112249000D01*
X154394691Y-112279013D01*
X154252558Y-112337887D01*
X154124641Y-112423358D01*
X154015858Y-112532141D01*
X153930387Y-112660058D01*
X153871513Y-112802191D01*
X153841500Y-112953078D01*
X153841500Y-113095408D01*
X152190409Y-114746500D01*
X151892000Y-114746500D01*
X151892000Y-111887000D01*
X162689001Y-111887000D01*
X162689001Y-112071542D01*
G37*
X162689001Y-112071542D02*
X162612442Y-112020387D01*
X162470309Y-111961513D01*
X162319422Y-111931500D01*
X162165578Y-111931500D01*
X162014691Y-111961513D01*
X161872558Y-112020387D01*
X161744641Y-112105858D01*
X161635858Y-112214641D01*
X161607500Y-112257082D01*
X161579142Y-112214641D01*
X161470359Y-112105858D01*
X161342442Y-112020387D01*
X161200309Y-111961513D01*
X161049422Y-111931500D01*
X160895578Y-111931500D01*
X160744691Y-111961513D01*
X160602558Y-112020387D01*
X160474641Y-112105858D01*
X160365858Y-112214641D01*
X160280387Y-112342558D01*
X160221513Y-112484691D01*
X160191500Y-112635578D01*
X160191500Y-112777908D01*
X159492909Y-113476500D01*
X157504845Y-113476500D01*
X157479999Y-113474053D01*
X157455153Y-113476500D01*
X157455146Y-113476500D01*
X157380807Y-113483822D01*
X157285425Y-113512755D01*
X157197521Y-113559741D01*
X157120473Y-113622973D01*
X157104629Y-113642279D01*
X155684794Y-115062115D01*
X155665482Y-115077964D01*
X155602250Y-115155012D01*
X155555264Y-115242917D01*
X155526331Y-115338299D01*
X155519009Y-115412638D01*
X155519009Y-115412645D01*
X155516562Y-115437491D01*
X155519009Y-115462337D01*
X155519010Y-119964734D01*
X154176230Y-121307515D01*
X154178447Y-121285001D01*
X154176000Y-121260155D01*
X154176000Y-118134845D01*
X154178447Y-118109999D01*
X154176000Y-118085153D01*
X154176000Y-118085146D01*
X154168678Y-118010807D01*
X154159637Y-117981000D01*
X154139745Y-117915425D01*
X154127059Y-117891692D01*
X154092759Y-117827521D01*
X154029527Y-117750473D01*
X154010220Y-117734628D01*
X152034091Y-115758500D01*
X152375154Y-115758500D01*
X152400000Y-115760947D01*
X152424846Y-115758500D01*
X152424854Y-115758500D01*
X152499193Y-115751178D01*
X152594575Y-115722245D01*
X152682479Y-115675259D01*
X152759527Y-115612027D01*
X152775376Y-115592715D01*
X154557092Y-113811000D01*
X154699422Y-113811000D01*
X154850309Y-113780987D01*
X154992442Y-113722113D01*
X155120359Y-113636642D01*
X155229142Y-113527859D01*
X155314613Y-113399942D01*
X155373487Y-113257809D01*
X155403500Y-113106922D01*
X155403500Y-112953078D01*
X155373487Y-112802191D01*
X155314613Y-112660058D01*
X155229142Y-112532141D01*
X155120359Y-112423358D01*
X154992442Y-112337887D01*
X154850309Y-112279013D01*
X154699422Y-112249000D01*
X154545578Y-112249000D01*
X154394691Y-112279013D01*
X154252558Y-112337887D01*
X154124641Y-112423358D01*
X154015858Y-112532141D01*
X153930387Y-112660058D01*
X153871513Y-112802191D01*
X153841500Y-112953078D01*
X153841500Y-113095408D01*
X152190409Y-114746500D01*
X151892000Y-114746500D01*
X151892000Y-111887000D01*
X162689001Y-111887000D01*
X162689001Y-112071542D01*
M02*
