G04 #@! TF.GenerationSoftware,KiCad,Pcbnew,(5.1.5)-3*
G04 #@! TF.CreationDate,2020-04-08T20:51:01+02:00*
G04 #@! TF.ProjectId,SYS_StepAtten,5359535f-5374-4657-9041-7474656e2e6b,proto v0.0*
G04 #@! TF.SameCoordinates,Original*
G04 #@! TF.FileFunction,Copper,L2,Bot*
G04 #@! TF.FilePolarity,Positive*
%FSLAX46Y46*%
G04 Gerber Fmt 4.6, Leading zero omitted, Abs format (unit mm)*
G04 Created by KiCad (PCBNEW (5.1.5)-3) date 2020-04-08 20:51:01*
%MOMM*%
%LPD*%
G04 APERTURE LIST*
%ADD10C,1.524000*%
%ADD11C,2.032000*%
%ADD12C,3.048000*%
%ADD13C,6.400000*%
%ADD14C,0.800000*%
%ADD15O,1.700000X1.700000*%
%ADD16R,1.700000X1.700000*%
%ADD17R,3.500000X3.500000*%
%ADD18C,0.100000*%
%ADD19C,1.440000*%
%ADD20C,1.800000*%
%ADD21C,4.600000*%
%ADD22C,0.250000*%
%ADD23C,0.800000*%
%ADD24C,0.700000*%
%ADD25C,0.400000*%
G04 APERTURE END LIST*
D10*
X141430000Y-143320000D03*
X141430000Y-147320000D03*
X141430000Y-151320000D03*
X135430000Y-151320000D03*
X135430000Y-147320000D03*
X135430000Y-143320000D03*
D11*
X128168390Y-42672010D03*
X142168390Y-42672010D03*
D12*
X132181600Y-37896800D03*
X146181600Y-37896800D03*
D13*
X110490000Y-147320000D03*
D14*
X108090000Y-147320000D03*
X108792944Y-145622944D03*
X110490000Y-144920000D03*
X112187056Y-145622944D03*
X112890000Y-147320000D03*
X112187056Y-149017056D03*
X110490000Y-149720000D03*
X108792944Y-149017056D03*
X108792944Y-162987056D03*
X110490000Y-163690000D03*
X112187056Y-162987056D03*
X112890000Y-161290000D03*
X112187056Y-159592944D03*
X110490000Y-158890000D03*
X108792944Y-159592944D03*
X108090000Y-161290000D03*
D13*
X110490000Y-161290000D03*
D11*
X42849790Y-42646610D03*
X56849790Y-42646610D03*
D12*
X46863000Y-37871400D03*
X60863000Y-37871400D03*
X91647800Y-37871400D03*
X77647800Y-37871400D03*
D11*
X87634590Y-42646610D03*
X73634590Y-42646610D03*
D15*
X106324400Y-62865000D03*
D16*
X106324400Y-60325000D03*
D15*
X106324400Y-65405000D03*
X115214400Y-62865000D03*
D16*
X115214400Y-60325000D03*
D15*
X115214400Y-65405000D03*
D17*
X119405400Y-46355000D03*
G04 #@! TA.AperFunction,ComponentPad*
D18*
G36*
X120478913Y-38858611D02*
G01*
X120551718Y-38869411D01*
X120623114Y-38887295D01*
X120692413Y-38912090D01*
X120758948Y-38943559D01*
X120822078Y-38981398D01*
X120881195Y-39025242D01*
X120935730Y-39074670D01*
X120985158Y-39129205D01*
X121029002Y-39188322D01*
X121066841Y-39251452D01*
X121098310Y-39317987D01*
X121123105Y-39387286D01*
X121140989Y-39458682D01*
X121151789Y-39531487D01*
X121155400Y-39605000D01*
X121155400Y-41105000D01*
X121151789Y-41178513D01*
X121140989Y-41251318D01*
X121123105Y-41322714D01*
X121098310Y-41392013D01*
X121066841Y-41458548D01*
X121029002Y-41521678D01*
X120985158Y-41580795D01*
X120935730Y-41635330D01*
X120881195Y-41684758D01*
X120822078Y-41728602D01*
X120758948Y-41766441D01*
X120692413Y-41797910D01*
X120623114Y-41822705D01*
X120551718Y-41840589D01*
X120478913Y-41851389D01*
X120405400Y-41855000D01*
X118405400Y-41855000D01*
X118331887Y-41851389D01*
X118259082Y-41840589D01*
X118187686Y-41822705D01*
X118118387Y-41797910D01*
X118051852Y-41766441D01*
X117988722Y-41728602D01*
X117929605Y-41684758D01*
X117875070Y-41635330D01*
X117825642Y-41580795D01*
X117781798Y-41521678D01*
X117743959Y-41458548D01*
X117712490Y-41392013D01*
X117687695Y-41322714D01*
X117669811Y-41251318D01*
X117659011Y-41178513D01*
X117655400Y-41105000D01*
X117655400Y-39605000D01*
X117659011Y-39531487D01*
X117669811Y-39458682D01*
X117687695Y-39387286D01*
X117712490Y-39317987D01*
X117743959Y-39251452D01*
X117781798Y-39188322D01*
X117825642Y-39129205D01*
X117875070Y-39074670D01*
X117929605Y-39025242D01*
X117988722Y-38981398D01*
X118051852Y-38943559D01*
X118118387Y-38912090D01*
X118187686Y-38887295D01*
X118259082Y-38869411D01*
X118331887Y-38858611D01*
X118405400Y-38855000D01*
X120405400Y-38855000D01*
X120478913Y-38858611D01*
G37*
G04 #@! TD.AperFunction*
G04 #@! TA.AperFunction,ComponentPad*
G36*
X115666165Y-41609213D02*
G01*
X115751104Y-41621813D01*
X115834399Y-41642677D01*
X115915248Y-41671605D01*
X115992872Y-41708319D01*
X116066524Y-41752464D01*
X116135494Y-41803616D01*
X116199118Y-41861282D01*
X116256784Y-41924906D01*
X116307936Y-41993876D01*
X116352081Y-42067528D01*
X116388795Y-42145152D01*
X116417723Y-42226001D01*
X116438587Y-42309296D01*
X116451187Y-42394235D01*
X116455400Y-42480000D01*
X116455400Y-44230000D01*
X116451187Y-44315765D01*
X116438587Y-44400704D01*
X116417723Y-44483999D01*
X116388795Y-44564848D01*
X116352081Y-44642472D01*
X116307936Y-44716124D01*
X116256784Y-44785094D01*
X116199118Y-44848718D01*
X116135494Y-44906384D01*
X116066524Y-44957536D01*
X115992872Y-45001681D01*
X115915248Y-45038395D01*
X115834399Y-45067323D01*
X115751104Y-45088187D01*
X115666165Y-45100787D01*
X115580400Y-45105000D01*
X113830400Y-45105000D01*
X113744635Y-45100787D01*
X113659696Y-45088187D01*
X113576401Y-45067323D01*
X113495552Y-45038395D01*
X113417928Y-45001681D01*
X113344276Y-44957536D01*
X113275306Y-44906384D01*
X113211682Y-44848718D01*
X113154016Y-44785094D01*
X113102864Y-44716124D01*
X113058719Y-44642472D01*
X113022005Y-44564848D01*
X112993077Y-44483999D01*
X112972213Y-44400704D01*
X112959613Y-44315765D01*
X112955400Y-44230000D01*
X112955400Y-42480000D01*
X112959613Y-42394235D01*
X112972213Y-42309296D01*
X112993077Y-42226001D01*
X113022005Y-42145152D01*
X113058719Y-42067528D01*
X113102864Y-41993876D01*
X113154016Y-41924906D01*
X113211682Y-41861282D01*
X113275306Y-41803616D01*
X113344276Y-41752464D01*
X113417928Y-41708319D01*
X113495552Y-41671605D01*
X113576401Y-41642677D01*
X113659696Y-41621813D01*
X113744635Y-41609213D01*
X113830400Y-41605000D01*
X115580400Y-41605000D01*
X115666165Y-41609213D01*
G37*
G04 #@! TD.AperFunction*
D16*
X106959400Y-45593000D03*
D15*
X106959400Y-43053000D03*
X109499400Y-45593000D03*
X109499400Y-43053000D03*
D19*
X130990001Y-47625000D03*
X133530001Y-47625000D03*
X136070001Y-47625000D03*
X150495000Y-47625000D03*
X147955000Y-47625000D03*
X145415000Y-47625000D03*
D20*
X127555000Y-167005000D03*
X125055000Y-167005000D03*
X122555000Y-167005000D03*
D21*
X130055000Y-163705000D03*
X120055000Y-163705000D03*
D16*
X122047000Y-106807000D03*
D15*
X122047000Y-109347000D03*
D16*
X125730000Y-145415000D03*
D15*
X128270000Y-145415000D03*
X125730000Y-147955000D03*
X128270000Y-147955000D03*
X125730000Y-150495000D03*
X128270000Y-150495000D03*
D14*
X145542000Y-108077000D03*
X149352000Y-102362000D03*
X128270000Y-120015000D03*
X130175000Y-127635000D03*
X97790000Y-156210000D03*
X97790000Y-154940000D03*
X123825000Y-92075000D03*
X122555000Y-92075000D03*
X97790000Y-146050000D03*
X97790000Y-144780000D03*
X97790000Y-138430000D03*
X97790000Y-137160000D03*
X97790000Y-128270000D03*
X97790000Y-127000000D03*
X97790000Y-120650000D03*
X97790000Y-119380000D03*
X97790000Y-110490000D03*
X97790000Y-109220000D03*
X97790000Y-102870000D03*
X97790000Y-101600000D03*
X97790000Y-93345000D03*
X97790000Y-92075000D03*
X118110000Y-73025000D03*
X111125000Y-79375000D03*
X111125000Y-80645000D03*
X46355000Y-81915000D03*
X127000000Y-117475000D03*
X106680000Y-143510000D03*
X114300000Y-144145000D03*
X113265001Y-143110001D03*
X106045000Y-144145000D03*
X100965000Y-120015000D03*
X100965000Y-125730000D03*
X117109987Y-73025000D03*
X117384990Y-82651751D03*
X117094000Y-90551000D03*
X116586000Y-96393000D03*
X116586000Y-130937000D03*
X111760000Y-50800000D03*
X106045000Y-49530000D03*
X59182000Y-108966000D03*
X76962000Y-108966000D03*
X75692000Y-108966000D03*
X57912000Y-108966000D03*
X57912000Y-126746000D03*
X76962000Y-126746000D03*
X75692000Y-126746000D03*
X59182000Y-126746000D03*
X76962000Y-144526000D03*
X57912000Y-144526000D03*
X59182000Y-144526000D03*
X75692000Y-144526000D03*
X76962000Y-91186000D03*
X75692000Y-91186000D03*
X57912000Y-162306000D03*
X59182000Y-162306000D03*
X121285000Y-93345000D03*
X120650000Y-93980000D03*
X50165000Y-57785000D03*
X51435000Y-57785000D03*
X64770000Y-57785000D03*
X66040000Y-57785000D03*
X81037200Y-57785000D03*
X94615000Y-57785000D03*
X129998000Y-91617000D03*
X131268000Y-91617000D03*
X93980000Y-76200000D03*
X95250000Y-76200000D03*
X65405000Y-76200000D03*
X64135000Y-76200000D03*
X119380000Y-68580000D03*
X119380000Y-69850000D03*
X124460000Y-68580000D03*
X124460000Y-69850000D03*
X79740010Y-57886458D03*
X94615000Y-56515000D03*
X129794000Y-120015000D03*
X136906000Y-120015000D03*
X143510000Y-86360000D03*
X130810000Y-154305000D03*
X135255000Y-154305000D03*
X148590000Y-121285000D03*
X133350000Y-123825000D03*
X128314384Y-123638443D03*
X126415342Y-132262458D03*
X128270000Y-127000000D03*
X118745000Y-132080000D03*
X124460000Y-158115000D03*
X120015000Y-66675000D03*
X121285000Y-101600000D03*
X121920000Y-102235000D03*
X120015000Y-65405000D03*
X141605000Y-165100000D03*
X127635000Y-130175000D03*
X141605000Y-163195000D03*
X128995010Y-136525000D03*
X140335000Y-131445000D03*
X142240000Y-168275000D03*
X43815000Y-60960000D03*
X74295000Y-61595000D03*
X73414614Y-61205386D03*
X104775000Y-78740000D03*
X60960000Y-80010000D03*
X59690000Y-80010000D03*
X104140000Y-79375000D03*
X52070000Y-63500000D03*
X86995000Y-59690000D03*
X86995000Y-60960000D03*
X102870000Y-78105000D03*
X103505000Y-77470000D03*
X83839010Y-77400010D03*
X85109010Y-77400010D03*
X52832000Y-105156000D03*
X54102000Y-105156000D03*
X94361000Y-105918000D03*
X52832000Y-122936000D03*
X54102000Y-122936000D03*
X94361000Y-123698000D03*
X52832000Y-140716000D03*
X54102000Y-140716000D03*
X94361000Y-141478000D03*
X52832000Y-158496000D03*
X54102000Y-158496000D03*
X94361000Y-159258000D03*
X82042000Y-148336000D03*
X80772000Y-148336000D03*
X94361000Y-149098000D03*
X82042000Y-130556000D03*
X80772000Y-130556000D03*
X94361000Y-131318000D03*
X82042000Y-112776000D03*
X80772000Y-112776000D03*
X94361000Y-113538000D03*
X82042000Y-94996000D03*
X80772000Y-94996000D03*
X94361000Y-95758000D03*
X64770000Y-41275000D03*
X58420000Y-40005000D03*
X66675000Y-44450000D03*
X63500000Y-45085000D03*
X84455000Y-41275000D03*
X59055000Y-43180000D03*
X101600000Y-51435000D03*
X100965000Y-42545000D03*
X80010000Y-43180000D03*
X80010000Y-48895000D03*
X105410000Y-52070000D03*
X101218256Y-52359281D03*
X102870000Y-48260000D03*
X104775000Y-48260000D03*
X109855000Y-67310000D03*
X86360000Y-62865000D03*
X121285000Y-66675000D03*
X121285000Y-87630000D03*
X121285000Y-65405000D03*
X121285000Y-88900000D03*
X119110013Y-73025000D03*
X118835010Y-81280000D03*
X142240000Y-122555000D03*
X118200010Y-113665000D03*
X131372885Y-139627885D03*
X134620000Y-136525000D03*
X134620000Y-130175000D03*
X132080000Y-140335000D03*
X136525000Y-136525000D03*
X136525000Y-130175000D03*
X71247000Y-93726000D03*
X68707000Y-93726000D03*
X66167000Y-93726000D03*
X63627000Y-93726000D03*
X71247000Y-110871000D03*
X68707000Y-110871000D03*
X66167000Y-110871000D03*
X63627000Y-110871000D03*
X71247000Y-128651000D03*
X68707000Y-128651000D03*
X66167000Y-128651000D03*
X63627000Y-128651000D03*
X71247000Y-146431000D03*
X68707000Y-146431000D03*
X66167000Y-146431000D03*
X63627000Y-146431000D03*
X62357000Y-157226000D03*
X67437000Y-156591000D03*
X71755000Y-86360000D03*
X66802000Y-86868000D03*
X128270000Y-62230000D03*
X43815000Y-93980000D03*
X46863000Y-93980000D03*
X46863000Y-107188000D03*
X43815000Y-107188000D03*
X46863000Y-124968000D03*
X43815000Y-124968000D03*
X46863000Y-142748000D03*
X43815000Y-142748000D03*
X46863000Y-160528000D03*
X43815000Y-160528000D03*
X91567000Y-110744000D03*
X88011000Y-110744000D03*
X88011000Y-92964000D03*
X88011000Y-128524000D03*
X91567000Y-128524000D03*
X91567000Y-92964000D03*
X88011000Y-146304000D03*
X91567000Y-146304000D03*
X64770000Y-52705000D03*
X76200000Y-52705000D03*
X56515000Y-73660000D03*
X41910000Y-52705000D03*
X57785000Y-60325000D03*
X53975000Y-59690000D03*
X56515000Y-51435000D03*
X53975000Y-51435000D03*
X46990000Y-86995000D03*
X66675000Y-85815010D03*
X100330000Y-53340000D03*
X100330000Y-56515000D03*
X100330000Y-60325000D03*
X100330000Y-66040000D03*
X90805000Y-52705000D03*
X92710000Y-52705000D03*
X85090000Y-73660000D03*
X61595000Y-52705000D03*
X70485000Y-56515000D03*
X75565000Y-67310000D03*
X70485000Y-53975000D03*
X71755000Y-56515000D03*
X76200000Y-66040000D03*
X94615000Y-73660000D03*
X102119607Y-82915010D03*
X64770000Y-83094990D03*
X41910000Y-66040000D03*
X42359337Y-74850672D03*
X119380000Y-140335000D03*
X106680000Y-90170000D03*
X106680000Y-96520000D03*
X109220000Y-139065000D03*
X46990000Y-74295000D03*
X46990000Y-66675000D03*
X120650000Y-139065000D03*
X114300000Y-94615000D03*
X95250000Y-87630000D03*
X50165000Y-82550000D03*
X108585000Y-82550000D03*
X109220000Y-90170000D03*
X109220000Y-96520000D03*
X115570000Y-137795000D03*
X113030000Y-106680000D03*
X113574990Y-128270000D03*
X112395000Y-124460000D03*
X112395000Y-137795000D03*
X114935000Y-152400000D03*
X115660010Y-124460000D03*
X117475000Y-121285000D03*
X117384990Y-151130000D03*
X110490000Y-130810000D03*
X110490000Y-119380000D03*
X111760000Y-118110000D03*
X111760000Y-113030000D03*
X112395000Y-104775000D03*
X114300000Y-141605000D03*
X148717000Y-91567000D03*
X143637000Y-101092000D03*
X139609990Y-132715000D03*
D22*
X145542000Y-108077000D02*
X145542000Y-102997000D01*
X145542000Y-102997000D02*
X146177000Y-102362000D01*
X146177000Y-102362000D02*
X149352000Y-102362000D01*
D23*
X97790000Y-154940000D02*
X97790000Y-156210000D01*
X97790000Y-154940000D02*
X97790000Y-146050000D01*
X97790000Y-146050000D02*
X97790000Y-128270000D01*
X97790000Y-128270000D02*
X97790000Y-120650000D01*
X97790000Y-120650000D02*
X97790000Y-110490000D01*
X97790000Y-110490000D02*
X97790000Y-102870000D01*
X97790000Y-102870000D02*
X97790000Y-93345000D01*
X97790000Y-93345000D02*
X97790000Y-92075000D01*
D22*
X118110000Y-73025000D02*
X118110000Y-91440000D01*
X118110000Y-91440000D02*
X117475000Y-92075000D01*
D23*
X117475000Y-92075000D02*
X122555000Y-92075000D01*
D22*
X128270000Y-150495000D02*
X125730000Y-150495000D01*
D23*
X111125000Y-79375000D02*
X111125000Y-80645000D01*
X97790000Y-92075000D02*
X112395000Y-92075000D01*
X111125000Y-90805000D02*
X112395000Y-92075000D01*
X112395000Y-92075000D02*
X117475000Y-92075000D01*
X111125000Y-81280000D02*
X111125000Y-90805000D01*
X111125000Y-80645000D02*
X111125000Y-81280000D01*
X46990000Y-81280000D02*
X111125000Y-81280000D01*
X46355000Y-81915000D02*
X46990000Y-81280000D01*
D22*
X128270000Y-120015000D02*
X128270000Y-118745000D01*
X128270000Y-118745000D02*
X127000000Y-117475000D01*
D23*
X113265001Y-143110001D02*
X114300000Y-144145000D01*
X106680000Y-143510000D02*
X107079999Y-143110001D01*
X107079999Y-143110001D02*
X113265001Y-143110001D01*
X106680000Y-143510000D02*
X106045000Y-144145000D01*
X100965000Y-120015000D02*
X100965000Y-125730000D01*
D22*
X117109987Y-82376748D02*
X117384990Y-82651751D01*
X117109987Y-73025000D02*
X117109987Y-82376748D01*
X117384990Y-82651751D02*
X117384990Y-90260010D01*
X117384990Y-90260010D02*
X117094000Y-90551000D01*
X116586000Y-96393000D02*
X116186001Y-96792999D01*
X116186001Y-113647412D02*
X116586000Y-114047411D01*
X116186001Y-96792999D02*
X116186001Y-113647412D01*
X116586000Y-130371315D02*
X116586000Y-130937000D01*
X116586000Y-114047411D02*
X116586000Y-130371315D01*
X111760000Y-50800000D02*
X107315000Y-50800000D01*
X107315000Y-50800000D02*
X106045000Y-49530000D01*
D24*
X59182000Y-108966000D02*
X76962000Y-108966000D01*
X57912000Y-126746000D02*
X76962000Y-126746000D01*
X76962000Y-144526000D02*
X75692000Y-144526000D01*
X75692000Y-144526000D02*
X59182000Y-144526000D01*
X76962000Y-91186000D02*
X75692000Y-91186000D01*
X57912000Y-162306000D02*
X59182000Y-162306000D01*
X59182000Y-162306000D02*
X42164000Y-162306000D01*
X42164000Y-162306000D02*
X41656000Y-161798000D01*
X59182000Y-108966000D02*
X57912000Y-108966000D01*
X59182000Y-126746000D02*
X57912000Y-126746000D01*
X57912000Y-126746000D02*
X42799000Y-126746000D01*
X59182000Y-144526000D02*
X57912000Y-144526000D01*
X57912000Y-144526000D02*
X42799000Y-144526000D01*
X41656000Y-110109000D02*
X41656000Y-125603000D01*
X57912000Y-108966000D02*
X42799000Y-108966000D01*
X42799000Y-108966000D02*
X41656000Y-110109000D01*
X41656000Y-127889000D02*
X42799000Y-126746000D01*
X41656000Y-143383000D02*
X41656000Y-129286000D01*
X41656000Y-129286000D02*
X41656000Y-127889000D01*
X41656000Y-129286000D02*
X41656000Y-125603000D01*
X41656000Y-145669000D02*
X42799000Y-144526000D01*
X41656000Y-146431000D02*
X41656000Y-145669000D01*
X41656000Y-161798000D02*
X41656000Y-146431000D01*
X41656000Y-146431000D02*
X41656000Y-143383000D01*
D23*
X50165000Y-57785000D02*
X51435000Y-57785000D01*
X51435000Y-57785000D02*
X64770000Y-57785000D01*
X64770000Y-57785000D02*
X66040000Y-57785000D01*
X128905000Y-91440000D02*
X129821000Y-91440000D01*
X124460000Y-86995000D02*
X128905000Y-91440000D01*
X129821000Y-91440000D02*
X129998000Y-91617000D01*
X94615000Y-57785000D02*
X123190000Y-57785000D01*
X123190000Y-57785000D02*
X124460000Y-59055000D01*
X129998000Y-91617000D02*
X131268000Y-91617000D01*
X93980000Y-76200000D02*
X95250000Y-76200000D01*
X93980000Y-76200000D02*
X83185000Y-76200000D01*
X83185000Y-76200000D02*
X65405000Y-76200000D01*
X64135000Y-76200000D02*
X65405000Y-76200000D01*
X95250000Y-76200000D02*
X111125000Y-76200000D01*
X111125000Y-76200000D02*
X111760000Y-76200000D01*
X111760000Y-76200000D02*
X115570000Y-72390000D01*
X115570000Y-72390000D02*
X118745000Y-69215000D01*
X118745000Y-69215000D02*
X119380000Y-68580000D01*
X124460000Y-59055000D02*
X124460000Y-68580000D01*
X124460000Y-69215000D02*
X124460000Y-69850000D01*
X124460000Y-69850000D02*
X124460000Y-86995000D01*
X124460000Y-68580000D02*
X124460000Y-69215000D01*
X76962000Y-91186000D02*
X42799000Y-91186000D01*
X41656000Y-92329000D02*
X41656000Y-110109000D01*
X42799000Y-91186000D02*
X41656000Y-92329000D01*
X79841468Y-57785000D02*
X79740010Y-57886458D01*
X81037200Y-57785000D02*
X79841468Y-57785000D01*
X79638552Y-57785000D02*
X79740010Y-57886458D01*
X66040000Y-57785000D02*
X79638552Y-57785000D01*
D24*
X59182000Y-162306000D02*
X61341000Y-164465000D01*
X120719315Y-93345000D02*
X121285000Y-93345000D01*
X102235000Y-95250000D02*
X104140000Y-93345000D01*
X61341000Y-164465000D02*
X101600000Y-164465000D01*
X104140000Y-93345000D02*
X120719315Y-93345000D01*
X102235000Y-163830000D02*
X102235000Y-95250000D01*
X101600000Y-164465000D02*
X102235000Y-163830000D01*
D23*
X81037200Y-57785000D02*
X93345000Y-57785000D01*
D24*
X93345000Y-57785000D02*
X94615000Y-56515000D01*
D22*
X129794000Y-120015000D02*
X136906000Y-120015000D01*
X130810000Y-153670000D02*
X130810000Y-154305000D01*
X138445000Y-154305000D02*
X141430000Y-151320000D01*
X135255000Y-154305000D02*
X138445000Y-154305000D01*
X128905000Y-154305000D02*
X130810000Y-154305000D01*
X127555000Y-167005000D02*
X126365000Y-165815000D01*
X126365000Y-156845000D02*
X128905000Y-154305000D01*
X126365000Y-165815000D02*
X126365000Y-156845000D01*
X130810000Y-147955000D02*
X128270000Y-145415000D01*
X130810000Y-154305000D02*
X130810000Y-147955000D01*
X128270000Y-145415000D02*
X125730000Y-145415000D01*
X126020010Y-68870010D02*
X143110001Y-85960001D01*
X143110001Y-85960001D02*
X143510000Y-86360000D01*
X112306163Y-45593000D02*
X126020010Y-59306848D01*
X126020010Y-59306848D02*
X126020010Y-68870010D01*
X109499400Y-45593000D02*
X112306163Y-45593000D01*
D23*
X148590000Y-121285000D02*
X145415000Y-121285000D01*
X145415000Y-121285000D02*
X142875000Y-123825000D01*
X142875000Y-123825000D02*
X133350000Y-123825000D01*
D22*
X132575415Y-123050415D02*
X128902412Y-123050415D01*
X128902412Y-123050415D02*
X128714383Y-123238444D01*
X133350000Y-123825000D02*
X132575415Y-123050415D01*
X128714383Y-123238444D02*
X128314384Y-123638443D01*
X126415342Y-132262458D02*
X126415342Y-128320342D01*
X126415342Y-128320342D02*
X127735684Y-127000000D01*
X127735684Y-127000000D02*
X128270000Y-127000000D01*
X118745000Y-132080000D02*
X118110000Y-132715000D01*
X118110000Y-132715000D02*
X118110000Y-157480000D01*
X118110000Y-157480000D02*
X118745000Y-158115000D01*
X118745000Y-158115000D02*
X124460000Y-158115000D01*
D23*
X121285000Y-101600000D02*
X121920000Y-102235000D01*
X120015000Y-65405000D02*
X120015000Y-66675000D01*
X120015000Y-87630000D02*
X120015000Y-88265000D01*
X120015000Y-89742929D02*
X121147060Y-90874989D01*
X121147060Y-90874989D02*
X124322060Y-90874989D01*
X125025011Y-97859989D02*
X121684999Y-101200001D01*
X121684999Y-101200001D02*
X121285000Y-101600000D01*
X125025011Y-91577940D02*
X125025011Y-97859989D01*
X124322060Y-90874989D02*
X125025011Y-91577940D01*
X120015000Y-88265000D02*
X120015000Y-89742929D01*
X120015000Y-88265000D02*
X120015000Y-84493162D01*
X120580002Y-67805687D02*
X120015000Y-67240685D01*
X120015000Y-67240685D02*
X120015000Y-66675000D01*
X120015000Y-84493162D02*
X120310014Y-84198148D01*
X120580002Y-70426000D02*
X120580002Y-67805687D01*
X120310014Y-70695988D02*
X120580002Y-70426000D01*
X120310014Y-84198148D02*
X120310014Y-70695988D01*
D22*
X132080000Y-142043004D02*
X132805002Y-141318002D01*
X141605000Y-165100000D02*
X132080000Y-155575000D01*
X132080000Y-155575000D02*
X132080000Y-142043004D01*
X127635000Y-136523589D02*
X127635000Y-130740685D01*
X127635000Y-130740685D02*
X127635000Y-130175000D01*
X131720886Y-138902884D02*
X130014295Y-138902884D01*
X132805002Y-141318002D02*
X132805002Y-139986998D01*
X132805002Y-139986998D02*
X131720886Y-138902884D01*
X130014295Y-138902884D02*
X127635000Y-136523589D01*
X130177822Y-136525000D02*
X129560695Y-136525000D01*
X133255013Y-139602191D02*
X130177822Y-136525000D01*
X129560695Y-136525000D02*
X128995010Y-136525000D01*
X141605000Y-163195000D02*
X133255013Y-154845013D01*
X133255013Y-154845013D02*
X133255013Y-139602191D01*
X140335000Y-131445000D02*
X140335000Y-139700000D01*
X140335000Y-139700000D02*
X144145000Y-143510000D01*
X144145000Y-143510000D02*
X144145000Y-160020000D01*
X144145000Y-160020000D02*
X144145000Y-166370000D01*
X144145000Y-166370000D02*
X142240000Y-168275000D01*
D23*
X44777885Y-61922885D02*
X72697115Y-61922885D01*
X72697115Y-61922885D02*
X73014615Y-61605385D01*
X73014615Y-61605385D02*
X73414614Y-61205386D01*
X43815000Y-60960000D02*
X44777885Y-61922885D01*
D24*
X104140000Y-79375000D02*
X69850000Y-79375000D01*
X69850000Y-79375000D02*
X69215000Y-80010000D01*
X69215000Y-80010000D02*
X60960000Y-80010000D01*
X59690000Y-80010000D02*
X60960000Y-80010000D01*
X104775000Y-78740000D02*
X104140000Y-79375000D01*
D23*
X81280000Y-63500000D02*
X85090000Y-59690000D01*
X52070000Y-63500000D02*
X81280000Y-63500000D01*
X85090000Y-59690000D02*
X86995000Y-59690000D01*
D24*
X86995000Y-60960000D02*
X86995000Y-59690000D01*
X102870000Y-78105000D02*
X103505000Y-77470000D01*
X85814000Y-78105000D02*
X85109010Y-77400010D01*
X102870000Y-78105000D02*
X85814000Y-78105000D01*
X85109010Y-77400010D02*
X83839010Y-77400010D01*
X52832000Y-105156000D02*
X54102000Y-105156000D01*
X54102000Y-105156000D02*
X93599000Y-105156000D01*
X93599000Y-105156000D02*
X94361000Y-105918000D01*
X54102000Y-122936000D02*
X52832000Y-122936000D01*
X54102000Y-122936000D02*
X93599000Y-122936000D01*
X93599000Y-122936000D02*
X94361000Y-123698000D01*
X54102000Y-140716000D02*
X52832000Y-140716000D01*
X54102000Y-140716000D02*
X93599000Y-140716000D01*
X93599000Y-140716000D02*
X94361000Y-141478000D01*
X52832000Y-158496000D02*
X54102000Y-158496000D01*
X54102000Y-158496000D02*
X93599000Y-158496000D01*
X93599000Y-158496000D02*
X94361000Y-159258000D01*
X80772000Y-148336000D02*
X82042000Y-148336000D01*
X82042000Y-148336000D02*
X93599000Y-148336000D01*
X93599000Y-148336000D02*
X94361000Y-149098000D01*
X80772000Y-130556000D02*
X82042000Y-130556000D01*
X82042000Y-130556000D02*
X93599000Y-130556000D01*
X93599000Y-130556000D02*
X94361000Y-131318000D01*
X80772000Y-112776000D02*
X82042000Y-112776000D01*
X80772000Y-112776000D02*
X93599000Y-112776000D01*
X93599000Y-112776000D02*
X94361000Y-113538000D01*
X80772000Y-94996000D02*
X82042000Y-94996000D01*
X82042000Y-94996000D02*
X93599000Y-94996000D01*
X93599000Y-94996000D02*
X94361000Y-95758000D01*
D25*
X64370001Y-40875001D02*
X46119999Y-40875001D01*
X64770000Y-41275000D02*
X64370001Y-40875001D01*
X44348390Y-42646610D02*
X42849790Y-42646610D01*
X46119999Y-40875001D02*
X44348390Y-42646610D01*
X46863000Y-37871400D02*
X56286400Y-37871400D01*
X56286400Y-37871400D02*
X58420000Y-40005000D01*
X66675000Y-44450000D02*
X64135000Y-44450000D01*
X64135000Y-44450000D02*
X63500000Y-45085000D01*
X84055001Y-40875001D02*
X70249999Y-40875001D01*
X84455000Y-41275000D02*
X84055001Y-40875001D01*
X70249999Y-40875001D02*
X67945000Y-43180000D01*
X67945000Y-43180000D02*
X59055000Y-43180000D01*
X101600000Y-51435000D02*
X100965000Y-50800000D01*
X100965000Y-50800000D02*
X100965000Y-42545000D01*
X80010000Y-43180000D02*
X80010000Y-48895000D01*
X105410000Y-52070000D02*
X105010001Y-52469999D01*
X105010001Y-52469999D02*
X101328974Y-52469999D01*
X101328974Y-52469999D02*
X101218256Y-52359281D01*
X102870000Y-48260000D02*
X104775000Y-48260000D01*
X109855000Y-67310000D02*
X90805000Y-67310000D01*
X90805000Y-67310000D02*
X86360000Y-62865000D01*
D23*
X121285000Y-66675000D02*
X121285000Y-65405000D01*
X121285000Y-87630000D02*
X121285000Y-88900000D01*
X121780013Y-67170013D02*
X121780013Y-87134987D01*
X121684999Y-87230001D02*
X121285000Y-87630000D01*
X121780013Y-87134987D02*
X121684999Y-87230001D01*
X121285000Y-66675000D02*
X121780013Y-67170013D01*
D22*
X119110013Y-81004997D02*
X118835010Y-81280000D01*
X119110013Y-73025000D02*
X119110013Y-81004997D01*
X142240000Y-122555000D02*
X127090010Y-122555000D01*
X127090010Y-122555000D02*
X118200010Y-113665000D01*
X130807200Y-139627885D02*
X131372885Y-139627885D01*
X123825000Y-144145000D02*
X128342115Y-139627885D01*
X124527919Y-147955000D02*
X123825000Y-147252081D01*
X128342115Y-139627885D02*
X130807200Y-139627885D01*
X123825000Y-147252081D02*
X123825000Y-144145000D01*
X125730000Y-147955000D02*
X124527919Y-147955000D01*
X134620000Y-136525000D02*
X134620000Y-130175000D01*
X124809997Y-146779999D02*
X124554999Y-146525001D01*
X124554999Y-146525001D02*
X124554999Y-144304999D01*
X128434996Y-140425002D02*
X131989998Y-140425002D01*
X131989998Y-140425002D02*
X132080000Y-140335000D01*
X124554999Y-144304999D02*
X128434996Y-140425002D01*
X128270000Y-147955000D02*
X127094999Y-146779999D01*
X127094999Y-146779999D02*
X124809997Y-146779999D01*
X136525000Y-136525000D02*
X136525000Y-130175000D01*
D25*
X71247000Y-93726000D02*
X68707000Y-93726000D01*
X66167000Y-93726000D02*
X63627000Y-93726000D01*
X71247000Y-110871000D02*
X68707000Y-110871000D01*
X66167000Y-110871000D02*
X63627000Y-110871000D01*
X71247000Y-128651000D02*
X68707000Y-128651000D01*
X66167000Y-128651000D02*
X63627000Y-128651000D01*
X71247000Y-146431000D02*
X68707000Y-146431000D01*
X66167000Y-146431000D02*
X63627000Y-146431000D01*
X62357000Y-157226000D02*
X66802000Y-157226000D01*
X66802000Y-157226000D02*
X67437000Y-156591000D01*
X71755000Y-86360000D02*
X71247000Y-86868000D01*
X71247000Y-86868000D02*
X66802000Y-86868000D01*
X133530001Y-47625000D02*
X133530001Y-56969999D01*
X133530001Y-56969999D02*
X128270000Y-62230000D01*
X43815000Y-93980000D02*
X46863000Y-93980000D01*
X46863000Y-107188000D02*
X43815000Y-107188000D01*
X46863000Y-124968000D02*
X43815000Y-124968000D01*
X46863000Y-142748000D02*
X43815000Y-142748000D01*
X46863000Y-160528000D02*
X43815000Y-160528000D01*
X88011000Y-110744000D02*
X91567000Y-110744000D01*
X88011000Y-128524000D02*
X91567000Y-128524000D01*
X88011000Y-92964000D02*
X91567000Y-92964000D01*
X88011000Y-146304000D02*
X91567000Y-146304000D01*
X64770000Y-52705000D02*
X76200000Y-52705000D01*
X56515000Y-73660000D02*
X56515000Y-67945000D01*
X56515000Y-67945000D02*
X53340000Y-64770000D01*
X53340000Y-64770000D02*
X43180000Y-64770000D01*
X43180000Y-64770000D02*
X40640000Y-62230000D01*
X40640000Y-62230000D02*
X40640000Y-53975000D01*
X40640000Y-53975000D02*
X41910000Y-52705000D01*
X57785000Y-60325000D02*
X57150000Y-59690000D01*
X57150000Y-59690000D02*
X53975000Y-59690000D01*
X56515000Y-51435000D02*
X53975000Y-51435000D01*
X46990000Y-86995000D02*
X65495010Y-86995000D01*
X66275001Y-86215009D02*
X66675000Y-85815010D01*
X65495010Y-86995000D02*
X66275001Y-86215009D01*
X100330000Y-53340000D02*
X100330000Y-55880000D01*
X100330000Y-55880000D02*
X100330000Y-56515000D01*
X100330000Y-60325000D02*
X100330000Y-66040000D01*
X90805000Y-52705000D02*
X92710000Y-52705000D01*
X61595000Y-52705000D02*
X61595000Y-53975000D01*
X61595000Y-53975000D02*
X64135000Y-56515000D01*
X64135000Y-56515000D02*
X70485000Y-56515000D01*
X81915000Y-73660000D02*
X85090000Y-73660000D01*
X75565000Y-67310000D02*
X81915000Y-73660000D01*
X70485000Y-53975000D02*
X72390000Y-55880000D01*
X72390000Y-55880000D02*
X71755000Y-56515000D01*
X76200000Y-66040000D02*
X76200000Y-66675000D01*
X76200000Y-66675000D02*
X80645000Y-71120000D01*
X80645000Y-71120000D02*
X92075000Y-71120000D01*
X92075000Y-71120000D02*
X94615000Y-73660000D01*
X102119607Y-82915010D02*
X64949980Y-82915010D01*
X64949980Y-82915010D02*
X64770000Y-83094990D01*
D22*
X41910000Y-66040000D02*
X42545000Y-66675000D01*
X42545000Y-74665009D02*
X42359337Y-74850672D01*
X42545000Y-66675000D02*
X42545000Y-74665009D01*
X42359337Y-74850672D02*
X42359337Y-81729337D01*
X42359337Y-81729337D02*
X45085000Y-84455000D01*
X45085000Y-84455000D02*
X90805000Y-84455000D01*
X90805000Y-84455000D02*
X95885000Y-89535000D01*
X95885000Y-89535000D02*
X106045000Y-89535000D01*
X106045000Y-89535000D02*
X106680000Y-90170000D01*
X106680000Y-96520000D02*
X106680000Y-136525000D01*
X106680000Y-136525000D02*
X109220000Y-139065000D01*
X46990000Y-74295000D02*
X46990000Y-66675000D01*
X120650000Y-139065000D02*
X120650000Y-117475000D01*
X120650000Y-117475000D02*
X117475000Y-114300000D01*
X117475000Y-114300000D02*
X117475000Y-95250000D01*
X117475000Y-95250000D02*
X114935000Y-95250000D01*
X114935000Y-95250000D02*
X114300000Y-94615000D01*
X51619989Y-84004989D02*
X91624989Y-84004989D01*
X94850001Y-87230001D02*
X95250000Y-87630000D01*
X50165000Y-82550000D02*
X51619989Y-84004989D01*
X91624989Y-84004989D02*
X94850001Y-87230001D01*
X108585000Y-82550000D02*
X109220000Y-83185000D01*
X109220000Y-83185000D02*
X109220000Y-90170000D01*
X109220000Y-96520000D02*
X109220000Y-97790000D01*
X109220000Y-97790000D02*
X114935000Y-103505000D01*
X114935000Y-103505000D02*
X114935000Y-137160000D01*
X114935000Y-137160000D02*
X115570000Y-137795000D01*
X113574990Y-107224990D02*
X113574990Y-127704315D01*
X113574990Y-127704315D02*
X113574990Y-128270000D01*
X113030000Y-106680000D02*
X113574990Y-107224990D01*
X112395000Y-124460000D02*
X112395000Y-137795000D01*
X115660010Y-136812006D02*
X115660010Y-125025685D01*
X116295002Y-151039998D02*
X116295002Y-137446998D01*
X115660010Y-125025685D02*
X115660010Y-124460000D01*
X116295002Y-137446998D02*
X115660010Y-136812006D01*
X114935000Y-152400000D02*
X116295002Y-151039998D01*
X117475000Y-121285000D02*
X117475000Y-151039990D01*
X117475000Y-151039990D02*
X117384990Y-151130000D01*
X110490000Y-130810000D02*
X110490000Y-119380000D01*
X111760000Y-118110000D02*
X111760000Y-113030000D01*
X112395000Y-104775000D02*
X113030000Y-104775000D01*
X113030000Y-104775000D02*
X114300000Y-106045000D01*
X114300000Y-106045000D02*
X114300000Y-141605000D01*
X148717000Y-91567000D02*
X148717000Y-99822000D01*
X148717000Y-99822000D02*
X147447000Y-101092000D01*
X147447000Y-101092000D02*
X143637000Y-101092000D01*
X139609990Y-145499990D02*
X139609990Y-133280685D01*
X139609990Y-133280685D02*
X139609990Y-132715000D01*
X141430000Y-147320000D02*
X139609990Y-145499990D01*
M02*
