G04 #@! TF.GenerationSoftware,KiCad,Pcbnew,(5.1.5)-3*
G04 #@! TF.CreationDate,2020-06-04T17:15:34+02:00*
G04 #@! TF.ProjectId,SYS_StepAtten,5359535f-5374-4657-9041-7474656e2e6b,v1.0*
G04 #@! TF.SameCoordinates,Original*
G04 #@! TF.FileFunction,Legend,Bot*
G04 #@! TF.FilePolarity,Positive*
%FSLAX46Y46*%
G04 Gerber Fmt 4.6, Leading zero omitted, Abs format (unit mm)*
G04 Created by KiCad (PCBNEW (5.1.5)-3) date 2020-06-04 17:15:34*
%MOMM*%
%LPD*%
G04 APERTURE LIST*
%ADD10C,0.100000*%
%ADD11C,0.150000*%
%ADD12C,0.300000*%
%ADD13C,0.400000*%
%ADD14C,0.050000*%
%ADD15C,0.010000*%
G04 APERTURE END LIST*
D10*
D11*
X177002200Y-166007200D02*
X177002200Y-198007200D01*
X285002200Y-198007200D01*
X285002200Y-166007200D01*
X177002200Y-166007200D01*
D10*
D11*
X10000000Y-10000000D02*
X10000000Y-200007200D01*
X287002200Y-200007200D01*
X287002200Y-10000000D01*
X10000000Y-10000000D01*
D10*
D11*
X12000000Y-12000000D02*
X12000000Y-198007200D01*
X285002200Y-198007200D01*
X285002200Y-12000000D01*
X12000000Y-12000000D01*
D10*
D11*
X60000000Y-12000000D02*
X60000000Y-10000000D01*
D10*
D11*
X110000000Y-12000000D02*
X110000000Y-10000000D01*
D10*
D11*
X160000000Y-12000000D02*
X160000000Y-10000000D01*
D10*
D11*
X210000000Y-12000000D02*
X210000000Y-10000000D01*
D10*
D11*
X260000000Y-12000000D02*
X260000000Y-10000000D01*
D10*
D11*
X36065476Y-11588095D02*
X35322619Y-11588095D01*
X35694047Y-11588095D02*
X35694047Y-10288095D01*
X35570238Y-10473809D01*
X35446428Y-10597619D01*
X35322619Y-10659523D01*
D10*
D11*
X85322619Y-10411904D02*
X85384523Y-10350000D01*
X85508333Y-10288095D01*
X85817857Y-10288095D01*
X85941666Y-10350000D01*
X86003571Y-10411904D01*
X86065476Y-10535714D01*
X86065476Y-10659523D01*
X86003571Y-10845238D01*
X85260714Y-11588095D01*
X86065476Y-11588095D01*
D10*
D11*
X135260714Y-10288095D02*
X136065476Y-10288095D01*
X135632142Y-10783333D01*
X135817857Y-10783333D01*
X135941666Y-10845238D01*
X136003571Y-10907142D01*
X136065476Y-11030952D01*
X136065476Y-11340476D01*
X136003571Y-11464285D01*
X135941666Y-11526190D01*
X135817857Y-11588095D01*
X135446428Y-11588095D01*
X135322619Y-11526190D01*
X135260714Y-11464285D01*
D10*
D11*
X185941666Y-10721428D02*
X185941666Y-11588095D01*
X185632142Y-10226190D02*
X185322619Y-11154761D01*
X186127380Y-11154761D01*
D10*
D11*
X236003571Y-10288095D02*
X235384523Y-10288095D01*
X235322619Y-10907142D01*
X235384523Y-10845238D01*
X235508333Y-10783333D01*
X235817857Y-10783333D01*
X235941666Y-10845238D01*
X236003571Y-10907142D01*
X236065476Y-11030952D01*
X236065476Y-11340476D01*
X236003571Y-11464285D01*
X235941666Y-11526190D01*
X235817857Y-11588095D01*
X235508333Y-11588095D01*
X235384523Y-11526190D01*
X235322619Y-11464285D01*
D10*
D11*
X285941666Y-10288095D02*
X285694047Y-10288095D01*
X285570238Y-10350000D01*
X285508333Y-10411904D01*
X285384523Y-10597619D01*
X285322619Y-10845238D01*
X285322619Y-11340476D01*
X285384523Y-11464285D01*
X285446428Y-11526190D01*
X285570238Y-11588095D01*
X285817857Y-11588095D01*
X285941666Y-11526190D01*
X286003571Y-11464285D01*
X286065476Y-11340476D01*
X286065476Y-11030952D01*
X286003571Y-10907142D01*
X285941666Y-10845238D01*
X285817857Y-10783333D01*
X285570238Y-10783333D01*
X285446428Y-10845238D01*
X285384523Y-10907142D01*
X285322619Y-11030952D01*
D10*
D11*
X60000000Y-198007200D02*
X60000000Y-200007200D01*
D10*
D11*
X110000000Y-198007200D02*
X110000000Y-200007200D01*
D10*
D11*
X160000000Y-198007200D02*
X160000000Y-200007200D01*
D10*
D11*
X210000000Y-198007200D02*
X210000000Y-200007200D01*
D10*
D11*
X260000000Y-198007200D02*
X260000000Y-200007200D01*
D10*
D11*
X36065476Y-199595295D02*
X35322619Y-199595295D01*
X35694047Y-199595295D02*
X35694047Y-198295295D01*
X35570238Y-198481009D01*
X35446428Y-198604819D01*
X35322619Y-198666723D01*
D10*
D11*
X85322619Y-198419104D02*
X85384523Y-198357200D01*
X85508333Y-198295295D01*
X85817857Y-198295295D01*
X85941666Y-198357200D01*
X86003571Y-198419104D01*
X86065476Y-198542914D01*
X86065476Y-198666723D01*
X86003571Y-198852438D01*
X85260714Y-199595295D01*
X86065476Y-199595295D01*
D10*
D11*
X135260714Y-198295295D02*
X136065476Y-198295295D01*
X135632142Y-198790533D01*
X135817857Y-198790533D01*
X135941666Y-198852438D01*
X136003571Y-198914342D01*
X136065476Y-199038152D01*
X136065476Y-199347676D01*
X136003571Y-199471485D01*
X135941666Y-199533390D01*
X135817857Y-199595295D01*
X135446428Y-199595295D01*
X135322619Y-199533390D01*
X135260714Y-199471485D01*
D10*
D11*
X185941666Y-198728628D02*
X185941666Y-199595295D01*
X185632142Y-198233390D02*
X185322619Y-199161961D01*
X186127380Y-199161961D01*
D10*
D11*
X236003571Y-198295295D02*
X235384523Y-198295295D01*
X235322619Y-198914342D01*
X235384523Y-198852438D01*
X235508333Y-198790533D01*
X235817857Y-198790533D01*
X235941666Y-198852438D01*
X236003571Y-198914342D01*
X236065476Y-199038152D01*
X236065476Y-199347676D01*
X236003571Y-199471485D01*
X235941666Y-199533390D01*
X235817857Y-199595295D01*
X235508333Y-199595295D01*
X235384523Y-199533390D01*
X235322619Y-199471485D01*
D10*
D11*
X285941666Y-198295295D02*
X285694047Y-198295295D01*
X285570238Y-198357200D01*
X285508333Y-198419104D01*
X285384523Y-198604819D01*
X285322619Y-198852438D01*
X285322619Y-199347676D01*
X285384523Y-199471485D01*
X285446428Y-199533390D01*
X285570238Y-199595295D01*
X285817857Y-199595295D01*
X285941666Y-199533390D01*
X286003571Y-199471485D01*
X286065476Y-199347676D01*
X286065476Y-199038152D01*
X286003571Y-198914342D01*
X285941666Y-198852438D01*
X285817857Y-198790533D01*
X285570238Y-198790533D01*
X285446428Y-198852438D01*
X285384523Y-198914342D01*
X285322619Y-199038152D01*
D10*
D11*
X10000000Y-60000000D02*
X12000000Y-60000000D01*
D10*
D11*
X10000000Y-110000000D02*
X12000000Y-110000000D01*
D10*
D11*
X10000000Y-160000000D02*
X12000000Y-160000000D01*
D10*
D11*
X10690476Y-35216666D02*
X11309523Y-35216666D01*
X10566666Y-35588095D02*
X11000000Y-34288095D01*
X11433333Y-35588095D01*
D10*
D11*
X11092857Y-84907142D02*
X11278571Y-84969047D01*
X11340476Y-85030952D01*
X11402380Y-85154761D01*
X11402380Y-85340476D01*
X11340476Y-85464285D01*
X11278571Y-85526190D01*
X11154761Y-85588095D01*
X10659523Y-85588095D01*
X10659523Y-84288095D01*
X11092857Y-84288095D01*
X11216666Y-84350000D01*
X11278571Y-84411904D01*
X11340476Y-84535714D01*
X11340476Y-84659523D01*
X11278571Y-84783333D01*
X11216666Y-84845238D01*
X11092857Y-84907142D01*
X10659523Y-84907142D01*
D10*
D11*
X11402380Y-135464285D02*
X11340476Y-135526190D01*
X11154761Y-135588095D01*
X11030952Y-135588095D01*
X10845238Y-135526190D01*
X10721428Y-135402380D01*
X10659523Y-135278571D01*
X10597619Y-135030952D01*
X10597619Y-134845238D01*
X10659523Y-134597619D01*
X10721428Y-134473809D01*
X10845238Y-134350000D01*
X11030952Y-134288095D01*
X11154761Y-134288095D01*
X11340476Y-134350000D01*
X11402380Y-134411904D01*
D10*
D11*
X10659523Y-185588095D02*
X10659523Y-184288095D01*
X10969047Y-184288095D01*
X11154761Y-184350000D01*
X11278571Y-184473809D01*
X11340476Y-184597619D01*
X11402380Y-184845238D01*
X11402380Y-185030952D01*
X11340476Y-185278571D01*
X11278571Y-185402380D01*
X11154761Y-185526190D01*
X10969047Y-185588095D01*
X10659523Y-185588095D01*
D10*
D11*
X287002200Y-60000000D02*
X285002200Y-60000000D01*
D10*
D11*
X287002200Y-110000000D02*
X285002200Y-110000000D01*
D10*
D11*
X287002200Y-160000000D02*
X285002200Y-160000000D01*
D10*
D11*
X285692676Y-35216666D02*
X286311723Y-35216666D01*
X285568866Y-35588095D02*
X286002200Y-34288095D01*
X286435533Y-35588095D01*
D10*
D11*
X286095057Y-84907142D02*
X286280771Y-84969047D01*
X286342676Y-85030952D01*
X286404580Y-85154761D01*
X286404580Y-85340476D01*
X286342676Y-85464285D01*
X286280771Y-85526190D01*
X286156961Y-85588095D01*
X285661723Y-85588095D01*
X285661723Y-84288095D01*
X286095057Y-84288095D01*
X286218866Y-84350000D01*
X286280771Y-84411904D01*
X286342676Y-84535714D01*
X286342676Y-84659523D01*
X286280771Y-84783333D01*
X286218866Y-84845238D01*
X286095057Y-84907142D01*
X285661723Y-84907142D01*
D10*
D11*
X286404580Y-135464285D02*
X286342676Y-135526190D01*
X286156961Y-135588095D01*
X286033152Y-135588095D01*
X285847438Y-135526190D01*
X285723628Y-135402380D01*
X285661723Y-135278571D01*
X285599819Y-135030952D01*
X285599819Y-134845238D01*
X285661723Y-134597619D01*
X285723628Y-134473809D01*
X285847438Y-134350000D01*
X286033152Y-134288095D01*
X286156961Y-134288095D01*
X286342676Y-134350000D01*
X286404580Y-134411904D01*
D10*
D11*
X285661723Y-185588095D02*
X285661723Y-184288095D01*
X285971247Y-184288095D01*
X286156961Y-184350000D01*
X286280771Y-184473809D01*
X286342676Y-184597619D01*
X286404580Y-184845238D01*
X286404580Y-185030952D01*
X286342676Y-185278571D01*
X286280771Y-185402380D01*
X286156961Y-185526190D01*
X285971247Y-185588095D01*
X285661723Y-185588095D01*
D10*
D11*
X200434342Y-193785771D02*
X200434342Y-192285771D01*
X200791485Y-192285771D01*
X201005771Y-192357200D01*
X201148628Y-192500057D01*
X201220057Y-192642914D01*
X201291485Y-192928628D01*
X201291485Y-193142914D01*
X201220057Y-193428628D01*
X201148628Y-193571485D01*
X201005771Y-193714342D01*
X200791485Y-193785771D01*
X200434342Y-193785771D01*
X202577200Y-193785771D02*
X202577200Y-193000057D01*
X202505771Y-192857200D01*
X202362914Y-192785771D01*
X202077200Y-192785771D01*
X201934342Y-192857200D01*
X202577200Y-193714342D02*
X202434342Y-193785771D01*
X202077200Y-193785771D01*
X201934342Y-193714342D01*
X201862914Y-193571485D01*
X201862914Y-193428628D01*
X201934342Y-193285771D01*
X202077200Y-193214342D01*
X202434342Y-193214342D01*
X202577200Y-193142914D01*
X203077200Y-192785771D02*
X203648628Y-192785771D01*
X203291485Y-192285771D02*
X203291485Y-193571485D01*
X203362914Y-193714342D01*
X203505771Y-193785771D01*
X203648628Y-193785771D01*
X204720057Y-193714342D02*
X204577200Y-193785771D01*
X204291485Y-193785771D01*
X204148628Y-193714342D01*
X204077200Y-193571485D01*
X204077200Y-193000057D01*
X204148628Y-192857200D01*
X204291485Y-192785771D01*
X204577200Y-192785771D01*
X204720057Y-192857200D01*
X204791485Y-193000057D01*
X204791485Y-193142914D01*
X204077200Y-193285771D01*
X205434342Y-193642914D02*
X205505771Y-193714342D01*
X205434342Y-193785771D01*
X205362914Y-193714342D01*
X205434342Y-193642914D01*
X205434342Y-193785771D01*
X205434342Y-192857200D02*
X205505771Y-192928628D01*
X205434342Y-193000057D01*
X205362914Y-192928628D01*
X205434342Y-192857200D01*
X205434342Y-193000057D01*
X207220057Y-192428628D02*
X207291485Y-192357200D01*
X207434342Y-192285771D01*
X207791485Y-192285771D01*
X207934342Y-192357200D01*
X208005771Y-192428628D01*
X208077200Y-192571485D01*
X208077200Y-192714342D01*
X208005771Y-192928628D01*
X207148628Y-193785771D01*
X208077200Y-193785771D01*
X209005771Y-192285771D02*
X209148628Y-192285771D01*
X209291485Y-192357200D01*
X209362914Y-192428628D01*
X209434342Y-192571485D01*
X209505771Y-192857200D01*
X209505771Y-193214342D01*
X209434342Y-193500057D01*
X209362914Y-193642914D01*
X209291485Y-193714342D01*
X209148628Y-193785771D01*
X209005771Y-193785771D01*
X208862914Y-193714342D01*
X208791485Y-193642914D01*
X208720057Y-193500057D01*
X208648628Y-193214342D01*
X208648628Y-192857200D01*
X208720057Y-192571485D01*
X208791485Y-192428628D01*
X208862914Y-192357200D01*
X209005771Y-192285771D01*
X210077200Y-192428628D02*
X210148628Y-192357200D01*
X210291485Y-192285771D01*
X210648628Y-192285771D01*
X210791485Y-192357200D01*
X210862914Y-192428628D01*
X210934342Y-192571485D01*
X210934342Y-192714342D01*
X210862914Y-192928628D01*
X210005771Y-193785771D01*
X210934342Y-193785771D01*
X211862914Y-192285771D02*
X212005771Y-192285771D01*
X212148628Y-192357200D01*
X212220057Y-192428628D01*
X212291485Y-192571485D01*
X212362914Y-192857200D01*
X212362914Y-193214342D01*
X212291485Y-193500057D01*
X212220057Y-193642914D01*
X212148628Y-193714342D01*
X212005771Y-193785771D01*
X211862914Y-193785771D01*
X211720057Y-193714342D01*
X211648628Y-193642914D01*
X211577200Y-193500057D01*
X211505771Y-193214342D01*
X211505771Y-192857200D01*
X211577200Y-192571485D01*
X211648628Y-192428628D01*
X211720057Y-192357200D01*
X211862914Y-192285771D01*
X213005771Y-193214342D02*
X214148628Y-193214342D01*
X215148628Y-192285771D02*
X215291485Y-192285771D01*
X215434342Y-192357200D01*
X215505771Y-192428628D01*
X215577200Y-192571485D01*
X215648628Y-192857200D01*
X215648628Y-193214342D01*
X215577200Y-193500057D01*
X215505771Y-193642914D01*
X215434342Y-193714342D01*
X215291485Y-193785771D01*
X215148628Y-193785771D01*
X215005771Y-193714342D01*
X214934342Y-193642914D01*
X214862914Y-193500057D01*
X214791485Y-193214342D01*
X214791485Y-192857200D01*
X214862914Y-192571485D01*
X214934342Y-192428628D01*
X215005771Y-192357200D01*
X215148628Y-192285771D01*
X216934342Y-192285771D02*
X216648628Y-192285771D01*
X216505771Y-192357200D01*
X216434342Y-192428628D01*
X216291485Y-192642914D01*
X216220057Y-192928628D01*
X216220057Y-193500057D01*
X216291485Y-193642914D01*
X216362914Y-193714342D01*
X216505771Y-193785771D01*
X216791485Y-193785771D01*
X216934342Y-193714342D01*
X217005771Y-193642914D01*
X217077200Y-193500057D01*
X217077200Y-193142914D01*
X217005771Y-193000057D01*
X216934342Y-192928628D01*
X216791485Y-192857200D01*
X216505771Y-192857200D01*
X216362914Y-192928628D01*
X216291485Y-193000057D01*
X216220057Y-193142914D01*
X217720057Y-193214342D02*
X218862914Y-193214342D01*
X219862914Y-192285771D02*
X220005771Y-192285771D01*
X220148628Y-192357200D01*
X220220057Y-192428628D01*
X220291485Y-192571485D01*
X220362914Y-192857200D01*
X220362914Y-193214342D01*
X220291485Y-193500057D01*
X220220057Y-193642914D01*
X220148628Y-193714342D01*
X220005771Y-193785771D01*
X219862914Y-193785771D01*
X219720057Y-193714342D01*
X219648628Y-193642914D01*
X219577200Y-193500057D01*
X219505771Y-193214342D01*
X219505771Y-192857200D01*
X219577200Y-192571485D01*
X219648628Y-192428628D01*
X219720057Y-192357200D01*
X219862914Y-192285771D01*
X221648628Y-192785771D02*
X221648628Y-193785771D01*
X221291485Y-192214342D02*
X220934342Y-193285771D01*
X221862914Y-193285771D01*
D10*
D11*
X177002200Y-194507200D02*
X285002200Y-194507200D01*
D10*
D11*
X178434342Y-196585771D02*
X178434342Y-195085771D01*
X179291485Y-196585771D02*
X178648628Y-195728628D01*
X179291485Y-195085771D02*
X178434342Y-195942914D01*
X179934342Y-196585771D02*
X179934342Y-195585771D01*
X179934342Y-195085771D02*
X179862914Y-195157200D01*
X179934342Y-195228628D01*
X180005771Y-195157200D01*
X179934342Y-195085771D01*
X179934342Y-195228628D01*
X181505771Y-196442914D02*
X181434342Y-196514342D01*
X181220057Y-196585771D01*
X181077200Y-196585771D01*
X180862914Y-196514342D01*
X180720057Y-196371485D01*
X180648628Y-196228628D01*
X180577200Y-195942914D01*
X180577200Y-195728628D01*
X180648628Y-195442914D01*
X180720057Y-195300057D01*
X180862914Y-195157200D01*
X181077200Y-195085771D01*
X181220057Y-195085771D01*
X181434342Y-195157200D01*
X181505771Y-195228628D01*
X182791485Y-196585771D02*
X182791485Y-195800057D01*
X182720057Y-195657200D01*
X182577200Y-195585771D01*
X182291485Y-195585771D01*
X182148628Y-195657200D01*
X182791485Y-196514342D02*
X182648628Y-196585771D01*
X182291485Y-196585771D01*
X182148628Y-196514342D01*
X182077200Y-196371485D01*
X182077200Y-196228628D01*
X182148628Y-196085771D01*
X182291485Y-196014342D01*
X182648628Y-196014342D01*
X182791485Y-195942914D01*
X184148628Y-196585771D02*
X184148628Y-195085771D01*
X184148628Y-196514342D02*
X184005771Y-196585771D01*
X183720057Y-196585771D01*
X183577200Y-196514342D01*
X183505771Y-196442914D01*
X183434342Y-196300057D01*
X183434342Y-195871485D01*
X183505771Y-195728628D01*
X183577200Y-195657200D01*
X183720057Y-195585771D01*
X184005771Y-195585771D01*
X184148628Y-195657200D01*
X186005771Y-195800057D02*
X186505771Y-195800057D01*
X186720057Y-196585771D02*
X186005771Y-196585771D01*
X186005771Y-195085771D01*
X186720057Y-195085771D01*
X187362914Y-196442914D02*
X187434342Y-196514342D01*
X187362914Y-196585771D01*
X187291485Y-196514342D01*
X187362914Y-196442914D01*
X187362914Y-196585771D01*
X188077200Y-196585771D02*
X188077200Y-195085771D01*
X188434342Y-195085771D01*
X188648628Y-195157200D01*
X188791485Y-195300057D01*
X188862914Y-195442914D01*
X188934342Y-195728628D01*
X188934342Y-195942914D01*
X188862914Y-196228628D01*
X188791485Y-196371485D01*
X188648628Y-196514342D01*
X188434342Y-196585771D01*
X188077200Y-196585771D01*
X189577200Y-196442914D02*
X189648628Y-196514342D01*
X189577200Y-196585771D01*
X189505771Y-196514342D01*
X189577200Y-196442914D01*
X189577200Y-196585771D01*
X190220057Y-196157200D02*
X190934342Y-196157200D01*
X190077200Y-196585771D02*
X190577200Y-195085771D01*
X191077200Y-196585771D01*
X191577200Y-196442914D02*
X191648628Y-196514342D01*
X191577200Y-196585771D01*
X191505771Y-196514342D01*
X191577200Y-196442914D01*
X191577200Y-196585771D01*
X194577200Y-196585771D02*
X194577200Y-195085771D01*
X194720057Y-196014342D02*
X195148628Y-196585771D01*
X195148628Y-195585771D02*
X194577200Y-196157200D01*
X195791485Y-196585771D02*
X195791485Y-195585771D01*
X195791485Y-195085771D02*
X195720057Y-195157200D01*
X195791485Y-195228628D01*
X195862914Y-195157200D01*
X195791485Y-195085771D01*
X195791485Y-195228628D01*
X197148628Y-196514342D02*
X197005771Y-196585771D01*
X196720057Y-196585771D01*
X196577200Y-196514342D01*
X196505771Y-196442914D01*
X196434342Y-196300057D01*
X196434342Y-195871485D01*
X196505771Y-195728628D01*
X196577200Y-195657200D01*
X196720057Y-195585771D01*
X197005771Y-195585771D01*
X197148628Y-195657200D01*
X198434342Y-196585771D02*
X198434342Y-195800057D01*
X198362914Y-195657200D01*
X198220057Y-195585771D01*
X197934342Y-195585771D01*
X197791485Y-195657200D01*
X198434342Y-196514342D02*
X198291485Y-196585771D01*
X197934342Y-196585771D01*
X197791485Y-196514342D01*
X197720057Y-196371485D01*
X197720057Y-196228628D01*
X197791485Y-196085771D01*
X197934342Y-196014342D01*
X198291485Y-196014342D01*
X198434342Y-195942914D01*
X199791485Y-196585771D02*
X199791485Y-195085771D01*
X199791485Y-196514342D02*
X199648628Y-196585771D01*
X199362914Y-196585771D01*
X199220057Y-196514342D01*
X199148628Y-196442914D01*
X199077200Y-196300057D01*
X199077200Y-195871485D01*
X199148628Y-195728628D01*
X199220057Y-195657200D01*
X199362914Y-195585771D01*
X199648628Y-195585771D01*
X199791485Y-195657200D01*
X202077200Y-197157200D02*
X202005771Y-197085771D01*
X201862914Y-196871485D01*
X201791485Y-196728628D01*
X201720057Y-196514342D01*
X201648628Y-196157200D01*
X201648628Y-195871485D01*
X201720057Y-195514342D01*
X201791485Y-195300057D01*
X201862914Y-195157200D01*
X202005771Y-194942914D01*
X202077200Y-194871485D01*
X203362914Y-195085771D02*
X202648628Y-195085771D01*
X202577200Y-195800057D01*
X202648628Y-195728628D01*
X202791485Y-195657200D01*
X203148628Y-195657200D01*
X203291485Y-195728628D01*
X203362914Y-195800057D01*
X203434342Y-195942914D01*
X203434342Y-196300057D01*
X203362914Y-196442914D01*
X203291485Y-196514342D01*
X203148628Y-196585771D01*
X202791485Y-196585771D01*
X202648628Y-196514342D01*
X202577200Y-196442914D01*
X204077200Y-196442914D02*
X204148628Y-196514342D01*
X204077200Y-196585771D01*
X204005771Y-196514342D01*
X204077200Y-196442914D01*
X204077200Y-196585771D01*
X205577200Y-196585771D02*
X204720057Y-196585771D01*
X205148628Y-196585771D02*
X205148628Y-195085771D01*
X205005771Y-195300057D01*
X204862914Y-195442914D01*
X204720057Y-195514342D01*
X206220057Y-196442914D02*
X206291485Y-196514342D01*
X206220057Y-196585771D01*
X206148628Y-196514342D01*
X206220057Y-196442914D01*
X206220057Y-196585771D01*
X207648628Y-195085771D02*
X206934342Y-195085771D01*
X206862914Y-195800057D01*
X206934342Y-195728628D01*
X207077200Y-195657200D01*
X207434342Y-195657200D01*
X207577200Y-195728628D01*
X207648628Y-195800057D01*
X207720057Y-195942914D01*
X207720057Y-196300057D01*
X207648628Y-196442914D01*
X207577200Y-196514342D01*
X207434342Y-196585771D01*
X207077200Y-196585771D01*
X206934342Y-196514342D01*
X206862914Y-196442914D01*
X208220057Y-197157200D02*
X208291485Y-197085771D01*
X208434342Y-196871485D01*
X208505771Y-196728628D01*
X208577200Y-196514342D01*
X208648628Y-196157200D01*
X208648628Y-195871485D01*
X208577200Y-195514342D01*
X208505771Y-195300057D01*
X208434342Y-195157200D01*
X208291485Y-194942914D01*
X208220057Y-194871485D01*
X209362914Y-196014342D02*
X210505771Y-196014342D01*
X211077200Y-195085771D02*
X212005771Y-195085771D01*
X211505771Y-195657200D01*
X211720057Y-195657200D01*
X211862914Y-195728628D01*
X211934342Y-195800057D01*
X212005771Y-195942914D01*
X212005771Y-196300057D01*
X211934342Y-196442914D01*
X211862914Y-196514342D01*
X211720057Y-196585771D01*
X211291485Y-196585771D01*
X211148628Y-196514342D01*
X211077200Y-196442914D01*
D10*
D11*
X177002200Y-191507200D02*
X285002200Y-191507200D01*
D10*
D12*
X264411485Y-193785771D02*
X263911485Y-193071485D01*
X263554342Y-193785771D02*
X263554342Y-192285771D01*
X264125771Y-192285771D01*
X264268628Y-192357200D01*
X264340057Y-192428628D01*
X264411485Y-192571485D01*
X264411485Y-192785771D01*
X264340057Y-192928628D01*
X264268628Y-193000057D01*
X264125771Y-193071485D01*
X263554342Y-193071485D01*
X265625771Y-193714342D02*
X265482914Y-193785771D01*
X265197200Y-193785771D01*
X265054342Y-193714342D01*
X264982914Y-193571485D01*
X264982914Y-193000057D01*
X265054342Y-192857200D01*
X265197200Y-192785771D01*
X265482914Y-192785771D01*
X265625771Y-192857200D01*
X265697200Y-193000057D01*
X265697200Y-193142914D01*
X264982914Y-193285771D01*
X266197200Y-192785771D02*
X266554342Y-193785771D01*
X266911485Y-192785771D01*
X267482914Y-193642914D02*
X267554342Y-193714342D01*
X267482914Y-193785771D01*
X267411485Y-193714342D01*
X267482914Y-193642914D01*
X267482914Y-193785771D01*
X267482914Y-192857200D02*
X267554342Y-192928628D01*
X267482914Y-193000057D01*
X267411485Y-192928628D01*
X267482914Y-192857200D01*
X267482914Y-193000057D01*
X269197200Y-192785771D02*
X269554342Y-193785771D01*
X269911485Y-192785771D01*
X271268628Y-193785771D02*
X270411485Y-193785771D01*
X270840057Y-193785771D02*
X270840057Y-192285771D01*
X270697200Y-192500057D01*
X270554342Y-192642914D01*
X270411485Y-192714342D01*
X271911485Y-193642914D02*
X271982914Y-193714342D01*
X271911485Y-193785771D01*
X271840057Y-193714342D01*
X271911485Y-193642914D01*
X271911485Y-193785771D01*
X272911485Y-192285771D02*
X273054342Y-192285771D01*
X273197200Y-192357200D01*
X273268628Y-192428628D01*
X273340057Y-192571485D01*
X273411485Y-192857200D01*
X273411485Y-193214342D01*
X273340057Y-193500057D01*
X273268628Y-193642914D01*
X273197200Y-193714342D01*
X273054342Y-193785771D01*
X272911485Y-193785771D01*
X272768628Y-193714342D01*
X272697200Y-193642914D01*
X272625771Y-193500057D01*
X272554342Y-193214342D01*
X272554342Y-192857200D01*
X272625771Y-192571485D01*
X272697200Y-192428628D01*
X272768628Y-192357200D01*
X272911485Y-192285771D01*
D10*
D11*
X178362914Y-193714342D02*
X178577200Y-193785771D01*
X178934342Y-193785771D01*
X179077200Y-193714342D01*
X179148628Y-193642914D01*
X179220057Y-193500057D01*
X179220057Y-193357200D01*
X179148628Y-193214342D01*
X179077200Y-193142914D01*
X178934342Y-193071485D01*
X178648628Y-193000057D01*
X178505771Y-192928628D01*
X178434342Y-192857200D01*
X178362914Y-192714342D01*
X178362914Y-192571485D01*
X178434342Y-192428628D01*
X178505771Y-192357200D01*
X178648628Y-192285771D01*
X179005771Y-192285771D01*
X179220057Y-192357200D01*
X179862914Y-193785771D02*
X179862914Y-192785771D01*
X179862914Y-192285771D02*
X179791485Y-192357200D01*
X179862914Y-192428628D01*
X179934342Y-192357200D01*
X179862914Y-192285771D01*
X179862914Y-192428628D01*
X180434342Y-192785771D02*
X181220057Y-192785771D01*
X180434342Y-193785771D01*
X181220057Y-193785771D01*
X182362914Y-193714342D02*
X182220057Y-193785771D01*
X181934342Y-193785771D01*
X181791485Y-193714342D01*
X181720057Y-193571485D01*
X181720057Y-193000057D01*
X181791485Y-192857200D01*
X181934342Y-192785771D01*
X182220057Y-192785771D01*
X182362914Y-192857200D01*
X182434342Y-193000057D01*
X182434342Y-193142914D01*
X181720057Y-193285771D01*
X183077200Y-193642914D02*
X183148628Y-193714342D01*
X183077200Y-193785771D01*
X183005771Y-193714342D01*
X183077200Y-193642914D01*
X183077200Y-193785771D01*
X183077200Y-192857200D02*
X183148628Y-192928628D01*
X183077200Y-193000057D01*
X183005771Y-192928628D01*
X183077200Y-192857200D01*
X183077200Y-193000057D01*
X184862914Y-193357200D02*
X185577200Y-193357200D01*
X184720057Y-193785771D02*
X185220057Y-192285771D01*
X185720057Y-193785771D01*
X186862914Y-192785771D02*
X186862914Y-193785771D01*
X186505771Y-192214342D02*
X186148628Y-193285771D01*
X187077200Y-193285771D01*
D10*
D11*
X263434342Y-196585771D02*
X263434342Y-195085771D01*
X264791485Y-196585771D02*
X264791485Y-195085771D01*
X264791485Y-196514342D02*
X264648628Y-196585771D01*
X264362914Y-196585771D01*
X264220057Y-196514342D01*
X264148628Y-196442914D01*
X264077200Y-196300057D01*
X264077200Y-195871485D01*
X264148628Y-195728628D01*
X264220057Y-195657200D01*
X264362914Y-195585771D01*
X264648628Y-195585771D01*
X264791485Y-195657200D01*
X265505771Y-196442914D02*
X265577200Y-196514342D01*
X265505771Y-196585771D01*
X265434342Y-196514342D01*
X265505771Y-196442914D01*
X265505771Y-196585771D01*
X265505771Y-195657200D02*
X265577200Y-195728628D01*
X265505771Y-195800057D01*
X265434342Y-195728628D01*
X265505771Y-195657200D01*
X265505771Y-195800057D01*
X268148628Y-196585771D02*
X267291485Y-196585771D01*
X267720057Y-196585771D02*
X267720057Y-195085771D01*
X267577200Y-195300057D01*
X267434342Y-195442914D01*
X267291485Y-195514342D01*
X269862914Y-195014342D02*
X268577200Y-196942914D01*
X271148628Y-196585771D02*
X270291485Y-196585771D01*
X270720057Y-196585771D02*
X270720057Y-195085771D01*
X270577200Y-195300057D01*
X270434342Y-195442914D01*
X270291485Y-195514342D01*
D10*
D11*
X177002200Y-187507200D02*
X285002200Y-187507200D01*
D10*
D13*
X178714580Y-188211961D02*
X179857438Y-188211961D01*
X179036009Y-190211961D02*
X179286009Y-188211961D01*
X180274104Y-190211961D02*
X180440771Y-188878628D01*
X180524104Y-188211961D02*
X180416961Y-188307200D01*
X180500295Y-188402438D01*
X180607438Y-188307200D01*
X180524104Y-188211961D01*
X180500295Y-188402438D01*
X181107438Y-188878628D02*
X181869342Y-188878628D01*
X181476485Y-188211961D02*
X181262200Y-189926247D01*
X181333628Y-190116723D01*
X181512200Y-190211961D01*
X181702676Y-190211961D01*
X182655057Y-190211961D02*
X182476485Y-190116723D01*
X182405057Y-189926247D01*
X182619342Y-188211961D01*
X184190771Y-190116723D02*
X183988390Y-190211961D01*
X183607438Y-190211961D01*
X183428866Y-190116723D01*
X183357438Y-189926247D01*
X183452676Y-189164342D01*
X183571723Y-188973866D01*
X183774104Y-188878628D01*
X184155057Y-188878628D01*
X184333628Y-188973866D01*
X184405057Y-189164342D01*
X184381247Y-189354819D01*
X183405057Y-189545295D01*
X185155057Y-190021485D02*
X185238390Y-190116723D01*
X185131247Y-190211961D01*
X185047914Y-190116723D01*
X185155057Y-190021485D01*
X185131247Y-190211961D01*
X185286009Y-188973866D02*
X185369342Y-189069104D01*
X185262200Y-189164342D01*
X185178866Y-189069104D01*
X185286009Y-188973866D01*
X185262200Y-189164342D01*
X187524104Y-190116723D02*
X187797914Y-190211961D01*
X188274104Y-190211961D01*
X188476485Y-190116723D01*
X188583628Y-190021485D01*
X188702676Y-189831009D01*
X188726485Y-189640533D01*
X188655057Y-189450057D01*
X188571723Y-189354819D01*
X188393152Y-189259580D01*
X188024104Y-189164342D01*
X187845533Y-189069104D01*
X187762200Y-188973866D01*
X187690771Y-188783390D01*
X187714580Y-188592914D01*
X187833628Y-188402438D01*
X187940771Y-188307200D01*
X188143152Y-188211961D01*
X188619342Y-188211961D01*
X188893152Y-188307200D01*
X190012200Y-189259580D02*
X189893152Y-190211961D01*
X189476485Y-188211961D02*
X190012200Y-189259580D01*
X190809819Y-188211961D01*
X191143152Y-190116723D02*
X191416961Y-190211961D01*
X191893152Y-190211961D01*
X192095533Y-190116723D01*
X192202676Y-190021485D01*
X192321723Y-189831009D01*
X192345533Y-189640533D01*
X192274104Y-189450057D01*
X192190771Y-189354819D01*
X192012200Y-189259580D01*
X191643152Y-189164342D01*
X191464580Y-189069104D01*
X191381247Y-188973866D01*
X191309819Y-188783390D01*
X191333628Y-188592914D01*
X191452676Y-188402438D01*
X191559819Y-188307200D01*
X191762200Y-188211961D01*
X192238390Y-188211961D01*
X192512200Y-188307200D01*
X194750295Y-189450057D02*
X196274104Y-189450057D01*
X198571723Y-190116723D02*
X198845533Y-190211961D01*
X199321723Y-190211961D01*
X199524104Y-190116723D01*
X199631247Y-190021485D01*
X199750295Y-189831009D01*
X199774104Y-189640533D01*
X199702676Y-189450057D01*
X199619342Y-189354819D01*
X199440771Y-189259580D01*
X199071723Y-189164342D01*
X198893152Y-189069104D01*
X198809819Y-188973866D01*
X198738390Y-188783390D01*
X198762200Y-188592914D01*
X198881247Y-188402438D01*
X198988390Y-188307200D01*
X199190771Y-188211961D01*
X199666961Y-188211961D01*
X199940771Y-188307200D01*
X200440771Y-188878628D02*
X201202676Y-188878628D01*
X200809819Y-188211961D02*
X200595533Y-189926247D01*
X200666961Y-190116723D01*
X200845533Y-190211961D01*
X201036009Y-190211961D01*
X202476485Y-190116723D02*
X202274104Y-190211961D01*
X201893152Y-190211961D01*
X201714580Y-190116723D01*
X201643152Y-189926247D01*
X201738390Y-189164342D01*
X201857438Y-188973866D01*
X202059819Y-188878628D01*
X202440771Y-188878628D01*
X202619342Y-188973866D01*
X202690771Y-189164342D01*
X202666961Y-189354819D01*
X201690771Y-189545295D01*
X203583628Y-188878628D02*
X203333628Y-190878628D01*
X203571723Y-188973866D02*
X203774104Y-188878628D01*
X204155057Y-188878628D01*
X204333628Y-188973866D01*
X204416961Y-189069104D01*
X204488390Y-189259580D01*
X204416961Y-189831009D01*
X204297914Y-190021485D01*
X204190771Y-190116723D01*
X203988390Y-190211961D01*
X203607438Y-190211961D01*
X203428866Y-190116723D01*
X206726485Y-189640533D02*
X207678866Y-189640533D01*
X206464580Y-190211961D02*
X207381247Y-188211961D01*
X207797914Y-190211961D01*
X208345533Y-188878628D02*
X209107438Y-188878628D01*
X208714580Y-188211961D02*
X208500295Y-189926247D01*
X208571723Y-190116723D01*
X208750295Y-190211961D01*
X208940771Y-190211961D01*
X209488390Y-188878628D02*
X210250295Y-188878628D01*
X209857438Y-188211961D02*
X209643152Y-189926247D01*
X209714580Y-190116723D01*
X209893152Y-190211961D01*
X210083628Y-190211961D01*
X211524104Y-190116723D02*
X211321723Y-190211961D01*
X210940771Y-190211961D01*
X210762200Y-190116723D01*
X210690771Y-189926247D01*
X210786009Y-189164342D01*
X210905057Y-188973866D01*
X211107438Y-188878628D01*
X211488390Y-188878628D01*
X211666961Y-188973866D01*
X211738390Y-189164342D01*
X211714580Y-189354819D01*
X210738390Y-189545295D01*
X212631247Y-188878628D02*
X212464580Y-190211961D01*
X212607438Y-189069104D02*
X212714580Y-188973866D01*
X212916961Y-188878628D01*
X213202676Y-188878628D01*
X213381247Y-188973866D01*
X213452676Y-189164342D01*
X213321723Y-190211961D01*
X215297914Y-188878628D02*
X215131247Y-190211961D01*
X214440771Y-188878628D02*
X214309819Y-189926247D01*
X214381247Y-190116723D01*
X214559819Y-190211961D01*
X214845533Y-190211961D01*
X215047914Y-190116723D01*
X215155057Y-190021485D01*
X216940771Y-190211961D02*
X217071723Y-189164342D01*
X217000295Y-188973866D01*
X216821723Y-188878628D01*
X216440771Y-188878628D01*
X216238390Y-188973866D01*
X216952676Y-190116723D02*
X216750295Y-190211961D01*
X216274104Y-190211961D01*
X216095533Y-190116723D01*
X216024104Y-189926247D01*
X216047914Y-189735771D01*
X216166961Y-189545295D01*
X216369342Y-189450057D01*
X216845533Y-189450057D01*
X217047914Y-189354819D01*
X217774104Y-188878628D02*
X218536009Y-188878628D01*
X218143152Y-188211961D02*
X217928866Y-189926247D01*
X218000295Y-190116723D01*
X218178866Y-190211961D01*
X218369342Y-190211961D01*
X219321723Y-190211961D02*
X219143152Y-190116723D01*
X219059819Y-190021485D01*
X218988390Y-189831009D01*
X219059819Y-189259580D01*
X219178866Y-189069104D01*
X219286009Y-188973866D01*
X219488390Y-188878628D01*
X219774104Y-188878628D01*
X219952676Y-188973866D01*
X220036009Y-189069104D01*
X220107438Y-189259580D01*
X220036009Y-189831009D01*
X219916961Y-190021485D01*
X219809819Y-190116723D01*
X219607438Y-190211961D01*
X219321723Y-190211961D01*
X220845533Y-190211961D02*
X221012199Y-188878628D01*
X220964580Y-189259580D02*
X221083628Y-189069104D01*
X221190771Y-188973866D01*
X221393152Y-188878628D01*
X221583628Y-188878628D01*
D10*
D11*
X178934342Y-185600057D02*
X178434342Y-185600057D01*
X178434342Y-186385771D02*
X178434342Y-184885771D01*
X179148628Y-184885771D01*
X179720057Y-186385771D02*
X179720057Y-185385771D01*
X179720057Y-184885771D02*
X179648628Y-184957200D01*
X179720057Y-185028628D01*
X179791485Y-184957200D01*
X179720057Y-184885771D01*
X179720057Y-185028628D01*
X180648628Y-186385771D02*
X180505771Y-186314342D01*
X180434342Y-186171485D01*
X180434342Y-184885771D01*
X181791485Y-186314342D02*
X181648628Y-186385771D01*
X181362914Y-186385771D01*
X181220057Y-186314342D01*
X181148628Y-186171485D01*
X181148628Y-185600057D01*
X181220057Y-185457200D01*
X181362914Y-185385771D01*
X181648628Y-185385771D01*
X181791485Y-185457200D01*
X181862914Y-185600057D01*
X181862914Y-185742914D01*
X181148628Y-185885771D01*
X182505771Y-186242914D02*
X182577200Y-186314342D01*
X182505771Y-186385771D01*
X182434342Y-186314342D01*
X182505771Y-186242914D01*
X182505771Y-186385771D01*
X182505771Y-185457200D02*
X182577200Y-185528628D01*
X182505771Y-185600057D01*
X182434342Y-185528628D01*
X182505771Y-185457200D01*
X182505771Y-185600057D01*
X184291485Y-186314342D02*
X184505771Y-186385771D01*
X184862914Y-186385771D01*
X185005771Y-186314342D01*
X185077200Y-186242914D01*
X185148628Y-186100057D01*
X185148628Y-185957200D01*
X185077200Y-185814342D01*
X185005771Y-185742914D01*
X184862914Y-185671485D01*
X184577200Y-185600057D01*
X184434342Y-185528628D01*
X184362914Y-185457200D01*
X184291485Y-185314342D01*
X184291485Y-185171485D01*
X184362914Y-185028628D01*
X184434342Y-184957200D01*
X184577200Y-184885771D01*
X184934342Y-184885771D01*
X185148628Y-184957200D01*
X186077200Y-185671485D02*
X186077200Y-186385771D01*
X185577200Y-184885771D02*
X186077200Y-185671485D01*
X186577200Y-184885771D01*
X187005771Y-186314342D02*
X187220057Y-186385771D01*
X187577200Y-186385771D01*
X187720057Y-186314342D01*
X187791485Y-186242914D01*
X187862914Y-186100057D01*
X187862914Y-185957200D01*
X187791485Y-185814342D01*
X187720057Y-185742914D01*
X187577200Y-185671485D01*
X187291485Y-185600057D01*
X187148628Y-185528628D01*
X187077200Y-185457200D01*
X187005771Y-185314342D01*
X187005771Y-185171485D01*
X187077200Y-185028628D01*
X187148628Y-184957200D01*
X187291485Y-184885771D01*
X187648628Y-184885771D01*
X187862914Y-184957200D01*
X188148628Y-186528628D02*
X189291485Y-186528628D01*
X189577200Y-186314342D02*
X189791485Y-186385771D01*
X190148628Y-186385771D01*
X190291485Y-186314342D01*
X190362914Y-186242914D01*
X190434342Y-186100057D01*
X190434342Y-185957200D01*
X190362914Y-185814342D01*
X190291485Y-185742914D01*
X190148628Y-185671485D01*
X189862914Y-185600057D01*
X189720057Y-185528628D01*
X189648628Y-185457200D01*
X189577200Y-185314342D01*
X189577200Y-185171485D01*
X189648628Y-185028628D01*
X189720057Y-184957200D01*
X189862914Y-184885771D01*
X190220057Y-184885771D01*
X190434342Y-184957200D01*
X190862914Y-185385771D02*
X191434342Y-185385771D01*
X191077200Y-184885771D02*
X191077200Y-186171485D01*
X191148628Y-186314342D01*
X191291485Y-186385771D01*
X191434342Y-186385771D01*
X192505771Y-186314342D02*
X192362914Y-186385771D01*
X192077200Y-186385771D01*
X191934342Y-186314342D01*
X191862914Y-186171485D01*
X191862914Y-185600057D01*
X191934342Y-185457200D01*
X192077200Y-185385771D01*
X192362914Y-185385771D01*
X192505771Y-185457200D01*
X192577200Y-185600057D01*
X192577200Y-185742914D01*
X191862914Y-185885771D01*
X193220057Y-185385771D02*
X193220057Y-186885771D01*
X193220057Y-185457200D02*
X193362914Y-185385771D01*
X193648628Y-185385771D01*
X193791485Y-185457200D01*
X193862914Y-185528628D01*
X193934342Y-185671485D01*
X193934342Y-186100057D01*
X193862914Y-186242914D01*
X193791485Y-186314342D01*
X193648628Y-186385771D01*
X193362914Y-186385771D01*
X193220057Y-186314342D01*
X194505771Y-185957200D02*
X195220057Y-185957200D01*
X194362914Y-186385771D02*
X194862914Y-184885771D01*
X195362914Y-186385771D01*
X195648628Y-185385771D02*
X196220057Y-185385771D01*
X195862914Y-184885771D02*
X195862914Y-186171485D01*
X195934342Y-186314342D01*
X196077200Y-186385771D01*
X196220057Y-186385771D01*
X196505771Y-185385771D02*
X197077200Y-185385771D01*
X196720057Y-184885771D02*
X196720057Y-186171485D01*
X196791485Y-186314342D01*
X196934342Y-186385771D01*
X197077200Y-186385771D01*
X198148628Y-186314342D02*
X198005771Y-186385771D01*
X197720057Y-186385771D01*
X197577200Y-186314342D01*
X197505771Y-186171485D01*
X197505771Y-185600057D01*
X197577200Y-185457200D01*
X197720057Y-185385771D01*
X198005771Y-185385771D01*
X198148628Y-185457200D01*
X198220057Y-185600057D01*
X198220057Y-185742914D01*
X197505771Y-185885771D01*
X198862914Y-185385771D02*
X198862914Y-186385771D01*
X198862914Y-185528628D02*
X198934342Y-185457200D01*
X199077200Y-185385771D01*
X199291485Y-185385771D01*
X199434342Y-185457200D01*
X199505771Y-185600057D01*
X199505771Y-186385771D01*
X200220057Y-186242914D02*
X200291485Y-186314342D01*
X200220057Y-186385771D01*
X200148628Y-186314342D01*
X200220057Y-186242914D01*
X200220057Y-186385771D01*
X200934342Y-186385771D02*
X200934342Y-184885771D01*
X201077200Y-185814342D02*
X201505771Y-186385771D01*
X201505771Y-185385771D02*
X200934342Y-185957200D01*
X202148628Y-186385771D02*
X202148628Y-185385771D01*
X202148628Y-184885771D02*
X202077200Y-184957200D01*
X202148628Y-185028628D01*
X202220057Y-184957200D01*
X202148628Y-184885771D01*
X202148628Y-185028628D01*
X203505771Y-186314342D02*
X203362914Y-186385771D01*
X203077200Y-186385771D01*
X202934342Y-186314342D01*
X202862914Y-186242914D01*
X202791485Y-186100057D01*
X202791485Y-185671485D01*
X202862914Y-185528628D01*
X202934342Y-185457200D01*
X203077200Y-185385771D01*
X203362914Y-185385771D01*
X203505771Y-185457200D01*
X204791485Y-186385771D02*
X204791485Y-185600057D01*
X204720057Y-185457200D01*
X204577200Y-185385771D01*
X204291485Y-185385771D01*
X204148628Y-185457200D01*
X204791485Y-186314342D02*
X204648628Y-186385771D01*
X204291485Y-186385771D01*
X204148628Y-186314342D01*
X204077200Y-186171485D01*
X204077200Y-186028628D01*
X204148628Y-185885771D01*
X204291485Y-185814342D01*
X204648628Y-185814342D01*
X204791485Y-185742914D01*
X206148628Y-186385771D02*
X206148628Y-184885771D01*
X206148628Y-186314342D02*
X206005771Y-186385771D01*
X205720057Y-186385771D01*
X205577200Y-186314342D01*
X205505771Y-186242914D01*
X205434342Y-186100057D01*
X205434342Y-185671485D01*
X205505771Y-185528628D01*
X205577200Y-185457200D01*
X205720057Y-185385771D01*
X206005771Y-185385771D01*
X206148628Y-185457200D01*
X206505771Y-186528628D02*
X207648628Y-186528628D01*
X208005771Y-185385771D02*
X208005771Y-186885771D01*
X208005771Y-185457200D02*
X208148628Y-185385771D01*
X208434342Y-185385771D01*
X208577200Y-185457200D01*
X208648628Y-185528628D01*
X208720057Y-185671485D01*
X208720057Y-186100057D01*
X208648628Y-186242914D01*
X208577200Y-186314342D01*
X208434342Y-186385771D01*
X208148628Y-186385771D01*
X208005771Y-186314342D01*
X210005771Y-186314342D02*
X209862914Y-186385771D01*
X209577200Y-186385771D01*
X209434342Y-186314342D01*
X209362914Y-186242914D01*
X209291485Y-186100057D01*
X209291485Y-185671485D01*
X209362914Y-185528628D01*
X209434342Y-185457200D01*
X209577200Y-185385771D01*
X209862914Y-185385771D01*
X210005771Y-185457200D01*
X210648628Y-186385771D02*
X210648628Y-184885771D01*
X210648628Y-185457200D02*
X210791485Y-185385771D01*
X211077200Y-185385771D01*
X211220057Y-185457200D01*
X211291485Y-185528628D01*
X211362914Y-185671485D01*
X211362914Y-186100057D01*
X211291485Y-186242914D01*
X211220057Y-186314342D01*
X211077200Y-186385771D01*
X210791485Y-186385771D01*
X210648628Y-186314342D01*
D10*
D11*
X177002200Y-181507200D02*
X285002200Y-181507200D01*
D10*
D11*
X178362914Y-183614342D02*
X178577200Y-183685771D01*
X178934342Y-183685771D01*
X179077200Y-183614342D01*
X179148628Y-183542914D01*
X179220057Y-183400057D01*
X179220057Y-183257200D01*
X179148628Y-183114342D01*
X179077200Y-183042914D01*
X178934342Y-182971485D01*
X178648628Y-182900057D01*
X178505771Y-182828628D01*
X178434342Y-182757200D01*
X178362914Y-182614342D01*
X178362914Y-182471485D01*
X178434342Y-182328628D01*
X178505771Y-182257200D01*
X178648628Y-182185771D01*
X179005771Y-182185771D01*
X179220057Y-182257200D01*
X179862914Y-183685771D02*
X179862914Y-182185771D01*
X180505771Y-183685771D02*
X180505771Y-182900057D01*
X180434342Y-182757200D01*
X180291485Y-182685771D01*
X180077200Y-182685771D01*
X179934342Y-182757200D01*
X179862914Y-182828628D01*
X181791485Y-183614342D02*
X181648628Y-183685771D01*
X181362914Y-183685771D01*
X181220057Y-183614342D01*
X181148628Y-183471485D01*
X181148628Y-182900057D01*
X181220057Y-182757200D01*
X181362914Y-182685771D01*
X181648628Y-182685771D01*
X181791485Y-182757200D01*
X181862914Y-182900057D01*
X181862914Y-183042914D01*
X181148628Y-183185771D01*
X183077200Y-183614342D02*
X182934342Y-183685771D01*
X182648628Y-183685771D01*
X182505771Y-183614342D01*
X182434342Y-183471485D01*
X182434342Y-182900057D01*
X182505771Y-182757200D01*
X182648628Y-182685771D01*
X182934342Y-182685771D01*
X183077200Y-182757200D01*
X183148628Y-182900057D01*
X183148628Y-183042914D01*
X182434342Y-183185771D01*
X183577200Y-182685771D02*
X184148628Y-182685771D01*
X183791485Y-182185771D02*
X183791485Y-183471485D01*
X183862914Y-183614342D01*
X184005771Y-183685771D01*
X184148628Y-183685771D01*
X184648628Y-183542914D02*
X184720057Y-183614342D01*
X184648628Y-183685771D01*
X184577200Y-183614342D01*
X184648628Y-183542914D01*
X184648628Y-183685771D01*
X184648628Y-182757200D02*
X184720057Y-182828628D01*
X184648628Y-182900057D01*
X184577200Y-182828628D01*
X184648628Y-182757200D01*
X184648628Y-182900057D01*
D10*
D12*
X178554342Y-180685771D02*
X178554342Y-179185771D01*
X179125771Y-179185771D01*
X179268628Y-179257200D01*
X179340057Y-179328628D01*
X179411485Y-179471485D01*
X179411485Y-179685771D01*
X179340057Y-179828628D01*
X179268628Y-179900057D01*
X179125771Y-179971485D01*
X178554342Y-179971485D01*
X180054342Y-180685771D02*
X180054342Y-179185771D01*
X180697200Y-180685771D02*
X180697200Y-179900057D01*
X180625771Y-179757200D01*
X180482914Y-179685771D01*
X180268628Y-179685771D01*
X180125771Y-179757200D01*
X180054342Y-179828628D01*
X181411485Y-180685771D02*
X181411485Y-179685771D01*
X181411485Y-179185771D02*
X181340057Y-179257200D01*
X181411485Y-179328628D01*
X181482914Y-179257200D01*
X181411485Y-179185771D01*
X181411485Y-179328628D01*
X182340057Y-180685771D02*
X182197200Y-180614342D01*
X182125771Y-180471485D01*
X182125771Y-179185771D01*
X182911485Y-180685771D02*
X182911485Y-179685771D01*
X182911485Y-179185771D02*
X182840057Y-179257200D01*
X182911485Y-179328628D01*
X182982914Y-179257200D01*
X182911485Y-179185771D01*
X182911485Y-179328628D01*
X183625771Y-179685771D02*
X183625771Y-181185771D01*
X183625771Y-179757200D02*
X183768628Y-179685771D01*
X184054342Y-179685771D01*
X184197200Y-179757200D01*
X184268628Y-179828628D01*
X184340057Y-179971485D01*
X184340057Y-180400057D01*
X184268628Y-180542914D01*
X184197200Y-180614342D01*
X184054342Y-180685771D01*
X183768628Y-180685771D01*
X183625771Y-180614342D01*
X184982914Y-179685771D02*
X184982914Y-181185771D01*
X184982914Y-179757200D02*
X185125771Y-179685771D01*
X185411485Y-179685771D01*
X185554342Y-179757200D01*
X185625771Y-179828628D01*
X185697200Y-179971485D01*
X185697200Y-180400057D01*
X185625771Y-180542914D01*
X185554342Y-180614342D01*
X185411485Y-180685771D01*
X185125771Y-180685771D01*
X184982914Y-180614342D01*
X187411485Y-180614342D02*
X187625771Y-180685771D01*
X187982914Y-180685771D01*
X188125771Y-180614342D01*
X188197200Y-180542914D01*
X188268628Y-180400057D01*
X188268628Y-180257200D01*
X188197200Y-180114342D01*
X188125771Y-180042914D01*
X187982914Y-179971485D01*
X187697200Y-179900057D01*
X187554342Y-179828628D01*
X187482914Y-179757200D01*
X187411485Y-179614342D01*
X187411485Y-179471485D01*
X187482914Y-179328628D01*
X187554342Y-179257200D01*
X187697200Y-179185771D01*
X188054342Y-179185771D01*
X188268628Y-179257200D01*
X189554342Y-180614342D02*
X189411485Y-180685771D01*
X189125771Y-180685771D01*
X188982914Y-180614342D01*
X188911485Y-180542914D01*
X188840057Y-180400057D01*
X188840057Y-179971485D01*
X188911485Y-179828628D01*
X188982914Y-179757200D01*
X189125771Y-179685771D01*
X189411485Y-179685771D01*
X189554342Y-179757200D01*
X190197200Y-180685771D02*
X190197200Y-179185771D01*
X190840057Y-180685771D02*
X190840057Y-179900057D01*
X190768628Y-179757200D01*
X190625771Y-179685771D01*
X190411485Y-179685771D01*
X190268628Y-179757200D01*
X190197200Y-179828628D01*
X191554342Y-180685771D02*
X191554342Y-179685771D01*
X191554342Y-179185771D02*
X191482914Y-179257200D01*
X191554342Y-179328628D01*
X191625771Y-179257200D01*
X191554342Y-179185771D01*
X191554342Y-179328628D01*
X192482914Y-180685771D02*
X192340057Y-180614342D01*
X192268628Y-180471485D01*
X192268628Y-179185771D01*
X193054342Y-180685771D02*
X193054342Y-179185771D01*
X193197200Y-180114342D02*
X193625771Y-180685771D01*
X193625771Y-179685771D02*
X193054342Y-180257200D01*
D10*
D11*
X178434342Y-177685771D02*
X178434342Y-176185771D01*
X179077200Y-177685771D02*
X179077200Y-176900057D01*
X179005771Y-176757200D01*
X178862914Y-176685771D01*
X178648628Y-176685771D01*
X178505771Y-176757200D01*
X178434342Y-176828628D01*
X179577200Y-176685771D02*
X180148628Y-176685771D01*
X179791485Y-176185771D02*
X179791485Y-177471485D01*
X179862914Y-177614342D01*
X180005771Y-177685771D01*
X180148628Y-177685771D01*
X180434342Y-176685771D02*
X181005771Y-176685771D01*
X180648628Y-176185771D02*
X180648628Y-177471485D01*
X180720057Y-177614342D01*
X180862914Y-177685771D01*
X181005771Y-177685771D01*
X181505771Y-176685771D02*
X181505771Y-178185771D01*
X181505771Y-176757200D02*
X181648628Y-176685771D01*
X181934342Y-176685771D01*
X182077200Y-176757200D01*
X182148628Y-176828628D01*
X182220057Y-176971485D01*
X182220057Y-177400057D01*
X182148628Y-177542914D01*
X182077200Y-177614342D01*
X181934342Y-177685771D01*
X181648628Y-177685771D01*
X181505771Y-177614342D01*
X182791485Y-177614342D02*
X182934342Y-177685771D01*
X183220057Y-177685771D01*
X183362914Y-177614342D01*
X183434342Y-177471485D01*
X183434342Y-177400057D01*
X183362914Y-177257200D01*
X183220057Y-177185771D01*
X183005771Y-177185771D01*
X182862914Y-177114342D01*
X182791485Y-176971485D01*
X182791485Y-176900057D01*
X182862914Y-176757200D01*
X183005771Y-176685771D01*
X183220057Y-176685771D01*
X183362914Y-176757200D01*
X184077200Y-177542914D02*
X184148628Y-177614342D01*
X184077200Y-177685771D01*
X184005771Y-177614342D01*
X184077200Y-177542914D01*
X184077200Y-177685771D01*
X184077200Y-176757200D02*
X184148628Y-176828628D01*
X184077200Y-176900057D01*
X184005771Y-176828628D01*
X184077200Y-176757200D01*
X184077200Y-176900057D01*
X185862914Y-176114342D02*
X184577200Y-178042914D01*
X187434342Y-176114342D02*
X186148628Y-178042914D01*
X188577200Y-176685771D02*
X188577200Y-177900057D01*
X188505771Y-178042914D01*
X188434342Y-178114342D01*
X188291485Y-178185771D01*
X188077200Y-178185771D01*
X187934342Y-178114342D01*
X188577200Y-177614342D02*
X188434342Y-177685771D01*
X188148628Y-177685771D01*
X188005771Y-177614342D01*
X187934342Y-177542914D01*
X187862914Y-177400057D01*
X187862914Y-176971485D01*
X187934342Y-176828628D01*
X188005771Y-176757200D01*
X188148628Y-176685771D01*
X188434342Y-176685771D01*
X188577200Y-176757200D01*
X189291485Y-177685771D02*
X189291485Y-176685771D01*
X189291485Y-176185771D02*
X189220057Y-176257200D01*
X189291485Y-176328628D01*
X189362914Y-176257200D01*
X189291485Y-176185771D01*
X189291485Y-176328628D01*
X189791485Y-176685771D02*
X190362914Y-176685771D01*
X190005771Y-176185771D02*
X190005771Y-177471485D01*
X190077200Y-177614342D01*
X190220057Y-177685771D01*
X190362914Y-177685771D01*
X190862914Y-177685771D02*
X190862914Y-176185771D01*
X191505771Y-177685771D02*
X191505771Y-176900057D01*
X191434342Y-176757200D01*
X191291485Y-176685771D01*
X191077200Y-176685771D01*
X190934342Y-176757200D01*
X190862914Y-176828628D01*
X192862914Y-176685771D02*
X192862914Y-177685771D01*
X192220057Y-176685771D02*
X192220057Y-177471485D01*
X192291485Y-177614342D01*
X192434342Y-177685771D01*
X192648628Y-177685771D01*
X192791485Y-177614342D01*
X192862914Y-177542914D01*
X193577200Y-177685771D02*
X193577200Y-176185771D01*
X193577200Y-176757200D02*
X193720057Y-176685771D01*
X194005771Y-176685771D01*
X194148628Y-176757200D01*
X194220057Y-176828628D01*
X194291485Y-176971485D01*
X194291485Y-177400057D01*
X194220057Y-177542914D01*
X194148628Y-177614342D01*
X194005771Y-177685771D01*
X193720057Y-177685771D01*
X193577200Y-177614342D01*
X194934342Y-177542914D02*
X195005771Y-177614342D01*
X194934342Y-177685771D01*
X194862914Y-177614342D01*
X194934342Y-177542914D01*
X194934342Y-177685771D01*
X196291485Y-177614342D02*
X196148628Y-177685771D01*
X195862914Y-177685771D01*
X195720057Y-177614342D01*
X195648628Y-177542914D01*
X195577200Y-177400057D01*
X195577200Y-176971485D01*
X195648628Y-176828628D01*
X195720057Y-176757200D01*
X195862914Y-176685771D01*
X196148628Y-176685771D01*
X196291485Y-176757200D01*
X197148628Y-177685771D02*
X197005771Y-177614342D01*
X196934342Y-177542914D01*
X196862914Y-177400057D01*
X196862914Y-176971485D01*
X196934342Y-176828628D01*
X197005771Y-176757200D01*
X197148628Y-176685771D01*
X197362914Y-176685771D01*
X197505771Y-176757200D01*
X197577200Y-176828628D01*
X197648628Y-176971485D01*
X197648628Y-177400057D01*
X197577200Y-177542914D01*
X197505771Y-177614342D01*
X197362914Y-177685771D01*
X197148628Y-177685771D01*
X198291485Y-177685771D02*
X198291485Y-176685771D01*
X198291485Y-176828628D02*
X198362914Y-176757200D01*
X198505771Y-176685771D01*
X198720057Y-176685771D01*
X198862914Y-176757200D01*
X198934342Y-176900057D01*
X198934342Y-177685771D01*
X198934342Y-176900057D02*
X199005771Y-176757200D01*
X199148628Y-176685771D01*
X199362914Y-176685771D01*
X199505771Y-176757200D01*
X199577200Y-176900057D01*
X199577200Y-177685771D01*
X201362914Y-176114342D02*
X200077200Y-178042914D01*
X201648628Y-176185771D02*
X202505771Y-176185771D01*
X202077200Y-177685771D02*
X202077200Y-176185771D01*
X203005771Y-177685771D02*
X203005771Y-176185771D01*
X203648628Y-177685771D02*
X203648628Y-176900057D01*
X203577200Y-176757200D01*
X203434342Y-176685771D01*
X203220057Y-176685771D01*
X203077200Y-176757200D01*
X203005771Y-176828628D01*
X204934342Y-177614342D02*
X204791485Y-177685771D01*
X204505771Y-177685771D01*
X204362914Y-177614342D01*
X204291485Y-177471485D01*
X204291485Y-176900057D01*
X204362914Y-176757200D01*
X204505771Y-176685771D01*
X204791485Y-176685771D01*
X204934342Y-176757200D01*
X205005771Y-176900057D01*
X205005771Y-177042914D01*
X204291485Y-177185771D01*
X205577200Y-177614342D02*
X205791485Y-177685771D01*
X206148628Y-177685771D01*
X206291485Y-177614342D01*
X206362914Y-177542914D01*
X206434342Y-177400057D01*
X206434342Y-177257200D01*
X206362914Y-177114342D01*
X206291485Y-177042914D01*
X206148628Y-176971485D01*
X205862914Y-176900057D01*
X205720057Y-176828628D01*
X205648628Y-176757200D01*
X205577200Y-176614342D01*
X205577200Y-176471485D01*
X205648628Y-176328628D01*
X205720057Y-176257200D01*
X205862914Y-176185771D01*
X206220057Y-176185771D01*
X206434342Y-176257200D01*
X207720057Y-177614342D02*
X207577200Y-177685771D01*
X207291485Y-177685771D01*
X207148628Y-177614342D01*
X207077200Y-177542914D01*
X207005771Y-177400057D01*
X207005771Y-176971485D01*
X207077200Y-176828628D01*
X207148628Y-176757200D01*
X207291485Y-176685771D01*
X207577200Y-176685771D01*
X207720057Y-176757200D01*
X208362914Y-177685771D02*
X208362914Y-176185771D01*
X209005771Y-177685771D02*
X209005771Y-176900057D01*
X208934342Y-176757200D01*
X208791485Y-176685771D01*
X208577200Y-176685771D01*
X208434342Y-176757200D01*
X208362914Y-176828628D01*
X209720057Y-177685771D02*
X209720057Y-176685771D01*
X209720057Y-176185771D02*
X209648628Y-176257200D01*
X209720057Y-176328628D01*
X209791485Y-176257200D01*
X209720057Y-176185771D01*
X209720057Y-176328628D01*
X210648628Y-177685771D02*
X210505771Y-177614342D01*
X210434342Y-177471485D01*
X210434342Y-176185771D01*
X211220057Y-177685771D02*
X211220057Y-176185771D01*
X211362914Y-177114342D02*
X211791485Y-177685771D01*
X211791485Y-176685771D02*
X211220057Y-177257200D01*
X213505771Y-176114342D02*
X212220057Y-178042914D01*
X213934342Y-177614342D02*
X214148628Y-177685771D01*
X214505771Y-177685771D01*
X214648628Y-177614342D01*
X214720057Y-177542914D01*
X214791485Y-177400057D01*
X214791485Y-177257200D01*
X214720057Y-177114342D01*
X214648628Y-177042914D01*
X214505771Y-176971485D01*
X214220057Y-176900057D01*
X214077200Y-176828628D01*
X214005771Y-176757200D01*
X213934342Y-176614342D01*
X213934342Y-176471485D01*
X214005771Y-176328628D01*
X214077200Y-176257200D01*
X214220057Y-176185771D01*
X214577200Y-176185771D01*
X214791485Y-176257200D01*
X215720057Y-176971485D02*
X215720057Y-177685771D01*
X215220057Y-176185771D02*
X215720057Y-176971485D01*
X216220057Y-176185771D01*
X216648628Y-177614342D02*
X216862914Y-177685771D01*
X217220057Y-177685771D01*
X217362914Y-177614342D01*
X217434342Y-177542914D01*
X217505771Y-177400057D01*
X217505771Y-177257200D01*
X217434342Y-177114342D01*
X217362914Y-177042914D01*
X217220057Y-176971485D01*
X216934342Y-176900057D01*
X216791485Y-176828628D01*
X216720057Y-176757200D01*
X216648628Y-176614342D01*
X216648628Y-176471485D01*
X216720057Y-176328628D01*
X216791485Y-176257200D01*
X216934342Y-176185771D01*
X217291485Y-176185771D01*
X217505771Y-176257200D01*
X217791485Y-177828628D02*
X218934342Y-177828628D01*
X219220057Y-177614342D02*
X219434342Y-177685771D01*
X219791485Y-177685771D01*
X219934342Y-177614342D01*
X220005771Y-177542914D01*
X220077200Y-177400057D01*
X220077200Y-177257200D01*
X220005771Y-177114342D01*
X219934342Y-177042914D01*
X219791485Y-176971485D01*
X219505771Y-176900057D01*
X219362914Y-176828628D01*
X219291485Y-176757200D01*
X219220057Y-176614342D01*
X219220057Y-176471485D01*
X219291485Y-176328628D01*
X219362914Y-176257200D01*
X219505771Y-176185771D01*
X219862914Y-176185771D01*
X220077200Y-176257200D01*
X220505771Y-176685771D02*
X221077200Y-176685771D01*
X220720057Y-176185771D02*
X220720057Y-177471485D01*
X220791485Y-177614342D01*
X220934342Y-177685771D01*
X221077200Y-177685771D01*
X222148628Y-177614342D02*
X222005771Y-177685771D01*
X221720057Y-177685771D01*
X221577200Y-177614342D01*
X221505771Y-177471485D01*
X221505771Y-176900057D01*
X221577200Y-176757200D01*
X221720057Y-176685771D01*
X222005771Y-176685771D01*
X222148628Y-176757200D01*
X222220057Y-176900057D01*
X222220057Y-177042914D01*
X221505771Y-177185771D01*
X222862914Y-176685771D02*
X222862914Y-178185771D01*
X222862914Y-176757200D02*
X223005771Y-176685771D01*
X223291485Y-176685771D01*
X223434342Y-176757200D01*
X223505771Y-176828628D01*
X223577200Y-176971485D01*
X223577200Y-177400057D01*
X223505771Y-177542914D01*
X223434342Y-177614342D01*
X223291485Y-177685771D01*
X223005771Y-177685771D01*
X222862914Y-177614342D01*
X224148628Y-177257200D02*
X224862914Y-177257200D01*
X224005771Y-177685771D02*
X224505771Y-176185771D01*
X225005771Y-177685771D01*
X225291485Y-176685771D02*
X225862914Y-176685771D01*
X225505771Y-176185771D02*
X225505771Y-177471485D01*
X225577200Y-177614342D01*
X225720057Y-177685771D01*
X225862914Y-177685771D01*
X226148628Y-176685771D02*
X226720057Y-176685771D01*
X226362914Y-176185771D02*
X226362914Y-177471485D01*
X226434342Y-177614342D01*
X226577200Y-177685771D01*
X226720057Y-177685771D01*
X227791485Y-177614342D02*
X227648628Y-177685771D01*
X227362914Y-177685771D01*
X227220057Y-177614342D01*
X227148628Y-177471485D01*
X227148628Y-176900057D01*
X227220057Y-176757200D01*
X227362914Y-176685771D01*
X227648628Y-176685771D01*
X227791485Y-176757200D01*
X227862914Y-176900057D01*
X227862914Y-177042914D01*
X227148628Y-177185771D01*
X228505771Y-176685771D02*
X228505771Y-177685771D01*
X228505771Y-176828628D02*
X228577200Y-176757200D01*
X228720057Y-176685771D01*
X228934342Y-176685771D01*
X229077200Y-176757200D01*
X229148628Y-176900057D01*
X229148628Y-177685771D01*
D10*
D11*
X178862914Y-169185771D02*
X178505771Y-169185771D01*
X178505771Y-167042914D01*
X178862914Y-167042914D01*
X179434342Y-168685771D02*
X179434342Y-167185771D01*
X180291485Y-168685771D01*
X180291485Y-167185771D01*
X181220057Y-168685771D02*
X181077200Y-168614342D01*
X181005771Y-168542914D01*
X180934342Y-168400057D01*
X180934342Y-167971485D01*
X181005771Y-167828628D01*
X181077200Y-167757200D01*
X181220057Y-167685771D01*
X181434342Y-167685771D01*
X181577200Y-167757200D01*
X181648628Y-167828628D01*
X181720057Y-167971485D01*
X181720057Y-168400057D01*
X181648628Y-168542914D01*
X181577200Y-168614342D01*
X181434342Y-168685771D01*
X181220057Y-168685771D01*
X183434342Y-168257200D02*
X184148628Y-168257200D01*
X183291485Y-168685771D02*
X183791485Y-167185771D01*
X184291485Y-168685771D01*
X184720057Y-168614342D02*
X184862914Y-168685771D01*
X185148628Y-168685771D01*
X185291485Y-168614342D01*
X185362914Y-168471485D01*
X185362914Y-168400057D01*
X185291485Y-168257200D01*
X185148628Y-168185771D01*
X184934342Y-168185771D01*
X184791485Y-168114342D01*
X184720057Y-167971485D01*
X184720057Y-167900057D01*
X184791485Y-167757200D01*
X184934342Y-167685771D01*
X185148628Y-167685771D01*
X185291485Y-167757200D01*
X185934342Y-168614342D02*
X186077200Y-168685771D01*
X186362914Y-168685771D01*
X186505771Y-168614342D01*
X186577200Y-168471485D01*
X186577200Y-168400057D01*
X186505771Y-168257200D01*
X186362914Y-168185771D01*
X186148628Y-168185771D01*
X186005771Y-168114342D01*
X185934342Y-167971485D01*
X185934342Y-167900057D01*
X186005771Y-167757200D01*
X186148628Y-167685771D01*
X186362914Y-167685771D01*
X186505771Y-167757200D01*
X187434342Y-168685771D02*
X187291485Y-168614342D01*
X187220057Y-168542914D01*
X187148628Y-168400057D01*
X187148628Y-167971485D01*
X187220057Y-167828628D01*
X187291485Y-167757200D01*
X187434342Y-167685771D01*
X187648628Y-167685771D01*
X187791485Y-167757200D01*
X187862914Y-167828628D01*
X187934342Y-167971485D01*
X187934342Y-168400057D01*
X187862914Y-168542914D01*
X187791485Y-168614342D01*
X187648628Y-168685771D01*
X187434342Y-168685771D01*
X189220057Y-168614342D02*
X189077200Y-168685771D01*
X188791485Y-168685771D01*
X188648628Y-168614342D01*
X188577200Y-168542914D01*
X188505771Y-168400057D01*
X188505771Y-167971485D01*
X188577200Y-167828628D01*
X188648628Y-167757200D01*
X188791485Y-167685771D01*
X189077200Y-167685771D01*
X189220057Y-167757200D01*
X189862914Y-168685771D02*
X189862914Y-167685771D01*
X189862914Y-167185771D02*
X189791485Y-167257200D01*
X189862914Y-167328628D01*
X189934342Y-167257200D01*
X189862914Y-167185771D01*
X189862914Y-167328628D01*
X191220057Y-168685771D02*
X191220057Y-167900057D01*
X191148628Y-167757200D01*
X191005771Y-167685771D01*
X190720057Y-167685771D01*
X190577200Y-167757200D01*
X191220057Y-168614342D02*
X191077200Y-168685771D01*
X190720057Y-168685771D01*
X190577200Y-168614342D01*
X190505771Y-168471485D01*
X190505771Y-168328628D01*
X190577200Y-168185771D01*
X190720057Y-168114342D01*
X191077200Y-168114342D01*
X191220057Y-168042914D01*
X191720057Y-167685771D02*
X192291485Y-167685771D01*
X191934342Y-167185771D02*
X191934342Y-168471485D01*
X192005771Y-168614342D01*
X192148628Y-168685771D01*
X192291485Y-168685771D01*
X192791485Y-168685771D02*
X192791485Y-167685771D01*
X192791485Y-167185771D02*
X192720057Y-167257200D01*
X192791485Y-167328628D01*
X192862914Y-167257200D01*
X192791485Y-167185771D01*
X192791485Y-167328628D01*
X193720057Y-168685771D02*
X193577200Y-168614342D01*
X193505771Y-168542914D01*
X193434342Y-168400057D01*
X193434342Y-167971485D01*
X193505771Y-167828628D01*
X193577200Y-167757200D01*
X193720057Y-167685771D01*
X193934342Y-167685771D01*
X194077200Y-167757200D01*
X194148628Y-167828628D01*
X194220057Y-167971485D01*
X194220057Y-168400057D01*
X194148628Y-168542914D01*
X194077200Y-168614342D01*
X193934342Y-168685771D01*
X193720057Y-168685771D01*
X194862914Y-167685771D02*
X194862914Y-168685771D01*
X194862914Y-167828628D02*
X194934342Y-167757200D01*
X195077200Y-167685771D01*
X195291485Y-167685771D01*
X195434342Y-167757200D01*
X195505771Y-167900057D01*
X195505771Y-168685771D01*
X197220057Y-167685771D02*
X197505771Y-168685771D01*
X197791485Y-167971485D01*
X198077200Y-168685771D01*
X198362914Y-167685771D01*
X198934342Y-168685771D02*
X198934342Y-167685771D01*
X198934342Y-167185771D02*
X198862914Y-167257200D01*
X198934342Y-167328628D01*
X199005771Y-167257200D01*
X198934342Y-167185771D01*
X198934342Y-167328628D01*
X199434342Y-167685771D02*
X200005771Y-167685771D01*
X199648628Y-167185771D02*
X199648628Y-168471485D01*
X199720057Y-168614342D01*
X199862914Y-168685771D01*
X200005771Y-168685771D01*
X200505771Y-168685771D02*
X200505771Y-167185771D01*
X201148628Y-168685771D02*
X201148628Y-167900057D01*
X201077200Y-167757200D01*
X200934342Y-167685771D01*
X200720057Y-167685771D01*
X200577200Y-167757200D01*
X200505771Y-167828628D01*
X202934342Y-168614342D02*
X203148628Y-168685771D01*
X203505771Y-168685771D01*
X203648628Y-168614342D01*
X203720057Y-168542914D01*
X203791485Y-168400057D01*
X203791485Y-168257200D01*
X203720057Y-168114342D01*
X203648628Y-168042914D01*
X203505771Y-167971485D01*
X203220057Y-167900057D01*
X203077200Y-167828628D01*
X203005771Y-167757200D01*
X202934342Y-167614342D01*
X202934342Y-167471485D01*
X203005771Y-167328628D01*
X203077200Y-167257200D01*
X203220057Y-167185771D01*
X203577200Y-167185771D01*
X203791485Y-167257200D01*
X205077200Y-168614342D02*
X204934342Y-168685771D01*
X204648628Y-168685771D01*
X204505771Y-168614342D01*
X204434342Y-168542914D01*
X204362914Y-168400057D01*
X204362914Y-167971485D01*
X204434342Y-167828628D01*
X204505771Y-167757200D01*
X204648628Y-167685771D01*
X204934342Y-167685771D01*
X205077200Y-167757200D01*
X205720057Y-168685771D02*
X205720057Y-167185771D01*
X206362914Y-168685771D02*
X206362914Y-167900057D01*
X206291485Y-167757200D01*
X206148628Y-167685771D01*
X205934342Y-167685771D01*
X205791485Y-167757200D01*
X205720057Y-167828628D01*
X207077200Y-168685771D02*
X207077200Y-167685771D01*
X207077200Y-167185771D02*
X207005771Y-167257200D01*
X207077200Y-167328628D01*
X207148628Y-167257200D01*
X207077200Y-167185771D01*
X207077200Y-167328628D01*
X207791485Y-168685771D02*
X207791485Y-167685771D01*
X207791485Y-167185771D02*
X207720057Y-167257200D01*
X207791485Y-167328628D01*
X207862914Y-167257200D01*
X207791485Y-167185771D01*
X207791485Y-167328628D01*
X208291485Y-167685771D02*
X208862914Y-167685771D01*
X208505771Y-167185771D02*
X208505771Y-168471485D01*
X208577200Y-168614342D01*
X208720057Y-168685771D01*
X208862914Y-168685771D01*
X210434342Y-168257200D02*
X211148628Y-168257200D01*
X210291485Y-168685771D02*
X210791485Y-167185771D01*
X211291485Y-168685771D01*
X212434342Y-167685771D02*
X212434342Y-168685771D01*
X211791485Y-167685771D02*
X211791485Y-168471485D01*
X211862914Y-168614342D01*
X212005771Y-168685771D01*
X212220057Y-168685771D01*
X212362914Y-168614342D01*
X212434342Y-168542914D01*
X213791485Y-168685771D02*
X213791485Y-167185771D01*
X213791485Y-168614342D02*
X213648628Y-168685771D01*
X213362914Y-168685771D01*
X213220057Y-168614342D01*
X213148628Y-168542914D01*
X213077200Y-168400057D01*
X213077200Y-167971485D01*
X213148628Y-167828628D01*
X213220057Y-167757200D01*
X213362914Y-167685771D01*
X213648628Y-167685771D01*
X213791485Y-167757200D01*
X214505771Y-168685771D02*
X214505771Y-167685771D01*
X214505771Y-167185771D02*
X214434342Y-167257200D01*
X214505771Y-167328628D01*
X214577200Y-167257200D01*
X214505771Y-167185771D01*
X214505771Y-167328628D01*
X215434342Y-168685771D02*
X215291485Y-168614342D01*
X215220057Y-168542914D01*
X215148628Y-168400057D01*
X215148628Y-167971485D01*
X215220057Y-167828628D01*
X215291485Y-167757200D01*
X215434342Y-167685771D01*
X215648628Y-167685771D01*
X215791485Y-167757200D01*
X215862914Y-167828628D01*
X215934342Y-167971485D01*
X215934342Y-168400057D01*
X215862914Y-168542914D01*
X215791485Y-168614342D01*
X215648628Y-168685771D01*
X215434342Y-168685771D01*
X216434342Y-169185771D02*
X216791485Y-169185771D01*
X216791485Y-167042914D01*
X216434342Y-167042914D01*
D10*
D11*
X197002200Y-191507200D02*
X197002200Y-194507200D01*
D10*
D11*
X261002200Y-191507200D02*
X261002200Y-198007200D01*
D14*
X200000000Y-147500000D02*
X200000000Y-63500000D01*
X200000000Y-63500000D02*
X78000000Y-63500000D01*
X78000000Y-63500000D02*
X78000000Y-147500000D01*
X78000000Y-147500000D02*
X200000000Y-147500000D01*
D15*
G36*
X97192208Y-145576409D02*
G01*
X97139643Y-145576944D01*
X96985619Y-145580660D01*
X96856625Y-145591699D01*
X96748263Y-145611246D01*
X96656138Y-145640483D01*
X96575853Y-145680597D01*
X96503012Y-145732769D01*
X96476995Y-145755433D01*
X96433837Y-145808462D01*
X96394921Y-145880421D01*
X96364927Y-145960184D01*
X96348535Y-146036625D01*
X96346832Y-146064872D01*
X96357505Y-146143174D01*
X96386107Y-146228705D01*
X96427511Y-146309663D01*
X96476595Y-146374246D01*
X96484567Y-146382038D01*
X96552100Y-146436808D01*
X96626052Y-146479563D01*
X96710688Y-146511423D01*
X96810271Y-146533508D01*
X96929066Y-146546938D01*
X97071334Y-146552834D01*
X97136500Y-146553334D01*
X97219355Y-146552935D01*
X97277623Y-146551266D01*
X97316770Y-146547622D01*
X97342263Y-146541293D01*
X97359568Y-146531574D01*
X97368844Y-146523274D01*
X97377606Y-146513192D01*
X97384479Y-146500185D01*
X97389692Y-146480769D01*
X97393473Y-146451460D01*
X97396051Y-146408773D01*
X97397654Y-146349225D01*
X97398511Y-146269330D01*
X97398851Y-146165605D01*
X97398903Y-146064872D01*
X97399234Y-145930519D01*
X97399162Y-145823192D01*
X97397884Y-145771795D01*
X97203519Y-145771795D01*
X97203519Y-146357949D01*
X97079525Y-146357835D01*
X97004915Y-146355696D01*
X96926772Y-146350183D01*
X96861574Y-146342472D01*
X96859590Y-146342155D01*
X96754217Y-146316678D01*
X96672486Y-146277000D01*
X96610316Y-146220538D01*
X96570814Y-146159406D01*
X96546474Y-146091593D01*
X96548361Y-146027919D01*
X96576609Y-145959665D01*
X96631862Y-145889056D01*
X96708427Y-145836735D01*
X96807949Y-145801763D01*
X96874461Y-145789386D01*
X96949961Y-145780694D01*
X97029979Y-145774404D01*
X97098038Y-145771788D01*
X97102069Y-145771776D01*
X97203519Y-145771795D01*
X97397884Y-145771795D01*
X97397090Y-145739881D01*
X97391415Y-145677579D01*
X97380541Y-145633275D01*
X97362868Y-145603960D01*
X97336797Y-145586625D01*
X97300729Y-145578261D01*
X97253066Y-145575859D01*
X97192208Y-145576409D01*
G37*
X97192208Y-145576409D02*
X97139643Y-145576944D01*
X96985619Y-145580660D01*
X96856625Y-145591699D01*
X96748263Y-145611246D01*
X96656138Y-145640483D01*
X96575853Y-145680597D01*
X96503012Y-145732769D01*
X96476995Y-145755433D01*
X96433837Y-145808462D01*
X96394921Y-145880421D01*
X96364927Y-145960184D01*
X96348535Y-146036625D01*
X96346832Y-146064872D01*
X96357505Y-146143174D01*
X96386107Y-146228705D01*
X96427511Y-146309663D01*
X96476595Y-146374246D01*
X96484567Y-146382038D01*
X96552100Y-146436808D01*
X96626052Y-146479563D01*
X96710688Y-146511423D01*
X96810271Y-146533508D01*
X96929066Y-146546938D01*
X97071334Y-146552834D01*
X97136500Y-146553334D01*
X97219355Y-146552935D01*
X97277623Y-146551266D01*
X97316770Y-146547622D01*
X97342263Y-146541293D01*
X97359568Y-146531574D01*
X97368844Y-146523274D01*
X97377606Y-146513192D01*
X97384479Y-146500185D01*
X97389692Y-146480769D01*
X97393473Y-146451460D01*
X97396051Y-146408773D01*
X97397654Y-146349225D01*
X97398511Y-146269330D01*
X97398851Y-146165605D01*
X97398903Y-146064872D01*
X97399234Y-145930519D01*
X97399162Y-145823192D01*
X97397884Y-145771795D01*
X97203519Y-145771795D01*
X97203519Y-146357949D01*
X97079525Y-146357835D01*
X97004915Y-146355696D01*
X96926772Y-146350183D01*
X96861574Y-146342472D01*
X96859590Y-146342155D01*
X96754217Y-146316678D01*
X96672486Y-146277000D01*
X96610316Y-146220538D01*
X96570814Y-146159406D01*
X96546474Y-146091593D01*
X96548361Y-146027919D01*
X96576609Y-145959665D01*
X96631862Y-145889056D01*
X96708427Y-145836735D01*
X96807949Y-145801763D01*
X96874461Y-145789386D01*
X96949961Y-145780694D01*
X97029979Y-145774404D01*
X97098038Y-145771788D01*
X97102069Y-145771776D01*
X97203519Y-145771795D01*
X97397884Y-145771795D01*
X97397090Y-145739881D01*
X97391415Y-145677579D01*
X97380541Y-145633275D01*
X97362868Y-145603960D01*
X97336797Y-145586625D01*
X97300729Y-145578261D01*
X97253066Y-145575859D01*
X97192208Y-145576409D01*
G36*
X95316884Y-145576516D02*
G01*
X95224476Y-145577012D01*
X95154727Y-145578165D01*
X95103937Y-145580244D01*
X95068405Y-145583515D01*
X95044432Y-145588247D01*
X95028318Y-145594707D01*
X95016363Y-145603163D01*
X95012033Y-145607055D01*
X94985705Y-145648404D01*
X94980965Y-145695916D01*
X94998284Y-145738095D01*
X95006293Y-145746620D01*
X95019246Y-145754885D01*
X95040102Y-145761261D01*
X95072730Y-145766059D01*
X95120996Y-145769588D01*
X95188768Y-145772158D01*
X95279914Y-145774081D01*
X95363245Y-145775251D01*
X95693046Y-145779310D01*
X95702060Y-145952150D01*
X95478196Y-145952150D01*
X95381008Y-145952989D01*
X95309857Y-145956496D01*
X95260745Y-145964159D01*
X95229671Y-145977467D01*
X95212638Y-145997905D01*
X95205646Y-146026963D01*
X95204584Y-146053931D01*
X95207884Y-146087021D01*
X95220337Y-146111404D01*
X95245774Y-146128353D01*
X95288025Y-146139143D01*
X95350920Y-146145048D01*
X95438289Y-146147341D01*
X95485975Y-146147535D01*
X95700560Y-146147535D01*
X95700560Y-146357949D01*
X95369909Y-146357949D01*
X95261524Y-146358100D01*
X95179151Y-146358778D01*
X95118743Y-146360320D01*
X95076253Y-146363063D01*
X95047635Y-146367345D01*
X95028842Y-146373503D01*
X95015828Y-146381873D01*
X95009199Y-146388008D01*
X94986461Y-146423813D01*
X94979140Y-146455641D01*
X94989593Y-146494518D01*
X95009199Y-146523274D01*
X95019659Y-146532327D01*
X95033162Y-146539357D01*
X95053340Y-146544618D01*
X95083825Y-146548365D01*
X95128249Y-146550854D01*
X95190245Y-146552339D01*
X95273445Y-146553075D01*
X95381481Y-146553318D01*
X95437543Y-146553334D01*
X95557598Y-146553227D01*
X95651228Y-146552739D01*
X95722063Y-146551613D01*
X95773735Y-146549595D01*
X95809877Y-146546430D01*
X95834122Y-146541863D01*
X95850101Y-146535640D01*
X95861447Y-146527504D01*
X95865886Y-146523274D01*
X95874671Y-146513160D01*
X95881558Y-146500112D01*
X95886775Y-146480634D01*
X95890553Y-146451228D01*
X95893124Y-146408398D01*
X95894718Y-146348648D01*
X95895565Y-146268481D01*
X95895896Y-146164401D01*
X95895945Y-146067492D01*
X95895900Y-145943387D01*
X95895588Y-145845830D01*
X95894742Y-145771310D01*
X95893096Y-145716315D01*
X95890383Y-145677334D01*
X95886337Y-145650857D01*
X95880691Y-145633370D01*
X95873180Y-145621364D01*
X95863536Y-145611327D01*
X95861160Y-145609090D01*
X95849629Y-145599183D01*
X95836232Y-145591512D01*
X95817250Y-145585790D01*
X95788969Y-145581732D01*
X95747672Y-145579052D01*
X95689642Y-145577466D01*
X95611163Y-145576688D01*
X95508520Y-145576432D01*
X95435650Y-145576410D01*
X95316884Y-145576516D01*
G37*
X95316884Y-145576516D02*
X95224476Y-145577012D01*
X95154727Y-145578165D01*
X95103937Y-145580244D01*
X95068405Y-145583515D01*
X95044432Y-145588247D01*
X95028318Y-145594707D01*
X95016363Y-145603163D01*
X95012033Y-145607055D01*
X94985705Y-145648404D01*
X94980965Y-145695916D01*
X94998284Y-145738095D01*
X95006293Y-145746620D01*
X95019246Y-145754885D01*
X95040102Y-145761261D01*
X95072730Y-145766059D01*
X95120996Y-145769588D01*
X95188768Y-145772158D01*
X95279914Y-145774081D01*
X95363245Y-145775251D01*
X95693046Y-145779310D01*
X95702060Y-145952150D01*
X95478196Y-145952150D01*
X95381008Y-145952989D01*
X95309857Y-145956496D01*
X95260745Y-145964159D01*
X95229671Y-145977467D01*
X95212638Y-145997905D01*
X95205646Y-146026963D01*
X95204584Y-146053931D01*
X95207884Y-146087021D01*
X95220337Y-146111404D01*
X95245774Y-146128353D01*
X95288025Y-146139143D01*
X95350920Y-146145048D01*
X95438289Y-146147341D01*
X95485975Y-146147535D01*
X95700560Y-146147535D01*
X95700560Y-146357949D01*
X95369909Y-146357949D01*
X95261524Y-146358100D01*
X95179151Y-146358778D01*
X95118743Y-146360320D01*
X95076253Y-146363063D01*
X95047635Y-146367345D01*
X95028842Y-146373503D01*
X95015828Y-146381873D01*
X95009199Y-146388008D01*
X94986461Y-146423813D01*
X94979140Y-146455641D01*
X94989593Y-146494518D01*
X95009199Y-146523274D01*
X95019659Y-146532327D01*
X95033162Y-146539357D01*
X95053340Y-146544618D01*
X95083825Y-146548365D01*
X95128249Y-146550854D01*
X95190245Y-146552339D01*
X95273445Y-146553075D01*
X95381481Y-146553318D01*
X95437543Y-146553334D01*
X95557598Y-146553227D01*
X95651228Y-146552739D01*
X95722063Y-146551613D01*
X95773735Y-146549595D01*
X95809877Y-146546430D01*
X95834122Y-146541863D01*
X95850101Y-146535640D01*
X95861447Y-146527504D01*
X95865886Y-146523274D01*
X95874671Y-146513160D01*
X95881558Y-146500112D01*
X95886775Y-146480634D01*
X95890553Y-146451228D01*
X95893124Y-146408398D01*
X95894718Y-146348648D01*
X95895565Y-146268481D01*
X95895896Y-146164401D01*
X95895945Y-146067492D01*
X95895900Y-145943387D01*
X95895588Y-145845830D01*
X95894742Y-145771310D01*
X95893096Y-145716315D01*
X95890383Y-145677334D01*
X95886337Y-145650857D01*
X95880691Y-145633370D01*
X95873180Y-145621364D01*
X95863536Y-145611327D01*
X95861160Y-145609090D01*
X95849629Y-145599183D01*
X95836232Y-145591512D01*
X95817250Y-145585790D01*
X95788969Y-145581732D01*
X95747672Y-145579052D01*
X95689642Y-145577466D01*
X95611163Y-145576688D01*
X95508520Y-145576432D01*
X95435650Y-145576410D01*
X95316884Y-145576516D01*
G36*
X93957442Y-145578121D02*
G01*
X93857837Y-145585084D01*
X93765198Y-145595959D01*
X93684912Y-145610338D01*
X93622362Y-145627810D01*
X93582935Y-145647966D01*
X93576883Y-145653899D01*
X93555838Y-145699939D01*
X93562220Y-145747204D01*
X93594861Y-145787642D01*
X93596418Y-145788801D01*
X93615617Y-145801261D01*
X93635659Y-145807813D01*
X93663614Y-145808608D01*
X93706553Y-145803800D01*
X93771545Y-145793539D01*
X93776773Y-145792675D01*
X93873615Y-145780778D01*
X93978098Y-145774909D01*
X94082889Y-145774852D01*
X94180656Y-145780391D01*
X94264066Y-145791309D01*
X94325787Y-145807389D01*
X94329842Y-145809005D01*
X94374618Y-145834093D01*
X94390350Y-145859482D01*
X94378034Y-145884451D01*
X94338669Y-145908280D01*
X94273252Y-145930246D01*
X94182780Y-145949630D01*
X94122454Y-145958962D01*
X93997054Y-145976913D01*
X93897319Y-145993323D01*
X93819000Y-146009612D01*
X93757847Y-146027202D01*
X93709613Y-146047513D01*
X93670049Y-146071967D01*
X93634906Y-146101984D01*
X93606665Y-146131460D01*
X93573162Y-146172531D01*
X93556673Y-146207846D01*
X93551517Y-146251357D01*
X93551330Y-146267292D01*
X93555202Y-146320169D01*
X93570681Y-146359507D01*
X93597469Y-146394424D01*
X93651913Y-146447798D01*
X93712624Y-146488502D01*
X93784112Y-146517864D01*
X93870890Y-146537211D01*
X93977468Y-146547870D01*
X94108357Y-146551169D01*
X94129969Y-146551113D01*
X94217252Y-146549304D01*
X94303813Y-146545193D01*
X94380216Y-146539370D01*
X94437024Y-146532425D01*
X94441618Y-146531628D01*
X94498099Y-146518248D01*
X94546006Y-146501346D01*
X94573127Y-146485895D01*
X94598365Y-146445130D01*
X94600123Y-146397662D01*
X94578366Y-146355359D01*
X94573498Y-146350576D01*
X94553376Y-146336363D01*
X94528212Y-146330240D01*
X94489267Y-146331282D01*
X94441989Y-146336698D01*
X94389159Y-146341537D01*
X94315102Y-146345619D01*
X94228645Y-146348582D01*
X94138617Y-146350061D01*
X94114939Y-146350158D01*
X94024576Y-146349794D01*
X93958443Y-146348040D01*
X93910721Y-146344287D01*
X93875592Y-146337927D01*
X93847236Y-146328351D01*
X93830195Y-146320375D01*
X93792750Y-146298229D01*
X93768875Y-146278172D01*
X93765386Y-146272487D01*
X93772747Y-146249009D01*
X93807741Y-146226281D01*
X93867942Y-146205334D01*
X93950925Y-146187200D01*
X93975374Y-146183161D01*
X94103076Y-146163103D01*
X94204994Y-146146338D01*
X94285060Y-146131647D01*
X94347208Y-146117812D01*
X94395372Y-146103615D01*
X94433486Y-146087837D01*
X94465484Y-146069260D01*
X94495298Y-146046666D01*
X94526864Y-146018837D01*
X94537486Y-146009080D01*
X94574727Y-145972666D01*
X94594441Y-145943816D01*
X94602153Y-145910802D01*
X94603401Y-145869199D01*
X94589669Y-145787615D01*
X94548632Y-145718298D01*
X94480524Y-145661472D01*
X94385581Y-145617361D01*
X94317838Y-145597576D01*
X94244213Y-145584797D01*
X94156015Y-145577568D01*
X94058630Y-145575479D01*
X93957442Y-145578121D01*
G37*
X93957442Y-145578121D02*
X93857837Y-145585084D01*
X93765198Y-145595959D01*
X93684912Y-145610338D01*
X93622362Y-145627810D01*
X93582935Y-145647966D01*
X93576883Y-145653899D01*
X93555838Y-145699939D01*
X93562220Y-145747204D01*
X93594861Y-145787642D01*
X93596418Y-145788801D01*
X93615617Y-145801261D01*
X93635659Y-145807813D01*
X93663614Y-145808608D01*
X93706553Y-145803800D01*
X93771545Y-145793539D01*
X93776773Y-145792675D01*
X93873615Y-145780778D01*
X93978098Y-145774909D01*
X94082889Y-145774852D01*
X94180656Y-145780391D01*
X94264066Y-145791309D01*
X94325787Y-145807389D01*
X94329842Y-145809005D01*
X94374618Y-145834093D01*
X94390350Y-145859482D01*
X94378034Y-145884451D01*
X94338669Y-145908280D01*
X94273252Y-145930246D01*
X94182780Y-145949630D01*
X94122454Y-145958962D01*
X93997054Y-145976913D01*
X93897319Y-145993323D01*
X93819000Y-146009612D01*
X93757847Y-146027202D01*
X93709613Y-146047513D01*
X93670049Y-146071967D01*
X93634906Y-146101984D01*
X93606665Y-146131460D01*
X93573162Y-146172531D01*
X93556673Y-146207846D01*
X93551517Y-146251357D01*
X93551330Y-146267292D01*
X93555202Y-146320169D01*
X93570681Y-146359507D01*
X93597469Y-146394424D01*
X93651913Y-146447798D01*
X93712624Y-146488502D01*
X93784112Y-146517864D01*
X93870890Y-146537211D01*
X93977468Y-146547870D01*
X94108357Y-146551169D01*
X94129969Y-146551113D01*
X94217252Y-146549304D01*
X94303813Y-146545193D01*
X94380216Y-146539370D01*
X94437024Y-146532425D01*
X94441618Y-146531628D01*
X94498099Y-146518248D01*
X94546006Y-146501346D01*
X94573127Y-146485895D01*
X94598365Y-146445130D01*
X94600123Y-146397662D01*
X94578366Y-146355359D01*
X94573498Y-146350576D01*
X94553376Y-146336363D01*
X94528212Y-146330240D01*
X94489267Y-146331282D01*
X94441989Y-146336698D01*
X94389159Y-146341537D01*
X94315102Y-146345619D01*
X94228645Y-146348582D01*
X94138617Y-146350061D01*
X94114939Y-146350158D01*
X94024576Y-146349794D01*
X93958443Y-146348040D01*
X93910721Y-146344287D01*
X93875592Y-146337927D01*
X93847236Y-146328351D01*
X93830195Y-146320375D01*
X93792750Y-146298229D01*
X93768875Y-146278172D01*
X93765386Y-146272487D01*
X93772747Y-146249009D01*
X93807741Y-146226281D01*
X93867942Y-146205334D01*
X93950925Y-146187200D01*
X93975374Y-146183161D01*
X94103076Y-146163103D01*
X94204994Y-146146338D01*
X94285060Y-146131647D01*
X94347208Y-146117812D01*
X94395372Y-146103615D01*
X94433486Y-146087837D01*
X94465484Y-146069260D01*
X94495298Y-146046666D01*
X94526864Y-146018837D01*
X94537486Y-146009080D01*
X94574727Y-145972666D01*
X94594441Y-145943816D01*
X94602153Y-145910802D01*
X94603401Y-145869199D01*
X94589669Y-145787615D01*
X94548632Y-145718298D01*
X94480524Y-145661472D01*
X94385581Y-145617361D01*
X94317838Y-145597576D01*
X94244213Y-145584797D01*
X94156015Y-145577568D01*
X94058630Y-145575479D01*
X93957442Y-145578121D01*
G36*
X92935117Y-145606470D02*
G01*
X92926355Y-145616552D01*
X92919482Y-145629559D01*
X92914269Y-145648975D01*
X92910488Y-145678284D01*
X92907910Y-145720971D01*
X92906307Y-145780519D01*
X92905449Y-145860414D01*
X92905110Y-145964140D01*
X92905057Y-146064872D01*
X92905150Y-146189816D01*
X92905581Y-146288185D01*
X92906577Y-146363465D01*
X92908369Y-146419138D01*
X92911183Y-146458690D01*
X92915250Y-146485605D01*
X92920796Y-146503367D01*
X92928051Y-146515461D01*
X92935117Y-146523274D01*
X92979056Y-146549476D01*
X93025874Y-146547125D01*
X93067763Y-146518548D01*
X93077388Y-146507391D01*
X93084909Y-146494447D01*
X93090588Y-146476136D01*
X93094681Y-146448882D01*
X93097449Y-146409104D01*
X93099150Y-146353226D01*
X93100043Y-146277668D01*
X93100387Y-146178852D01*
X93100442Y-146066978D01*
X93100442Y-145650192D01*
X93063551Y-145613301D01*
X93018079Y-145582264D01*
X92973970Y-145581145D01*
X92935117Y-145606470D01*
G37*
X92935117Y-145606470D02*
X92926355Y-145616552D01*
X92919482Y-145629559D01*
X92914269Y-145648975D01*
X92910488Y-145678284D01*
X92907910Y-145720971D01*
X92906307Y-145780519D01*
X92905449Y-145860414D01*
X92905110Y-145964140D01*
X92905057Y-146064872D01*
X92905150Y-146189816D01*
X92905581Y-146288185D01*
X92906577Y-146363465D01*
X92908369Y-146419138D01*
X92911183Y-146458690D01*
X92915250Y-146485605D01*
X92920796Y-146503367D01*
X92928051Y-146515461D01*
X92935117Y-146523274D01*
X92979056Y-146549476D01*
X93025874Y-146547125D01*
X93067763Y-146518548D01*
X93077388Y-146507391D01*
X93084909Y-146494447D01*
X93090588Y-146476136D01*
X93094681Y-146448882D01*
X93097449Y-146409104D01*
X93099150Y-146353226D01*
X93100043Y-146277668D01*
X93100387Y-146178852D01*
X93100442Y-146066978D01*
X93100442Y-145650192D01*
X93063551Y-145613301D01*
X93018079Y-145582264D01*
X92973970Y-145581145D01*
X92935117Y-145606470D01*
G36*
X91638716Y-145583776D02*
G01*
X91547495Y-145599082D01*
X91477436Y-145622875D01*
X91431858Y-145654204D01*
X91419438Y-145672078D01*
X91406808Y-145713649D01*
X91415307Y-145751256D01*
X91442139Y-145786919D01*
X91483830Y-145803603D01*
X91544324Y-145802248D01*
X91591113Y-145793209D01*
X91695082Y-145775987D01*
X91801334Y-145774351D01*
X91920263Y-145788329D01*
X91953114Y-145794252D01*
X92063699Y-145825431D01*
X92150213Y-145871810D01*
X92211707Y-145932599D01*
X92247232Y-146007008D01*
X92254579Y-146045478D01*
X92249770Y-146123527D01*
X92218720Y-146192581D01*
X92164260Y-146251293D01*
X92089218Y-146298317D01*
X91996424Y-146332307D01*
X91888706Y-146351918D01*
X91768895Y-146355805D01*
X91639819Y-146342620D01*
X91632531Y-146341376D01*
X91581192Y-146331814D01*
X91552726Y-146322578D01*
X91540388Y-146308873D01*
X91537432Y-146285906D01*
X91537365Y-146273743D01*
X91537365Y-146222683D01*
X91628531Y-146222683D01*
X91709036Y-146217168D01*
X91763975Y-146199594D01*
X91795940Y-146168417D01*
X91807526Y-146122094D01*
X91807667Y-146116048D01*
X91800889Y-146076453D01*
X91777645Y-146048181D01*
X91734384Y-146029471D01*
X91667555Y-146018564D01*
X91602824Y-146014554D01*
X91508741Y-146012253D01*
X91440498Y-146015764D01*
X91393955Y-146028719D01*
X91364972Y-146054750D01*
X91349409Y-146097491D01*
X91343125Y-146160574D01*
X91341980Y-146243428D01*
X91343856Y-146335910D01*
X91349500Y-146398818D01*
X91358936Y-146432403D01*
X91360767Y-146435033D01*
X91412579Y-146476998D01*
X91488544Y-146510232D01*
X91583846Y-146534023D01*
X91693670Y-146547663D01*
X91813200Y-146550442D01*
X91937620Y-146541649D01*
X92010797Y-146530849D01*
X92125574Y-146498362D01*
X92232250Y-146445250D01*
X92321565Y-146376319D01*
X92335140Y-146362542D01*
X92379246Y-146304622D01*
X92419043Y-146232840D01*
X92449881Y-146157583D01*
X92467111Y-146089241D01*
X92469188Y-146062993D01*
X92460347Y-146008241D01*
X92436849Y-145940119D01*
X92403203Y-145868414D01*
X92363918Y-145802913D01*
X92329209Y-145759162D01*
X92248057Y-145694083D01*
X92143152Y-145642285D01*
X92018254Y-145604938D01*
X91877121Y-145583217D01*
X91747779Y-145577909D01*
X91638716Y-145583776D01*
G37*
X91638716Y-145583776D02*
X91547495Y-145599082D01*
X91477436Y-145622875D01*
X91431858Y-145654204D01*
X91419438Y-145672078D01*
X91406808Y-145713649D01*
X91415307Y-145751256D01*
X91442139Y-145786919D01*
X91483830Y-145803603D01*
X91544324Y-145802248D01*
X91591113Y-145793209D01*
X91695082Y-145775987D01*
X91801334Y-145774351D01*
X91920263Y-145788329D01*
X91953114Y-145794252D01*
X92063699Y-145825431D01*
X92150213Y-145871810D01*
X92211707Y-145932599D01*
X92247232Y-146007008D01*
X92254579Y-146045478D01*
X92249770Y-146123527D01*
X92218720Y-146192581D01*
X92164260Y-146251293D01*
X92089218Y-146298317D01*
X91996424Y-146332307D01*
X91888706Y-146351918D01*
X91768895Y-146355805D01*
X91639819Y-146342620D01*
X91632531Y-146341376D01*
X91581192Y-146331814D01*
X91552726Y-146322578D01*
X91540388Y-146308873D01*
X91537432Y-146285906D01*
X91537365Y-146273743D01*
X91537365Y-146222683D01*
X91628531Y-146222683D01*
X91709036Y-146217168D01*
X91763975Y-146199594D01*
X91795940Y-146168417D01*
X91807526Y-146122094D01*
X91807667Y-146116048D01*
X91800889Y-146076453D01*
X91777645Y-146048181D01*
X91734384Y-146029471D01*
X91667555Y-146018564D01*
X91602824Y-146014554D01*
X91508741Y-146012253D01*
X91440498Y-146015764D01*
X91393955Y-146028719D01*
X91364972Y-146054750D01*
X91349409Y-146097491D01*
X91343125Y-146160574D01*
X91341980Y-146243428D01*
X91343856Y-146335910D01*
X91349500Y-146398818D01*
X91358936Y-146432403D01*
X91360767Y-146435033D01*
X91412579Y-146476998D01*
X91488544Y-146510232D01*
X91583846Y-146534023D01*
X91693670Y-146547663D01*
X91813200Y-146550442D01*
X91937620Y-146541649D01*
X92010797Y-146530849D01*
X92125574Y-146498362D01*
X92232250Y-146445250D01*
X92321565Y-146376319D01*
X92335140Y-146362542D01*
X92379246Y-146304622D01*
X92419043Y-146232840D01*
X92449881Y-146157583D01*
X92467111Y-146089241D01*
X92469188Y-146062993D01*
X92460347Y-146008241D01*
X92436849Y-145940119D01*
X92403203Y-145868414D01*
X92363918Y-145802913D01*
X92329209Y-145759162D01*
X92248057Y-145694083D01*
X92143152Y-145642285D01*
X92018254Y-145604938D01*
X91877121Y-145583217D01*
X91747779Y-145577909D01*
X91638716Y-145583776D01*
G36*
X90773374Y-145582244D02*
G01*
X90741999Y-145600649D01*
X90700976Y-145630749D01*
X90648178Y-145673960D01*
X90581479Y-145731702D01*
X90498753Y-145805392D01*
X90397874Y-145896448D01*
X90282395Y-146001138D01*
X90041921Y-146219207D01*
X90034406Y-145926508D01*
X90031693Y-145825754D01*
X90029076Y-145750722D01*
X90025974Y-145697084D01*
X90021810Y-145660510D01*
X90016005Y-145636671D01*
X90007978Y-145621238D01*
X89997151Y-145609882D01*
X89991410Y-145605110D01*
X89945437Y-145579877D01*
X89901691Y-145583566D01*
X89866989Y-145605123D01*
X89831507Y-145633835D01*
X89827094Y-146053150D01*
X89825873Y-146176471D01*
X89825251Y-146273348D01*
X89825444Y-146347394D01*
X89826668Y-146402221D01*
X89829138Y-146441443D01*
X89833068Y-146468673D01*
X89838674Y-146487523D01*
X89846172Y-146501605D01*
X89854487Y-146512899D01*
X89872476Y-146533846D01*
X89890375Y-146547731D01*
X89910666Y-146553060D01*
X89935832Y-146548340D01*
X89968354Y-146532077D01*
X90010717Y-146502777D01*
X90065402Y-146458946D01*
X90134891Y-146399091D01*
X90221669Y-146321718D01*
X90319969Y-146232814D01*
X90673164Y-145912435D01*
X90680679Y-146204177D01*
X90683397Y-146304747D01*
X90686021Y-146379604D01*
X90689133Y-146433084D01*
X90693316Y-146469526D01*
X90699151Y-146493268D01*
X90707220Y-146508646D01*
X90718105Y-146520000D01*
X90723675Y-146524626D01*
X90772910Y-146550042D01*
X90819431Y-146546209D01*
X90859943Y-146513733D01*
X90869210Y-146500667D01*
X90876433Y-146485409D01*
X90881866Y-146464296D01*
X90885762Y-146433669D01*
X90888375Y-146389866D01*
X90889961Y-146329227D01*
X90890772Y-146248091D01*
X90891062Y-146142797D01*
X90891093Y-146064872D01*
X90890995Y-145942988D01*
X90890533Y-145847503D01*
X90889451Y-145774755D01*
X90887497Y-145721083D01*
X90884416Y-145682827D01*
X90879954Y-145656327D01*
X90873857Y-145637920D01*
X90865871Y-145623948D01*
X90859943Y-145616011D01*
X90844916Y-145597212D01*
X90830872Y-145583017D01*
X90815684Y-145574846D01*
X90797227Y-145574116D01*
X90773374Y-145582244D01*
G37*
X90773374Y-145582244D02*
X90741999Y-145600649D01*
X90700976Y-145630749D01*
X90648178Y-145673960D01*
X90581479Y-145731702D01*
X90498753Y-145805392D01*
X90397874Y-145896448D01*
X90282395Y-146001138D01*
X90041921Y-146219207D01*
X90034406Y-145926508D01*
X90031693Y-145825754D01*
X90029076Y-145750722D01*
X90025974Y-145697084D01*
X90021810Y-145660510D01*
X90016005Y-145636671D01*
X90007978Y-145621238D01*
X89997151Y-145609882D01*
X89991410Y-145605110D01*
X89945437Y-145579877D01*
X89901691Y-145583566D01*
X89866989Y-145605123D01*
X89831507Y-145633835D01*
X89827094Y-146053150D01*
X89825873Y-146176471D01*
X89825251Y-146273348D01*
X89825444Y-146347394D01*
X89826668Y-146402221D01*
X89829138Y-146441443D01*
X89833068Y-146468673D01*
X89838674Y-146487523D01*
X89846172Y-146501605D01*
X89854487Y-146512899D01*
X89872476Y-146533846D01*
X89890375Y-146547731D01*
X89910666Y-146553060D01*
X89935832Y-146548340D01*
X89968354Y-146532077D01*
X90010717Y-146502777D01*
X90065402Y-146458946D01*
X90134891Y-146399091D01*
X90221669Y-146321718D01*
X90319969Y-146232814D01*
X90673164Y-145912435D01*
X90680679Y-146204177D01*
X90683397Y-146304747D01*
X90686021Y-146379604D01*
X90689133Y-146433084D01*
X90693316Y-146469526D01*
X90699151Y-146493268D01*
X90707220Y-146508646D01*
X90718105Y-146520000D01*
X90723675Y-146524626D01*
X90772910Y-146550042D01*
X90819431Y-146546209D01*
X90859943Y-146513733D01*
X90869210Y-146500667D01*
X90876433Y-146485409D01*
X90881866Y-146464296D01*
X90885762Y-146433669D01*
X90888375Y-146389866D01*
X90889961Y-146329227D01*
X90890772Y-146248091D01*
X90891062Y-146142797D01*
X90891093Y-146064872D01*
X90890995Y-145942988D01*
X90890533Y-145847503D01*
X90889451Y-145774755D01*
X90887497Y-145721083D01*
X90884416Y-145682827D01*
X90879954Y-145656327D01*
X90873857Y-145637920D01*
X90865871Y-145623948D01*
X90859943Y-145616011D01*
X90844916Y-145597212D01*
X90830872Y-145583017D01*
X90815684Y-145574846D01*
X90797227Y-145574116D01*
X90773374Y-145582244D01*
G36*
X88735784Y-145576667D02*
G01*
X88634123Y-145577884D01*
X88556218Y-145580730D01*
X88498919Y-145585874D01*
X88459073Y-145593984D01*
X88433532Y-145605731D01*
X88419143Y-145621782D01*
X88412755Y-145642808D01*
X88411219Y-145669476D01*
X88411211Y-145672626D01*
X88412545Y-145702790D01*
X88418849Y-145726103D01*
X88433578Y-145743506D01*
X88460185Y-145755940D01*
X88502126Y-145764345D01*
X88562854Y-145769665D01*
X88645824Y-145772839D01*
X88754489Y-145774809D01*
X88787795Y-145775245D01*
X89110087Y-145779310D01*
X89114594Y-145865730D01*
X89119102Y-145952150D01*
X88895237Y-145952150D01*
X88807779Y-145952473D01*
X88745331Y-145953837D01*
X88702846Y-145956839D01*
X88675277Y-145962073D01*
X88657578Y-145970135D01*
X88644703Y-145981620D01*
X88644620Y-145981711D01*
X88621270Y-146026471D01*
X88622114Y-146074847D01*
X88646621Y-146116086D01*
X88651471Y-146120325D01*
X88668685Y-146131249D01*
X88692274Y-146138849D01*
X88727493Y-146143697D01*
X88779600Y-146146366D01*
X88853850Y-146147428D01*
X88901338Y-146147535D01*
X89117602Y-146147535D01*
X89117602Y-146357949D01*
X88789280Y-146357949D01*
X88680882Y-146358139D01*
X88598565Y-146358914D01*
X88538351Y-146360584D01*
X88496265Y-146363458D01*
X88468329Y-146367847D01*
X88450566Y-146374059D01*
X88439000Y-146382404D01*
X88436085Y-146385434D01*
X88414564Y-146427434D01*
X88412990Y-146475214D01*
X88430645Y-146516642D01*
X88444615Y-146529937D01*
X88459146Y-146537256D01*
X88481662Y-146542919D01*
X88515724Y-146547123D01*
X88564893Y-146550068D01*
X88632732Y-146551951D01*
X88722802Y-146552970D01*
X88838663Y-146553325D01*
X88864857Y-146553334D01*
X88982661Y-146553256D01*
X89074104Y-146552831D01*
X89142886Y-146551766D01*
X89192704Y-146549769D01*
X89227260Y-146546550D01*
X89250250Y-146541816D01*
X89265374Y-146535277D01*
X89276331Y-146526641D01*
X89282342Y-146520440D01*
X89291390Y-146509457D01*
X89298458Y-146495852D01*
X89303791Y-146476056D01*
X89307632Y-146446502D01*
X89310225Y-146403621D01*
X89311813Y-146343845D01*
X89312639Y-146263607D01*
X89312948Y-146159339D01*
X89312986Y-146071580D01*
X89312892Y-145948608D01*
X89312443Y-145852069D01*
X89311392Y-145778339D01*
X89309490Y-145723790D01*
X89306491Y-145684799D01*
X89302145Y-145657739D01*
X89296206Y-145638984D01*
X89288425Y-145624910D01*
X89281836Y-145616011D01*
X89250686Y-145576410D01*
X88864352Y-145576410D01*
X88735784Y-145576667D01*
G37*
X88735784Y-145576667D02*
X88634123Y-145577884D01*
X88556218Y-145580730D01*
X88498919Y-145585874D01*
X88459073Y-145593984D01*
X88433532Y-145605731D01*
X88419143Y-145621782D01*
X88412755Y-145642808D01*
X88411219Y-145669476D01*
X88411211Y-145672626D01*
X88412545Y-145702790D01*
X88418849Y-145726103D01*
X88433578Y-145743506D01*
X88460185Y-145755940D01*
X88502126Y-145764345D01*
X88562854Y-145769665D01*
X88645824Y-145772839D01*
X88754489Y-145774809D01*
X88787795Y-145775245D01*
X89110087Y-145779310D01*
X89114594Y-145865730D01*
X89119102Y-145952150D01*
X88895237Y-145952150D01*
X88807779Y-145952473D01*
X88745331Y-145953837D01*
X88702846Y-145956839D01*
X88675277Y-145962073D01*
X88657578Y-145970135D01*
X88644703Y-145981620D01*
X88644620Y-145981711D01*
X88621270Y-146026471D01*
X88622114Y-146074847D01*
X88646621Y-146116086D01*
X88651471Y-146120325D01*
X88668685Y-146131249D01*
X88692274Y-146138849D01*
X88727493Y-146143697D01*
X88779600Y-146146366D01*
X88853850Y-146147428D01*
X88901338Y-146147535D01*
X89117602Y-146147535D01*
X89117602Y-146357949D01*
X88789280Y-146357949D01*
X88680882Y-146358139D01*
X88598565Y-146358914D01*
X88538351Y-146360584D01*
X88496265Y-146363458D01*
X88468329Y-146367847D01*
X88450566Y-146374059D01*
X88439000Y-146382404D01*
X88436085Y-146385434D01*
X88414564Y-146427434D01*
X88412990Y-146475214D01*
X88430645Y-146516642D01*
X88444615Y-146529937D01*
X88459146Y-146537256D01*
X88481662Y-146542919D01*
X88515724Y-146547123D01*
X88564893Y-146550068D01*
X88632732Y-146551951D01*
X88722802Y-146552970D01*
X88838663Y-146553325D01*
X88864857Y-146553334D01*
X88982661Y-146553256D01*
X89074104Y-146552831D01*
X89142886Y-146551766D01*
X89192704Y-146549769D01*
X89227260Y-146546550D01*
X89250250Y-146541816D01*
X89265374Y-146535277D01*
X89276331Y-146526641D01*
X89282342Y-146520440D01*
X89291390Y-146509457D01*
X89298458Y-146495852D01*
X89303791Y-146476056D01*
X89307632Y-146446502D01*
X89310225Y-146403621D01*
X89311813Y-146343845D01*
X89312639Y-146263607D01*
X89312948Y-146159339D01*
X89312986Y-146071580D01*
X89312892Y-145948608D01*
X89312443Y-145852069D01*
X89311392Y-145778339D01*
X89309490Y-145723790D01*
X89306491Y-145684799D01*
X89302145Y-145657739D01*
X89296206Y-145638984D01*
X89288425Y-145624910D01*
X89281836Y-145616011D01*
X89250686Y-145576410D01*
X88864352Y-145576410D01*
X88735784Y-145576667D01*
G36*
X87686717Y-145576687D02*
G01*
X87514999Y-145582493D01*
X87368945Y-145600101D01*
X87246147Y-145630563D01*
X87144197Y-145674935D01*
X87060686Y-145734271D01*
X86993207Y-145809624D01*
X86939351Y-145902050D01*
X86938292Y-145904304D01*
X86906151Y-145987024D01*
X86894699Y-146060284D01*
X86903980Y-146134012D01*
X86934039Y-146218135D01*
X86939739Y-146230937D01*
X86978615Y-146305862D01*
X87022305Y-146363757D01*
X87078694Y-146412972D01*
X87155662Y-146461857D01*
X87160134Y-146464409D01*
X87227137Y-146496595D01*
X87302869Y-146520632D01*
X87392196Y-146537351D01*
X87499985Y-146547579D01*
X87631102Y-146552146D01*
X87677428Y-146552543D01*
X87898024Y-146553334D01*
X87929174Y-146513733D01*
X87938414Y-146500711D01*
X87945622Y-146485504D01*
X87951050Y-146464466D01*
X87954949Y-146433950D01*
X87957571Y-146390311D01*
X87958426Y-146357949D01*
X87749909Y-146357949D01*
X87624918Y-146357949D01*
X87551777Y-146355810D01*
X87476693Y-146350181D01*
X87415070Y-146342243D01*
X87411351Y-146341575D01*
X87301901Y-146312212D01*
X87217006Y-146268097D01*
X87153982Y-146207183D01*
X87110140Y-146127424D01*
X87102517Y-146106284D01*
X87095044Y-146073362D01*
X87098279Y-146040836D01*
X87114021Y-145997564D01*
X87123510Y-145976307D01*
X87154583Y-145919820D01*
X87192021Y-145880191D01*
X87233213Y-145852594D01*
X87315724Y-145816682D01*
X87421321Y-145790668D01*
X87544336Y-145775688D01*
X87633430Y-145772392D01*
X87749909Y-145771795D01*
X87749909Y-146357949D01*
X87958426Y-146357949D01*
X87959168Y-146329900D01*
X87959990Y-146249072D01*
X87960290Y-146144181D01*
X87960324Y-146062162D01*
X87960324Y-145650192D01*
X87923433Y-145613301D01*
X87907060Y-145598348D01*
X87889357Y-145588108D01*
X87864635Y-145581701D01*
X87827206Y-145578247D01*
X87771381Y-145576867D01*
X87691472Y-145576681D01*
X87686717Y-145576687D01*
G37*
X87686717Y-145576687D02*
X87514999Y-145582493D01*
X87368945Y-145600101D01*
X87246147Y-145630563D01*
X87144197Y-145674935D01*
X87060686Y-145734271D01*
X86993207Y-145809624D01*
X86939351Y-145902050D01*
X86938292Y-145904304D01*
X86906151Y-145987024D01*
X86894699Y-146060284D01*
X86903980Y-146134012D01*
X86934039Y-146218135D01*
X86939739Y-146230937D01*
X86978615Y-146305862D01*
X87022305Y-146363757D01*
X87078694Y-146412972D01*
X87155662Y-146461857D01*
X87160134Y-146464409D01*
X87227137Y-146496595D01*
X87302869Y-146520632D01*
X87392196Y-146537351D01*
X87499985Y-146547579D01*
X87631102Y-146552146D01*
X87677428Y-146552543D01*
X87898024Y-146553334D01*
X87929174Y-146513733D01*
X87938414Y-146500711D01*
X87945622Y-146485504D01*
X87951050Y-146464466D01*
X87954949Y-146433950D01*
X87957571Y-146390311D01*
X87958426Y-146357949D01*
X87749909Y-146357949D01*
X87624918Y-146357949D01*
X87551777Y-146355810D01*
X87476693Y-146350181D01*
X87415070Y-146342243D01*
X87411351Y-146341575D01*
X87301901Y-146312212D01*
X87217006Y-146268097D01*
X87153982Y-146207183D01*
X87110140Y-146127424D01*
X87102517Y-146106284D01*
X87095044Y-146073362D01*
X87098279Y-146040836D01*
X87114021Y-145997564D01*
X87123510Y-145976307D01*
X87154583Y-145919820D01*
X87192021Y-145880191D01*
X87233213Y-145852594D01*
X87315724Y-145816682D01*
X87421321Y-145790668D01*
X87544336Y-145775688D01*
X87633430Y-145772392D01*
X87749909Y-145771795D01*
X87749909Y-146357949D01*
X87958426Y-146357949D01*
X87959168Y-146329900D01*
X87959990Y-146249072D01*
X87960290Y-146144181D01*
X87960324Y-146062162D01*
X87960324Y-145650192D01*
X87923433Y-145613301D01*
X87907060Y-145598348D01*
X87889357Y-145588108D01*
X87864635Y-145581701D01*
X87827206Y-145578247D01*
X87771381Y-145576867D01*
X87691472Y-145576681D01*
X87686717Y-145576687D01*
G36*
X84056953Y-145579030D02*
G01*
X84030872Y-145588350D01*
X84029866Y-145588806D01*
X83994448Y-145615834D01*
X83974934Y-145643636D01*
X83971116Y-145656672D01*
X83971305Y-145673992D01*
X83976678Y-145698667D01*
X83988412Y-145733764D01*
X84007687Y-145782353D01*
X84035678Y-145847502D01*
X84073564Y-145932281D01*
X84122522Y-146039759D01*
X84149469Y-146098503D01*
X84198130Y-146203373D01*
X84243810Y-146299814D01*
X84284766Y-146384298D01*
X84319254Y-146453300D01*
X84345531Y-146503294D01*
X84361854Y-146530754D01*
X84365084Y-146534547D01*
X84406411Y-146551280D01*
X84453091Y-146549039D01*
X84490530Y-146528687D01*
X84492056Y-146527032D01*
X84506949Y-146504486D01*
X84531931Y-146460571D01*
X84563921Y-146400940D01*
X84599840Y-146331246D01*
X84612748Y-146305563D01*
X84710186Y-146110397D01*
X84816394Y-146322407D01*
X84854303Y-146395661D01*
X84889473Y-146459190D01*
X84919032Y-146508131D01*
X84940106Y-146537622D01*
X84947248Y-146543876D01*
X85002762Y-146552345D01*
X85048571Y-146534547D01*
X85062046Y-146515525D01*
X85085364Y-146473249D01*
X85116623Y-146411880D01*
X85153920Y-146335576D01*
X85195354Y-146248499D01*
X85239022Y-146154807D01*
X85283022Y-146058661D01*
X85325452Y-145964221D01*
X85364410Y-145875645D01*
X85397993Y-145797096D01*
X85424299Y-145732731D01*
X85441426Y-145686711D01*
X85447471Y-145663197D01*
X85447409Y-145662345D01*
X85432700Y-145632756D01*
X85403298Y-145602620D01*
X85401567Y-145601308D01*
X85365430Y-145580882D01*
X85332006Y-145581080D01*
X85319478Y-145584931D01*
X85304213Y-145593253D01*
X85288002Y-145609625D01*
X85268901Y-145637442D01*
X85244965Y-145680100D01*
X85214249Y-145740995D01*
X85174809Y-145823525D01*
X85139242Y-145899707D01*
X85098323Y-145988014D01*
X85061656Y-146067426D01*
X85031146Y-146133796D01*
X85008698Y-146182975D01*
X84996217Y-146210813D01*
X84994397Y-146215168D01*
X84986210Y-146208049D01*
X84967395Y-146178241D01*
X84940454Y-146130096D01*
X84907892Y-146067963D01*
X84894934Y-146042328D01*
X84851040Y-145955765D01*
X84817189Y-145892725D01*
X84790603Y-145849542D01*
X84768505Y-145822552D01*
X84748116Y-145808088D01*
X84726660Y-145802487D01*
X84712677Y-145801854D01*
X84688012Y-145804040D01*
X84666398Y-145813079D01*
X84644922Y-145832697D01*
X84620670Y-145866617D01*
X84590730Y-145918562D01*
X84552187Y-145992258D01*
X84530922Y-146034180D01*
X84496428Y-146100994D01*
X84466344Y-146156401D01*
X84443323Y-146195727D01*
X84430020Y-146214296D01*
X84428211Y-146215069D01*
X84419620Y-146200455D01*
X84400386Y-146162507D01*
X84372435Y-146105196D01*
X84337693Y-146032496D01*
X84298087Y-145948376D01*
X84278604Y-145906594D01*
X84227920Y-145798763D01*
X84187107Y-145715790D01*
X84154046Y-145654966D01*
X84126619Y-145613585D01*
X84102708Y-145588940D01*
X84080192Y-145578324D01*
X84056953Y-145579030D01*
G37*
X84056953Y-145579030D02*
X84030872Y-145588350D01*
X84029866Y-145588806D01*
X83994448Y-145615834D01*
X83974934Y-145643636D01*
X83971116Y-145656672D01*
X83971305Y-145673992D01*
X83976678Y-145698667D01*
X83988412Y-145733764D01*
X84007687Y-145782353D01*
X84035678Y-145847502D01*
X84073564Y-145932281D01*
X84122522Y-146039759D01*
X84149469Y-146098503D01*
X84198130Y-146203373D01*
X84243810Y-146299814D01*
X84284766Y-146384298D01*
X84319254Y-146453300D01*
X84345531Y-146503294D01*
X84361854Y-146530754D01*
X84365084Y-146534547D01*
X84406411Y-146551280D01*
X84453091Y-146549039D01*
X84490530Y-146528687D01*
X84492056Y-146527032D01*
X84506949Y-146504486D01*
X84531931Y-146460571D01*
X84563921Y-146400940D01*
X84599840Y-146331246D01*
X84612748Y-146305563D01*
X84710186Y-146110397D01*
X84816394Y-146322407D01*
X84854303Y-146395661D01*
X84889473Y-146459190D01*
X84919032Y-146508131D01*
X84940106Y-146537622D01*
X84947248Y-146543876D01*
X85002762Y-146552345D01*
X85048571Y-146534547D01*
X85062046Y-146515525D01*
X85085364Y-146473249D01*
X85116623Y-146411880D01*
X85153920Y-146335576D01*
X85195354Y-146248499D01*
X85239022Y-146154807D01*
X85283022Y-146058661D01*
X85325452Y-145964221D01*
X85364410Y-145875645D01*
X85397993Y-145797096D01*
X85424299Y-145732731D01*
X85441426Y-145686711D01*
X85447471Y-145663197D01*
X85447409Y-145662345D01*
X85432700Y-145632756D01*
X85403298Y-145602620D01*
X85401567Y-145601308D01*
X85365430Y-145580882D01*
X85332006Y-145581080D01*
X85319478Y-145584931D01*
X85304213Y-145593253D01*
X85288002Y-145609625D01*
X85268901Y-145637442D01*
X85244965Y-145680100D01*
X85214249Y-145740995D01*
X85174809Y-145823525D01*
X85139242Y-145899707D01*
X85098323Y-145988014D01*
X85061656Y-146067426D01*
X85031146Y-146133796D01*
X85008698Y-146182975D01*
X84996217Y-146210813D01*
X84994397Y-146215168D01*
X84986210Y-146208049D01*
X84967395Y-146178241D01*
X84940454Y-146130096D01*
X84907892Y-146067963D01*
X84894934Y-146042328D01*
X84851040Y-145955765D01*
X84817189Y-145892725D01*
X84790603Y-145849542D01*
X84768505Y-145822552D01*
X84748116Y-145808088D01*
X84726660Y-145802487D01*
X84712677Y-145801854D01*
X84688012Y-145804040D01*
X84666398Y-145813079D01*
X84644922Y-145832697D01*
X84620670Y-145866617D01*
X84590730Y-145918562D01*
X84552187Y-145992258D01*
X84530922Y-146034180D01*
X84496428Y-146100994D01*
X84466344Y-146156401D01*
X84443323Y-146195727D01*
X84430020Y-146214296D01*
X84428211Y-146215069D01*
X84419620Y-146200455D01*
X84400386Y-146162507D01*
X84372435Y-146105196D01*
X84337693Y-146032496D01*
X84298087Y-145948376D01*
X84278604Y-145906594D01*
X84227920Y-145798763D01*
X84187107Y-145715790D01*
X84154046Y-145654966D01*
X84126619Y-145613585D01*
X84102708Y-145588940D01*
X84080192Y-145578324D01*
X84056953Y-145579030D01*
G36*
X83465896Y-145585477D02*
G01*
X83434326Y-145605142D01*
X83398844Y-145633873D01*
X83398844Y-146061966D01*
X83398957Y-146187190D01*
X83399441Y-146285847D01*
X83400514Y-146361430D01*
X83402392Y-146417433D01*
X83405294Y-146457347D01*
X83409437Y-146484666D01*
X83415038Y-146502881D01*
X83422315Y-146515486D01*
X83427476Y-146521696D01*
X83469332Y-146548980D01*
X83516995Y-146547867D01*
X83558747Y-146524602D01*
X83594229Y-146495871D01*
X83594229Y-145633873D01*
X83558747Y-145605142D01*
X83524502Y-145584242D01*
X83496537Y-145576410D01*
X83465896Y-145585477D01*
G37*
X83465896Y-145585477D02*
X83434326Y-145605142D01*
X83398844Y-145633873D01*
X83398844Y-146061966D01*
X83398957Y-146187190D01*
X83399441Y-146285847D01*
X83400514Y-146361430D01*
X83402392Y-146417433D01*
X83405294Y-146457347D01*
X83409437Y-146484666D01*
X83415038Y-146502881D01*
X83422315Y-146515486D01*
X83427476Y-146521696D01*
X83469332Y-146548980D01*
X83516995Y-146547867D01*
X83558747Y-146524602D01*
X83594229Y-146495871D01*
X83594229Y-145633873D01*
X83558747Y-145605142D01*
X83524502Y-145584242D01*
X83496537Y-145576410D01*
X83465896Y-145585477D01*
G36*
X82434823Y-145576539D02*
G01*
X82330035Y-145577043D01*
X82248701Y-145578096D01*
X82187520Y-145579876D01*
X82143189Y-145582557D01*
X82112406Y-145586314D01*
X82091869Y-145591325D01*
X82078275Y-145597763D01*
X82071697Y-145602712D01*
X82037556Y-145646029D01*
X82033426Y-145691003D01*
X82054524Y-145731860D01*
X82068321Y-145748186D01*
X82083168Y-145759318D01*
X82104685Y-145766250D01*
X82138492Y-145769977D01*
X82190208Y-145771494D01*
X82265453Y-145771794D01*
X82280231Y-145771795D01*
X82474525Y-145771795D01*
X82474525Y-146132505D01*
X82474653Y-146246201D01*
X82475234Y-146333685D01*
X82476564Y-146398802D01*
X82478940Y-146445398D01*
X82482656Y-146477319D01*
X82488008Y-146498412D01*
X82495293Y-146512523D01*
X82504584Y-146523274D01*
X82548429Y-146549696D01*
X82594200Y-146547614D01*
X82635710Y-146517469D01*
X82638759Y-146513733D01*
X82648688Y-146499610D01*
X82656252Y-146483086D01*
X82661771Y-146460146D01*
X82665567Y-146426773D01*
X82667958Y-146378955D01*
X82669266Y-146312674D01*
X82669809Y-146223918D01*
X82669909Y-146122963D01*
X82669909Y-145771795D01*
X82855450Y-145771795D01*
X82935073Y-145771256D01*
X82990196Y-145769157D01*
X83026368Y-145764771D01*
X83049138Y-145757376D01*
X83064053Y-145746245D01*
X83065864Y-145744310D01*
X83087642Y-145700057D01*
X83085716Y-145650029D01*
X83060679Y-145606470D01*
X83050996Y-145598020D01*
X83038512Y-145591321D01*
X83019897Y-145586169D01*
X82991823Y-145582361D01*
X82950959Y-145579697D01*
X82893978Y-145577972D01*
X82817548Y-145576984D01*
X82718343Y-145576532D01*
X82593031Y-145576412D01*
X82566367Y-145576410D01*
X82434823Y-145576539D01*
G37*
X82434823Y-145576539D02*
X82330035Y-145577043D01*
X82248701Y-145578096D01*
X82187520Y-145579876D01*
X82143189Y-145582557D01*
X82112406Y-145586314D01*
X82091869Y-145591325D01*
X82078275Y-145597763D01*
X82071697Y-145602712D01*
X82037556Y-145646029D01*
X82033426Y-145691003D01*
X82054524Y-145731860D01*
X82068321Y-145748186D01*
X82083168Y-145759318D01*
X82104685Y-145766250D01*
X82138492Y-145769977D01*
X82190208Y-145771494D01*
X82265453Y-145771794D01*
X82280231Y-145771795D01*
X82474525Y-145771795D01*
X82474525Y-146132505D01*
X82474653Y-146246201D01*
X82475234Y-146333685D01*
X82476564Y-146398802D01*
X82478940Y-146445398D01*
X82482656Y-146477319D01*
X82488008Y-146498412D01*
X82495293Y-146512523D01*
X82504584Y-146523274D01*
X82548429Y-146549696D01*
X82594200Y-146547614D01*
X82635710Y-146517469D01*
X82638759Y-146513733D01*
X82648688Y-146499610D01*
X82656252Y-146483086D01*
X82661771Y-146460146D01*
X82665567Y-146426773D01*
X82667958Y-146378955D01*
X82669266Y-146312674D01*
X82669809Y-146223918D01*
X82669909Y-146122963D01*
X82669909Y-145771795D01*
X82855450Y-145771795D01*
X82935073Y-145771256D01*
X82990196Y-145769157D01*
X83026368Y-145764771D01*
X83049138Y-145757376D01*
X83064053Y-145746245D01*
X83065864Y-145744310D01*
X83087642Y-145700057D01*
X83085716Y-145650029D01*
X83060679Y-145606470D01*
X83050996Y-145598020D01*
X83038512Y-145591321D01*
X83019897Y-145586169D01*
X82991823Y-145582361D01*
X82950959Y-145579697D01*
X82893978Y-145577972D01*
X82817548Y-145576984D01*
X82718343Y-145576532D01*
X82593031Y-145576412D01*
X82566367Y-145576410D01*
X82434823Y-145576539D01*
G36*
X80749641Y-145583688D02*
G01*
X80707865Y-145613301D01*
X80670975Y-145650192D01*
X80670975Y-146062162D01*
X80671071Y-146184486D01*
X80671528Y-146280398D01*
X80672597Y-146353544D01*
X80674529Y-146407570D01*
X80677577Y-146446123D01*
X80681991Y-146472848D01*
X80688024Y-146491394D01*
X80695926Y-146505405D01*
X80702125Y-146513733D01*
X80743039Y-146546449D01*
X80790018Y-146550000D01*
X80832956Y-146529937D01*
X80847144Y-146518092D01*
X80856628Y-146502358D01*
X80862349Y-146477022D01*
X80865247Y-146436370D01*
X80866262Y-146374688D01*
X80866359Y-146327038D01*
X80866359Y-146147535D01*
X81527661Y-146147535D01*
X81527661Y-146310833D01*
X81528345Y-146385505D01*
X81531081Y-146436824D01*
X81536896Y-146471477D01*
X81546816Y-146496155D01*
X81558811Y-146513733D01*
X81599954Y-146546357D01*
X81646483Y-146550220D01*
X81691027Y-146527032D01*
X81703188Y-146514876D01*
X81711777Y-146498761D01*
X81717442Y-146473660D01*
X81720831Y-146434544D01*
X81722592Y-146376386D01*
X81723372Y-146294158D01*
X81723464Y-146275286D01*
X81724108Y-146120357D01*
X81724440Y-145992674D01*
X81724332Y-145889427D01*
X81723655Y-145807803D01*
X81722282Y-145744992D01*
X81720084Y-145698181D01*
X81716934Y-145664559D01*
X81712702Y-145641315D01*
X81707262Y-145625636D01*
X81700485Y-145614711D01*
X81692986Y-145606470D01*
X81650567Y-145580107D01*
X81606328Y-145583688D01*
X81564552Y-145613301D01*
X81547647Y-145632407D01*
X81536871Y-145653511D01*
X81530859Y-145683568D01*
X81528244Y-145729533D01*
X81527661Y-145798360D01*
X81527661Y-145952150D01*
X80866359Y-145952150D01*
X80866359Y-145794339D01*
X80865684Y-145721636D01*
X80862974Y-145672545D01*
X80857199Y-145640636D01*
X80847331Y-145619478D01*
X80836300Y-145606470D01*
X80793881Y-145580107D01*
X80749641Y-145583688D01*
G37*
X80749641Y-145583688D02*
X80707865Y-145613301D01*
X80670975Y-145650192D01*
X80670975Y-146062162D01*
X80671071Y-146184486D01*
X80671528Y-146280398D01*
X80672597Y-146353544D01*
X80674529Y-146407570D01*
X80677577Y-146446123D01*
X80681991Y-146472848D01*
X80688024Y-146491394D01*
X80695926Y-146505405D01*
X80702125Y-146513733D01*
X80743039Y-146546449D01*
X80790018Y-146550000D01*
X80832956Y-146529937D01*
X80847144Y-146518092D01*
X80856628Y-146502358D01*
X80862349Y-146477022D01*
X80865247Y-146436370D01*
X80866262Y-146374688D01*
X80866359Y-146327038D01*
X80866359Y-146147535D01*
X81527661Y-146147535D01*
X81527661Y-146310833D01*
X81528345Y-146385505D01*
X81531081Y-146436824D01*
X81536896Y-146471477D01*
X81546816Y-146496155D01*
X81558811Y-146513733D01*
X81599954Y-146546357D01*
X81646483Y-146550220D01*
X81691027Y-146527032D01*
X81703188Y-146514876D01*
X81711777Y-146498761D01*
X81717442Y-146473660D01*
X81720831Y-146434544D01*
X81722592Y-146376386D01*
X81723372Y-146294158D01*
X81723464Y-146275286D01*
X81724108Y-146120357D01*
X81724440Y-145992674D01*
X81724332Y-145889427D01*
X81723655Y-145807803D01*
X81722282Y-145744992D01*
X81720084Y-145698181D01*
X81716934Y-145664559D01*
X81712702Y-145641315D01*
X81707262Y-145625636D01*
X81700485Y-145614711D01*
X81692986Y-145606470D01*
X81650567Y-145580107D01*
X81606328Y-145583688D01*
X81564552Y-145613301D01*
X81547647Y-145632407D01*
X81536871Y-145653511D01*
X81530859Y-145683568D01*
X81528244Y-145729533D01*
X81527661Y-145798360D01*
X81527661Y-145952150D01*
X80866359Y-145952150D01*
X80866359Y-145794339D01*
X80865684Y-145721636D01*
X80862974Y-145672545D01*
X80857199Y-145640636D01*
X80847331Y-145619478D01*
X80836300Y-145606470D01*
X80793881Y-145580107D01*
X80749641Y-145583688D01*
G36*
X92819818Y-137053933D02*
G01*
X92683571Y-137101172D01*
X92556721Y-137175527D01*
X92443433Y-137276987D01*
X92347872Y-137405543D01*
X92304946Y-137486572D01*
X92267795Y-137599908D01*
X92249788Y-137730751D01*
X92251783Y-137865265D01*
X92273923Y-137987158D01*
X92334436Y-138136107D01*
X92422186Y-138265309D01*
X92532712Y-138372223D01*
X92661554Y-138454306D01*
X92804253Y-138509016D01*
X92956349Y-138533810D01*
X93113381Y-138526147D01*
X93190786Y-138509772D01*
X93341641Y-138451089D01*
X93475625Y-138361543D01*
X93589506Y-138243893D01*
X93680052Y-138100902D01*
X93687712Y-138085286D01*
X93714194Y-138026686D01*
X93730822Y-137977334D01*
X93739850Y-137925270D01*
X93743532Y-137858539D01*
X93744143Y-137785929D01*
X93743133Y-137698691D01*
X93738572Y-137635624D01*
X93728166Y-137584636D01*
X93709621Y-137533633D01*
X93686730Y-137483313D01*
X93601346Y-137340470D01*
X93496199Y-137224810D01*
X93375455Y-137136325D01*
X93243279Y-137075005D01*
X93103837Y-137040839D01*
X92961295Y-137033818D01*
X92819818Y-137053933D01*
G37*
X92819818Y-137053933D02*
X92683571Y-137101172D01*
X92556721Y-137175527D01*
X92443433Y-137276987D01*
X92347872Y-137405543D01*
X92304946Y-137486572D01*
X92267795Y-137599908D01*
X92249788Y-137730751D01*
X92251783Y-137865265D01*
X92273923Y-137987158D01*
X92334436Y-138136107D01*
X92422186Y-138265309D01*
X92532712Y-138372223D01*
X92661554Y-138454306D01*
X92804253Y-138509016D01*
X92956349Y-138533810D01*
X93113381Y-138526147D01*
X93190786Y-138509772D01*
X93341641Y-138451089D01*
X93475625Y-138361543D01*
X93589506Y-138243893D01*
X93680052Y-138100902D01*
X93687712Y-138085286D01*
X93714194Y-138026686D01*
X93730822Y-137977334D01*
X93739850Y-137925270D01*
X93743532Y-137858539D01*
X93744143Y-137785929D01*
X93743133Y-137698691D01*
X93738572Y-137635624D01*
X93728166Y-137584636D01*
X93709621Y-137533633D01*
X93686730Y-137483313D01*
X93601346Y-137340470D01*
X93496199Y-137224810D01*
X93375455Y-137136325D01*
X93243279Y-137075005D01*
X93103837Y-137040839D01*
X92961295Y-137033818D01*
X92819818Y-137053933D01*
G36*
X80175929Y-138270089D02*
G01*
X80021624Y-138270723D01*
X79969179Y-138271042D01*
X79248000Y-138275786D01*
X79238929Y-141042572D01*
X79237731Y-141417756D01*
X79236668Y-141758417D01*
X79235673Y-142066318D01*
X79234677Y-142343221D01*
X79233612Y-142590888D01*
X79232409Y-142811081D01*
X79231001Y-143005562D01*
X79229318Y-143176094D01*
X79227294Y-143324440D01*
X79224859Y-143452361D01*
X79221946Y-143561620D01*
X79218485Y-143653979D01*
X79214410Y-143731200D01*
X79209651Y-143795046D01*
X79204140Y-143847278D01*
X79197809Y-143889660D01*
X79190590Y-143923953D01*
X79182415Y-143951920D01*
X79173215Y-143975324D01*
X79162923Y-143995925D01*
X79151469Y-144015487D01*
X79138785Y-144035772D01*
X79124805Y-144058543D01*
X79121939Y-144063393D01*
X79073860Y-144145433D01*
X80463572Y-144135929D01*
X80472643Y-143983295D01*
X80477582Y-143910045D01*
X80482729Y-143867696D01*
X80489714Y-143850892D01*
X80500163Y-143854277D01*
X80508929Y-143863960D01*
X80547112Y-143899229D01*
X80609345Y-143944563D01*
X80686859Y-143994546D01*
X80770887Y-144043761D01*
X80852661Y-144086791D01*
X80915448Y-144115101D01*
X81062546Y-144161624D01*
X81231320Y-144194579D01*
X81409309Y-144212707D01*
X81584053Y-144214750D01*
X81743093Y-144199447D01*
X81745712Y-144199009D01*
X81963332Y-144144402D01*
X82167045Y-144057401D01*
X82354887Y-143939876D01*
X82524893Y-143793697D01*
X82675098Y-143620734D01*
X82803536Y-143422857D01*
X82908243Y-143201936D01*
X82965254Y-143038286D01*
X83002849Y-142901375D01*
X83030729Y-142768798D01*
X83049747Y-142632502D01*
X83060755Y-142484433D01*
X83064605Y-142316537D01*
X83062900Y-142179440D01*
X81724141Y-142179440D01*
X81717806Y-142409329D01*
X81697821Y-142607111D01*
X81663573Y-142774539D01*
X81614445Y-142913369D01*
X81549824Y-143025358D01*
X81469095Y-143112259D01*
X81375909Y-143173692D01*
X81327420Y-143196626D01*
X81285366Y-143210375D01*
X81238480Y-143216666D01*
X81175496Y-143217222D01*
X81107643Y-143214773D01*
X80974205Y-143203004D01*
X80868668Y-143179955D01*
X80835500Y-143168410D01*
X80759765Y-143134311D01*
X80679886Y-143091491D01*
X80645000Y-143070057D01*
X80554286Y-143010556D01*
X80554286Y-141124584D01*
X80654072Y-141064771D01*
X80793233Y-140997185D01*
X80935413Y-140957214D01*
X81075410Y-140944622D01*
X81208026Y-140959173D01*
X81328060Y-141000632D01*
X81430312Y-141068763D01*
X81463305Y-141101466D01*
X81542833Y-141208619D01*
X81607201Y-141338327D01*
X81656947Y-141492814D01*
X81692609Y-141674302D01*
X81714725Y-141885015D01*
X81723833Y-142127175D01*
X81724141Y-142179440D01*
X83062900Y-142179440D01*
X83062190Y-142122374D01*
X83046895Y-141823713D01*
X83016142Y-141554325D01*
X82969119Y-141310285D01*
X82905018Y-141087670D01*
X82823028Y-140882556D01*
X82793770Y-140821746D01*
X82675919Y-140623440D01*
X82533504Y-140447212D01*
X82369871Y-140295908D01*
X82188369Y-140172371D01*
X81992347Y-140079447D01*
X81874845Y-140041115D01*
X81759446Y-140018359D01*
X81620593Y-140004820D01*
X81469926Y-140000492D01*
X81319087Y-140005368D01*
X81179715Y-140019444D01*
X81067809Y-140041525D01*
X80934616Y-140084828D01*
X80805521Y-140140511D01*
X80692572Y-140202936D01*
X80632457Y-140245303D01*
X80590990Y-140276807D01*
X80561955Y-140295990D01*
X80555350Y-140298714D01*
X80553302Y-140281163D01*
X80551393Y-140230875D01*
X80549664Y-140151400D01*
X80548159Y-140046286D01*
X80546919Y-139919083D01*
X80545987Y-139773339D01*
X80545405Y-139612603D01*
X80545214Y-139448884D01*
X80545321Y-139239188D01*
X80545842Y-139062396D01*
X80547084Y-138915126D01*
X80549352Y-138793997D01*
X80552950Y-138695627D01*
X80558183Y-138616634D01*
X80565356Y-138553638D01*
X80574774Y-138503255D01*
X80586742Y-138462105D01*
X80601565Y-138426806D01*
X80619548Y-138393977D01*
X80640995Y-138360235D01*
X80643755Y-138356057D01*
X80671417Y-138312356D01*
X80688118Y-138282305D01*
X80690357Y-138275967D01*
X80672857Y-138273967D01*
X80622926Y-138272340D01*
X80544415Y-138271112D01*
X80441177Y-138270311D01*
X80317064Y-138269961D01*
X80175929Y-138270089D01*
G37*
X80175929Y-138270089D02*
X80021624Y-138270723D01*
X79969179Y-138271042D01*
X79248000Y-138275786D01*
X79238929Y-141042572D01*
X79237731Y-141417756D01*
X79236668Y-141758417D01*
X79235673Y-142066318D01*
X79234677Y-142343221D01*
X79233612Y-142590888D01*
X79232409Y-142811081D01*
X79231001Y-143005562D01*
X79229318Y-143176094D01*
X79227294Y-143324440D01*
X79224859Y-143452361D01*
X79221946Y-143561620D01*
X79218485Y-143653979D01*
X79214410Y-143731200D01*
X79209651Y-143795046D01*
X79204140Y-143847278D01*
X79197809Y-143889660D01*
X79190590Y-143923953D01*
X79182415Y-143951920D01*
X79173215Y-143975324D01*
X79162923Y-143995925D01*
X79151469Y-144015487D01*
X79138785Y-144035772D01*
X79124805Y-144058543D01*
X79121939Y-144063393D01*
X79073860Y-144145433D01*
X80463572Y-144135929D01*
X80472643Y-143983295D01*
X80477582Y-143910045D01*
X80482729Y-143867696D01*
X80489714Y-143850892D01*
X80500163Y-143854277D01*
X80508929Y-143863960D01*
X80547112Y-143899229D01*
X80609345Y-143944563D01*
X80686859Y-143994546D01*
X80770887Y-144043761D01*
X80852661Y-144086791D01*
X80915448Y-144115101D01*
X81062546Y-144161624D01*
X81231320Y-144194579D01*
X81409309Y-144212707D01*
X81584053Y-144214750D01*
X81743093Y-144199447D01*
X81745712Y-144199009D01*
X81963332Y-144144402D01*
X82167045Y-144057401D01*
X82354887Y-143939876D01*
X82524893Y-143793697D01*
X82675098Y-143620734D01*
X82803536Y-143422857D01*
X82908243Y-143201936D01*
X82965254Y-143038286D01*
X83002849Y-142901375D01*
X83030729Y-142768798D01*
X83049747Y-142632502D01*
X83060755Y-142484433D01*
X83064605Y-142316537D01*
X83062900Y-142179440D01*
X81724141Y-142179440D01*
X81717806Y-142409329D01*
X81697821Y-142607111D01*
X81663573Y-142774539D01*
X81614445Y-142913369D01*
X81549824Y-143025358D01*
X81469095Y-143112259D01*
X81375909Y-143173692D01*
X81327420Y-143196626D01*
X81285366Y-143210375D01*
X81238480Y-143216666D01*
X81175496Y-143217222D01*
X81107643Y-143214773D01*
X80974205Y-143203004D01*
X80868668Y-143179955D01*
X80835500Y-143168410D01*
X80759765Y-143134311D01*
X80679886Y-143091491D01*
X80645000Y-143070057D01*
X80554286Y-143010556D01*
X80554286Y-141124584D01*
X80654072Y-141064771D01*
X80793233Y-140997185D01*
X80935413Y-140957214D01*
X81075410Y-140944622D01*
X81208026Y-140959173D01*
X81328060Y-141000632D01*
X81430312Y-141068763D01*
X81463305Y-141101466D01*
X81542833Y-141208619D01*
X81607201Y-141338327D01*
X81656947Y-141492814D01*
X81692609Y-141674302D01*
X81714725Y-141885015D01*
X81723833Y-142127175D01*
X81724141Y-142179440D01*
X83062900Y-142179440D01*
X83062190Y-142122374D01*
X83046895Y-141823713D01*
X83016142Y-141554325D01*
X82969119Y-141310285D01*
X82905018Y-141087670D01*
X82823028Y-140882556D01*
X82793770Y-140821746D01*
X82675919Y-140623440D01*
X82533504Y-140447212D01*
X82369871Y-140295908D01*
X82188369Y-140172371D01*
X81992347Y-140079447D01*
X81874845Y-140041115D01*
X81759446Y-140018359D01*
X81620593Y-140004820D01*
X81469926Y-140000492D01*
X81319087Y-140005368D01*
X81179715Y-140019444D01*
X81067809Y-140041525D01*
X80934616Y-140084828D01*
X80805521Y-140140511D01*
X80692572Y-140202936D01*
X80632457Y-140245303D01*
X80590990Y-140276807D01*
X80561955Y-140295990D01*
X80555350Y-140298714D01*
X80553302Y-140281163D01*
X80551393Y-140230875D01*
X80549664Y-140151400D01*
X80548159Y-140046286D01*
X80546919Y-139919083D01*
X80545987Y-139773339D01*
X80545405Y-139612603D01*
X80545214Y-139448884D01*
X80545321Y-139239188D01*
X80545842Y-139062396D01*
X80547084Y-138915126D01*
X80549352Y-138793997D01*
X80552950Y-138695627D01*
X80558183Y-138616634D01*
X80565356Y-138553638D01*
X80574774Y-138503255D01*
X80586742Y-138462105D01*
X80601565Y-138426806D01*
X80619548Y-138393977D01*
X80640995Y-138360235D01*
X80643755Y-138356057D01*
X80671417Y-138312356D01*
X80688118Y-138282305D01*
X80690357Y-138275967D01*
X80672857Y-138273967D01*
X80622926Y-138272340D01*
X80544415Y-138271112D01*
X80441177Y-138270311D01*
X80317064Y-138269961D01*
X80175929Y-138270089D01*
G36*
X85031868Y-139997730D02*
G01*
X84941977Y-140004535D01*
X84684785Y-140038753D01*
X84457015Y-140093331D01*
X84257557Y-140169020D01*
X84085303Y-140266570D01*
X83939141Y-140386732D01*
X83817964Y-140530258D01*
X83720661Y-140697898D01*
X83649609Y-140879286D01*
X83631573Y-140937146D01*
X83615868Y-140991329D01*
X83602308Y-141044752D01*
X83590708Y-141100333D01*
X83580883Y-141160988D01*
X83572647Y-141229635D01*
X83565816Y-141309190D01*
X83560205Y-141402572D01*
X83555628Y-141512696D01*
X83551900Y-141642481D01*
X83548835Y-141794842D01*
X83546250Y-141972698D01*
X83543958Y-142178965D01*
X83541775Y-142416561D01*
X83540214Y-142602857D01*
X83529715Y-143881929D01*
X83461679Y-144005018D01*
X83429462Y-144064317D01*
X83405488Y-144110377D01*
X83394050Y-144134893D01*
X83393643Y-144136553D01*
X83411125Y-144138454D01*
X83460926Y-144140205D01*
X83539079Y-144141758D01*
X83641618Y-144143062D01*
X83764578Y-144144070D01*
X83903990Y-144144731D01*
X84055889Y-144144997D01*
X84074000Y-144145000D01*
X84754357Y-144145000D01*
X84754357Y-143990786D01*
X84755518Y-143921094D01*
X84758613Y-143867794D01*
X84763068Y-143839217D01*
X84765037Y-143836572D01*
X84783045Y-143847653D01*
X84820107Y-143876736D01*
X84868278Y-143917579D01*
X84869359Y-143918524D01*
X84957265Y-143983971D01*
X85068283Y-144049688D01*
X85189869Y-144109219D01*
X85309479Y-144156109D01*
X85362143Y-144172133D01*
X85466949Y-144192485D01*
X85595550Y-144205472D01*
X85736175Y-144210909D01*
X85877052Y-144208611D01*
X86006407Y-144198392D01*
X86096929Y-144183689D01*
X86318920Y-144118499D01*
X86518771Y-144025594D01*
X86695181Y-143906126D01*
X86846850Y-143761247D01*
X86972476Y-143592110D01*
X87070759Y-143399867D01*
X87113159Y-143283214D01*
X87139732Y-143169833D01*
X87157342Y-143033722D01*
X87165490Y-142887437D01*
X87165222Y-142866151D01*
X85938179Y-142866151D01*
X85928004Y-142974850D01*
X85894122Y-143065185D01*
X85831500Y-143148995D01*
X85807448Y-143173571D01*
X85721949Y-143240011D01*
X85623127Y-143282574D01*
X85504732Y-143303177D01*
X85380055Y-143304694D01*
X85261802Y-143294677D01*
X85171261Y-143275085D01*
X85131940Y-143260370D01*
X85061068Y-143220265D01*
X84985975Y-143163863D01*
X84917462Y-143100561D01*
X84866328Y-143039755D01*
X84852750Y-143017449D01*
X84842195Y-142986212D01*
X84834690Y-142936507D01*
X84829887Y-142863587D01*
X84827435Y-142762703D01*
X84826929Y-142666689D01*
X84827272Y-142554750D01*
X84828657Y-142473809D01*
X84831619Y-142418585D01*
X84836692Y-142383794D01*
X84844410Y-142364154D01*
X84855308Y-142354380D01*
X84858679Y-142352824D01*
X84887971Y-142348029D01*
X84945744Y-142344108D01*
X85024196Y-142341414D01*
X85115526Y-142340299D01*
X85135357Y-142340298D01*
X85257437Y-142342246D01*
X85351751Y-142348041D01*
X85426693Y-142358475D01*
X85488597Y-142373714D01*
X85642151Y-142431784D01*
X85762568Y-142503179D01*
X85850890Y-142589039D01*
X85908161Y-142690507D01*
X85935422Y-142808725D01*
X85938179Y-142866151D01*
X87165222Y-142866151D01*
X87163677Y-142743533D01*
X87151404Y-142614565D01*
X87141830Y-142562460D01*
X87080699Y-142368997D01*
X86987743Y-142190993D01*
X86864717Y-142030155D01*
X86713376Y-141888190D01*
X86535475Y-141766806D01*
X86332768Y-141667709D01*
X86160429Y-141607533D01*
X86045247Y-141575919D01*
X85935077Y-141551354D01*
X85822781Y-141533039D01*
X85701225Y-141520178D01*
X85563271Y-141511972D01*
X85401785Y-141507624D01*
X85255785Y-141506400D01*
X84822855Y-141505215D01*
X84831149Y-141375080D01*
X84854699Y-141233883D01*
X84904797Y-141112518D01*
X84979309Y-141014017D01*
X85076101Y-140941409D01*
X85161329Y-140905979D01*
X85283444Y-140883650D01*
X85428817Y-140880443D01*
X85590633Y-140895177D01*
X85762078Y-140926670D01*
X85936337Y-140973740D01*
X86106596Y-141035203D01*
X86230324Y-141091417D01*
X86289853Y-141120283D01*
X86335258Y-141140443D01*
X86358350Y-141148310D01*
X86359603Y-141148058D01*
X86367571Y-141130437D01*
X86387469Y-141083733D01*
X86417423Y-141012418D01*
X86455561Y-140920969D01*
X86500012Y-140813859D01*
X86545195Y-140704549D01*
X86725833Y-140266740D01*
X86597345Y-140245636D01*
X86541654Y-140235047D01*
X86457936Y-140217263D01*
X86353361Y-140193898D01*
X86235101Y-140166565D01*
X86110328Y-140136881D01*
X86060643Y-140124818D01*
X85845693Y-140074962D01*
X85657505Y-140037584D01*
X85489054Y-140011927D01*
X85333314Y-139997235D01*
X85183260Y-139992755D01*
X85031868Y-139997730D01*
G37*
X85031868Y-139997730D02*
X84941977Y-140004535D01*
X84684785Y-140038753D01*
X84457015Y-140093331D01*
X84257557Y-140169020D01*
X84085303Y-140266570D01*
X83939141Y-140386732D01*
X83817964Y-140530258D01*
X83720661Y-140697898D01*
X83649609Y-140879286D01*
X83631573Y-140937146D01*
X83615868Y-140991329D01*
X83602308Y-141044752D01*
X83590708Y-141100333D01*
X83580883Y-141160988D01*
X83572647Y-141229635D01*
X83565816Y-141309190D01*
X83560205Y-141402572D01*
X83555628Y-141512696D01*
X83551900Y-141642481D01*
X83548835Y-141794842D01*
X83546250Y-141972698D01*
X83543958Y-142178965D01*
X83541775Y-142416561D01*
X83540214Y-142602857D01*
X83529715Y-143881929D01*
X83461679Y-144005018D01*
X83429462Y-144064317D01*
X83405488Y-144110377D01*
X83394050Y-144134893D01*
X83393643Y-144136553D01*
X83411125Y-144138454D01*
X83460926Y-144140205D01*
X83539079Y-144141758D01*
X83641618Y-144143062D01*
X83764578Y-144144070D01*
X83903990Y-144144731D01*
X84055889Y-144144997D01*
X84074000Y-144145000D01*
X84754357Y-144145000D01*
X84754357Y-143990786D01*
X84755518Y-143921094D01*
X84758613Y-143867794D01*
X84763068Y-143839217D01*
X84765037Y-143836572D01*
X84783045Y-143847653D01*
X84820107Y-143876736D01*
X84868278Y-143917579D01*
X84869359Y-143918524D01*
X84957265Y-143983971D01*
X85068283Y-144049688D01*
X85189869Y-144109219D01*
X85309479Y-144156109D01*
X85362143Y-144172133D01*
X85466949Y-144192485D01*
X85595550Y-144205472D01*
X85736175Y-144210909D01*
X85877052Y-144208611D01*
X86006407Y-144198392D01*
X86096929Y-144183689D01*
X86318920Y-144118499D01*
X86518771Y-144025594D01*
X86695181Y-143906126D01*
X86846850Y-143761247D01*
X86972476Y-143592110D01*
X87070759Y-143399867D01*
X87113159Y-143283214D01*
X87139732Y-143169833D01*
X87157342Y-143033722D01*
X87165490Y-142887437D01*
X87165222Y-142866151D01*
X85938179Y-142866151D01*
X85928004Y-142974850D01*
X85894122Y-143065185D01*
X85831500Y-143148995D01*
X85807448Y-143173571D01*
X85721949Y-143240011D01*
X85623127Y-143282574D01*
X85504732Y-143303177D01*
X85380055Y-143304694D01*
X85261802Y-143294677D01*
X85171261Y-143275085D01*
X85131940Y-143260370D01*
X85061068Y-143220265D01*
X84985975Y-143163863D01*
X84917462Y-143100561D01*
X84866328Y-143039755D01*
X84852750Y-143017449D01*
X84842195Y-142986212D01*
X84834690Y-142936507D01*
X84829887Y-142863587D01*
X84827435Y-142762703D01*
X84826929Y-142666689D01*
X84827272Y-142554750D01*
X84828657Y-142473809D01*
X84831619Y-142418585D01*
X84836692Y-142383794D01*
X84844410Y-142364154D01*
X84855308Y-142354380D01*
X84858679Y-142352824D01*
X84887971Y-142348029D01*
X84945744Y-142344108D01*
X85024196Y-142341414D01*
X85115526Y-142340299D01*
X85135357Y-142340298D01*
X85257437Y-142342246D01*
X85351751Y-142348041D01*
X85426693Y-142358475D01*
X85488597Y-142373714D01*
X85642151Y-142431784D01*
X85762568Y-142503179D01*
X85850890Y-142589039D01*
X85908161Y-142690507D01*
X85935422Y-142808725D01*
X85938179Y-142866151D01*
X87165222Y-142866151D01*
X87163677Y-142743533D01*
X87151404Y-142614565D01*
X87141830Y-142562460D01*
X87080699Y-142368997D01*
X86987743Y-142190993D01*
X86864717Y-142030155D01*
X86713376Y-141888190D01*
X86535475Y-141766806D01*
X86332768Y-141667709D01*
X86160429Y-141607533D01*
X86045247Y-141575919D01*
X85935077Y-141551354D01*
X85822781Y-141533039D01*
X85701225Y-141520178D01*
X85563271Y-141511972D01*
X85401785Y-141507624D01*
X85255785Y-141506400D01*
X84822855Y-141505215D01*
X84831149Y-141375080D01*
X84854699Y-141233883D01*
X84904797Y-141112518D01*
X84979309Y-141014017D01*
X85076101Y-140941409D01*
X85161329Y-140905979D01*
X85283444Y-140883650D01*
X85428817Y-140880443D01*
X85590633Y-140895177D01*
X85762078Y-140926670D01*
X85936337Y-140973740D01*
X86106596Y-141035203D01*
X86230324Y-141091417D01*
X86289853Y-141120283D01*
X86335258Y-141140443D01*
X86358350Y-141148310D01*
X86359603Y-141148058D01*
X86367571Y-141130437D01*
X86387469Y-141083733D01*
X86417423Y-141012418D01*
X86455561Y-140920969D01*
X86500012Y-140813859D01*
X86545195Y-140704549D01*
X86725833Y-140266740D01*
X86597345Y-140245636D01*
X86541654Y-140235047D01*
X86457936Y-140217263D01*
X86353361Y-140193898D01*
X86235101Y-140166565D01*
X86110328Y-140136881D01*
X86060643Y-140124818D01*
X85845693Y-140074962D01*
X85657505Y-140037584D01*
X85489054Y-140011927D01*
X85333314Y-139997235D01*
X85183260Y-139992755D01*
X85031868Y-139997730D01*
G36*
X88636122Y-138539231D02*
G01*
X88440481Y-138560649D01*
X88250938Y-138598985D01*
X88059783Y-138656238D01*
X87859304Y-138734409D01*
X87641792Y-138835496D01*
X87602620Y-138855076D01*
X87512728Y-138899362D01*
X87427947Y-138939239D01*
X87356645Y-138970898D01*
X87307190Y-138990532D01*
X87299592Y-138993004D01*
X87226786Y-139014817D01*
X87552697Y-139488944D01*
X87632377Y-139604823D01*
X87705228Y-139710694D01*
X87768770Y-139802962D01*
X87820528Y-139878033D01*
X87858023Y-139932313D01*
X87878777Y-139962207D01*
X87882149Y-139966941D01*
X87895845Y-139957042D01*
X87929557Y-139927285D01*
X87977256Y-139883073D01*
X88003580Y-139858084D01*
X88152728Y-139739456D01*
X88320232Y-139649313D01*
X88464572Y-139599936D01*
X88551217Y-139584429D01*
X88659704Y-139574979D01*
X88777273Y-139571761D01*
X88891166Y-139574951D01*
X88988621Y-139584724D01*
X89027510Y-139592209D01*
X89202788Y-139652512D01*
X89360735Y-139744590D01*
X89501232Y-139868273D01*
X89624165Y-140023393D01*
X89729415Y-140209781D01*
X89816865Y-140427270D01*
X89886400Y-140675692D01*
X89927725Y-140888357D01*
X89938506Y-140982241D01*
X89945852Y-141103524D01*
X89949833Y-141243493D01*
X89950521Y-141393431D01*
X89947986Y-141544622D01*
X89942300Y-141688351D01*
X89933533Y-141815903D01*
X89921756Y-141918562D01*
X89919207Y-141934401D01*
X89863019Y-142189536D01*
X89786464Y-142415342D01*
X89689074Y-142612831D01*
X89570386Y-142783014D01*
X89486137Y-142875022D01*
X89334730Y-142999943D01*
X89168683Y-143092540D01*
X88990799Y-143152309D01*
X88803878Y-143178746D01*
X88610722Y-143171348D01*
X88414131Y-143129611D01*
X88297903Y-143088771D01*
X88137062Y-143006990D01*
X87971287Y-142889678D01*
X87878427Y-142810345D01*
X87826286Y-142764429D01*
X87785320Y-142730742D01*
X87762002Y-142714510D01*
X87759107Y-142714015D01*
X87748700Y-142730601D01*
X87721733Y-142774432D01*
X87680504Y-142841748D01*
X87627311Y-142928794D01*
X87564450Y-143031810D01*
X87494219Y-143147041D01*
X87455128Y-143211231D01*
X87156536Y-143701677D01*
X87529339Y-143885915D01*
X87664131Y-143952093D01*
X87773325Y-144004278D01*
X87863593Y-144045060D01*
X87941612Y-144077033D01*
X88014056Y-144102787D01*
X88087599Y-144124914D01*
X88168916Y-144146007D01*
X88246857Y-144164530D01*
X88316134Y-144178863D01*
X88388583Y-144189694D01*
X88471458Y-144197626D01*
X88572012Y-144203258D01*
X88697497Y-144207192D01*
X88782072Y-144208891D01*
X88902746Y-144210050D01*
X89018458Y-144209465D01*
X89121549Y-144207304D01*
X89204362Y-144203732D01*
X89259240Y-144198917D01*
X89262492Y-144198437D01*
X89547457Y-144136786D01*
X89815058Y-144043285D01*
X90065203Y-143917993D01*
X90297796Y-143760974D01*
X90512743Y-143572289D01*
X90709950Y-143352000D01*
X90852773Y-143156214D01*
X91004820Y-142899949D01*
X91127727Y-142629317D01*
X91222090Y-142342149D01*
X91288501Y-142036276D01*
X91327556Y-141709528D01*
X91339860Y-141377739D01*
X91329741Y-141056779D01*
X91297939Y-140760646D01*
X91243446Y-140484345D01*
X91165250Y-140222881D01*
X91062341Y-139971258D01*
X91050053Y-139945190D01*
X90914680Y-139701507D01*
X90748411Y-139469618D01*
X90555959Y-139254323D01*
X90342034Y-139060422D01*
X90111345Y-138892715D01*
X89896391Y-138769696D01*
X89679242Y-138673345D01*
X89461632Y-138603551D01*
X89235138Y-138558413D01*
X88991334Y-138536031D01*
X88845572Y-138532731D01*
X88636122Y-138539231D01*
G37*
X88636122Y-138539231D02*
X88440481Y-138560649D01*
X88250938Y-138598985D01*
X88059783Y-138656238D01*
X87859304Y-138734409D01*
X87641792Y-138835496D01*
X87602620Y-138855076D01*
X87512728Y-138899362D01*
X87427947Y-138939239D01*
X87356645Y-138970898D01*
X87307190Y-138990532D01*
X87299592Y-138993004D01*
X87226786Y-139014817D01*
X87552697Y-139488944D01*
X87632377Y-139604823D01*
X87705228Y-139710694D01*
X87768770Y-139802962D01*
X87820528Y-139878033D01*
X87858023Y-139932313D01*
X87878777Y-139962207D01*
X87882149Y-139966941D01*
X87895845Y-139957042D01*
X87929557Y-139927285D01*
X87977256Y-139883073D01*
X88003580Y-139858084D01*
X88152728Y-139739456D01*
X88320232Y-139649313D01*
X88464572Y-139599936D01*
X88551217Y-139584429D01*
X88659704Y-139574979D01*
X88777273Y-139571761D01*
X88891166Y-139574951D01*
X88988621Y-139584724D01*
X89027510Y-139592209D01*
X89202788Y-139652512D01*
X89360735Y-139744590D01*
X89501232Y-139868273D01*
X89624165Y-140023393D01*
X89729415Y-140209781D01*
X89816865Y-140427270D01*
X89886400Y-140675692D01*
X89927725Y-140888357D01*
X89938506Y-140982241D01*
X89945852Y-141103524D01*
X89949833Y-141243493D01*
X89950521Y-141393431D01*
X89947986Y-141544622D01*
X89942300Y-141688351D01*
X89933533Y-141815903D01*
X89921756Y-141918562D01*
X89919207Y-141934401D01*
X89863019Y-142189536D01*
X89786464Y-142415342D01*
X89689074Y-142612831D01*
X89570386Y-142783014D01*
X89486137Y-142875022D01*
X89334730Y-142999943D01*
X89168683Y-143092540D01*
X88990799Y-143152309D01*
X88803878Y-143178746D01*
X88610722Y-143171348D01*
X88414131Y-143129611D01*
X88297903Y-143088771D01*
X88137062Y-143006990D01*
X87971287Y-142889678D01*
X87878427Y-142810345D01*
X87826286Y-142764429D01*
X87785320Y-142730742D01*
X87762002Y-142714510D01*
X87759107Y-142714015D01*
X87748700Y-142730601D01*
X87721733Y-142774432D01*
X87680504Y-142841748D01*
X87627311Y-142928794D01*
X87564450Y-143031810D01*
X87494219Y-143147041D01*
X87455128Y-143211231D01*
X87156536Y-143701677D01*
X87529339Y-143885915D01*
X87664131Y-143952093D01*
X87773325Y-144004278D01*
X87863593Y-144045060D01*
X87941612Y-144077033D01*
X88014056Y-144102787D01*
X88087599Y-144124914D01*
X88168916Y-144146007D01*
X88246857Y-144164530D01*
X88316134Y-144178863D01*
X88388583Y-144189694D01*
X88471458Y-144197626D01*
X88572012Y-144203258D01*
X88697497Y-144207192D01*
X88782072Y-144208891D01*
X88902746Y-144210050D01*
X89018458Y-144209465D01*
X89121549Y-144207304D01*
X89204362Y-144203732D01*
X89259240Y-144198917D01*
X89262492Y-144198437D01*
X89547457Y-144136786D01*
X89815058Y-144043285D01*
X90065203Y-143917993D01*
X90297796Y-143760974D01*
X90512743Y-143572289D01*
X90709950Y-143352000D01*
X90852773Y-143156214D01*
X91004820Y-142899949D01*
X91127727Y-142629317D01*
X91222090Y-142342149D01*
X91288501Y-142036276D01*
X91327556Y-141709528D01*
X91339860Y-141377739D01*
X91329741Y-141056779D01*
X91297939Y-140760646D01*
X91243446Y-140484345D01*
X91165250Y-140222881D01*
X91062341Y-139971258D01*
X91050053Y-139945190D01*
X90914680Y-139701507D01*
X90748411Y-139469618D01*
X90555959Y-139254323D01*
X90342034Y-139060422D01*
X90111345Y-138892715D01*
X89896391Y-138769696D01*
X89679242Y-138673345D01*
X89461632Y-138603551D01*
X89235138Y-138558413D01*
X88991334Y-138536031D01*
X88845572Y-138532731D01*
X88636122Y-138539231D01*
G36*
X97087589Y-137631660D02*
G01*
X96738040Y-137631707D01*
X96575330Y-137631714D01*
X93970929Y-137631715D01*
X93970929Y-137785238D01*
X93954543Y-137972063D01*
X93905088Y-138144367D01*
X93822120Y-138303175D01*
X93705195Y-138449510D01*
X93665636Y-138489032D01*
X93523330Y-138601138D01*
X93366422Y-138682899D01*
X93199572Y-138734353D01*
X93027439Y-138755537D01*
X92854685Y-138746487D01*
X92685970Y-138707242D01*
X92525954Y-138637838D01*
X92379298Y-138538311D01*
X92313432Y-138478265D01*
X92190692Y-138331043D01*
X92100688Y-138169147D01*
X92044206Y-137994427D01*
X92022029Y-137808735D01*
X92021734Y-137790467D01*
X92020572Y-137631720D01*
X91950800Y-137631717D01*
X91888905Y-137640118D01*
X91832365Y-137660556D01*
X91828628Y-137662667D01*
X91815858Y-137669293D01*
X91804132Y-137674454D01*
X91793406Y-137679651D01*
X91783639Y-137686390D01*
X91774788Y-137696171D01*
X91766811Y-137710500D01*
X91759665Y-137730878D01*
X91753308Y-137758808D01*
X91747698Y-137795795D01*
X91742793Y-137843340D01*
X91738549Y-137902947D01*
X91734924Y-137976119D01*
X91731877Y-138064359D01*
X91729364Y-138169170D01*
X91727344Y-138292055D01*
X91725774Y-138434517D01*
X91724612Y-138598060D01*
X91723814Y-138784186D01*
X91723340Y-138994398D01*
X91723146Y-139230200D01*
X91723190Y-139493094D01*
X91723430Y-139784584D01*
X91723823Y-140106172D01*
X91724327Y-140459362D01*
X91724900Y-140845657D01*
X91725499Y-141266560D01*
X91725568Y-141317840D01*
X91726105Y-141741426D01*
X91726561Y-142130230D01*
X91726984Y-142485753D01*
X91727421Y-142809498D01*
X91727922Y-143102966D01*
X91728535Y-143367661D01*
X91729308Y-143605085D01*
X91730289Y-143816740D01*
X91731526Y-144004129D01*
X91733068Y-144168754D01*
X91734963Y-144312117D01*
X91737259Y-144435720D01*
X91740004Y-144541067D01*
X91743247Y-144629659D01*
X91747036Y-144703000D01*
X91751419Y-144762590D01*
X91756445Y-144809933D01*
X91762161Y-144846531D01*
X91768616Y-144873886D01*
X91775859Y-144893502D01*
X91783937Y-144906879D01*
X91792898Y-144915521D01*
X91802792Y-144920930D01*
X91813665Y-144924608D01*
X91825567Y-144928058D01*
X91838546Y-144932782D01*
X91841717Y-144934220D01*
X91851681Y-144937451D01*
X91868359Y-144940420D01*
X91893207Y-144943137D01*
X91927680Y-144945613D01*
X91973236Y-144947858D01*
X92031330Y-144949883D01*
X92103419Y-144951698D01*
X92190958Y-144953315D01*
X92295405Y-144954743D01*
X92418215Y-144955993D01*
X92560845Y-144957076D01*
X92724751Y-144958002D01*
X92911390Y-144958782D01*
X93122216Y-144959426D01*
X93358688Y-144959946D01*
X93622261Y-144960351D01*
X93914390Y-144960652D01*
X94236534Y-144960860D01*
X94590147Y-144960985D01*
X94976686Y-144961038D01*
X95397608Y-144961029D01*
X95533956Y-144961016D01*
X95964216Y-144960947D01*
X96359664Y-144960834D01*
X96721773Y-144960665D01*
X97052017Y-144960430D01*
X97351871Y-144960116D01*
X97622808Y-144959713D01*
X97866300Y-144959207D01*
X98083823Y-144958589D01*
X98276850Y-144957846D01*
X98446854Y-144956968D01*
X98595310Y-144955941D01*
X98723690Y-144954756D01*
X98833469Y-144953400D01*
X98926120Y-144951862D01*
X99003117Y-144950130D01*
X99065934Y-144948194D01*
X99116044Y-144946040D01*
X99154921Y-144943659D01*
X99184038Y-144941037D01*
X99204871Y-144938165D01*
X99218891Y-144935030D01*
X99226534Y-144932159D01*
X99240118Y-144926430D01*
X99252590Y-144922206D01*
X99263998Y-144917985D01*
X99274389Y-144912268D01*
X99283809Y-144903555D01*
X99292308Y-144890345D01*
X99299930Y-144871137D01*
X99306725Y-144844433D01*
X99312738Y-144808730D01*
X99318017Y-144762530D01*
X99322610Y-144704332D01*
X99326564Y-144632635D01*
X99329925Y-144545940D01*
X99332741Y-144442746D01*
X99335060Y-144321553D01*
X99336928Y-144180860D01*
X99337416Y-144126857D01*
X98853204Y-144126857D01*
X97141756Y-144126857D01*
X97174687Y-144076964D01*
X97207447Y-144025693D01*
X97235189Y-143976869D01*
X97258307Y-143927076D01*
X97277197Y-143872898D01*
X97292251Y-143810916D01*
X97303867Y-143737715D01*
X97312436Y-143649878D01*
X97318356Y-143543988D01*
X97322019Y-143416628D01*
X97323821Y-143264381D01*
X97324156Y-143083832D01*
X97323419Y-142871562D01*
X97323001Y-142792755D01*
X97318286Y-141947911D01*
X96783072Y-142676557D01*
X96631446Y-142883265D01*
X96500081Y-143063260D01*
X96387557Y-143218925D01*
X96292457Y-143352647D01*
X96213362Y-143466809D01*
X96148853Y-143563797D01*
X96097512Y-143645994D01*
X96057920Y-143715786D01*
X96028660Y-143775558D01*
X96008312Y-143827693D01*
X95995458Y-143874576D01*
X95988681Y-143918593D01*
X95986560Y-143962127D01*
X95987679Y-144007564D01*
X95987964Y-144013275D01*
X95993857Y-144126933D01*
X94118271Y-144126857D01*
X94257778Y-143986189D01*
X94295635Y-143947715D01*
X94331547Y-143910279D01*
X94367093Y-143871814D01*
X94403847Y-143830258D01*
X94443386Y-143783545D01*
X94487286Y-143729610D01*
X94537123Y-143666390D01*
X94594472Y-143591818D01*
X94660911Y-143503832D01*
X94738015Y-143400365D01*
X94827361Y-143279354D01*
X94930524Y-143138734D01*
X95049080Y-142976440D01*
X95184605Y-142790407D01*
X95338677Y-142578571D01*
X95464962Y-142404804D01*
X95623454Y-142186501D01*
X95761716Y-141995629D01*
X95880999Y-141830374D01*
X95982557Y-141688926D01*
X96067641Y-141569471D01*
X96137505Y-141470198D01*
X96193400Y-141389295D01*
X96236580Y-141324949D01*
X96268297Y-141275347D01*
X96289802Y-141238679D01*
X96302350Y-141213132D01*
X96307192Y-141196893D01*
X96305737Y-141188355D01*
X96288099Y-141165635D01*
X96249966Y-141117543D01*
X96193638Y-141046938D01*
X96121416Y-140956678D01*
X96035601Y-140849621D01*
X95938494Y-140728627D01*
X95832396Y-140596554D01*
X95719609Y-140456260D01*
X95602432Y-140310603D01*
X95483167Y-140162444D01*
X95417567Y-140081000D01*
X93788814Y-140081000D01*
X93721121Y-140203465D01*
X93653429Y-140325929D01*
X93653429Y-143881929D01*
X93721121Y-144004393D01*
X93788814Y-144126857D01*
X92988059Y-144126857D01*
X92796898Y-144126802D01*
X92639001Y-144126551D01*
X92511348Y-144125979D01*
X92410919Y-144124959D01*
X92334693Y-144123365D01*
X92279648Y-144121070D01*
X92242764Y-144117950D01*
X92221021Y-144113877D01*
X92211398Y-144108725D01*
X92210873Y-144102367D01*
X92216426Y-144094679D01*
X92216484Y-144094615D01*
X92239360Y-144061524D01*
X92269651Y-144007719D01*
X92296403Y-143954008D01*
X92347143Y-143845643D01*
X92352318Y-141963322D01*
X92357493Y-140081000D01*
X93788814Y-140081000D01*
X95417567Y-140081000D01*
X95364115Y-140014639D01*
X95247577Y-139870047D01*
X95135854Y-139731528D01*
X95031246Y-139601939D01*
X94936056Y-139484140D01*
X94852583Y-139380988D01*
X94783129Y-139295343D01*
X94729994Y-139230062D01*
X94698785Y-139192000D01*
X94577597Y-139049670D01*
X94461007Y-138921230D01*
X94353103Y-138810886D01*
X94257970Y-138722841D01*
X94190457Y-138668862D01*
X94110627Y-138611429D01*
X95946608Y-138611429D01*
X95946092Y-138719165D01*
X95951224Y-138798372D01*
X95970515Y-138871805D01*
X96000377Y-138941415D01*
X96019788Y-138980741D01*
X96040659Y-139019707D01*
X96064896Y-139060901D01*
X96094406Y-139106908D01*
X96131094Y-139160317D01*
X96176868Y-139223714D01*
X96233635Y-139299685D01*
X96303300Y-139390817D01*
X96387770Y-139499698D01*
X96488953Y-139628914D01*
X96608753Y-139781052D01*
X96749079Y-139958698D01*
X96764929Y-139978742D01*
X97318286Y-140678508D01*
X97323643Y-139903504D01*
X97324721Y-139671368D01*
X97324492Y-139474846D01*
X97322943Y-139313292D01*
X97320063Y-139186056D01*
X97315841Y-139092492D01*
X97310266Y-139031952D01*
X97308393Y-139020468D01*
X97278995Y-138899499D01*
X97240478Y-138790446D01*
X97196526Y-138702763D01*
X97170121Y-138665574D01*
X97124560Y-138611429D01*
X97989030Y-138611429D01*
X98195245Y-138611605D01*
X98367688Y-138612179D01*
X98508873Y-138613217D01*
X98621312Y-138614787D01*
X98707517Y-138616954D01*
X98770002Y-138619788D01*
X98811279Y-138623353D01*
X98833860Y-138627718D01*
X98840259Y-138632949D01*
X98839817Y-138634107D01*
X98821491Y-138661769D01*
X98790896Y-138705615D01*
X98775067Y-138727791D01*
X98758702Y-138749920D01*
X98743992Y-138769709D01*
X98730844Y-138789106D01*
X98719167Y-138810058D01*
X98708868Y-138834512D01*
X98699854Y-138864416D01*
X98692032Y-138901717D01*
X98685309Y-138948363D01*
X98679594Y-139006301D01*
X98674793Y-139077479D01*
X98670815Y-139163844D01*
X98667565Y-139267344D01*
X98664952Y-139389925D01*
X98662883Y-139533537D01*
X98661266Y-139700125D01*
X98660007Y-139891637D01*
X98659015Y-140110022D01*
X98658196Y-140357226D01*
X98657458Y-140635196D01*
X98656709Y-140945881D01*
X98656008Y-141231300D01*
X98655347Y-141549492D01*
X98655003Y-141853077D01*
X98654968Y-142140115D01*
X98655232Y-142408669D01*
X98655785Y-142656798D01*
X98656620Y-142882563D01*
X98657727Y-143084026D01*
X98659096Y-143259246D01*
X98660719Y-143406286D01*
X98662587Y-143523206D01*
X98664689Y-143608067D01*
X98667018Y-143658929D01*
X98667459Y-143664304D01*
X98683508Y-143787613D01*
X98708564Y-143886644D01*
X98746721Y-143973070D01*
X98802072Y-144058565D01*
X98808996Y-144067893D01*
X98853204Y-144126857D01*
X99337416Y-144126857D01*
X99338392Y-144019168D01*
X99339501Y-143834976D01*
X99340301Y-143626784D01*
X99340839Y-143393091D01*
X99341162Y-143132398D01*
X99341317Y-142843204D01*
X99341354Y-142524009D01*
X99341317Y-142173313D01*
X99341255Y-141789614D01*
X99341215Y-141371414D01*
X99341214Y-141288393D01*
X99341191Y-140865789D01*
X99341112Y-140477981D01*
X99340967Y-140123480D01*
X99340744Y-139800797D01*
X99340431Y-139508442D01*
X99340017Y-139244927D01*
X99339491Y-139008762D01*
X99338840Y-138798458D01*
X99338053Y-138612526D01*
X99337119Y-138449475D01*
X99336026Y-138307818D01*
X99334763Y-138186064D01*
X99333317Y-138082725D01*
X99331679Y-137996311D01*
X99329834Y-137925333D01*
X99327774Y-137868301D01*
X99325485Y-137823727D01*
X99322956Y-137790121D01*
X99320176Y-137765993D01*
X99317133Y-137749856D01*
X99313816Y-137740218D01*
X99313693Y-137739978D01*
X99306860Y-137725255D01*
X99301170Y-137711926D01*
X99294874Y-137699922D01*
X99286228Y-137689173D01*
X99273486Y-137679611D01*
X99254900Y-137671167D01*
X99228726Y-137663771D01*
X99193216Y-137657354D01*
X99146625Y-137651848D01*
X99087207Y-137647183D01*
X99013215Y-137643291D01*
X98922903Y-137640102D01*
X98814525Y-137637547D01*
X98686335Y-137635558D01*
X98536587Y-137634065D01*
X98363534Y-137632998D01*
X98165431Y-137632291D01*
X97940531Y-137631872D01*
X97687088Y-137631673D01*
X97403356Y-137631626D01*
X97087589Y-137631660D01*
G37*
X97087589Y-137631660D02*
X96738040Y-137631707D01*
X96575330Y-137631714D01*
X93970929Y-137631715D01*
X93970929Y-137785238D01*
X93954543Y-137972063D01*
X93905088Y-138144367D01*
X93822120Y-138303175D01*
X93705195Y-138449510D01*
X93665636Y-138489032D01*
X93523330Y-138601138D01*
X93366422Y-138682899D01*
X93199572Y-138734353D01*
X93027439Y-138755537D01*
X92854685Y-138746487D01*
X92685970Y-138707242D01*
X92525954Y-138637838D01*
X92379298Y-138538311D01*
X92313432Y-138478265D01*
X92190692Y-138331043D01*
X92100688Y-138169147D01*
X92044206Y-137994427D01*
X92022029Y-137808735D01*
X92021734Y-137790467D01*
X92020572Y-137631720D01*
X91950800Y-137631717D01*
X91888905Y-137640118D01*
X91832365Y-137660556D01*
X91828628Y-137662667D01*
X91815858Y-137669293D01*
X91804132Y-137674454D01*
X91793406Y-137679651D01*
X91783639Y-137686390D01*
X91774788Y-137696171D01*
X91766811Y-137710500D01*
X91759665Y-137730878D01*
X91753308Y-137758808D01*
X91747698Y-137795795D01*
X91742793Y-137843340D01*
X91738549Y-137902947D01*
X91734924Y-137976119D01*
X91731877Y-138064359D01*
X91729364Y-138169170D01*
X91727344Y-138292055D01*
X91725774Y-138434517D01*
X91724612Y-138598060D01*
X91723814Y-138784186D01*
X91723340Y-138994398D01*
X91723146Y-139230200D01*
X91723190Y-139493094D01*
X91723430Y-139784584D01*
X91723823Y-140106172D01*
X91724327Y-140459362D01*
X91724900Y-140845657D01*
X91725499Y-141266560D01*
X91725568Y-141317840D01*
X91726105Y-141741426D01*
X91726561Y-142130230D01*
X91726984Y-142485753D01*
X91727421Y-142809498D01*
X91727922Y-143102966D01*
X91728535Y-143367661D01*
X91729308Y-143605085D01*
X91730289Y-143816740D01*
X91731526Y-144004129D01*
X91733068Y-144168754D01*
X91734963Y-144312117D01*
X91737259Y-144435720D01*
X91740004Y-144541067D01*
X91743247Y-144629659D01*
X91747036Y-144703000D01*
X91751419Y-144762590D01*
X91756445Y-144809933D01*
X91762161Y-144846531D01*
X91768616Y-144873886D01*
X91775859Y-144893502D01*
X91783937Y-144906879D01*
X91792898Y-144915521D01*
X91802792Y-144920930D01*
X91813665Y-144924608D01*
X91825567Y-144928058D01*
X91838546Y-144932782D01*
X91841717Y-144934220D01*
X91851681Y-144937451D01*
X91868359Y-144940420D01*
X91893207Y-144943137D01*
X91927680Y-144945613D01*
X91973236Y-144947858D01*
X92031330Y-144949883D01*
X92103419Y-144951698D01*
X92190958Y-144953315D01*
X92295405Y-144954743D01*
X92418215Y-144955993D01*
X92560845Y-144957076D01*
X92724751Y-144958002D01*
X92911390Y-144958782D01*
X93122216Y-144959426D01*
X93358688Y-144959946D01*
X93622261Y-144960351D01*
X93914390Y-144960652D01*
X94236534Y-144960860D01*
X94590147Y-144960985D01*
X94976686Y-144961038D01*
X95397608Y-144961029D01*
X95533956Y-144961016D01*
X95964216Y-144960947D01*
X96359664Y-144960834D01*
X96721773Y-144960665D01*
X97052017Y-144960430D01*
X97351871Y-144960116D01*
X97622808Y-144959713D01*
X97866300Y-144959207D01*
X98083823Y-144958589D01*
X98276850Y-144957846D01*
X98446854Y-144956968D01*
X98595310Y-144955941D01*
X98723690Y-144954756D01*
X98833469Y-144953400D01*
X98926120Y-144951862D01*
X99003117Y-144950130D01*
X99065934Y-144948194D01*
X99116044Y-144946040D01*
X99154921Y-144943659D01*
X99184038Y-144941037D01*
X99204871Y-144938165D01*
X99218891Y-144935030D01*
X99226534Y-144932159D01*
X99240118Y-144926430D01*
X99252590Y-144922206D01*
X99263998Y-144917985D01*
X99274389Y-144912268D01*
X99283809Y-144903555D01*
X99292308Y-144890345D01*
X99299930Y-144871137D01*
X99306725Y-144844433D01*
X99312738Y-144808730D01*
X99318017Y-144762530D01*
X99322610Y-144704332D01*
X99326564Y-144632635D01*
X99329925Y-144545940D01*
X99332741Y-144442746D01*
X99335060Y-144321553D01*
X99336928Y-144180860D01*
X99337416Y-144126857D01*
X98853204Y-144126857D01*
X97141756Y-144126857D01*
X97174687Y-144076964D01*
X97207447Y-144025693D01*
X97235189Y-143976869D01*
X97258307Y-143927076D01*
X97277197Y-143872898D01*
X97292251Y-143810916D01*
X97303867Y-143737715D01*
X97312436Y-143649878D01*
X97318356Y-143543988D01*
X97322019Y-143416628D01*
X97323821Y-143264381D01*
X97324156Y-143083832D01*
X97323419Y-142871562D01*
X97323001Y-142792755D01*
X97318286Y-141947911D01*
X96783072Y-142676557D01*
X96631446Y-142883265D01*
X96500081Y-143063260D01*
X96387557Y-143218925D01*
X96292457Y-143352647D01*
X96213362Y-143466809D01*
X96148853Y-143563797D01*
X96097512Y-143645994D01*
X96057920Y-143715786D01*
X96028660Y-143775558D01*
X96008312Y-143827693D01*
X95995458Y-143874576D01*
X95988681Y-143918593D01*
X95986560Y-143962127D01*
X95987679Y-144007564D01*
X95987964Y-144013275D01*
X95993857Y-144126933D01*
X94118271Y-144126857D01*
X94257778Y-143986189D01*
X94295635Y-143947715D01*
X94331547Y-143910279D01*
X94367093Y-143871814D01*
X94403847Y-143830258D01*
X94443386Y-143783545D01*
X94487286Y-143729610D01*
X94537123Y-143666390D01*
X94594472Y-143591818D01*
X94660911Y-143503832D01*
X94738015Y-143400365D01*
X94827361Y-143279354D01*
X94930524Y-143138734D01*
X95049080Y-142976440D01*
X95184605Y-142790407D01*
X95338677Y-142578571D01*
X95464962Y-142404804D01*
X95623454Y-142186501D01*
X95761716Y-141995629D01*
X95880999Y-141830374D01*
X95982557Y-141688926D01*
X96067641Y-141569471D01*
X96137505Y-141470198D01*
X96193400Y-141389295D01*
X96236580Y-141324949D01*
X96268297Y-141275347D01*
X96289802Y-141238679D01*
X96302350Y-141213132D01*
X96307192Y-141196893D01*
X96305737Y-141188355D01*
X96288099Y-141165635D01*
X96249966Y-141117543D01*
X96193638Y-141046938D01*
X96121416Y-140956678D01*
X96035601Y-140849621D01*
X95938494Y-140728627D01*
X95832396Y-140596554D01*
X95719609Y-140456260D01*
X95602432Y-140310603D01*
X95483167Y-140162444D01*
X95417567Y-140081000D01*
X93788814Y-140081000D01*
X93721121Y-140203465D01*
X93653429Y-140325929D01*
X93653429Y-143881929D01*
X93721121Y-144004393D01*
X93788814Y-144126857D01*
X92988059Y-144126857D01*
X92796898Y-144126802D01*
X92639001Y-144126551D01*
X92511348Y-144125979D01*
X92410919Y-144124959D01*
X92334693Y-144123365D01*
X92279648Y-144121070D01*
X92242764Y-144117950D01*
X92221021Y-144113877D01*
X92211398Y-144108725D01*
X92210873Y-144102367D01*
X92216426Y-144094679D01*
X92216484Y-144094615D01*
X92239360Y-144061524D01*
X92269651Y-144007719D01*
X92296403Y-143954008D01*
X92347143Y-143845643D01*
X92352318Y-141963322D01*
X92357493Y-140081000D01*
X93788814Y-140081000D01*
X95417567Y-140081000D01*
X95364115Y-140014639D01*
X95247577Y-139870047D01*
X95135854Y-139731528D01*
X95031246Y-139601939D01*
X94936056Y-139484140D01*
X94852583Y-139380988D01*
X94783129Y-139295343D01*
X94729994Y-139230062D01*
X94698785Y-139192000D01*
X94577597Y-139049670D01*
X94461007Y-138921230D01*
X94353103Y-138810886D01*
X94257970Y-138722841D01*
X94190457Y-138668862D01*
X94110627Y-138611429D01*
X95946608Y-138611429D01*
X95946092Y-138719165D01*
X95951224Y-138798372D01*
X95970515Y-138871805D01*
X96000377Y-138941415D01*
X96019788Y-138980741D01*
X96040659Y-139019707D01*
X96064896Y-139060901D01*
X96094406Y-139106908D01*
X96131094Y-139160317D01*
X96176868Y-139223714D01*
X96233635Y-139299685D01*
X96303300Y-139390817D01*
X96387770Y-139499698D01*
X96488953Y-139628914D01*
X96608753Y-139781052D01*
X96749079Y-139958698D01*
X96764929Y-139978742D01*
X97318286Y-140678508D01*
X97323643Y-139903504D01*
X97324721Y-139671368D01*
X97324492Y-139474846D01*
X97322943Y-139313292D01*
X97320063Y-139186056D01*
X97315841Y-139092492D01*
X97310266Y-139031952D01*
X97308393Y-139020468D01*
X97278995Y-138899499D01*
X97240478Y-138790446D01*
X97196526Y-138702763D01*
X97170121Y-138665574D01*
X97124560Y-138611429D01*
X97989030Y-138611429D01*
X98195245Y-138611605D01*
X98367688Y-138612179D01*
X98508873Y-138613217D01*
X98621312Y-138614787D01*
X98707517Y-138616954D01*
X98770002Y-138619788D01*
X98811279Y-138623353D01*
X98833860Y-138627718D01*
X98840259Y-138632949D01*
X98839817Y-138634107D01*
X98821491Y-138661769D01*
X98790896Y-138705615D01*
X98775067Y-138727791D01*
X98758702Y-138749920D01*
X98743992Y-138769709D01*
X98730844Y-138789106D01*
X98719167Y-138810058D01*
X98708868Y-138834512D01*
X98699854Y-138864416D01*
X98692032Y-138901717D01*
X98685309Y-138948363D01*
X98679594Y-139006301D01*
X98674793Y-139077479D01*
X98670815Y-139163844D01*
X98667565Y-139267344D01*
X98664952Y-139389925D01*
X98662883Y-139533537D01*
X98661266Y-139700125D01*
X98660007Y-139891637D01*
X98659015Y-140110022D01*
X98658196Y-140357226D01*
X98657458Y-140635196D01*
X98656709Y-140945881D01*
X98656008Y-141231300D01*
X98655347Y-141549492D01*
X98655003Y-141853077D01*
X98654968Y-142140115D01*
X98655232Y-142408669D01*
X98655785Y-142656798D01*
X98656620Y-142882563D01*
X98657727Y-143084026D01*
X98659096Y-143259246D01*
X98660719Y-143406286D01*
X98662587Y-143523206D01*
X98664689Y-143608067D01*
X98667018Y-143658929D01*
X98667459Y-143664304D01*
X98683508Y-143787613D01*
X98708564Y-143886644D01*
X98746721Y-143973070D01*
X98802072Y-144058565D01*
X98808996Y-144067893D01*
X98853204Y-144126857D01*
X99337416Y-144126857D01*
X99338392Y-144019168D01*
X99339501Y-143834976D01*
X99340301Y-143626784D01*
X99340839Y-143393091D01*
X99341162Y-143132398D01*
X99341317Y-142843204D01*
X99341354Y-142524009D01*
X99341317Y-142173313D01*
X99341255Y-141789614D01*
X99341215Y-141371414D01*
X99341214Y-141288393D01*
X99341191Y-140865789D01*
X99341112Y-140477981D01*
X99340967Y-140123480D01*
X99340744Y-139800797D01*
X99340431Y-139508442D01*
X99340017Y-139244927D01*
X99339491Y-139008762D01*
X99338840Y-138798458D01*
X99338053Y-138612526D01*
X99337119Y-138449475D01*
X99336026Y-138307818D01*
X99334763Y-138186064D01*
X99333317Y-138082725D01*
X99331679Y-137996311D01*
X99329834Y-137925333D01*
X99327774Y-137868301D01*
X99325485Y-137823727D01*
X99322956Y-137790121D01*
X99320176Y-137765993D01*
X99317133Y-137749856D01*
X99313816Y-137740218D01*
X99313693Y-137739978D01*
X99306860Y-137725255D01*
X99301170Y-137711926D01*
X99294874Y-137699922D01*
X99286228Y-137689173D01*
X99273486Y-137679611D01*
X99254900Y-137671167D01*
X99228726Y-137663771D01*
X99193216Y-137657354D01*
X99146625Y-137651848D01*
X99087207Y-137647183D01*
X99013215Y-137643291D01*
X98922903Y-137640102D01*
X98814525Y-137637547D01*
X98686335Y-137635558D01*
X98536587Y-137634065D01*
X98363534Y-137632998D01*
X98165431Y-137632291D01*
X97940531Y-137631872D01*
X97687088Y-137631673D01*
X97403356Y-137631626D01*
X97087589Y-137631660D01*
M02*
