G04 #@! TF.GenerationSoftware,KiCad,Pcbnew,(5.1.5)-3*
G04 #@! TF.CreationDate,2020-07-12T20:55:13+02:00*
G04 #@! TF.ProjectId,SYS_StepAtten,5359535f-5374-4657-9041-7474656e2e6b,v1.1*
G04 #@! TF.SameCoordinates,Original*
G04 #@! TF.FileFunction,Soldermask,Bot*
G04 #@! TF.FilePolarity,Negative*
%FSLAX46Y46*%
G04 Gerber Fmt 4.6, Leading zero omitted, Abs format (unit mm)*
G04 Created by KiCad (PCBNEW (5.1.5)-3) date 2020-07-12 20:55:13*
%MOMM*%
%LPD*%
G04 APERTURE LIST*
%ADD10C,0.100000*%
%ADD11C,0.150000*%
%ADD12C,0.300000*%
%ADD13C,0.400000*%
%ADD14C,0.050000*%
G04 APERTURE END LIST*
D10*
D11*
X177002200Y-166007200D02*
X177002200Y-198007200D01*
X285002200Y-198007200D01*
X285002200Y-166007200D01*
X177002200Y-166007200D01*
D10*
D11*
X10000000Y-10000000D02*
X10000000Y-200007200D01*
X287002200Y-200007200D01*
X287002200Y-10000000D01*
X10000000Y-10000000D01*
D10*
D11*
X12000000Y-12000000D02*
X12000000Y-198007200D01*
X285002200Y-198007200D01*
X285002200Y-12000000D01*
X12000000Y-12000000D01*
D10*
D11*
X60000000Y-12000000D02*
X60000000Y-10000000D01*
D10*
D11*
X110000000Y-12000000D02*
X110000000Y-10000000D01*
D10*
D11*
X160000000Y-12000000D02*
X160000000Y-10000000D01*
D10*
D11*
X210000000Y-12000000D02*
X210000000Y-10000000D01*
D10*
D11*
X260000000Y-12000000D02*
X260000000Y-10000000D01*
D10*
D11*
X36065476Y-11588095D02*
X35322619Y-11588095D01*
X35694047Y-11588095D02*
X35694047Y-10288095D01*
X35570238Y-10473809D01*
X35446428Y-10597619D01*
X35322619Y-10659523D01*
D10*
D11*
X85322619Y-10411904D02*
X85384523Y-10350000D01*
X85508333Y-10288095D01*
X85817857Y-10288095D01*
X85941666Y-10350000D01*
X86003571Y-10411904D01*
X86065476Y-10535714D01*
X86065476Y-10659523D01*
X86003571Y-10845238D01*
X85260714Y-11588095D01*
X86065476Y-11588095D01*
D10*
D11*
X135260714Y-10288095D02*
X136065476Y-10288095D01*
X135632142Y-10783333D01*
X135817857Y-10783333D01*
X135941666Y-10845238D01*
X136003571Y-10907142D01*
X136065476Y-11030952D01*
X136065476Y-11340476D01*
X136003571Y-11464285D01*
X135941666Y-11526190D01*
X135817857Y-11588095D01*
X135446428Y-11588095D01*
X135322619Y-11526190D01*
X135260714Y-11464285D01*
D10*
D11*
X185941666Y-10721428D02*
X185941666Y-11588095D01*
X185632142Y-10226190D02*
X185322619Y-11154761D01*
X186127380Y-11154761D01*
D10*
D11*
X236003571Y-10288095D02*
X235384523Y-10288095D01*
X235322619Y-10907142D01*
X235384523Y-10845238D01*
X235508333Y-10783333D01*
X235817857Y-10783333D01*
X235941666Y-10845238D01*
X236003571Y-10907142D01*
X236065476Y-11030952D01*
X236065476Y-11340476D01*
X236003571Y-11464285D01*
X235941666Y-11526190D01*
X235817857Y-11588095D01*
X235508333Y-11588095D01*
X235384523Y-11526190D01*
X235322619Y-11464285D01*
D10*
D11*
X285941666Y-10288095D02*
X285694047Y-10288095D01*
X285570238Y-10350000D01*
X285508333Y-10411904D01*
X285384523Y-10597619D01*
X285322619Y-10845238D01*
X285322619Y-11340476D01*
X285384523Y-11464285D01*
X285446428Y-11526190D01*
X285570238Y-11588095D01*
X285817857Y-11588095D01*
X285941666Y-11526190D01*
X286003571Y-11464285D01*
X286065476Y-11340476D01*
X286065476Y-11030952D01*
X286003571Y-10907142D01*
X285941666Y-10845238D01*
X285817857Y-10783333D01*
X285570238Y-10783333D01*
X285446428Y-10845238D01*
X285384523Y-10907142D01*
X285322619Y-11030952D01*
D10*
D11*
X60000000Y-198007200D02*
X60000000Y-200007200D01*
D10*
D11*
X110000000Y-198007200D02*
X110000000Y-200007200D01*
D10*
D11*
X160000000Y-198007200D02*
X160000000Y-200007200D01*
D10*
D11*
X210000000Y-198007200D02*
X210000000Y-200007200D01*
D10*
D11*
X260000000Y-198007200D02*
X260000000Y-200007200D01*
D10*
D11*
X36065476Y-199595295D02*
X35322619Y-199595295D01*
X35694047Y-199595295D02*
X35694047Y-198295295D01*
X35570238Y-198481009D01*
X35446428Y-198604819D01*
X35322619Y-198666723D01*
D10*
D11*
X85322619Y-198419104D02*
X85384523Y-198357200D01*
X85508333Y-198295295D01*
X85817857Y-198295295D01*
X85941666Y-198357200D01*
X86003571Y-198419104D01*
X86065476Y-198542914D01*
X86065476Y-198666723D01*
X86003571Y-198852438D01*
X85260714Y-199595295D01*
X86065476Y-199595295D01*
D10*
D11*
X135260714Y-198295295D02*
X136065476Y-198295295D01*
X135632142Y-198790533D01*
X135817857Y-198790533D01*
X135941666Y-198852438D01*
X136003571Y-198914342D01*
X136065476Y-199038152D01*
X136065476Y-199347676D01*
X136003571Y-199471485D01*
X135941666Y-199533390D01*
X135817857Y-199595295D01*
X135446428Y-199595295D01*
X135322619Y-199533390D01*
X135260714Y-199471485D01*
D10*
D11*
X185941666Y-198728628D02*
X185941666Y-199595295D01*
X185632142Y-198233390D02*
X185322619Y-199161961D01*
X186127380Y-199161961D01*
D10*
D11*
X236003571Y-198295295D02*
X235384523Y-198295295D01*
X235322619Y-198914342D01*
X235384523Y-198852438D01*
X235508333Y-198790533D01*
X235817857Y-198790533D01*
X235941666Y-198852438D01*
X236003571Y-198914342D01*
X236065476Y-199038152D01*
X236065476Y-199347676D01*
X236003571Y-199471485D01*
X235941666Y-199533390D01*
X235817857Y-199595295D01*
X235508333Y-199595295D01*
X235384523Y-199533390D01*
X235322619Y-199471485D01*
D10*
D11*
X285941666Y-198295295D02*
X285694047Y-198295295D01*
X285570238Y-198357200D01*
X285508333Y-198419104D01*
X285384523Y-198604819D01*
X285322619Y-198852438D01*
X285322619Y-199347676D01*
X285384523Y-199471485D01*
X285446428Y-199533390D01*
X285570238Y-199595295D01*
X285817857Y-199595295D01*
X285941666Y-199533390D01*
X286003571Y-199471485D01*
X286065476Y-199347676D01*
X286065476Y-199038152D01*
X286003571Y-198914342D01*
X285941666Y-198852438D01*
X285817857Y-198790533D01*
X285570238Y-198790533D01*
X285446428Y-198852438D01*
X285384523Y-198914342D01*
X285322619Y-199038152D01*
D10*
D11*
X10000000Y-60000000D02*
X12000000Y-60000000D01*
D10*
D11*
X10000000Y-110000000D02*
X12000000Y-110000000D01*
D10*
D11*
X10000000Y-160000000D02*
X12000000Y-160000000D01*
D10*
D11*
X10690476Y-35216666D02*
X11309523Y-35216666D01*
X10566666Y-35588095D02*
X11000000Y-34288095D01*
X11433333Y-35588095D01*
D10*
D11*
X11092857Y-84907142D02*
X11278571Y-84969047D01*
X11340476Y-85030952D01*
X11402380Y-85154761D01*
X11402380Y-85340476D01*
X11340476Y-85464285D01*
X11278571Y-85526190D01*
X11154761Y-85588095D01*
X10659523Y-85588095D01*
X10659523Y-84288095D01*
X11092857Y-84288095D01*
X11216666Y-84350000D01*
X11278571Y-84411904D01*
X11340476Y-84535714D01*
X11340476Y-84659523D01*
X11278571Y-84783333D01*
X11216666Y-84845238D01*
X11092857Y-84907142D01*
X10659523Y-84907142D01*
D10*
D11*
X11402380Y-135464285D02*
X11340476Y-135526190D01*
X11154761Y-135588095D01*
X11030952Y-135588095D01*
X10845238Y-135526190D01*
X10721428Y-135402380D01*
X10659523Y-135278571D01*
X10597619Y-135030952D01*
X10597619Y-134845238D01*
X10659523Y-134597619D01*
X10721428Y-134473809D01*
X10845238Y-134350000D01*
X11030952Y-134288095D01*
X11154761Y-134288095D01*
X11340476Y-134350000D01*
X11402380Y-134411904D01*
D10*
D11*
X10659523Y-185588095D02*
X10659523Y-184288095D01*
X10969047Y-184288095D01*
X11154761Y-184350000D01*
X11278571Y-184473809D01*
X11340476Y-184597619D01*
X11402380Y-184845238D01*
X11402380Y-185030952D01*
X11340476Y-185278571D01*
X11278571Y-185402380D01*
X11154761Y-185526190D01*
X10969047Y-185588095D01*
X10659523Y-185588095D01*
D10*
D11*
X287002200Y-60000000D02*
X285002200Y-60000000D01*
D10*
D11*
X287002200Y-110000000D02*
X285002200Y-110000000D01*
D10*
D11*
X287002200Y-160000000D02*
X285002200Y-160000000D01*
D10*
D11*
X285692676Y-35216666D02*
X286311723Y-35216666D01*
X285568866Y-35588095D02*
X286002200Y-34288095D01*
X286435533Y-35588095D01*
D10*
D11*
X286095057Y-84907142D02*
X286280771Y-84969047D01*
X286342676Y-85030952D01*
X286404580Y-85154761D01*
X286404580Y-85340476D01*
X286342676Y-85464285D01*
X286280771Y-85526190D01*
X286156961Y-85588095D01*
X285661723Y-85588095D01*
X285661723Y-84288095D01*
X286095057Y-84288095D01*
X286218866Y-84350000D01*
X286280771Y-84411904D01*
X286342676Y-84535714D01*
X286342676Y-84659523D01*
X286280771Y-84783333D01*
X286218866Y-84845238D01*
X286095057Y-84907142D01*
X285661723Y-84907142D01*
D10*
D11*
X286404580Y-135464285D02*
X286342676Y-135526190D01*
X286156961Y-135588095D01*
X286033152Y-135588095D01*
X285847438Y-135526190D01*
X285723628Y-135402380D01*
X285661723Y-135278571D01*
X285599819Y-135030952D01*
X285599819Y-134845238D01*
X285661723Y-134597619D01*
X285723628Y-134473809D01*
X285847438Y-134350000D01*
X286033152Y-134288095D01*
X286156961Y-134288095D01*
X286342676Y-134350000D01*
X286404580Y-134411904D01*
D10*
D11*
X285661723Y-185588095D02*
X285661723Y-184288095D01*
X285971247Y-184288095D01*
X286156961Y-184350000D01*
X286280771Y-184473809D01*
X286342676Y-184597619D01*
X286404580Y-184845238D01*
X286404580Y-185030952D01*
X286342676Y-185278571D01*
X286280771Y-185402380D01*
X286156961Y-185526190D01*
X285971247Y-185588095D01*
X285661723Y-185588095D01*
D10*
D11*
X200434342Y-193785771D02*
X200434342Y-192285771D01*
X200791485Y-192285771D01*
X201005771Y-192357200D01*
X201148628Y-192500057D01*
X201220057Y-192642914D01*
X201291485Y-192928628D01*
X201291485Y-193142914D01*
X201220057Y-193428628D01*
X201148628Y-193571485D01*
X201005771Y-193714342D01*
X200791485Y-193785771D01*
X200434342Y-193785771D01*
X202577200Y-193785771D02*
X202577200Y-193000057D01*
X202505771Y-192857200D01*
X202362914Y-192785771D01*
X202077200Y-192785771D01*
X201934342Y-192857200D01*
X202577200Y-193714342D02*
X202434342Y-193785771D01*
X202077200Y-193785771D01*
X201934342Y-193714342D01*
X201862914Y-193571485D01*
X201862914Y-193428628D01*
X201934342Y-193285771D01*
X202077200Y-193214342D01*
X202434342Y-193214342D01*
X202577200Y-193142914D01*
X203077200Y-192785771D02*
X203648628Y-192785771D01*
X203291485Y-192285771D02*
X203291485Y-193571485D01*
X203362914Y-193714342D01*
X203505771Y-193785771D01*
X203648628Y-193785771D01*
X204720057Y-193714342D02*
X204577200Y-193785771D01*
X204291485Y-193785771D01*
X204148628Y-193714342D01*
X204077200Y-193571485D01*
X204077200Y-193000057D01*
X204148628Y-192857200D01*
X204291485Y-192785771D01*
X204577200Y-192785771D01*
X204720057Y-192857200D01*
X204791485Y-193000057D01*
X204791485Y-193142914D01*
X204077200Y-193285771D01*
X205434342Y-193642914D02*
X205505771Y-193714342D01*
X205434342Y-193785771D01*
X205362914Y-193714342D01*
X205434342Y-193642914D01*
X205434342Y-193785771D01*
X205434342Y-192857200D02*
X205505771Y-192928628D01*
X205434342Y-193000057D01*
X205362914Y-192928628D01*
X205434342Y-192857200D01*
X205434342Y-193000057D01*
X207220057Y-192428628D02*
X207291485Y-192357200D01*
X207434342Y-192285771D01*
X207791485Y-192285771D01*
X207934342Y-192357200D01*
X208005771Y-192428628D01*
X208077200Y-192571485D01*
X208077200Y-192714342D01*
X208005771Y-192928628D01*
X207148628Y-193785771D01*
X208077200Y-193785771D01*
X209005771Y-192285771D02*
X209148628Y-192285771D01*
X209291485Y-192357200D01*
X209362914Y-192428628D01*
X209434342Y-192571485D01*
X209505771Y-192857200D01*
X209505771Y-193214342D01*
X209434342Y-193500057D01*
X209362914Y-193642914D01*
X209291485Y-193714342D01*
X209148628Y-193785771D01*
X209005771Y-193785771D01*
X208862914Y-193714342D01*
X208791485Y-193642914D01*
X208720057Y-193500057D01*
X208648628Y-193214342D01*
X208648628Y-192857200D01*
X208720057Y-192571485D01*
X208791485Y-192428628D01*
X208862914Y-192357200D01*
X209005771Y-192285771D01*
X210077200Y-192428628D02*
X210148628Y-192357200D01*
X210291485Y-192285771D01*
X210648628Y-192285771D01*
X210791485Y-192357200D01*
X210862914Y-192428628D01*
X210934342Y-192571485D01*
X210934342Y-192714342D01*
X210862914Y-192928628D01*
X210005771Y-193785771D01*
X210934342Y-193785771D01*
X211862914Y-192285771D02*
X212005771Y-192285771D01*
X212148628Y-192357200D01*
X212220057Y-192428628D01*
X212291485Y-192571485D01*
X212362914Y-192857200D01*
X212362914Y-193214342D01*
X212291485Y-193500057D01*
X212220057Y-193642914D01*
X212148628Y-193714342D01*
X212005771Y-193785771D01*
X211862914Y-193785771D01*
X211720057Y-193714342D01*
X211648628Y-193642914D01*
X211577200Y-193500057D01*
X211505771Y-193214342D01*
X211505771Y-192857200D01*
X211577200Y-192571485D01*
X211648628Y-192428628D01*
X211720057Y-192357200D01*
X211862914Y-192285771D01*
X213005771Y-193214342D02*
X214148628Y-193214342D01*
X215148628Y-192285771D02*
X215291485Y-192285771D01*
X215434342Y-192357200D01*
X215505771Y-192428628D01*
X215577200Y-192571485D01*
X215648628Y-192857200D01*
X215648628Y-193214342D01*
X215577200Y-193500057D01*
X215505771Y-193642914D01*
X215434342Y-193714342D01*
X215291485Y-193785771D01*
X215148628Y-193785771D01*
X215005771Y-193714342D01*
X214934342Y-193642914D01*
X214862914Y-193500057D01*
X214791485Y-193214342D01*
X214791485Y-192857200D01*
X214862914Y-192571485D01*
X214934342Y-192428628D01*
X215005771Y-192357200D01*
X215148628Y-192285771D01*
X216148628Y-192285771D02*
X217148628Y-192285771D01*
X216505771Y-193785771D01*
X217720057Y-193214342D02*
X218862914Y-193214342D01*
X220362914Y-193785771D02*
X219505771Y-193785771D01*
X219934342Y-193785771D02*
X219934342Y-192285771D01*
X219791485Y-192500057D01*
X219648628Y-192642914D01*
X219505771Y-192714342D01*
X220934342Y-192428628D02*
X221005771Y-192357200D01*
X221148628Y-192285771D01*
X221505771Y-192285771D01*
X221648628Y-192357200D01*
X221720057Y-192428628D01*
X221791485Y-192571485D01*
X221791485Y-192714342D01*
X221720057Y-192928628D01*
X220862914Y-193785771D01*
X221791485Y-193785771D01*
D10*
D11*
X177002200Y-194507200D02*
X285002200Y-194507200D01*
D10*
D11*
X178434342Y-196585771D02*
X178434342Y-195085771D01*
X179291485Y-196585771D02*
X178648628Y-195728628D01*
X179291485Y-195085771D02*
X178434342Y-195942914D01*
X179934342Y-196585771D02*
X179934342Y-195585771D01*
X179934342Y-195085771D02*
X179862914Y-195157200D01*
X179934342Y-195228628D01*
X180005771Y-195157200D01*
X179934342Y-195085771D01*
X179934342Y-195228628D01*
X181505771Y-196442914D02*
X181434342Y-196514342D01*
X181220057Y-196585771D01*
X181077200Y-196585771D01*
X180862914Y-196514342D01*
X180720057Y-196371485D01*
X180648628Y-196228628D01*
X180577200Y-195942914D01*
X180577200Y-195728628D01*
X180648628Y-195442914D01*
X180720057Y-195300057D01*
X180862914Y-195157200D01*
X181077200Y-195085771D01*
X181220057Y-195085771D01*
X181434342Y-195157200D01*
X181505771Y-195228628D01*
X182791485Y-196585771D02*
X182791485Y-195800057D01*
X182720057Y-195657200D01*
X182577200Y-195585771D01*
X182291485Y-195585771D01*
X182148628Y-195657200D01*
X182791485Y-196514342D02*
X182648628Y-196585771D01*
X182291485Y-196585771D01*
X182148628Y-196514342D01*
X182077200Y-196371485D01*
X182077200Y-196228628D01*
X182148628Y-196085771D01*
X182291485Y-196014342D01*
X182648628Y-196014342D01*
X182791485Y-195942914D01*
X184148628Y-196585771D02*
X184148628Y-195085771D01*
X184148628Y-196514342D02*
X184005771Y-196585771D01*
X183720057Y-196585771D01*
X183577200Y-196514342D01*
X183505771Y-196442914D01*
X183434342Y-196300057D01*
X183434342Y-195871485D01*
X183505771Y-195728628D01*
X183577200Y-195657200D01*
X183720057Y-195585771D01*
X184005771Y-195585771D01*
X184148628Y-195657200D01*
X186005771Y-195800057D02*
X186505771Y-195800057D01*
X186720057Y-196585771D02*
X186005771Y-196585771D01*
X186005771Y-195085771D01*
X186720057Y-195085771D01*
X187362914Y-196442914D02*
X187434342Y-196514342D01*
X187362914Y-196585771D01*
X187291485Y-196514342D01*
X187362914Y-196442914D01*
X187362914Y-196585771D01*
X188077200Y-196585771D02*
X188077200Y-195085771D01*
X188434342Y-195085771D01*
X188648628Y-195157200D01*
X188791485Y-195300057D01*
X188862914Y-195442914D01*
X188934342Y-195728628D01*
X188934342Y-195942914D01*
X188862914Y-196228628D01*
X188791485Y-196371485D01*
X188648628Y-196514342D01*
X188434342Y-196585771D01*
X188077200Y-196585771D01*
X189577200Y-196442914D02*
X189648628Y-196514342D01*
X189577200Y-196585771D01*
X189505771Y-196514342D01*
X189577200Y-196442914D01*
X189577200Y-196585771D01*
X190220057Y-196157200D02*
X190934342Y-196157200D01*
X190077200Y-196585771D02*
X190577200Y-195085771D01*
X191077200Y-196585771D01*
X191577200Y-196442914D02*
X191648628Y-196514342D01*
X191577200Y-196585771D01*
X191505771Y-196514342D01*
X191577200Y-196442914D01*
X191577200Y-196585771D01*
X194577200Y-196585771D02*
X194577200Y-195085771D01*
X194720057Y-196014342D02*
X195148628Y-196585771D01*
X195148628Y-195585771D02*
X194577200Y-196157200D01*
X195791485Y-196585771D02*
X195791485Y-195585771D01*
X195791485Y-195085771D02*
X195720057Y-195157200D01*
X195791485Y-195228628D01*
X195862914Y-195157200D01*
X195791485Y-195085771D01*
X195791485Y-195228628D01*
X197148628Y-196514342D02*
X197005771Y-196585771D01*
X196720057Y-196585771D01*
X196577200Y-196514342D01*
X196505771Y-196442914D01*
X196434342Y-196300057D01*
X196434342Y-195871485D01*
X196505771Y-195728628D01*
X196577200Y-195657200D01*
X196720057Y-195585771D01*
X197005771Y-195585771D01*
X197148628Y-195657200D01*
X198434342Y-196585771D02*
X198434342Y-195800057D01*
X198362914Y-195657200D01*
X198220057Y-195585771D01*
X197934342Y-195585771D01*
X197791485Y-195657200D01*
X198434342Y-196514342D02*
X198291485Y-196585771D01*
X197934342Y-196585771D01*
X197791485Y-196514342D01*
X197720057Y-196371485D01*
X197720057Y-196228628D01*
X197791485Y-196085771D01*
X197934342Y-196014342D01*
X198291485Y-196014342D01*
X198434342Y-195942914D01*
X199791485Y-196585771D02*
X199791485Y-195085771D01*
X199791485Y-196514342D02*
X199648628Y-196585771D01*
X199362914Y-196585771D01*
X199220057Y-196514342D01*
X199148628Y-196442914D01*
X199077200Y-196300057D01*
X199077200Y-195871485D01*
X199148628Y-195728628D01*
X199220057Y-195657200D01*
X199362914Y-195585771D01*
X199648628Y-195585771D01*
X199791485Y-195657200D01*
X202077200Y-197157200D02*
X202005771Y-197085771D01*
X201862914Y-196871485D01*
X201791485Y-196728628D01*
X201720057Y-196514342D01*
X201648628Y-196157200D01*
X201648628Y-195871485D01*
X201720057Y-195514342D01*
X201791485Y-195300057D01*
X201862914Y-195157200D01*
X202005771Y-194942914D01*
X202077200Y-194871485D01*
X203362914Y-195085771D02*
X202648628Y-195085771D01*
X202577200Y-195800057D01*
X202648628Y-195728628D01*
X202791485Y-195657200D01*
X203148628Y-195657200D01*
X203291485Y-195728628D01*
X203362914Y-195800057D01*
X203434342Y-195942914D01*
X203434342Y-196300057D01*
X203362914Y-196442914D01*
X203291485Y-196514342D01*
X203148628Y-196585771D01*
X202791485Y-196585771D01*
X202648628Y-196514342D01*
X202577200Y-196442914D01*
X204077200Y-196442914D02*
X204148628Y-196514342D01*
X204077200Y-196585771D01*
X204005771Y-196514342D01*
X204077200Y-196442914D01*
X204077200Y-196585771D01*
X205577200Y-196585771D02*
X204720057Y-196585771D01*
X205148628Y-196585771D02*
X205148628Y-195085771D01*
X205005771Y-195300057D01*
X204862914Y-195442914D01*
X204720057Y-195514342D01*
X206220057Y-196442914D02*
X206291485Y-196514342D01*
X206220057Y-196585771D01*
X206148628Y-196514342D01*
X206220057Y-196442914D01*
X206220057Y-196585771D01*
X207648628Y-195085771D02*
X206934342Y-195085771D01*
X206862914Y-195800057D01*
X206934342Y-195728628D01*
X207077200Y-195657200D01*
X207434342Y-195657200D01*
X207577200Y-195728628D01*
X207648628Y-195800057D01*
X207720057Y-195942914D01*
X207720057Y-196300057D01*
X207648628Y-196442914D01*
X207577200Y-196514342D01*
X207434342Y-196585771D01*
X207077200Y-196585771D01*
X206934342Y-196514342D01*
X206862914Y-196442914D01*
X208220057Y-197157200D02*
X208291485Y-197085771D01*
X208434342Y-196871485D01*
X208505771Y-196728628D01*
X208577200Y-196514342D01*
X208648628Y-196157200D01*
X208648628Y-195871485D01*
X208577200Y-195514342D01*
X208505771Y-195300057D01*
X208434342Y-195157200D01*
X208291485Y-194942914D01*
X208220057Y-194871485D01*
X209362914Y-196014342D02*
X210505771Y-196014342D01*
X211077200Y-195085771D02*
X212005771Y-195085771D01*
X211505771Y-195657200D01*
X211720057Y-195657200D01*
X211862914Y-195728628D01*
X211934342Y-195800057D01*
X212005771Y-195942914D01*
X212005771Y-196300057D01*
X211934342Y-196442914D01*
X211862914Y-196514342D01*
X211720057Y-196585771D01*
X211291485Y-196585771D01*
X211148628Y-196514342D01*
X211077200Y-196442914D01*
D10*
D11*
X177002200Y-191507200D02*
X285002200Y-191507200D01*
D10*
D12*
X264411485Y-193785771D02*
X263911485Y-193071485D01*
X263554342Y-193785771D02*
X263554342Y-192285771D01*
X264125771Y-192285771D01*
X264268628Y-192357200D01*
X264340057Y-192428628D01*
X264411485Y-192571485D01*
X264411485Y-192785771D01*
X264340057Y-192928628D01*
X264268628Y-193000057D01*
X264125771Y-193071485D01*
X263554342Y-193071485D01*
X265625771Y-193714342D02*
X265482914Y-193785771D01*
X265197200Y-193785771D01*
X265054342Y-193714342D01*
X264982914Y-193571485D01*
X264982914Y-193000057D01*
X265054342Y-192857200D01*
X265197200Y-192785771D01*
X265482914Y-192785771D01*
X265625771Y-192857200D01*
X265697200Y-193000057D01*
X265697200Y-193142914D01*
X264982914Y-193285771D01*
X266197200Y-192785771D02*
X266554342Y-193785771D01*
X266911485Y-192785771D01*
X267482914Y-193642914D02*
X267554342Y-193714342D01*
X267482914Y-193785771D01*
X267411485Y-193714342D01*
X267482914Y-193642914D01*
X267482914Y-193785771D01*
X267482914Y-192857200D02*
X267554342Y-192928628D01*
X267482914Y-193000057D01*
X267411485Y-192928628D01*
X267482914Y-192857200D01*
X267482914Y-193000057D01*
X269197200Y-192785771D02*
X269554342Y-193785771D01*
X269911485Y-192785771D01*
X271268628Y-193785771D02*
X270411485Y-193785771D01*
X270840057Y-193785771D02*
X270840057Y-192285771D01*
X270697200Y-192500057D01*
X270554342Y-192642914D01*
X270411485Y-192714342D01*
X271911485Y-193642914D02*
X271982914Y-193714342D01*
X271911485Y-193785771D01*
X271840057Y-193714342D01*
X271911485Y-193642914D01*
X271911485Y-193785771D01*
X273411485Y-193785771D02*
X272554342Y-193785771D01*
X272982914Y-193785771D02*
X272982914Y-192285771D01*
X272840057Y-192500057D01*
X272697200Y-192642914D01*
X272554342Y-192714342D01*
D10*
D11*
X178362914Y-193714342D02*
X178577200Y-193785771D01*
X178934342Y-193785771D01*
X179077200Y-193714342D01*
X179148628Y-193642914D01*
X179220057Y-193500057D01*
X179220057Y-193357200D01*
X179148628Y-193214342D01*
X179077200Y-193142914D01*
X178934342Y-193071485D01*
X178648628Y-193000057D01*
X178505771Y-192928628D01*
X178434342Y-192857200D01*
X178362914Y-192714342D01*
X178362914Y-192571485D01*
X178434342Y-192428628D01*
X178505771Y-192357200D01*
X178648628Y-192285771D01*
X179005771Y-192285771D01*
X179220057Y-192357200D01*
X179862914Y-193785771D02*
X179862914Y-192785771D01*
X179862914Y-192285771D02*
X179791485Y-192357200D01*
X179862914Y-192428628D01*
X179934342Y-192357200D01*
X179862914Y-192285771D01*
X179862914Y-192428628D01*
X180434342Y-192785771D02*
X181220057Y-192785771D01*
X180434342Y-193785771D01*
X181220057Y-193785771D01*
X182362914Y-193714342D02*
X182220057Y-193785771D01*
X181934342Y-193785771D01*
X181791485Y-193714342D01*
X181720057Y-193571485D01*
X181720057Y-193000057D01*
X181791485Y-192857200D01*
X181934342Y-192785771D01*
X182220057Y-192785771D01*
X182362914Y-192857200D01*
X182434342Y-193000057D01*
X182434342Y-193142914D01*
X181720057Y-193285771D01*
X183077200Y-193642914D02*
X183148628Y-193714342D01*
X183077200Y-193785771D01*
X183005771Y-193714342D01*
X183077200Y-193642914D01*
X183077200Y-193785771D01*
X183077200Y-192857200D02*
X183148628Y-192928628D01*
X183077200Y-193000057D01*
X183005771Y-192928628D01*
X183077200Y-192857200D01*
X183077200Y-193000057D01*
X184862914Y-193357200D02*
X185577200Y-193357200D01*
X184720057Y-193785771D02*
X185220057Y-192285771D01*
X185720057Y-193785771D01*
X186862914Y-192785771D02*
X186862914Y-193785771D01*
X186505771Y-192214342D02*
X186148628Y-193285771D01*
X187077200Y-193285771D01*
D10*
D11*
X263434342Y-196585771D02*
X263434342Y-195085771D01*
X264791485Y-196585771D02*
X264791485Y-195085771D01*
X264791485Y-196514342D02*
X264648628Y-196585771D01*
X264362914Y-196585771D01*
X264220057Y-196514342D01*
X264148628Y-196442914D01*
X264077200Y-196300057D01*
X264077200Y-195871485D01*
X264148628Y-195728628D01*
X264220057Y-195657200D01*
X264362914Y-195585771D01*
X264648628Y-195585771D01*
X264791485Y-195657200D01*
X265505771Y-196442914D02*
X265577200Y-196514342D01*
X265505771Y-196585771D01*
X265434342Y-196514342D01*
X265505771Y-196442914D01*
X265505771Y-196585771D01*
X265505771Y-195657200D02*
X265577200Y-195728628D01*
X265505771Y-195800057D01*
X265434342Y-195728628D01*
X265505771Y-195657200D01*
X265505771Y-195800057D01*
X268148628Y-196585771D02*
X267291485Y-196585771D01*
X267720057Y-196585771D02*
X267720057Y-195085771D01*
X267577200Y-195300057D01*
X267434342Y-195442914D01*
X267291485Y-195514342D01*
X269862914Y-195014342D02*
X268577200Y-196942914D01*
X271148628Y-196585771D02*
X270291485Y-196585771D01*
X270720057Y-196585771D02*
X270720057Y-195085771D01*
X270577200Y-195300057D01*
X270434342Y-195442914D01*
X270291485Y-195514342D01*
D10*
D11*
X177002200Y-187507200D02*
X285002200Y-187507200D01*
D10*
D13*
X178714580Y-188211961D02*
X179857438Y-188211961D01*
X179036009Y-190211961D02*
X179286009Y-188211961D01*
X180274104Y-190211961D02*
X180440771Y-188878628D01*
X180524104Y-188211961D02*
X180416961Y-188307200D01*
X180500295Y-188402438D01*
X180607438Y-188307200D01*
X180524104Y-188211961D01*
X180500295Y-188402438D01*
X181107438Y-188878628D02*
X181869342Y-188878628D01*
X181476485Y-188211961D02*
X181262200Y-189926247D01*
X181333628Y-190116723D01*
X181512200Y-190211961D01*
X181702676Y-190211961D01*
X182655057Y-190211961D02*
X182476485Y-190116723D01*
X182405057Y-189926247D01*
X182619342Y-188211961D01*
X184190771Y-190116723D02*
X183988390Y-190211961D01*
X183607438Y-190211961D01*
X183428866Y-190116723D01*
X183357438Y-189926247D01*
X183452676Y-189164342D01*
X183571723Y-188973866D01*
X183774104Y-188878628D01*
X184155057Y-188878628D01*
X184333628Y-188973866D01*
X184405057Y-189164342D01*
X184381247Y-189354819D01*
X183405057Y-189545295D01*
X185155057Y-190021485D02*
X185238390Y-190116723D01*
X185131247Y-190211961D01*
X185047914Y-190116723D01*
X185155057Y-190021485D01*
X185131247Y-190211961D01*
X185286009Y-188973866D02*
X185369342Y-189069104D01*
X185262200Y-189164342D01*
X185178866Y-189069104D01*
X185286009Y-188973866D01*
X185262200Y-189164342D01*
X187524104Y-190116723D02*
X187797914Y-190211961D01*
X188274104Y-190211961D01*
X188476485Y-190116723D01*
X188583628Y-190021485D01*
X188702676Y-189831009D01*
X188726485Y-189640533D01*
X188655057Y-189450057D01*
X188571723Y-189354819D01*
X188393152Y-189259580D01*
X188024104Y-189164342D01*
X187845533Y-189069104D01*
X187762200Y-188973866D01*
X187690771Y-188783390D01*
X187714580Y-188592914D01*
X187833628Y-188402438D01*
X187940771Y-188307200D01*
X188143152Y-188211961D01*
X188619342Y-188211961D01*
X188893152Y-188307200D01*
X190012200Y-189259580D02*
X189893152Y-190211961D01*
X189476485Y-188211961D02*
X190012200Y-189259580D01*
X190809819Y-188211961D01*
X191143152Y-190116723D02*
X191416961Y-190211961D01*
X191893152Y-190211961D01*
X192095533Y-190116723D01*
X192202676Y-190021485D01*
X192321723Y-189831009D01*
X192345533Y-189640533D01*
X192274104Y-189450057D01*
X192190771Y-189354819D01*
X192012200Y-189259580D01*
X191643152Y-189164342D01*
X191464580Y-189069104D01*
X191381247Y-188973866D01*
X191309819Y-188783390D01*
X191333628Y-188592914D01*
X191452676Y-188402438D01*
X191559819Y-188307200D01*
X191762200Y-188211961D01*
X192238390Y-188211961D01*
X192512200Y-188307200D01*
X194750295Y-189450057D02*
X196274104Y-189450057D01*
X198571723Y-190116723D02*
X198845533Y-190211961D01*
X199321723Y-190211961D01*
X199524104Y-190116723D01*
X199631247Y-190021485D01*
X199750295Y-189831009D01*
X199774104Y-189640533D01*
X199702676Y-189450057D01*
X199619342Y-189354819D01*
X199440771Y-189259580D01*
X199071723Y-189164342D01*
X198893152Y-189069104D01*
X198809819Y-188973866D01*
X198738390Y-188783390D01*
X198762200Y-188592914D01*
X198881247Y-188402438D01*
X198988390Y-188307200D01*
X199190771Y-188211961D01*
X199666961Y-188211961D01*
X199940771Y-188307200D01*
X200440771Y-188878628D02*
X201202676Y-188878628D01*
X200809819Y-188211961D02*
X200595533Y-189926247D01*
X200666961Y-190116723D01*
X200845533Y-190211961D01*
X201036009Y-190211961D01*
X202476485Y-190116723D02*
X202274104Y-190211961D01*
X201893152Y-190211961D01*
X201714580Y-190116723D01*
X201643152Y-189926247D01*
X201738390Y-189164342D01*
X201857438Y-188973866D01*
X202059819Y-188878628D01*
X202440771Y-188878628D01*
X202619342Y-188973866D01*
X202690771Y-189164342D01*
X202666961Y-189354819D01*
X201690771Y-189545295D01*
X203583628Y-188878628D02*
X203333628Y-190878628D01*
X203571723Y-188973866D02*
X203774104Y-188878628D01*
X204155057Y-188878628D01*
X204333628Y-188973866D01*
X204416961Y-189069104D01*
X204488390Y-189259580D01*
X204416961Y-189831009D01*
X204297914Y-190021485D01*
X204190771Y-190116723D01*
X203988390Y-190211961D01*
X203607438Y-190211961D01*
X203428866Y-190116723D01*
X206726485Y-189640533D02*
X207678866Y-189640533D01*
X206464580Y-190211961D02*
X207381247Y-188211961D01*
X207797914Y-190211961D01*
X208345533Y-188878628D02*
X209107438Y-188878628D01*
X208714580Y-188211961D02*
X208500295Y-189926247D01*
X208571723Y-190116723D01*
X208750295Y-190211961D01*
X208940771Y-190211961D01*
X209488390Y-188878628D02*
X210250295Y-188878628D01*
X209857438Y-188211961D02*
X209643152Y-189926247D01*
X209714580Y-190116723D01*
X209893152Y-190211961D01*
X210083628Y-190211961D01*
X211524104Y-190116723D02*
X211321723Y-190211961D01*
X210940771Y-190211961D01*
X210762200Y-190116723D01*
X210690771Y-189926247D01*
X210786009Y-189164342D01*
X210905057Y-188973866D01*
X211107438Y-188878628D01*
X211488390Y-188878628D01*
X211666961Y-188973866D01*
X211738390Y-189164342D01*
X211714580Y-189354819D01*
X210738390Y-189545295D01*
X212631247Y-188878628D02*
X212464580Y-190211961D01*
X212607438Y-189069104D02*
X212714580Y-188973866D01*
X212916961Y-188878628D01*
X213202676Y-188878628D01*
X213381247Y-188973866D01*
X213452676Y-189164342D01*
X213321723Y-190211961D01*
X215297914Y-188878628D02*
X215131247Y-190211961D01*
X214440771Y-188878628D02*
X214309819Y-189926247D01*
X214381247Y-190116723D01*
X214559819Y-190211961D01*
X214845533Y-190211961D01*
X215047914Y-190116723D01*
X215155057Y-190021485D01*
X216940771Y-190211961D02*
X217071723Y-189164342D01*
X217000295Y-188973866D01*
X216821723Y-188878628D01*
X216440771Y-188878628D01*
X216238390Y-188973866D01*
X216952676Y-190116723D02*
X216750295Y-190211961D01*
X216274104Y-190211961D01*
X216095533Y-190116723D01*
X216024104Y-189926247D01*
X216047914Y-189735771D01*
X216166961Y-189545295D01*
X216369342Y-189450057D01*
X216845533Y-189450057D01*
X217047914Y-189354819D01*
X217774104Y-188878628D02*
X218536009Y-188878628D01*
X218143152Y-188211961D02*
X217928866Y-189926247D01*
X218000295Y-190116723D01*
X218178866Y-190211961D01*
X218369342Y-190211961D01*
X219321723Y-190211961D02*
X219143152Y-190116723D01*
X219059819Y-190021485D01*
X218988390Y-189831009D01*
X219059819Y-189259580D01*
X219178866Y-189069104D01*
X219286009Y-188973866D01*
X219488390Y-188878628D01*
X219774104Y-188878628D01*
X219952676Y-188973866D01*
X220036009Y-189069104D01*
X220107438Y-189259580D01*
X220036009Y-189831009D01*
X219916961Y-190021485D01*
X219809819Y-190116723D01*
X219607438Y-190211961D01*
X219321723Y-190211961D01*
X220845533Y-190211961D02*
X221012199Y-188878628D01*
X220964580Y-189259580D02*
X221083628Y-189069104D01*
X221190771Y-188973866D01*
X221393152Y-188878628D01*
X221583628Y-188878628D01*
D10*
D11*
X178934342Y-185600057D02*
X178434342Y-185600057D01*
X178434342Y-186385771D02*
X178434342Y-184885771D01*
X179148628Y-184885771D01*
X179720057Y-186385771D02*
X179720057Y-185385771D01*
X179720057Y-184885771D02*
X179648628Y-184957200D01*
X179720057Y-185028628D01*
X179791485Y-184957200D01*
X179720057Y-184885771D01*
X179720057Y-185028628D01*
X180648628Y-186385771D02*
X180505771Y-186314342D01*
X180434342Y-186171485D01*
X180434342Y-184885771D01*
X181791485Y-186314342D02*
X181648628Y-186385771D01*
X181362914Y-186385771D01*
X181220057Y-186314342D01*
X181148628Y-186171485D01*
X181148628Y-185600057D01*
X181220057Y-185457200D01*
X181362914Y-185385771D01*
X181648628Y-185385771D01*
X181791485Y-185457200D01*
X181862914Y-185600057D01*
X181862914Y-185742914D01*
X181148628Y-185885771D01*
X182505771Y-186242914D02*
X182577200Y-186314342D01*
X182505771Y-186385771D01*
X182434342Y-186314342D01*
X182505771Y-186242914D01*
X182505771Y-186385771D01*
X182505771Y-185457200D02*
X182577200Y-185528628D01*
X182505771Y-185600057D01*
X182434342Y-185528628D01*
X182505771Y-185457200D01*
X182505771Y-185600057D01*
X184291485Y-186314342D02*
X184505771Y-186385771D01*
X184862914Y-186385771D01*
X185005771Y-186314342D01*
X185077200Y-186242914D01*
X185148628Y-186100057D01*
X185148628Y-185957200D01*
X185077200Y-185814342D01*
X185005771Y-185742914D01*
X184862914Y-185671485D01*
X184577200Y-185600057D01*
X184434342Y-185528628D01*
X184362914Y-185457200D01*
X184291485Y-185314342D01*
X184291485Y-185171485D01*
X184362914Y-185028628D01*
X184434342Y-184957200D01*
X184577200Y-184885771D01*
X184934342Y-184885771D01*
X185148628Y-184957200D01*
X186077200Y-185671485D02*
X186077200Y-186385771D01*
X185577200Y-184885771D02*
X186077200Y-185671485D01*
X186577200Y-184885771D01*
X187005771Y-186314342D02*
X187220057Y-186385771D01*
X187577200Y-186385771D01*
X187720057Y-186314342D01*
X187791485Y-186242914D01*
X187862914Y-186100057D01*
X187862914Y-185957200D01*
X187791485Y-185814342D01*
X187720057Y-185742914D01*
X187577200Y-185671485D01*
X187291485Y-185600057D01*
X187148628Y-185528628D01*
X187077200Y-185457200D01*
X187005771Y-185314342D01*
X187005771Y-185171485D01*
X187077200Y-185028628D01*
X187148628Y-184957200D01*
X187291485Y-184885771D01*
X187648628Y-184885771D01*
X187862914Y-184957200D01*
X188148628Y-186528628D02*
X189291485Y-186528628D01*
X189577200Y-186314342D02*
X189791485Y-186385771D01*
X190148628Y-186385771D01*
X190291485Y-186314342D01*
X190362914Y-186242914D01*
X190434342Y-186100057D01*
X190434342Y-185957200D01*
X190362914Y-185814342D01*
X190291485Y-185742914D01*
X190148628Y-185671485D01*
X189862914Y-185600057D01*
X189720057Y-185528628D01*
X189648628Y-185457200D01*
X189577200Y-185314342D01*
X189577200Y-185171485D01*
X189648628Y-185028628D01*
X189720057Y-184957200D01*
X189862914Y-184885771D01*
X190220057Y-184885771D01*
X190434342Y-184957200D01*
X190862914Y-185385771D02*
X191434342Y-185385771D01*
X191077200Y-184885771D02*
X191077200Y-186171485D01*
X191148628Y-186314342D01*
X191291485Y-186385771D01*
X191434342Y-186385771D01*
X192505771Y-186314342D02*
X192362914Y-186385771D01*
X192077200Y-186385771D01*
X191934342Y-186314342D01*
X191862914Y-186171485D01*
X191862914Y-185600057D01*
X191934342Y-185457200D01*
X192077200Y-185385771D01*
X192362914Y-185385771D01*
X192505771Y-185457200D01*
X192577200Y-185600057D01*
X192577200Y-185742914D01*
X191862914Y-185885771D01*
X193220057Y-185385771D02*
X193220057Y-186885771D01*
X193220057Y-185457200D02*
X193362914Y-185385771D01*
X193648628Y-185385771D01*
X193791485Y-185457200D01*
X193862914Y-185528628D01*
X193934342Y-185671485D01*
X193934342Y-186100057D01*
X193862914Y-186242914D01*
X193791485Y-186314342D01*
X193648628Y-186385771D01*
X193362914Y-186385771D01*
X193220057Y-186314342D01*
X194505771Y-185957200D02*
X195220057Y-185957200D01*
X194362914Y-186385771D02*
X194862914Y-184885771D01*
X195362914Y-186385771D01*
X195648628Y-185385771D02*
X196220057Y-185385771D01*
X195862914Y-184885771D02*
X195862914Y-186171485D01*
X195934342Y-186314342D01*
X196077200Y-186385771D01*
X196220057Y-186385771D01*
X196505771Y-185385771D02*
X197077200Y-185385771D01*
X196720057Y-184885771D02*
X196720057Y-186171485D01*
X196791485Y-186314342D01*
X196934342Y-186385771D01*
X197077200Y-186385771D01*
X198148628Y-186314342D02*
X198005771Y-186385771D01*
X197720057Y-186385771D01*
X197577200Y-186314342D01*
X197505771Y-186171485D01*
X197505771Y-185600057D01*
X197577200Y-185457200D01*
X197720057Y-185385771D01*
X198005771Y-185385771D01*
X198148628Y-185457200D01*
X198220057Y-185600057D01*
X198220057Y-185742914D01*
X197505771Y-185885771D01*
X198862914Y-185385771D02*
X198862914Y-186385771D01*
X198862914Y-185528628D02*
X198934342Y-185457200D01*
X199077200Y-185385771D01*
X199291485Y-185385771D01*
X199434342Y-185457200D01*
X199505771Y-185600057D01*
X199505771Y-186385771D01*
X200220057Y-186242914D02*
X200291485Y-186314342D01*
X200220057Y-186385771D01*
X200148628Y-186314342D01*
X200220057Y-186242914D01*
X200220057Y-186385771D01*
X200934342Y-186385771D02*
X200934342Y-184885771D01*
X201077200Y-185814342D02*
X201505771Y-186385771D01*
X201505771Y-185385771D02*
X200934342Y-185957200D01*
X202148628Y-186385771D02*
X202148628Y-185385771D01*
X202148628Y-184885771D02*
X202077200Y-184957200D01*
X202148628Y-185028628D01*
X202220057Y-184957200D01*
X202148628Y-184885771D01*
X202148628Y-185028628D01*
X203505771Y-186314342D02*
X203362914Y-186385771D01*
X203077200Y-186385771D01*
X202934342Y-186314342D01*
X202862914Y-186242914D01*
X202791485Y-186100057D01*
X202791485Y-185671485D01*
X202862914Y-185528628D01*
X202934342Y-185457200D01*
X203077200Y-185385771D01*
X203362914Y-185385771D01*
X203505771Y-185457200D01*
X204791485Y-186385771D02*
X204791485Y-185600057D01*
X204720057Y-185457200D01*
X204577200Y-185385771D01*
X204291485Y-185385771D01*
X204148628Y-185457200D01*
X204791485Y-186314342D02*
X204648628Y-186385771D01*
X204291485Y-186385771D01*
X204148628Y-186314342D01*
X204077200Y-186171485D01*
X204077200Y-186028628D01*
X204148628Y-185885771D01*
X204291485Y-185814342D01*
X204648628Y-185814342D01*
X204791485Y-185742914D01*
X206148628Y-186385771D02*
X206148628Y-184885771D01*
X206148628Y-186314342D02*
X206005771Y-186385771D01*
X205720057Y-186385771D01*
X205577200Y-186314342D01*
X205505771Y-186242914D01*
X205434342Y-186100057D01*
X205434342Y-185671485D01*
X205505771Y-185528628D01*
X205577200Y-185457200D01*
X205720057Y-185385771D01*
X206005771Y-185385771D01*
X206148628Y-185457200D01*
X206505771Y-186528628D02*
X207648628Y-186528628D01*
X208005771Y-185385771D02*
X208005771Y-186885771D01*
X208005771Y-185457200D02*
X208148628Y-185385771D01*
X208434342Y-185385771D01*
X208577200Y-185457200D01*
X208648628Y-185528628D01*
X208720057Y-185671485D01*
X208720057Y-186100057D01*
X208648628Y-186242914D01*
X208577200Y-186314342D01*
X208434342Y-186385771D01*
X208148628Y-186385771D01*
X208005771Y-186314342D01*
X210005771Y-186314342D02*
X209862914Y-186385771D01*
X209577200Y-186385771D01*
X209434342Y-186314342D01*
X209362914Y-186242914D01*
X209291485Y-186100057D01*
X209291485Y-185671485D01*
X209362914Y-185528628D01*
X209434342Y-185457200D01*
X209577200Y-185385771D01*
X209862914Y-185385771D01*
X210005771Y-185457200D01*
X210648628Y-186385771D02*
X210648628Y-184885771D01*
X210648628Y-185457200D02*
X210791485Y-185385771D01*
X211077200Y-185385771D01*
X211220057Y-185457200D01*
X211291485Y-185528628D01*
X211362914Y-185671485D01*
X211362914Y-186100057D01*
X211291485Y-186242914D01*
X211220057Y-186314342D01*
X211077200Y-186385771D01*
X210791485Y-186385771D01*
X210648628Y-186314342D01*
D10*
D11*
X177002200Y-181507200D02*
X285002200Y-181507200D01*
D10*
D11*
X178362914Y-183614342D02*
X178577200Y-183685771D01*
X178934342Y-183685771D01*
X179077200Y-183614342D01*
X179148628Y-183542914D01*
X179220057Y-183400057D01*
X179220057Y-183257200D01*
X179148628Y-183114342D01*
X179077200Y-183042914D01*
X178934342Y-182971485D01*
X178648628Y-182900057D01*
X178505771Y-182828628D01*
X178434342Y-182757200D01*
X178362914Y-182614342D01*
X178362914Y-182471485D01*
X178434342Y-182328628D01*
X178505771Y-182257200D01*
X178648628Y-182185771D01*
X179005771Y-182185771D01*
X179220057Y-182257200D01*
X179862914Y-183685771D02*
X179862914Y-182185771D01*
X180505771Y-183685771D02*
X180505771Y-182900057D01*
X180434342Y-182757200D01*
X180291485Y-182685771D01*
X180077200Y-182685771D01*
X179934342Y-182757200D01*
X179862914Y-182828628D01*
X181791485Y-183614342D02*
X181648628Y-183685771D01*
X181362914Y-183685771D01*
X181220057Y-183614342D01*
X181148628Y-183471485D01*
X181148628Y-182900057D01*
X181220057Y-182757200D01*
X181362914Y-182685771D01*
X181648628Y-182685771D01*
X181791485Y-182757200D01*
X181862914Y-182900057D01*
X181862914Y-183042914D01*
X181148628Y-183185771D01*
X183077200Y-183614342D02*
X182934342Y-183685771D01*
X182648628Y-183685771D01*
X182505771Y-183614342D01*
X182434342Y-183471485D01*
X182434342Y-182900057D01*
X182505771Y-182757200D01*
X182648628Y-182685771D01*
X182934342Y-182685771D01*
X183077200Y-182757200D01*
X183148628Y-182900057D01*
X183148628Y-183042914D01*
X182434342Y-183185771D01*
X183577200Y-182685771D02*
X184148628Y-182685771D01*
X183791485Y-182185771D02*
X183791485Y-183471485D01*
X183862914Y-183614342D01*
X184005771Y-183685771D01*
X184148628Y-183685771D01*
X184648628Y-183542914D02*
X184720057Y-183614342D01*
X184648628Y-183685771D01*
X184577200Y-183614342D01*
X184648628Y-183542914D01*
X184648628Y-183685771D01*
X184648628Y-182757200D02*
X184720057Y-182828628D01*
X184648628Y-182900057D01*
X184577200Y-182828628D01*
X184648628Y-182757200D01*
X184648628Y-182900057D01*
D10*
D12*
X178554342Y-180685771D02*
X178554342Y-179185771D01*
X179125771Y-179185771D01*
X179268628Y-179257200D01*
X179340057Y-179328628D01*
X179411485Y-179471485D01*
X179411485Y-179685771D01*
X179340057Y-179828628D01*
X179268628Y-179900057D01*
X179125771Y-179971485D01*
X178554342Y-179971485D01*
X180054342Y-180685771D02*
X180054342Y-179185771D01*
X180697200Y-180685771D02*
X180697200Y-179900057D01*
X180625771Y-179757200D01*
X180482914Y-179685771D01*
X180268628Y-179685771D01*
X180125771Y-179757200D01*
X180054342Y-179828628D01*
X181411485Y-180685771D02*
X181411485Y-179685771D01*
X181411485Y-179185771D02*
X181340057Y-179257200D01*
X181411485Y-179328628D01*
X181482914Y-179257200D01*
X181411485Y-179185771D01*
X181411485Y-179328628D01*
X182340057Y-180685771D02*
X182197200Y-180614342D01*
X182125771Y-180471485D01*
X182125771Y-179185771D01*
X182911485Y-180685771D02*
X182911485Y-179685771D01*
X182911485Y-179185771D02*
X182840057Y-179257200D01*
X182911485Y-179328628D01*
X182982914Y-179257200D01*
X182911485Y-179185771D01*
X182911485Y-179328628D01*
X183625771Y-179685771D02*
X183625771Y-181185771D01*
X183625771Y-179757200D02*
X183768628Y-179685771D01*
X184054342Y-179685771D01*
X184197200Y-179757200D01*
X184268628Y-179828628D01*
X184340057Y-179971485D01*
X184340057Y-180400057D01*
X184268628Y-180542914D01*
X184197200Y-180614342D01*
X184054342Y-180685771D01*
X183768628Y-180685771D01*
X183625771Y-180614342D01*
X184982914Y-179685771D02*
X184982914Y-181185771D01*
X184982914Y-179757200D02*
X185125771Y-179685771D01*
X185411485Y-179685771D01*
X185554342Y-179757200D01*
X185625771Y-179828628D01*
X185697200Y-179971485D01*
X185697200Y-180400057D01*
X185625771Y-180542914D01*
X185554342Y-180614342D01*
X185411485Y-180685771D01*
X185125771Y-180685771D01*
X184982914Y-180614342D01*
X187411485Y-180614342D02*
X187625771Y-180685771D01*
X187982914Y-180685771D01*
X188125771Y-180614342D01*
X188197200Y-180542914D01*
X188268628Y-180400057D01*
X188268628Y-180257200D01*
X188197200Y-180114342D01*
X188125771Y-180042914D01*
X187982914Y-179971485D01*
X187697200Y-179900057D01*
X187554342Y-179828628D01*
X187482914Y-179757200D01*
X187411485Y-179614342D01*
X187411485Y-179471485D01*
X187482914Y-179328628D01*
X187554342Y-179257200D01*
X187697200Y-179185771D01*
X188054342Y-179185771D01*
X188268628Y-179257200D01*
X189554342Y-180614342D02*
X189411485Y-180685771D01*
X189125771Y-180685771D01*
X188982914Y-180614342D01*
X188911485Y-180542914D01*
X188840057Y-180400057D01*
X188840057Y-179971485D01*
X188911485Y-179828628D01*
X188982914Y-179757200D01*
X189125771Y-179685771D01*
X189411485Y-179685771D01*
X189554342Y-179757200D01*
X190197200Y-180685771D02*
X190197200Y-179185771D01*
X190840057Y-180685771D02*
X190840057Y-179900057D01*
X190768628Y-179757200D01*
X190625771Y-179685771D01*
X190411485Y-179685771D01*
X190268628Y-179757200D01*
X190197200Y-179828628D01*
X191554342Y-180685771D02*
X191554342Y-179685771D01*
X191554342Y-179185771D02*
X191482914Y-179257200D01*
X191554342Y-179328628D01*
X191625771Y-179257200D01*
X191554342Y-179185771D01*
X191554342Y-179328628D01*
X192482914Y-180685771D02*
X192340057Y-180614342D01*
X192268628Y-180471485D01*
X192268628Y-179185771D01*
X193054342Y-180685771D02*
X193054342Y-179185771D01*
X193197200Y-180114342D02*
X193625771Y-180685771D01*
X193625771Y-179685771D02*
X193054342Y-180257200D01*
D10*
D11*
X178434342Y-177685771D02*
X178434342Y-176185771D01*
X179077200Y-177685771D02*
X179077200Y-176900057D01*
X179005771Y-176757200D01*
X178862914Y-176685771D01*
X178648628Y-176685771D01*
X178505771Y-176757200D01*
X178434342Y-176828628D01*
X179577200Y-176685771D02*
X180148628Y-176685771D01*
X179791485Y-176185771D02*
X179791485Y-177471485D01*
X179862914Y-177614342D01*
X180005771Y-177685771D01*
X180148628Y-177685771D01*
X180434342Y-176685771D02*
X181005771Y-176685771D01*
X180648628Y-176185771D02*
X180648628Y-177471485D01*
X180720057Y-177614342D01*
X180862914Y-177685771D01*
X181005771Y-177685771D01*
X181505771Y-176685771D02*
X181505771Y-178185771D01*
X181505771Y-176757200D02*
X181648628Y-176685771D01*
X181934342Y-176685771D01*
X182077200Y-176757200D01*
X182148628Y-176828628D01*
X182220057Y-176971485D01*
X182220057Y-177400057D01*
X182148628Y-177542914D01*
X182077200Y-177614342D01*
X181934342Y-177685771D01*
X181648628Y-177685771D01*
X181505771Y-177614342D01*
X182791485Y-177614342D02*
X182934342Y-177685771D01*
X183220057Y-177685771D01*
X183362914Y-177614342D01*
X183434342Y-177471485D01*
X183434342Y-177400057D01*
X183362914Y-177257200D01*
X183220057Y-177185771D01*
X183005771Y-177185771D01*
X182862914Y-177114342D01*
X182791485Y-176971485D01*
X182791485Y-176900057D01*
X182862914Y-176757200D01*
X183005771Y-176685771D01*
X183220057Y-176685771D01*
X183362914Y-176757200D01*
X184077200Y-177542914D02*
X184148628Y-177614342D01*
X184077200Y-177685771D01*
X184005771Y-177614342D01*
X184077200Y-177542914D01*
X184077200Y-177685771D01*
X184077200Y-176757200D02*
X184148628Y-176828628D01*
X184077200Y-176900057D01*
X184005771Y-176828628D01*
X184077200Y-176757200D01*
X184077200Y-176900057D01*
X185862914Y-176114342D02*
X184577200Y-178042914D01*
X187434342Y-176114342D02*
X186148628Y-178042914D01*
X188577200Y-176685771D02*
X188577200Y-177900057D01*
X188505771Y-178042914D01*
X188434342Y-178114342D01*
X188291485Y-178185771D01*
X188077200Y-178185771D01*
X187934342Y-178114342D01*
X188577200Y-177614342D02*
X188434342Y-177685771D01*
X188148628Y-177685771D01*
X188005771Y-177614342D01*
X187934342Y-177542914D01*
X187862914Y-177400057D01*
X187862914Y-176971485D01*
X187934342Y-176828628D01*
X188005771Y-176757200D01*
X188148628Y-176685771D01*
X188434342Y-176685771D01*
X188577200Y-176757200D01*
X189291485Y-177685771D02*
X189291485Y-176685771D01*
X189291485Y-176185771D02*
X189220057Y-176257200D01*
X189291485Y-176328628D01*
X189362914Y-176257200D01*
X189291485Y-176185771D01*
X189291485Y-176328628D01*
X189791485Y-176685771D02*
X190362914Y-176685771D01*
X190005771Y-176185771D02*
X190005771Y-177471485D01*
X190077200Y-177614342D01*
X190220057Y-177685771D01*
X190362914Y-177685771D01*
X190862914Y-177685771D02*
X190862914Y-176185771D01*
X191505771Y-177685771D02*
X191505771Y-176900057D01*
X191434342Y-176757200D01*
X191291485Y-176685771D01*
X191077200Y-176685771D01*
X190934342Y-176757200D01*
X190862914Y-176828628D01*
X192862914Y-176685771D02*
X192862914Y-177685771D01*
X192220057Y-176685771D02*
X192220057Y-177471485D01*
X192291485Y-177614342D01*
X192434342Y-177685771D01*
X192648628Y-177685771D01*
X192791485Y-177614342D01*
X192862914Y-177542914D01*
X193577200Y-177685771D02*
X193577200Y-176185771D01*
X193577200Y-176757200D02*
X193720057Y-176685771D01*
X194005771Y-176685771D01*
X194148628Y-176757200D01*
X194220057Y-176828628D01*
X194291485Y-176971485D01*
X194291485Y-177400057D01*
X194220057Y-177542914D01*
X194148628Y-177614342D01*
X194005771Y-177685771D01*
X193720057Y-177685771D01*
X193577200Y-177614342D01*
X194934342Y-177542914D02*
X195005771Y-177614342D01*
X194934342Y-177685771D01*
X194862914Y-177614342D01*
X194934342Y-177542914D01*
X194934342Y-177685771D01*
X196291485Y-177614342D02*
X196148628Y-177685771D01*
X195862914Y-177685771D01*
X195720057Y-177614342D01*
X195648628Y-177542914D01*
X195577200Y-177400057D01*
X195577200Y-176971485D01*
X195648628Y-176828628D01*
X195720057Y-176757200D01*
X195862914Y-176685771D01*
X196148628Y-176685771D01*
X196291485Y-176757200D01*
X197148628Y-177685771D02*
X197005771Y-177614342D01*
X196934342Y-177542914D01*
X196862914Y-177400057D01*
X196862914Y-176971485D01*
X196934342Y-176828628D01*
X197005771Y-176757200D01*
X197148628Y-176685771D01*
X197362914Y-176685771D01*
X197505771Y-176757200D01*
X197577200Y-176828628D01*
X197648628Y-176971485D01*
X197648628Y-177400057D01*
X197577200Y-177542914D01*
X197505771Y-177614342D01*
X197362914Y-177685771D01*
X197148628Y-177685771D01*
X198291485Y-177685771D02*
X198291485Y-176685771D01*
X198291485Y-176828628D02*
X198362914Y-176757200D01*
X198505771Y-176685771D01*
X198720057Y-176685771D01*
X198862914Y-176757200D01*
X198934342Y-176900057D01*
X198934342Y-177685771D01*
X198934342Y-176900057D02*
X199005771Y-176757200D01*
X199148628Y-176685771D01*
X199362914Y-176685771D01*
X199505771Y-176757200D01*
X199577200Y-176900057D01*
X199577200Y-177685771D01*
X201362914Y-176114342D02*
X200077200Y-178042914D01*
X201648628Y-176185771D02*
X202505771Y-176185771D01*
X202077200Y-177685771D02*
X202077200Y-176185771D01*
X203005771Y-177685771D02*
X203005771Y-176185771D01*
X203648628Y-177685771D02*
X203648628Y-176900057D01*
X203577200Y-176757200D01*
X203434342Y-176685771D01*
X203220057Y-176685771D01*
X203077200Y-176757200D01*
X203005771Y-176828628D01*
X204934342Y-177614342D02*
X204791485Y-177685771D01*
X204505771Y-177685771D01*
X204362914Y-177614342D01*
X204291485Y-177471485D01*
X204291485Y-176900057D01*
X204362914Y-176757200D01*
X204505771Y-176685771D01*
X204791485Y-176685771D01*
X204934342Y-176757200D01*
X205005771Y-176900057D01*
X205005771Y-177042914D01*
X204291485Y-177185771D01*
X205577200Y-177614342D02*
X205791485Y-177685771D01*
X206148628Y-177685771D01*
X206291485Y-177614342D01*
X206362914Y-177542914D01*
X206434342Y-177400057D01*
X206434342Y-177257200D01*
X206362914Y-177114342D01*
X206291485Y-177042914D01*
X206148628Y-176971485D01*
X205862914Y-176900057D01*
X205720057Y-176828628D01*
X205648628Y-176757200D01*
X205577200Y-176614342D01*
X205577200Y-176471485D01*
X205648628Y-176328628D01*
X205720057Y-176257200D01*
X205862914Y-176185771D01*
X206220057Y-176185771D01*
X206434342Y-176257200D01*
X207720057Y-177614342D02*
X207577200Y-177685771D01*
X207291485Y-177685771D01*
X207148628Y-177614342D01*
X207077200Y-177542914D01*
X207005771Y-177400057D01*
X207005771Y-176971485D01*
X207077200Y-176828628D01*
X207148628Y-176757200D01*
X207291485Y-176685771D01*
X207577200Y-176685771D01*
X207720057Y-176757200D01*
X208362914Y-177685771D02*
X208362914Y-176185771D01*
X209005771Y-177685771D02*
X209005771Y-176900057D01*
X208934342Y-176757200D01*
X208791485Y-176685771D01*
X208577200Y-176685771D01*
X208434342Y-176757200D01*
X208362914Y-176828628D01*
X209720057Y-177685771D02*
X209720057Y-176685771D01*
X209720057Y-176185771D02*
X209648628Y-176257200D01*
X209720057Y-176328628D01*
X209791485Y-176257200D01*
X209720057Y-176185771D01*
X209720057Y-176328628D01*
X210648628Y-177685771D02*
X210505771Y-177614342D01*
X210434342Y-177471485D01*
X210434342Y-176185771D01*
X211220057Y-177685771D02*
X211220057Y-176185771D01*
X211362914Y-177114342D02*
X211791485Y-177685771D01*
X211791485Y-176685771D02*
X211220057Y-177257200D01*
X213505771Y-176114342D02*
X212220057Y-178042914D01*
X213934342Y-177614342D02*
X214148628Y-177685771D01*
X214505771Y-177685771D01*
X214648628Y-177614342D01*
X214720057Y-177542914D01*
X214791485Y-177400057D01*
X214791485Y-177257200D01*
X214720057Y-177114342D01*
X214648628Y-177042914D01*
X214505771Y-176971485D01*
X214220057Y-176900057D01*
X214077200Y-176828628D01*
X214005771Y-176757200D01*
X213934342Y-176614342D01*
X213934342Y-176471485D01*
X214005771Y-176328628D01*
X214077200Y-176257200D01*
X214220057Y-176185771D01*
X214577200Y-176185771D01*
X214791485Y-176257200D01*
X215720057Y-176971485D02*
X215720057Y-177685771D01*
X215220057Y-176185771D02*
X215720057Y-176971485D01*
X216220057Y-176185771D01*
X216648628Y-177614342D02*
X216862914Y-177685771D01*
X217220057Y-177685771D01*
X217362914Y-177614342D01*
X217434342Y-177542914D01*
X217505771Y-177400057D01*
X217505771Y-177257200D01*
X217434342Y-177114342D01*
X217362914Y-177042914D01*
X217220057Y-176971485D01*
X216934342Y-176900057D01*
X216791485Y-176828628D01*
X216720057Y-176757200D01*
X216648628Y-176614342D01*
X216648628Y-176471485D01*
X216720057Y-176328628D01*
X216791485Y-176257200D01*
X216934342Y-176185771D01*
X217291485Y-176185771D01*
X217505771Y-176257200D01*
X217791485Y-177828628D02*
X218934342Y-177828628D01*
X219220057Y-177614342D02*
X219434342Y-177685771D01*
X219791485Y-177685771D01*
X219934342Y-177614342D01*
X220005771Y-177542914D01*
X220077200Y-177400057D01*
X220077200Y-177257200D01*
X220005771Y-177114342D01*
X219934342Y-177042914D01*
X219791485Y-176971485D01*
X219505771Y-176900057D01*
X219362914Y-176828628D01*
X219291485Y-176757200D01*
X219220057Y-176614342D01*
X219220057Y-176471485D01*
X219291485Y-176328628D01*
X219362914Y-176257200D01*
X219505771Y-176185771D01*
X219862914Y-176185771D01*
X220077200Y-176257200D01*
X220505771Y-176685771D02*
X221077200Y-176685771D01*
X220720057Y-176185771D02*
X220720057Y-177471485D01*
X220791485Y-177614342D01*
X220934342Y-177685771D01*
X221077200Y-177685771D01*
X222148628Y-177614342D02*
X222005771Y-177685771D01*
X221720057Y-177685771D01*
X221577200Y-177614342D01*
X221505771Y-177471485D01*
X221505771Y-176900057D01*
X221577200Y-176757200D01*
X221720057Y-176685771D01*
X222005771Y-176685771D01*
X222148628Y-176757200D01*
X222220057Y-176900057D01*
X222220057Y-177042914D01*
X221505771Y-177185771D01*
X222862914Y-176685771D02*
X222862914Y-178185771D01*
X222862914Y-176757200D02*
X223005771Y-176685771D01*
X223291485Y-176685771D01*
X223434342Y-176757200D01*
X223505771Y-176828628D01*
X223577200Y-176971485D01*
X223577200Y-177400057D01*
X223505771Y-177542914D01*
X223434342Y-177614342D01*
X223291485Y-177685771D01*
X223005771Y-177685771D01*
X222862914Y-177614342D01*
X224148628Y-177257200D02*
X224862914Y-177257200D01*
X224005771Y-177685771D02*
X224505771Y-176185771D01*
X225005771Y-177685771D01*
X225291485Y-176685771D02*
X225862914Y-176685771D01*
X225505771Y-176185771D02*
X225505771Y-177471485D01*
X225577200Y-177614342D01*
X225720057Y-177685771D01*
X225862914Y-177685771D01*
X226148628Y-176685771D02*
X226720057Y-176685771D01*
X226362914Y-176185771D02*
X226362914Y-177471485D01*
X226434342Y-177614342D01*
X226577200Y-177685771D01*
X226720057Y-177685771D01*
X227791485Y-177614342D02*
X227648628Y-177685771D01*
X227362914Y-177685771D01*
X227220057Y-177614342D01*
X227148628Y-177471485D01*
X227148628Y-176900057D01*
X227220057Y-176757200D01*
X227362914Y-176685771D01*
X227648628Y-176685771D01*
X227791485Y-176757200D01*
X227862914Y-176900057D01*
X227862914Y-177042914D01*
X227148628Y-177185771D01*
X228505771Y-176685771D02*
X228505771Y-177685771D01*
X228505771Y-176828628D02*
X228577200Y-176757200D01*
X228720057Y-176685771D01*
X228934342Y-176685771D01*
X229077200Y-176757200D01*
X229148628Y-176900057D01*
X229148628Y-177685771D01*
D10*
D11*
X178862914Y-169185771D02*
X178505771Y-169185771D01*
X178505771Y-167042914D01*
X178862914Y-167042914D01*
X179434342Y-168685771D02*
X179434342Y-167185771D01*
X180291485Y-168685771D01*
X180291485Y-167185771D01*
X181220057Y-168685771D02*
X181077200Y-168614342D01*
X181005771Y-168542914D01*
X180934342Y-168400057D01*
X180934342Y-167971485D01*
X181005771Y-167828628D01*
X181077200Y-167757200D01*
X181220057Y-167685771D01*
X181434342Y-167685771D01*
X181577200Y-167757200D01*
X181648628Y-167828628D01*
X181720057Y-167971485D01*
X181720057Y-168400057D01*
X181648628Y-168542914D01*
X181577200Y-168614342D01*
X181434342Y-168685771D01*
X181220057Y-168685771D01*
X183434342Y-168257200D02*
X184148628Y-168257200D01*
X183291485Y-168685771D02*
X183791485Y-167185771D01*
X184291485Y-168685771D01*
X184720057Y-168614342D02*
X184862914Y-168685771D01*
X185148628Y-168685771D01*
X185291485Y-168614342D01*
X185362914Y-168471485D01*
X185362914Y-168400057D01*
X185291485Y-168257200D01*
X185148628Y-168185771D01*
X184934342Y-168185771D01*
X184791485Y-168114342D01*
X184720057Y-167971485D01*
X184720057Y-167900057D01*
X184791485Y-167757200D01*
X184934342Y-167685771D01*
X185148628Y-167685771D01*
X185291485Y-167757200D01*
X185934342Y-168614342D02*
X186077200Y-168685771D01*
X186362914Y-168685771D01*
X186505771Y-168614342D01*
X186577200Y-168471485D01*
X186577200Y-168400057D01*
X186505771Y-168257200D01*
X186362914Y-168185771D01*
X186148628Y-168185771D01*
X186005771Y-168114342D01*
X185934342Y-167971485D01*
X185934342Y-167900057D01*
X186005771Y-167757200D01*
X186148628Y-167685771D01*
X186362914Y-167685771D01*
X186505771Y-167757200D01*
X187434342Y-168685771D02*
X187291485Y-168614342D01*
X187220057Y-168542914D01*
X187148628Y-168400057D01*
X187148628Y-167971485D01*
X187220057Y-167828628D01*
X187291485Y-167757200D01*
X187434342Y-167685771D01*
X187648628Y-167685771D01*
X187791485Y-167757200D01*
X187862914Y-167828628D01*
X187934342Y-167971485D01*
X187934342Y-168400057D01*
X187862914Y-168542914D01*
X187791485Y-168614342D01*
X187648628Y-168685771D01*
X187434342Y-168685771D01*
X189220057Y-168614342D02*
X189077200Y-168685771D01*
X188791485Y-168685771D01*
X188648628Y-168614342D01*
X188577200Y-168542914D01*
X188505771Y-168400057D01*
X188505771Y-167971485D01*
X188577200Y-167828628D01*
X188648628Y-167757200D01*
X188791485Y-167685771D01*
X189077200Y-167685771D01*
X189220057Y-167757200D01*
X189862914Y-168685771D02*
X189862914Y-167685771D01*
X189862914Y-167185771D02*
X189791485Y-167257200D01*
X189862914Y-167328628D01*
X189934342Y-167257200D01*
X189862914Y-167185771D01*
X189862914Y-167328628D01*
X191220057Y-168685771D02*
X191220057Y-167900057D01*
X191148628Y-167757200D01*
X191005771Y-167685771D01*
X190720057Y-167685771D01*
X190577200Y-167757200D01*
X191220057Y-168614342D02*
X191077200Y-168685771D01*
X190720057Y-168685771D01*
X190577200Y-168614342D01*
X190505771Y-168471485D01*
X190505771Y-168328628D01*
X190577200Y-168185771D01*
X190720057Y-168114342D01*
X191077200Y-168114342D01*
X191220057Y-168042914D01*
X191720057Y-167685771D02*
X192291485Y-167685771D01*
X191934342Y-167185771D02*
X191934342Y-168471485D01*
X192005771Y-168614342D01*
X192148628Y-168685771D01*
X192291485Y-168685771D01*
X192791485Y-168685771D02*
X192791485Y-167685771D01*
X192791485Y-167185771D02*
X192720057Y-167257200D01*
X192791485Y-167328628D01*
X192862914Y-167257200D01*
X192791485Y-167185771D01*
X192791485Y-167328628D01*
X193720057Y-168685771D02*
X193577200Y-168614342D01*
X193505771Y-168542914D01*
X193434342Y-168400057D01*
X193434342Y-167971485D01*
X193505771Y-167828628D01*
X193577200Y-167757200D01*
X193720057Y-167685771D01*
X193934342Y-167685771D01*
X194077200Y-167757200D01*
X194148628Y-167828628D01*
X194220057Y-167971485D01*
X194220057Y-168400057D01*
X194148628Y-168542914D01*
X194077200Y-168614342D01*
X193934342Y-168685771D01*
X193720057Y-168685771D01*
X194862914Y-167685771D02*
X194862914Y-168685771D01*
X194862914Y-167828628D02*
X194934342Y-167757200D01*
X195077200Y-167685771D01*
X195291485Y-167685771D01*
X195434342Y-167757200D01*
X195505771Y-167900057D01*
X195505771Y-168685771D01*
X197220057Y-167685771D02*
X197505771Y-168685771D01*
X197791485Y-167971485D01*
X198077200Y-168685771D01*
X198362914Y-167685771D01*
X198934342Y-168685771D02*
X198934342Y-167685771D01*
X198934342Y-167185771D02*
X198862914Y-167257200D01*
X198934342Y-167328628D01*
X199005771Y-167257200D01*
X198934342Y-167185771D01*
X198934342Y-167328628D01*
X199434342Y-167685771D02*
X200005771Y-167685771D01*
X199648628Y-167185771D02*
X199648628Y-168471485D01*
X199720057Y-168614342D01*
X199862914Y-168685771D01*
X200005771Y-168685771D01*
X200505771Y-168685771D02*
X200505771Y-167185771D01*
X201148628Y-168685771D02*
X201148628Y-167900057D01*
X201077200Y-167757200D01*
X200934342Y-167685771D01*
X200720057Y-167685771D01*
X200577200Y-167757200D01*
X200505771Y-167828628D01*
X202934342Y-168614342D02*
X203148628Y-168685771D01*
X203505771Y-168685771D01*
X203648628Y-168614342D01*
X203720057Y-168542914D01*
X203791485Y-168400057D01*
X203791485Y-168257200D01*
X203720057Y-168114342D01*
X203648628Y-168042914D01*
X203505771Y-167971485D01*
X203220057Y-167900057D01*
X203077200Y-167828628D01*
X203005771Y-167757200D01*
X202934342Y-167614342D01*
X202934342Y-167471485D01*
X203005771Y-167328628D01*
X203077200Y-167257200D01*
X203220057Y-167185771D01*
X203577200Y-167185771D01*
X203791485Y-167257200D01*
X205077200Y-168614342D02*
X204934342Y-168685771D01*
X204648628Y-168685771D01*
X204505771Y-168614342D01*
X204434342Y-168542914D01*
X204362914Y-168400057D01*
X204362914Y-167971485D01*
X204434342Y-167828628D01*
X204505771Y-167757200D01*
X204648628Y-167685771D01*
X204934342Y-167685771D01*
X205077200Y-167757200D01*
X205720057Y-168685771D02*
X205720057Y-167185771D01*
X206362914Y-168685771D02*
X206362914Y-167900057D01*
X206291485Y-167757200D01*
X206148628Y-167685771D01*
X205934342Y-167685771D01*
X205791485Y-167757200D01*
X205720057Y-167828628D01*
X207077200Y-168685771D02*
X207077200Y-167685771D01*
X207077200Y-167185771D02*
X207005771Y-167257200D01*
X207077200Y-167328628D01*
X207148628Y-167257200D01*
X207077200Y-167185771D01*
X207077200Y-167328628D01*
X207791485Y-168685771D02*
X207791485Y-167685771D01*
X207791485Y-167185771D02*
X207720057Y-167257200D01*
X207791485Y-167328628D01*
X207862914Y-167257200D01*
X207791485Y-167185771D01*
X207791485Y-167328628D01*
X208291485Y-167685771D02*
X208862914Y-167685771D01*
X208505771Y-167185771D02*
X208505771Y-168471485D01*
X208577200Y-168614342D01*
X208720057Y-168685771D01*
X208862914Y-168685771D01*
X210434342Y-168257200D02*
X211148628Y-168257200D01*
X210291485Y-168685771D02*
X210791485Y-167185771D01*
X211291485Y-168685771D01*
X212434342Y-167685771D02*
X212434342Y-168685771D01*
X211791485Y-167685771D02*
X211791485Y-168471485D01*
X211862914Y-168614342D01*
X212005771Y-168685771D01*
X212220057Y-168685771D01*
X212362914Y-168614342D01*
X212434342Y-168542914D01*
X213791485Y-168685771D02*
X213791485Y-167185771D01*
X213791485Y-168614342D02*
X213648628Y-168685771D01*
X213362914Y-168685771D01*
X213220057Y-168614342D01*
X213148628Y-168542914D01*
X213077200Y-168400057D01*
X213077200Y-167971485D01*
X213148628Y-167828628D01*
X213220057Y-167757200D01*
X213362914Y-167685771D01*
X213648628Y-167685771D01*
X213791485Y-167757200D01*
X214505771Y-168685771D02*
X214505771Y-167685771D01*
X214505771Y-167185771D02*
X214434342Y-167257200D01*
X214505771Y-167328628D01*
X214577200Y-167257200D01*
X214505771Y-167185771D01*
X214505771Y-167328628D01*
X215434342Y-168685771D02*
X215291485Y-168614342D01*
X215220057Y-168542914D01*
X215148628Y-168400057D01*
X215148628Y-167971485D01*
X215220057Y-167828628D01*
X215291485Y-167757200D01*
X215434342Y-167685771D01*
X215648628Y-167685771D01*
X215791485Y-167757200D01*
X215862914Y-167828628D01*
X215934342Y-167971485D01*
X215934342Y-168400057D01*
X215862914Y-168542914D01*
X215791485Y-168614342D01*
X215648628Y-168685771D01*
X215434342Y-168685771D01*
X216434342Y-169185771D02*
X216791485Y-169185771D01*
X216791485Y-167042914D01*
X216434342Y-167042914D01*
D10*
D11*
X197002200Y-191507200D02*
X197002200Y-194507200D01*
D10*
D11*
X261002200Y-191507200D02*
X261002200Y-198007200D01*
D14*
X200000000Y-147500000D02*
X200000000Y-63500000D01*
X200000000Y-63500000D02*
X78000000Y-63500000D01*
X78000000Y-63500000D02*
X78000000Y-147500000D01*
X78000000Y-147500000D02*
X200000000Y-147500000D01*
D10*
G36*
X197116000Y-141236000D02*
G01*
X195314000Y-141236000D01*
X195314000Y-139434000D01*
X197116000Y-139434000D01*
X197116000Y-141236000D01*
G37*
G36*
X193788512Y-139438927D02*
G01*
X193937812Y-139468624D01*
X194101784Y-139536544D01*
X194249354Y-139635147D01*
X194374853Y-139760646D01*
X194473456Y-139908216D01*
X194541376Y-140072188D01*
X194576000Y-140246259D01*
X194576000Y-140423741D01*
X194541376Y-140597812D01*
X194473456Y-140761784D01*
X194374853Y-140909354D01*
X194249354Y-141034853D01*
X194101784Y-141133456D01*
X193937812Y-141201376D01*
X193788512Y-141231073D01*
X193763742Y-141236000D01*
X193586258Y-141236000D01*
X193561488Y-141231073D01*
X193412188Y-141201376D01*
X193248216Y-141133456D01*
X193100646Y-141034853D01*
X192975147Y-140909354D01*
X192876544Y-140761784D01*
X192808624Y-140597812D01*
X192774000Y-140423741D01*
X192774000Y-140246259D01*
X192808624Y-140072188D01*
X192876544Y-139908216D01*
X192975147Y-139760646D01*
X193100646Y-139635147D01*
X193248216Y-139536544D01*
X193412188Y-139468624D01*
X193561488Y-139438927D01*
X193586258Y-139434000D01*
X193763742Y-139434000D01*
X193788512Y-139438927D01*
G37*
G36*
X196328512Y-136898927D02*
G01*
X196477812Y-136928624D01*
X196641784Y-136996544D01*
X196789354Y-137095147D01*
X196914853Y-137220646D01*
X197013456Y-137368216D01*
X197081376Y-137532188D01*
X197116000Y-137706259D01*
X197116000Y-137883741D01*
X197081376Y-138057812D01*
X197013456Y-138221784D01*
X196914853Y-138369354D01*
X196789354Y-138494853D01*
X196641784Y-138593456D01*
X196477812Y-138661376D01*
X196328512Y-138691073D01*
X196303742Y-138696000D01*
X196126258Y-138696000D01*
X196101488Y-138691073D01*
X195952188Y-138661376D01*
X195788216Y-138593456D01*
X195640646Y-138494853D01*
X195515147Y-138369354D01*
X195416544Y-138221784D01*
X195348624Y-138057812D01*
X195314000Y-137883741D01*
X195314000Y-137706259D01*
X195348624Y-137532188D01*
X195416544Y-137368216D01*
X195515147Y-137220646D01*
X195640646Y-137095147D01*
X195788216Y-136996544D01*
X195952188Y-136928624D01*
X196101488Y-136898927D01*
X196126258Y-136894000D01*
X196303742Y-136894000D01*
X196328512Y-136898927D01*
G37*
G36*
X193788512Y-136898927D02*
G01*
X193937812Y-136928624D01*
X194101784Y-136996544D01*
X194249354Y-137095147D01*
X194374853Y-137220646D01*
X194473456Y-137368216D01*
X194541376Y-137532188D01*
X194576000Y-137706259D01*
X194576000Y-137883741D01*
X194541376Y-138057812D01*
X194473456Y-138221784D01*
X194374853Y-138369354D01*
X194249354Y-138494853D01*
X194101784Y-138593456D01*
X193937812Y-138661376D01*
X193788512Y-138691073D01*
X193763742Y-138696000D01*
X193586258Y-138696000D01*
X193561488Y-138691073D01*
X193412188Y-138661376D01*
X193248216Y-138593456D01*
X193100646Y-138494853D01*
X192975147Y-138369354D01*
X192876544Y-138221784D01*
X192808624Y-138057812D01*
X192774000Y-137883741D01*
X192774000Y-137706259D01*
X192808624Y-137532188D01*
X192876544Y-137368216D01*
X192975147Y-137220646D01*
X193100646Y-137095147D01*
X193248216Y-136996544D01*
X193412188Y-136928624D01*
X193561488Y-136898927D01*
X193586258Y-136894000D01*
X193763742Y-136894000D01*
X193788512Y-136898927D01*
G37*
G36*
X157777395Y-136585546D02*
G01*
X157950466Y-136657234D01*
X157950467Y-136657235D01*
X158106227Y-136761310D01*
X158238690Y-136893773D01*
X158261977Y-136928625D01*
X158342766Y-137049534D01*
X158414454Y-137222605D01*
X158451000Y-137406333D01*
X158451000Y-137593667D01*
X158414454Y-137777395D01*
X158342766Y-137950466D01*
X158342765Y-137950467D01*
X158238690Y-138106227D01*
X158106227Y-138238690D01*
X158027818Y-138291081D01*
X157950466Y-138342766D01*
X157777395Y-138414454D01*
X157593667Y-138451000D01*
X157406333Y-138451000D01*
X157222605Y-138414454D01*
X157049534Y-138342766D01*
X156972182Y-138291081D01*
X156893773Y-138238690D01*
X156761310Y-138106227D01*
X156657235Y-137950467D01*
X156657234Y-137950466D01*
X156585546Y-137777395D01*
X156549000Y-137593667D01*
X156549000Y-137406333D01*
X156585546Y-137222605D01*
X156657234Y-137049534D01*
X156738023Y-136928625D01*
X156761310Y-136893773D01*
X156893773Y-136761310D01*
X157049533Y-136657235D01*
X157049534Y-136657234D01*
X157222605Y-136585546D01*
X157406333Y-136549000D01*
X157593667Y-136549000D01*
X157777395Y-136585546D01*
G37*
G36*
X162777395Y-136585546D02*
G01*
X162950466Y-136657234D01*
X162950467Y-136657235D01*
X163106227Y-136761310D01*
X163238690Y-136893773D01*
X163261977Y-136928625D01*
X163342766Y-137049534D01*
X163414454Y-137222605D01*
X163451000Y-137406333D01*
X163451000Y-137593667D01*
X163414454Y-137777395D01*
X163342766Y-137950466D01*
X163342765Y-137950467D01*
X163238690Y-138106227D01*
X163106227Y-138238690D01*
X163027818Y-138291081D01*
X162950466Y-138342766D01*
X162777395Y-138414454D01*
X162593667Y-138451000D01*
X162406333Y-138451000D01*
X162222605Y-138414454D01*
X162049534Y-138342766D01*
X161972182Y-138291081D01*
X161893773Y-138238690D01*
X161761310Y-138106227D01*
X161657235Y-137950467D01*
X161657234Y-137950466D01*
X161585546Y-137777395D01*
X161549000Y-137593667D01*
X161549000Y-137406333D01*
X161585546Y-137222605D01*
X161657234Y-137049534D01*
X161738023Y-136928625D01*
X161761310Y-136893773D01*
X161893773Y-136761310D01*
X162049533Y-136657235D01*
X162049534Y-136657234D01*
X162222605Y-136585546D01*
X162406333Y-136549000D01*
X162593667Y-136549000D01*
X162777395Y-136585546D01*
G37*
G36*
X160277395Y-136585546D02*
G01*
X160450466Y-136657234D01*
X160450467Y-136657235D01*
X160606227Y-136761310D01*
X160738690Y-136893773D01*
X160761977Y-136928625D01*
X160842766Y-137049534D01*
X160914454Y-137222605D01*
X160951000Y-137406333D01*
X160951000Y-137593667D01*
X160914454Y-137777395D01*
X160842766Y-137950466D01*
X160842765Y-137950467D01*
X160738690Y-138106227D01*
X160606227Y-138238690D01*
X160527818Y-138291081D01*
X160450466Y-138342766D01*
X160277395Y-138414454D01*
X160093667Y-138451000D01*
X159906333Y-138451000D01*
X159722605Y-138414454D01*
X159549534Y-138342766D01*
X159472182Y-138291081D01*
X159393773Y-138238690D01*
X159261310Y-138106227D01*
X159157235Y-137950467D01*
X159157234Y-137950466D01*
X159085546Y-137777395D01*
X159049000Y-137593667D01*
X159049000Y-137406333D01*
X159085546Y-137222605D01*
X159157234Y-137049534D01*
X159238023Y-136928625D01*
X159261310Y-136893773D01*
X159393773Y-136761310D01*
X159549533Y-136657235D01*
X159549534Y-136657234D01*
X159722605Y-136585546D01*
X159906333Y-136549000D01*
X160093667Y-136549000D01*
X160277395Y-136585546D01*
G37*
G36*
X155534358Y-131909232D02*
G01*
X155685761Y-131939348D01*
X156113616Y-132116571D01*
X156498675Y-132373859D01*
X156826141Y-132701325D01*
X157083429Y-133086384D01*
X157083430Y-133086386D01*
X157260652Y-133514240D01*
X157351000Y-133968445D01*
X157351000Y-134431555D01*
X157301452Y-134680646D01*
X157260652Y-134885761D01*
X157083429Y-135313616D01*
X156826141Y-135698675D01*
X156498675Y-136026141D01*
X156113616Y-136283429D01*
X155685761Y-136460652D01*
X155534358Y-136490768D01*
X155231555Y-136551000D01*
X154768445Y-136551000D01*
X154465642Y-136490768D01*
X154314239Y-136460652D01*
X153886384Y-136283429D01*
X153501325Y-136026141D01*
X153173859Y-135698675D01*
X152916571Y-135313616D01*
X152739348Y-134885761D01*
X152698548Y-134680646D01*
X152649000Y-134431555D01*
X152649000Y-133968445D01*
X152739348Y-133514240D01*
X152916570Y-133086386D01*
X152916571Y-133086384D01*
X153173859Y-132701325D01*
X153501325Y-132373859D01*
X153886384Y-132116571D01*
X154314239Y-131939348D01*
X154465642Y-131909232D01*
X154768445Y-131849000D01*
X155231555Y-131849000D01*
X155534358Y-131909232D01*
G37*
G36*
X165534358Y-131909232D02*
G01*
X165685761Y-131939348D01*
X166113616Y-132116571D01*
X166498675Y-132373859D01*
X166826141Y-132701325D01*
X167083429Y-133086384D01*
X167083430Y-133086386D01*
X167260652Y-133514240D01*
X167351000Y-133968445D01*
X167351000Y-134431555D01*
X167301452Y-134680646D01*
X167260652Y-134885761D01*
X167083429Y-135313616D01*
X166826141Y-135698675D01*
X166498675Y-136026141D01*
X166113616Y-136283429D01*
X165685761Y-136460652D01*
X165534358Y-136490768D01*
X165231555Y-136551000D01*
X164768445Y-136551000D01*
X164465642Y-136490768D01*
X164314239Y-136460652D01*
X163886384Y-136283429D01*
X163501325Y-136026141D01*
X163173859Y-135698675D01*
X162916571Y-135313616D01*
X162739348Y-134885761D01*
X162698548Y-134680646D01*
X162649000Y-134431555D01*
X162649000Y-133968445D01*
X162739348Y-133514240D01*
X162916570Y-133086386D01*
X162916571Y-133086384D01*
X163173859Y-132701325D01*
X163501325Y-132373859D01*
X163886384Y-132116571D01*
X164314239Y-131939348D01*
X164465642Y-131909232D01*
X164768445Y-131849000D01*
X165231555Y-131849000D01*
X165534358Y-131909232D01*
G37*
G36*
X193788512Y-134358927D02*
G01*
X193937812Y-134388624D01*
X194101784Y-134456544D01*
X194249354Y-134555147D01*
X194374853Y-134680646D01*
X194473456Y-134828216D01*
X194541376Y-134992188D01*
X194576000Y-135166259D01*
X194576000Y-135343741D01*
X194541376Y-135517812D01*
X194473456Y-135681784D01*
X194374853Y-135829354D01*
X194249354Y-135954853D01*
X194101784Y-136053456D01*
X193937812Y-136121376D01*
X193788512Y-136151073D01*
X193763742Y-136156000D01*
X193586258Y-136156000D01*
X193561488Y-136151073D01*
X193412188Y-136121376D01*
X193248216Y-136053456D01*
X193100646Y-135954853D01*
X192975147Y-135829354D01*
X192876544Y-135681784D01*
X192808624Y-135517812D01*
X192774000Y-135343741D01*
X192774000Y-135166259D01*
X192808624Y-134992188D01*
X192876544Y-134828216D01*
X192975147Y-134680646D01*
X193100646Y-134555147D01*
X193248216Y-134456544D01*
X193412188Y-134388624D01*
X193561488Y-134358927D01*
X193586258Y-134354000D01*
X193763742Y-134354000D01*
X193788512Y-134358927D01*
G37*
G36*
X196328512Y-134358927D02*
G01*
X196477812Y-134388624D01*
X196641784Y-134456544D01*
X196789354Y-134555147D01*
X196914853Y-134680646D01*
X197013456Y-134828216D01*
X197081376Y-134992188D01*
X197116000Y-135166259D01*
X197116000Y-135343741D01*
X197081376Y-135517812D01*
X197013456Y-135681784D01*
X196914853Y-135829354D01*
X196789354Y-135954853D01*
X196641784Y-136053456D01*
X196477812Y-136121376D01*
X196328512Y-136151073D01*
X196303742Y-136156000D01*
X196126258Y-136156000D01*
X196101488Y-136151073D01*
X195952188Y-136121376D01*
X195788216Y-136053456D01*
X195640646Y-135954853D01*
X195515147Y-135829354D01*
X195416544Y-135681784D01*
X195348624Y-135517812D01*
X195314000Y-135343741D01*
X195314000Y-135166259D01*
X195348624Y-134992188D01*
X195416544Y-134828216D01*
X195515147Y-134680646D01*
X195640646Y-134555147D01*
X195788216Y-134456544D01*
X195952188Y-134388624D01*
X196101488Y-134358927D01*
X196126258Y-134354000D01*
X196303742Y-134354000D01*
X196328512Y-134358927D01*
G37*
G36*
X176389943Y-126566248D02*
G01*
X176945189Y-126796238D01*
X176945190Y-126796239D01*
X177444899Y-127130134D01*
X177869866Y-127555101D01*
X177935120Y-127652761D01*
X178203762Y-128054811D01*
X178433752Y-128610057D01*
X178551000Y-129199501D01*
X178551000Y-129800499D01*
X178433752Y-130389943D01*
X178203762Y-130945189D01*
X178203761Y-130945190D01*
X177869866Y-131444899D01*
X177444899Y-131869866D01*
X177340912Y-131939348D01*
X176945189Y-132203762D01*
X176389943Y-132433752D01*
X175800499Y-132551000D01*
X175199501Y-132551000D01*
X174610057Y-132433752D01*
X174054811Y-132203762D01*
X173659088Y-131939348D01*
X173555101Y-131869866D01*
X173130134Y-131444899D01*
X172796239Y-130945190D01*
X172796238Y-130945189D01*
X172566248Y-130389943D01*
X172449000Y-129800499D01*
X172449000Y-129199501D01*
X172566248Y-128610057D01*
X172796238Y-128054811D01*
X173064880Y-127652761D01*
X173130134Y-127555101D01*
X173555101Y-127130134D01*
X174054810Y-126796239D01*
X174054811Y-126796238D01*
X174610057Y-126566248D01*
X175199501Y-126449000D01*
X175800499Y-126449000D01*
X176389943Y-126566248D01*
G37*
G36*
X183302585Y-125978802D02*
G01*
X183452410Y-126008604D01*
X183734674Y-126125521D01*
X183988705Y-126295259D01*
X184204741Y-126511295D01*
X184374479Y-126765326D01*
X184491396Y-127047590D01*
X184551000Y-127347240D01*
X184551000Y-127652760D01*
X184491396Y-127952410D01*
X184374479Y-128234674D01*
X184204741Y-128488705D01*
X183988705Y-128704741D01*
X183734674Y-128874479D01*
X183452410Y-128991396D01*
X183302585Y-129021198D01*
X183152761Y-129051000D01*
X182847239Y-129051000D01*
X182697415Y-129021198D01*
X182547590Y-128991396D01*
X182265326Y-128874479D01*
X182011295Y-128704741D01*
X181795259Y-128488705D01*
X181625521Y-128234674D01*
X181508604Y-127952410D01*
X181449000Y-127652760D01*
X181449000Y-127347240D01*
X181508604Y-127047590D01*
X181625521Y-126765326D01*
X181795259Y-126511295D01*
X182011295Y-126295259D01*
X182265326Y-126125521D01*
X182547590Y-126008604D01*
X182697415Y-125978802D01*
X182847239Y-125949000D01*
X183152761Y-125949000D01*
X183302585Y-125978802D01*
G37*
G36*
X189302585Y-125978802D02*
G01*
X189452410Y-126008604D01*
X189734674Y-126125521D01*
X189988705Y-126295259D01*
X190204741Y-126511295D01*
X190374479Y-126765326D01*
X190491396Y-127047590D01*
X190551000Y-127347240D01*
X190551000Y-127652760D01*
X190491396Y-127952410D01*
X190374479Y-128234674D01*
X190204741Y-128488705D01*
X189988705Y-128704741D01*
X189734674Y-128874479D01*
X189452410Y-128991396D01*
X189302585Y-129021198D01*
X189152761Y-129051000D01*
X188847239Y-129051000D01*
X188697415Y-129021198D01*
X188547590Y-128991396D01*
X188265326Y-128874479D01*
X188011295Y-128704741D01*
X187795259Y-128488705D01*
X187625521Y-128234674D01*
X187508604Y-127952410D01*
X187449000Y-127652760D01*
X187449000Y-127347240D01*
X187508604Y-127047590D01*
X187625521Y-126765326D01*
X187795259Y-126511295D01*
X188011295Y-126295259D01*
X188265326Y-126125521D01*
X188547590Y-126008604D01*
X188697415Y-125978802D01*
X188847239Y-125949000D01*
X189152761Y-125949000D01*
X189302585Y-125978802D01*
G37*
G36*
X183302585Y-121978802D02*
G01*
X183452410Y-122008604D01*
X183734674Y-122125521D01*
X183988705Y-122295259D01*
X184204741Y-122511295D01*
X184374479Y-122765326D01*
X184491396Y-123047590D01*
X184551000Y-123347240D01*
X184551000Y-123652760D01*
X184491396Y-123952410D01*
X184374479Y-124234674D01*
X184204741Y-124488705D01*
X183988705Y-124704741D01*
X183734674Y-124874479D01*
X183452410Y-124991396D01*
X183302585Y-125021198D01*
X183152761Y-125051000D01*
X182847239Y-125051000D01*
X182697415Y-125021198D01*
X182547590Y-124991396D01*
X182265326Y-124874479D01*
X182011295Y-124704741D01*
X181795259Y-124488705D01*
X181625521Y-124234674D01*
X181508604Y-123952410D01*
X181449000Y-123652760D01*
X181449000Y-123347240D01*
X181508604Y-123047590D01*
X181625521Y-122765326D01*
X181795259Y-122511295D01*
X182011295Y-122295259D01*
X182265326Y-122125521D01*
X182547590Y-122008604D01*
X182697415Y-121978802D01*
X182847239Y-121949000D01*
X183152761Y-121949000D01*
X183302585Y-121978802D01*
G37*
G36*
X189302585Y-121978802D02*
G01*
X189452410Y-122008604D01*
X189734674Y-122125521D01*
X189988705Y-122295259D01*
X190204741Y-122511295D01*
X190374479Y-122765326D01*
X190491396Y-123047590D01*
X190551000Y-123347240D01*
X190551000Y-123652760D01*
X190491396Y-123952410D01*
X190374479Y-124234674D01*
X190204741Y-124488705D01*
X189988705Y-124704741D01*
X189734674Y-124874479D01*
X189452410Y-124991396D01*
X189302585Y-125021198D01*
X189152761Y-125051000D01*
X188847239Y-125051000D01*
X188697415Y-125021198D01*
X188547590Y-124991396D01*
X188265326Y-124874479D01*
X188011295Y-124704741D01*
X187795259Y-124488705D01*
X187625521Y-124234674D01*
X187508604Y-123952410D01*
X187449000Y-123652760D01*
X187449000Y-123347240D01*
X187508604Y-123047590D01*
X187625521Y-122765326D01*
X187795259Y-122511295D01*
X188011295Y-122295259D01*
X188265326Y-122125521D01*
X188547590Y-122008604D01*
X188697415Y-121978802D01*
X188847239Y-121949000D01*
X189152761Y-121949000D01*
X189302585Y-121978802D01*
G37*
G36*
X183302585Y-117978802D02*
G01*
X183452410Y-118008604D01*
X183734674Y-118125521D01*
X183988705Y-118295259D01*
X184204741Y-118511295D01*
X184374479Y-118765326D01*
X184491396Y-119047590D01*
X184551000Y-119347240D01*
X184551000Y-119652760D01*
X184491396Y-119952410D01*
X184374479Y-120234674D01*
X184204741Y-120488705D01*
X183988705Y-120704741D01*
X183734674Y-120874479D01*
X183452410Y-120991396D01*
X183302585Y-121021198D01*
X183152761Y-121051000D01*
X182847239Y-121051000D01*
X182697415Y-121021198D01*
X182547590Y-120991396D01*
X182265326Y-120874479D01*
X182011295Y-120704741D01*
X181795259Y-120488705D01*
X181625521Y-120234674D01*
X181508604Y-119952410D01*
X181449000Y-119652760D01*
X181449000Y-119347240D01*
X181508604Y-119047590D01*
X181625521Y-118765326D01*
X181795259Y-118511295D01*
X182011295Y-118295259D01*
X182265326Y-118125521D01*
X182547590Y-118008604D01*
X182697415Y-117978802D01*
X182847239Y-117949000D01*
X183152761Y-117949000D01*
X183302585Y-117978802D01*
G37*
G36*
X189302585Y-117978802D02*
G01*
X189452410Y-118008604D01*
X189734674Y-118125521D01*
X189988705Y-118295259D01*
X190204741Y-118511295D01*
X190374479Y-118765326D01*
X190491396Y-119047590D01*
X190551000Y-119347240D01*
X190551000Y-119652760D01*
X190491396Y-119952410D01*
X190374479Y-120234674D01*
X190204741Y-120488705D01*
X189988705Y-120704741D01*
X189734674Y-120874479D01*
X189452410Y-120991396D01*
X189302585Y-121021198D01*
X189152761Y-121051000D01*
X188847239Y-121051000D01*
X188697415Y-121021198D01*
X188547590Y-120991396D01*
X188265326Y-120874479D01*
X188011295Y-120704741D01*
X187795259Y-120488705D01*
X187625521Y-120234674D01*
X187508604Y-119952410D01*
X187449000Y-119652760D01*
X187449000Y-119347240D01*
X187508604Y-119047590D01*
X187625521Y-118765326D01*
X187795259Y-118511295D01*
X188011295Y-118295259D01*
X188265326Y-118125521D01*
X188547590Y-118008604D01*
X188697415Y-117978802D01*
X188847239Y-117949000D01*
X189152761Y-117949000D01*
X189302585Y-117978802D01*
G37*
G36*
X125843512Y-91178927D02*
G01*
X125992812Y-91208624D01*
X126156784Y-91276544D01*
X126304354Y-91375147D01*
X126429853Y-91500646D01*
X126528456Y-91648216D01*
X126596376Y-91812188D01*
X126631000Y-91986259D01*
X126631000Y-92163741D01*
X126596376Y-92337812D01*
X126528456Y-92501784D01*
X126429853Y-92649354D01*
X126304354Y-92774853D01*
X126156784Y-92873456D01*
X125992812Y-92941376D01*
X125843512Y-92971073D01*
X125818742Y-92976000D01*
X125641258Y-92976000D01*
X125616488Y-92971073D01*
X125467188Y-92941376D01*
X125303216Y-92873456D01*
X125155646Y-92774853D01*
X125030147Y-92649354D01*
X124931544Y-92501784D01*
X124863624Y-92337812D01*
X124829000Y-92163741D01*
X124829000Y-91986259D01*
X124863624Y-91812188D01*
X124931544Y-91648216D01*
X125030147Y-91500646D01*
X125155646Y-91375147D01*
X125303216Y-91276544D01*
X125467188Y-91208624D01*
X125616488Y-91178927D01*
X125641258Y-91174000D01*
X125818742Y-91174000D01*
X125843512Y-91178927D01*
G37*
G36*
X134733512Y-91178927D02*
G01*
X134882812Y-91208624D01*
X135046784Y-91276544D01*
X135194354Y-91375147D01*
X135319853Y-91500646D01*
X135418456Y-91648216D01*
X135486376Y-91812188D01*
X135521000Y-91986259D01*
X135521000Y-92163741D01*
X135486376Y-92337812D01*
X135418456Y-92501784D01*
X135319853Y-92649354D01*
X135194354Y-92774853D01*
X135046784Y-92873456D01*
X134882812Y-92941376D01*
X134733512Y-92971073D01*
X134708742Y-92976000D01*
X134531258Y-92976000D01*
X134506488Y-92971073D01*
X134357188Y-92941376D01*
X134193216Y-92873456D01*
X134045646Y-92774853D01*
X133920147Y-92649354D01*
X133821544Y-92501784D01*
X133753624Y-92337812D01*
X133719000Y-92163741D01*
X133719000Y-91986259D01*
X133753624Y-91812188D01*
X133821544Y-91648216D01*
X133920147Y-91500646D01*
X134045646Y-91375147D01*
X134193216Y-91276544D01*
X134357188Y-91208624D01*
X134506488Y-91178927D01*
X134531258Y-91174000D01*
X134708742Y-91174000D01*
X134733512Y-91178927D01*
G37*
G36*
X134733512Y-88638927D02*
G01*
X134882812Y-88668624D01*
X135046784Y-88736544D01*
X135194354Y-88835147D01*
X135319853Y-88960646D01*
X135418456Y-89108216D01*
X135486376Y-89272188D01*
X135521000Y-89446259D01*
X135521000Y-89623741D01*
X135486376Y-89797812D01*
X135418456Y-89961784D01*
X135319853Y-90109354D01*
X135194354Y-90234853D01*
X135046784Y-90333456D01*
X134882812Y-90401376D01*
X134733512Y-90431073D01*
X134708742Y-90436000D01*
X134531258Y-90436000D01*
X134506488Y-90431073D01*
X134357188Y-90401376D01*
X134193216Y-90333456D01*
X134045646Y-90234853D01*
X133920147Y-90109354D01*
X133821544Y-89961784D01*
X133753624Y-89797812D01*
X133719000Y-89623741D01*
X133719000Y-89446259D01*
X133753624Y-89272188D01*
X133821544Y-89108216D01*
X133920147Y-88960646D01*
X134045646Y-88835147D01*
X134193216Y-88736544D01*
X134357188Y-88668624D01*
X134506488Y-88638927D01*
X134531258Y-88634000D01*
X134708742Y-88634000D01*
X134733512Y-88638927D01*
G37*
G36*
X125843512Y-88638927D02*
G01*
X125992812Y-88668624D01*
X126156784Y-88736544D01*
X126304354Y-88835147D01*
X126429853Y-88960646D01*
X126528456Y-89108216D01*
X126596376Y-89272188D01*
X126631000Y-89446259D01*
X126631000Y-89623741D01*
X126596376Y-89797812D01*
X126528456Y-89961784D01*
X126429853Y-90109354D01*
X126304354Y-90234853D01*
X126156784Y-90333456D01*
X125992812Y-90401376D01*
X125843512Y-90431073D01*
X125818742Y-90436000D01*
X125641258Y-90436000D01*
X125616488Y-90431073D01*
X125467188Y-90401376D01*
X125303216Y-90333456D01*
X125155646Y-90234853D01*
X125030147Y-90109354D01*
X124931544Y-89961784D01*
X124863624Y-89797812D01*
X124829000Y-89623741D01*
X124829000Y-89446259D01*
X124863624Y-89272188D01*
X124931544Y-89108216D01*
X125030147Y-88960646D01*
X125155646Y-88835147D01*
X125303216Y-88736544D01*
X125467188Y-88668624D01*
X125616488Y-88638927D01*
X125641258Y-88634000D01*
X125818742Y-88634000D01*
X125843512Y-88638927D01*
G37*
G36*
X135521000Y-87896000D02*
G01*
X133719000Y-87896000D01*
X133719000Y-86094000D01*
X135521000Y-86094000D01*
X135521000Y-87896000D01*
G37*
G36*
X126631000Y-87896000D02*
G01*
X124829000Y-87896000D01*
X124829000Y-86094000D01*
X126631000Y-86094000D01*
X126631000Y-87896000D01*
G37*
G36*
X93293500Y-86626000D02*
G01*
X91491500Y-86626000D01*
X91491500Y-84824000D01*
X93293500Y-84824000D01*
X93293500Y-86626000D01*
G37*
G36*
X89966012Y-84828927D02*
G01*
X90115312Y-84858624D01*
X90279284Y-84926544D01*
X90426854Y-85025147D01*
X90552353Y-85150646D01*
X90650956Y-85298216D01*
X90718876Y-85462188D01*
X90753500Y-85636259D01*
X90753500Y-85813741D01*
X90718876Y-85987812D01*
X90650956Y-86151784D01*
X90552353Y-86299354D01*
X90426854Y-86424853D01*
X90279284Y-86523456D01*
X90115312Y-86591376D01*
X89966012Y-86621073D01*
X89941242Y-86626000D01*
X89763758Y-86626000D01*
X89738988Y-86621073D01*
X89589688Y-86591376D01*
X89425716Y-86523456D01*
X89278146Y-86424853D01*
X89152647Y-86299354D01*
X89054044Y-86151784D01*
X88986124Y-85987812D01*
X88951500Y-85813741D01*
X88951500Y-85636259D01*
X88986124Y-85462188D01*
X89054044Y-85298216D01*
X89152647Y-85150646D01*
X89278146Y-85025147D01*
X89425716Y-84926544D01*
X89589688Y-84858624D01*
X89738988Y-84828927D01*
X89763758Y-84824000D01*
X89941242Y-84824000D01*
X89966012Y-84828927D01*
G37*
G36*
X87426012Y-84828927D02*
G01*
X87575312Y-84858624D01*
X87739284Y-84926544D01*
X87886854Y-85025147D01*
X88012353Y-85150646D01*
X88110956Y-85298216D01*
X88178876Y-85462188D01*
X88213500Y-85636259D01*
X88213500Y-85813741D01*
X88178876Y-85987812D01*
X88110956Y-86151784D01*
X88012353Y-86299354D01*
X87886854Y-86424853D01*
X87739284Y-86523456D01*
X87575312Y-86591376D01*
X87426012Y-86621073D01*
X87401242Y-86626000D01*
X87223758Y-86626000D01*
X87198988Y-86621073D01*
X87049688Y-86591376D01*
X86885716Y-86523456D01*
X86738146Y-86424853D01*
X86612647Y-86299354D01*
X86514044Y-86151784D01*
X86446124Y-85987812D01*
X86411500Y-85813741D01*
X86411500Y-85636259D01*
X86446124Y-85462188D01*
X86514044Y-85298216D01*
X86612647Y-85150646D01*
X86738146Y-85025147D01*
X86885716Y-84926544D01*
X87049688Y-84858624D01*
X87198988Y-84828927D01*
X87223758Y-84824000D01*
X87401242Y-84824000D01*
X87426012Y-84828927D01*
G37*
G36*
X98373500Y-86626000D02*
G01*
X96571500Y-86626000D01*
X96571500Y-84824000D01*
X98373500Y-84824000D01*
X98373500Y-86626000D01*
G37*
G36*
X100126012Y-84828927D02*
G01*
X100275312Y-84858624D01*
X100439284Y-84926544D01*
X100586854Y-85025147D01*
X100712353Y-85150646D01*
X100810956Y-85298216D01*
X100878876Y-85462188D01*
X100913500Y-85636259D01*
X100913500Y-85813741D01*
X100878876Y-85987812D01*
X100810956Y-86151784D01*
X100712353Y-86299354D01*
X100586854Y-86424853D01*
X100439284Y-86523456D01*
X100275312Y-86591376D01*
X100126012Y-86621073D01*
X100101242Y-86626000D01*
X99923758Y-86626000D01*
X99898988Y-86621073D01*
X99749688Y-86591376D01*
X99585716Y-86523456D01*
X99438146Y-86424853D01*
X99312647Y-86299354D01*
X99214044Y-86151784D01*
X99146124Y-85987812D01*
X99111500Y-85813741D01*
X99111500Y-85636259D01*
X99146124Y-85462188D01*
X99214044Y-85298216D01*
X99312647Y-85150646D01*
X99438146Y-85025147D01*
X99585716Y-84926544D01*
X99749688Y-84858624D01*
X99898988Y-84828927D01*
X99923758Y-84824000D01*
X100101242Y-84824000D01*
X100126012Y-84828927D01*
G37*
G36*
X102666012Y-84828927D02*
G01*
X102815312Y-84858624D01*
X102979284Y-84926544D01*
X103126854Y-85025147D01*
X103252353Y-85150646D01*
X103350956Y-85298216D01*
X103418876Y-85462188D01*
X103453500Y-85636259D01*
X103453500Y-85813741D01*
X103418876Y-85987812D01*
X103350956Y-86151784D01*
X103252353Y-86299354D01*
X103126854Y-86424853D01*
X102979284Y-86523456D01*
X102815312Y-86591376D01*
X102666012Y-86621073D01*
X102641242Y-86626000D01*
X102463758Y-86626000D01*
X102438988Y-86621073D01*
X102289688Y-86591376D01*
X102125716Y-86523456D01*
X101978146Y-86424853D01*
X101852647Y-86299354D01*
X101754044Y-86151784D01*
X101686124Y-85987812D01*
X101651500Y-85813741D01*
X101651500Y-85636259D01*
X101686124Y-85462188D01*
X101754044Y-85298216D01*
X101852647Y-85150646D01*
X101978146Y-85025147D01*
X102125716Y-84926544D01*
X102289688Y-84858624D01*
X102438988Y-84828927D01*
X102463758Y-84824000D01*
X102641242Y-84824000D01*
X102666012Y-84828927D01*
G37*
G36*
X143623512Y-81653927D02*
G01*
X143772812Y-81683624D01*
X143936784Y-81751544D01*
X144084354Y-81850147D01*
X144209853Y-81975646D01*
X144308456Y-82123216D01*
X144376376Y-82287188D01*
X144411000Y-82461259D01*
X144411000Y-82638741D01*
X144376376Y-82812812D01*
X144308456Y-82976784D01*
X144209853Y-83124354D01*
X144084354Y-83249853D01*
X143936784Y-83348456D01*
X143772812Y-83416376D01*
X143623512Y-83446073D01*
X143598742Y-83451000D01*
X143421258Y-83451000D01*
X143396488Y-83446073D01*
X143247188Y-83416376D01*
X143083216Y-83348456D01*
X142935646Y-83249853D01*
X142810147Y-83124354D01*
X142711544Y-82976784D01*
X142643624Y-82812812D01*
X142609000Y-82638741D01*
X142609000Y-82461259D01*
X142643624Y-82287188D01*
X142711544Y-82123216D01*
X142810147Y-81975646D01*
X142935646Y-81850147D01*
X143083216Y-81751544D01*
X143247188Y-81683624D01*
X143396488Y-81653927D01*
X143421258Y-81649000D01*
X143598742Y-81649000D01*
X143623512Y-81653927D01*
G37*
G36*
X141083512Y-81653927D02*
G01*
X141232812Y-81683624D01*
X141396784Y-81751544D01*
X141544354Y-81850147D01*
X141669853Y-81975646D01*
X141768456Y-82123216D01*
X141836376Y-82287188D01*
X141871000Y-82461259D01*
X141871000Y-82638741D01*
X141836376Y-82812812D01*
X141768456Y-82976784D01*
X141669853Y-83124354D01*
X141544354Y-83249853D01*
X141396784Y-83348456D01*
X141232812Y-83416376D01*
X141083512Y-83446073D01*
X141058742Y-83451000D01*
X140881258Y-83451000D01*
X140856488Y-83446073D01*
X140707188Y-83416376D01*
X140543216Y-83348456D01*
X140395646Y-83249853D01*
X140270147Y-83124354D01*
X140171544Y-82976784D01*
X140103624Y-82812812D01*
X140069000Y-82638741D01*
X140069000Y-82461259D01*
X140103624Y-82287188D01*
X140171544Y-82123216D01*
X140270147Y-81975646D01*
X140395646Y-81850147D01*
X140543216Y-81751544D01*
X140707188Y-81683624D01*
X140856488Y-81653927D01*
X140881258Y-81649000D01*
X141058742Y-81649000D01*
X141083512Y-81653927D01*
G37*
G36*
X128624945Y-79921258D02*
G01*
X128751579Y-79946447D01*
X129052042Y-80070903D01*
X129322451Y-80251585D01*
X129552415Y-80481549D01*
X129704963Y-80709853D01*
X129733098Y-80751960D01*
X129857553Y-81052422D01*
X129921000Y-81371389D01*
X129921000Y-81696611D01*
X129890459Y-81850148D01*
X129857553Y-82015579D01*
X129733097Y-82316042D01*
X129552415Y-82586451D01*
X129322451Y-82816415D01*
X129052042Y-82997097D01*
X128751579Y-83121553D01*
X128737502Y-83124353D01*
X128432611Y-83185000D01*
X128107389Y-83185000D01*
X127802498Y-83124353D01*
X127788421Y-83121553D01*
X127487958Y-82997097D01*
X127217549Y-82816415D01*
X126987585Y-82586451D01*
X126806903Y-82316042D01*
X126682447Y-82015579D01*
X126649541Y-81850148D01*
X126619000Y-81696611D01*
X126619000Y-81371389D01*
X126682447Y-81052422D01*
X126806902Y-80751960D01*
X126835037Y-80709853D01*
X126987585Y-80481549D01*
X127217549Y-80251585D01*
X127487958Y-80070903D01*
X127788421Y-79946447D01*
X127915055Y-79921258D01*
X128107389Y-79883000D01*
X128432611Y-79883000D01*
X128624945Y-79921258D01*
G37*
G36*
X80123512Y-80383927D02*
G01*
X80272812Y-80413624D01*
X80436784Y-80481544D01*
X80584354Y-80580147D01*
X80709853Y-80705646D01*
X80808456Y-80853216D01*
X80876376Y-81017188D01*
X80911000Y-81191259D01*
X80911000Y-81368741D01*
X80876376Y-81542812D01*
X80808456Y-81706784D01*
X80709853Y-81854354D01*
X80584354Y-81979853D01*
X80436784Y-82078456D01*
X80272812Y-82146376D01*
X80123512Y-82176073D01*
X80098742Y-82181000D01*
X79921258Y-82181000D01*
X79896488Y-82176073D01*
X79747188Y-82146376D01*
X79583216Y-82078456D01*
X79435646Y-81979853D01*
X79310147Y-81854354D01*
X79211544Y-81706784D01*
X79143624Y-81542812D01*
X79109000Y-81368741D01*
X79109000Y-81191259D01*
X79143624Y-81017188D01*
X79211544Y-80853216D01*
X79310147Y-80705646D01*
X79435646Y-80580147D01*
X79583216Y-80481544D01*
X79747188Y-80413624D01*
X79896488Y-80383927D01*
X79921258Y-80379000D01*
X80098742Y-80379000D01*
X80123512Y-80383927D01*
G37*
G36*
X82663512Y-80383927D02*
G01*
X82812812Y-80413624D01*
X82976784Y-80481544D01*
X83124354Y-80580147D01*
X83249853Y-80705646D01*
X83348456Y-80853216D01*
X83416376Y-81017188D01*
X83451000Y-81191259D01*
X83451000Y-81368741D01*
X83416376Y-81542812D01*
X83348456Y-81706784D01*
X83249853Y-81854354D01*
X83124354Y-81979853D01*
X82976784Y-82078456D01*
X82812812Y-82146376D01*
X82663512Y-82176073D01*
X82638742Y-82181000D01*
X82461258Y-82181000D01*
X82436488Y-82176073D01*
X82287188Y-82146376D01*
X82123216Y-82078456D01*
X81975646Y-81979853D01*
X81850147Y-81854354D01*
X81751544Y-81706784D01*
X81683624Y-81542812D01*
X81649000Y-81368741D01*
X81649000Y-81191259D01*
X81683624Y-81017188D01*
X81751544Y-80853216D01*
X81850147Y-80705646D01*
X81975646Y-80580147D01*
X82123216Y-80481544D01*
X82287188Y-80413624D01*
X82436488Y-80383927D01*
X82461258Y-80379000D01*
X82638742Y-80379000D01*
X82663512Y-80383927D01*
G37*
G36*
X143623512Y-79113927D02*
G01*
X143772812Y-79143624D01*
X143936784Y-79211544D01*
X144084354Y-79310147D01*
X144209853Y-79435646D01*
X144308456Y-79583216D01*
X144376376Y-79747188D01*
X144411000Y-79921259D01*
X144411000Y-80098741D01*
X144376376Y-80272812D01*
X144308456Y-80436784D01*
X144209853Y-80584354D01*
X144084354Y-80709853D01*
X143936784Y-80808456D01*
X143772812Y-80876376D01*
X143623512Y-80906073D01*
X143598742Y-80911000D01*
X143421258Y-80911000D01*
X143396488Y-80906073D01*
X143247188Y-80876376D01*
X143083216Y-80808456D01*
X142935646Y-80709853D01*
X142810147Y-80584354D01*
X142711544Y-80436784D01*
X142643624Y-80272812D01*
X142609000Y-80098741D01*
X142609000Y-79921259D01*
X142643624Y-79747188D01*
X142711544Y-79583216D01*
X142810147Y-79435646D01*
X142935646Y-79310147D01*
X143083216Y-79211544D01*
X143247188Y-79143624D01*
X143396488Y-79113927D01*
X143421258Y-79109000D01*
X143598742Y-79109000D01*
X143623512Y-79113927D01*
G37*
G36*
X141083512Y-79113927D02*
G01*
X141232812Y-79143624D01*
X141396784Y-79211544D01*
X141544354Y-79310147D01*
X141669853Y-79435646D01*
X141768456Y-79583216D01*
X141836376Y-79747188D01*
X141871000Y-79921259D01*
X141871000Y-80098741D01*
X141836376Y-80272812D01*
X141768456Y-80436784D01*
X141669853Y-80584354D01*
X141544354Y-80709853D01*
X141396784Y-80808456D01*
X141232812Y-80876376D01*
X141083512Y-80906073D01*
X141058742Y-80911000D01*
X140881258Y-80911000D01*
X140856488Y-80906073D01*
X140707188Y-80876376D01*
X140543216Y-80808456D01*
X140395646Y-80709853D01*
X140270147Y-80584354D01*
X140171544Y-80436784D01*
X140103624Y-80272812D01*
X140069000Y-80098741D01*
X140069000Y-79921259D01*
X140103624Y-79747188D01*
X140171544Y-79583216D01*
X140270147Y-79435646D01*
X140395646Y-79310147D01*
X140543216Y-79211544D01*
X140707188Y-79143624D01*
X140856488Y-79113927D01*
X140881258Y-79109000D01*
X141058742Y-79109000D01*
X141083512Y-79113927D01*
G37*
G36*
X119911000Y-79906000D02*
G01*
X116309000Y-79906000D01*
X116309000Y-76304000D01*
X119911000Y-76304000D01*
X119911000Y-79906000D01*
G37*
G36*
X82654769Y-77842188D02*
G01*
X82812812Y-77873624D01*
X82976784Y-77941544D01*
X83124354Y-78040147D01*
X83249853Y-78165646D01*
X83348456Y-78313216D01*
X83416376Y-78477188D01*
X83451000Y-78651259D01*
X83451000Y-78828741D01*
X83416376Y-79002812D01*
X83348456Y-79166784D01*
X83249853Y-79314354D01*
X83124354Y-79439853D01*
X82976784Y-79538456D01*
X82812812Y-79606376D01*
X82663512Y-79636073D01*
X82638742Y-79641000D01*
X82461258Y-79641000D01*
X82436488Y-79636073D01*
X82287188Y-79606376D01*
X82123216Y-79538456D01*
X81975646Y-79439853D01*
X81850147Y-79314354D01*
X81751544Y-79166784D01*
X81683624Y-79002812D01*
X81649000Y-78828741D01*
X81649000Y-78651259D01*
X81683624Y-78477188D01*
X81751544Y-78313216D01*
X81850147Y-78165646D01*
X81975646Y-78040147D01*
X82123216Y-77941544D01*
X82287188Y-77873624D01*
X82445231Y-77842188D01*
X82461258Y-77839000D01*
X82638742Y-77839000D01*
X82654769Y-77842188D01*
G37*
G36*
X80114769Y-77842188D02*
G01*
X80272812Y-77873624D01*
X80436784Y-77941544D01*
X80584354Y-78040147D01*
X80709853Y-78165646D01*
X80808456Y-78313216D01*
X80876376Y-78477188D01*
X80911000Y-78651259D01*
X80911000Y-78828741D01*
X80876376Y-79002812D01*
X80808456Y-79166784D01*
X80709853Y-79314354D01*
X80584354Y-79439853D01*
X80436784Y-79538456D01*
X80272812Y-79606376D01*
X80123512Y-79636073D01*
X80098742Y-79641000D01*
X79921258Y-79641000D01*
X79896488Y-79636073D01*
X79747188Y-79606376D01*
X79583216Y-79538456D01*
X79435646Y-79439853D01*
X79310147Y-79314354D01*
X79211544Y-79166784D01*
X79143624Y-79002812D01*
X79109000Y-78828741D01*
X79109000Y-78651259D01*
X79143624Y-78477188D01*
X79211544Y-78313216D01*
X79310147Y-78165646D01*
X79435646Y-78040147D01*
X79583216Y-77941544D01*
X79747188Y-77873624D01*
X79905231Y-77842188D01*
X79921258Y-77839000D01*
X80098742Y-77839000D01*
X80114769Y-77842188D01*
G37*
G36*
X109324769Y-77207188D02*
G01*
X109482812Y-77238624D01*
X109646784Y-77306544D01*
X109794354Y-77405147D01*
X109919853Y-77530646D01*
X110018456Y-77678216D01*
X110086376Y-77842188D01*
X110121000Y-78016259D01*
X110121000Y-78193741D01*
X110086376Y-78367812D01*
X110018456Y-78531784D01*
X109919853Y-78679354D01*
X109794354Y-78804853D01*
X109646784Y-78903456D01*
X109482812Y-78971376D01*
X109333512Y-79001073D01*
X109308742Y-79006000D01*
X109131258Y-79006000D01*
X109106488Y-79001073D01*
X108957188Y-78971376D01*
X108793216Y-78903456D01*
X108645646Y-78804853D01*
X108520147Y-78679354D01*
X108421544Y-78531784D01*
X108353624Y-78367812D01*
X108319000Y-78193741D01*
X108319000Y-78016259D01*
X108353624Y-77842188D01*
X108421544Y-77678216D01*
X108520147Y-77530646D01*
X108645646Y-77405147D01*
X108793216Y-77306544D01*
X108957188Y-77238624D01*
X109115231Y-77207188D01*
X109131258Y-77204000D01*
X109308742Y-77204000D01*
X109324769Y-77207188D01*
G37*
G36*
X141871000Y-78371000D02*
G01*
X140069000Y-78371000D01*
X140069000Y-76569000D01*
X141871000Y-76569000D01*
X141871000Y-78371000D01*
G37*
G36*
X143623512Y-76573927D02*
G01*
X143772812Y-76603624D01*
X143936784Y-76671544D01*
X144084354Y-76770147D01*
X144209853Y-76895646D01*
X144308456Y-77043216D01*
X144376376Y-77207188D01*
X144411000Y-77381259D01*
X144411000Y-77558741D01*
X144376376Y-77732812D01*
X144308456Y-77896784D01*
X144209853Y-78044354D01*
X144084354Y-78169853D01*
X143936784Y-78268456D01*
X143772812Y-78336376D01*
X143623512Y-78366073D01*
X143598742Y-78371000D01*
X143421258Y-78371000D01*
X143396488Y-78366073D01*
X143247188Y-78336376D01*
X143083216Y-78268456D01*
X142935646Y-78169853D01*
X142810147Y-78044354D01*
X142711544Y-77896784D01*
X142643624Y-77732812D01*
X142609000Y-77558741D01*
X142609000Y-77381259D01*
X142643624Y-77207188D01*
X142711544Y-77043216D01*
X142810147Y-76895646D01*
X142935646Y-76770147D01*
X143083216Y-76671544D01*
X143247188Y-76603624D01*
X143396488Y-76573927D01*
X143421258Y-76569000D01*
X143598742Y-76569000D01*
X143623512Y-76573927D01*
G37*
G36*
X97915589Y-76708876D02*
G01*
X98014893Y-76728629D01*
X98155206Y-76786748D01*
X98281484Y-76871125D01*
X98388875Y-76978516D01*
X98473252Y-77104794D01*
X98531371Y-77245107D01*
X98561000Y-77394063D01*
X98561000Y-77545937D01*
X98531371Y-77694893D01*
X98473252Y-77835206D01*
X98388875Y-77961484D01*
X98281484Y-78068875D01*
X98155206Y-78153252D01*
X98014893Y-78211371D01*
X97915589Y-78231124D01*
X97865938Y-78241000D01*
X97714062Y-78241000D01*
X97664411Y-78231124D01*
X97565107Y-78211371D01*
X97424794Y-78153252D01*
X97298516Y-78068875D01*
X97191125Y-77961484D01*
X97106748Y-77835206D01*
X97048629Y-77694893D01*
X97019000Y-77545937D01*
X97019000Y-77394063D01*
X97048629Y-77245107D01*
X97106748Y-77104794D01*
X97191125Y-76978516D01*
X97298516Y-76871125D01*
X97424794Y-76786748D01*
X97565107Y-76728629D01*
X97664411Y-76708876D01*
X97714062Y-76699000D01*
X97865938Y-76699000D01*
X97915589Y-76708876D01*
G37*
G36*
X92835589Y-76708876D02*
G01*
X92934893Y-76728629D01*
X93075206Y-76786748D01*
X93201484Y-76871125D01*
X93308875Y-76978516D01*
X93393252Y-77104794D01*
X93451371Y-77245107D01*
X93481000Y-77394063D01*
X93481000Y-77545937D01*
X93451371Y-77694893D01*
X93393252Y-77835206D01*
X93308875Y-77961484D01*
X93201484Y-78068875D01*
X93075206Y-78153252D01*
X92934893Y-78211371D01*
X92835589Y-78231124D01*
X92785938Y-78241000D01*
X92634062Y-78241000D01*
X92584411Y-78231124D01*
X92485107Y-78211371D01*
X92344794Y-78153252D01*
X92218516Y-78068875D01*
X92111125Y-77961484D01*
X92026748Y-77835206D01*
X91968629Y-77694893D01*
X91939000Y-77545937D01*
X91939000Y-77394063D01*
X91968629Y-77245107D01*
X92026748Y-77104794D01*
X92111125Y-76978516D01*
X92218516Y-76871125D01*
X92344794Y-76786748D01*
X92485107Y-76728629D01*
X92584411Y-76708876D01*
X92634062Y-76699000D01*
X92785938Y-76699000D01*
X92835589Y-76708876D01*
G37*
G36*
X90295589Y-76708876D02*
G01*
X90394893Y-76728629D01*
X90535206Y-76786748D01*
X90661484Y-76871125D01*
X90768875Y-76978516D01*
X90853252Y-77104794D01*
X90911371Y-77245107D01*
X90941000Y-77394063D01*
X90941000Y-77545937D01*
X90911371Y-77694893D01*
X90853252Y-77835206D01*
X90768875Y-77961484D01*
X90661484Y-78068875D01*
X90535206Y-78153252D01*
X90394893Y-78211371D01*
X90295589Y-78231124D01*
X90245938Y-78241000D01*
X90094062Y-78241000D01*
X90044411Y-78231124D01*
X89945107Y-78211371D01*
X89804794Y-78153252D01*
X89678516Y-78068875D01*
X89571125Y-77961484D01*
X89486748Y-77835206D01*
X89428629Y-77694893D01*
X89399000Y-77545937D01*
X89399000Y-77394063D01*
X89428629Y-77245107D01*
X89486748Y-77104794D01*
X89571125Y-76978516D01*
X89678516Y-76871125D01*
X89804794Y-76786748D01*
X89945107Y-76728629D01*
X90044411Y-76708876D01*
X90094062Y-76699000D01*
X90245938Y-76699000D01*
X90295589Y-76708876D01*
G37*
G36*
X87755589Y-76708876D02*
G01*
X87854893Y-76728629D01*
X87995206Y-76786748D01*
X88121484Y-76871125D01*
X88228875Y-76978516D01*
X88313252Y-77104794D01*
X88371371Y-77245107D01*
X88401000Y-77394063D01*
X88401000Y-77545937D01*
X88371371Y-77694893D01*
X88313252Y-77835206D01*
X88228875Y-77961484D01*
X88121484Y-78068875D01*
X87995206Y-78153252D01*
X87854893Y-78211371D01*
X87755589Y-78231124D01*
X87705938Y-78241000D01*
X87554062Y-78241000D01*
X87504411Y-78231124D01*
X87405107Y-78211371D01*
X87264794Y-78153252D01*
X87138516Y-78068875D01*
X87031125Y-77961484D01*
X86946748Y-77835206D01*
X86888629Y-77694893D01*
X86859000Y-77545937D01*
X86859000Y-77394063D01*
X86888629Y-77245107D01*
X86946748Y-77104794D01*
X87031125Y-76978516D01*
X87138516Y-76871125D01*
X87264794Y-76786748D01*
X87405107Y-76728629D01*
X87504411Y-76708876D01*
X87554062Y-76699000D01*
X87705938Y-76699000D01*
X87755589Y-76708876D01*
G37*
G36*
X100455589Y-76708876D02*
G01*
X100554893Y-76728629D01*
X100695206Y-76786748D01*
X100821484Y-76871125D01*
X100928875Y-76978516D01*
X101013252Y-77104794D01*
X101071371Y-77245107D01*
X101101000Y-77394063D01*
X101101000Y-77545937D01*
X101071371Y-77694893D01*
X101013252Y-77835206D01*
X100928875Y-77961484D01*
X100821484Y-78068875D01*
X100695206Y-78153252D01*
X100554893Y-78211371D01*
X100455589Y-78231124D01*
X100405938Y-78241000D01*
X100254062Y-78241000D01*
X100204411Y-78231124D01*
X100105107Y-78211371D01*
X99964794Y-78153252D01*
X99838516Y-78068875D01*
X99731125Y-77961484D01*
X99646748Y-77835206D01*
X99588629Y-77694893D01*
X99559000Y-77545937D01*
X99559000Y-77394063D01*
X99588629Y-77245107D01*
X99646748Y-77104794D01*
X99731125Y-76978516D01*
X99838516Y-76871125D01*
X99964794Y-76786748D01*
X100105107Y-76728629D01*
X100204411Y-76708876D01*
X100254062Y-76699000D01*
X100405938Y-76699000D01*
X100455589Y-76708876D01*
G37*
G36*
X102995589Y-76708876D02*
G01*
X103094893Y-76728629D01*
X103235206Y-76786748D01*
X103361484Y-76871125D01*
X103468875Y-76978516D01*
X103553252Y-77104794D01*
X103611371Y-77245107D01*
X103641000Y-77394063D01*
X103641000Y-77545937D01*
X103611371Y-77694893D01*
X103553252Y-77835206D01*
X103468875Y-77961484D01*
X103361484Y-78068875D01*
X103235206Y-78153252D01*
X103094893Y-78211371D01*
X102995589Y-78231124D01*
X102945938Y-78241000D01*
X102794062Y-78241000D01*
X102744411Y-78231124D01*
X102645107Y-78211371D01*
X102504794Y-78153252D01*
X102378516Y-78068875D01*
X102271125Y-77961484D01*
X102186748Y-77835206D01*
X102128629Y-77694893D01*
X102099000Y-77545937D01*
X102099000Y-77394063D01*
X102128629Y-77245107D01*
X102186748Y-77104794D01*
X102271125Y-76978516D01*
X102378516Y-76871125D01*
X102504794Y-76786748D01*
X102645107Y-76728629D01*
X102744411Y-76708876D01*
X102794062Y-76699000D01*
X102945938Y-76699000D01*
X102995589Y-76708876D01*
G37*
G36*
X82663512Y-75303927D02*
G01*
X82812812Y-75333624D01*
X82976784Y-75401544D01*
X83124354Y-75500147D01*
X83249853Y-75625646D01*
X83348456Y-75773216D01*
X83416376Y-75937188D01*
X83451000Y-76111259D01*
X83451000Y-76288741D01*
X83416376Y-76462812D01*
X83348456Y-76626784D01*
X83249853Y-76774354D01*
X83124354Y-76899853D01*
X82976784Y-76998456D01*
X82812812Y-77066376D01*
X82663512Y-77096073D01*
X82638742Y-77101000D01*
X82461258Y-77101000D01*
X82436488Y-77096073D01*
X82287188Y-77066376D01*
X82123216Y-76998456D01*
X81975646Y-76899853D01*
X81850147Y-76774354D01*
X81751544Y-76626784D01*
X81683624Y-76462812D01*
X81649000Y-76288741D01*
X81649000Y-76111259D01*
X81683624Y-75937188D01*
X81751544Y-75773216D01*
X81850147Y-75625646D01*
X81975646Y-75500147D01*
X82123216Y-75401544D01*
X82287188Y-75333624D01*
X82436488Y-75303927D01*
X82461258Y-75299000D01*
X82638742Y-75299000D01*
X82663512Y-75303927D01*
G37*
G36*
X80911000Y-77101000D02*
G01*
X79109000Y-77101000D01*
X79109000Y-75299000D01*
X80911000Y-75299000D01*
X80911000Y-77101000D01*
G37*
G36*
X129653512Y-75303927D02*
G01*
X129802812Y-75333624D01*
X129966784Y-75401544D01*
X130114354Y-75500147D01*
X130239853Y-75625646D01*
X130338456Y-75773216D01*
X130406376Y-75937188D01*
X130441000Y-76111259D01*
X130441000Y-76288741D01*
X130406376Y-76462812D01*
X130338456Y-76626784D01*
X130239853Y-76774354D01*
X130114354Y-76899853D01*
X129966784Y-76998456D01*
X129802812Y-77066376D01*
X129653512Y-77096073D01*
X129628742Y-77101000D01*
X129451258Y-77101000D01*
X129426488Y-77096073D01*
X129277188Y-77066376D01*
X129113216Y-76998456D01*
X128965646Y-76899853D01*
X128840147Y-76774354D01*
X128741544Y-76626784D01*
X128673624Y-76462812D01*
X128639000Y-76288741D01*
X128639000Y-76111259D01*
X128673624Y-75937188D01*
X128741544Y-75773216D01*
X128840147Y-75625646D01*
X128965646Y-75500147D01*
X129113216Y-75401544D01*
X129277188Y-75333624D01*
X129426488Y-75303927D01*
X129451258Y-75299000D01*
X129628742Y-75299000D01*
X129653512Y-75303927D01*
G37*
G36*
X127901000Y-77101000D02*
G01*
X126099000Y-77101000D01*
X126099000Y-75299000D01*
X127901000Y-75299000D01*
X127901000Y-77101000D01*
G37*
G36*
X114536366Y-73320695D02*
G01*
X114693460Y-73368349D01*
X114838231Y-73445731D01*
X114965128Y-73549872D01*
X115069269Y-73676769D01*
X115146651Y-73821540D01*
X115194305Y-73978634D01*
X115211000Y-74148140D01*
X115211000Y-76061860D01*
X115194305Y-76231366D01*
X115146651Y-76388460D01*
X115069269Y-76533231D01*
X114965128Y-76660128D01*
X114838231Y-76764269D01*
X114693460Y-76841651D01*
X114536366Y-76889305D01*
X114366860Y-76906000D01*
X112453140Y-76906000D01*
X112283634Y-76889305D01*
X112126540Y-76841651D01*
X111981769Y-76764269D01*
X111854872Y-76660128D01*
X111750731Y-76533231D01*
X111673349Y-76388460D01*
X111625695Y-76231366D01*
X111609000Y-76061860D01*
X111609000Y-74148140D01*
X111625695Y-73978634D01*
X111673349Y-73821540D01*
X111750731Y-73676769D01*
X111854872Y-73549872D01*
X111981769Y-73445731D01*
X112126540Y-73368349D01*
X112283634Y-73320695D01*
X112453140Y-73304000D01*
X114366860Y-73304000D01*
X114536366Y-73320695D01*
G37*
G36*
X110121000Y-76466000D02*
G01*
X108319000Y-76466000D01*
X108319000Y-74664000D01*
X110121000Y-74664000D01*
X110121000Y-76466000D01*
G37*
G36*
X129653512Y-72763927D02*
G01*
X129802812Y-72793624D01*
X129966784Y-72861544D01*
X130114354Y-72960147D01*
X130239853Y-73085646D01*
X130338456Y-73233216D01*
X130406376Y-73397188D01*
X130441000Y-73571259D01*
X130441000Y-73748741D01*
X130406376Y-73922812D01*
X130338456Y-74086784D01*
X130239853Y-74234354D01*
X130114354Y-74359853D01*
X129966784Y-74458456D01*
X129802812Y-74526376D01*
X129653512Y-74556073D01*
X129628742Y-74561000D01*
X129451258Y-74561000D01*
X129426488Y-74556073D01*
X129277188Y-74526376D01*
X129113216Y-74458456D01*
X128965646Y-74359853D01*
X128840147Y-74234354D01*
X128741544Y-74086784D01*
X128673624Y-73922812D01*
X128639000Y-73748741D01*
X128639000Y-73571259D01*
X128673624Y-73397188D01*
X128741544Y-73233216D01*
X128840147Y-73085646D01*
X128965646Y-72960147D01*
X129113216Y-72861544D01*
X129277188Y-72793624D01*
X129426488Y-72763927D01*
X129451258Y-72759000D01*
X129628742Y-72759000D01*
X129653512Y-72763927D01*
G37*
G36*
X127113512Y-72763927D02*
G01*
X127262812Y-72793624D01*
X127426784Y-72861544D01*
X127574354Y-72960147D01*
X127699853Y-73085646D01*
X127798456Y-73233216D01*
X127866376Y-73397188D01*
X127901000Y-73571259D01*
X127901000Y-73748741D01*
X127866376Y-73922812D01*
X127798456Y-74086784D01*
X127699853Y-74234354D01*
X127574354Y-74359853D01*
X127426784Y-74458456D01*
X127262812Y-74526376D01*
X127113512Y-74556073D01*
X127088742Y-74561000D01*
X126911258Y-74561000D01*
X126886488Y-74556073D01*
X126737188Y-74526376D01*
X126573216Y-74458456D01*
X126425646Y-74359853D01*
X126300147Y-74234354D01*
X126201544Y-74086784D01*
X126133624Y-73922812D01*
X126099000Y-73748741D01*
X126099000Y-73571259D01*
X126133624Y-73397188D01*
X126201544Y-73233216D01*
X126300147Y-73085646D01*
X126425646Y-72960147D01*
X126573216Y-72861544D01*
X126737188Y-72793624D01*
X126886488Y-72763927D01*
X126911258Y-72759000D01*
X127088742Y-72759000D01*
X127113512Y-72763927D01*
G37*
G36*
X119336979Y-70568293D02*
G01*
X119470625Y-70608834D01*
X119593784Y-70674664D01*
X119701740Y-70763260D01*
X119790336Y-70871216D01*
X119856166Y-70994375D01*
X119896707Y-71128021D01*
X119911000Y-71273140D01*
X119911000Y-72936860D01*
X119896707Y-73081979D01*
X119856166Y-73215625D01*
X119790336Y-73338784D01*
X119701740Y-73446740D01*
X119593784Y-73535336D01*
X119470625Y-73601166D01*
X119336979Y-73641707D01*
X119191860Y-73656000D01*
X117028140Y-73656000D01*
X116883021Y-73641707D01*
X116749375Y-73601166D01*
X116626216Y-73535336D01*
X116518260Y-73446740D01*
X116429664Y-73338784D01*
X116363834Y-73215625D01*
X116323293Y-73081979D01*
X116309000Y-72936860D01*
X116309000Y-71273140D01*
X116323293Y-71128021D01*
X116363834Y-70994375D01*
X116429664Y-70871216D01*
X116518260Y-70763260D01*
X116626216Y-70674664D01*
X116749375Y-70608834D01*
X116883021Y-70568293D01*
X117028140Y-70554000D01*
X119191860Y-70554000D01*
X119336979Y-70568293D01*
G37*
G36*
X87311231Y-71474003D02*
G01*
X87505412Y-71554436D01*
X87505414Y-71554437D01*
X87680173Y-71671207D01*
X87828793Y-71819827D01*
X87945563Y-71994586D01*
X87945564Y-71994588D01*
X88025997Y-72188769D01*
X88067000Y-72394908D01*
X88067000Y-72605092D01*
X88025997Y-72811231D01*
X87964313Y-72960148D01*
X87945563Y-73005414D01*
X87828793Y-73180173D01*
X87680173Y-73328793D01*
X87505414Y-73445563D01*
X87505413Y-73445564D01*
X87505412Y-73445564D01*
X87311231Y-73525997D01*
X87105092Y-73567000D01*
X86894908Y-73567000D01*
X86688769Y-73525997D01*
X86494588Y-73445564D01*
X86494587Y-73445564D01*
X86494586Y-73445563D01*
X86319827Y-73328793D01*
X86171207Y-73180173D01*
X86054437Y-73005414D01*
X86035687Y-72960148D01*
X85974003Y-72811231D01*
X85933000Y-72605092D01*
X85933000Y-72394908D01*
X85974003Y-72188769D01*
X86054436Y-71994588D01*
X86054437Y-71994586D01*
X86171207Y-71819827D01*
X86319827Y-71671207D01*
X86494586Y-71554437D01*
X86494588Y-71554436D01*
X86688769Y-71474003D01*
X86894908Y-71433000D01*
X87105092Y-71433000D01*
X87311231Y-71474003D01*
G37*
G36*
X101311231Y-71474003D02*
G01*
X101505412Y-71554436D01*
X101505414Y-71554437D01*
X101680173Y-71671207D01*
X101828793Y-71819827D01*
X101945563Y-71994586D01*
X101945564Y-71994588D01*
X102025997Y-72188769D01*
X102067000Y-72394908D01*
X102067000Y-72605092D01*
X102025997Y-72811231D01*
X101964313Y-72960148D01*
X101945563Y-73005414D01*
X101828793Y-73180173D01*
X101680173Y-73328793D01*
X101505414Y-73445563D01*
X101505413Y-73445564D01*
X101505412Y-73445564D01*
X101311231Y-73525997D01*
X101105092Y-73567000D01*
X100894908Y-73567000D01*
X100688769Y-73525997D01*
X100494588Y-73445564D01*
X100494587Y-73445564D01*
X100494586Y-73445563D01*
X100319827Y-73328793D01*
X100171207Y-73180173D01*
X100054437Y-73005414D01*
X100035687Y-72960148D01*
X99974003Y-72811231D01*
X99933000Y-72605092D01*
X99933000Y-72394908D01*
X99974003Y-72188769D01*
X100054436Y-71994588D01*
X100054437Y-71994586D01*
X100171207Y-71819827D01*
X100319827Y-71671207D01*
X100494586Y-71554437D01*
X100494588Y-71554436D01*
X100688769Y-71474003D01*
X100894908Y-71433000D01*
X101105092Y-71433000D01*
X101311231Y-71474003D01*
G37*
G36*
X138311231Y-71474003D02*
G01*
X138505412Y-71554436D01*
X138505414Y-71554437D01*
X138680173Y-71671207D01*
X138828793Y-71819827D01*
X138945563Y-71994586D01*
X138945564Y-71994588D01*
X139025997Y-72188769D01*
X139067000Y-72394908D01*
X139067000Y-72605092D01*
X139025997Y-72811231D01*
X138964313Y-72960148D01*
X138945563Y-73005414D01*
X138828793Y-73180173D01*
X138680173Y-73328793D01*
X138505414Y-73445563D01*
X138505413Y-73445564D01*
X138505412Y-73445564D01*
X138311231Y-73525997D01*
X138105092Y-73567000D01*
X137894908Y-73567000D01*
X137688769Y-73525997D01*
X137494588Y-73445564D01*
X137494587Y-73445564D01*
X137494586Y-73445563D01*
X137319827Y-73328793D01*
X137171207Y-73180173D01*
X137054437Y-73005414D01*
X137035687Y-72960148D01*
X136974003Y-72811231D01*
X136933000Y-72605092D01*
X136933000Y-72394908D01*
X136974003Y-72188769D01*
X137054436Y-71994588D01*
X137054437Y-71994586D01*
X137171207Y-71819827D01*
X137319827Y-71671207D01*
X137494586Y-71554437D01*
X137494588Y-71554436D01*
X137688769Y-71474003D01*
X137894908Y-71433000D01*
X138105092Y-71433000D01*
X138311231Y-71474003D01*
G37*
G36*
X183811231Y-71474003D02*
G01*
X184005412Y-71554436D01*
X184005414Y-71554437D01*
X184180173Y-71671207D01*
X184328793Y-71819827D01*
X184445563Y-71994586D01*
X184445564Y-71994588D01*
X184525997Y-72188769D01*
X184567000Y-72394908D01*
X184567000Y-72605092D01*
X184525997Y-72811231D01*
X184464313Y-72960148D01*
X184445563Y-73005414D01*
X184328793Y-73180173D01*
X184180173Y-73328793D01*
X184005414Y-73445563D01*
X184005413Y-73445564D01*
X184005412Y-73445564D01*
X183811231Y-73525997D01*
X183605092Y-73567000D01*
X183394908Y-73567000D01*
X183188769Y-73525997D01*
X182994588Y-73445564D01*
X182994587Y-73445564D01*
X182994586Y-73445563D01*
X182819827Y-73328793D01*
X182671207Y-73180173D01*
X182554437Y-73005414D01*
X182535687Y-72960148D01*
X182474003Y-72811231D01*
X182433000Y-72605092D01*
X182433000Y-72394908D01*
X182474003Y-72188769D01*
X182554436Y-71994588D01*
X182554437Y-71994586D01*
X182671207Y-71819827D01*
X182819827Y-71671207D01*
X182994586Y-71554437D01*
X182994588Y-71554436D01*
X183188769Y-71474003D01*
X183394908Y-71433000D01*
X183605092Y-71433000D01*
X183811231Y-71474003D01*
G37*
G36*
X169811231Y-71474003D02*
G01*
X170005412Y-71554436D01*
X170005414Y-71554437D01*
X170180173Y-71671207D01*
X170328793Y-71819827D01*
X170445563Y-71994586D01*
X170445564Y-71994588D01*
X170525997Y-72188769D01*
X170567000Y-72394908D01*
X170567000Y-72605092D01*
X170525997Y-72811231D01*
X170464313Y-72960148D01*
X170445563Y-73005414D01*
X170328793Y-73180173D01*
X170180173Y-73328793D01*
X170005414Y-73445563D01*
X170005413Y-73445564D01*
X170005412Y-73445564D01*
X169811231Y-73525997D01*
X169605092Y-73567000D01*
X169394908Y-73567000D01*
X169188769Y-73525997D01*
X168994588Y-73445564D01*
X168994587Y-73445564D01*
X168994586Y-73445563D01*
X168819827Y-73328793D01*
X168671207Y-73180173D01*
X168554437Y-73005414D01*
X168535687Y-72960148D01*
X168474003Y-72811231D01*
X168433000Y-72605092D01*
X168433000Y-72394908D01*
X168474003Y-72188769D01*
X168554436Y-71994588D01*
X168554437Y-71994586D01*
X168671207Y-71819827D01*
X168819827Y-71671207D01*
X168994586Y-71554437D01*
X168994588Y-71554436D01*
X169188769Y-71474003D01*
X169394908Y-71433000D01*
X169605092Y-71433000D01*
X169811231Y-71474003D01*
G37*
G36*
X152311231Y-71474003D02*
G01*
X152505412Y-71554436D01*
X152505414Y-71554437D01*
X152680173Y-71671207D01*
X152828793Y-71819827D01*
X152945563Y-71994586D01*
X152945564Y-71994588D01*
X153025997Y-72188769D01*
X153067000Y-72394908D01*
X153067000Y-72605092D01*
X153025997Y-72811231D01*
X152964313Y-72960148D01*
X152945563Y-73005414D01*
X152828793Y-73180173D01*
X152680173Y-73328793D01*
X152505414Y-73445563D01*
X152505413Y-73445564D01*
X152505412Y-73445564D01*
X152311231Y-73525997D01*
X152105092Y-73567000D01*
X151894908Y-73567000D01*
X151688769Y-73525997D01*
X151494588Y-73445564D01*
X151494587Y-73445564D01*
X151494586Y-73445563D01*
X151319827Y-73328793D01*
X151171207Y-73180173D01*
X151054437Y-73005414D01*
X151035687Y-72960148D01*
X150974003Y-72811231D01*
X150933000Y-72605092D01*
X150933000Y-72394908D01*
X150974003Y-72188769D01*
X151054436Y-71994588D01*
X151054437Y-71994586D01*
X151171207Y-71819827D01*
X151319827Y-71671207D01*
X151494586Y-71554437D01*
X151494588Y-71554436D01*
X151688769Y-71474003D01*
X151894908Y-71433000D01*
X152105092Y-71433000D01*
X152311231Y-71474003D01*
G37*
G36*
X161919456Y-65784780D02*
G01*
X162127769Y-65847971D01*
X162319751Y-65950587D01*
X162488025Y-66088685D01*
X162626123Y-66256959D01*
X162728739Y-66448940D01*
X162791930Y-66657253D01*
X162807920Y-66819601D01*
X162807920Y-68629979D01*
X162791930Y-68792327D01*
X162728739Y-69000640D01*
X162626123Y-69192621D01*
X162488025Y-69360895D01*
X162319751Y-69498993D01*
X162127770Y-69601609D01*
X161919457Y-69664800D01*
X161702820Y-69686137D01*
X161486184Y-69664800D01*
X161277871Y-69601609D01*
X161085890Y-69498993D01*
X160917616Y-69360895D01*
X160779518Y-69192621D01*
X160676902Y-69000640D01*
X160613711Y-68792327D01*
X160597720Y-68629979D01*
X160597720Y-66819602D01*
X160613710Y-66657254D01*
X160676901Y-66448941D01*
X160779517Y-66256959D01*
X160917615Y-66088685D01*
X161085889Y-65950587D01*
X161277870Y-65847971D01*
X161486183Y-65784780D01*
X161702820Y-65763443D01*
X161919456Y-65784780D01*
G37*
G36*
X168014846Y-65784780D02*
G01*
X168223159Y-65847971D01*
X168415141Y-65950587D01*
X168583415Y-66088685D01*
X168721513Y-66256959D01*
X168824129Y-66448940D01*
X168887320Y-66657253D01*
X168903310Y-66819601D01*
X168903310Y-68629979D01*
X168887320Y-68792327D01*
X168824129Y-69000640D01*
X168721513Y-69192621D01*
X168583415Y-69360895D01*
X168415141Y-69498993D01*
X168223160Y-69601609D01*
X168014847Y-69664800D01*
X167798210Y-69686137D01*
X167581574Y-69664800D01*
X167373261Y-69601609D01*
X167181280Y-69498993D01*
X167013006Y-69360895D01*
X166874908Y-69192621D01*
X166772292Y-69000640D01*
X166709101Y-68792327D01*
X166693110Y-68629979D01*
X166693110Y-66819602D01*
X166709100Y-66657254D01*
X166772291Y-66448941D01*
X166874907Y-66256959D01*
X167013005Y-66088685D01*
X167181279Y-65950587D01*
X167373260Y-65847971D01*
X167581573Y-65784780D01*
X167798210Y-65763443D01*
X168014846Y-65784780D01*
G37*
G36*
X193419456Y-65784780D02*
G01*
X193627769Y-65847971D01*
X193819751Y-65950587D01*
X193988025Y-66088685D01*
X194126123Y-66256959D01*
X194228739Y-66448940D01*
X194291930Y-66657253D01*
X194307920Y-66819601D01*
X194307920Y-68629979D01*
X194291930Y-68792327D01*
X194228739Y-69000640D01*
X194126123Y-69192621D01*
X193988025Y-69360895D01*
X193819751Y-69498993D01*
X193627770Y-69601609D01*
X193419457Y-69664800D01*
X193202820Y-69686137D01*
X192986184Y-69664800D01*
X192777871Y-69601609D01*
X192585890Y-69498993D01*
X192417616Y-69360895D01*
X192279518Y-69192621D01*
X192176902Y-69000640D01*
X192113711Y-68792327D01*
X192097720Y-68629979D01*
X192097720Y-66819602D01*
X192113710Y-66657254D01*
X192176901Y-66448941D01*
X192279517Y-66256959D01*
X192417615Y-66088685D01*
X192585889Y-65950587D01*
X192777870Y-65847971D01*
X192986183Y-65784780D01*
X193202820Y-65763443D01*
X193419456Y-65784780D01*
G37*
G36*
X110919456Y-65784780D02*
G01*
X111127769Y-65847971D01*
X111319751Y-65950587D01*
X111488025Y-66088685D01*
X111626123Y-66256959D01*
X111728739Y-66448940D01*
X111791930Y-66657253D01*
X111807920Y-66819601D01*
X111807920Y-68629979D01*
X111791930Y-68792327D01*
X111728739Y-69000640D01*
X111626123Y-69192621D01*
X111488025Y-69360895D01*
X111319751Y-69498993D01*
X111127770Y-69601609D01*
X110919457Y-69664800D01*
X110702820Y-69686137D01*
X110486184Y-69664800D01*
X110277871Y-69601609D01*
X110085890Y-69498993D01*
X109917616Y-69360895D01*
X109779518Y-69192621D01*
X109676902Y-69000640D01*
X109613711Y-68792327D01*
X109597720Y-68629979D01*
X109597720Y-66819602D01*
X109613710Y-66657254D01*
X109676901Y-66448941D01*
X109779517Y-66256959D01*
X109917615Y-66088685D01*
X110085889Y-65950587D01*
X110277870Y-65847971D01*
X110486183Y-65784780D01*
X110702820Y-65763443D01*
X110919456Y-65784780D01*
G37*
G36*
X85514846Y-65784780D02*
G01*
X85723159Y-65847971D01*
X85915141Y-65950587D01*
X86083415Y-66088685D01*
X86221513Y-66256959D01*
X86324129Y-66448940D01*
X86387320Y-66657253D01*
X86403310Y-66819601D01*
X86403310Y-68629979D01*
X86387320Y-68792327D01*
X86324129Y-69000640D01*
X86221513Y-69192621D01*
X86083415Y-69360895D01*
X85915141Y-69498993D01*
X85723160Y-69601609D01*
X85514847Y-69664800D01*
X85298210Y-69686137D01*
X85081574Y-69664800D01*
X84873261Y-69601609D01*
X84681280Y-69498993D01*
X84513006Y-69360895D01*
X84374908Y-69192621D01*
X84272292Y-69000640D01*
X84209101Y-68792327D01*
X84193110Y-68629979D01*
X84193110Y-66819602D01*
X84209100Y-66657254D01*
X84272291Y-66448941D01*
X84374907Y-66256959D01*
X84513005Y-66088685D01*
X84681279Y-65950587D01*
X84873260Y-65847971D01*
X85081573Y-65784780D01*
X85298210Y-65763443D01*
X85514846Y-65784780D01*
G37*
G36*
X136514846Y-65784780D02*
G01*
X136723159Y-65847971D01*
X136915141Y-65950587D01*
X137083415Y-66088685D01*
X137221513Y-66256959D01*
X137324129Y-66448940D01*
X137387320Y-66657253D01*
X137403310Y-66819601D01*
X137403310Y-68629979D01*
X137387320Y-68792327D01*
X137324129Y-69000640D01*
X137221513Y-69192621D01*
X137083415Y-69360895D01*
X136915141Y-69498993D01*
X136723160Y-69601609D01*
X136514847Y-69664800D01*
X136298210Y-69686137D01*
X136081574Y-69664800D01*
X135873261Y-69601609D01*
X135681280Y-69498993D01*
X135513006Y-69360895D01*
X135374908Y-69192621D01*
X135272292Y-69000640D01*
X135209101Y-68792327D01*
X135193110Y-68629979D01*
X135193110Y-66819602D01*
X135209100Y-66657254D01*
X135272291Y-66448941D01*
X135374907Y-66256959D01*
X135513005Y-66088685D01*
X135681279Y-65950587D01*
X135873260Y-65847971D01*
X136081573Y-65784780D01*
X136298210Y-65763443D01*
X136514846Y-65784780D01*
G37*
G36*
X142472621Y-66210316D02*
G01*
X142585227Y-66256959D01*
X142759251Y-66329042D01*
X142759252Y-66329043D01*
X143017214Y-66501407D01*
X143236593Y-66720786D01*
X143302619Y-66819601D01*
X143408958Y-66978749D01*
X143527684Y-67265380D01*
X143588210Y-67569665D01*
X143588210Y-67879915D01*
X143527684Y-68184200D01*
X143408958Y-68470831D01*
X143408957Y-68470832D01*
X143236593Y-68728794D01*
X143017214Y-68948173D01*
X142938691Y-69000640D01*
X142759251Y-69120538D01*
X142591347Y-69190086D01*
X142472621Y-69239264D01*
X142320477Y-69269527D01*
X142168335Y-69299790D01*
X141858085Y-69299790D01*
X141705943Y-69269527D01*
X141553799Y-69239264D01*
X141435073Y-69190086D01*
X141267169Y-69120538D01*
X141087729Y-69000640D01*
X141009206Y-68948173D01*
X140789827Y-68728794D01*
X140617463Y-68470832D01*
X140617462Y-68470831D01*
X140498736Y-68184200D01*
X140438210Y-67879915D01*
X140438210Y-67569665D01*
X140498736Y-67265380D01*
X140617462Y-66978749D01*
X140723801Y-66819601D01*
X140789827Y-66720786D01*
X141009206Y-66501407D01*
X141267168Y-66329043D01*
X141267169Y-66329042D01*
X141441193Y-66256959D01*
X141553799Y-66210316D01*
X141858085Y-66149790D01*
X142168335Y-66149790D01*
X142472621Y-66210316D01*
G37*
G36*
X156472621Y-66210316D02*
G01*
X156585227Y-66256959D01*
X156759251Y-66329042D01*
X156759252Y-66329043D01*
X157017214Y-66501407D01*
X157236593Y-66720786D01*
X157302619Y-66819601D01*
X157408958Y-66978749D01*
X157527684Y-67265380D01*
X157588210Y-67569665D01*
X157588210Y-67879915D01*
X157527684Y-68184200D01*
X157408958Y-68470831D01*
X157408957Y-68470832D01*
X157236593Y-68728794D01*
X157017214Y-68948173D01*
X156938691Y-69000640D01*
X156759251Y-69120538D01*
X156591347Y-69190086D01*
X156472621Y-69239264D01*
X156320477Y-69269527D01*
X156168335Y-69299790D01*
X155858085Y-69299790D01*
X155705943Y-69269527D01*
X155553799Y-69239264D01*
X155435073Y-69190086D01*
X155267169Y-69120538D01*
X155087729Y-69000640D01*
X155009206Y-68948173D01*
X154789827Y-68728794D01*
X154617463Y-68470832D01*
X154617462Y-68470831D01*
X154498736Y-68184200D01*
X154438210Y-67879915D01*
X154438210Y-67569665D01*
X154498736Y-67265380D01*
X154617462Y-66978749D01*
X154723801Y-66819601D01*
X154789827Y-66720786D01*
X155009206Y-66501407D01*
X155267168Y-66329043D01*
X155267169Y-66329042D01*
X155441193Y-66256959D01*
X155553799Y-66210316D01*
X155858085Y-66149790D01*
X156168335Y-66149790D01*
X156472621Y-66210316D01*
G37*
G36*
X173972621Y-66210316D02*
G01*
X174085227Y-66256959D01*
X174259251Y-66329042D01*
X174259252Y-66329043D01*
X174517214Y-66501407D01*
X174736593Y-66720786D01*
X174802619Y-66819601D01*
X174908958Y-66978749D01*
X175027684Y-67265380D01*
X175088210Y-67569665D01*
X175088210Y-67879915D01*
X175027684Y-68184200D01*
X174908958Y-68470831D01*
X174908957Y-68470832D01*
X174736593Y-68728794D01*
X174517214Y-68948173D01*
X174438691Y-69000640D01*
X174259251Y-69120538D01*
X174091347Y-69190086D01*
X173972621Y-69239264D01*
X173820477Y-69269527D01*
X173668335Y-69299790D01*
X173358085Y-69299790D01*
X173205943Y-69269527D01*
X173053799Y-69239264D01*
X172935073Y-69190086D01*
X172767169Y-69120538D01*
X172587729Y-69000640D01*
X172509206Y-68948173D01*
X172289827Y-68728794D01*
X172117463Y-68470832D01*
X172117462Y-68470831D01*
X171998736Y-68184200D01*
X171938210Y-67879915D01*
X171938210Y-67569665D01*
X171998736Y-67265380D01*
X172117462Y-66978749D01*
X172223801Y-66819601D01*
X172289827Y-66720786D01*
X172509206Y-66501407D01*
X172767168Y-66329043D01*
X172767169Y-66329042D01*
X172941193Y-66256959D01*
X173053799Y-66210316D01*
X173358085Y-66149790D01*
X173668335Y-66149790D01*
X173972621Y-66210316D01*
G37*
G36*
X105472621Y-66210316D02*
G01*
X105585227Y-66256959D01*
X105759251Y-66329042D01*
X105759252Y-66329043D01*
X106017214Y-66501407D01*
X106236593Y-66720786D01*
X106302619Y-66819601D01*
X106408958Y-66978749D01*
X106527684Y-67265380D01*
X106588210Y-67569665D01*
X106588210Y-67879915D01*
X106527684Y-68184200D01*
X106408958Y-68470831D01*
X106408957Y-68470832D01*
X106236593Y-68728794D01*
X106017214Y-68948173D01*
X105938691Y-69000640D01*
X105759251Y-69120538D01*
X105591347Y-69190086D01*
X105472621Y-69239264D01*
X105320477Y-69269527D01*
X105168335Y-69299790D01*
X104858085Y-69299790D01*
X104705943Y-69269527D01*
X104553799Y-69239264D01*
X104435073Y-69190086D01*
X104267169Y-69120538D01*
X104087729Y-69000640D01*
X104009206Y-68948173D01*
X103789827Y-68728794D01*
X103617463Y-68470832D01*
X103617462Y-68470831D01*
X103498736Y-68184200D01*
X103438210Y-67879915D01*
X103438210Y-67569665D01*
X103498736Y-67265380D01*
X103617462Y-66978749D01*
X103723801Y-66819601D01*
X103789827Y-66720786D01*
X104009206Y-66501407D01*
X104267168Y-66329043D01*
X104267169Y-66329042D01*
X104441193Y-66256959D01*
X104553799Y-66210316D01*
X104858085Y-66149790D01*
X105168335Y-66149790D01*
X105472621Y-66210316D01*
G37*
G36*
X187972621Y-66210316D02*
G01*
X188085227Y-66256959D01*
X188259251Y-66329042D01*
X188259252Y-66329043D01*
X188517214Y-66501407D01*
X188736593Y-66720786D01*
X188802619Y-66819601D01*
X188908958Y-66978749D01*
X189027684Y-67265380D01*
X189088210Y-67569665D01*
X189088210Y-67879915D01*
X189027684Y-68184200D01*
X188908958Y-68470831D01*
X188908957Y-68470832D01*
X188736593Y-68728794D01*
X188517214Y-68948173D01*
X188438691Y-69000640D01*
X188259251Y-69120538D01*
X188091347Y-69190086D01*
X187972621Y-69239264D01*
X187820477Y-69269527D01*
X187668335Y-69299790D01*
X187358085Y-69299790D01*
X187205943Y-69269527D01*
X187053799Y-69239264D01*
X186935073Y-69190086D01*
X186767169Y-69120538D01*
X186587729Y-69000640D01*
X186509206Y-68948173D01*
X186289827Y-68728794D01*
X186117463Y-68470832D01*
X186117462Y-68470831D01*
X185998736Y-68184200D01*
X185938210Y-67879915D01*
X185938210Y-67569665D01*
X185998736Y-67265380D01*
X186117462Y-66978749D01*
X186223801Y-66819601D01*
X186289827Y-66720786D01*
X186509206Y-66501407D01*
X186767168Y-66329043D01*
X186767169Y-66329042D01*
X186941193Y-66256959D01*
X187053799Y-66210316D01*
X187358085Y-66149790D01*
X187668335Y-66149790D01*
X187972621Y-66210316D01*
G37*
G36*
X91472621Y-66210316D02*
G01*
X91585227Y-66256959D01*
X91759251Y-66329042D01*
X91759252Y-66329043D01*
X92017214Y-66501407D01*
X92236593Y-66720786D01*
X92302619Y-66819601D01*
X92408958Y-66978749D01*
X92527684Y-67265380D01*
X92588210Y-67569665D01*
X92588210Y-67879915D01*
X92527684Y-68184200D01*
X92408958Y-68470831D01*
X92408957Y-68470832D01*
X92236593Y-68728794D01*
X92017214Y-68948173D01*
X91938691Y-69000640D01*
X91759251Y-69120538D01*
X91591347Y-69190086D01*
X91472621Y-69239264D01*
X91320477Y-69269527D01*
X91168335Y-69299790D01*
X90858085Y-69299790D01*
X90705943Y-69269527D01*
X90553799Y-69239264D01*
X90435073Y-69190086D01*
X90267169Y-69120538D01*
X90087729Y-69000640D01*
X90009206Y-68948173D01*
X89789827Y-68728794D01*
X89617463Y-68470832D01*
X89617462Y-68470831D01*
X89498736Y-68184200D01*
X89438210Y-67879915D01*
X89438210Y-67569665D01*
X89498736Y-67265380D01*
X89617462Y-66978749D01*
X89723801Y-66819601D01*
X89789827Y-66720786D01*
X90009206Y-66501407D01*
X90267168Y-66329043D01*
X90267169Y-66329042D01*
X90441193Y-66256959D01*
X90553799Y-66210316D01*
X90858085Y-66149790D01*
X91168335Y-66149790D01*
X91472621Y-66210316D01*
G37*
M02*
