M48
; DRILL file {KiCad (5.1.5)-3} date 04/08/20 20:51:03
; FORMAT={-:-/ absolute / inch / decimal}
; #@! TF.CreationDate,2020-04-08T20:51:03+02:00
; #@! TF.GenerationSoftware,Kicad,Pcbnew,(5.1.5)-3
; #@! TF.FileFunction,Plated,1,2,PTH
FMAT,2
INCH
T1C0.0157
T2C0.0197
T3C0.0300
T4C0.0315
T5C0.0394
T6C0.0470
T7C0.0870
T8C0.0906
T9C0.1260
%
G90
G05
T1
X1.65Y-2.075
X1.65Y-2.6
X1.6677Y-2.9469
X1.725Y-2.4
X1.725Y-3.7
X1.725Y-4.22
X1.725Y-4.92
X1.725Y-5.62
X1.725Y-6.32
X1.825Y-3.225
X1.845Y-3.7
X1.845Y-4.22
X1.845Y-4.92
X1.845Y-5.62
X1.845Y-6.32
X1.85Y-2.625
X1.85Y-2.925
X1.85Y-3.425
X1.975Y-2.275
X1.975Y-3.25
X2.025Y-2.275
X2.05Y-2.5
X2.08Y-4.14
X2.08Y-4.84
X2.08Y-5.54
X2.08Y-6.24
X2.125Y-2.025
X2.125Y-2.35
X2.13Y-4.14
X2.13Y-4.84
X2.13Y-5.54
X2.13Y-6.24
X2.225Y-2.025
X2.225Y-2.9
X2.275Y-2.375
X2.28Y-4.29
X2.28Y-4.99
X2.28Y-5.69
X2.28Y-6.39
X2.3Y-1.575
X2.325Y-1.7
X2.33Y-4.29
X2.33Y-4.99
X2.33Y-5.69
X2.33Y-6.39
X2.35Y-3.15
X2.4Y-3.15
X2.425Y-2.075
X2.455Y-6.19
X2.5Y-1.775
X2.505Y-3.69
X2.505Y-4.365
X2.505Y-5.065
X2.505Y-5.765
X2.525Y-3.0
X2.55Y-1.625
X2.55Y-2.075
X2.55Y-2.275
X2.55Y-3.2715
X2.575Y-3.0
X2.6Y-2.275
X2.605Y-3.69
X2.605Y-4.365
X2.605Y-5.065
X2.605Y-5.765
X2.625Y-1.75
X2.625Y-3.3785
X2.63Y-3.42
X2.655Y-6.165
X2.705Y-3.69
X2.705Y-4.365
X2.705Y-5.065
X2.705Y-5.765
X2.775Y-2.125
X2.775Y-2.225
X2.805Y-3.69
X2.805Y-4.365
X2.805Y-5.065
X2.805Y-5.765
X2.825Y-2.225
X2.825Y-3.4
X2.8903Y-2.4097
X2.925Y-2.425
X2.975Y-2.65
X2.98Y-3.59
X2.98Y-4.29
X2.98Y-4.99
X2.98Y-5.69
X3.0Y-2.075
X3.0Y-2.6
X3.03Y-3.59
X3.03Y-4.29
X3.03Y-4.99
X3.03Y-5.69
X3.1394Y-2.279
X3.15Y-1.7
X3.15Y-1.925
X3.18Y-3.74
X3.18Y-4.44
X3.18Y-5.14
X3.18Y-5.84
X3.1904Y-2.275
X3.23Y-3.74
X3.23Y-4.44
X3.23Y-5.14
X3.23Y-5.84
X3.3007Y-3.0472
X3.325Y-1.625
X3.35Y-2.9
X3.3507Y-3.0472
X3.4Y-2.475
X3.425Y-2.35
X3.425Y-2.4
X3.465Y-3.66
X3.465Y-4.36
X3.465Y-5.06
X3.465Y-5.76
X3.575Y-2.075
X3.605Y-3.66
X3.605Y-4.36
X3.605Y-5.06
X3.605Y-5.76
X3.65Y-2.075
X3.7Y-3.0
X3.715Y-3.77
X3.715Y-4.17
X3.715Y-4.47
X3.715Y-4.87
X3.715Y-5.17
X3.715Y-5.57
X3.715Y-5.87
X3.715Y-6.27
X3.725Y-2.225
X3.725Y-2.275
X3.725Y-2.9
X3.75Y-3.0
X3.75Y-3.45
X3.85Y-3.625
X3.85Y-3.675
X3.85Y-4.0
X3.85Y-4.05
X3.85Y-4.3
X3.85Y-4.35
X3.85Y-4.7
X3.85Y-4.75
X3.85Y-5.0
X3.85Y-5.05
X3.85Y-5.4
X3.85Y-5.45
X3.85Y-5.7
X3.85Y-5.75
X3.85Y-6.1
X3.85Y-6.15
X3.95Y-2.1
X3.95Y-2.225
X3.95Y-2.375
X3.95Y-2.6
X3.975Y-1.675
X3.975Y-4.725
X3.975Y-4.95
X3.985Y-2.0614
X4.0Y-2.025
X4.0205Y-3.2644
X4.05Y-1.9
X4.05Y-3.075
X4.075Y-3.05
X4.1Y-3.125
X4.125Y-1.9
X4.125Y-3.1
X4.15Y-2.05
X4.175Y-1.95
X4.175Y-5.675
X4.2Y-3.55
X4.2Y-3.8
X4.2Y-5.65
X4.275Y-3.25
X4.3Y-3.55
X4.3Y-3.8
X4.3Y-5.475
X4.325Y-2.65
X4.35Y-4.7
X4.35Y-5.15
X4.375Y-3.125
X4.375Y-3.175
X4.4Y-2.0
X4.4Y-4.45
X4.4Y-4.65
X4.425Y-4.125
X4.425Y-4.9
X4.425Y-5.425
X4.45Y-4.2
X4.4593Y-5.6343
X4.4715Y-5.05
X4.5Y-3.725
X4.5Y-5.575
X4.5Y-5.675
X4.525Y-6.0
X4.55Y-5.425
X4.5535Y-4.9
X4.59Y-3.795
X4.59Y-5.155
X4.61Y-3.565
X4.6106Y-2.875
X4.6215Y-3.254
X4.6215Y-5.95
X4.625Y-4.775
X4.65Y-2.875
X4.6535Y-4.475
X4.675Y-5.2
X4.6785Y-3.2
X4.6894Y-2.875
X4.7Y-2.7
X4.7Y-2.75
X4.7Y-5.525
X4.725Y-2.575
X4.725Y-2.625
X4.75Y-3.7
X4.75Y-5.475
X4.775Y-2.575
X4.775Y-2.625
X4.775Y-3.45
X4.775Y-3.5
X4.775Y-3.675
X4.775Y-4.0
X4.8Y-4.025
X4.825Y-3.625
X4.875Y-3.625
X4.9Y-2.7
X4.9Y-2.75
X4.9Y-6.225
X4.977Y-5.2072
X5.0Y-4.625
X5.025Y-5.125
X5.05Y-2.45
X5.05Y-4.725
X5.05Y-5.0
X5.0517Y-4.8677
X5.0785Y-5.375
X5.11Y-4.725
X5.118Y-3.607
X5.125Y-5.025
X5.15Y-6.075
X5.168Y-3.607
X5.1722Y-5.4972
X5.2Y-5.525
X5.25Y-4.875
X5.3Y-5.125
X5.3Y-5.375
X5.325Y-6.075
X5.375Y-5.125
X5.375Y-5.375
X5.39Y-4.725
X5.4965Y-5.225
X5.525Y-5.175
X5.575Y-6.425
X5.575Y-6.5
X5.6Y-4.825
X5.6Y-6.625
X5.65Y-3.4
X5.655Y-3.98
X5.73Y-4.255
X5.85Y-4.775
X5.855Y-3.605
X5.88Y-4.03
T2
X4.2555Y-5.8
X4.2832Y-5.7332
X4.2832Y-5.8668
X4.35Y-5.7055
X4.35Y-5.8945
X4.4168Y-5.7332
X4.4168Y-5.8668
X4.4445Y-5.8
X4.2555Y-6.35
X4.2832Y-6.2832
X4.2832Y-6.4168
X4.35Y-6.2555
X4.35Y-6.4445
X4.4168Y-6.2832
X4.4168Y-6.4168
X4.4445Y-6.35
T3
X5.3319Y-5.6425
X5.3319Y-5.8
X5.3319Y-5.9575
X5.5681Y-5.6425
X5.5681Y-5.8
X5.5681Y-5.9575
T4
X5.725Y-1.875
X5.825Y-1.875
X5.925Y-1.875
X5.1571Y-1.875
X5.2571Y-1.875
X5.3571Y-1.875
T5
X4.211Y-1.695
X4.211Y-1.795
X4.311Y-1.695
X4.311Y-1.795
X4.186Y-2.375
X4.186Y-2.475
X4.186Y-2.575
X4.536Y-2.375
X4.536Y-2.475
X4.536Y-2.575
X4.825Y-6.575
X4.9234Y-6.575
X5.0219Y-6.575
X4.805Y-4.205
X4.805Y-4.305
X4.95Y-5.725
X4.95Y-5.825
X4.95Y-5.925
X5.05Y-5.725
X5.05Y-5.825
X5.05Y-5.925
T6
X2.899Y-1.679
X3.4502Y-1.679
X5.046Y-1.68
X5.5972Y-1.68
X1.687Y-1.679
X2.2382Y-1.679
T7
X3.057Y-1.491
X3.6082Y-1.491
X5.204Y-1.492
X5.7552Y-1.492
X1.845Y-1.491
X2.3962Y-1.491
T8
X4.7266Y-6.4451
X5.1203Y-6.4451
T9
X4.35Y-5.8
X4.35Y-6.35
T5
G00X4.516Y-1.6675
M15
G01X4.516Y-1.7463
M16
G05
G00X4.7404Y-1.5888
M15
G01X4.6616Y-1.5888
M16
G05
G00X4.7404Y-1.825
M15
G01X4.6616Y-1.825
M16
G05
T0
M30
