G04 #@! TF.GenerationSoftware,KiCad,Pcbnew,(5.1.5)-3*
G04 #@! TF.CreationDate,2020-04-08T20:51:01+02:00*
G04 #@! TF.ProjectId,SYS_StepAtten,5359535f-5374-4657-9041-7474656e2e6b,proto v0.0*
G04 #@! TF.SameCoordinates,Original*
G04 #@! TF.FileFunction,Soldermask,Bot*
G04 #@! TF.FilePolarity,Negative*
%FSLAX46Y46*%
G04 Gerber Fmt 4.6, Leading zero omitted, Abs format (unit mm)*
G04 Created by KiCad (PCBNEW (5.1.5)-3) date 2020-04-08 20:51:01*
%MOMM*%
%LPD*%
G04 APERTURE LIST*
%ADD10C,0.100000*%
G04 APERTURE END LIST*
D10*
G36*
X127832395Y-166090546D02*
G01*
X128005466Y-166162234D01*
X128005467Y-166162235D01*
X128161227Y-166266310D01*
X128293690Y-166398773D01*
X128293691Y-166398775D01*
X128397766Y-166554534D01*
X128469454Y-166727605D01*
X128506000Y-166911333D01*
X128506000Y-167098667D01*
X128469454Y-167282395D01*
X128397766Y-167455466D01*
X128397765Y-167455467D01*
X128293690Y-167611227D01*
X128161227Y-167743690D01*
X128082818Y-167796081D01*
X128005466Y-167847766D01*
X127832395Y-167919454D01*
X127648667Y-167956000D01*
X127461333Y-167956000D01*
X127277605Y-167919454D01*
X127104534Y-167847766D01*
X127027182Y-167796081D01*
X126948773Y-167743690D01*
X126816310Y-167611227D01*
X126712235Y-167455467D01*
X126712234Y-167455466D01*
X126640546Y-167282395D01*
X126604000Y-167098667D01*
X126604000Y-166911333D01*
X126640546Y-166727605D01*
X126712234Y-166554534D01*
X126816309Y-166398775D01*
X126816310Y-166398773D01*
X126948773Y-166266310D01*
X127104533Y-166162235D01*
X127104534Y-166162234D01*
X127277605Y-166090546D01*
X127461333Y-166054000D01*
X127648667Y-166054000D01*
X127832395Y-166090546D01*
G37*
G36*
X122832395Y-166090546D02*
G01*
X123005466Y-166162234D01*
X123005467Y-166162235D01*
X123161227Y-166266310D01*
X123293690Y-166398773D01*
X123293691Y-166398775D01*
X123397766Y-166554534D01*
X123469454Y-166727605D01*
X123506000Y-166911333D01*
X123506000Y-167098667D01*
X123469454Y-167282395D01*
X123397766Y-167455466D01*
X123397765Y-167455467D01*
X123293690Y-167611227D01*
X123161227Y-167743690D01*
X123082818Y-167796081D01*
X123005466Y-167847766D01*
X122832395Y-167919454D01*
X122648667Y-167956000D01*
X122461333Y-167956000D01*
X122277605Y-167919454D01*
X122104534Y-167847766D01*
X122027182Y-167796081D01*
X121948773Y-167743690D01*
X121816310Y-167611227D01*
X121712235Y-167455467D01*
X121712234Y-167455466D01*
X121640546Y-167282395D01*
X121604000Y-167098667D01*
X121604000Y-166911333D01*
X121640546Y-166727605D01*
X121712234Y-166554534D01*
X121816309Y-166398775D01*
X121816310Y-166398773D01*
X121948773Y-166266310D01*
X122104533Y-166162235D01*
X122104534Y-166162234D01*
X122277605Y-166090546D01*
X122461333Y-166054000D01*
X122648667Y-166054000D01*
X122832395Y-166090546D01*
G37*
G36*
X125332395Y-166090546D02*
G01*
X125505466Y-166162234D01*
X125505467Y-166162235D01*
X125661227Y-166266310D01*
X125793690Y-166398773D01*
X125793691Y-166398775D01*
X125897766Y-166554534D01*
X125969454Y-166727605D01*
X126006000Y-166911333D01*
X126006000Y-167098667D01*
X125969454Y-167282395D01*
X125897766Y-167455466D01*
X125897765Y-167455467D01*
X125793690Y-167611227D01*
X125661227Y-167743690D01*
X125582818Y-167796081D01*
X125505466Y-167847766D01*
X125332395Y-167919454D01*
X125148667Y-167956000D01*
X124961333Y-167956000D01*
X124777605Y-167919454D01*
X124604534Y-167847766D01*
X124527182Y-167796081D01*
X124448773Y-167743690D01*
X124316310Y-167611227D01*
X124212235Y-167455467D01*
X124212234Y-167455466D01*
X124140546Y-167282395D01*
X124104000Y-167098667D01*
X124104000Y-166911333D01*
X124140546Y-166727605D01*
X124212234Y-166554534D01*
X124316309Y-166398775D01*
X124316310Y-166398773D01*
X124448773Y-166266310D01*
X124604533Y-166162235D01*
X124604534Y-166162234D01*
X124777605Y-166090546D01*
X124961333Y-166054000D01*
X125148667Y-166054000D01*
X125332395Y-166090546D01*
G37*
G36*
X120589358Y-161414232D02*
G01*
X120740761Y-161444348D01*
X120883878Y-161503629D01*
X121141155Y-161610196D01*
X121168616Y-161621571D01*
X121553675Y-161878859D01*
X121881141Y-162206325D01*
X122138429Y-162591384D01*
X122213834Y-162773427D01*
X122315652Y-163019240D01*
X122398961Y-163438056D01*
X122406000Y-163473447D01*
X122406000Y-163936553D01*
X122315652Y-164390761D01*
X122138429Y-164818616D01*
X121881141Y-165203675D01*
X121553675Y-165531141D01*
X121168616Y-165788429D01*
X120740761Y-165965652D01*
X120589358Y-165995768D01*
X120286555Y-166056000D01*
X119823445Y-166056000D01*
X119520642Y-165995768D01*
X119369239Y-165965652D01*
X118941384Y-165788429D01*
X118556325Y-165531141D01*
X118228859Y-165203675D01*
X117971571Y-164818616D01*
X117794348Y-164390761D01*
X117704000Y-163936553D01*
X117704000Y-163473447D01*
X117711040Y-163438056D01*
X117794348Y-163019240D01*
X117896167Y-162773427D01*
X117971571Y-162591384D01*
X118228859Y-162206325D01*
X118556325Y-161878859D01*
X118941384Y-161621571D01*
X118968846Y-161610196D01*
X119226122Y-161503629D01*
X119369239Y-161444348D01*
X119520642Y-161414232D01*
X119823445Y-161354000D01*
X120286555Y-161354000D01*
X120589358Y-161414232D01*
G37*
G36*
X130589358Y-161414232D02*
G01*
X130740761Y-161444348D01*
X130883878Y-161503629D01*
X131141155Y-161610196D01*
X131168616Y-161621571D01*
X131553675Y-161878859D01*
X131881141Y-162206325D01*
X132138429Y-162591384D01*
X132213834Y-162773427D01*
X132315652Y-163019240D01*
X132398961Y-163438056D01*
X132406000Y-163473447D01*
X132406000Y-163936553D01*
X132315652Y-164390761D01*
X132138429Y-164818616D01*
X131881141Y-165203675D01*
X131553675Y-165531141D01*
X131168616Y-165788429D01*
X130740761Y-165965652D01*
X130589358Y-165995768D01*
X130286555Y-166056000D01*
X129823445Y-166056000D01*
X129520642Y-165995768D01*
X129369239Y-165965652D01*
X128941384Y-165788429D01*
X128556325Y-165531141D01*
X128228859Y-165203675D01*
X127971571Y-164818616D01*
X127794348Y-164390761D01*
X127704000Y-163936553D01*
X127704000Y-163473447D01*
X127711040Y-163438056D01*
X127794348Y-163019240D01*
X127896167Y-162773427D01*
X127971571Y-162591384D01*
X128228859Y-162206325D01*
X128556325Y-161878859D01*
X128941384Y-161621571D01*
X128968846Y-161610196D01*
X129226122Y-161503629D01*
X129369239Y-161444348D01*
X129520642Y-161414232D01*
X129823445Y-161354000D01*
X130286555Y-161354000D01*
X130589358Y-161414232D01*
G37*
G36*
X111124239Y-158101467D02*
G01*
X111438282Y-158163934D01*
X112029926Y-158409001D01*
X112562392Y-158764784D01*
X113015216Y-159217608D01*
X113370999Y-159750074D01*
X113616066Y-160341718D01*
X113616066Y-160341719D01*
X113741000Y-160969803D01*
X113741000Y-161610197D01*
X113687560Y-161878859D01*
X113616066Y-162238282D01*
X113370999Y-162829926D01*
X113015216Y-163362392D01*
X112562392Y-163815216D01*
X112029926Y-164170999D01*
X111438282Y-164416066D01*
X111124239Y-164478533D01*
X110810197Y-164541000D01*
X110169803Y-164541000D01*
X109855761Y-164478533D01*
X109541718Y-164416066D01*
X108950074Y-164170999D01*
X108417608Y-163815216D01*
X107964784Y-163362392D01*
X107609001Y-162829926D01*
X107363934Y-162238282D01*
X107292440Y-161878859D01*
X107239000Y-161610197D01*
X107239000Y-160969803D01*
X107363934Y-160341719D01*
X107363934Y-160341718D01*
X107609001Y-159750074D01*
X107964784Y-159217608D01*
X108417608Y-158764784D01*
X108950074Y-158409001D01*
X109541718Y-158163934D01*
X109855761Y-158101467D01*
X110169803Y-158039000D01*
X110810197Y-158039000D01*
X111124239Y-158101467D01*
G37*
G36*
X135667142Y-150538242D02*
G01*
X135815101Y-150599529D01*
X135948255Y-150688499D01*
X136061501Y-150801745D01*
X136150471Y-150934899D01*
X136211758Y-151082858D01*
X136243000Y-151239925D01*
X136243000Y-151400075D01*
X136211758Y-151557142D01*
X136150471Y-151705101D01*
X136061501Y-151838255D01*
X135948255Y-151951501D01*
X135815101Y-152040471D01*
X135667142Y-152101758D01*
X135510075Y-152133000D01*
X135349925Y-152133000D01*
X135192858Y-152101758D01*
X135044899Y-152040471D01*
X134911745Y-151951501D01*
X134798499Y-151838255D01*
X134709529Y-151705101D01*
X134648242Y-151557142D01*
X134617000Y-151400075D01*
X134617000Y-151239925D01*
X134648242Y-151082858D01*
X134709529Y-150934899D01*
X134798499Y-150801745D01*
X134911745Y-150688499D01*
X135044899Y-150599529D01*
X135192858Y-150538242D01*
X135349925Y-150507000D01*
X135510075Y-150507000D01*
X135667142Y-150538242D01*
G37*
G36*
X141667142Y-150538242D02*
G01*
X141815101Y-150599529D01*
X141948255Y-150688499D01*
X142061501Y-150801745D01*
X142150471Y-150934899D01*
X142211758Y-151082858D01*
X142243000Y-151239925D01*
X142243000Y-151400075D01*
X142211758Y-151557142D01*
X142150471Y-151705101D01*
X142061501Y-151838255D01*
X141948255Y-151951501D01*
X141815101Y-152040471D01*
X141667142Y-152101758D01*
X141510075Y-152133000D01*
X141349925Y-152133000D01*
X141192858Y-152101758D01*
X141044899Y-152040471D01*
X140911745Y-151951501D01*
X140798499Y-151838255D01*
X140709529Y-151705101D01*
X140648242Y-151557142D01*
X140617000Y-151400075D01*
X140617000Y-151239925D01*
X140648242Y-151082858D01*
X140709529Y-150934899D01*
X140798499Y-150801745D01*
X140911745Y-150688499D01*
X141044899Y-150599529D01*
X141192858Y-150538242D01*
X141349925Y-150507000D01*
X141510075Y-150507000D01*
X141667142Y-150538242D01*
G37*
G36*
X128383512Y-149598927D02*
G01*
X128532812Y-149628624D01*
X128696784Y-149696544D01*
X128844354Y-149795147D01*
X128969853Y-149920646D01*
X129068456Y-150068216D01*
X129136376Y-150232188D01*
X129171000Y-150406259D01*
X129171000Y-150583741D01*
X129136376Y-150757812D01*
X129068456Y-150921784D01*
X128969853Y-151069354D01*
X128844354Y-151194853D01*
X128696784Y-151293456D01*
X128532812Y-151361376D01*
X128383512Y-151391073D01*
X128358742Y-151396000D01*
X128181258Y-151396000D01*
X128156488Y-151391073D01*
X128007188Y-151361376D01*
X127843216Y-151293456D01*
X127695646Y-151194853D01*
X127570147Y-151069354D01*
X127471544Y-150921784D01*
X127403624Y-150757812D01*
X127369000Y-150583741D01*
X127369000Y-150406259D01*
X127403624Y-150232188D01*
X127471544Y-150068216D01*
X127570147Y-149920646D01*
X127695646Y-149795147D01*
X127843216Y-149696544D01*
X128007188Y-149628624D01*
X128156488Y-149598927D01*
X128181258Y-149594000D01*
X128358742Y-149594000D01*
X128383512Y-149598927D01*
G37*
G36*
X125843512Y-149598927D02*
G01*
X125992812Y-149628624D01*
X126156784Y-149696544D01*
X126304354Y-149795147D01*
X126429853Y-149920646D01*
X126528456Y-150068216D01*
X126596376Y-150232188D01*
X126631000Y-150406259D01*
X126631000Y-150583741D01*
X126596376Y-150757812D01*
X126528456Y-150921784D01*
X126429853Y-151069354D01*
X126304354Y-151194853D01*
X126156784Y-151293456D01*
X125992812Y-151361376D01*
X125843512Y-151391073D01*
X125818742Y-151396000D01*
X125641258Y-151396000D01*
X125616488Y-151391073D01*
X125467188Y-151361376D01*
X125303216Y-151293456D01*
X125155646Y-151194853D01*
X125030147Y-151069354D01*
X124931544Y-150921784D01*
X124863624Y-150757812D01*
X124829000Y-150583741D01*
X124829000Y-150406259D01*
X124863624Y-150232188D01*
X124931544Y-150068216D01*
X125030147Y-149920646D01*
X125155646Y-149795147D01*
X125303216Y-149696544D01*
X125467188Y-149628624D01*
X125616488Y-149598927D01*
X125641258Y-149594000D01*
X125818742Y-149594000D01*
X125843512Y-149598927D01*
G37*
G36*
X110974877Y-144101757D02*
G01*
X111438282Y-144193934D01*
X112029926Y-144439001D01*
X112562392Y-144794784D01*
X113015216Y-145247608D01*
X113370999Y-145780074D01*
X113616066Y-146371718D01*
X113616066Y-146371719D01*
X113741000Y-146999803D01*
X113741000Y-147640197D01*
X113696033Y-147866259D01*
X113616066Y-148268282D01*
X113370999Y-148859926D01*
X113015216Y-149392392D01*
X112562392Y-149845216D01*
X112029926Y-150200999D01*
X111438282Y-150446066D01*
X111131946Y-150507000D01*
X110810197Y-150571000D01*
X110169803Y-150571000D01*
X109848054Y-150507000D01*
X109541718Y-150446066D01*
X108950074Y-150200999D01*
X108417608Y-149845216D01*
X107964784Y-149392392D01*
X107609001Y-148859926D01*
X107363934Y-148268282D01*
X107283967Y-147866259D01*
X107239000Y-147640197D01*
X107239000Y-146999803D01*
X107363934Y-146371719D01*
X107363934Y-146371718D01*
X107609001Y-145780074D01*
X107964784Y-145247608D01*
X108417608Y-144794784D01*
X108950074Y-144439001D01*
X109541718Y-144193934D01*
X110005123Y-144101757D01*
X110169803Y-144069000D01*
X110810197Y-144069000D01*
X110974877Y-144101757D01*
G37*
G36*
X125843512Y-147058927D02*
G01*
X125992812Y-147088624D01*
X126156784Y-147156544D01*
X126304354Y-147255147D01*
X126429853Y-147380646D01*
X126528456Y-147528216D01*
X126596376Y-147692188D01*
X126631000Y-147866259D01*
X126631000Y-148043741D01*
X126596376Y-148217812D01*
X126528456Y-148381784D01*
X126429853Y-148529354D01*
X126304354Y-148654853D01*
X126156784Y-148753456D01*
X125992812Y-148821376D01*
X125843512Y-148851073D01*
X125818742Y-148856000D01*
X125641258Y-148856000D01*
X125616488Y-148851073D01*
X125467188Y-148821376D01*
X125303216Y-148753456D01*
X125155646Y-148654853D01*
X125030147Y-148529354D01*
X124931544Y-148381784D01*
X124863624Y-148217812D01*
X124829000Y-148043741D01*
X124829000Y-147866259D01*
X124863624Y-147692188D01*
X124931544Y-147528216D01*
X125030147Y-147380646D01*
X125155646Y-147255147D01*
X125303216Y-147156544D01*
X125467188Y-147088624D01*
X125616488Y-147058927D01*
X125641258Y-147054000D01*
X125818742Y-147054000D01*
X125843512Y-147058927D01*
G37*
G36*
X128383512Y-147058927D02*
G01*
X128532812Y-147088624D01*
X128696784Y-147156544D01*
X128844354Y-147255147D01*
X128969853Y-147380646D01*
X129068456Y-147528216D01*
X129136376Y-147692188D01*
X129171000Y-147866259D01*
X129171000Y-148043741D01*
X129136376Y-148217812D01*
X129068456Y-148381784D01*
X128969853Y-148529354D01*
X128844354Y-148654853D01*
X128696784Y-148753456D01*
X128532812Y-148821376D01*
X128383512Y-148851073D01*
X128358742Y-148856000D01*
X128181258Y-148856000D01*
X128156488Y-148851073D01*
X128007188Y-148821376D01*
X127843216Y-148753456D01*
X127695646Y-148654853D01*
X127570147Y-148529354D01*
X127471544Y-148381784D01*
X127403624Y-148217812D01*
X127369000Y-148043741D01*
X127369000Y-147866259D01*
X127403624Y-147692188D01*
X127471544Y-147528216D01*
X127570147Y-147380646D01*
X127695646Y-147255147D01*
X127843216Y-147156544D01*
X128007188Y-147088624D01*
X128156488Y-147058927D01*
X128181258Y-147054000D01*
X128358742Y-147054000D01*
X128383512Y-147058927D01*
G37*
G36*
X135667142Y-146538242D02*
G01*
X135815101Y-146599529D01*
X135948255Y-146688499D01*
X136061501Y-146801745D01*
X136150471Y-146934899D01*
X136211758Y-147082858D01*
X136243000Y-147239925D01*
X136243000Y-147400075D01*
X136211758Y-147557142D01*
X136150471Y-147705101D01*
X136061501Y-147838255D01*
X135948255Y-147951501D01*
X135815101Y-148040471D01*
X135667142Y-148101758D01*
X135510075Y-148133000D01*
X135349925Y-148133000D01*
X135192858Y-148101758D01*
X135044899Y-148040471D01*
X134911745Y-147951501D01*
X134798499Y-147838255D01*
X134709529Y-147705101D01*
X134648242Y-147557142D01*
X134617000Y-147400075D01*
X134617000Y-147239925D01*
X134648242Y-147082858D01*
X134709529Y-146934899D01*
X134798499Y-146801745D01*
X134911745Y-146688499D01*
X135044899Y-146599529D01*
X135192858Y-146538242D01*
X135349925Y-146507000D01*
X135510075Y-146507000D01*
X135667142Y-146538242D01*
G37*
G36*
X141667142Y-146538242D02*
G01*
X141815101Y-146599529D01*
X141948255Y-146688499D01*
X142061501Y-146801745D01*
X142150471Y-146934899D01*
X142211758Y-147082858D01*
X142243000Y-147239925D01*
X142243000Y-147400075D01*
X142211758Y-147557142D01*
X142150471Y-147705101D01*
X142061501Y-147838255D01*
X141948255Y-147951501D01*
X141815101Y-148040471D01*
X141667142Y-148101758D01*
X141510075Y-148133000D01*
X141349925Y-148133000D01*
X141192858Y-148101758D01*
X141044899Y-148040471D01*
X140911745Y-147951501D01*
X140798499Y-147838255D01*
X140709529Y-147705101D01*
X140648242Y-147557142D01*
X140617000Y-147400075D01*
X140617000Y-147239925D01*
X140648242Y-147082858D01*
X140709529Y-146934899D01*
X140798499Y-146801745D01*
X140911745Y-146688499D01*
X141044899Y-146599529D01*
X141192858Y-146538242D01*
X141349925Y-146507000D01*
X141510075Y-146507000D01*
X141667142Y-146538242D01*
G37*
G36*
X126631000Y-146316000D02*
G01*
X124829000Y-146316000D01*
X124829000Y-144514000D01*
X126631000Y-144514000D01*
X126631000Y-146316000D01*
G37*
G36*
X128383512Y-144518927D02*
G01*
X128532812Y-144548624D01*
X128696784Y-144616544D01*
X128844354Y-144715147D01*
X128969853Y-144840646D01*
X129068456Y-144988216D01*
X129136376Y-145152188D01*
X129171000Y-145326259D01*
X129171000Y-145503741D01*
X129136376Y-145677812D01*
X129068456Y-145841784D01*
X128969853Y-145989354D01*
X128844354Y-146114853D01*
X128696784Y-146213456D01*
X128532812Y-146281376D01*
X128383512Y-146311073D01*
X128358742Y-146316000D01*
X128181258Y-146316000D01*
X128156488Y-146311073D01*
X128007188Y-146281376D01*
X127843216Y-146213456D01*
X127695646Y-146114853D01*
X127570147Y-145989354D01*
X127471544Y-145841784D01*
X127403624Y-145677812D01*
X127369000Y-145503741D01*
X127369000Y-145326259D01*
X127403624Y-145152188D01*
X127471544Y-144988216D01*
X127570147Y-144840646D01*
X127695646Y-144715147D01*
X127843216Y-144616544D01*
X128007188Y-144548624D01*
X128156488Y-144518927D01*
X128181258Y-144514000D01*
X128358742Y-144514000D01*
X128383512Y-144518927D01*
G37*
G36*
X135667142Y-142538242D02*
G01*
X135815101Y-142599529D01*
X135948255Y-142688499D01*
X136061501Y-142801745D01*
X136150471Y-142934899D01*
X136211758Y-143082858D01*
X136243000Y-143239925D01*
X136243000Y-143400075D01*
X136211758Y-143557142D01*
X136150471Y-143705101D01*
X136061501Y-143838255D01*
X135948255Y-143951501D01*
X135815101Y-144040471D01*
X135667142Y-144101758D01*
X135510075Y-144133000D01*
X135349925Y-144133000D01*
X135192858Y-144101758D01*
X135044899Y-144040471D01*
X134911745Y-143951501D01*
X134798499Y-143838255D01*
X134709529Y-143705101D01*
X134648242Y-143557142D01*
X134617000Y-143400075D01*
X134617000Y-143239925D01*
X134648242Y-143082858D01*
X134709529Y-142934899D01*
X134798499Y-142801745D01*
X134911745Y-142688499D01*
X135044899Y-142599529D01*
X135192858Y-142538242D01*
X135349925Y-142507000D01*
X135510075Y-142507000D01*
X135667142Y-142538242D01*
G37*
G36*
X141667142Y-142538242D02*
G01*
X141815101Y-142599529D01*
X141948255Y-142688499D01*
X142061501Y-142801745D01*
X142150471Y-142934899D01*
X142211758Y-143082858D01*
X142243000Y-143239925D01*
X142243000Y-143400075D01*
X142211758Y-143557142D01*
X142150471Y-143705101D01*
X142061501Y-143838255D01*
X141948255Y-143951501D01*
X141815101Y-144040471D01*
X141667142Y-144101758D01*
X141510075Y-144133000D01*
X141349925Y-144133000D01*
X141192858Y-144101758D01*
X141044899Y-144040471D01*
X140911745Y-143951501D01*
X140798499Y-143838255D01*
X140709529Y-143705101D01*
X140648242Y-143557142D01*
X140617000Y-143400075D01*
X140617000Y-143239925D01*
X140648242Y-143082858D01*
X140709529Y-142934899D01*
X140798499Y-142801745D01*
X140911745Y-142688499D01*
X141044899Y-142599529D01*
X141192858Y-142538242D01*
X141349925Y-142507000D01*
X141510075Y-142507000D01*
X141667142Y-142538242D01*
G37*
G36*
X122160512Y-108450927D02*
G01*
X122309812Y-108480624D01*
X122473784Y-108548544D01*
X122621354Y-108647147D01*
X122746853Y-108772646D01*
X122845456Y-108920216D01*
X122913376Y-109084188D01*
X122948000Y-109258259D01*
X122948000Y-109435741D01*
X122913376Y-109609812D01*
X122845456Y-109773784D01*
X122746853Y-109921354D01*
X122621354Y-110046853D01*
X122473784Y-110145456D01*
X122309812Y-110213376D01*
X122160512Y-110243073D01*
X122135742Y-110248000D01*
X121958258Y-110248000D01*
X121933488Y-110243073D01*
X121784188Y-110213376D01*
X121620216Y-110145456D01*
X121472646Y-110046853D01*
X121347147Y-109921354D01*
X121248544Y-109773784D01*
X121180624Y-109609812D01*
X121146000Y-109435741D01*
X121146000Y-109258259D01*
X121180624Y-109084188D01*
X121248544Y-108920216D01*
X121347147Y-108772646D01*
X121472646Y-108647147D01*
X121620216Y-108548544D01*
X121784188Y-108480624D01*
X121933488Y-108450927D01*
X121958258Y-108446000D01*
X122135742Y-108446000D01*
X122160512Y-108450927D01*
G37*
G36*
X122948000Y-107708000D02*
G01*
X121146000Y-107708000D01*
X121146000Y-105906000D01*
X122948000Y-105906000D01*
X122948000Y-107708000D01*
G37*
G36*
X106437912Y-64508927D02*
G01*
X106587212Y-64538624D01*
X106751184Y-64606544D01*
X106898754Y-64705147D01*
X107024253Y-64830646D01*
X107122856Y-64978216D01*
X107190776Y-65142188D01*
X107225400Y-65316259D01*
X107225400Y-65493741D01*
X107190776Y-65667812D01*
X107122856Y-65831784D01*
X107024253Y-65979354D01*
X106898754Y-66104853D01*
X106751184Y-66203456D01*
X106587212Y-66271376D01*
X106437912Y-66301073D01*
X106413142Y-66306000D01*
X106235658Y-66306000D01*
X106210888Y-66301073D01*
X106061588Y-66271376D01*
X105897616Y-66203456D01*
X105750046Y-66104853D01*
X105624547Y-65979354D01*
X105525944Y-65831784D01*
X105458024Y-65667812D01*
X105423400Y-65493741D01*
X105423400Y-65316259D01*
X105458024Y-65142188D01*
X105525944Y-64978216D01*
X105624547Y-64830646D01*
X105750046Y-64705147D01*
X105897616Y-64606544D01*
X106061588Y-64538624D01*
X106210888Y-64508927D01*
X106235658Y-64504000D01*
X106413142Y-64504000D01*
X106437912Y-64508927D01*
G37*
G36*
X115327912Y-64508927D02*
G01*
X115477212Y-64538624D01*
X115641184Y-64606544D01*
X115788754Y-64705147D01*
X115914253Y-64830646D01*
X116012856Y-64978216D01*
X116080776Y-65142188D01*
X116115400Y-65316259D01*
X116115400Y-65493741D01*
X116080776Y-65667812D01*
X116012856Y-65831784D01*
X115914253Y-65979354D01*
X115788754Y-66104853D01*
X115641184Y-66203456D01*
X115477212Y-66271376D01*
X115327912Y-66301073D01*
X115303142Y-66306000D01*
X115125658Y-66306000D01*
X115100888Y-66301073D01*
X114951588Y-66271376D01*
X114787616Y-66203456D01*
X114640046Y-66104853D01*
X114514547Y-65979354D01*
X114415944Y-65831784D01*
X114348024Y-65667812D01*
X114313400Y-65493741D01*
X114313400Y-65316259D01*
X114348024Y-65142188D01*
X114415944Y-64978216D01*
X114514547Y-64830646D01*
X114640046Y-64705147D01*
X114787616Y-64606544D01*
X114951588Y-64538624D01*
X115100888Y-64508927D01*
X115125658Y-64504000D01*
X115303142Y-64504000D01*
X115327912Y-64508927D01*
G37*
G36*
X115327912Y-61968927D02*
G01*
X115477212Y-61998624D01*
X115641184Y-62066544D01*
X115788754Y-62165147D01*
X115914253Y-62290646D01*
X116012856Y-62438216D01*
X116080776Y-62602188D01*
X116115400Y-62776259D01*
X116115400Y-62953741D01*
X116080776Y-63127812D01*
X116012856Y-63291784D01*
X115914253Y-63439354D01*
X115788754Y-63564853D01*
X115641184Y-63663456D01*
X115477212Y-63731376D01*
X115327912Y-63761073D01*
X115303142Y-63766000D01*
X115125658Y-63766000D01*
X115100888Y-63761073D01*
X114951588Y-63731376D01*
X114787616Y-63663456D01*
X114640046Y-63564853D01*
X114514547Y-63439354D01*
X114415944Y-63291784D01*
X114348024Y-63127812D01*
X114313400Y-62953741D01*
X114313400Y-62776259D01*
X114348024Y-62602188D01*
X114415944Y-62438216D01*
X114514547Y-62290646D01*
X114640046Y-62165147D01*
X114787616Y-62066544D01*
X114951588Y-61998624D01*
X115100888Y-61968927D01*
X115125658Y-61964000D01*
X115303142Y-61964000D01*
X115327912Y-61968927D01*
G37*
G36*
X106437912Y-61968927D02*
G01*
X106587212Y-61998624D01*
X106751184Y-62066544D01*
X106898754Y-62165147D01*
X107024253Y-62290646D01*
X107122856Y-62438216D01*
X107190776Y-62602188D01*
X107225400Y-62776259D01*
X107225400Y-62953741D01*
X107190776Y-63127812D01*
X107122856Y-63291784D01*
X107024253Y-63439354D01*
X106898754Y-63564853D01*
X106751184Y-63663456D01*
X106587212Y-63731376D01*
X106437912Y-63761073D01*
X106413142Y-63766000D01*
X106235658Y-63766000D01*
X106210888Y-63761073D01*
X106061588Y-63731376D01*
X105897616Y-63663456D01*
X105750046Y-63564853D01*
X105624547Y-63439354D01*
X105525944Y-63291784D01*
X105458024Y-63127812D01*
X105423400Y-62953741D01*
X105423400Y-62776259D01*
X105458024Y-62602188D01*
X105525944Y-62438216D01*
X105624547Y-62290646D01*
X105750046Y-62165147D01*
X105897616Y-62066544D01*
X106061588Y-61998624D01*
X106210888Y-61968927D01*
X106235658Y-61964000D01*
X106413142Y-61964000D01*
X106437912Y-61968927D01*
G37*
G36*
X116115400Y-61226000D02*
G01*
X114313400Y-61226000D01*
X114313400Y-59424000D01*
X116115400Y-59424000D01*
X116115400Y-61226000D01*
G37*
G36*
X107225400Y-61226000D02*
G01*
X105423400Y-61226000D01*
X105423400Y-59424000D01*
X107225400Y-59424000D01*
X107225400Y-61226000D01*
G37*
G36*
X107969656Y-53001298D02*
G01*
X108075979Y-53022447D01*
X108376442Y-53146903D01*
X108646851Y-53327585D01*
X108876815Y-53557549D01*
X109057497Y-53827958D01*
X109181953Y-54128421D01*
X109245400Y-54447391D01*
X109245400Y-54772609D01*
X109181953Y-55091579D01*
X109057497Y-55392042D01*
X108876815Y-55662451D01*
X108646851Y-55892415D01*
X108376442Y-56073097D01*
X108075979Y-56197553D01*
X107969656Y-56218702D01*
X107757011Y-56261000D01*
X107431789Y-56261000D01*
X107219144Y-56218702D01*
X107112821Y-56197553D01*
X106812358Y-56073097D01*
X106541949Y-55892415D01*
X106311985Y-55662451D01*
X106131303Y-55392042D01*
X106006847Y-55091579D01*
X105943400Y-54772609D01*
X105943400Y-54447391D01*
X106006847Y-54128421D01*
X106131303Y-53827958D01*
X106311985Y-53557549D01*
X106541949Y-53327585D01*
X106812358Y-53146903D01*
X107112821Y-53022447D01*
X107219144Y-53001298D01*
X107431789Y-52959000D01*
X107757011Y-52959000D01*
X107969656Y-53001298D01*
G37*
G36*
X145540589Y-46863876D02*
G01*
X145639893Y-46883629D01*
X145780206Y-46941748D01*
X145906484Y-47026125D01*
X146013875Y-47133516D01*
X146098252Y-47259794D01*
X146156371Y-47400107D01*
X146186000Y-47549063D01*
X146186000Y-47700937D01*
X146156371Y-47849893D01*
X146098252Y-47990206D01*
X146013875Y-48116484D01*
X145906484Y-48223875D01*
X145780206Y-48308252D01*
X145639893Y-48366371D01*
X145540589Y-48386124D01*
X145490938Y-48396000D01*
X145339062Y-48396000D01*
X145289411Y-48386124D01*
X145190107Y-48366371D01*
X145049794Y-48308252D01*
X144923516Y-48223875D01*
X144816125Y-48116484D01*
X144731748Y-47990206D01*
X144673629Y-47849893D01*
X144644000Y-47700937D01*
X144644000Y-47549063D01*
X144673629Y-47400107D01*
X144731748Y-47259794D01*
X144816125Y-47133516D01*
X144923516Y-47026125D01*
X145049794Y-46941748D01*
X145190107Y-46883629D01*
X145289411Y-46863876D01*
X145339062Y-46854000D01*
X145490938Y-46854000D01*
X145540589Y-46863876D01*
G37*
G36*
X150620589Y-46863876D02*
G01*
X150719893Y-46883629D01*
X150860206Y-46941748D01*
X150986484Y-47026125D01*
X151093875Y-47133516D01*
X151178252Y-47259794D01*
X151236371Y-47400107D01*
X151266000Y-47549063D01*
X151266000Y-47700937D01*
X151236371Y-47849893D01*
X151178252Y-47990206D01*
X151093875Y-48116484D01*
X150986484Y-48223875D01*
X150860206Y-48308252D01*
X150719893Y-48366371D01*
X150620589Y-48386124D01*
X150570938Y-48396000D01*
X150419062Y-48396000D01*
X150369411Y-48386124D01*
X150270107Y-48366371D01*
X150129794Y-48308252D01*
X150003516Y-48223875D01*
X149896125Y-48116484D01*
X149811748Y-47990206D01*
X149753629Y-47849893D01*
X149724000Y-47700937D01*
X149724000Y-47549063D01*
X149753629Y-47400107D01*
X149811748Y-47259794D01*
X149896125Y-47133516D01*
X150003516Y-47026125D01*
X150129794Y-46941748D01*
X150270107Y-46883629D01*
X150369411Y-46863876D01*
X150419062Y-46854000D01*
X150570938Y-46854000D01*
X150620589Y-46863876D01*
G37*
G36*
X148080589Y-46863876D02*
G01*
X148179893Y-46883629D01*
X148320206Y-46941748D01*
X148446484Y-47026125D01*
X148553875Y-47133516D01*
X148638252Y-47259794D01*
X148696371Y-47400107D01*
X148726000Y-47549063D01*
X148726000Y-47700937D01*
X148696371Y-47849893D01*
X148638252Y-47990206D01*
X148553875Y-48116484D01*
X148446484Y-48223875D01*
X148320206Y-48308252D01*
X148179893Y-48366371D01*
X148080589Y-48386124D01*
X148030938Y-48396000D01*
X147879062Y-48396000D01*
X147829411Y-48386124D01*
X147730107Y-48366371D01*
X147589794Y-48308252D01*
X147463516Y-48223875D01*
X147356125Y-48116484D01*
X147271748Y-47990206D01*
X147213629Y-47849893D01*
X147184000Y-47700937D01*
X147184000Y-47549063D01*
X147213629Y-47400107D01*
X147271748Y-47259794D01*
X147356125Y-47133516D01*
X147463516Y-47026125D01*
X147589794Y-46941748D01*
X147730107Y-46883629D01*
X147829411Y-46863876D01*
X147879062Y-46854000D01*
X148030938Y-46854000D01*
X148080589Y-46863876D01*
G37*
G36*
X133655590Y-46863876D02*
G01*
X133754894Y-46883629D01*
X133895207Y-46941748D01*
X134021485Y-47026125D01*
X134128876Y-47133516D01*
X134213253Y-47259794D01*
X134271372Y-47400107D01*
X134301001Y-47549063D01*
X134301001Y-47700937D01*
X134271372Y-47849893D01*
X134213253Y-47990206D01*
X134128876Y-48116484D01*
X134021485Y-48223875D01*
X133895207Y-48308252D01*
X133754894Y-48366371D01*
X133655590Y-48386124D01*
X133605939Y-48396000D01*
X133454063Y-48396000D01*
X133404412Y-48386124D01*
X133305108Y-48366371D01*
X133164795Y-48308252D01*
X133038517Y-48223875D01*
X132931126Y-48116484D01*
X132846749Y-47990206D01*
X132788630Y-47849893D01*
X132759001Y-47700937D01*
X132759001Y-47549063D01*
X132788630Y-47400107D01*
X132846749Y-47259794D01*
X132931126Y-47133516D01*
X133038517Y-47026125D01*
X133164795Y-46941748D01*
X133305108Y-46883629D01*
X133404412Y-46863876D01*
X133454063Y-46854000D01*
X133605939Y-46854000D01*
X133655590Y-46863876D01*
G37*
G36*
X136195590Y-46863876D02*
G01*
X136294894Y-46883629D01*
X136435207Y-46941748D01*
X136561485Y-47026125D01*
X136668876Y-47133516D01*
X136753253Y-47259794D01*
X136811372Y-47400107D01*
X136841001Y-47549063D01*
X136841001Y-47700937D01*
X136811372Y-47849893D01*
X136753253Y-47990206D01*
X136668876Y-48116484D01*
X136561485Y-48223875D01*
X136435207Y-48308252D01*
X136294894Y-48366371D01*
X136195590Y-48386124D01*
X136145939Y-48396000D01*
X135994063Y-48396000D01*
X135944412Y-48386124D01*
X135845108Y-48366371D01*
X135704795Y-48308252D01*
X135578517Y-48223875D01*
X135471126Y-48116484D01*
X135386749Y-47990206D01*
X135328630Y-47849893D01*
X135299001Y-47700937D01*
X135299001Y-47549063D01*
X135328630Y-47400107D01*
X135386749Y-47259794D01*
X135471126Y-47133516D01*
X135578517Y-47026125D01*
X135704795Y-46941748D01*
X135845108Y-46883629D01*
X135944412Y-46863876D01*
X135994063Y-46854000D01*
X136145939Y-46854000D01*
X136195590Y-46863876D01*
G37*
G36*
X131115590Y-46863876D02*
G01*
X131214894Y-46883629D01*
X131355207Y-46941748D01*
X131481485Y-47026125D01*
X131588876Y-47133516D01*
X131673253Y-47259794D01*
X131731372Y-47400107D01*
X131761001Y-47549063D01*
X131761001Y-47700937D01*
X131731372Y-47849893D01*
X131673253Y-47990206D01*
X131588876Y-48116484D01*
X131481485Y-48223875D01*
X131355207Y-48308252D01*
X131214894Y-48366371D01*
X131115590Y-48386124D01*
X131065939Y-48396000D01*
X130914063Y-48396000D01*
X130864412Y-48386124D01*
X130765108Y-48366371D01*
X130624795Y-48308252D01*
X130498517Y-48223875D01*
X130391126Y-48116484D01*
X130306749Y-47990206D01*
X130248630Y-47849893D01*
X130219001Y-47700937D01*
X130219001Y-47549063D01*
X130248630Y-47400107D01*
X130306749Y-47259794D01*
X130391126Y-47133516D01*
X130498517Y-47026125D01*
X130624795Y-46941748D01*
X130765108Y-46883629D01*
X130864412Y-46863876D01*
X130914063Y-46854000D01*
X131065939Y-46854000D01*
X131115590Y-46863876D01*
G37*
G36*
X121206400Y-48156000D02*
G01*
X117604400Y-48156000D01*
X117604400Y-44554000D01*
X121206400Y-44554000D01*
X121206400Y-48156000D01*
G37*
G36*
X109612912Y-44696927D02*
G01*
X109762212Y-44726624D01*
X109926184Y-44794544D01*
X110073754Y-44893147D01*
X110199253Y-45018646D01*
X110297856Y-45166216D01*
X110365776Y-45330188D01*
X110400400Y-45504259D01*
X110400400Y-45681741D01*
X110365776Y-45855812D01*
X110297856Y-46019784D01*
X110199253Y-46167354D01*
X110073754Y-46292853D01*
X109926184Y-46391456D01*
X109762212Y-46459376D01*
X109612912Y-46489073D01*
X109588142Y-46494000D01*
X109410658Y-46494000D01*
X109385888Y-46489073D01*
X109236588Y-46459376D01*
X109072616Y-46391456D01*
X108925046Y-46292853D01*
X108799547Y-46167354D01*
X108700944Y-46019784D01*
X108633024Y-45855812D01*
X108598400Y-45681741D01*
X108598400Y-45504259D01*
X108633024Y-45330188D01*
X108700944Y-45166216D01*
X108799547Y-45018646D01*
X108925046Y-44893147D01*
X109072616Y-44794544D01*
X109236588Y-44726624D01*
X109385888Y-44696927D01*
X109410658Y-44692000D01*
X109588142Y-44692000D01*
X109612912Y-44696927D01*
G37*
G36*
X107860400Y-46494000D02*
G01*
X106058400Y-46494000D01*
X106058400Y-44692000D01*
X107860400Y-44692000D01*
X107860400Y-46494000D01*
G37*
G36*
X115831766Y-41570695D02*
G01*
X115988860Y-41618349D01*
X116133631Y-41695731D01*
X116260528Y-41799872D01*
X116364669Y-41926769D01*
X116442051Y-42071540D01*
X116489705Y-42228634D01*
X116506400Y-42398140D01*
X116506400Y-44311860D01*
X116489705Y-44481366D01*
X116442051Y-44638460D01*
X116364669Y-44783231D01*
X116260528Y-44910128D01*
X116133631Y-45014269D01*
X115988860Y-45091651D01*
X115831766Y-45139305D01*
X115662260Y-45156000D01*
X113748540Y-45156000D01*
X113579034Y-45139305D01*
X113421940Y-45091651D01*
X113277169Y-45014269D01*
X113150272Y-44910128D01*
X113046131Y-44783231D01*
X112968749Y-44638460D01*
X112921095Y-44481366D01*
X112904400Y-44311860D01*
X112904400Y-42398140D01*
X112921095Y-42228634D01*
X112968749Y-42071540D01*
X113046131Y-41926769D01*
X113150272Y-41799872D01*
X113277169Y-41695731D01*
X113421940Y-41618349D01*
X113579034Y-41570695D01*
X113748540Y-41554000D01*
X115662260Y-41554000D01*
X115831766Y-41570695D01*
G37*
G36*
X109612912Y-42156927D02*
G01*
X109762212Y-42186624D01*
X109926184Y-42254544D01*
X110073754Y-42353147D01*
X110199253Y-42478646D01*
X110297856Y-42626216D01*
X110365776Y-42790188D01*
X110395473Y-42939488D01*
X110399124Y-42957841D01*
X110400400Y-42964259D01*
X110400400Y-43141741D01*
X110365776Y-43315812D01*
X110297856Y-43479784D01*
X110199253Y-43627354D01*
X110073754Y-43752853D01*
X109926184Y-43851456D01*
X109762212Y-43919376D01*
X109612912Y-43949073D01*
X109588142Y-43954000D01*
X109410658Y-43954000D01*
X109385888Y-43949073D01*
X109236588Y-43919376D01*
X109072616Y-43851456D01*
X108925046Y-43752853D01*
X108799547Y-43627354D01*
X108700944Y-43479784D01*
X108633024Y-43315812D01*
X108598400Y-43141741D01*
X108598400Y-42964259D01*
X108599677Y-42957841D01*
X108603327Y-42939488D01*
X108633024Y-42790188D01*
X108700944Y-42626216D01*
X108799547Y-42478646D01*
X108925046Y-42353147D01*
X109072616Y-42254544D01*
X109236588Y-42186624D01*
X109385888Y-42156927D01*
X109410658Y-42152000D01*
X109588142Y-42152000D01*
X109612912Y-42156927D01*
G37*
G36*
X107072912Y-42156927D02*
G01*
X107222212Y-42186624D01*
X107386184Y-42254544D01*
X107533754Y-42353147D01*
X107659253Y-42478646D01*
X107757856Y-42626216D01*
X107825776Y-42790188D01*
X107855473Y-42939488D01*
X107859124Y-42957841D01*
X107860400Y-42964259D01*
X107860400Y-43141741D01*
X107825776Y-43315812D01*
X107757856Y-43479784D01*
X107659253Y-43627354D01*
X107533754Y-43752853D01*
X107386184Y-43851456D01*
X107222212Y-43919376D01*
X107072912Y-43949073D01*
X107048142Y-43954000D01*
X106870658Y-43954000D01*
X106845888Y-43949073D01*
X106696588Y-43919376D01*
X106532616Y-43851456D01*
X106385046Y-43752853D01*
X106259547Y-43627354D01*
X106160944Y-43479784D01*
X106093024Y-43315812D01*
X106058400Y-43141741D01*
X106058400Y-42964259D01*
X106059677Y-42957841D01*
X106063327Y-42939488D01*
X106093024Y-42790188D01*
X106160944Y-42626216D01*
X106259547Y-42478646D01*
X106385046Y-42353147D01*
X106532616Y-42254544D01*
X106696588Y-42186624D01*
X106845888Y-42156927D01*
X106870658Y-42152000D01*
X107048142Y-42152000D01*
X107072912Y-42156927D01*
G37*
G36*
X128479621Y-41646013D02*
G01*
X128673802Y-41726446D01*
X128673804Y-41726447D01*
X128848563Y-41843217D01*
X128997183Y-41991837D01*
X129104200Y-42152000D01*
X129113954Y-42166598D01*
X129194387Y-42360779D01*
X129235390Y-42566918D01*
X129235390Y-42777102D01*
X129194387Y-42983241D01*
X129128733Y-43141742D01*
X129113953Y-43177424D01*
X128997183Y-43352183D01*
X128848563Y-43500803D01*
X128673804Y-43617573D01*
X128673803Y-43617574D01*
X128673802Y-43617574D01*
X128479621Y-43698007D01*
X128273482Y-43739010D01*
X128063298Y-43739010D01*
X127857159Y-43698007D01*
X127662978Y-43617574D01*
X127662977Y-43617574D01*
X127662976Y-43617573D01*
X127488217Y-43500803D01*
X127339597Y-43352183D01*
X127222827Y-43177424D01*
X127208047Y-43141742D01*
X127142393Y-42983241D01*
X127101390Y-42777102D01*
X127101390Y-42566918D01*
X127142393Y-42360779D01*
X127222826Y-42166598D01*
X127232580Y-42152000D01*
X127339597Y-41991837D01*
X127488217Y-41843217D01*
X127662976Y-41726447D01*
X127662978Y-41726446D01*
X127857159Y-41646013D01*
X128063298Y-41605010D01*
X128273482Y-41605010D01*
X128479621Y-41646013D01*
G37*
G36*
X142479621Y-41646013D02*
G01*
X142673802Y-41726446D01*
X142673804Y-41726447D01*
X142848563Y-41843217D01*
X142997183Y-41991837D01*
X143104200Y-42152000D01*
X143113954Y-42166598D01*
X143194387Y-42360779D01*
X143235390Y-42566918D01*
X143235390Y-42777102D01*
X143194387Y-42983241D01*
X143128733Y-43141742D01*
X143113953Y-43177424D01*
X142997183Y-43352183D01*
X142848563Y-43500803D01*
X142673804Y-43617573D01*
X142673803Y-43617574D01*
X142673802Y-43617574D01*
X142479621Y-43698007D01*
X142273482Y-43739010D01*
X142063298Y-43739010D01*
X141857159Y-43698007D01*
X141662978Y-43617574D01*
X141662977Y-43617574D01*
X141662976Y-43617573D01*
X141488217Y-43500803D01*
X141339597Y-43352183D01*
X141222827Y-43177424D01*
X141208047Y-43141742D01*
X141142393Y-42983241D01*
X141101390Y-42777102D01*
X141101390Y-42566918D01*
X141142393Y-42360779D01*
X141222826Y-42166598D01*
X141232580Y-42152000D01*
X141339597Y-41991837D01*
X141488217Y-41843217D01*
X141662976Y-41726447D01*
X141662978Y-41726446D01*
X141857159Y-41646013D01*
X142063298Y-41605010D01*
X142273482Y-41605010D01*
X142479621Y-41646013D01*
G37*
G36*
X43161021Y-41620613D02*
G01*
X43344806Y-41696740D01*
X43355204Y-41701047D01*
X43529963Y-41817817D01*
X43678583Y-41966437D01*
X43795353Y-42141196D01*
X43795354Y-42141198D01*
X43875787Y-42335379D01*
X43916790Y-42541518D01*
X43916790Y-42751702D01*
X43875787Y-42957841D01*
X43799612Y-43141742D01*
X43795353Y-43152024D01*
X43678583Y-43326783D01*
X43529963Y-43475403D01*
X43355204Y-43592173D01*
X43355203Y-43592174D01*
X43355202Y-43592174D01*
X43161021Y-43672607D01*
X42954882Y-43713610D01*
X42744698Y-43713610D01*
X42538559Y-43672607D01*
X42344378Y-43592174D01*
X42344377Y-43592174D01*
X42344376Y-43592173D01*
X42169617Y-43475403D01*
X42020997Y-43326783D01*
X41904227Y-43152024D01*
X41899968Y-43141742D01*
X41823793Y-42957841D01*
X41782790Y-42751702D01*
X41782790Y-42541518D01*
X41823793Y-42335379D01*
X41904226Y-42141198D01*
X41904227Y-42141196D01*
X42020997Y-41966437D01*
X42169617Y-41817817D01*
X42344376Y-41701047D01*
X42354774Y-41696740D01*
X42538559Y-41620613D01*
X42744698Y-41579610D01*
X42954882Y-41579610D01*
X43161021Y-41620613D01*
G37*
G36*
X73945821Y-41620613D02*
G01*
X74129606Y-41696740D01*
X74140004Y-41701047D01*
X74314763Y-41817817D01*
X74463383Y-41966437D01*
X74580153Y-42141196D01*
X74580154Y-42141198D01*
X74660587Y-42335379D01*
X74701590Y-42541518D01*
X74701590Y-42751702D01*
X74660587Y-42957841D01*
X74584412Y-43141742D01*
X74580153Y-43152024D01*
X74463383Y-43326783D01*
X74314763Y-43475403D01*
X74140004Y-43592173D01*
X74140003Y-43592174D01*
X74140002Y-43592174D01*
X73945821Y-43672607D01*
X73739682Y-43713610D01*
X73529498Y-43713610D01*
X73323359Y-43672607D01*
X73129178Y-43592174D01*
X73129177Y-43592174D01*
X73129176Y-43592173D01*
X72954417Y-43475403D01*
X72805797Y-43326783D01*
X72689027Y-43152024D01*
X72684768Y-43141742D01*
X72608593Y-42957841D01*
X72567590Y-42751702D01*
X72567590Y-42541518D01*
X72608593Y-42335379D01*
X72689026Y-42141198D01*
X72689027Y-42141196D01*
X72805797Y-41966437D01*
X72954417Y-41817817D01*
X73129176Y-41701047D01*
X73139574Y-41696740D01*
X73323359Y-41620613D01*
X73529498Y-41579610D01*
X73739682Y-41579610D01*
X73945821Y-41620613D01*
G37*
G36*
X87945821Y-41620613D02*
G01*
X88129606Y-41696740D01*
X88140004Y-41701047D01*
X88314763Y-41817817D01*
X88463383Y-41966437D01*
X88580153Y-42141196D01*
X88580154Y-42141198D01*
X88660587Y-42335379D01*
X88701590Y-42541518D01*
X88701590Y-42751702D01*
X88660587Y-42957841D01*
X88584412Y-43141742D01*
X88580153Y-43152024D01*
X88463383Y-43326783D01*
X88314763Y-43475403D01*
X88140004Y-43592173D01*
X88140003Y-43592174D01*
X88140002Y-43592174D01*
X87945821Y-43672607D01*
X87739682Y-43713610D01*
X87529498Y-43713610D01*
X87323359Y-43672607D01*
X87129178Y-43592174D01*
X87129177Y-43592174D01*
X87129176Y-43592173D01*
X86954417Y-43475403D01*
X86805797Y-43326783D01*
X86689027Y-43152024D01*
X86684768Y-43141742D01*
X86608593Y-42957841D01*
X86567590Y-42751702D01*
X86567590Y-42541518D01*
X86608593Y-42335379D01*
X86689026Y-42141198D01*
X86689027Y-42141196D01*
X86805797Y-41966437D01*
X86954417Y-41817817D01*
X87129176Y-41701047D01*
X87139574Y-41696740D01*
X87323359Y-41620613D01*
X87529498Y-41579610D01*
X87739682Y-41579610D01*
X87945821Y-41620613D01*
G37*
G36*
X57161021Y-41620613D02*
G01*
X57344806Y-41696740D01*
X57355204Y-41701047D01*
X57529963Y-41817817D01*
X57678583Y-41966437D01*
X57795353Y-42141196D01*
X57795354Y-42141198D01*
X57875787Y-42335379D01*
X57916790Y-42541518D01*
X57916790Y-42751702D01*
X57875787Y-42957841D01*
X57799612Y-43141742D01*
X57795353Y-43152024D01*
X57678583Y-43326783D01*
X57529963Y-43475403D01*
X57355204Y-43592173D01*
X57355203Y-43592174D01*
X57355202Y-43592174D01*
X57161021Y-43672607D01*
X56954882Y-43713610D01*
X56744698Y-43713610D01*
X56538559Y-43672607D01*
X56344378Y-43592174D01*
X56344377Y-43592174D01*
X56344376Y-43592173D01*
X56169617Y-43475403D01*
X56020997Y-43326783D01*
X55904227Y-43152024D01*
X55899968Y-43141742D01*
X55823793Y-42957841D01*
X55782790Y-42751702D01*
X55782790Y-42541518D01*
X55823793Y-42335379D01*
X55904226Y-42141198D01*
X55904227Y-42141196D01*
X56020997Y-41966437D01*
X56169617Y-41817817D01*
X56344376Y-41701047D01*
X56354774Y-41696740D01*
X56538559Y-41620613D01*
X56744698Y-41579610D01*
X56954882Y-41579610D01*
X57161021Y-41620613D01*
G37*
G36*
X120632379Y-38818293D02*
G01*
X120766025Y-38858834D01*
X120889184Y-38924664D01*
X120997140Y-39013260D01*
X121085736Y-39121216D01*
X121151566Y-39244375D01*
X121192107Y-39378021D01*
X121206400Y-39523140D01*
X121206400Y-41186860D01*
X121192107Y-41331979D01*
X121151566Y-41465625D01*
X121085736Y-41588784D01*
X120997140Y-41696740D01*
X120889184Y-41785336D01*
X120766025Y-41851166D01*
X120632379Y-41891707D01*
X120487260Y-41906000D01*
X118323540Y-41906000D01*
X118178421Y-41891707D01*
X118044775Y-41851166D01*
X117921616Y-41785336D01*
X117813660Y-41696740D01*
X117725064Y-41588784D01*
X117659234Y-41465625D01*
X117618693Y-41331979D01*
X117604400Y-41186860D01*
X117604400Y-39523140D01*
X117618693Y-39378021D01*
X117659234Y-39244375D01*
X117725064Y-39121216D01*
X117813660Y-39013260D01*
X117921616Y-38924664D01*
X118044775Y-38858834D01*
X118178421Y-38818293D01*
X118323540Y-38804000D01*
X120487260Y-38804000D01*
X120632379Y-38818293D01*
G37*
G36*
X152087846Y-35956790D02*
G01*
X152296159Y-36019981D01*
X152488141Y-36122597D01*
X152656415Y-36260695D01*
X152794513Y-36428969D01*
X152897129Y-36620950D01*
X152960320Y-36829263D01*
X152976310Y-36991611D01*
X152976310Y-38801989D01*
X152960320Y-38964337D01*
X152897129Y-39172650D01*
X152794513Y-39364631D01*
X152656415Y-39532905D01*
X152488141Y-39671003D01*
X152296160Y-39773619D01*
X152087847Y-39836810D01*
X151871210Y-39858147D01*
X151654574Y-39836810D01*
X151446261Y-39773619D01*
X151254280Y-39671003D01*
X151086006Y-39532905D01*
X150947908Y-39364631D01*
X150845292Y-39172650D01*
X150782101Y-38964337D01*
X150766110Y-38801989D01*
X150766110Y-36991612D01*
X150782100Y-36829264D01*
X150845291Y-36620951D01*
X150947907Y-36428969D01*
X151086005Y-36260695D01*
X151254279Y-36122597D01*
X151446260Y-36019981D01*
X151654573Y-35956790D01*
X151871210Y-35935453D01*
X152087846Y-35956790D01*
G37*
G36*
X126683236Y-35956790D02*
G01*
X126891549Y-36019981D01*
X127083531Y-36122597D01*
X127251805Y-36260695D01*
X127389903Y-36428969D01*
X127492519Y-36620950D01*
X127555710Y-36829263D01*
X127571700Y-36991611D01*
X127571700Y-38801989D01*
X127555710Y-38964337D01*
X127492519Y-39172650D01*
X127389903Y-39364631D01*
X127251805Y-39532905D01*
X127083531Y-39671003D01*
X126891550Y-39773619D01*
X126683237Y-39836810D01*
X126466600Y-39858147D01*
X126249964Y-39836810D01*
X126041651Y-39773619D01*
X125849670Y-39671003D01*
X125681396Y-39532905D01*
X125543298Y-39364631D01*
X125440682Y-39172650D01*
X125377491Y-38964337D01*
X125361500Y-38801989D01*
X125361500Y-36991612D01*
X125377490Y-36829264D01*
X125440681Y-36620951D01*
X125543297Y-36428969D01*
X125681395Y-36260695D01*
X125849669Y-36122597D01*
X126041650Y-36019981D01*
X126249963Y-35956790D01*
X126466600Y-35935453D01*
X126683236Y-35956790D01*
G37*
G36*
X97554046Y-35931390D02*
G01*
X97762359Y-35994581D01*
X97954341Y-36097197D01*
X98122615Y-36235295D01*
X98260713Y-36403569D01*
X98363329Y-36595550D01*
X98426520Y-36803863D01*
X98442510Y-36966211D01*
X98442510Y-38776589D01*
X98426520Y-38938937D01*
X98363329Y-39147250D01*
X98260713Y-39339231D01*
X98122615Y-39507505D01*
X97954341Y-39645603D01*
X97762360Y-39748219D01*
X97554047Y-39811410D01*
X97337410Y-39832747D01*
X97120774Y-39811410D01*
X96912461Y-39748219D01*
X96720480Y-39645603D01*
X96552206Y-39507505D01*
X96414108Y-39339231D01*
X96311492Y-39147250D01*
X96248301Y-38938937D01*
X96232310Y-38776589D01*
X96232310Y-36966212D01*
X96248300Y-36803864D01*
X96311491Y-36595551D01*
X96414107Y-36403569D01*
X96552205Y-36235295D01*
X96720479Y-36097197D01*
X96912460Y-35994581D01*
X97120773Y-35931390D01*
X97337410Y-35910053D01*
X97554046Y-35931390D01*
G37*
G36*
X41364636Y-35931390D02*
G01*
X41572949Y-35994581D01*
X41764931Y-36097197D01*
X41933205Y-36235295D01*
X42071303Y-36403569D01*
X42173919Y-36595550D01*
X42237110Y-36803863D01*
X42253100Y-36966211D01*
X42253100Y-38776589D01*
X42237110Y-38938937D01*
X42173919Y-39147250D01*
X42071303Y-39339231D01*
X41933205Y-39507505D01*
X41764931Y-39645603D01*
X41572950Y-39748219D01*
X41364637Y-39811410D01*
X41148000Y-39832747D01*
X40931364Y-39811410D01*
X40723051Y-39748219D01*
X40531070Y-39645603D01*
X40362796Y-39507505D01*
X40224698Y-39339231D01*
X40122082Y-39147250D01*
X40058891Y-38938937D01*
X40042900Y-38776589D01*
X40042900Y-36966212D01*
X40058890Y-36803864D01*
X40122081Y-36595551D01*
X40224697Y-36403569D01*
X40362795Y-36235295D01*
X40531069Y-36097197D01*
X40723050Y-35994581D01*
X40931363Y-35931390D01*
X41148000Y-35910053D01*
X41364636Y-35931390D01*
G37*
G36*
X66769246Y-35931390D02*
G01*
X66977559Y-35994581D01*
X67169541Y-36097197D01*
X67337815Y-36235295D01*
X67475913Y-36403569D01*
X67578529Y-36595550D01*
X67641720Y-36803863D01*
X67657710Y-36966211D01*
X67657710Y-38776589D01*
X67641720Y-38938937D01*
X67578529Y-39147250D01*
X67475913Y-39339231D01*
X67337815Y-39507505D01*
X67169541Y-39645603D01*
X66977560Y-39748219D01*
X66769247Y-39811410D01*
X66552610Y-39832747D01*
X66335974Y-39811410D01*
X66127661Y-39748219D01*
X65935680Y-39645603D01*
X65767406Y-39507505D01*
X65629308Y-39339231D01*
X65526692Y-39147250D01*
X65463501Y-38938937D01*
X65447510Y-38776589D01*
X65447510Y-36966212D01*
X65463500Y-36803864D01*
X65526691Y-36595551D01*
X65629307Y-36403569D01*
X65767405Y-36235295D01*
X65935679Y-36097197D01*
X66127660Y-35994581D01*
X66335973Y-35931390D01*
X66552610Y-35910053D01*
X66769246Y-35931390D01*
G37*
G36*
X72149436Y-35931390D02*
G01*
X72357749Y-35994581D01*
X72549731Y-36097197D01*
X72718005Y-36235295D01*
X72856103Y-36403569D01*
X72958719Y-36595550D01*
X73021910Y-36803863D01*
X73037900Y-36966211D01*
X73037900Y-38776589D01*
X73021910Y-38938937D01*
X72958719Y-39147250D01*
X72856103Y-39339231D01*
X72718005Y-39507505D01*
X72549731Y-39645603D01*
X72357750Y-39748219D01*
X72149437Y-39811410D01*
X71932800Y-39832747D01*
X71716164Y-39811410D01*
X71507851Y-39748219D01*
X71315870Y-39645603D01*
X71147596Y-39507505D01*
X71009498Y-39339231D01*
X70906882Y-39147250D01*
X70843691Y-38938937D01*
X70827700Y-38776589D01*
X70827700Y-36966212D01*
X70843690Y-36803864D01*
X70906881Y-36595551D01*
X71009497Y-36403569D01*
X71147595Y-36235295D01*
X71315869Y-36097197D01*
X71507850Y-35994581D01*
X71716163Y-35931390D01*
X71932800Y-35910053D01*
X72149436Y-35931390D01*
G37*
G36*
X146488867Y-36352063D02*
G01*
X146641011Y-36382326D01*
X146753617Y-36428969D01*
X146927641Y-36501052D01*
X146927642Y-36501053D01*
X147185604Y-36673417D01*
X147404983Y-36892796D01*
X147454042Y-36966219D01*
X147577348Y-37150759D01*
X147696074Y-37437390D01*
X147751548Y-37716275D01*
X147756600Y-37741676D01*
X147756600Y-38051924D01*
X147701127Y-38330810D01*
X147696074Y-38356210D01*
X147577348Y-38642841D01*
X147577347Y-38642842D01*
X147404983Y-38900804D01*
X147185604Y-39120183D01*
X147142992Y-39148655D01*
X146927641Y-39292548D01*
X146759737Y-39362096D01*
X146641011Y-39411274D01*
X146555882Y-39428207D01*
X146336725Y-39471800D01*
X146026475Y-39471800D01*
X145807318Y-39428207D01*
X145722189Y-39411274D01*
X145603463Y-39362096D01*
X145435559Y-39292548D01*
X145220208Y-39148655D01*
X145177596Y-39120183D01*
X144958217Y-38900804D01*
X144785853Y-38642842D01*
X144785852Y-38642841D01*
X144667126Y-38356210D01*
X144662074Y-38330810D01*
X144606600Y-38051924D01*
X144606600Y-37741676D01*
X144611653Y-37716275D01*
X144667126Y-37437390D01*
X144785852Y-37150759D01*
X144909158Y-36966219D01*
X144958217Y-36892796D01*
X145177596Y-36673417D01*
X145435558Y-36501053D01*
X145435559Y-36501052D01*
X145609583Y-36428969D01*
X145722189Y-36382326D01*
X145874333Y-36352063D01*
X146026475Y-36321800D01*
X146336725Y-36321800D01*
X146488867Y-36352063D01*
G37*
G36*
X132488867Y-36352063D02*
G01*
X132641011Y-36382326D01*
X132753617Y-36428969D01*
X132927641Y-36501052D01*
X132927642Y-36501053D01*
X133185604Y-36673417D01*
X133404983Y-36892796D01*
X133454042Y-36966219D01*
X133577348Y-37150759D01*
X133696074Y-37437390D01*
X133751548Y-37716275D01*
X133756600Y-37741676D01*
X133756600Y-38051924D01*
X133701127Y-38330810D01*
X133696074Y-38356210D01*
X133577348Y-38642841D01*
X133577347Y-38642842D01*
X133404983Y-38900804D01*
X133185604Y-39120183D01*
X133142992Y-39148655D01*
X132927641Y-39292548D01*
X132759737Y-39362096D01*
X132641011Y-39411274D01*
X132555882Y-39428207D01*
X132336725Y-39471800D01*
X132026475Y-39471800D01*
X131807318Y-39428207D01*
X131722189Y-39411274D01*
X131603463Y-39362096D01*
X131435559Y-39292548D01*
X131220208Y-39148655D01*
X131177596Y-39120183D01*
X130958217Y-38900804D01*
X130785853Y-38642842D01*
X130785852Y-38642841D01*
X130667126Y-38356210D01*
X130662074Y-38330810D01*
X130606600Y-38051924D01*
X130606600Y-37741676D01*
X130611653Y-37716275D01*
X130667126Y-37437390D01*
X130785852Y-37150759D01*
X130909158Y-36966219D01*
X130958217Y-36892796D01*
X131177596Y-36673417D01*
X131435558Y-36501053D01*
X131435559Y-36501052D01*
X131609583Y-36428969D01*
X131722189Y-36382326D01*
X131874333Y-36352063D01*
X132026475Y-36321800D01*
X132336725Y-36321800D01*
X132488867Y-36352063D01*
G37*
G36*
X47170267Y-36326663D02*
G01*
X47322411Y-36356926D01*
X47435017Y-36403569D01*
X47609041Y-36475652D01*
X47647056Y-36501053D01*
X47867004Y-36648017D01*
X48086383Y-36867396D01*
X48103355Y-36892797D01*
X48258748Y-37125359D01*
X48328296Y-37293263D01*
X48377474Y-37411989D01*
X48407737Y-37564133D01*
X48438000Y-37716275D01*
X48438000Y-38026525D01*
X48377474Y-38330810D01*
X48258748Y-38617441D01*
X48201553Y-38703039D01*
X48086383Y-38875404D01*
X47867004Y-39094783D01*
X47750467Y-39172650D01*
X47609041Y-39267148D01*
X47441137Y-39336696D01*
X47322411Y-39385874D01*
X47018125Y-39446400D01*
X46707875Y-39446400D01*
X46403589Y-39385874D01*
X46284863Y-39336696D01*
X46116959Y-39267148D01*
X45975533Y-39172650D01*
X45858996Y-39094783D01*
X45639617Y-38875404D01*
X45524447Y-38703039D01*
X45467252Y-38617441D01*
X45348526Y-38330810D01*
X45288000Y-38026525D01*
X45288000Y-37716275D01*
X45318263Y-37564133D01*
X45348526Y-37411989D01*
X45397704Y-37293263D01*
X45467252Y-37125359D01*
X45622645Y-36892797D01*
X45639617Y-36867396D01*
X45858996Y-36648017D01*
X46078944Y-36501053D01*
X46116959Y-36475652D01*
X46290983Y-36403569D01*
X46403589Y-36356926D01*
X46555733Y-36326663D01*
X46707875Y-36296400D01*
X47018125Y-36296400D01*
X47170267Y-36326663D01*
G37*
G36*
X91955067Y-36326663D02*
G01*
X92107211Y-36356926D01*
X92219817Y-36403569D01*
X92393841Y-36475652D01*
X92431856Y-36501053D01*
X92651804Y-36648017D01*
X92871183Y-36867396D01*
X92888155Y-36892797D01*
X93043548Y-37125359D01*
X93113096Y-37293263D01*
X93162274Y-37411989D01*
X93192537Y-37564133D01*
X93222800Y-37716275D01*
X93222800Y-38026525D01*
X93162274Y-38330810D01*
X93043548Y-38617441D01*
X92986353Y-38703039D01*
X92871183Y-38875404D01*
X92651804Y-39094783D01*
X92535267Y-39172650D01*
X92393841Y-39267148D01*
X92225937Y-39336696D01*
X92107211Y-39385874D01*
X91802925Y-39446400D01*
X91492675Y-39446400D01*
X91188389Y-39385874D01*
X91069663Y-39336696D01*
X90901759Y-39267148D01*
X90760333Y-39172650D01*
X90643796Y-39094783D01*
X90424417Y-38875404D01*
X90309247Y-38703039D01*
X90252052Y-38617441D01*
X90133326Y-38330810D01*
X90072800Y-38026525D01*
X90072800Y-37716275D01*
X90103063Y-37564133D01*
X90133326Y-37411989D01*
X90182504Y-37293263D01*
X90252052Y-37125359D01*
X90407445Y-36892797D01*
X90424417Y-36867396D01*
X90643796Y-36648017D01*
X90863744Y-36501053D01*
X90901759Y-36475652D01*
X91075783Y-36403569D01*
X91188389Y-36356926D01*
X91492675Y-36296400D01*
X91802925Y-36296400D01*
X91955067Y-36326663D01*
G37*
G36*
X77955067Y-36326663D02*
G01*
X78107211Y-36356926D01*
X78219817Y-36403569D01*
X78393841Y-36475652D01*
X78431856Y-36501053D01*
X78651804Y-36648017D01*
X78871183Y-36867396D01*
X78888155Y-36892797D01*
X79043548Y-37125359D01*
X79113096Y-37293263D01*
X79162274Y-37411989D01*
X79192537Y-37564133D01*
X79222800Y-37716275D01*
X79222800Y-38026525D01*
X79162274Y-38330810D01*
X79043548Y-38617441D01*
X78986353Y-38703039D01*
X78871183Y-38875404D01*
X78651804Y-39094783D01*
X78535267Y-39172650D01*
X78393841Y-39267148D01*
X78225937Y-39336696D01*
X78107211Y-39385874D01*
X77802925Y-39446400D01*
X77492675Y-39446400D01*
X77188389Y-39385874D01*
X77069663Y-39336696D01*
X76901759Y-39267148D01*
X76760333Y-39172650D01*
X76643796Y-39094783D01*
X76424417Y-38875404D01*
X76309247Y-38703039D01*
X76252052Y-38617441D01*
X76133326Y-38330810D01*
X76072800Y-38026525D01*
X76072800Y-37716275D01*
X76103063Y-37564133D01*
X76133326Y-37411989D01*
X76182504Y-37293263D01*
X76252052Y-37125359D01*
X76407445Y-36892797D01*
X76424417Y-36867396D01*
X76643796Y-36648017D01*
X76863744Y-36501053D01*
X76901759Y-36475652D01*
X77075783Y-36403569D01*
X77188389Y-36356926D01*
X77340533Y-36326663D01*
X77492675Y-36296400D01*
X77802925Y-36296400D01*
X77955067Y-36326663D01*
G37*
G36*
X61170267Y-36326663D02*
G01*
X61322411Y-36356926D01*
X61435017Y-36403569D01*
X61609041Y-36475652D01*
X61647056Y-36501053D01*
X61867004Y-36648017D01*
X62086383Y-36867396D01*
X62103355Y-36892797D01*
X62258748Y-37125359D01*
X62328296Y-37293263D01*
X62377474Y-37411989D01*
X62407737Y-37564133D01*
X62438000Y-37716275D01*
X62438000Y-38026525D01*
X62377474Y-38330810D01*
X62258748Y-38617441D01*
X62201553Y-38703039D01*
X62086383Y-38875404D01*
X61867004Y-39094783D01*
X61750467Y-39172650D01*
X61609041Y-39267148D01*
X61441137Y-39336696D01*
X61322411Y-39385874D01*
X61018125Y-39446400D01*
X60707875Y-39446400D01*
X60403589Y-39385874D01*
X60284863Y-39336696D01*
X60116959Y-39267148D01*
X59975533Y-39172650D01*
X59858996Y-39094783D01*
X59639617Y-38875404D01*
X59524447Y-38703039D01*
X59467252Y-38617441D01*
X59348526Y-38330810D01*
X59288000Y-38026525D01*
X59288000Y-37716275D01*
X59318263Y-37564133D01*
X59348526Y-37411989D01*
X59397704Y-37293263D01*
X59467252Y-37125359D01*
X59622645Y-36892797D01*
X59639617Y-36867396D01*
X59858996Y-36648017D01*
X60078944Y-36501053D01*
X60116959Y-36475652D01*
X60290983Y-36403569D01*
X60403589Y-36356926D01*
X60555733Y-36326663D01*
X60707875Y-36296400D01*
X61018125Y-36296400D01*
X61170267Y-36326663D01*
G37*
M02*
