M48
; DRILL file {KiCad (5.1.5)-3} date 06/04/20 18:22:53
; FORMAT={-:-/ absolute / inch / decimal}
; #@! TF.CreationDate,2020-06-04T18:22:53+02:00
; #@! TF.GenerationSoftware,Kicad,Pcbnew,(5.1.5)-3
; #@! TF.FileFunction,Plated,1,2,PTH
FMAT,2
INCH
T1C0.0157
T2C0.0315
T3C0.0394
T4C0.0433
T5C0.0470
T6C0.0591
T7C0.0870
T8C0.0906
T9C0.1693
%
G90
G05
T1
X3.125Y-4.725
X3.2Y-5.3
X3.225Y-3.375
X3.2625Y-5.7
X3.275Y-4.15
X3.275Y-4.325
X3.275Y-4.725
X3.5Y-3.975
X3.5Y-4.175
X3.525Y-3.275
X3.625Y-4.05
X3.625Y-5.2
X3.625Y-5.3
X3.675Y-3.275
X3.75Y-5.525
X3.775Y-5.15
X3.8Y-4.175
X3.825Y-3.975
X3.825Y-4.5
X3.825Y-5.45
X3.875Y-4.8
X3.8801Y-4.1722
X3.8949Y-4.4449
X3.927Y-4.125
X4.025Y-4.65
X4.025Y-4.75
X4.125Y-4.1
X4.325Y-3.775
X4.325Y-3.825
X4.325Y-5.2
X4.325Y-5.3
X4.35Y-4.175
X4.3625Y-3.7375
X4.425Y-3.85
X4.425Y-3.9
X4.425Y-3.9
X4.4551Y-5.5051
X4.4625Y-3.8125
X4.475Y-4.175
X4.475Y-5.15
X4.525Y-4.175
X4.525Y-4.5
X4.525Y-5.45
X4.575Y-4.8
X4.6Y-3.675
X4.6Y-3.725
X4.6Y-4.425
X4.65Y-3.725
X4.725Y-4.65
X4.725Y-4.75
X4.8Y-3.55
X4.8Y-3.6
X4.8Y-3.65
X4.802Y-4.175
X4.85Y-4.175
X5.025Y-5.2
X5.025Y-5.3
X5.1Y-3.375
X5.15Y-3.65
X5.15Y-5.525
X5.175Y-5.15
X5.225Y-4.5
X5.225Y-5.45
X5.2375Y-4.15
X5.275Y-4.8
X5.325Y-4.425
X5.375Y-3.875
X5.375Y-4.175
X5.3896Y-3.4999
X5.4Y-4.025
X5.4125Y-3.95
X5.425Y-3.575
X5.425Y-4.65
X5.425Y-4.75
X5.5Y-3.375
X5.525Y-3.675
X5.5625Y-4.175
X5.575Y-3.65
X5.6Y-3.375
X5.625Y-5.225
X5.625Y-5.4
X5.7125Y-2.6
X5.7181Y-4.75
X5.725Y-4.625
X5.725Y-5.375
X5.775Y-4.175
X5.775Y-5.225
X5.8Y-4.575
X5.8256Y-5.4963
X5.925Y-5.45
X5.9375Y-4.5375
X5.9375Y-5.05
X5.9427Y-4.2052
X5.9463Y-4.95
X5.95Y-5.5875
X5.9625Y-4.8125
X5.975Y-4.3
X6.025Y-4.3
X6.075Y-4.3
X6.0875Y-4.45
X6.1Y-5.1
X6.125Y-4.35
X6.1375Y-5.575
X6.1375Y-5.65
X6.15Y-2.825
X6.175Y-4.35
X6.1875Y-4.625
X6.2142Y-4.816
X6.225Y-4.35
X6.2377Y-4.6929
X6.25Y-4.2035
X6.25Y-4.75
X6.25Y-5.05
X6.275Y-3.55
X6.3Y-4.425
X6.325Y-3.15
X6.325Y-3.6
X6.3375Y-4.4375
X6.35Y-4.175
X6.3778Y-4.8222
X6.3875Y-4.4375
X6.3875Y-5.075
X6.3992Y-4.675
X6.4Y-3.075
X6.4Y-3.45
X6.4Y-3.7
X6.4Y-4.075
X6.4125Y-4.7625
X6.425Y-4.175
X6.425Y-4.7125
X6.4327Y-4.8952
X6.4375Y-5.0
X6.4607Y-4.4163
X6.475Y-4.35
X6.4805Y-4.4504
X6.4875Y-5.425
X6.4878Y-4.866
X6.49Y-2.591
X6.5125Y-5.0125
X6.5375Y-4.675
X6.5375Y-4.8625
X6.5718Y-4.7907
X6.652Y-4.466
X6.675Y-3.35
X6.675Y-3.775
X6.675Y-3.85
X6.675Y-3.925
X6.675Y-4.0
X6.675Y-4.6
X6.6875Y-4.85
X6.6894Y-5.0
X6.7125Y-5.5125
X6.7179Y-5.0432
X6.775Y-3.775
X6.775Y-4.0
X6.825Y-4.075
X6.85Y-3.825
X6.85Y-3.95
X6.875Y-3.375
X6.875Y-3.6
X6.9Y-4.2
X6.9Y-4.475
X6.921Y-5.3073
X6.9375Y-4.575
X6.975Y-2.95
X6.975Y-3.6
X7.0Y-3.0
X7.025Y-5.3625
X7.05Y-3.075
X7.05Y-3.45
X7.05Y-3.7
X7.05Y-4.075
X7.1Y-3.55
X7.1Y-4.35
X7.1875Y-5.4375
X7.2375Y-5.675
X7.3125Y-4.875
X7.325Y-3.175
X7.325Y-3.275
X7.325Y-3.35
X7.4Y-4.35
X7.4125Y-5.7
X7.425Y-3.175
X7.425Y-3.35
X7.425Y-3.8
X7.425Y-3.975
X7.45Y-5.1375
X7.4625Y-5.375
X7.5Y-3.225
X7.5Y-3.3
X7.525Y-3.85
X7.525Y-3.925
X7.5375Y-5.4
X7.55Y-4.2
X7.575Y-3.05
X7.575Y-3.625
X7.6125Y-4.95
X7.625Y-3.55
X7.7Y-3.075
X7.7Y-3.45
X7.7Y-3.7
X7.7Y-4.075
X7.7Y-4.875
X7.8Y-3.55
X7.8494Y-3.55
T2
X3.45Y-3.05
X3.55Y-3.05
X3.65Y-3.05
X3.85Y-3.05
X3.95Y-3.05
X4.05Y-3.05
T3
X5.55Y-3.05
X5.55Y-3.15
X5.55Y-3.25
X5.65Y-3.05
X5.65Y-3.15
X5.65Y-3.25
X4.3Y-2.975
X4.3Y-3.075
X7.625Y-5.325
X7.625Y-5.425
X7.625Y-5.525
X7.725Y-5.325
X7.725Y-5.425
X7.725Y-5.525
X4.95Y-3.425
X4.95Y-3.525
X4.95Y-3.625
X5.3Y-3.425
X5.3Y-3.525
X5.3Y-3.625
X5.0Y-2.9
X5.0Y-3.0
X5.1Y-2.9
X5.1Y-3.0
X3.15Y-3.0
X3.15Y-3.1
X3.15Y-3.2
X3.25Y-3.0
X3.25Y-3.1
X3.25Y-3.2
X6.2008Y-5.4134
X6.2992Y-5.4134
X6.3976Y-5.4134
T4
X3.4Y-3.775
X3.5Y-3.775
X3.6Y-3.775
X4.025Y-3.775
X4.125Y-3.775
X4.225Y-3.775
T5
X6.6732Y-2.8543
X7.2244Y-2.8543
X5.4331Y-2.8543
X5.9843Y-2.8543
X3.4252Y-2.8543
X3.9764Y-2.8543
T6
X3.5Y-3.5474
X4.125Y-3.5474
X7.2047Y-4.7047
X7.2047Y-4.8622
X7.2047Y-5.0197
X7.4409Y-4.7047
X7.4409Y-4.8622
X7.4409Y-5.0197
T7
X6.8312Y-2.6663
X7.3824Y-2.6663
X5.5911Y-2.6663
X6.1423Y-2.6663
X3.5832Y-2.6663
X4.1344Y-2.6663
T8
X6.1024Y-5.2835
X6.4961Y-5.2835
T9
X6.9094Y-5.0984
T3
G00X4.465Y-2.9175
M15
G01X4.465Y-2.9963
M16
G05
G00X4.6894Y-2.8388
M15
G01X4.6106Y-2.8388
M16
G05
G00X4.6894Y-3.075
M15
G01X4.6106Y-3.075
M16
G05
T0
M30
