G04 #@! TF.GenerationSoftware,KiCad,Pcbnew,(5.1.5)-3*
G04 #@! TF.CreationDate,2020-08-29T21:14:34+02:00*
G04 #@! TF.ProjectId,SYS_StepAtten,5359535f-5374-4657-9041-7474656e2e6b,v1.1*
G04 #@! TF.SameCoordinates,Original*
G04 #@! TF.FileFunction,Profile,NP*
%FSLAX46Y46*%
G04 Gerber Fmt 4.6, Leading zero omitted, Abs format (unit mm)*
G04 Created by KiCad (PCBNEW (5.1.5)-3) date 2020-08-29 21:14:34*
%MOMM*%
%LPD*%
G04 APERTURE LIST*
%ADD10C,0.100000*%
%ADD11C,0.150000*%
%ADD12C,0.300000*%
%ADD13C,0.400000*%
%ADD14C,0.050000*%
G04 APERTURE END LIST*
D10*
D11*
X177002200Y-166007200D02*
X177002200Y-198007200D01*
X285002200Y-198007200D01*
X285002200Y-166007200D01*
X177002200Y-166007200D01*
D10*
D11*
X10000000Y-10000000D02*
X10000000Y-200007200D01*
X287002200Y-200007200D01*
X287002200Y-10000000D01*
X10000000Y-10000000D01*
D10*
D11*
X12000000Y-12000000D02*
X12000000Y-198007200D01*
X285002200Y-198007200D01*
X285002200Y-12000000D01*
X12000000Y-12000000D01*
D10*
D11*
X60000000Y-12000000D02*
X60000000Y-10000000D01*
D10*
D11*
X110000000Y-12000000D02*
X110000000Y-10000000D01*
D10*
D11*
X160000000Y-12000000D02*
X160000000Y-10000000D01*
D10*
D11*
X210000000Y-12000000D02*
X210000000Y-10000000D01*
D10*
D11*
X260000000Y-12000000D02*
X260000000Y-10000000D01*
D10*
D11*
X36065476Y-11588095D02*
X35322619Y-11588095D01*
X35694047Y-11588095D02*
X35694047Y-10288095D01*
X35570238Y-10473809D01*
X35446428Y-10597619D01*
X35322619Y-10659523D01*
D10*
D11*
X85322619Y-10411904D02*
X85384523Y-10350000D01*
X85508333Y-10288095D01*
X85817857Y-10288095D01*
X85941666Y-10350000D01*
X86003571Y-10411904D01*
X86065476Y-10535714D01*
X86065476Y-10659523D01*
X86003571Y-10845238D01*
X85260714Y-11588095D01*
X86065476Y-11588095D01*
D10*
D11*
X135260714Y-10288095D02*
X136065476Y-10288095D01*
X135632142Y-10783333D01*
X135817857Y-10783333D01*
X135941666Y-10845238D01*
X136003571Y-10907142D01*
X136065476Y-11030952D01*
X136065476Y-11340476D01*
X136003571Y-11464285D01*
X135941666Y-11526190D01*
X135817857Y-11588095D01*
X135446428Y-11588095D01*
X135322619Y-11526190D01*
X135260714Y-11464285D01*
D10*
D11*
X185941666Y-10721428D02*
X185941666Y-11588095D01*
X185632142Y-10226190D02*
X185322619Y-11154761D01*
X186127380Y-11154761D01*
D10*
D11*
X236003571Y-10288095D02*
X235384523Y-10288095D01*
X235322619Y-10907142D01*
X235384523Y-10845238D01*
X235508333Y-10783333D01*
X235817857Y-10783333D01*
X235941666Y-10845238D01*
X236003571Y-10907142D01*
X236065476Y-11030952D01*
X236065476Y-11340476D01*
X236003571Y-11464285D01*
X235941666Y-11526190D01*
X235817857Y-11588095D01*
X235508333Y-11588095D01*
X235384523Y-11526190D01*
X235322619Y-11464285D01*
D10*
D11*
X285941666Y-10288095D02*
X285694047Y-10288095D01*
X285570238Y-10350000D01*
X285508333Y-10411904D01*
X285384523Y-10597619D01*
X285322619Y-10845238D01*
X285322619Y-11340476D01*
X285384523Y-11464285D01*
X285446428Y-11526190D01*
X285570238Y-11588095D01*
X285817857Y-11588095D01*
X285941666Y-11526190D01*
X286003571Y-11464285D01*
X286065476Y-11340476D01*
X286065476Y-11030952D01*
X286003571Y-10907142D01*
X285941666Y-10845238D01*
X285817857Y-10783333D01*
X285570238Y-10783333D01*
X285446428Y-10845238D01*
X285384523Y-10907142D01*
X285322619Y-11030952D01*
D10*
D11*
X60000000Y-198007200D02*
X60000000Y-200007200D01*
D10*
D11*
X110000000Y-198007200D02*
X110000000Y-200007200D01*
D10*
D11*
X160000000Y-198007200D02*
X160000000Y-200007200D01*
D10*
D11*
X210000000Y-198007200D02*
X210000000Y-200007200D01*
D10*
D11*
X260000000Y-198007200D02*
X260000000Y-200007200D01*
D10*
D11*
X36065476Y-199595295D02*
X35322619Y-199595295D01*
X35694047Y-199595295D02*
X35694047Y-198295295D01*
X35570238Y-198481009D01*
X35446428Y-198604819D01*
X35322619Y-198666723D01*
D10*
D11*
X85322619Y-198419104D02*
X85384523Y-198357200D01*
X85508333Y-198295295D01*
X85817857Y-198295295D01*
X85941666Y-198357200D01*
X86003571Y-198419104D01*
X86065476Y-198542914D01*
X86065476Y-198666723D01*
X86003571Y-198852438D01*
X85260714Y-199595295D01*
X86065476Y-199595295D01*
D10*
D11*
X135260714Y-198295295D02*
X136065476Y-198295295D01*
X135632142Y-198790533D01*
X135817857Y-198790533D01*
X135941666Y-198852438D01*
X136003571Y-198914342D01*
X136065476Y-199038152D01*
X136065476Y-199347676D01*
X136003571Y-199471485D01*
X135941666Y-199533390D01*
X135817857Y-199595295D01*
X135446428Y-199595295D01*
X135322619Y-199533390D01*
X135260714Y-199471485D01*
D10*
D11*
X185941666Y-198728628D02*
X185941666Y-199595295D01*
X185632142Y-198233390D02*
X185322619Y-199161961D01*
X186127380Y-199161961D01*
D10*
D11*
X236003571Y-198295295D02*
X235384523Y-198295295D01*
X235322619Y-198914342D01*
X235384523Y-198852438D01*
X235508333Y-198790533D01*
X235817857Y-198790533D01*
X235941666Y-198852438D01*
X236003571Y-198914342D01*
X236065476Y-199038152D01*
X236065476Y-199347676D01*
X236003571Y-199471485D01*
X235941666Y-199533390D01*
X235817857Y-199595295D01*
X235508333Y-199595295D01*
X235384523Y-199533390D01*
X235322619Y-199471485D01*
D10*
D11*
X285941666Y-198295295D02*
X285694047Y-198295295D01*
X285570238Y-198357200D01*
X285508333Y-198419104D01*
X285384523Y-198604819D01*
X285322619Y-198852438D01*
X285322619Y-199347676D01*
X285384523Y-199471485D01*
X285446428Y-199533390D01*
X285570238Y-199595295D01*
X285817857Y-199595295D01*
X285941666Y-199533390D01*
X286003571Y-199471485D01*
X286065476Y-199347676D01*
X286065476Y-199038152D01*
X286003571Y-198914342D01*
X285941666Y-198852438D01*
X285817857Y-198790533D01*
X285570238Y-198790533D01*
X285446428Y-198852438D01*
X285384523Y-198914342D01*
X285322619Y-199038152D01*
D10*
D11*
X10000000Y-60000000D02*
X12000000Y-60000000D01*
D10*
D11*
X10000000Y-110000000D02*
X12000000Y-110000000D01*
D10*
D11*
X10000000Y-160000000D02*
X12000000Y-160000000D01*
D10*
D11*
X10690476Y-35216666D02*
X11309523Y-35216666D01*
X10566666Y-35588095D02*
X11000000Y-34288095D01*
X11433333Y-35588095D01*
D10*
D11*
X11092857Y-84907142D02*
X11278571Y-84969047D01*
X11340476Y-85030952D01*
X11402380Y-85154761D01*
X11402380Y-85340476D01*
X11340476Y-85464285D01*
X11278571Y-85526190D01*
X11154761Y-85588095D01*
X10659523Y-85588095D01*
X10659523Y-84288095D01*
X11092857Y-84288095D01*
X11216666Y-84350000D01*
X11278571Y-84411904D01*
X11340476Y-84535714D01*
X11340476Y-84659523D01*
X11278571Y-84783333D01*
X11216666Y-84845238D01*
X11092857Y-84907142D01*
X10659523Y-84907142D01*
D10*
D11*
X11402380Y-135464285D02*
X11340476Y-135526190D01*
X11154761Y-135588095D01*
X11030952Y-135588095D01*
X10845238Y-135526190D01*
X10721428Y-135402380D01*
X10659523Y-135278571D01*
X10597619Y-135030952D01*
X10597619Y-134845238D01*
X10659523Y-134597619D01*
X10721428Y-134473809D01*
X10845238Y-134350000D01*
X11030952Y-134288095D01*
X11154761Y-134288095D01*
X11340476Y-134350000D01*
X11402380Y-134411904D01*
D10*
D11*
X10659523Y-185588095D02*
X10659523Y-184288095D01*
X10969047Y-184288095D01*
X11154761Y-184350000D01*
X11278571Y-184473809D01*
X11340476Y-184597619D01*
X11402380Y-184845238D01*
X11402380Y-185030952D01*
X11340476Y-185278571D01*
X11278571Y-185402380D01*
X11154761Y-185526190D01*
X10969047Y-185588095D01*
X10659523Y-185588095D01*
D10*
D11*
X287002200Y-60000000D02*
X285002200Y-60000000D01*
D10*
D11*
X287002200Y-110000000D02*
X285002200Y-110000000D01*
D10*
D11*
X287002200Y-160000000D02*
X285002200Y-160000000D01*
D10*
D11*
X285692676Y-35216666D02*
X286311723Y-35216666D01*
X285568866Y-35588095D02*
X286002200Y-34288095D01*
X286435533Y-35588095D01*
D10*
D11*
X286095057Y-84907142D02*
X286280771Y-84969047D01*
X286342676Y-85030952D01*
X286404580Y-85154761D01*
X286404580Y-85340476D01*
X286342676Y-85464285D01*
X286280771Y-85526190D01*
X286156961Y-85588095D01*
X285661723Y-85588095D01*
X285661723Y-84288095D01*
X286095057Y-84288095D01*
X286218866Y-84350000D01*
X286280771Y-84411904D01*
X286342676Y-84535714D01*
X286342676Y-84659523D01*
X286280771Y-84783333D01*
X286218866Y-84845238D01*
X286095057Y-84907142D01*
X285661723Y-84907142D01*
D10*
D11*
X286404580Y-135464285D02*
X286342676Y-135526190D01*
X286156961Y-135588095D01*
X286033152Y-135588095D01*
X285847438Y-135526190D01*
X285723628Y-135402380D01*
X285661723Y-135278571D01*
X285599819Y-135030952D01*
X285599819Y-134845238D01*
X285661723Y-134597619D01*
X285723628Y-134473809D01*
X285847438Y-134350000D01*
X286033152Y-134288095D01*
X286156961Y-134288095D01*
X286342676Y-134350000D01*
X286404580Y-134411904D01*
D10*
D11*
X285661723Y-185588095D02*
X285661723Y-184288095D01*
X285971247Y-184288095D01*
X286156961Y-184350000D01*
X286280771Y-184473809D01*
X286342676Y-184597619D01*
X286404580Y-184845238D01*
X286404580Y-185030952D01*
X286342676Y-185278571D01*
X286280771Y-185402380D01*
X286156961Y-185526190D01*
X285971247Y-185588095D01*
X285661723Y-185588095D01*
D10*
D11*
X200434342Y-193785771D02*
X200434342Y-192285771D01*
X200791485Y-192285771D01*
X201005771Y-192357200D01*
X201148628Y-192500057D01*
X201220057Y-192642914D01*
X201291485Y-192928628D01*
X201291485Y-193142914D01*
X201220057Y-193428628D01*
X201148628Y-193571485D01*
X201005771Y-193714342D01*
X200791485Y-193785771D01*
X200434342Y-193785771D01*
X202577200Y-193785771D02*
X202577200Y-193000057D01*
X202505771Y-192857200D01*
X202362914Y-192785771D01*
X202077200Y-192785771D01*
X201934342Y-192857200D01*
X202577200Y-193714342D02*
X202434342Y-193785771D01*
X202077200Y-193785771D01*
X201934342Y-193714342D01*
X201862914Y-193571485D01*
X201862914Y-193428628D01*
X201934342Y-193285771D01*
X202077200Y-193214342D01*
X202434342Y-193214342D01*
X202577200Y-193142914D01*
X203077200Y-192785771D02*
X203648628Y-192785771D01*
X203291485Y-192285771D02*
X203291485Y-193571485D01*
X203362914Y-193714342D01*
X203505771Y-193785771D01*
X203648628Y-193785771D01*
X204720057Y-193714342D02*
X204577200Y-193785771D01*
X204291485Y-193785771D01*
X204148628Y-193714342D01*
X204077200Y-193571485D01*
X204077200Y-193000057D01*
X204148628Y-192857200D01*
X204291485Y-192785771D01*
X204577200Y-192785771D01*
X204720057Y-192857200D01*
X204791485Y-193000057D01*
X204791485Y-193142914D01*
X204077200Y-193285771D01*
X205434342Y-193642914D02*
X205505771Y-193714342D01*
X205434342Y-193785771D01*
X205362914Y-193714342D01*
X205434342Y-193642914D01*
X205434342Y-193785771D01*
X205434342Y-192857200D02*
X205505771Y-192928628D01*
X205434342Y-193000057D01*
X205362914Y-192928628D01*
X205434342Y-192857200D01*
X205434342Y-193000057D01*
X207220057Y-192428628D02*
X207291485Y-192357200D01*
X207434342Y-192285771D01*
X207791485Y-192285771D01*
X207934342Y-192357200D01*
X208005771Y-192428628D01*
X208077200Y-192571485D01*
X208077200Y-192714342D01*
X208005771Y-192928628D01*
X207148628Y-193785771D01*
X208077200Y-193785771D01*
X209005771Y-192285771D02*
X209148628Y-192285771D01*
X209291485Y-192357200D01*
X209362914Y-192428628D01*
X209434342Y-192571485D01*
X209505771Y-192857200D01*
X209505771Y-193214342D01*
X209434342Y-193500057D01*
X209362914Y-193642914D01*
X209291485Y-193714342D01*
X209148628Y-193785771D01*
X209005771Y-193785771D01*
X208862914Y-193714342D01*
X208791485Y-193642914D01*
X208720057Y-193500057D01*
X208648628Y-193214342D01*
X208648628Y-192857200D01*
X208720057Y-192571485D01*
X208791485Y-192428628D01*
X208862914Y-192357200D01*
X209005771Y-192285771D01*
X210077200Y-192428628D02*
X210148628Y-192357200D01*
X210291485Y-192285771D01*
X210648628Y-192285771D01*
X210791485Y-192357200D01*
X210862914Y-192428628D01*
X210934342Y-192571485D01*
X210934342Y-192714342D01*
X210862914Y-192928628D01*
X210005771Y-193785771D01*
X210934342Y-193785771D01*
X211862914Y-192285771D02*
X212005771Y-192285771D01*
X212148628Y-192357200D01*
X212220057Y-192428628D01*
X212291485Y-192571485D01*
X212362914Y-192857200D01*
X212362914Y-193214342D01*
X212291485Y-193500057D01*
X212220057Y-193642914D01*
X212148628Y-193714342D01*
X212005771Y-193785771D01*
X211862914Y-193785771D01*
X211720057Y-193714342D01*
X211648628Y-193642914D01*
X211577200Y-193500057D01*
X211505771Y-193214342D01*
X211505771Y-192857200D01*
X211577200Y-192571485D01*
X211648628Y-192428628D01*
X211720057Y-192357200D01*
X211862914Y-192285771D01*
X213005771Y-193214342D02*
X214148628Y-193214342D01*
X215148628Y-192285771D02*
X215291485Y-192285771D01*
X215434342Y-192357200D01*
X215505771Y-192428628D01*
X215577200Y-192571485D01*
X215648628Y-192857200D01*
X215648628Y-193214342D01*
X215577200Y-193500057D01*
X215505771Y-193642914D01*
X215434342Y-193714342D01*
X215291485Y-193785771D01*
X215148628Y-193785771D01*
X215005771Y-193714342D01*
X214934342Y-193642914D01*
X214862914Y-193500057D01*
X214791485Y-193214342D01*
X214791485Y-192857200D01*
X214862914Y-192571485D01*
X214934342Y-192428628D01*
X215005771Y-192357200D01*
X215148628Y-192285771D01*
X216148628Y-192285771D02*
X217148628Y-192285771D01*
X216505771Y-193785771D01*
X217720057Y-193214342D02*
X218862914Y-193214342D01*
X220362914Y-193785771D02*
X219505771Y-193785771D01*
X219934342Y-193785771D02*
X219934342Y-192285771D01*
X219791485Y-192500057D01*
X219648628Y-192642914D01*
X219505771Y-192714342D01*
X220934342Y-192428628D02*
X221005771Y-192357200D01*
X221148628Y-192285771D01*
X221505771Y-192285771D01*
X221648628Y-192357200D01*
X221720057Y-192428628D01*
X221791485Y-192571485D01*
X221791485Y-192714342D01*
X221720057Y-192928628D01*
X220862914Y-193785771D01*
X221791485Y-193785771D01*
D10*
D11*
X177002200Y-194507200D02*
X285002200Y-194507200D01*
D10*
D11*
X178434342Y-196585771D02*
X178434342Y-195085771D01*
X179291485Y-196585771D02*
X178648628Y-195728628D01*
X179291485Y-195085771D02*
X178434342Y-195942914D01*
X179934342Y-196585771D02*
X179934342Y-195585771D01*
X179934342Y-195085771D02*
X179862914Y-195157200D01*
X179934342Y-195228628D01*
X180005771Y-195157200D01*
X179934342Y-195085771D01*
X179934342Y-195228628D01*
X181505771Y-196442914D02*
X181434342Y-196514342D01*
X181220057Y-196585771D01*
X181077200Y-196585771D01*
X180862914Y-196514342D01*
X180720057Y-196371485D01*
X180648628Y-196228628D01*
X180577200Y-195942914D01*
X180577200Y-195728628D01*
X180648628Y-195442914D01*
X180720057Y-195300057D01*
X180862914Y-195157200D01*
X181077200Y-195085771D01*
X181220057Y-195085771D01*
X181434342Y-195157200D01*
X181505771Y-195228628D01*
X182791485Y-196585771D02*
X182791485Y-195800057D01*
X182720057Y-195657200D01*
X182577200Y-195585771D01*
X182291485Y-195585771D01*
X182148628Y-195657200D01*
X182791485Y-196514342D02*
X182648628Y-196585771D01*
X182291485Y-196585771D01*
X182148628Y-196514342D01*
X182077200Y-196371485D01*
X182077200Y-196228628D01*
X182148628Y-196085771D01*
X182291485Y-196014342D01*
X182648628Y-196014342D01*
X182791485Y-195942914D01*
X184148628Y-196585771D02*
X184148628Y-195085771D01*
X184148628Y-196514342D02*
X184005771Y-196585771D01*
X183720057Y-196585771D01*
X183577200Y-196514342D01*
X183505771Y-196442914D01*
X183434342Y-196300057D01*
X183434342Y-195871485D01*
X183505771Y-195728628D01*
X183577200Y-195657200D01*
X183720057Y-195585771D01*
X184005771Y-195585771D01*
X184148628Y-195657200D01*
X186005771Y-195800057D02*
X186505771Y-195800057D01*
X186720057Y-196585771D02*
X186005771Y-196585771D01*
X186005771Y-195085771D01*
X186720057Y-195085771D01*
X187362914Y-196442914D02*
X187434342Y-196514342D01*
X187362914Y-196585771D01*
X187291485Y-196514342D01*
X187362914Y-196442914D01*
X187362914Y-196585771D01*
X188077200Y-196585771D02*
X188077200Y-195085771D01*
X188434342Y-195085771D01*
X188648628Y-195157200D01*
X188791485Y-195300057D01*
X188862914Y-195442914D01*
X188934342Y-195728628D01*
X188934342Y-195942914D01*
X188862914Y-196228628D01*
X188791485Y-196371485D01*
X188648628Y-196514342D01*
X188434342Y-196585771D01*
X188077200Y-196585771D01*
X189577200Y-196442914D02*
X189648628Y-196514342D01*
X189577200Y-196585771D01*
X189505771Y-196514342D01*
X189577200Y-196442914D01*
X189577200Y-196585771D01*
X190220057Y-196157200D02*
X190934342Y-196157200D01*
X190077200Y-196585771D02*
X190577200Y-195085771D01*
X191077200Y-196585771D01*
X191577200Y-196442914D02*
X191648628Y-196514342D01*
X191577200Y-196585771D01*
X191505771Y-196514342D01*
X191577200Y-196442914D01*
X191577200Y-196585771D01*
X194577200Y-196585771D02*
X194577200Y-195085771D01*
X194720057Y-196014342D02*
X195148628Y-196585771D01*
X195148628Y-195585771D02*
X194577200Y-196157200D01*
X195791485Y-196585771D02*
X195791485Y-195585771D01*
X195791485Y-195085771D02*
X195720057Y-195157200D01*
X195791485Y-195228628D01*
X195862914Y-195157200D01*
X195791485Y-195085771D01*
X195791485Y-195228628D01*
X197148628Y-196514342D02*
X197005771Y-196585771D01*
X196720057Y-196585771D01*
X196577200Y-196514342D01*
X196505771Y-196442914D01*
X196434342Y-196300057D01*
X196434342Y-195871485D01*
X196505771Y-195728628D01*
X196577200Y-195657200D01*
X196720057Y-195585771D01*
X197005771Y-195585771D01*
X197148628Y-195657200D01*
X198434342Y-196585771D02*
X198434342Y-195800057D01*
X198362914Y-195657200D01*
X198220057Y-195585771D01*
X197934342Y-195585771D01*
X197791485Y-195657200D01*
X198434342Y-196514342D02*
X198291485Y-196585771D01*
X197934342Y-196585771D01*
X197791485Y-196514342D01*
X197720057Y-196371485D01*
X197720057Y-196228628D01*
X197791485Y-196085771D01*
X197934342Y-196014342D01*
X198291485Y-196014342D01*
X198434342Y-195942914D01*
X199791485Y-196585771D02*
X199791485Y-195085771D01*
X199791485Y-196514342D02*
X199648628Y-196585771D01*
X199362914Y-196585771D01*
X199220057Y-196514342D01*
X199148628Y-196442914D01*
X199077200Y-196300057D01*
X199077200Y-195871485D01*
X199148628Y-195728628D01*
X199220057Y-195657200D01*
X199362914Y-195585771D01*
X199648628Y-195585771D01*
X199791485Y-195657200D01*
X202077200Y-197157200D02*
X202005771Y-197085771D01*
X201862914Y-196871485D01*
X201791485Y-196728628D01*
X201720057Y-196514342D01*
X201648628Y-196157200D01*
X201648628Y-195871485D01*
X201720057Y-195514342D01*
X201791485Y-195300057D01*
X201862914Y-195157200D01*
X202005771Y-194942914D01*
X202077200Y-194871485D01*
X203362914Y-195085771D02*
X202648628Y-195085771D01*
X202577200Y-195800057D01*
X202648628Y-195728628D01*
X202791485Y-195657200D01*
X203148628Y-195657200D01*
X203291485Y-195728628D01*
X203362914Y-195800057D01*
X203434342Y-195942914D01*
X203434342Y-196300057D01*
X203362914Y-196442914D01*
X203291485Y-196514342D01*
X203148628Y-196585771D01*
X202791485Y-196585771D01*
X202648628Y-196514342D01*
X202577200Y-196442914D01*
X204077200Y-196442914D02*
X204148628Y-196514342D01*
X204077200Y-196585771D01*
X204005771Y-196514342D01*
X204077200Y-196442914D01*
X204077200Y-196585771D01*
X205577200Y-196585771D02*
X204720057Y-196585771D01*
X205148628Y-196585771D02*
X205148628Y-195085771D01*
X205005771Y-195300057D01*
X204862914Y-195442914D01*
X204720057Y-195514342D01*
X206220057Y-196442914D02*
X206291485Y-196514342D01*
X206220057Y-196585771D01*
X206148628Y-196514342D01*
X206220057Y-196442914D01*
X206220057Y-196585771D01*
X207648628Y-195085771D02*
X206934342Y-195085771D01*
X206862914Y-195800057D01*
X206934342Y-195728628D01*
X207077200Y-195657200D01*
X207434342Y-195657200D01*
X207577200Y-195728628D01*
X207648628Y-195800057D01*
X207720057Y-195942914D01*
X207720057Y-196300057D01*
X207648628Y-196442914D01*
X207577200Y-196514342D01*
X207434342Y-196585771D01*
X207077200Y-196585771D01*
X206934342Y-196514342D01*
X206862914Y-196442914D01*
X208220057Y-197157200D02*
X208291485Y-197085771D01*
X208434342Y-196871485D01*
X208505771Y-196728628D01*
X208577200Y-196514342D01*
X208648628Y-196157200D01*
X208648628Y-195871485D01*
X208577200Y-195514342D01*
X208505771Y-195300057D01*
X208434342Y-195157200D01*
X208291485Y-194942914D01*
X208220057Y-194871485D01*
X209362914Y-196014342D02*
X210505771Y-196014342D01*
X211077200Y-195085771D02*
X212005771Y-195085771D01*
X211505771Y-195657200D01*
X211720057Y-195657200D01*
X211862914Y-195728628D01*
X211934342Y-195800057D01*
X212005771Y-195942914D01*
X212005771Y-196300057D01*
X211934342Y-196442914D01*
X211862914Y-196514342D01*
X211720057Y-196585771D01*
X211291485Y-196585771D01*
X211148628Y-196514342D01*
X211077200Y-196442914D01*
D10*
D11*
X177002200Y-191507200D02*
X285002200Y-191507200D01*
D10*
D12*
X264411485Y-193785771D02*
X263911485Y-193071485D01*
X263554342Y-193785771D02*
X263554342Y-192285771D01*
X264125771Y-192285771D01*
X264268628Y-192357200D01*
X264340057Y-192428628D01*
X264411485Y-192571485D01*
X264411485Y-192785771D01*
X264340057Y-192928628D01*
X264268628Y-193000057D01*
X264125771Y-193071485D01*
X263554342Y-193071485D01*
X265625771Y-193714342D02*
X265482914Y-193785771D01*
X265197200Y-193785771D01*
X265054342Y-193714342D01*
X264982914Y-193571485D01*
X264982914Y-193000057D01*
X265054342Y-192857200D01*
X265197200Y-192785771D01*
X265482914Y-192785771D01*
X265625771Y-192857200D01*
X265697200Y-193000057D01*
X265697200Y-193142914D01*
X264982914Y-193285771D01*
X266197200Y-192785771D02*
X266554342Y-193785771D01*
X266911485Y-192785771D01*
X267482914Y-193642914D02*
X267554342Y-193714342D01*
X267482914Y-193785771D01*
X267411485Y-193714342D01*
X267482914Y-193642914D01*
X267482914Y-193785771D01*
X267482914Y-192857200D02*
X267554342Y-192928628D01*
X267482914Y-193000057D01*
X267411485Y-192928628D01*
X267482914Y-192857200D01*
X267482914Y-193000057D01*
X269197200Y-192785771D02*
X269554342Y-193785771D01*
X269911485Y-192785771D01*
X271268628Y-193785771D02*
X270411485Y-193785771D01*
X270840057Y-193785771D02*
X270840057Y-192285771D01*
X270697200Y-192500057D01*
X270554342Y-192642914D01*
X270411485Y-192714342D01*
X271911485Y-193642914D02*
X271982914Y-193714342D01*
X271911485Y-193785771D01*
X271840057Y-193714342D01*
X271911485Y-193642914D01*
X271911485Y-193785771D01*
X273411485Y-193785771D02*
X272554342Y-193785771D01*
X272982914Y-193785771D02*
X272982914Y-192285771D01*
X272840057Y-192500057D01*
X272697200Y-192642914D01*
X272554342Y-192714342D01*
D10*
D11*
X178362914Y-193714342D02*
X178577200Y-193785771D01*
X178934342Y-193785771D01*
X179077200Y-193714342D01*
X179148628Y-193642914D01*
X179220057Y-193500057D01*
X179220057Y-193357200D01*
X179148628Y-193214342D01*
X179077200Y-193142914D01*
X178934342Y-193071485D01*
X178648628Y-193000057D01*
X178505771Y-192928628D01*
X178434342Y-192857200D01*
X178362914Y-192714342D01*
X178362914Y-192571485D01*
X178434342Y-192428628D01*
X178505771Y-192357200D01*
X178648628Y-192285771D01*
X179005771Y-192285771D01*
X179220057Y-192357200D01*
X179862914Y-193785771D02*
X179862914Y-192785771D01*
X179862914Y-192285771D02*
X179791485Y-192357200D01*
X179862914Y-192428628D01*
X179934342Y-192357200D01*
X179862914Y-192285771D01*
X179862914Y-192428628D01*
X180434342Y-192785771D02*
X181220057Y-192785771D01*
X180434342Y-193785771D01*
X181220057Y-193785771D01*
X182362914Y-193714342D02*
X182220057Y-193785771D01*
X181934342Y-193785771D01*
X181791485Y-193714342D01*
X181720057Y-193571485D01*
X181720057Y-193000057D01*
X181791485Y-192857200D01*
X181934342Y-192785771D01*
X182220057Y-192785771D01*
X182362914Y-192857200D01*
X182434342Y-193000057D01*
X182434342Y-193142914D01*
X181720057Y-193285771D01*
X183077200Y-193642914D02*
X183148628Y-193714342D01*
X183077200Y-193785771D01*
X183005771Y-193714342D01*
X183077200Y-193642914D01*
X183077200Y-193785771D01*
X183077200Y-192857200D02*
X183148628Y-192928628D01*
X183077200Y-193000057D01*
X183005771Y-192928628D01*
X183077200Y-192857200D01*
X183077200Y-193000057D01*
X184862914Y-193357200D02*
X185577200Y-193357200D01*
X184720057Y-193785771D02*
X185220057Y-192285771D01*
X185720057Y-193785771D01*
X186862914Y-192785771D02*
X186862914Y-193785771D01*
X186505771Y-192214342D02*
X186148628Y-193285771D01*
X187077200Y-193285771D01*
D10*
D11*
X263434342Y-196585771D02*
X263434342Y-195085771D01*
X264791485Y-196585771D02*
X264791485Y-195085771D01*
X264791485Y-196514342D02*
X264648628Y-196585771D01*
X264362914Y-196585771D01*
X264220057Y-196514342D01*
X264148628Y-196442914D01*
X264077200Y-196300057D01*
X264077200Y-195871485D01*
X264148628Y-195728628D01*
X264220057Y-195657200D01*
X264362914Y-195585771D01*
X264648628Y-195585771D01*
X264791485Y-195657200D01*
X265505771Y-196442914D02*
X265577200Y-196514342D01*
X265505771Y-196585771D01*
X265434342Y-196514342D01*
X265505771Y-196442914D01*
X265505771Y-196585771D01*
X265505771Y-195657200D02*
X265577200Y-195728628D01*
X265505771Y-195800057D01*
X265434342Y-195728628D01*
X265505771Y-195657200D01*
X265505771Y-195800057D01*
X268148628Y-196585771D02*
X267291485Y-196585771D01*
X267720057Y-196585771D02*
X267720057Y-195085771D01*
X267577200Y-195300057D01*
X267434342Y-195442914D01*
X267291485Y-195514342D01*
X269862914Y-195014342D02*
X268577200Y-196942914D01*
X271148628Y-196585771D02*
X270291485Y-196585771D01*
X270720057Y-196585771D02*
X270720057Y-195085771D01*
X270577200Y-195300057D01*
X270434342Y-195442914D01*
X270291485Y-195514342D01*
D10*
D11*
X177002200Y-187507200D02*
X285002200Y-187507200D01*
D10*
D13*
X178714580Y-188211961D02*
X179857438Y-188211961D01*
X179036009Y-190211961D02*
X179286009Y-188211961D01*
X180274104Y-190211961D02*
X180440771Y-188878628D01*
X180524104Y-188211961D02*
X180416961Y-188307200D01*
X180500295Y-188402438D01*
X180607438Y-188307200D01*
X180524104Y-188211961D01*
X180500295Y-188402438D01*
X181107438Y-188878628D02*
X181869342Y-188878628D01*
X181476485Y-188211961D02*
X181262200Y-189926247D01*
X181333628Y-190116723D01*
X181512200Y-190211961D01*
X181702676Y-190211961D01*
X182655057Y-190211961D02*
X182476485Y-190116723D01*
X182405057Y-189926247D01*
X182619342Y-188211961D01*
X184190771Y-190116723D02*
X183988390Y-190211961D01*
X183607438Y-190211961D01*
X183428866Y-190116723D01*
X183357438Y-189926247D01*
X183452676Y-189164342D01*
X183571723Y-188973866D01*
X183774104Y-188878628D01*
X184155057Y-188878628D01*
X184333628Y-188973866D01*
X184405057Y-189164342D01*
X184381247Y-189354819D01*
X183405057Y-189545295D01*
X185155057Y-190021485D02*
X185238390Y-190116723D01*
X185131247Y-190211961D01*
X185047914Y-190116723D01*
X185155057Y-190021485D01*
X185131247Y-190211961D01*
X185286009Y-188973866D02*
X185369342Y-189069104D01*
X185262200Y-189164342D01*
X185178866Y-189069104D01*
X185286009Y-188973866D01*
X185262200Y-189164342D01*
X187524104Y-190116723D02*
X187797914Y-190211961D01*
X188274104Y-190211961D01*
X188476485Y-190116723D01*
X188583628Y-190021485D01*
X188702676Y-189831009D01*
X188726485Y-189640533D01*
X188655057Y-189450057D01*
X188571723Y-189354819D01*
X188393152Y-189259580D01*
X188024104Y-189164342D01*
X187845533Y-189069104D01*
X187762200Y-188973866D01*
X187690771Y-188783390D01*
X187714580Y-188592914D01*
X187833628Y-188402438D01*
X187940771Y-188307200D01*
X188143152Y-188211961D01*
X188619342Y-188211961D01*
X188893152Y-188307200D01*
X190012200Y-189259580D02*
X189893152Y-190211961D01*
X189476485Y-188211961D02*
X190012200Y-189259580D01*
X190809819Y-188211961D01*
X191143152Y-190116723D02*
X191416961Y-190211961D01*
X191893152Y-190211961D01*
X192095533Y-190116723D01*
X192202676Y-190021485D01*
X192321723Y-189831009D01*
X192345533Y-189640533D01*
X192274104Y-189450057D01*
X192190771Y-189354819D01*
X192012200Y-189259580D01*
X191643152Y-189164342D01*
X191464580Y-189069104D01*
X191381247Y-188973866D01*
X191309819Y-188783390D01*
X191333628Y-188592914D01*
X191452676Y-188402438D01*
X191559819Y-188307200D01*
X191762200Y-188211961D01*
X192238390Y-188211961D01*
X192512200Y-188307200D01*
X194750295Y-189450057D02*
X196274104Y-189450057D01*
X198571723Y-190116723D02*
X198845533Y-190211961D01*
X199321723Y-190211961D01*
X199524104Y-190116723D01*
X199631247Y-190021485D01*
X199750295Y-189831009D01*
X199774104Y-189640533D01*
X199702676Y-189450057D01*
X199619342Y-189354819D01*
X199440771Y-189259580D01*
X199071723Y-189164342D01*
X198893152Y-189069104D01*
X198809819Y-188973866D01*
X198738390Y-188783390D01*
X198762200Y-188592914D01*
X198881247Y-188402438D01*
X198988390Y-188307200D01*
X199190771Y-188211961D01*
X199666961Y-188211961D01*
X199940771Y-188307200D01*
X200440771Y-188878628D02*
X201202676Y-188878628D01*
X200809819Y-188211961D02*
X200595533Y-189926247D01*
X200666961Y-190116723D01*
X200845533Y-190211961D01*
X201036009Y-190211961D01*
X202476485Y-190116723D02*
X202274104Y-190211961D01*
X201893152Y-190211961D01*
X201714580Y-190116723D01*
X201643152Y-189926247D01*
X201738390Y-189164342D01*
X201857438Y-188973866D01*
X202059819Y-188878628D01*
X202440771Y-188878628D01*
X202619342Y-188973866D01*
X202690771Y-189164342D01*
X202666961Y-189354819D01*
X201690771Y-189545295D01*
X203583628Y-188878628D02*
X203333628Y-190878628D01*
X203571723Y-188973866D02*
X203774104Y-188878628D01*
X204155057Y-188878628D01*
X204333628Y-188973866D01*
X204416961Y-189069104D01*
X204488390Y-189259580D01*
X204416961Y-189831009D01*
X204297914Y-190021485D01*
X204190771Y-190116723D01*
X203988390Y-190211961D01*
X203607438Y-190211961D01*
X203428866Y-190116723D01*
X206726485Y-189640533D02*
X207678866Y-189640533D01*
X206464580Y-190211961D02*
X207381247Y-188211961D01*
X207797914Y-190211961D01*
X208345533Y-188878628D02*
X209107438Y-188878628D01*
X208714580Y-188211961D02*
X208500295Y-189926247D01*
X208571723Y-190116723D01*
X208750295Y-190211961D01*
X208940771Y-190211961D01*
X209488390Y-188878628D02*
X210250295Y-188878628D01*
X209857438Y-188211961D02*
X209643152Y-189926247D01*
X209714580Y-190116723D01*
X209893152Y-190211961D01*
X210083628Y-190211961D01*
X211524104Y-190116723D02*
X211321723Y-190211961D01*
X210940771Y-190211961D01*
X210762200Y-190116723D01*
X210690771Y-189926247D01*
X210786009Y-189164342D01*
X210905057Y-188973866D01*
X211107438Y-188878628D01*
X211488390Y-188878628D01*
X211666961Y-188973866D01*
X211738390Y-189164342D01*
X211714580Y-189354819D01*
X210738390Y-189545295D01*
X212631247Y-188878628D02*
X212464580Y-190211961D01*
X212607438Y-189069104D02*
X212714580Y-188973866D01*
X212916961Y-188878628D01*
X213202676Y-188878628D01*
X213381247Y-188973866D01*
X213452676Y-189164342D01*
X213321723Y-190211961D01*
X215297914Y-188878628D02*
X215131247Y-190211961D01*
X214440771Y-188878628D02*
X214309819Y-189926247D01*
X214381247Y-190116723D01*
X214559819Y-190211961D01*
X214845533Y-190211961D01*
X215047914Y-190116723D01*
X215155057Y-190021485D01*
X216940771Y-190211961D02*
X217071723Y-189164342D01*
X217000295Y-188973866D01*
X216821723Y-188878628D01*
X216440771Y-188878628D01*
X216238390Y-188973866D01*
X216952676Y-190116723D02*
X216750295Y-190211961D01*
X216274104Y-190211961D01*
X216095533Y-190116723D01*
X216024104Y-189926247D01*
X216047914Y-189735771D01*
X216166961Y-189545295D01*
X216369342Y-189450057D01*
X216845533Y-189450057D01*
X217047914Y-189354819D01*
X217774104Y-188878628D02*
X218536009Y-188878628D01*
X218143152Y-188211961D02*
X217928866Y-189926247D01*
X218000295Y-190116723D01*
X218178866Y-190211961D01*
X218369342Y-190211961D01*
X219321723Y-190211961D02*
X219143152Y-190116723D01*
X219059819Y-190021485D01*
X218988390Y-189831009D01*
X219059819Y-189259580D01*
X219178866Y-189069104D01*
X219286009Y-188973866D01*
X219488390Y-188878628D01*
X219774104Y-188878628D01*
X219952676Y-188973866D01*
X220036009Y-189069104D01*
X220107438Y-189259580D01*
X220036009Y-189831009D01*
X219916961Y-190021485D01*
X219809819Y-190116723D01*
X219607438Y-190211961D01*
X219321723Y-190211961D01*
X220845533Y-190211961D02*
X221012199Y-188878628D01*
X220964580Y-189259580D02*
X221083628Y-189069104D01*
X221190771Y-188973866D01*
X221393152Y-188878628D01*
X221583628Y-188878628D01*
D10*
D11*
X178934342Y-185600057D02*
X178434342Y-185600057D01*
X178434342Y-186385771D02*
X178434342Y-184885771D01*
X179148628Y-184885771D01*
X179720057Y-186385771D02*
X179720057Y-185385771D01*
X179720057Y-184885771D02*
X179648628Y-184957200D01*
X179720057Y-185028628D01*
X179791485Y-184957200D01*
X179720057Y-184885771D01*
X179720057Y-185028628D01*
X180648628Y-186385771D02*
X180505771Y-186314342D01*
X180434342Y-186171485D01*
X180434342Y-184885771D01*
X181791485Y-186314342D02*
X181648628Y-186385771D01*
X181362914Y-186385771D01*
X181220057Y-186314342D01*
X181148628Y-186171485D01*
X181148628Y-185600057D01*
X181220057Y-185457200D01*
X181362914Y-185385771D01*
X181648628Y-185385771D01*
X181791485Y-185457200D01*
X181862914Y-185600057D01*
X181862914Y-185742914D01*
X181148628Y-185885771D01*
X182505771Y-186242914D02*
X182577200Y-186314342D01*
X182505771Y-186385771D01*
X182434342Y-186314342D01*
X182505771Y-186242914D01*
X182505771Y-186385771D01*
X182505771Y-185457200D02*
X182577200Y-185528628D01*
X182505771Y-185600057D01*
X182434342Y-185528628D01*
X182505771Y-185457200D01*
X182505771Y-185600057D01*
X184291485Y-186314342D02*
X184505771Y-186385771D01*
X184862914Y-186385771D01*
X185005771Y-186314342D01*
X185077200Y-186242914D01*
X185148628Y-186100057D01*
X185148628Y-185957200D01*
X185077200Y-185814342D01*
X185005771Y-185742914D01*
X184862914Y-185671485D01*
X184577200Y-185600057D01*
X184434342Y-185528628D01*
X184362914Y-185457200D01*
X184291485Y-185314342D01*
X184291485Y-185171485D01*
X184362914Y-185028628D01*
X184434342Y-184957200D01*
X184577200Y-184885771D01*
X184934342Y-184885771D01*
X185148628Y-184957200D01*
X186077200Y-185671485D02*
X186077200Y-186385771D01*
X185577200Y-184885771D02*
X186077200Y-185671485D01*
X186577200Y-184885771D01*
X187005771Y-186314342D02*
X187220057Y-186385771D01*
X187577200Y-186385771D01*
X187720057Y-186314342D01*
X187791485Y-186242914D01*
X187862914Y-186100057D01*
X187862914Y-185957200D01*
X187791485Y-185814342D01*
X187720057Y-185742914D01*
X187577200Y-185671485D01*
X187291485Y-185600057D01*
X187148628Y-185528628D01*
X187077200Y-185457200D01*
X187005771Y-185314342D01*
X187005771Y-185171485D01*
X187077200Y-185028628D01*
X187148628Y-184957200D01*
X187291485Y-184885771D01*
X187648628Y-184885771D01*
X187862914Y-184957200D01*
X188148628Y-186528628D02*
X189291485Y-186528628D01*
X189577200Y-186314342D02*
X189791485Y-186385771D01*
X190148628Y-186385771D01*
X190291485Y-186314342D01*
X190362914Y-186242914D01*
X190434342Y-186100057D01*
X190434342Y-185957200D01*
X190362914Y-185814342D01*
X190291485Y-185742914D01*
X190148628Y-185671485D01*
X189862914Y-185600057D01*
X189720057Y-185528628D01*
X189648628Y-185457200D01*
X189577200Y-185314342D01*
X189577200Y-185171485D01*
X189648628Y-185028628D01*
X189720057Y-184957200D01*
X189862914Y-184885771D01*
X190220057Y-184885771D01*
X190434342Y-184957200D01*
X190862914Y-185385771D02*
X191434342Y-185385771D01*
X191077200Y-184885771D02*
X191077200Y-186171485D01*
X191148628Y-186314342D01*
X191291485Y-186385771D01*
X191434342Y-186385771D01*
X192505771Y-186314342D02*
X192362914Y-186385771D01*
X192077200Y-186385771D01*
X191934342Y-186314342D01*
X191862914Y-186171485D01*
X191862914Y-185600057D01*
X191934342Y-185457200D01*
X192077200Y-185385771D01*
X192362914Y-185385771D01*
X192505771Y-185457200D01*
X192577200Y-185600057D01*
X192577200Y-185742914D01*
X191862914Y-185885771D01*
X193220057Y-185385771D02*
X193220057Y-186885771D01*
X193220057Y-185457200D02*
X193362914Y-185385771D01*
X193648628Y-185385771D01*
X193791485Y-185457200D01*
X193862914Y-185528628D01*
X193934342Y-185671485D01*
X193934342Y-186100057D01*
X193862914Y-186242914D01*
X193791485Y-186314342D01*
X193648628Y-186385771D01*
X193362914Y-186385771D01*
X193220057Y-186314342D01*
X194505771Y-185957200D02*
X195220057Y-185957200D01*
X194362914Y-186385771D02*
X194862914Y-184885771D01*
X195362914Y-186385771D01*
X195648628Y-185385771D02*
X196220057Y-185385771D01*
X195862914Y-184885771D02*
X195862914Y-186171485D01*
X195934342Y-186314342D01*
X196077200Y-186385771D01*
X196220057Y-186385771D01*
X196505771Y-185385771D02*
X197077200Y-185385771D01*
X196720057Y-184885771D02*
X196720057Y-186171485D01*
X196791485Y-186314342D01*
X196934342Y-186385771D01*
X197077200Y-186385771D01*
X198148628Y-186314342D02*
X198005771Y-186385771D01*
X197720057Y-186385771D01*
X197577200Y-186314342D01*
X197505771Y-186171485D01*
X197505771Y-185600057D01*
X197577200Y-185457200D01*
X197720057Y-185385771D01*
X198005771Y-185385771D01*
X198148628Y-185457200D01*
X198220057Y-185600057D01*
X198220057Y-185742914D01*
X197505771Y-185885771D01*
X198862914Y-185385771D02*
X198862914Y-186385771D01*
X198862914Y-185528628D02*
X198934342Y-185457200D01*
X199077200Y-185385771D01*
X199291485Y-185385771D01*
X199434342Y-185457200D01*
X199505771Y-185600057D01*
X199505771Y-186385771D01*
X200220057Y-186242914D02*
X200291485Y-186314342D01*
X200220057Y-186385771D01*
X200148628Y-186314342D01*
X200220057Y-186242914D01*
X200220057Y-186385771D01*
X200934342Y-186385771D02*
X200934342Y-184885771D01*
X201077200Y-185814342D02*
X201505771Y-186385771D01*
X201505771Y-185385771D02*
X200934342Y-185957200D01*
X202148628Y-186385771D02*
X202148628Y-185385771D01*
X202148628Y-184885771D02*
X202077200Y-184957200D01*
X202148628Y-185028628D01*
X202220057Y-184957200D01*
X202148628Y-184885771D01*
X202148628Y-185028628D01*
X203505771Y-186314342D02*
X203362914Y-186385771D01*
X203077200Y-186385771D01*
X202934342Y-186314342D01*
X202862914Y-186242914D01*
X202791485Y-186100057D01*
X202791485Y-185671485D01*
X202862914Y-185528628D01*
X202934342Y-185457200D01*
X203077200Y-185385771D01*
X203362914Y-185385771D01*
X203505771Y-185457200D01*
X204791485Y-186385771D02*
X204791485Y-185600057D01*
X204720057Y-185457200D01*
X204577200Y-185385771D01*
X204291485Y-185385771D01*
X204148628Y-185457200D01*
X204791485Y-186314342D02*
X204648628Y-186385771D01*
X204291485Y-186385771D01*
X204148628Y-186314342D01*
X204077200Y-186171485D01*
X204077200Y-186028628D01*
X204148628Y-185885771D01*
X204291485Y-185814342D01*
X204648628Y-185814342D01*
X204791485Y-185742914D01*
X206148628Y-186385771D02*
X206148628Y-184885771D01*
X206148628Y-186314342D02*
X206005771Y-186385771D01*
X205720057Y-186385771D01*
X205577200Y-186314342D01*
X205505771Y-186242914D01*
X205434342Y-186100057D01*
X205434342Y-185671485D01*
X205505771Y-185528628D01*
X205577200Y-185457200D01*
X205720057Y-185385771D01*
X206005771Y-185385771D01*
X206148628Y-185457200D01*
X206505771Y-186528628D02*
X207648628Y-186528628D01*
X208005771Y-185385771D02*
X208005771Y-186885771D01*
X208005771Y-185457200D02*
X208148628Y-185385771D01*
X208434342Y-185385771D01*
X208577200Y-185457200D01*
X208648628Y-185528628D01*
X208720057Y-185671485D01*
X208720057Y-186100057D01*
X208648628Y-186242914D01*
X208577200Y-186314342D01*
X208434342Y-186385771D01*
X208148628Y-186385771D01*
X208005771Y-186314342D01*
X210005771Y-186314342D02*
X209862914Y-186385771D01*
X209577200Y-186385771D01*
X209434342Y-186314342D01*
X209362914Y-186242914D01*
X209291485Y-186100057D01*
X209291485Y-185671485D01*
X209362914Y-185528628D01*
X209434342Y-185457200D01*
X209577200Y-185385771D01*
X209862914Y-185385771D01*
X210005771Y-185457200D01*
X210648628Y-186385771D02*
X210648628Y-184885771D01*
X210648628Y-185457200D02*
X210791485Y-185385771D01*
X211077200Y-185385771D01*
X211220057Y-185457200D01*
X211291485Y-185528628D01*
X211362914Y-185671485D01*
X211362914Y-186100057D01*
X211291485Y-186242914D01*
X211220057Y-186314342D01*
X211077200Y-186385771D01*
X210791485Y-186385771D01*
X210648628Y-186314342D01*
D10*
D11*
X177002200Y-181507200D02*
X285002200Y-181507200D01*
D10*
D11*
X178362914Y-183614342D02*
X178577200Y-183685771D01*
X178934342Y-183685771D01*
X179077200Y-183614342D01*
X179148628Y-183542914D01*
X179220057Y-183400057D01*
X179220057Y-183257200D01*
X179148628Y-183114342D01*
X179077200Y-183042914D01*
X178934342Y-182971485D01*
X178648628Y-182900057D01*
X178505771Y-182828628D01*
X178434342Y-182757200D01*
X178362914Y-182614342D01*
X178362914Y-182471485D01*
X178434342Y-182328628D01*
X178505771Y-182257200D01*
X178648628Y-182185771D01*
X179005771Y-182185771D01*
X179220057Y-182257200D01*
X179862914Y-183685771D02*
X179862914Y-182185771D01*
X180505771Y-183685771D02*
X180505771Y-182900057D01*
X180434342Y-182757200D01*
X180291485Y-182685771D01*
X180077200Y-182685771D01*
X179934342Y-182757200D01*
X179862914Y-182828628D01*
X181791485Y-183614342D02*
X181648628Y-183685771D01*
X181362914Y-183685771D01*
X181220057Y-183614342D01*
X181148628Y-183471485D01*
X181148628Y-182900057D01*
X181220057Y-182757200D01*
X181362914Y-182685771D01*
X181648628Y-182685771D01*
X181791485Y-182757200D01*
X181862914Y-182900057D01*
X181862914Y-183042914D01*
X181148628Y-183185771D01*
X183077200Y-183614342D02*
X182934342Y-183685771D01*
X182648628Y-183685771D01*
X182505771Y-183614342D01*
X182434342Y-183471485D01*
X182434342Y-182900057D01*
X182505771Y-182757200D01*
X182648628Y-182685771D01*
X182934342Y-182685771D01*
X183077200Y-182757200D01*
X183148628Y-182900057D01*
X183148628Y-183042914D01*
X182434342Y-183185771D01*
X183577200Y-182685771D02*
X184148628Y-182685771D01*
X183791485Y-182185771D02*
X183791485Y-183471485D01*
X183862914Y-183614342D01*
X184005771Y-183685771D01*
X184148628Y-183685771D01*
X184648628Y-183542914D02*
X184720057Y-183614342D01*
X184648628Y-183685771D01*
X184577200Y-183614342D01*
X184648628Y-183542914D01*
X184648628Y-183685771D01*
X184648628Y-182757200D02*
X184720057Y-182828628D01*
X184648628Y-182900057D01*
X184577200Y-182828628D01*
X184648628Y-182757200D01*
X184648628Y-182900057D01*
D10*
D12*
X178554342Y-180685771D02*
X178554342Y-179185771D01*
X179125771Y-179185771D01*
X179268628Y-179257200D01*
X179340057Y-179328628D01*
X179411485Y-179471485D01*
X179411485Y-179685771D01*
X179340057Y-179828628D01*
X179268628Y-179900057D01*
X179125771Y-179971485D01*
X178554342Y-179971485D01*
X180054342Y-180685771D02*
X180054342Y-179185771D01*
X180697200Y-180685771D02*
X180697200Y-179900057D01*
X180625771Y-179757200D01*
X180482914Y-179685771D01*
X180268628Y-179685771D01*
X180125771Y-179757200D01*
X180054342Y-179828628D01*
X181411485Y-180685771D02*
X181411485Y-179685771D01*
X181411485Y-179185771D02*
X181340057Y-179257200D01*
X181411485Y-179328628D01*
X181482914Y-179257200D01*
X181411485Y-179185771D01*
X181411485Y-179328628D01*
X182340057Y-180685771D02*
X182197200Y-180614342D01*
X182125771Y-180471485D01*
X182125771Y-179185771D01*
X182911485Y-180685771D02*
X182911485Y-179685771D01*
X182911485Y-179185771D02*
X182840057Y-179257200D01*
X182911485Y-179328628D01*
X182982914Y-179257200D01*
X182911485Y-179185771D01*
X182911485Y-179328628D01*
X183625771Y-179685771D02*
X183625771Y-181185771D01*
X183625771Y-179757200D02*
X183768628Y-179685771D01*
X184054342Y-179685771D01*
X184197200Y-179757200D01*
X184268628Y-179828628D01*
X184340057Y-179971485D01*
X184340057Y-180400057D01*
X184268628Y-180542914D01*
X184197200Y-180614342D01*
X184054342Y-180685771D01*
X183768628Y-180685771D01*
X183625771Y-180614342D01*
X184982914Y-179685771D02*
X184982914Y-181185771D01*
X184982914Y-179757200D02*
X185125771Y-179685771D01*
X185411485Y-179685771D01*
X185554342Y-179757200D01*
X185625771Y-179828628D01*
X185697200Y-179971485D01*
X185697200Y-180400057D01*
X185625771Y-180542914D01*
X185554342Y-180614342D01*
X185411485Y-180685771D01*
X185125771Y-180685771D01*
X184982914Y-180614342D01*
X187411485Y-180614342D02*
X187625771Y-180685771D01*
X187982914Y-180685771D01*
X188125771Y-180614342D01*
X188197200Y-180542914D01*
X188268628Y-180400057D01*
X188268628Y-180257200D01*
X188197200Y-180114342D01*
X188125771Y-180042914D01*
X187982914Y-179971485D01*
X187697200Y-179900057D01*
X187554342Y-179828628D01*
X187482914Y-179757200D01*
X187411485Y-179614342D01*
X187411485Y-179471485D01*
X187482914Y-179328628D01*
X187554342Y-179257200D01*
X187697200Y-179185771D01*
X188054342Y-179185771D01*
X188268628Y-179257200D01*
X189554342Y-180614342D02*
X189411485Y-180685771D01*
X189125771Y-180685771D01*
X188982914Y-180614342D01*
X188911485Y-180542914D01*
X188840057Y-180400057D01*
X188840057Y-179971485D01*
X188911485Y-179828628D01*
X188982914Y-179757200D01*
X189125771Y-179685771D01*
X189411485Y-179685771D01*
X189554342Y-179757200D01*
X190197200Y-180685771D02*
X190197200Y-179185771D01*
X190840057Y-180685771D02*
X190840057Y-179900057D01*
X190768628Y-179757200D01*
X190625771Y-179685771D01*
X190411485Y-179685771D01*
X190268628Y-179757200D01*
X190197200Y-179828628D01*
X191554342Y-180685771D02*
X191554342Y-179685771D01*
X191554342Y-179185771D02*
X191482914Y-179257200D01*
X191554342Y-179328628D01*
X191625771Y-179257200D01*
X191554342Y-179185771D01*
X191554342Y-179328628D01*
X192482914Y-180685771D02*
X192340057Y-180614342D01*
X192268628Y-180471485D01*
X192268628Y-179185771D01*
X193054342Y-180685771D02*
X193054342Y-179185771D01*
X193197200Y-180114342D02*
X193625771Y-180685771D01*
X193625771Y-179685771D02*
X193054342Y-180257200D01*
D10*
D11*
X178434342Y-177685771D02*
X178434342Y-176185771D01*
X179077200Y-177685771D02*
X179077200Y-176900057D01*
X179005771Y-176757200D01*
X178862914Y-176685771D01*
X178648628Y-176685771D01*
X178505771Y-176757200D01*
X178434342Y-176828628D01*
X179577200Y-176685771D02*
X180148628Y-176685771D01*
X179791485Y-176185771D02*
X179791485Y-177471485D01*
X179862914Y-177614342D01*
X180005771Y-177685771D01*
X180148628Y-177685771D01*
X180434342Y-176685771D02*
X181005771Y-176685771D01*
X180648628Y-176185771D02*
X180648628Y-177471485D01*
X180720057Y-177614342D01*
X180862914Y-177685771D01*
X181005771Y-177685771D01*
X181505771Y-176685771D02*
X181505771Y-178185771D01*
X181505771Y-176757200D02*
X181648628Y-176685771D01*
X181934342Y-176685771D01*
X182077200Y-176757200D01*
X182148628Y-176828628D01*
X182220057Y-176971485D01*
X182220057Y-177400057D01*
X182148628Y-177542914D01*
X182077200Y-177614342D01*
X181934342Y-177685771D01*
X181648628Y-177685771D01*
X181505771Y-177614342D01*
X182791485Y-177614342D02*
X182934342Y-177685771D01*
X183220057Y-177685771D01*
X183362914Y-177614342D01*
X183434342Y-177471485D01*
X183434342Y-177400057D01*
X183362914Y-177257200D01*
X183220057Y-177185771D01*
X183005771Y-177185771D01*
X182862914Y-177114342D01*
X182791485Y-176971485D01*
X182791485Y-176900057D01*
X182862914Y-176757200D01*
X183005771Y-176685771D01*
X183220057Y-176685771D01*
X183362914Y-176757200D01*
X184077200Y-177542914D02*
X184148628Y-177614342D01*
X184077200Y-177685771D01*
X184005771Y-177614342D01*
X184077200Y-177542914D01*
X184077200Y-177685771D01*
X184077200Y-176757200D02*
X184148628Y-176828628D01*
X184077200Y-176900057D01*
X184005771Y-176828628D01*
X184077200Y-176757200D01*
X184077200Y-176900057D01*
X185862914Y-176114342D02*
X184577200Y-178042914D01*
X187434342Y-176114342D02*
X186148628Y-178042914D01*
X188577200Y-176685771D02*
X188577200Y-177900057D01*
X188505771Y-178042914D01*
X188434342Y-178114342D01*
X188291485Y-178185771D01*
X188077200Y-178185771D01*
X187934342Y-178114342D01*
X188577200Y-177614342D02*
X188434342Y-177685771D01*
X188148628Y-177685771D01*
X188005771Y-177614342D01*
X187934342Y-177542914D01*
X187862914Y-177400057D01*
X187862914Y-176971485D01*
X187934342Y-176828628D01*
X188005771Y-176757200D01*
X188148628Y-176685771D01*
X188434342Y-176685771D01*
X188577200Y-176757200D01*
X189291485Y-177685771D02*
X189291485Y-176685771D01*
X189291485Y-176185771D02*
X189220057Y-176257200D01*
X189291485Y-176328628D01*
X189362914Y-176257200D01*
X189291485Y-176185771D01*
X189291485Y-176328628D01*
X189791485Y-176685771D02*
X190362914Y-176685771D01*
X190005771Y-176185771D02*
X190005771Y-177471485D01*
X190077200Y-177614342D01*
X190220057Y-177685771D01*
X190362914Y-177685771D01*
X190862914Y-177685771D02*
X190862914Y-176185771D01*
X191505771Y-177685771D02*
X191505771Y-176900057D01*
X191434342Y-176757200D01*
X191291485Y-176685771D01*
X191077200Y-176685771D01*
X190934342Y-176757200D01*
X190862914Y-176828628D01*
X192862914Y-176685771D02*
X192862914Y-177685771D01*
X192220057Y-176685771D02*
X192220057Y-177471485D01*
X192291485Y-177614342D01*
X192434342Y-177685771D01*
X192648628Y-177685771D01*
X192791485Y-177614342D01*
X192862914Y-177542914D01*
X193577200Y-177685771D02*
X193577200Y-176185771D01*
X193577200Y-176757200D02*
X193720057Y-176685771D01*
X194005771Y-176685771D01*
X194148628Y-176757200D01*
X194220057Y-176828628D01*
X194291485Y-176971485D01*
X194291485Y-177400057D01*
X194220057Y-177542914D01*
X194148628Y-177614342D01*
X194005771Y-177685771D01*
X193720057Y-177685771D01*
X193577200Y-177614342D01*
X194934342Y-177542914D02*
X195005771Y-177614342D01*
X194934342Y-177685771D01*
X194862914Y-177614342D01*
X194934342Y-177542914D01*
X194934342Y-177685771D01*
X196291485Y-177614342D02*
X196148628Y-177685771D01*
X195862914Y-177685771D01*
X195720057Y-177614342D01*
X195648628Y-177542914D01*
X195577200Y-177400057D01*
X195577200Y-176971485D01*
X195648628Y-176828628D01*
X195720057Y-176757200D01*
X195862914Y-176685771D01*
X196148628Y-176685771D01*
X196291485Y-176757200D01*
X197148628Y-177685771D02*
X197005771Y-177614342D01*
X196934342Y-177542914D01*
X196862914Y-177400057D01*
X196862914Y-176971485D01*
X196934342Y-176828628D01*
X197005771Y-176757200D01*
X197148628Y-176685771D01*
X197362914Y-176685771D01*
X197505771Y-176757200D01*
X197577200Y-176828628D01*
X197648628Y-176971485D01*
X197648628Y-177400057D01*
X197577200Y-177542914D01*
X197505771Y-177614342D01*
X197362914Y-177685771D01*
X197148628Y-177685771D01*
X198291485Y-177685771D02*
X198291485Y-176685771D01*
X198291485Y-176828628D02*
X198362914Y-176757200D01*
X198505771Y-176685771D01*
X198720057Y-176685771D01*
X198862914Y-176757200D01*
X198934342Y-176900057D01*
X198934342Y-177685771D01*
X198934342Y-176900057D02*
X199005771Y-176757200D01*
X199148628Y-176685771D01*
X199362914Y-176685771D01*
X199505771Y-176757200D01*
X199577200Y-176900057D01*
X199577200Y-177685771D01*
X201362914Y-176114342D02*
X200077200Y-178042914D01*
X201648628Y-176185771D02*
X202505771Y-176185771D01*
X202077200Y-177685771D02*
X202077200Y-176185771D01*
X203005771Y-177685771D02*
X203005771Y-176185771D01*
X203648628Y-177685771D02*
X203648628Y-176900057D01*
X203577200Y-176757200D01*
X203434342Y-176685771D01*
X203220057Y-176685771D01*
X203077200Y-176757200D01*
X203005771Y-176828628D01*
X204934342Y-177614342D02*
X204791485Y-177685771D01*
X204505771Y-177685771D01*
X204362914Y-177614342D01*
X204291485Y-177471485D01*
X204291485Y-176900057D01*
X204362914Y-176757200D01*
X204505771Y-176685771D01*
X204791485Y-176685771D01*
X204934342Y-176757200D01*
X205005771Y-176900057D01*
X205005771Y-177042914D01*
X204291485Y-177185771D01*
X205577200Y-177614342D02*
X205791485Y-177685771D01*
X206148628Y-177685771D01*
X206291485Y-177614342D01*
X206362914Y-177542914D01*
X206434342Y-177400057D01*
X206434342Y-177257200D01*
X206362914Y-177114342D01*
X206291485Y-177042914D01*
X206148628Y-176971485D01*
X205862914Y-176900057D01*
X205720057Y-176828628D01*
X205648628Y-176757200D01*
X205577200Y-176614342D01*
X205577200Y-176471485D01*
X205648628Y-176328628D01*
X205720057Y-176257200D01*
X205862914Y-176185771D01*
X206220057Y-176185771D01*
X206434342Y-176257200D01*
X207720057Y-177614342D02*
X207577200Y-177685771D01*
X207291485Y-177685771D01*
X207148628Y-177614342D01*
X207077200Y-177542914D01*
X207005771Y-177400057D01*
X207005771Y-176971485D01*
X207077200Y-176828628D01*
X207148628Y-176757200D01*
X207291485Y-176685771D01*
X207577200Y-176685771D01*
X207720057Y-176757200D01*
X208362914Y-177685771D02*
X208362914Y-176185771D01*
X209005771Y-177685771D02*
X209005771Y-176900057D01*
X208934342Y-176757200D01*
X208791485Y-176685771D01*
X208577200Y-176685771D01*
X208434342Y-176757200D01*
X208362914Y-176828628D01*
X209720057Y-177685771D02*
X209720057Y-176685771D01*
X209720057Y-176185771D02*
X209648628Y-176257200D01*
X209720057Y-176328628D01*
X209791485Y-176257200D01*
X209720057Y-176185771D01*
X209720057Y-176328628D01*
X210648628Y-177685771D02*
X210505771Y-177614342D01*
X210434342Y-177471485D01*
X210434342Y-176185771D01*
X211220057Y-177685771D02*
X211220057Y-176185771D01*
X211362914Y-177114342D02*
X211791485Y-177685771D01*
X211791485Y-176685771D02*
X211220057Y-177257200D01*
X213505771Y-176114342D02*
X212220057Y-178042914D01*
X213934342Y-177614342D02*
X214148628Y-177685771D01*
X214505771Y-177685771D01*
X214648628Y-177614342D01*
X214720057Y-177542914D01*
X214791485Y-177400057D01*
X214791485Y-177257200D01*
X214720057Y-177114342D01*
X214648628Y-177042914D01*
X214505771Y-176971485D01*
X214220057Y-176900057D01*
X214077200Y-176828628D01*
X214005771Y-176757200D01*
X213934342Y-176614342D01*
X213934342Y-176471485D01*
X214005771Y-176328628D01*
X214077200Y-176257200D01*
X214220057Y-176185771D01*
X214577200Y-176185771D01*
X214791485Y-176257200D01*
X215720057Y-176971485D02*
X215720057Y-177685771D01*
X215220057Y-176185771D02*
X215720057Y-176971485D01*
X216220057Y-176185771D01*
X216648628Y-177614342D02*
X216862914Y-177685771D01*
X217220057Y-177685771D01*
X217362914Y-177614342D01*
X217434342Y-177542914D01*
X217505771Y-177400057D01*
X217505771Y-177257200D01*
X217434342Y-177114342D01*
X217362914Y-177042914D01*
X217220057Y-176971485D01*
X216934342Y-176900057D01*
X216791485Y-176828628D01*
X216720057Y-176757200D01*
X216648628Y-176614342D01*
X216648628Y-176471485D01*
X216720057Y-176328628D01*
X216791485Y-176257200D01*
X216934342Y-176185771D01*
X217291485Y-176185771D01*
X217505771Y-176257200D01*
X217791485Y-177828628D02*
X218934342Y-177828628D01*
X219220057Y-177614342D02*
X219434342Y-177685771D01*
X219791485Y-177685771D01*
X219934342Y-177614342D01*
X220005771Y-177542914D01*
X220077200Y-177400057D01*
X220077200Y-177257200D01*
X220005771Y-177114342D01*
X219934342Y-177042914D01*
X219791485Y-176971485D01*
X219505771Y-176900057D01*
X219362914Y-176828628D01*
X219291485Y-176757200D01*
X219220057Y-176614342D01*
X219220057Y-176471485D01*
X219291485Y-176328628D01*
X219362914Y-176257200D01*
X219505771Y-176185771D01*
X219862914Y-176185771D01*
X220077200Y-176257200D01*
X220505771Y-176685771D02*
X221077200Y-176685771D01*
X220720057Y-176185771D02*
X220720057Y-177471485D01*
X220791485Y-177614342D01*
X220934342Y-177685771D01*
X221077200Y-177685771D01*
X222148628Y-177614342D02*
X222005771Y-177685771D01*
X221720057Y-177685771D01*
X221577200Y-177614342D01*
X221505771Y-177471485D01*
X221505771Y-176900057D01*
X221577200Y-176757200D01*
X221720057Y-176685771D01*
X222005771Y-176685771D01*
X222148628Y-176757200D01*
X222220057Y-176900057D01*
X222220057Y-177042914D01*
X221505771Y-177185771D01*
X222862914Y-176685771D02*
X222862914Y-178185771D01*
X222862914Y-176757200D02*
X223005771Y-176685771D01*
X223291485Y-176685771D01*
X223434342Y-176757200D01*
X223505771Y-176828628D01*
X223577200Y-176971485D01*
X223577200Y-177400057D01*
X223505771Y-177542914D01*
X223434342Y-177614342D01*
X223291485Y-177685771D01*
X223005771Y-177685771D01*
X222862914Y-177614342D01*
X224148628Y-177257200D02*
X224862914Y-177257200D01*
X224005771Y-177685771D02*
X224505771Y-176185771D01*
X225005771Y-177685771D01*
X225291485Y-176685771D02*
X225862914Y-176685771D01*
X225505771Y-176185771D02*
X225505771Y-177471485D01*
X225577200Y-177614342D01*
X225720057Y-177685771D01*
X225862914Y-177685771D01*
X226148628Y-176685771D02*
X226720057Y-176685771D01*
X226362914Y-176185771D02*
X226362914Y-177471485D01*
X226434342Y-177614342D01*
X226577200Y-177685771D01*
X226720057Y-177685771D01*
X227791485Y-177614342D02*
X227648628Y-177685771D01*
X227362914Y-177685771D01*
X227220057Y-177614342D01*
X227148628Y-177471485D01*
X227148628Y-176900057D01*
X227220057Y-176757200D01*
X227362914Y-176685771D01*
X227648628Y-176685771D01*
X227791485Y-176757200D01*
X227862914Y-176900057D01*
X227862914Y-177042914D01*
X227148628Y-177185771D01*
X228505771Y-176685771D02*
X228505771Y-177685771D01*
X228505771Y-176828628D02*
X228577200Y-176757200D01*
X228720057Y-176685771D01*
X228934342Y-176685771D01*
X229077200Y-176757200D01*
X229148628Y-176900057D01*
X229148628Y-177685771D01*
D10*
D11*
X178862914Y-169185771D02*
X178505771Y-169185771D01*
X178505771Y-167042914D01*
X178862914Y-167042914D01*
X179434342Y-168685771D02*
X179434342Y-167185771D01*
X180291485Y-168685771D01*
X180291485Y-167185771D01*
X181220057Y-168685771D02*
X181077200Y-168614342D01*
X181005771Y-168542914D01*
X180934342Y-168400057D01*
X180934342Y-167971485D01*
X181005771Y-167828628D01*
X181077200Y-167757200D01*
X181220057Y-167685771D01*
X181434342Y-167685771D01*
X181577200Y-167757200D01*
X181648628Y-167828628D01*
X181720057Y-167971485D01*
X181720057Y-168400057D01*
X181648628Y-168542914D01*
X181577200Y-168614342D01*
X181434342Y-168685771D01*
X181220057Y-168685771D01*
X183434342Y-168257200D02*
X184148628Y-168257200D01*
X183291485Y-168685771D02*
X183791485Y-167185771D01*
X184291485Y-168685771D01*
X184720057Y-168614342D02*
X184862914Y-168685771D01*
X185148628Y-168685771D01*
X185291485Y-168614342D01*
X185362914Y-168471485D01*
X185362914Y-168400057D01*
X185291485Y-168257200D01*
X185148628Y-168185771D01*
X184934342Y-168185771D01*
X184791485Y-168114342D01*
X184720057Y-167971485D01*
X184720057Y-167900057D01*
X184791485Y-167757200D01*
X184934342Y-167685771D01*
X185148628Y-167685771D01*
X185291485Y-167757200D01*
X185934342Y-168614342D02*
X186077200Y-168685771D01*
X186362914Y-168685771D01*
X186505771Y-168614342D01*
X186577200Y-168471485D01*
X186577200Y-168400057D01*
X186505771Y-168257200D01*
X186362914Y-168185771D01*
X186148628Y-168185771D01*
X186005771Y-168114342D01*
X185934342Y-167971485D01*
X185934342Y-167900057D01*
X186005771Y-167757200D01*
X186148628Y-167685771D01*
X186362914Y-167685771D01*
X186505771Y-167757200D01*
X187434342Y-168685771D02*
X187291485Y-168614342D01*
X187220057Y-168542914D01*
X187148628Y-168400057D01*
X187148628Y-167971485D01*
X187220057Y-167828628D01*
X187291485Y-167757200D01*
X187434342Y-167685771D01*
X187648628Y-167685771D01*
X187791485Y-167757200D01*
X187862914Y-167828628D01*
X187934342Y-167971485D01*
X187934342Y-168400057D01*
X187862914Y-168542914D01*
X187791485Y-168614342D01*
X187648628Y-168685771D01*
X187434342Y-168685771D01*
X189220057Y-168614342D02*
X189077200Y-168685771D01*
X188791485Y-168685771D01*
X188648628Y-168614342D01*
X188577200Y-168542914D01*
X188505771Y-168400057D01*
X188505771Y-167971485D01*
X188577200Y-167828628D01*
X188648628Y-167757200D01*
X188791485Y-167685771D01*
X189077200Y-167685771D01*
X189220057Y-167757200D01*
X189862914Y-168685771D02*
X189862914Y-167685771D01*
X189862914Y-167185771D02*
X189791485Y-167257200D01*
X189862914Y-167328628D01*
X189934342Y-167257200D01*
X189862914Y-167185771D01*
X189862914Y-167328628D01*
X191220057Y-168685771D02*
X191220057Y-167900057D01*
X191148628Y-167757200D01*
X191005771Y-167685771D01*
X190720057Y-167685771D01*
X190577200Y-167757200D01*
X191220057Y-168614342D02*
X191077200Y-168685771D01*
X190720057Y-168685771D01*
X190577200Y-168614342D01*
X190505771Y-168471485D01*
X190505771Y-168328628D01*
X190577200Y-168185771D01*
X190720057Y-168114342D01*
X191077200Y-168114342D01*
X191220057Y-168042914D01*
X191720057Y-167685771D02*
X192291485Y-167685771D01*
X191934342Y-167185771D02*
X191934342Y-168471485D01*
X192005771Y-168614342D01*
X192148628Y-168685771D01*
X192291485Y-168685771D01*
X192791485Y-168685771D02*
X192791485Y-167685771D01*
X192791485Y-167185771D02*
X192720057Y-167257200D01*
X192791485Y-167328628D01*
X192862914Y-167257200D01*
X192791485Y-167185771D01*
X192791485Y-167328628D01*
X193720057Y-168685771D02*
X193577200Y-168614342D01*
X193505771Y-168542914D01*
X193434342Y-168400057D01*
X193434342Y-167971485D01*
X193505771Y-167828628D01*
X193577200Y-167757200D01*
X193720057Y-167685771D01*
X193934342Y-167685771D01*
X194077200Y-167757200D01*
X194148628Y-167828628D01*
X194220057Y-167971485D01*
X194220057Y-168400057D01*
X194148628Y-168542914D01*
X194077200Y-168614342D01*
X193934342Y-168685771D01*
X193720057Y-168685771D01*
X194862914Y-167685771D02*
X194862914Y-168685771D01*
X194862914Y-167828628D02*
X194934342Y-167757200D01*
X195077200Y-167685771D01*
X195291485Y-167685771D01*
X195434342Y-167757200D01*
X195505771Y-167900057D01*
X195505771Y-168685771D01*
X197220057Y-167685771D02*
X197505771Y-168685771D01*
X197791485Y-167971485D01*
X198077200Y-168685771D01*
X198362914Y-167685771D01*
X198934342Y-168685771D02*
X198934342Y-167685771D01*
X198934342Y-167185771D02*
X198862914Y-167257200D01*
X198934342Y-167328628D01*
X199005771Y-167257200D01*
X198934342Y-167185771D01*
X198934342Y-167328628D01*
X199434342Y-167685771D02*
X200005771Y-167685771D01*
X199648628Y-167185771D02*
X199648628Y-168471485D01*
X199720057Y-168614342D01*
X199862914Y-168685771D01*
X200005771Y-168685771D01*
X200505771Y-168685771D02*
X200505771Y-167185771D01*
X201148628Y-168685771D02*
X201148628Y-167900057D01*
X201077200Y-167757200D01*
X200934342Y-167685771D01*
X200720057Y-167685771D01*
X200577200Y-167757200D01*
X200505771Y-167828628D01*
X202934342Y-168614342D02*
X203148628Y-168685771D01*
X203505771Y-168685771D01*
X203648628Y-168614342D01*
X203720057Y-168542914D01*
X203791485Y-168400057D01*
X203791485Y-168257200D01*
X203720057Y-168114342D01*
X203648628Y-168042914D01*
X203505771Y-167971485D01*
X203220057Y-167900057D01*
X203077200Y-167828628D01*
X203005771Y-167757200D01*
X202934342Y-167614342D01*
X202934342Y-167471485D01*
X203005771Y-167328628D01*
X203077200Y-167257200D01*
X203220057Y-167185771D01*
X203577200Y-167185771D01*
X203791485Y-167257200D01*
X205077200Y-168614342D02*
X204934342Y-168685771D01*
X204648628Y-168685771D01*
X204505771Y-168614342D01*
X204434342Y-168542914D01*
X204362914Y-168400057D01*
X204362914Y-167971485D01*
X204434342Y-167828628D01*
X204505771Y-167757200D01*
X204648628Y-167685771D01*
X204934342Y-167685771D01*
X205077200Y-167757200D01*
X205720057Y-168685771D02*
X205720057Y-167185771D01*
X206362914Y-168685771D02*
X206362914Y-167900057D01*
X206291485Y-167757200D01*
X206148628Y-167685771D01*
X205934342Y-167685771D01*
X205791485Y-167757200D01*
X205720057Y-167828628D01*
X207077200Y-168685771D02*
X207077200Y-167685771D01*
X207077200Y-167185771D02*
X207005771Y-167257200D01*
X207077200Y-167328628D01*
X207148628Y-167257200D01*
X207077200Y-167185771D01*
X207077200Y-167328628D01*
X207791485Y-168685771D02*
X207791485Y-167685771D01*
X207791485Y-167185771D02*
X207720057Y-167257200D01*
X207791485Y-167328628D01*
X207862914Y-167257200D01*
X207791485Y-167185771D01*
X207791485Y-167328628D01*
X208291485Y-167685771D02*
X208862914Y-167685771D01*
X208505771Y-167185771D02*
X208505771Y-168471485D01*
X208577200Y-168614342D01*
X208720057Y-168685771D01*
X208862914Y-168685771D01*
X210434342Y-168257200D02*
X211148628Y-168257200D01*
X210291485Y-168685771D02*
X210791485Y-167185771D01*
X211291485Y-168685771D01*
X212434342Y-167685771D02*
X212434342Y-168685771D01*
X211791485Y-167685771D02*
X211791485Y-168471485D01*
X211862914Y-168614342D01*
X212005771Y-168685771D01*
X212220057Y-168685771D01*
X212362914Y-168614342D01*
X212434342Y-168542914D01*
X213791485Y-168685771D02*
X213791485Y-167185771D01*
X213791485Y-168614342D02*
X213648628Y-168685771D01*
X213362914Y-168685771D01*
X213220057Y-168614342D01*
X213148628Y-168542914D01*
X213077200Y-168400057D01*
X213077200Y-167971485D01*
X213148628Y-167828628D01*
X213220057Y-167757200D01*
X213362914Y-167685771D01*
X213648628Y-167685771D01*
X213791485Y-167757200D01*
X214505771Y-168685771D02*
X214505771Y-167685771D01*
X214505771Y-167185771D02*
X214434342Y-167257200D01*
X214505771Y-167328628D01*
X214577200Y-167257200D01*
X214505771Y-167185771D01*
X214505771Y-167328628D01*
X215434342Y-168685771D02*
X215291485Y-168614342D01*
X215220057Y-168542914D01*
X215148628Y-168400057D01*
X215148628Y-167971485D01*
X215220057Y-167828628D01*
X215291485Y-167757200D01*
X215434342Y-167685771D01*
X215648628Y-167685771D01*
X215791485Y-167757200D01*
X215862914Y-167828628D01*
X215934342Y-167971485D01*
X215934342Y-168400057D01*
X215862914Y-168542914D01*
X215791485Y-168614342D01*
X215648628Y-168685771D01*
X215434342Y-168685771D01*
X216434342Y-169185771D02*
X216791485Y-169185771D01*
X216791485Y-167042914D01*
X216434342Y-167042914D01*
D10*
D11*
X197002200Y-191507200D02*
X197002200Y-194507200D01*
D10*
D11*
X261002200Y-191507200D02*
X261002200Y-198007200D01*
D14*
X200000000Y-147500000D02*
X200000000Y-63500000D01*
X200000000Y-63500000D02*
X78000000Y-63500000D01*
X78000000Y-63500000D02*
X78000000Y-147500000D01*
X78000000Y-147500000D02*
X200000000Y-147500000D01*
M02*
